<?xml version="1.0" encoding="utf-8" standalone="no"?>
<!DOCTYPE svg PUBLIC "-//W3C//DTD SVG 1.1//EN"
  "http://www.w3.org/Graphics/SVG/1.1/DTD/svg11.dtd">
<!-- Created with matplotlib (https://matplotlib.org/) -->
<svg height="252.389375pt" version="1.1" viewBox="0 0 412.749375 252.389375" width="412.749375pt" xmlns="http://www.w3.org/2000/svg" xmlns:xlink="http://www.w3.org/1999/xlink">
 <defs>
  <style type="text/css">
*{stroke-linecap:butt;stroke-linejoin:round;}
  </style>
 </defs>
 <g id="figure_1">
  <g id="patch_1">
   <path d="M 0 252.389375 
L 412.749375 252.389375 
L 412.749375 0 
L 0 0 
z
" style="fill:#ffffff;"/>
  </g>
  <g id="axes_1">
   <g id="patch_2">
    <path d="M 70.749375 212.893769 
L 405.549375 212.893769 
L 405.549375 7.2 
L 70.749375 7.2 
z
" style="fill:#ffffff;"/>
   </g>
   <g id="patch_3">
    <path clip-path="url(#p421ee5fa1d)" d="M 385.119826 697.363422 
L 390.555626 697.363422 
L 390.555626 187.395366 
L 385.119826 187.395366 
z
" style="fill:#0072ce;"/>
   </g>
   <g id="patch_4">
    <path clip-path="url(#p421ee5fa1d)" d="M 377.570103 697.363422 
L 383.005903 697.363422 
L 383.005903 187.395366 
L 377.570103 187.395366 
z
" style="fill:#0072ce;"/>
   </g>
   <g id="patch_5">
    <path clip-path="url(#p421ee5fa1d)" d="M 370.02038 697.363422 
L 375.456181 697.363422 
L 375.456181 161.447872 
L 370.02038 161.447872 
z
" style="fill:#0072ce;"/>
   </g>
   <g id="patch_6">
    <path clip-path="url(#p421ee5fa1d)" d="M 362.470658 697.363422 
L 367.906458 697.363422 
L 367.906458 159.451911 
L 362.470658 159.451911 
z
" style="fill:#0072ce;"/>
   </g>
   <g id="patch_7">
    <path clip-path="url(#p421ee5fa1d)" d="M 354.920935 697.363422 
L 360.356735 697.363422 
L 360.356735 159.451911 
L 354.920935 159.451911 
z
" style="fill:#0072ce;"/>
   </g>
   <g id="patch_8">
    <path clip-path="url(#p421ee5fa1d)" d="M 347.371212 697.363422 
L 352.807013 697.363422 
L 352.807013 159.451911 
L 347.371212 159.451911 
z
" style="fill:#0072ce;"/>
   </g>
   <g id="patch_9">
    <path clip-path="url(#p421ee5fa1d)" d="M 339.82149 697.363422 
L 345.25729 697.363422 
L 345.25729 150.470086 
L 339.82149 150.470086 
z
" style="fill:#0072ce;"/>
   </g>
   <g id="patch_10">
    <path clip-path="url(#p421ee5fa1d)" d="M 332.271767 697.363422 
L 337.707567 697.363422 
L 337.707567 161.447872 
L 332.271767 161.447872 
z
" style="fill:#0072ce;"/>
   </g>
   <g id="patch_11">
    <path clip-path="url(#p421ee5fa1d)" d="M 324.722044 697.363422 
L 330.157845 697.363422 
L 330.157845 165.439794 
L 324.722044 165.439794 
z
" style="fill:#0072ce;"/>
   </g>
   <g id="patch_12">
    <path clip-path="url(#p421ee5fa1d)" d="M 317.172322 697.363422 
L 322.608122 697.363422 
L 322.608122 165.439794 
L 317.172322 165.439794 
z
" style="fill:#0072ce;"/>
   </g>
   <g id="patch_13">
    <path clip-path="url(#p421ee5fa1d)" d="M 309.622599 697.363422 
L 315.058399 697.363422 
L 315.058399 165.439794 
L 309.622599 165.439794 
z
" style="fill:#0072ce;"/>
   </g>
   <g id="patch_14">
    <path clip-path="url(#p421ee5fa1d)" d="M 302.072877 697.363422 
L 307.508677 697.363422 
L 307.508677 165.439794 
L 302.072877 165.439794 
z
" style="fill:#0072ce;"/>
   </g>
   <g id="patch_15">
    <path clip-path="url(#p421ee5fa1d)" d="M 294.523154 697.363422 
L 299.958954 697.363422 
L 299.958954 161.447872 
L 294.523154 161.447872 
z
" style="fill:#0072ce;"/>
   </g>
   <g id="patch_16">
    <path clip-path="url(#p421ee5fa1d)" d="M 286.973431 697.363422 
L 292.409232 697.363422 
L 292.409232 143.484223 
L 286.973431 143.484223 
z
" style="fill:#0072ce;"/>
   </g>
   <g id="patch_17">
    <path clip-path="url(#p421ee5fa1d)" d="M 279.423709 697.363422 
L 284.859509 697.363422 
L 284.859509 143.484223 
L 279.423709 143.484223 
z
" style="fill:#0072ce;"/>
   </g>
   <g id="patch_18">
    <path clip-path="url(#p421ee5fa1d)" d="M 271.873986 697.363422 
L 277.309786 697.363422 
L 277.309786 149.472106 
L 271.873986 149.472106 
z
" style="fill:#0072ce;"/>
   </g>
   <g id="patch_19">
    <path clip-path="url(#p421ee5fa1d)" d="M 264.324263 697.363422 
L 269.760064 697.363422 
L 269.760064 159.451911 
L 264.324263 159.451911 
z
" style="fill:#0072ce;"/>
   </g>
   <g id="patch_20">
    <path clip-path="url(#p421ee5fa1d)" d="M 256.774541 697.363422 
L 262.210341 697.363422 
L 262.210341 159.451911 
L 256.774541 159.451911 
z
" style="fill:#0072ce;"/>
   </g>
   <g id="patch_21">
    <path clip-path="url(#p421ee5fa1d)" d="M 249.224818 697.363422 
L 254.660618 697.363422 
L 254.660618 169.431717 
L 249.224818 169.431717 
z
" style="fill:#0072ce;"/>
   </g>
   <g id="patch_22">
    <path clip-path="url(#p421ee5fa1d)" d="M 241.675095 697.363422 
L 247.110896 697.363422 
L 247.110896 175.4196 
L 241.675095 175.4196 
z
" style="fill:#0072ce;"/>
   </g>
   <g id="patch_23">
    <path clip-path="url(#p421ee5fa1d)" d="M 234.125373 697.363422 
L 239.561173 697.363422 
L 239.561173 182.405464 
L 234.125373 182.405464 
z
" style="fill:#0072ce;"/>
   </g>
   <g id="patch_24">
    <path clip-path="url(#p421ee5fa1d)" d="M 226.57565 697.363422 
L 232.01145 697.363422 
L 232.01145 183.403444 
L 226.57565 183.403444 
z
" style="fill:#0072ce;"/>
   </g>
   <g id="patch_25">
    <path clip-path="url(#p421ee5fa1d)" d="M 219.025928 697.363422 
L 224.461728 697.363422 
L 224.461728 173.423639 
L 219.025928 173.423639 
z
" style="fill:#0072ce;"/>
   </g>
   <g id="patch_26">
    <path clip-path="url(#p421ee5fa1d)" d="M 211.476205 697.363422 
L 216.912005 697.363422 
L 216.912005 162.445853 
L 211.476205 162.445853 
z
" style="fill:#0072ce;"/>
   </g>
   <g id="patch_27">
    <path clip-path="url(#p421ee5fa1d)" d="M 203.926482 697.363422 
L 209.362283 697.363422 
L 209.362283 162.445853 
L 203.926482 162.445853 
z
" style="fill:#0072ce;"/>
   </g>
   <g id="patch_28">
    <path clip-path="url(#p421ee5fa1d)" d="M 196.37676 697.363422 
L 201.81256 697.363422 
L 201.81256 162.445853 
L 196.37676 162.445853 
z
" style="fill:#0072ce;"/>
   </g>
   <g id="patch_29">
    <path clip-path="url(#p421ee5fa1d)" d="M 188.827037 697.363422 
L 194.262837 697.363422 
L 194.262837 162.445853 
L 188.827037 162.445853 
z
" style="fill:#0072ce;"/>
   </g>
   <g id="patch_30">
    <path clip-path="url(#p421ee5fa1d)" d="M 181.277314 697.363422 
L 186.713115 697.363422 
L 186.713115 162.445853 
L 181.277314 162.445853 
z
" style="fill:#0072ce;"/>
   </g>
   <g id="patch_31">
    <path clip-path="url(#p421ee5fa1d)" d="M 173.727592 697.363422 
L 179.163392 697.363422 
L 179.163392 162.445853 
L 173.727592 162.445853 
z
" style="fill:#0072ce;"/>
   </g>
   <g id="patch_32">
    <path clip-path="url(#p421ee5fa1d)" d="M 166.177869 697.363422 
L 171.613669 697.363422 
L 171.613669 158.453931 
L 166.177869 158.453931 
z
" style="fill:#0072ce;"/>
   </g>
   <g id="patch_33">
    <path clip-path="url(#p421ee5fa1d)" d="M 158.628146 697.363422 
L 164.063947 697.363422 
L 164.063947 163.443833 
L 158.628146 163.443833 
z
" style="fill:#0072ce;"/>
   </g>
   <g id="patch_34">
    <path clip-path="url(#p421ee5fa1d)" d="M 151.078424 697.363422 
L 156.514224 697.363422 
L 156.514224 139.4923 
L 151.078424 139.4923 
z
" style="fill:#0072ce;"/>
   </g>
   <g id="patch_35">
    <path clip-path="url(#p421ee5fa1d)" d="M 143.528701 697.363422 
L 148.964502 697.363422 
L 148.964502 122.526631 
L 143.528701 122.526631 
z
" style="fill:#0072ce;"/>
   </g>
   <g id="patch_36">
    <path clip-path="url(#p421ee5fa1d)" d="M 135.978979 697.363422 
L 141.414779 697.363422 
L 141.414779 122.526631 
L 135.978979 122.526631 
z
" style="fill:#0072ce;"/>
   </g>
   <g id="patch_37">
    <path clip-path="url(#p421ee5fa1d)" d="M 128.429256 697.363422 
L 133.865056 697.363422 
L 133.865056 123.524612 
L 128.429256 123.524612 
z
" style="fill:#0072ce;"/>
   </g>
   <g id="patch_38">
    <path clip-path="url(#p421ee5fa1d)" d="M 120.879533 697.363422 
L 126.315334 697.363422 
L 126.315334 112.546826 
L 120.879533 112.546826 
z
" style="fill:#0072ce;"/>
   </g>
   <g id="patch_39">
    <path clip-path="url(#p421ee5fa1d)" d="M 113.329811 697.363422 
L 118.765611 697.363422 
L 118.765611 71.629624 
L 113.329811 71.629624 
z
" style="fill:#0072ce;"/>
   </g>
   <g id="patch_40">
    <path clip-path="url(#p421ee5fa1d)" d="M 105.780088 697.363422 
L 111.215888 697.363422 
L 111.215888 76.619526 
L 105.780088 76.619526 
z
" style="fill:#0072ce;"/>
   </g>
   <g id="patch_41">
    <path clip-path="url(#p421ee5fa1d)" d="M 98.230365 697.363422 
L 103.666166 697.363422 
L 103.666166 47.678091 
L 98.230365 47.678091 
z
" style="fill:#0072ce;"/>
   </g>
   <g id="patch_42">
    <path clip-path="url(#p421ee5fa1d)" d="M 90.680643 697.363422 
L 96.116443 697.363422 
L 96.116443 20.732616 
L 90.680643 20.732616 
z
" style="fill:#0072ce;"/>
   </g>
   <g id="matplotlib.axis_1">
    <g id="xtick_1"/>
    <g id="xtick_2"/>
    <g id="xtick_3"/>
    <g id="xtick_4"/>
    <g id="xtick_5"/>
    <g id="xtick_6"/>
   </g>
   <g id="matplotlib.axis_2">
    <g id="ytick_1">
     <g id="line2d_1">
      <defs>
       <path d="M 0 0 
L -3.5 0 
" id="m6069c9ece5" style="stroke:#000000;stroke-width:0.8;"/>
      </defs>
      <g>
       <use style="stroke:#000000;stroke-width:0.8;" x="70.749375" xlink:href="#m6069c9ece5" y="198.373152"/>
      </g>
     </g>
     <g id="text_1">
      <!-- 500 -->
      <defs>
       <path d="M 10.796875 72.90625 
L 49.515625 72.90625 
L 49.515625 64.59375 
L 19.828125 64.59375 
L 19.828125 46.734375 
Q 21.96875 47.46875 24.109375 47.828125 
Q 26.265625 48.1875 28.421875 48.1875 
Q 40.625 48.1875 47.75 41.5 
Q 54.890625 34.8125 54.890625 23.390625 
Q 54.890625 11.625 47.5625 5.09375 
Q 40.234375 -1.421875 26.90625 -1.421875 
Q 22.3125 -1.421875 17.546875 -0.640625 
Q 12.796875 0.140625 7.71875 1.703125 
L 7.71875 11.625 
Q 12.109375 9.234375 16.796875 8.0625 
Q 21.484375 6.890625 26.703125 6.890625 
Q 35.15625 6.890625 40.078125 11.328125 
Q 45.015625 15.765625 45.015625 23.390625 
Q 45.015625 31 40.078125 35.4375 
Q 35.15625 39.890625 26.703125 39.890625 
Q 22.75 39.890625 18.8125 39.015625 
Q 14.890625 38.140625 10.796875 36.28125 
z
" id="DejaVuSans-53"/>
       <path d="M 31.78125 66.40625 
Q 24.171875 66.40625 20.328125 58.90625 
Q 16.5 51.421875 16.5 36.375 
Q 16.5 21.390625 20.328125 13.890625 
Q 24.171875 6.390625 31.78125 6.390625 
Q 39.453125 6.390625 43.28125 13.890625 
Q 47.125 21.390625 47.125 36.375 
Q 47.125 51.421875 43.28125 58.90625 
Q 39.453125 66.40625 31.78125 66.40625 
z
M 31.78125 74.21875 
Q 44.046875 74.21875 50.515625 64.515625 
Q 56.984375 54.828125 56.984375 36.375 
Q 56.984375 17.96875 50.515625 8.265625 
Q 44.046875 -1.421875 31.78125 -1.421875 
Q 19.53125 -1.421875 13.0625 8.265625 
Q 6.59375 17.96875 6.59375 36.375 
Q 6.59375 54.828125 13.0625 64.515625 
Q 19.53125 74.21875 31.78125 74.21875 
z
" id="DejaVuSans-48"/>
      </defs>
      <g transform="translate(37.026875 203.692058)scale(0.14 -0.14)">
       <use xlink:href="#DejaVuSans-53"/>
       <use x="63.623047" xlink:href="#DejaVuSans-48"/>
       <use x="127.246094" xlink:href="#DejaVuSans-48"/>
      </g>
     </g>
    </g>
    <g id="ytick_2">
     <g id="line2d_2">
      <g>
       <use style="stroke:#000000;stroke-width:0.8;" x="70.749375" xlink:href="#m6069c9ece5" y="148.474125"/>
      </g>
     </g>
     <g id="text_2">
      <!-- 550 -->
      <g transform="translate(37.026875 153.793031)scale(0.14 -0.14)">
       <use xlink:href="#DejaVuSans-53"/>
       <use x="63.623047" xlink:href="#DejaVuSans-53"/>
       <use x="127.246094" xlink:href="#DejaVuSans-48"/>
      </g>
     </g>
    </g>
    <g id="ytick_3">
     <g id="line2d_3">
      <g>
       <use style="stroke:#000000;stroke-width:0.8;" x="70.749375" xlink:href="#m6069c9ece5" y="98.575098"/>
      </g>
     </g>
     <g id="text_3">
      <!-- 600 -->
      <defs>
       <path d="M 33.015625 40.375 
Q 26.375 40.375 22.484375 35.828125 
Q 18.609375 31.296875 18.609375 23.390625 
Q 18.609375 15.53125 22.484375 10.953125 
Q 26.375 6.390625 33.015625 6.390625 
Q 39.65625 6.390625 43.53125 10.953125 
Q 47.40625 15.53125 47.40625 23.390625 
Q 47.40625 31.296875 43.53125 35.828125 
Q 39.65625 40.375 33.015625 40.375 
z
M 52.59375 71.296875 
L 52.59375 62.3125 
Q 48.875 64.0625 45.09375 64.984375 
Q 41.3125 65.921875 37.59375 65.921875 
Q 27.828125 65.921875 22.671875 59.328125 
Q 17.53125 52.734375 16.796875 39.40625 
Q 19.671875 43.65625 24.015625 45.921875 
Q 28.375 48.1875 33.59375 48.1875 
Q 44.578125 48.1875 50.953125 41.515625 
Q 57.328125 34.859375 57.328125 23.390625 
Q 57.328125 12.15625 50.6875 5.359375 
Q 44.046875 -1.421875 33.015625 -1.421875 
Q 20.359375 -1.421875 13.671875 8.265625 
Q 6.984375 17.96875 6.984375 36.375 
Q 6.984375 53.65625 15.1875 63.9375 
Q 23.390625 74.21875 37.203125 74.21875 
Q 40.921875 74.21875 44.703125 73.484375 
Q 48.484375 72.75 52.59375 71.296875 
z
" id="DejaVuSans-54"/>
      </defs>
      <g transform="translate(37.026875 103.894004)scale(0.14 -0.14)">
       <use xlink:href="#DejaVuSans-54"/>
       <use x="63.623047" xlink:href="#DejaVuSans-48"/>
       <use x="127.246094" xlink:href="#DejaVuSans-48"/>
      </g>
     </g>
    </g>
    <g id="ytick_4">
     <g id="line2d_4">
      <g>
       <use style="stroke:#000000;stroke-width:0.8;" x="70.749375" xlink:href="#m6069c9ece5" y="48.676071"/>
      </g>
     </g>
     <g id="text_4">
      <!-- 650 -->
      <g transform="translate(37.026875 53.994977)scale(0.14 -0.14)">
       <use xlink:href="#DejaVuSans-54"/>
       <use x="63.623047" xlink:href="#DejaVuSans-53"/>
       <use x="127.246094" xlink:href="#DejaVuSans-48"/>
      </g>
     </g>
    </g>
   </g>
   <g id="line2d_5">
    <path d="M 66.167323 217.475821 
L 75.331427 208.311717 
" style="fill:none;stroke:#000000;stroke-linecap:square;stroke-width:0.8;"/>
   </g>
   <g id="patch_43">
    <path d="M 70.749375 212.893769 
L 70.749375 7.2 
" style="fill:none;stroke:#000000;stroke-linecap:square;stroke-linejoin:miter;stroke-width:0.8;"/>
   </g>
  </g>
  <g id="axes_2">
   <g id="patch_44">
    <path d="M 70.749375 224.64 
L 405.549375 224.64 
L 405.549375 221.256846 
L 70.749375 221.256846 
z
" style="fill:#ffffff;"/>
   </g>
   <g id="patch_45">
    <path clip-path="url(#p9eb63b8b0f)" d="M 385.119826 224.64 
L 390.555626 224.64 
L 390.555626 -285.328056 
L 385.119826 -285.328056 
z
" style="fill:#0072ce;"/>
   </g>
   <g id="patch_46">
    <path clip-path="url(#p9eb63b8b0f)" d="M 377.570103 224.64 
L 383.005903 224.64 
L 383.005903 -285.328056 
L 377.570103 -285.328056 
z
" style="fill:#0072ce;"/>
   </g>
   <g id="patch_47">
    <path clip-path="url(#p9eb63b8b0f)" d="M 370.02038 224.64 
L 375.456181 224.64 
L 375.456181 -311.27555 
L 370.02038 -311.27555 
z
" style="fill:#0072ce;"/>
   </g>
   <g id="patch_48">
    <path clip-path="url(#p9eb63b8b0f)" d="M 362.470658 224.64 
L 367.906458 224.64 
L 367.906458 -313.271511 
L 362.470658 -313.271511 
z
" style="fill:#0072ce;"/>
   </g>
   <g id="patch_49">
    <path clip-path="url(#p9eb63b8b0f)" d="M 354.920935 224.64 
L 360.356735 224.64 
L 360.356735 -313.271511 
L 354.920935 -313.271511 
z
" style="fill:#0072ce;"/>
   </g>
   <g id="patch_50">
    <path clip-path="url(#p9eb63b8b0f)" d="M 347.371212 224.64 
L 352.807013 224.64 
L 352.807013 -313.271511 
L 347.371212 -313.271511 
z
" style="fill:#0072ce;"/>
   </g>
   <g id="patch_51">
    <path clip-path="url(#p9eb63b8b0f)" d="M 339.82149 224.64 
L 345.25729 224.64 
L 345.25729 -322.253336 
L 339.82149 -322.253336 
z
" style="fill:#0072ce;"/>
   </g>
   <g id="patch_52">
    <path clip-path="url(#p9eb63b8b0f)" d="M 332.271767 224.64 
L 337.707567 224.64 
L 337.707567 -311.27555 
L 332.271767 -311.27555 
z
" style="fill:#0072ce;"/>
   </g>
   <g id="patch_53">
    <path clip-path="url(#p9eb63b8b0f)" d="M 324.722044 224.64 
L 330.157845 224.64 
L 330.157845 -307.283628 
L 324.722044 -307.283628 
z
" style="fill:#0072ce;"/>
   </g>
   <g id="patch_54">
    <path clip-path="url(#p9eb63b8b0f)" d="M 317.172322 224.64 
L 322.608122 224.64 
L 322.608122 -307.283628 
L 317.172322 -307.283628 
z
" style="fill:#0072ce;"/>
   </g>
   <g id="patch_55">
    <path clip-path="url(#p9eb63b8b0f)" d="M 309.622599 224.64 
L 315.058399 224.64 
L 315.058399 -307.283628 
L 309.622599 -307.283628 
z
" style="fill:#0072ce;"/>
   </g>
   <g id="patch_56">
    <path clip-path="url(#p9eb63b8b0f)" d="M 302.072877 224.64 
L 307.508677 224.64 
L 307.508677 -307.283628 
L 302.072877 -307.283628 
z
" style="fill:#0072ce;"/>
   </g>
   <g id="patch_57">
    <path clip-path="url(#p9eb63b8b0f)" d="M 294.523154 224.64 
L 299.958954 224.64 
L 299.958954 -311.27555 
L 294.523154 -311.27555 
z
" style="fill:#0072ce;"/>
   </g>
   <g id="patch_58">
    <path clip-path="url(#p9eb63b8b0f)" d="M 286.973431 224.64 
L 292.409232 224.64 
L 292.409232 -329.2392 
L 286.973431 -329.2392 
z
" style="fill:#0072ce;"/>
   </g>
   <g id="patch_59">
    <path clip-path="url(#p9eb63b8b0f)" d="M 279.423709 224.64 
L 284.859509 224.64 
L 284.859509 -329.2392 
L 279.423709 -329.2392 
z
" style="fill:#0072ce;"/>
   </g>
   <g id="patch_60">
    <path clip-path="url(#p9eb63b8b0f)" d="M 271.873986 224.64 
L 277.309786 224.64 
L 277.309786 -323.251316 
L 271.873986 -323.251316 
z
" style="fill:#0072ce;"/>
   </g>
   <g id="patch_61">
    <path clip-path="url(#p9eb63b8b0f)" d="M 264.324263 224.64 
L 269.760064 224.64 
L 269.760064 -313.271511 
L 264.324263 -313.271511 
z
" style="fill:#0072ce;"/>
   </g>
   <g id="patch_62">
    <path clip-path="url(#p9eb63b8b0f)" d="M 256.774541 224.64 
L 262.210341 224.64 
L 262.210341 -313.271511 
L 256.774541 -313.271511 
z
" style="fill:#0072ce;"/>
   </g>
   <g id="patch_63">
    <path clip-path="url(#p9eb63b8b0f)" d="M 249.224818 224.64 
L 254.660618 224.64 
L 254.660618 -303.291706 
L 249.224818 -303.291706 
z
" style="fill:#0072ce;"/>
   </g>
   <g id="patch_64">
    <path clip-path="url(#p9eb63b8b0f)" d="M 241.675095 224.64 
L 247.110896 224.64 
L 247.110896 -297.303822 
L 241.675095 -297.303822 
z
" style="fill:#0072ce;"/>
   </g>
   <g id="patch_65">
    <path clip-path="url(#p9eb63b8b0f)" d="M 234.125373 224.64 
L 239.561173 224.64 
L 239.561173 -290.317959 
L 234.125373 -290.317959 
z
" style="fill:#0072ce;"/>
   </g>
   <g id="patch_66">
    <path clip-path="url(#p9eb63b8b0f)" d="M 226.57565 224.64 
L 232.01145 224.64 
L 232.01145 -289.319978 
L 226.57565 -289.319978 
z
" style="fill:#0072ce;"/>
   </g>
   <g id="patch_67">
    <path clip-path="url(#p9eb63b8b0f)" d="M 219.025928 224.64 
L 224.461728 224.64 
L 224.461728 -299.299783 
L 219.025928 -299.299783 
z
" style="fill:#0072ce;"/>
   </g>
   <g id="patch_68">
    <path clip-path="url(#p9eb63b8b0f)" d="M 211.476205 224.64 
L 216.912005 224.64 
L 216.912005 -310.277569 
L 211.476205 -310.277569 
z
" style="fill:#0072ce;"/>
   </g>
   <g id="patch_69">
    <path clip-path="url(#p9eb63b8b0f)" d="M 203.926482 224.64 
L 209.362283 224.64 
L 209.362283 -310.277569 
L 203.926482 -310.277569 
z
" style="fill:#0072ce;"/>
   </g>
   <g id="patch_70">
    <path clip-path="url(#p9eb63b8b0f)" d="M 196.37676 224.64 
L 201.81256 224.64 
L 201.81256 -310.277569 
L 196.37676 -310.277569 
z
" style="fill:#0072ce;"/>
   </g>
   <g id="patch_71">
    <path clip-path="url(#p9eb63b8b0f)" d="M 188.827037 224.64 
L 194.262837 224.64 
L 194.262837 -310.277569 
L 188.827037 -310.277569 
z
" style="fill:#0072ce;"/>
   </g>
   <g id="patch_72">
    <path clip-path="url(#p9eb63b8b0f)" d="M 181.277314 224.64 
L 186.713115 224.64 
L 186.713115 -310.277569 
L 181.277314 -310.277569 
z
" style="fill:#0072ce;"/>
   </g>
   <g id="patch_73">
    <path clip-path="url(#p9eb63b8b0f)" d="M 173.727592 224.64 
L 179.163392 224.64 
L 179.163392 -310.277569 
L 173.727592 -310.277569 
z
" style="fill:#0072ce;"/>
   </g>
   <g id="patch_74">
    <path clip-path="url(#p9eb63b8b0f)" d="M 166.177869 224.64 
L 171.613669 224.64 
L 171.613669 -314.269491 
L 166.177869 -314.269491 
z
" style="fill:#0072ce;"/>
   </g>
   <g id="patch_75">
    <path clip-path="url(#p9eb63b8b0f)" d="M 158.628146 224.64 
L 164.063947 224.64 
L 164.063947 -309.279589 
L 158.628146 -309.279589 
z
" style="fill:#0072ce;"/>
   </g>
   <g id="patch_76">
    <path clip-path="url(#p9eb63b8b0f)" d="M 151.078424 224.64 
L 156.514224 224.64 
L 156.514224 -333.231122 
L 151.078424 -333.231122 
z
" style="fill:#0072ce;"/>
   </g>
   <g id="patch_77">
    <path clip-path="url(#p9eb63b8b0f)" d="M 143.528701 224.64 
L 148.964502 224.64 
L 148.964502 -350.196791 
L 143.528701 -350.196791 
z
" style="fill:#0072ce;"/>
   </g>
   <g id="patch_78">
    <path clip-path="url(#p9eb63b8b0f)" d="M 135.978979 224.64 
L 141.414779 224.64 
L 141.414779 -350.196791 
L 135.978979 -350.196791 
z
" style="fill:#0072ce;"/>
   </g>
   <g id="patch_79">
    <path clip-path="url(#p9eb63b8b0f)" d="M 128.429256 224.64 
L 133.865056 224.64 
L 133.865056 -349.19881 
L 128.429256 -349.19881 
z
" style="fill:#0072ce;"/>
   </g>
   <g id="patch_80">
    <path clip-path="url(#p9eb63b8b0f)" d="M 120.879533 224.64 
L 126.315334 224.64 
L 126.315334 -360.176596 
L 120.879533 -360.176596 
z
" style="fill:#0072ce;"/>
   </g>
   <g id="patch_81">
    <path clip-path="url(#p9eb63b8b0f)" d="M 113.329811 224.64 
L 118.765611 224.64 
L 118.765611 -401.093798 
L 113.329811 -401.093798 
z
" style="fill:#0072ce;"/>
   </g>
   <g id="patch_82">
    <path clip-path="url(#p9eb63b8b0f)" d="M 105.780088 224.64 
L 111.215888 224.64 
L 111.215888 -396.103896 
L 105.780088 -396.103896 
z
" style="fill:#0072ce;"/>
   </g>
   <g id="patch_83">
    <path clip-path="url(#p9eb63b8b0f)" d="M 98.230365 224.64 
L 103.666166 224.64 
L 103.666166 -425.045331 
L 98.230365 -425.045331 
z
" style="fill:#0072ce;"/>
   </g>
   <g id="patch_84">
    <path clip-path="url(#p9eb63b8b0f)" d="M 90.680643 224.64 
L 96.116443 224.64 
L 96.116443 -451.990806 
L 90.680643 -451.990806 
z
" style="fill:#0072ce;"/>
   </g>
   <g id="matplotlib.axis_3">
    <g id="xtick_7">
     <g id="line2d_6">
      <defs>
       <path d="M 0 0 
L 0 3.5 
" id="m1150b66eee" style="stroke:#000000;stroke-width:0.8;"/>
      </defs>
      <g>
       <use style="stroke:#000000;stroke-width:0.8;" x="70.749375" xlink:href="#m1150b66eee" y="224.64"/>
      </g>
     </g>
     <g id="text_5">
      <!-- 2010 -->
      <defs>
       <path d="M 19.1875 8.296875 
L 53.609375 8.296875 
L 53.609375 0 
L 7.328125 0 
L 7.328125 8.296875 
Q 12.9375 14.109375 22.625 23.890625 
Q 32.328125 33.6875 34.8125 36.53125 
Q 39.546875 41.84375 41.421875 45.53125 
Q 43.3125 49.21875 43.3125 52.78125 
Q 43.3125 58.59375 39.234375 62.25 
Q 35.15625 65.921875 28.609375 65.921875 
Q 23.96875 65.921875 18.8125 64.3125 
Q 13.671875 62.703125 7.8125 59.421875 
L 7.8125 69.390625 
Q 13.765625 71.78125 18.9375 73 
Q 24.125 74.21875 28.421875 74.21875 
Q 39.75 74.21875 46.484375 68.546875 
Q 53.21875 62.890625 53.21875 53.421875 
Q 53.21875 48.921875 51.53125 44.890625 
Q 49.859375 40.875 45.40625 35.40625 
Q 44.1875 33.984375 37.640625 27.21875 
Q 31.109375 20.453125 19.1875 8.296875 
z
" id="DejaVuSans-50"/>
       <path d="M 12.40625 8.296875 
L 28.515625 8.296875 
L 28.515625 63.921875 
L 10.984375 60.40625 
L 10.984375 69.390625 
L 28.421875 72.90625 
L 38.28125 72.90625 
L 38.28125 8.296875 
L 54.390625 8.296875 
L 54.390625 0 
L 12.40625 0 
z
" id="DejaVuSans-49"/>
      </defs>
      <g transform="translate(52.934375 242.277812)scale(0.14 -0.14)">
       <use xlink:href="#DejaVuSans-50"/>
       <use x="63.623047" xlink:href="#DejaVuSans-48"/>
       <use x="127.246094" xlink:href="#DejaVuSans-49"/>
       <use x="190.869141" xlink:href="#DejaVuSans-48"/>
      </g>
     </g>
    </g>
    <g id="xtick_8">
     <g id="line2d_7">
      <g>
       <use style="stroke:#000000;stroke-width:0.8;" x="131.147156" xlink:href="#m1150b66eee" y="224.64"/>
      </g>
     </g>
     <g id="text_6">
      <!-- 2012 -->
      <g transform="translate(113.332156 242.277812)scale(0.14 -0.14)">
       <use xlink:href="#DejaVuSans-50"/>
       <use x="63.623047" xlink:href="#DejaVuSans-48"/>
       <use x="127.246094" xlink:href="#DejaVuSans-49"/>
       <use x="190.869141" xlink:href="#DejaVuSans-50"/>
      </g>
     </g>
    </g>
    <g id="xtick_9">
     <g id="line2d_8">
      <g>
       <use style="stroke:#000000;stroke-width:0.8;" x="191.544937" xlink:href="#m1150b66eee" y="224.64"/>
      </g>
     </g>
     <g id="text_7">
      <!-- 2014 -->
      <defs>
       <path d="M 37.796875 64.3125 
L 12.890625 25.390625 
L 37.796875 25.390625 
z
M 35.203125 72.90625 
L 47.609375 72.90625 
L 47.609375 25.390625 
L 58.015625 25.390625 
L 58.015625 17.1875 
L 47.609375 17.1875 
L 47.609375 0 
L 37.796875 0 
L 37.796875 17.1875 
L 4.890625 17.1875 
L 4.890625 26.703125 
z
" id="DejaVuSans-52"/>
      </defs>
      <g transform="translate(173.729937 242.277812)scale(0.14 -0.14)">
       <use xlink:href="#DejaVuSans-50"/>
       <use x="63.623047" xlink:href="#DejaVuSans-48"/>
       <use x="127.246094" xlink:href="#DejaVuSans-49"/>
       <use x="190.869141" xlink:href="#DejaVuSans-52"/>
      </g>
     </g>
    </g>
    <g id="xtick_10">
     <g id="line2d_9">
      <g>
       <use style="stroke:#000000;stroke-width:0.8;" x="251.942718" xlink:href="#m1150b66eee" y="224.64"/>
      </g>
     </g>
     <g id="text_8">
      <!-- 2016 -->
      <g transform="translate(234.127718 242.277812)scale(0.14 -0.14)">
       <use xlink:href="#DejaVuSans-50"/>
       <use x="63.623047" xlink:href="#DejaVuSans-48"/>
       <use x="127.246094" xlink:href="#DejaVuSans-49"/>
       <use x="190.869141" xlink:href="#DejaVuSans-54"/>
      </g>
     </g>
    </g>
    <g id="xtick_11">
     <g id="line2d_10">
      <g>
       <use style="stroke:#000000;stroke-width:0.8;" x="312.340499" xlink:href="#m1150b66eee" y="224.64"/>
      </g>
     </g>
     <g id="text_9">
      <!-- 2018 -->
      <defs>
       <path d="M 31.78125 34.625 
Q 24.75 34.625 20.71875 30.859375 
Q 16.703125 27.09375 16.703125 20.515625 
Q 16.703125 13.921875 20.71875 10.15625 
Q 24.75 6.390625 31.78125 6.390625 
Q 38.8125 6.390625 42.859375 10.171875 
Q 46.921875 13.96875 46.921875 20.515625 
Q 46.921875 27.09375 42.890625 30.859375 
Q 38.875 34.625 31.78125 34.625 
z
M 21.921875 38.8125 
Q 15.578125 40.375 12.03125 44.71875 
Q 8.5 49.078125 8.5 55.328125 
Q 8.5 64.0625 14.71875 69.140625 
Q 20.953125 74.21875 31.78125 74.21875 
Q 42.671875 74.21875 48.875 69.140625 
Q 55.078125 64.0625 55.078125 55.328125 
Q 55.078125 49.078125 51.53125 44.71875 
Q 48 40.375 41.703125 38.8125 
Q 48.828125 37.15625 52.796875 32.3125 
Q 56.78125 27.484375 56.78125 20.515625 
Q 56.78125 9.90625 50.3125 4.234375 
Q 43.84375 -1.421875 31.78125 -1.421875 
Q 19.734375 -1.421875 13.25 4.234375 
Q 6.78125 9.90625 6.78125 20.515625 
Q 6.78125 27.484375 10.78125 32.3125 
Q 14.796875 37.15625 21.921875 38.8125 
z
M 18.3125 54.390625 
Q 18.3125 48.734375 21.84375 45.5625 
Q 25.390625 42.390625 31.78125 42.390625 
Q 38.140625 42.390625 41.71875 45.5625 
Q 45.3125 48.734375 45.3125 54.390625 
Q 45.3125 60.0625 41.71875 63.234375 
Q 38.140625 66.40625 31.78125 66.40625 
Q 25.390625 66.40625 21.84375 63.234375 
Q 18.3125 60.0625 18.3125 54.390625 
z
" id="DejaVuSans-56"/>
      </defs>
      <g transform="translate(294.525499 242.277812)scale(0.14 -0.14)">
       <use xlink:href="#DejaVuSans-50"/>
       <use x="63.623047" xlink:href="#DejaVuSans-48"/>
       <use x="127.246094" xlink:href="#DejaVuSans-49"/>
       <use x="190.869141" xlink:href="#DejaVuSans-56"/>
      </g>
     </g>
    </g>
    <g id="xtick_12">
     <g id="line2d_11">
      <g>
       <use style="stroke:#000000;stroke-width:0.8;" x="372.73828" xlink:href="#m1150b66eee" y="224.64"/>
      </g>
     </g>
     <g id="text_10">
      <!-- 2020 -->
      <g transform="translate(354.92328 242.277812)scale(0.14 -0.14)">
       <use xlink:href="#DejaVuSans-50"/>
       <use x="63.623047" xlink:href="#DejaVuSans-48"/>
       <use x="127.246094" xlink:href="#DejaVuSans-50"/>
       <use x="190.869141" xlink:href="#DejaVuSans-48"/>
      </g>
     </g>
    </g>
   </g>
   <g id="matplotlib.axis_4">
    <g id="ytick_5">
     <g id="line2d_12">
      <g>
       <use style="stroke:#000000;stroke-width:0.8;" x="70.749375" xlink:href="#m6069c9ece5" y="224.64"/>
      </g>
     </g>
     <g id="text_11">
      <!-- 0 -->
      <g transform="translate(54.841875 229.958906)scale(0.14 -0.14)">
       <use xlink:href="#DejaVuSans-48"/>
      </g>
     </g>
    </g>
   </g>
   <g id="line2d_13">
    <path d="M 66.167323 225.838898 
L 75.331427 216.674794 
" style="fill:none;stroke:#000000;stroke-linecap:square;stroke-width:0.8;"/>
   </g>
   <g id="patch_85">
    <path d="M 70.749375 224.64 
L 70.749375 221.256846 
" style="fill:none;stroke:#000000;stroke-linecap:square;stroke-linejoin:miter;stroke-width:0.8;"/>
   </g>
   <g id="patch_86">
    <path d="M 70.749375 224.64 
L 405.549375 224.64 
" style="fill:none;stroke:#000000;stroke-linecap:square;stroke-linejoin:miter;stroke-width:0.8;"/>
   </g>
  </g>
  <g id="axes_3">
   <g id="patch_87">
    <path d="M 70.749375 224.64 
L 405.549375 224.64 
L 405.549375 7.2 
L 70.749375 7.2 
z
" style="fill:none;"/>
   </g>
   <g id="matplotlib.axis_5"/>
   <g id="matplotlib.axis_6">
    <g id="text_12">
     <!-- # of Overnight Beds -->
     <defs>
      <path d="M 51.125 44 
L 36.921875 44 
L 32.8125 27.6875 
L 47.125 27.6875 
z
M 43.796875 71.78125 
L 38.71875 51.515625 
L 52.984375 51.515625 
L 58.109375 71.78125 
L 65.921875 71.78125 
L 60.890625 51.515625 
L 76.125 51.515625 
L 76.125 44 
L 58.984375 44 
L 54.984375 27.6875 
L 70.515625 27.6875 
L 70.515625 20.21875 
L 53.078125 20.21875 
L 48 0 
L 40.1875 0 
L 45.21875 20.21875 
L 30.90625 20.21875 
L 25.875 0 
L 18.015625 0 
L 23.09375 20.21875 
L 7.71875 20.21875 
L 7.71875 27.6875 
L 24.90625 27.6875 
L 29 44 
L 13.28125 44 
L 13.28125 51.515625 
L 30.90625 51.515625 
L 35.890625 71.78125 
z
" id="DejaVuSans-35"/>
      <path id="DejaVuSans-32"/>
      <path d="M 30.609375 48.390625 
Q 23.390625 48.390625 19.1875 42.75 
Q 14.984375 37.109375 14.984375 27.296875 
Q 14.984375 17.484375 19.15625 11.84375 
Q 23.34375 6.203125 30.609375 6.203125 
Q 37.796875 6.203125 41.984375 11.859375 
Q 46.1875 17.53125 46.1875 27.296875 
Q 46.1875 37.015625 41.984375 42.703125 
Q 37.796875 48.390625 30.609375 48.390625 
z
M 30.609375 56 
Q 42.328125 56 49.015625 48.375 
Q 55.71875 40.765625 55.71875 27.296875 
Q 55.71875 13.875 49.015625 6.21875 
Q 42.328125 -1.421875 30.609375 -1.421875 
Q 18.84375 -1.421875 12.171875 6.21875 
Q 5.515625 13.875 5.515625 27.296875 
Q 5.515625 40.765625 12.171875 48.375 
Q 18.84375 56 30.609375 56 
z
" id="DejaVuSans-111"/>
      <path d="M 37.109375 75.984375 
L 37.109375 68.5 
L 28.515625 68.5 
Q 23.6875 68.5 21.796875 66.546875 
Q 19.921875 64.59375 19.921875 59.515625 
L 19.921875 54.6875 
L 34.71875 54.6875 
L 34.71875 47.703125 
L 19.921875 47.703125 
L 19.921875 0 
L 10.890625 0 
L 10.890625 47.703125 
L 2.296875 47.703125 
L 2.296875 54.6875 
L 10.890625 54.6875 
L 10.890625 58.5 
Q 10.890625 67.625 15.140625 71.796875 
Q 19.390625 75.984375 28.609375 75.984375 
z
" id="DejaVuSans-102"/>
      <path d="M 39.40625 66.21875 
Q 28.65625 66.21875 22.328125 58.203125 
Q 16.015625 50.203125 16.015625 36.375 
Q 16.015625 22.609375 22.328125 14.59375 
Q 28.65625 6.59375 39.40625 6.59375 
Q 50.140625 6.59375 56.421875 14.59375 
Q 62.703125 22.609375 62.703125 36.375 
Q 62.703125 50.203125 56.421875 58.203125 
Q 50.140625 66.21875 39.40625 66.21875 
z
M 39.40625 74.21875 
Q 54.734375 74.21875 63.90625 63.9375 
Q 73.09375 53.65625 73.09375 36.375 
Q 73.09375 19.140625 63.90625 8.859375 
Q 54.734375 -1.421875 39.40625 -1.421875 
Q 24.03125 -1.421875 14.8125 8.828125 
Q 5.609375 19.09375 5.609375 36.375 
Q 5.609375 53.65625 14.8125 63.9375 
Q 24.03125 74.21875 39.40625 74.21875 
z
" id="DejaVuSans-79"/>
      <path d="M 2.984375 54.6875 
L 12.5 54.6875 
L 29.59375 8.796875 
L 46.6875 54.6875 
L 56.203125 54.6875 
L 35.6875 0 
L 23.484375 0 
z
" id="DejaVuSans-118"/>
      <path d="M 56.203125 29.59375 
L 56.203125 25.203125 
L 14.890625 25.203125 
Q 15.484375 15.921875 20.484375 11.0625 
Q 25.484375 6.203125 34.421875 6.203125 
Q 39.59375 6.203125 44.453125 7.46875 
Q 49.3125 8.734375 54.109375 11.28125 
L 54.109375 2.78125 
Q 49.265625 0.734375 44.1875 -0.34375 
Q 39.109375 -1.421875 33.890625 -1.421875 
Q 20.796875 -1.421875 13.15625 6.1875 
Q 5.515625 13.8125 5.515625 26.8125 
Q 5.515625 40.234375 12.765625 48.109375 
Q 20.015625 56 32.328125 56 
Q 43.359375 56 49.78125 48.890625 
Q 56.203125 41.796875 56.203125 29.59375 
z
M 47.21875 32.234375 
Q 47.125 39.59375 43.09375 43.984375 
Q 39.0625 48.390625 32.421875 48.390625 
Q 24.90625 48.390625 20.390625 44.140625 
Q 15.875 39.890625 15.1875 32.171875 
z
" id="DejaVuSans-101"/>
      <path d="M 41.109375 46.296875 
Q 39.59375 47.171875 37.8125 47.578125 
Q 36.03125 48 33.890625 48 
Q 26.265625 48 22.1875 43.046875 
Q 18.109375 38.09375 18.109375 28.8125 
L 18.109375 0 
L 9.078125 0 
L 9.078125 54.6875 
L 18.109375 54.6875 
L 18.109375 46.1875 
Q 20.953125 51.171875 25.484375 53.578125 
Q 30.03125 56 36.53125 56 
Q 37.453125 56 38.578125 55.875 
Q 39.703125 55.765625 41.0625 55.515625 
z
" id="DejaVuSans-114"/>
      <path d="M 54.890625 33.015625 
L 54.890625 0 
L 45.90625 0 
L 45.90625 32.71875 
Q 45.90625 40.484375 42.875 44.328125 
Q 39.84375 48.1875 33.796875 48.1875 
Q 26.515625 48.1875 22.3125 43.546875 
Q 18.109375 38.921875 18.109375 30.90625 
L 18.109375 0 
L 9.078125 0 
L 9.078125 54.6875 
L 18.109375 54.6875 
L 18.109375 46.1875 
Q 21.34375 51.125 25.703125 53.5625 
Q 30.078125 56 35.796875 56 
Q 45.21875 56 50.046875 50.171875 
Q 54.890625 44.34375 54.890625 33.015625 
z
" id="DejaVuSans-110"/>
      <path d="M 9.421875 54.6875 
L 18.40625 54.6875 
L 18.40625 0 
L 9.421875 0 
z
M 9.421875 75.984375 
L 18.40625 75.984375 
L 18.40625 64.59375 
L 9.421875 64.59375 
z
" id="DejaVuSans-105"/>
      <path d="M 45.40625 27.984375 
Q 45.40625 37.75 41.375 43.109375 
Q 37.359375 48.484375 30.078125 48.484375 
Q 22.859375 48.484375 18.828125 43.109375 
Q 14.796875 37.75 14.796875 27.984375 
Q 14.796875 18.265625 18.828125 12.890625 
Q 22.859375 7.515625 30.078125 7.515625 
Q 37.359375 7.515625 41.375 12.890625 
Q 45.40625 18.265625 45.40625 27.984375 
z
M 54.390625 6.78125 
Q 54.390625 -7.171875 48.1875 -13.984375 
Q 42 -20.796875 29.203125 -20.796875 
Q 24.46875 -20.796875 20.265625 -20.09375 
Q 16.0625 -19.390625 12.109375 -17.921875 
L 12.109375 -9.1875 
Q 16.0625 -11.328125 19.921875 -12.34375 
Q 23.78125 -13.375 27.78125 -13.375 
Q 36.625 -13.375 41.015625 -8.765625 
Q 45.40625 -4.15625 45.40625 5.171875 
L 45.40625 9.625 
Q 42.625 4.78125 38.28125 2.390625 
Q 33.9375 0 27.875 0 
Q 17.828125 0 11.671875 7.65625 
Q 5.515625 15.328125 5.515625 27.984375 
Q 5.515625 40.671875 11.671875 48.328125 
Q 17.828125 56 27.875 56 
Q 33.9375 56 38.28125 53.609375 
Q 42.625 51.21875 45.40625 46.390625 
L 45.40625 54.6875 
L 54.390625 54.6875 
z
" id="DejaVuSans-103"/>
      <path d="M 54.890625 33.015625 
L 54.890625 0 
L 45.90625 0 
L 45.90625 32.71875 
Q 45.90625 40.484375 42.875 44.328125 
Q 39.84375 48.1875 33.796875 48.1875 
Q 26.515625 48.1875 22.3125 43.546875 
Q 18.109375 38.921875 18.109375 30.90625 
L 18.109375 0 
L 9.078125 0 
L 9.078125 75.984375 
L 18.109375 75.984375 
L 18.109375 46.1875 
Q 21.34375 51.125 25.703125 53.5625 
Q 30.078125 56 35.796875 56 
Q 45.21875 56 50.046875 50.171875 
Q 54.890625 44.34375 54.890625 33.015625 
z
" id="DejaVuSans-104"/>
      <path d="M 18.3125 70.21875 
L 18.3125 54.6875 
L 36.8125 54.6875 
L 36.8125 47.703125 
L 18.3125 47.703125 
L 18.3125 18.015625 
Q 18.3125 11.328125 20.140625 9.421875 
Q 21.96875 7.515625 27.59375 7.515625 
L 36.8125 7.515625 
L 36.8125 0 
L 27.59375 0 
Q 17.1875 0 13.234375 3.875 
Q 9.28125 7.765625 9.28125 18.015625 
L 9.28125 47.703125 
L 2.6875 47.703125 
L 2.6875 54.6875 
L 9.28125 54.6875 
L 9.28125 70.21875 
z
" id="DejaVuSans-116"/>
      <path d="M 19.671875 34.8125 
L 19.671875 8.109375 
L 35.5 8.109375 
Q 43.453125 8.109375 47.28125 11.40625 
Q 51.125 14.703125 51.125 21.484375 
Q 51.125 28.328125 47.28125 31.5625 
Q 43.453125 34.8125 35.5 34.8125 
z
M 19.671875 64.796875 
L 19.671875 42.828125 
L 34.28125 42.828125 
Q 41.5 42.828125 45.03125 45.53125 
Q 48.578125 48.25 48.578125 53.8125 
Q 48.578125 59.328125 45.03125 62.0625 
Q 41.5 64.796875 34.28125 64.796875 
z
M 9.8125 72.90625 
L 35.015625 72.90625 
Q 46.296875 72.90625 52.390625 68.21875 
Q 58.5 63.53125 58.5 54.890625 
Q 58.5 48.1875 55.375 44.234375 
Q 52.25 40.28125 46.1875 39.3125 
Q 53.46875 37.75 57.5 32.78125 
Q 61.53125 27.828125 61.53125 20.40625 
Q 61.53125 10.640625 54.890625 5.3125 
Q 48.25 0 35.984375 0 
L 9.8125 0 
z
" id="DejaVuSans-66"/>
      <path d="M 45.40625 46.390625 
L 45.40625 75.984375 
L 54.390625 75.984375 
L 54.390625 0 
L 45.40625 0 
L 45.40625 8.203125 
Q 42.578125 3.328125 38.25 0.953125 
Q 33.9375 -1.421875 27.875 -1.421875 
Q 17.96875 -1.421875 11.734375 6.484375 
Q 5.515625 14.40625 5.515625 27.296875 
Q 5.515625 40.1875 11.734375 48.09375 
Q 17.96875 56 27.875 56 
Q 33.9375 56 38.25 53.625 
Q 42.578125 51.265625 45.40625 46.390625 
z
M 14.796875 27.296875 
Q 14.796875 17.390625 18.875 11.75 
Q 22.953125 6.109375 30.078125 6.109375 
Q 37.203125 6.109375 41.296875 11.75 
Q 45.40625 17.390625 45.40625 27.296875 
Q 45.40625 37.203125 41.296875 42.84375 
Q 37.203125 48.484375 30.078125 48.484375 
Q 22.953125 48.484375 18.875 42.84375 
Q 14.796875 37.203125 14.796875 27.296875 
z
" id="DejaVuSans-100"/>
      <path d="M 44.28125 53.078125 
L 44.28125 44.578125 
Q 40.484375 46.53125 36.375 47.5 
Q 32.28125 48.484375 27.875 48.484375 
Q 21.1875 48.484375 17.84375 46.4375 
Q 14.5 44.390625 14.5 40.28125 
Q 14.5 37.15625 16.890625 35.375 
Q 19.28125 33.59375 26.515625 31.984375 
L 29.59375 31.296875 
Q 39.15625 29.25 43.1875 25.515625 
Q 47.21875 21.78125 47.21875 15.09375 
Q 47.21875 7.46875 41.1875 3.015625 
Q 35.15625 -1.421875 24.609375 -1.421875 
Q 20.21875 -1.421875 15.453125 -0.5625 
Q 10.6875 0.296875 5.421875 2 
L 5.421875 11.28125 
Q 10.40625 8.6875 15.234375 7.390625 
Q 20.0625 6.109375 24.8125 6.109375 
Q 31.15625 6.109375 34.5625 8.28125 
Q 37.984375 10.453125 37.984375 14.40625 
Q 37.984375 18.0625 35.515625 20.015625 
Q 33.0625 21.96875 24.703125 23.78125 
L 21.578125 24.515625 
Q 13.234375 26.265625 9.515625 29.90625 
Q 5.8125 33.546875 5.8125 39.890625 
Q 5.8125 47.609375 11.28125 51.796875 
Q 16.75 56 26.8125 56 
Q 31.78125 56 36.171875 55.265625 
Q 40.578125 54.546875 44.28125 53.078125 
z
" id="DejaVuSans-115"/>
     </defs>
     <g transform="translate(17.837812 187.25)rotate(-90)scale(0.14 -0.14)">
      <use xlink:href="#DejaVuSans-35"/>
      <use x="83.789062" xlink:href="#DejaVuSans-32"/>
      <use x="115.576172" xlink:href="#DejaVuSans-111"/>
      <use x="176.757812" xlink:href="#DejaVuSans-102"/>
      <use x="211.962891" xlink:href="#DejaVuSans-32"/>
      <use x="243.75" xlink:href="#DejaVuSans-79"/>
      <use x="322.460938" xlink:href="#DejaVuSans-118"/>
      <use x="381.640625" xlink:href="#DejaVuSans-101"/>
      <use x="443.164062" xlink:href="#DejaVuSans-114"/>
      <use x="484.261719" xlink:href="#DejaVuSans-110"/>
      <use x="547.640625" xlink:href="#DejaVuSans-105"/>
      <use x="575.423828" xlink:href="#DejaVuSans-103"/>
      <use x="638.900391" xlink:href="#DejaVuSans-104"/>
      <use x="702.279297" xlink:href="#DejaVuSans-116"/>
      <use x="741.488281" xlink:href="#DejaVuSans-32"/>
      <use x="773.275391" xlink:href="#DejaVuSans-66"/>
      <use x="841.878906" xlink:href="#DejaVuSans-101"/>
      <use x="903.402344" xlink:href="#DejaVuSans-100"/>
      <use x="966.878906" xlink:href="#DejaVuSans-115"/>
     </g>
    </g>
   </g>
  </g>
 </g>
 <defs>
  <clipPath id="p421ee5fa1d">
   <rect height="205.693769" width="334.8" x="70.749375" y="7.2"/>
  </clipPath>
  <clipPath id="p9eb63b8b0f">
   <rect height="3.383154" width="334.8" x="70.749375" y="221.256846"/>
  </clipPath>
 </defs>
</svg>
