<?xml version="1.0" encoding="utf-8" standalone="no"?>
<!DOCTYPE svg PUBLIC "-//W3C//DTD SVG 1.1//EN"
  "http://www.w3.org/Graphics/SVG/1.1/DTD/svg11.dtd">
<!-- Created with matplotlib (https://matplotlib.org/) -->
<svg height="288pt" version="1.1" viewBox="0 0 432 288" width="432pt" xmlns="http://www.w3.org/2000/svg" xmlns:xlink="http://www.w3.org/1999/xlink">
 <defs>
  <style type="text/css">
*{stroke-linecap:butt;stroke-linejoin:round;}
  </style>
 </defs>
 <g id="figure_1">
  <g id="patch_1">
   <path d="M 0 288 
L 432 288 
L 432 0 
L 0 0 
z
" style="fill:#ffffff;"/>
  </g>
  <g id="axes_1">
   <g id="patch_2">
    <path d="M 75.495 251.88 
L 416.88 251.88 
L 416.88 15.12 
L 75.495 15.12 
z
" style="fill:#ffffff;"/>
   </g>
   <g id="patch_3">
    <path clip-path="url(#pafd7d622e7)" d="M 394.963531 251.88 
L 401.3625 251.88 
L 401.3625 101.426601 
L 394.963531 101.426601 
z
" style="fill:#004684;"/>
   </g>
   <g id="patch_4">
    <path clip-path="url(#pafd7d622e7)" d="M 386.96482 251.88 
L 393.363789 251.88 
L 393.363789 191.08633 
L 386.96482 191.08633 
z
" style="fill:#006bc8;"/>
   </g>
   <g id="patch_5">
    <path clip-path="url(#pafd7d622e7)" d="M 378.966108 251.88 
L 385.365077 251.88 
L 385.365077 192.69 
L 378.966108 192.69 
z
" style="fill:#006bc8;"/>
   </g>
   <g id="patch_6">
    <path clip-path="url(#pafd7d622e7)" d="M 370.967397 251.88 
L 377.366366 251.88 
L 377.366366 194.29367 
L 370.967397 194.29367 
z
" style="fill:#006bc8;"/>
   </g>
   <g id="patch_7">
    <path clip-path="url(#pafd7d622e7)" d="M 362.968686 251.88 
L 369.367655 251.88 
L 369.367655 192.69 
L 362.968686 192.69 
z
" style="fill:#006bc8;"/>
   </g>
   <g id="patch_8">
    <path clip-path="url(#pafd7d622e7)" d="M 354.969974 251.88 
L 361.368943 251.88 
L 361.368943 193.710517 
L 354.969974 193.710517 
z
" style="fill:#006bc8;"/>
   </g>
   <g id="patch_9">
    <path clip-path="url(#pafd7d622e7)" d="M 346.971263 251.88 
L 353.370232 251.88 
L 353.370232 189.920025 
L 346.971263 189.920025 
z
" style="fill:#006bc8;"/>
   </g>
   <g id="patch_10">
    <path clip-path="url(#pafd7d622e7)" d="M 338.972552 251.88 
L 345.371521 251.88 
L 345.371521 194.002094 
L 338.972552 194.002094 
z
" style="fill:#006bc8;"/>
   </g>
   <g id="patch_11">
    <path clip-path="url(#pafd7d622e7)" d="M 330.97384 251.88 
L 337.372809 251.88 
L 337.372809 191.232118 
L 330.97384 191.232118 
z
" style="fill:#006bc8;"/>
   </g>
   <g id="patch_12">
    <path clip-path="url(#pafd7d622e7)" d="M 322.975129 251.88 
L 329.374098 251.88 
L 329.374098 189.628448 
L 322.975129 189.628448 
z
" style="fill:#006bc8;"/>
   </g>
   <g id="patch_13">
    <path clip-path="url(#pafd7d622e7)" d="M 314.976418 251.88 
L 321.375387 251.88 
L 321.375387 193.273153 
L 314.976418 193.273153 
z
" style="fill:#006bc8;"/>
   </g>
   <g id="patch_14">
    <path clip-path="url(#pafd7d622e7)" d="M 306.977706 251.88 
L 313.376675 251.88 
L 313.376675 193.710517 
L 306.977706 193.710517 
z
" style="fill:#006bc8;"/>
   </g>
   <g id="patch_15">
    <path clip-path="url(#pafd7d622e7)" d="M 298.978995 251.88 
L 305.377964 251.88 
L 305.377964 193.564729 
L 298.978995 193.564729 
z
" style="fill:#006bc8;"/>
   </g>
   <g id="patch_16">
    <path clip-path="url(#pafd7d622e7)" d="M 290.980284 251.88 
L 297.379253 251.88 
L 297.379253 192.398424 
L 290.980284 192.398424 
z
" style="fill:#006bc8;"/>
   </g>
   <g id="patch_17">
    <path clip-path="url(#pafd7d622e7)" d="M 282.981572 251.88 
L 289.380541 251.88 
L 289.380541 191.523695 
L 282.981572 191.523695 
z
" style="fill:#006bc8;"/>
   </g>
   <g id="patch_18">
    <path clip-path="url(#pafd7d622e7)" d="M 274.982861 251.88 
L 281.38183 251.88 
L 281.38183 193.418941 
L 274.982861 193.418941 
z
" style="fill:#006bc8;"/>
   </g>
   <g id="patch_19">
    <path clip-path="url(#pafd7d622e7)" d="M 266.984149 251.88 
L 273.383119 251.88 
L 273.383119 194.147882 
L 266.984149 194.147882 
z
" style="fill:#006bc8;"/>
   </g>
   <g id="patch_20">
    <path clip-path="url(#pafd7d622e7)" d="M 258.985438 251.88 
L 265.384407 251.88 
L 265.384407 192.835788 
L 258.985438 192.835788 
z
" style="fill:#006bc8;"/>
   </g>
   <g id="patch_21">
    <path clip-path="url(#pafd7d622e7)" d="M 250.986727 251.88 
L 257.385696 251.88 
L 257.385696 195.751552 
L 250.986727 195.751552 
z
" style="fill:#006bc8;"/>
   </g>
   <g id="patch_22">
    <path clip-path="url(#pafd7d622e7)" d="M 242.988015 251.88 
L 249.386985 251.88 
L 249.386985 195.168399 
L 242.988015 195.168399 
z
" style="fill:#006bc8;"/>
   </g>
   <g id="patch_23">
    <path clip-path="url(#pafd7d622e7)" d="M 234.989304 251.88 
L 241.388273 251.88 
L 241.388273 195.751552 
L 234.989304 195.751552 
z
" style="fill:#006bc8;"/>
   </g>
   <g id="patch_24">
    <path clip-path="url(#pafd7d622e7)" d="M 226.990593 251.88 
L 233.389562 251.88 
L 233.389562 191.669483 
L 226.990593 191.669483 
z
" style="fill:#006bc8;"/>
   </g>
   <g id="patch_25">
    <path clip-path="url(#pafd7d622e7)" d="M 218.991881 251.88 
L 225.390851 251.88 
L 225.390851 194.29367 
L 218.991881 194.29367 
z
" style="fill:#006bc8;"/>
   </g>
   <g id="patch_26">
    <path clip-path="url(#pafd7d622e7)" d="M 210.99317 251.88 
L 217.392139 251.88 
L 217.392139 197.50101 
L 210.99317 197.50101 
z
" style="fill:#006bc8;"/>
   </g>
   <g id="patch_27">
    <path clip-path="url(#pafd7d622e7)" d="M 202.994459 251.88 
L 209.393428 251.88 
L 209.393428 199.542044 
L 202.994459 199.542044 
z
" style="fill:#006bc8;"/>
   </g>
   <g id="patch_28">
    <path clip-path="url(#pafd7d622e7)" d="M 194.995747 251.88 
L 201.394716 251.88 
L 201.394716 198.958892 
L 194.995747 198.958892 
z
" style="fill:#006bc8;"/>
   </g>
   <g id="patch_29">
    <path clip-path="url(#pafd7d622e7)" d="M 186.997036 251.88 
L 193.396005 251.88 
L 193.396005 200.70835 
L 186.997036 200.70835 
z
" style="fill:#006bc8;"/>
   </g>
   <g id="patch_30">
    <path clip-path="url(#pafd7d622e7)" d="M 178.998325 251.88 
L 185.397294 251.88 
L 185.397294 202.020443 
L 178.998325 202.020443 
z
" style="fill:#006bc8;"/>
   </g>
   <g id="patch_31">
    <path clip-path="url(#pafd7d622e7)" d="M 170.999613 251.88 
L 177.398582 251.88 
L 177.398582 199.833621 
L 170.999613 199.833621 
z
" style="fill:#006bc8;"/>
   </g>
   <g id="patch_32">
    <path clip-path="url(#pafd7d622e7)" d="M 163.000902 251.88 
L 169.399871 251.88 
L 169.399871 198.813103 
L 163.000902 198.813103 
z
" style="fill:#006bc8;"/>
   </g>
   <g id="patch_33">
    <path clip-path="url(#pafd7d622e7)" d="M 155.002191 251.88 
L 161.40116 251.88 
L 161.40116 199.687833 
L 155.002191 199.687833 
z
" style="fill:#006bc8;"/>
   </g>
   <g id="patch_34">
    <path clip-path="url(#pafd7d622e7)" d="M 147.003479 251.88 
L 153.402448 251.88 
L 153.402448 198.813103 
L 147.003479 198.813103 
z
" style="fill:#006bc8;"/>
   </g>
   <g id="patch_35">
    <path clip-path="url(#pafd7d622e7)" d="M 139.004768 251.88 
L 145.403737 251.88 
L 145.403737 200.270985 
L 139.004768 200.270985 
z
" style="fill:#006bc8;"/>
   </g>
   <g id="patch_36">
    <path clip-path="url(#pafd7d622e7)" d="M 131.006057 251.88 
L 137.405026 251.88 
L 137.405026 197.938374 
L 131.006057 197.938374 
z
" style="fill:#006bc8;"/>
   </g>
   <g id="patch_37">
    <path clip-path="url(#pafd7d622e7)" d="M 123.007345 251.88 
L 129.406314 251.88 
L 129.406314 200.270985 
L 123.007345 200.270985 
z
" style="fill:#006bc8;"/>
   </g>
   <g id="patch_38">
    <path clip-path="url(#pafd7d622e7)" d="M 115.008634 251.88 
L 121.407603 251.88 
L 121.407603 200.270985 
L 115.008634 200.270985 
z
" style="fill:#006bc8;"/>
   </g>
   <g id="patch_39">
    <path clip-path="url(#pafd7d622e7)" d="M 107.009923 251.88 
L 113.408892 251.88 
L 113.408892 197.063645 
L 107.009923 197.063645 
z
" style="fill:#006bc8;"/>
   </g>
   <g id="patch_40">
    <path clip-path="url(#pafd7d622e7)" d="M 99.011211 251.88 
L 105.41018 251.88 
L 105.41018 190.211601 
L 99.011211 190.211601 
z
" style="fill:#006bc8;"/>
   </g>
   <g id="patch_41">
    <path clip-path="url(#pafd7d622e7)" d="M 91.0125 251.88 
L 97.411469 251.88 
L 97.411469 191.232118 
L 91.0125 191.232118 
z
" style="fill:#006bc8;"/>
   </g>
   <g id="patch_42">
    <path clip-path="url(#pafd7d622e7)" d="M 386.96482 191.08633 
L 393.363789 191.08633 
L 393.363789 85.098325 
L 386.96482 85.098325 
z
" style="fill:#39a1fc;"/>
   </g>
   <g id="patch_43">
    <path clip-path="url(#pafd7d622e7)" d="M 378.966108 192.69 
L 385.365077 192.69 
L 385.365077 86.701995 
L 378.966108 86.701995 
z
" style="fill:#39a1fc;"/>
   </g>
   <g id="patch_44">
    <path clip-path="url(#pafd7d622e7)" d="M 370.967397 194.29367 
L 377.366366 194.29367 
L 377.366366 90.3467 
L 370.967397 90.3467 
z
" style="fill:#39a1fc;"/>
   </g>
   <g id="patch_45">
    <path clip-path="url(#pafd7d622e7)" d="M 362.968686 192.69 
L 369.367655 192.69 
L 369.367655 87.8683 
L 362.968686 87.8683 
z
" style="fill:#39a1fc;"/>
   </g>
   <g id="patch_46">
    <path clip-path="url(#pafd7d622e7)" d="M 354.969974 193.710517 
L 361.368943 193.710517 
L 361.368943 88.159877 
L 354.969974 88.159877 
z
" style="fill:#39a1fc;"/>
   </g>
   <g id="patch_47">
    <path clip-path="url(#pafd7d622e7)" d="M 346.971263 189.920025 
L 353.370232 189.920025 
L 353.370232 86.556207 
L 346.971263 86.556207 
z
" style="fill:#39a1fc;"/>
   </g>
   <g id="patch_48">
    <path clip-path="url(#pafd7d622e7)" d="M 338.972552 194.002094 
L 345.371521 194.002094 
L 345.371521 91.804581 
L 338.972552 91.804581 
z
" style="fill:#39a1fc;"/>
   </g>
   <g id="patch_49">
    <path clip-path="url(#pafd7d622e7)" d="M 330.97384 191.232118 
L 337.372809 191.232118 
L 337.372809 87.285148 
L 330.97384 87.285148 
z
" style="fill:#39a1fc;"/>
   </g>
   <g id="patch_50">
    <path clip-path="url(#pafd7d622e7)" d="M 322.975129 189.628448 
L 329.374098 189.628448 
L 329.374098 82.765714 
L 322.975129 82.765714 
z
" style="fill:#39a1fc;"/>
   </g>
   <g id="patch_51">
    <path clip-path="url(#pafd7d622e7)" d="M 314.976418 193.273153 
L 321.375387 193.273153 
L 321.375387 88.305665 
L 314.976418 88.305665 
z
" style="fill:#39a1fc;"/>
   </g>
   <g id="patch_52">
    <path clip-path="url(#pafd7d622e7)" d="M 306.977706 193.710517 
L 313.376675 193.710517 
L 313.376675 92.387734 
L 306.977706 92.387734 
z
" style="fill:#39a1fc;"/>
   </g>
   <g id="patch_53">
    <path clip-path="url(#pafd7d622e7)" d="M 298.978995 193.564729 
L 305.377964 193.564729 
L 305.377964 92.387734 
L 298.978995 92.387734 
z
" style="fill:#39a1fc;"/>
   </g>
   <g id="patch_54">
    <path clip-path="url(#pafd7d622e7)" d="M 290.980284 192.398424 
L 297.379253 192.398424 
L 297.379253 90.929852 
L 290.980284 90.929852 
z
" style="fill:#39a1fc;"/>
   </g>
   <g id="patch_55">
    <path clip-path="url(#pafd7d622e7)" d="M 282.981572 191.523695 
L 289.380541 191.523695 
L 289.380541 94.428768 
L 282.981572 94.428768 
z
" style="fill:#39a1fc;"/>
   </g>
   <g id="patch_56">
    <path clip-path="url(#pafd7d622e7)" d="M 274.982861 193.418941 
L 281.38183 193.418941 
L 281.38183 97.636108 
L 274.982861 97.636108 
z
" style="fill:#39a1fc;"/>
   </g>
   <g id="patch_57">
    <path clip-path="url(#pafd7d622e7)" d="M 266.984149 194.147882 
L 273.383119 194.147882 
L 273.383119 100.114507 
L 266.984149 100.114507 
z
" style="fill:#39a1fc;"/>
   </g>
   <g id="patch_58">
    <path clip-path="url(#pafd7d622e7)" d="M 258.985438 192.835788 
L 265.384407 192.835788 
L 265.384407 93.554039 
L 258.985438 93.554039 
z
" style="fill:#39a1fc;"/>
   </g>
   <g id="patch_59">
    <path clip-path="url(#pafd7d622e7)" d="M 250.986727 195.751552 
L 257.385696 195.751552 
L 257.385696 100.260296 
L 250.986727 100.260296 
z
" style="fill:#39a1fc;"/>
   </g>
   <g id="patch_60">
    <path clip-path="url(#pafd7d622e7)" d="M 242.988015 195.168399 
L 249.386985 195.168399 
L 249.386985 102.30133 
L 242.988015 102.30133 
z
" style="fill:#39a1fc;"/>
   </g>
   <g id="patch_61">
    <path clip-path="url(#pafd7d622e7)" d="M 234.989304 195.751552 
L 241.388273 195.751552 
L 241.388273 102.738695 
L 234.989304 102.738695 
z
" style="fill:#39a1fc;"/>
   </g>
   <g id="patch_62">
    <path clip-path="url(#pafd7d622e7)" d="M 226.990593 191.669483 
L 233.389562 191.669483 
L 233.389562 97.636108 
L 226.990593 97.636108 
z
" style="fill:#39a1fc;"/>
   </g>
   <g id="patch_63">
    <path clip-path="url(#pafd7d622e7)" d="M 218.991881 194.29367 
L 225.390851 194.29367 
L 225.390851 102.592906 
L 218.991881 102.592906 
z
" style="fill:#39a1fc;"/>
   </g>
   <g id="patch_64">
    <path clip-path="url(#pafd7d622e7)" d="M 210.99317 197.50101 
L 217.392139 197.50101 
L 217.392139 106.966552 
L 210.99317 106.966552 
z
" style="fill:#39a1fc;"/>
   </g>
   <g id="patch_65">
    <path clip-path="url(#pafd7d622e7)" d="M 202.994459 199.542044 
L 209.393428 199.542044 
L 209.393428 108.278645 
L 202.994459 108.278645 
z
" style="fill:#39a1fc;"/>
   </g>
   <g id="patch_66">
    <path clip-path="url(#pafd7d622e7)" d="M 194.995747 198.958892 
L 201.394716 198.958892 
L 201.394716 106.966552 
L 194.995747 106.966552 
z
" style="fill:#39a1fc;"/>
   </g>
   <g id="patch_67">
    <path clip-path="url(#pafd7d622e7)" d="M 186.997036 200.70835 
L 193.396005 200.70835 
L 193.396005 108.861798 
L 186.997036 108.861798 
z
" style="fill:#39a1fc;"/>
   </g>
   <g id="patch_68">
    <path clip-path="url(#pafd7d622e7)" d="M 178.998325 202.020443 
L 185.397294 202.020443 
L 185.397294 111.92335 
L 178.998325 111.92335 
z
" style="fill:#39a1fc;"/>
   </g>
   <g id="patch_69">
    <path clip-path="url(#pafd7d622e7)" d="M 170.999613 199.833621 
L 177.398582 199.833621 
L 177.398582 108.71601 
L 170.999613 108.71601 
z
" style="fill:#39a1fc;"/>
   </g>
   <g id="patch_70">
    <path clip-path="url(#pafd7d622e7)" d="M 163.000902 198.813103 
L 169.399871 198.813103 
L 169.399871 104.925517 
L 163.000902 104.925517 
z
" style="fill:#39a1fc;"/>
   </g>
   <g id="patch_71">
    <path clip-path="url(#pafd7d622e7)" d="M 155.002191 199.687833 
L 161.40116 199.687833 
L 161.40116 105.800246 
L 155.002191 105.800246 
z
" style="fill:#39a1fc;"/>
   </g>
   <g id="patch_72">
    <path clip-path="url(#pafd7d622e7)" d="M 147.003479 198.813103 
L 153.402448 198.813103 
L 153.402448 106.529187 
L 147.003479 106.529187 
z
" style="fill:#39a1fc;"/>
   </g>
   <g id="patch_73">
    <path clip-path="url(#pafd7d622e7)" d="M 139.004768 200.270985 
L 145.403737 200.270985 
L 145.403737 104.925517 
L 139.004768 104.925517 
z
" style="fill:#39a1fc;"/>
   </g>
   <g id="patch_74">
    <path clip-path="url(#pafd7d622e7)" d="M 131.006057 197.938374 
L 137.405026 197.938374 
L 137.405026 105.50867 
L 131.006057 105.50867 
z
" style="fill:#39a1fc;"/>
   </g>
   <g id="patch_75">
    <path clip-path="url(#pafd7d622e7)" d="M 123.007345 200.270985 
L 129.406314 200.270985 
L 129.406314 109.590739 
L 123.007345 109.590739 
z
" style="fill:#39a1fc;"/>
   </g>
   <g id="patch_76">
    <path clip-path="url(#pafd7d622e7)" d="M 115.008634 200.270985 
L 121.407603 200.270985 
L 121.407603 111.485985 
L 115.008634 111.485985 
z
" style="fill:#39a1fc;"/>
   </g>
   <g id="patch_77">
    <path clip-path="url(#pafd7d622e7)" d="M 107.009923 197.063645 
L 113.408892 197.063645 
L 113.408892 107.841281 
L 107.009923 107.841281 
z
" style="fill:#39a1fc;"/>
   </g>
   <g id="patch_78">
    <path clip-path="url(#pafd7d622e7)" d="M 99.011211 190.211601 
L 105.41018 190.211601 
L 105.41018 101.426601 
L 99.011211 101.426601 
z
" style="fill:#39a1fc;"/>
   </g>
   <g id="patch_79">
    <path clip-path="url(#pafd7d622e7)" d="M 91.0125 191.232118 
L 97.411469 191.232118 
L 97.411469 102.592906 
L 91.0125 102.592906 
z
" style="fill:#39a1fc;"/>
   </g>
   <g id="matplotlib.axis_1">
    <g id="xtick_1">
     <g id="line2d_1">
      <defs>
       <path d="M 0 0 
L 0 3.5 
" id="m7d58728d5b" style="stroke:#000000;stroke-width:0.8;"/>
      </defs>
      <g>
       <use style="stroke:#000000;stroke-width:0.8;" x="134.205541" xlink:href="#m7d58728d5b" y="251.88"/>
      </g>
     </g>
     <g id="text_1">
      <!-- 2012 -->
      <defs>
       <path d="M 19.1875 8.296875 
L 53.609375 8.296875 
L 53.609375 0 
L 7.328125 0 
L 7.328125 8.296875 
Q 12.9375 14.109375 22.625 23.890625 
Q 32.328125 33.6875 34.8125 36.53125 
Q 39.546875 41.84375 41.421875 45.53125 
Q 43.3125 49.21875 43.3125 52.78125 
Q 43.3125 58.59375 39.234375 62.25 
Q 35.15625 65.921875 28.609375 65.921875 
Q 23.96875 65.921875 18.8125 64.3125 
Q 13.671875 62.703125 7.8125 59.421875 
L 7.8125 69.390625 
Q 13.765625 71.78125 18.9375 73 
Q 24.125 74.21875 28.421875 74.21875 
Q 39.75 74.21875 46.484375 68.546875 
Q 53.21875 62.890625 53.21875 53.421875 
Q 53.21875 48.921875 51.53125 44.890625 
Q 49.859375 40.875 45.40625 35.40625 
Q 44.1875 33.984375 37.640625 27.21875 
Q 31.109375 20.453125 19.1875 8.296875 
z
" id="DejaVuSans-50"/>
       <path d="M 31.78125 66.40625 
Q 24.171875 66.40625 20.328125 58.90625 
Q 16.5 51.421875 16.5 36.375 
Q 16.5 21.390625 20.328125 13.890625 
Q 24.171875 6.390625 31.78125 6.390625 
Q 39.453125 6.390625 43.28125 13.890625 
Q 47.125 21.390625 47.125 36.375 
Q 47.125 51.421875 43.28125 58.90625 
Q 39.453125 66.40625 31.78125 66.40625 
z
M 31.78125 74.21875 
Q 44.046875 74.21875 50.515625 64.515625 
Q 56.984375 54.828125 56.984375 36.375 
Q 56.984375 17.96875 50.515625 8.265625 
Q 44.046875 -1.421875 31.78125 -1.421875 
Q 19.53125 -1.421875 13.0625 8.265625 
Q 6.59375 17.96875 6.59375 36.375 
Q 6.59375 54.828125 13.0625 64.515625 
Q 19.53125 74.21875 31.78125 74.21875 
z
" id="DejaVuSans-48"/>
       <path d="M 12.40625 8.296875 
L 28.515625 8.296875 
L 28.515625 63.921875 
L 10.984375 60.40625 
L 10.984375 69.390625 
L 28.421875 72.90625 
L 38.28125 72.90625 
L 38.28125 8.296875 
L 54.390625 8.296875 
L 54.390625 0 
L 12.40625 0 
z
" id="DejaVuSans-49"/>
      </defs>
      <g transform="translate(116.390541 269.517812)scale(0.14 -0.14)">
       <use xlink:href="#DejaVuSans-50"/>
       <use x="63.623047" xlink:href="#DejaVuSans-48"/>
       <use x="127.246094" xlink:href="#DejaVuSans-49"/>
       <use x="190.869141" xlink:href="#DejaVuSans-50"/>
      </g>
     </g>
    </g>
    <g id="xtick_2">
     <g id="line2d_2">
      <g>
       <use style="stroke:#000000;stroke-width:0.8;" x="198.195232" xlink:href="#m7d58728d5b" y="251.88"/>
      </g>
     </g>
     <g id="text_2">
      <!-- 2014 -->
      <defs>
       <path d="M 37.796875 64.3125 
L 12.890625 25.390625 
L 37.796875 25.390625 
z
M 35.203125 72.90625 
L 47.609375 72.90625 
L 47.609375 25.390625 
L 58.015625 25.390625 
L 58.015625 17.1875 
L 47.609375 17.1875 
L 47.609375 0 
L 37.796875 0 
L 37.796875 17.1875 
L 4.890625 17.1875 
L 4.890625 26.703125 
z
" id="DejaVuSans-52"/>
      </defs>
      <g transform="translate(180.380232 269.517812)scale(0.14 -0.14)">
       <use xlink:href="#DejaVuSans-50"/>
       <use x="63.623047" xlink:href="#DejaVuSans-48"/>
       <use x="127.246094" xlink:href="#DejaVuSans-49"/>
       <use x="190.869141" xlink:href="#DejaVuSans-52"/>
      </g>
     </g>
    </g>
    <g id="xtick_3">
     <g id="line2d_3">
      <g>
       <use style="stroke:#000000;stroke-width:0.8;" x="262.184923" xlink:href="#m7d58728d5b" y="251.88"/>
      </g>
     </g>
     <g id="text_3">
      <!-- 2016 -->
      <defs>
       <path d="M 33.015625 40.375 
Q 26.375 40.375 22.484375 35.828125 
Q 18.609375 31.296875 18.609375 23.390625 
Q 18.609375 15.53125 22.484375 10.953125 
Q 26.375 6.390625 33.015625 6.390625 
Q 39.65625 6.390625 43.53125 10.953125 
Q 47.40625 15.53125 47.40625 23.390625 
Q 47.40625 31.296875 43.53125 35.828125 
Q 39.65625 40.375 33.015625 40.375 
z
M 52.59375 71.296875 
L 52.59375 62.3125 
Q 48.875 64.0625 45.09375 64.984375 
Q 41.3125 65.921875 37.59375 65.921875 
Q 27.828125 65.921875 22.671875 59.328125 
Q 17.53125 52.734375 16.796875 39.40625 
Q 19.671875 43.65625 24.015625 45.921875 
Q 28.375 48.1875 33.59375 48.1875 
Q 44.578125 48.1875 50.953125 41.515625 
Q 57.328125 34.859375 57.328125 23.390625 
Q 57.328125 12.15625 50.6875 5.359375 
Q 44.046875 -1.421875 33.015625 -1.421875 
Q 20.359375 -1.421875 13.671875 8.265625 
Q 6.984375 17.96875 6.984375 36.375 
Q 6.984375 53.65625 15.1875 63.9375 
Q 23.390625 74.21875 37.203125 74.21875 
Q 40.921875 74.21875 44.703125 73.484375 
Q 48.484375 72.75 52.59375 71.296875 
z
" id="DejaVuSans-54"/>
      </defs>
      <g transform="translate(244.369923 269.517812)scale(0.14 -0.14)">
       <use xlink:href="#DejaVuSans-50"/>
       <use x="63.623047" xlink:href="#DejaVuSans-48"/>
       <use x="127.246094" xlink:href="#DejaVuSans-49"/>
       <use x="190.869141" xlink:href="#DejaVuSans-54"/>
      </g>
     </g>
    </g>
    <g id="xtick_4">
     <g id="line2d_4">
      <g>
       <use style="stroke:#000000;stroke-width:0.8;" x="326.174613" xlink:href="#m7d58728d5b" y="251.88"/>
      </g>
     </g>
     <g id="text_4">
      <!-- 2018 -->
      <defs>
       <path d="M 31.78125 34.625 
Q 24.75 34.625 20.71875 30.859375 
Q 16.703125 27.09375 16.703125 20.515625 
Q 16.703125 13.921875 20.71875 10.15625 
Q 24.75 6.390625 31.78125 6.390625 
Q 38.8125 6.390625 42.859375 10.171875 
Q 46.921875 13.96875 46.921875 20.515625 
Q 46.921875 27.09375 42.890625 30.859375 
Q 38.875 34.625 31.78125 34.625 
z
M 21.921875 38.8125 
Q 15.578125 40.375 12.03125 44.71875 
Q 8.5 49.078125 8.5 55.328125 
Q 8.5 64.0625 14.71875 69.140625 
Q 20.953125 74.21875 31.78125 74.21875 
Q 42.671875 74.21875 48.875 69.140625 
Q 55.078125 64.0625 55.078125 55.328125 
Q 55.078125 49.078125 51.53125 44.71875 
Q 48 40.375 41.703125 38.8125 
Q 48.828125 37.15625 52.796875 32.3125 
Q 56.78125 27.484375 56.78125 20.515625 
Q 56.78125 9.90625 50.3125 4.234375 
Q 43.84375 -1.421875 31.78125 -1.421875 
Q 19.734375 -1.421875 13.25 4.234375 
Q 6.78125 9.90625 6.78125 20.515625 
Q 6.78125 27.484375 10.78125 32.3125 
Q 14.796875 37.15625 21.921875 38.8125 
z
M 18.3125 54.390625 
Q 18.3125 48.734375 21.84375 45.5625 
Q 25.390625 42.390625 31.78125 42.390625 
Q 38.140625 42.390625 41.71875 45.5625 
Q 45.3125 48.734375 45.3125 54.390625 
Q 45.3125 60.0625 41.71875 63.234375 
Q 38.140625 66.40625 31.78125 66.40625 
Q 25.390625 66.40625 21.84375 63.234375 
Q 18.3125 60.0625 18.3125 54.390625 
z
" id="DejaVuSans-56"/>
      </defs>
      <g transform="translate(308.359613 269.517812)scale(0.14 -0.14)">
       <use xlink:href="#DejaVuSans-50"/>
       <use x="63.623047" xlink:href="#DejaVuSans-48"/>
       <use x="127.246094" xlink:href="#DejaVuSans-49"/>
       <use x="190.869141" xlink:href="#DejaVuSans-56"/>
      </g>
     </g>
    </g>
    <g id="xtick_5">
     <g id="line2d_5">
      <g>
       <use style="stroke:#000000;stroke-width:0.8;" x="390.164304" xlink:href="#m7d58728d5b" y="251.88"/>
      </g>
     </g>
     <g id="text_5">
      <!-- 2020 -->
      <g transform="translate(372.349304 269.517812)scale(0.14 -0.14)">
       <use xlink:href="#DejaVuSans-50"/>
       <use x="63.623047" xlink:href="#DejaVuSans-48"/>
       <use x="127.246094" xlink:href="#DejaVuSans-50"/>
       <use x="190.869141" xlink:href="#DejaVuSans-48"/>
      </g>
     </g>
    </g>
   </g>
   <g id="matplotlib.axis_2">
    <g id="ytick_1">
     <g id="line2d_6">
      <defs>
       <path d="M 0 0 
L -3.5 0 
" id="mddc52b822b" style="stroke:#000000;stroke-width:0.8;"/>
      </defs>
      <g>
       <use style="stroke:#000000;stroke-width:0.8;" x="75.495" xlink:href="#mddc52b822b" y="251.88"/>
      </g>
     </g>
     <g id="text_6">
      <!-- 0 -->
      <g transform="translate(59.5875 257.198906)scale(0.14 -0.14)">
       <use xlink:href="#DejaVuSans-48"/>
      </g>
     </g>
    </g>
    <g id="ytick_2">
     <g id="line2d_7">
      <g>
       <use style="stroke:#000000;stroke-width:0.8;" x="75.495" xlink:href="#mddc52b822b" y="215.432956"/>
      </g>
     </g>
     <g id="text_7">
      <!-- 250 -->
      <defs>
       <path d="M 10.796875 72.90625 
L 49.515625 72.90625 
L 49.515625 64.59375 
L 19.828125 64.59375 
L 19.828125 46.734375 
Q 21.96875 47.46875 24.109375 47.828125 
Q 26.265625 48.1875 28.421875 48.1875 
Q 40.625 48.1875 47.75 41.5 
Q 54.890625 34.8125 54.890625 23.390625 
Q 54.890625 11.625 47.5625 5.09375 
Q 40.234375 -1.421875 26.90625 -1.421875 
Q 22.3125 -1.421875 17.546875 -0.640625 
Q 12.796875 0.140625 7.71875 1.703125 
L 7.71875 11.625 
Q 12.109375 9.234375 16.796875 8.0625 
Q 21.484375 6.890625 26.703125 6.890625 
Q 35.15625 6.890625 40.078125 11.328125 
Q 45.015625 15.765625 45.015625 23.390625 
Q 45.015625 31 40.078125 35.4375 
Q 35.15625 39.890625 26.703125 39.890625 
Q 22.75 39.890625 18.8125 39.015625 
Q 14.890625 38.140625 10.796875 36.28125 
z
" id="DejaVuSans-53"/>
      </defs>
      <g transform="translate(41.7725 220.751862)scale(0.14 -0.14)">
       <use xlink:href="#DejaVuSans-50"/>
       <use x="63.623047" xlink:href="#DejaVuSans-53"/>
       <use x="127.246094" xlink:href="#DejaVuSans-48"/>
      </g>
     </g>
    </g>
    <g id="ytick_3">
     <g id="line2d_8">
      <g>
       <use style="stroke:#000000;stroke-width:0.8;" x="75.495" xlink:href="#mddc52b822b" y="178.985911"/>
      </g>
     </g>
     <g id="text_8">
      <!-- 500 -->
      <g transform="translate(41.7725 184.304818)scale(0.14 -0.14)">
       <use xlink:href="#DejaVuSans-53"/>
       <use x="63.623047" xlink:href="#DejaVuSans-48"/>
       <use x="127.246094" xlink:href="#DejaVuSans-48"/>
      </g>
     </g>
    </g>
    <g id="ytick_4">
     <g id="line2d_9">
      <g>
       <use style="stroke:#000000;stroke-width:0.8;" x="75.495" xlink:href="#mddc52b822b" y="142.538867"/>
      </g>
     </g>
     <g id="text_9">
      <!-- 750 -->
      <defs>
       <path d="M 8.203125 72.90625 
L 55.078125 72.90625 
L 55.078125 68.703125 
L 28.609375 0 
L 18.3125 0 
L 43.21875 64.59375 
L 8.203125 64.59375 
z
" id="DejaVuSans-55"/>
      </defs>
      <g transform="translate(41.7725 147.857773)scale(0.14 -0.14)">
       <use xlink:href="#DejaVuSans-55"/>
       <use x="63.623047" xlink:href="#DejaVuSans-53"/>
       <use x="127.246094" xlink:href="#DejaVuSans-48"/>
      </g>
     </g>
    </g>
    <g id="ytick_5">
     <g id="line2d_10">
      <g>
       <use style="stroke:#000000;stroke-width:0.8;" x="75.495" xlink:href="#mddc52b822b" y="106.091823"/>
      </g>
     </g>
     <g id="text_10">
      <!-- 1000 -->
      <g transform="translate(32.865 111.410729)scale(0.14 -0.14)">
       <use xlink:href="#DejaVuSans-49"/>
       <use x="63.623047" xlink:href="#DejaVuSans-48"/>
       <use x="127.246094" xlink:href="#DejaVuSans-48"/>
       <use x="190.869141" xlink:href="#DejaVuSans-48"/>
      </g>
     </g>
    </g>
    <g id="ytick_6">
     <g id="line2d_11">
      <g>
       <use style="stroke:#000000;stroke-width:0.8;" x="75.495" xlink:href="#mddc52b822b" y="69.644778"/>
      </g>
     </g>
     <g id="text_11">
      <!-- 1250 -->
      <g transform="translate(32.865 74.963685)scale(0.14 -0.14)">
       <use xlink:href="#DejaVuSans-49"/>
       <use x="63.623047" xlink:href="#DejaVuSans-50"/>
       <use x="127.246094" xlink:href="#DejaVuSans-53"/>
       <use x="190.869141" xlink:href="#DejaVuSans-48"/>
      </g>
     </g>
    </g>
    <g id="ytick_7">
     <g id="line2d_12">
      <g>
       <use style="stroke:#000000;stroke-width:0.8;" x="75.495" xlink:href="#mddc52b822b" y="33.197734"/>
      </g>
     </g>
     <g id="text_12">
      <!-- 1500 -->
      <g transform="translate(32.865 38.51664)scale(0.14 -0.14)">
       <use xlink:href="#DejaVuSans-49"/>
       <use x="63.623047" xlink:href="#DejaVuSans-53"/>
       <use x="127.246094" xlink:href="#DejaVuSans-48"/>
       <use x="190.869141" xlink:href="#DejaVuSans-48"/>
      </g>
     </g>
    </g>
    <g id="text_13">
     <!-- Total # of Available Beds -->
     <defs>
      <path d="M -0.296875 72.90625 
L 61.375 72.90625 
L 61.375 64.59375 
L 35.5 64.59375 
L 35.5 0 
L 25.59375 0 
L 25.59375 64.59375 
L -0.296875 64.59375 
z
" id="DejaVuSans-84"/>
      <path d="M 30.609375 48.390625 
Q 23.390625 48.390625 19.1875 42.75 
Q 14.984375 37.109375 14.984375 27.296875 
Q 14.984375 17.484375 19.15625 11.84375 
Q 23.34375 6.203125 30.609375 6.203125 
Q 37.796875 6.203125 41.984375 11.859375 
Q 46.1875 17.53125 46.1875 27.296875 
Q 46.1875 37.015625 41.984375 42.703125 
Q 37.796875 48.390625 30.609375 48.390625 
z
M 30.609375 56 
Q 42.328125 56 49.015625 48.375 
Q 55.71875 40.765625 55.71875 27.296875 
Q 55.71875 13.875 49.015625 6.21875 
Q 42.328125 -1.421875 30.609375 -1.421875 
Q 18.84375 -1.421875 12.171875 6.21875 
Q 5.515625 13.875 5.515625 27.296875 
Q 5.515625 40.765625 12.171875 48.375 
Q 18.84375 56 30.609375 56 
z
" id="DejaVuSans-111"/>
      <path d="M 18.3125 70.21875 
L 18.3125 54.6875 
L 36.8125 54.6875 
L 36.8125 47.703125 
L 18.3125 47.703125 
L 18.3125 18.015625 
Q 18.3125 11.328125 20.140625 9.421875 
Q 21.96875 7.515625 27.59375 7.515625 
L 36.8125 7.515625 
L 36.8125 0 
L 27.59375 0 
Q 17.1875 0 13.234375 3.875 
Q 9.28125 7.765625 9.28125 18.015625 
L 9.28125 47.703125 
L 2.6875 47.703125 
L 2.6875 54.6875 
L 9.28125 54.6875 
L 9.28125 70.21875 
z
" id="DejaVuSans-116"/>
      <path d="M 34.28125 27.484375 
Q 23.390625 27.484375 19.1875 25 
Q 14.984375 22.515625 14.984375 16.5 
Q 14.984375 11.71875 18.140625 8.90625 
Q 21.296875 6.109375 26.703125 6.109375 
Q 34.1875 6.109375 38.703125 11.40625 
Q 43.21875 16.703125 43.21875 25.484375 
L 43.21875 27.484375 
z
M 52.203125 31.203125 
L 52.203125 0 
L 43.21875 0 
L 43.21875 8.296875 
Q 40.140625 3.328125 35.546875 0.953125 
Q 30.953125 -1.421875 24.3125 -1.421875 
Q 15.921875 -1.421875 10.953125 3.296875 
Q 6 8.015625 6 15.921875 
Q 6 25.140625 12.171875 29.828125 
Q 18.359375 34.515625 30.609375 34.515625 
L 43.21875 34.515625 
L 43.21875 35.40625 
Q 43.21875 41.609375 39.140625 45 
Q 35.0625 48.390625 27.6875 48.390625 
Q 23 48.390625 18.546875 47.265625 
Q 14.109375 46.140625 10.015625 43.890625 
L 10.015625 52.203125 
Q 14.9375 54.109375 19.578125 55.046875 
Q 24.21875 56 28.609375 56 
Q 40.484375 56 46.34375 49.84375 
Q 52.203125 43.703125 52.203125 31.203125 
z
" id="DejaVuSans-97"/>
      <path d="M 9.421875 75.984375 
L 18.40625 75.984375 
L 18.40625 0 
L 9.421875 0 
z
" id="DejaVuSans-108"/>
      <path id="DejaVuSans-32"/>
      <path d="M 51.125 44 
L 36.921875 44 
L 32.8125 27.6875 
L 47.125 27.6875 
z
M 43.796875 71.78125 
L 38.71875 51.515625 
L 52.984375 51.515625 
L 58.109375 71.78125 
L 65.921875 71.78125 
L 60.890625 51.515625 
L 76.125 51.515625 
L 76.125 44 
L 58.984375 44 
L 54.984375 27.6875 
L 70.515625 27.6875 
L 70.515625 20.21875 
L 53.078125 20.21875 
L 48 0 
L 40.1875 0 
L 45.21875 20.21875 
L 30.90625 20.21875 
L 25.875 0 
L 18.015625 0 
L 23.09375 20.21875 
L 7.71875 20.21875 
L 7.71875 27.6875 
L 24.90625 27.6875 
L 29 44 
L 13.28125 44 
L 13.28125 51.515625 
L 30.90625 51.515625 
L 35.890625 71.78125 
z
" id="DejaVuSans-35"/>
      <path d="M 37.109375 75.984375 
L 37.109375 68.5 
L 28.515625 68.5 
Q 23.6875 68.5 21.796875 66.546875 
Q 19.921875 64.59375 19.921875 59.515625 
L 19.921875 54.6875 
L 34.71875 54.6875 
L 34.71875 47.703125 
L 19.921875 47.703125 
L 19.921875 0 
L 10.890625 0 
L 10.890625 47.703125 
L 2.296875 47.703125 
L 2.296875 54.6875 
L 10.890625 54.6875 
L 10.890625 58.5 
Q 10.890625 67.625 15.140625 71.796875 
Q 19.390625 75.984375 28.609375 75.984375 
z
" id="DejaVuSans-102"/>
      <path d="M 34.1875 63.1875 
L 20.796875 26.90625 
L 47.609375 26.90625 
z
M 28.609375 72.90625 
L 39.796875 72.90625 
L 67.578125 0 
L 57.328125 0 
L 50.6875 18.703125 
L 17.828125 18.703125 
L 11.1875 0 
L 0.78125 0 
z
" id="DejaVuSans-65"/>
      <path d="M 2.984375 54.6875 
L 12.5 54.6875 
L 29.59375 8.796875 
L 46.6875 54.6875 
L 56.203125 54.6875 
L 35.6875 0 
L 23.484375 0 
z
" id="DejaVuSans-118"/>
      <path d="M 9.421875 54.6875 
L 18.40625 54.6875 
L 18.40625 0 
L 9.421875 0 
z
M 9.421875 75.984375 
L 18.40625 75.984375 
L 18.40625 64.59375 
L 9.421875 64.59375 
z
" id="DejaVuSans-105"/>
      <path d="M 48.6875 27.296875 
Q 48.6875 37.203125 44.609375 42.84375 
Q 40.53125 48.484375 33.40625 48.484375 
Q 26.265625 48.484375 22.1875 42.84375 
Q 18.109375 37.203125 18.109375 27.296875 
Q 18.109375 17.390625 22.1875 11.75 
Q 26.265625 6.109375 33.40625 6.109375 
Q 40.53125 6.109375 44.609375 11.75 
Q 48.6875 17.390625 48.6875 27.296875 
z
M 18.109375 46.390625 
Q 20.953125 51.265625 25.265625 53.625 
Q 29.59375 56 35.59375 56 
Q 45.5625 56 51.78125 48.09375 
Q 58.015625 40.1875 58.015625 27.296875 
Q 58.015625 14.40625 51.78125 6.484375 
Q 45.5625 -1.421875 35.59375 -1.421875 
Q 29.59375 -1.421875 25.265625 0.953125 
Q 20.953125 3.328125 18.109375 8.203125 
L 18.109375 0 
L 9.078125 0 
L 9.078125 75.984375 
L 18.109375 75.984375 
z
" id="DejaVuSans-98"/>
      <path d="M 56.203125 29.59375 
L 56.203125 25.203125 
L 14.890625 25.203125 
Q 15.484375 15.921875 20.484375 11.0625 
Q 25.484375 6.203125 34.421875 6.203125 
Q 39.59375 6.203125 44.453125 7.46875 
Q 49.3125 8.734375 54.109375 11.28125 
L 54.109375 2.78125 
Q 49.265625 0.734375 44.1875 -0.34375 
Q 39.109375 -1.421875 33.890625 -1.421875 
Q 20.796875 -1.421875 13.15625 6.1875 
Q 5.515625 13.8125 5.515625 26.8125 
Q 5.515625 40.234375 12.765625 48.109375 
Q 20.015625 56 32.328125 56 
Q 43.359375 56 49.78125 48.890625 
Q 56.203125 41.796875 56.203125 29.59375 
z
M 47.21875 32.234375 
Q 47.125 39.59375 43.09375 43.984375 
Q 39.0625 48.390625 32.421875 48.390625 
Q 24.90625 48.390625 20.390625 44.140625 
Q 15.875 39.890625 15.1875 32.171875 
z
" id="DejaVuSans-101"/>
      <path d="M 19.671875 34.8125 
L 19.671875 8.109375 
L 35.5 8.109375 
Q 43.453125 8.109375 47.28125 11.40625 
Q 51.125 14.703125 51.125 21.484375 
Q 51.125 28.328125 47.28125 31.5625 
Q 43.453125 34.8125 35.5 34.8125 
z
M 19.671875 64.796875 
L 19.671875 42.828125 
L 34.28125 42.828125 
Q 41.5 42.828125 45.03125 45.53125 
Q 48.578125 48.25 48.578125 53.8125 
Q 48.578125 59.328125 45.03125 62.0625 
Q 41.5 64.796875 34.28125 64.796875 
z
M 9.8125 72.90625 
L 35.015625 72.90625 
Q 46.296875 72.90625 52.390625 68.21875 
Q 58.5 63.53125 58.5 54.890625 
Q 58.5 48.1875 55.375 44.234375 
Q 52.25 40.28125 46.1875 39.3125 
Q 53.46875 37.75 57.5 32.78125 
Q 61.53125 27.828125 61.53125 20.40625 
Q 61.53125 10.640625 54.890625 5.3125 
Q 48.25 0 35.984375 0 
L 9.8125 0 
z
" id="DejaVuSans-66"/>
      <path d="M 45.40625 46.390625 
L 45.40625 75.984375 
L 54.390625 75.984375 
L 54.390625 0 
L 45.40625 0 
L 45.40625 8.203125 
Q 42.578125 3.328125 38.25 0.953125 
Q 33.9375 -1.421875 27.875 -1.421875 
Q 17.96875 -1.421875 11.734375 6.484375 
Q 5.515625 14.40625 5.515625 27.296875 
Q 5.515625 40.1875 11.734375 48.09375 
Q 17.96875 56 27.875 56 
Q 33.9375 56 38.25 53.625 
Q 42.578125 51.265625 45.40625 46.390625 
z
M 14.796875 27.296875 
Q 14.796875 17.390625 18.875 11.75 
Q 22.953125 6.109375 30.078125 6.109375 
Q 37.203125 6.109375 41.296875 11.75 
Q 45.40625 17.390625 45.40625 27.296875 
Q 45.40625 37.203125 41.296875 42.84375 
Q 37.203125 48.484375 30.078125 48.484375 
Q 22.953125 48.484375 18.875 42.84375 
Q 14.796875 37.203125 14.796875 27.296875 
z
" id="DejaVuSans-100"/>
      <path d="M 44.28125 53.078125 
L 44.28125 44.578125 
Q 40.484375 46.53125 36.375 47.5 
Q 32.28125 48.484375 27.875 48.484375 
Q 21.1875 48.484375 17.84375 46.4375 
Q 14.5 44.390625 14.5 40.28125 
Q 14.5 37.15625 16.890625 35.375 
Q 19.28125 33.59375 26.515625 31.984375 
L 29.59375 31.296875 
Q 39.15625 29.25 43.1875 25.515625 
Q 47.21875 21.78125 47.21875 15.09375 
Q 47.21875 7.46875 41.1875 3.015625 
Q 35.15625 -1.421875 24.609375 -1.421875 
Q 20.21875 -1.421875 15.453125 -0.5625 
Q 10.6875 0.296875 5.421875 2 
L 5.421875 11.28125 
Q 10.40625 8.6875 15.234375 7.390625 
Q 20.0625 6.109375 24.8125 6.109375 
Q 31.15625 6.109375 34.5625 8.28125 
Q 37.984375 10.453125 37.984375 14.40625 
Q 37.984375 18.0625 35.515625 20.015625 
Q 33.0625 21.96875 24.703125 23.78125 
L 21.578125 24.515625 
Q 13.234375 26.265625 9.515625 29.90625 
Q 5.8125 33.546875 5.8125 39.890625 
Q 5.8125 47.609375 11.28125 51.796875 
Q 16.75 56 26.8125 56 
Q 31.78125 56 36.171875 55.265625 
Q 40.578125 54.546875 44.28125 53.078125 
z
" id="DejaVuSans-115"/>
     </defs>
     <g transform="translate(25.953437 221.821406)rotate(-90)scale(0.14 -0.14)">
      <use xlink:href="#DejaVuSans-84"/>
      <use x="60.818359" xlink:href="#DejaVuSans-111"/>
      <use x="122" xlink:href="#DejaVuSans-116"/>
      <use x="161.208984" xlink:href="#DejaVuSans-97"/>
      <use x="222.488281" xlink:href="#DejaVuSans-108"/>
      <use x="250.271484" xlink:href="#DejaVuSans-32"/>
      <use x="282.058594" xlink:href="#DejaVuSans-35"/>
      <use x="365.847656" xlink:href="#DejaVuSans-32"/>
      <use x="397.634766" xlink:href="#DejaVuSans-111"/>
      <use x="458.816406" xlink:href="#DejaVuSans-102"/>
      <use x="494.021484" xlink:href="#DejaVuSans-32"/>
      <use x="525.808594" xlink:href="#DejaVuSans-65"/>
      <use x="594.138672" xlink:href="#DejaVuSans-118"/>
      <use x="653.318359" xlink:href="#DejaVuSans-97"/>
      <use x="714.597656" xlink:href="#DejaVuSans-105"/>
      <use x="742.380859" xlink:href="#DejaVuSans-108"/>
      <use x="770.164062" xlink:href="#DejaVuSans-97"/>
      <use x="831.443359" xlink:href="#DejaVuSans-98"/>
      <use x="894.919922" xlink:href="#DejaVuSans-108"/>
      <use x="922.703125" xlink:href="#DejaVuSans-101"/>
      <use x="984.226562" xlink:href="#DejaVuSans-32"/>
      <use x="1016.013672" xlink:href="#DejaVuSans-66"/>
      <use x="1084.617188" xlink:href="#DejaVuSans-101"/>
      <use x="1146.140625" xlink:href="#DejaVuSans-100"/>
      <use x="1209.617188" xlink:href="#DejaVuSans-115"/>
     </g>
    </g>
   </g>
   <g id="patch_80">
    <path d="M 75.495 251.88 
L 75.495 15.12 
" style="fill:none;stroke:#000000;stroke-linecap:square;stroke-linejoin:miter;stroke-width:0.8;"/>
   </g>
   <g id="patch_81">
    <path d="M 416.88 251.88 
L 416.88 15.12 
" style="fill:none;stroke:#000000;stroke-linecap:square;stroke-linejoin:miter;stroke-width:0.8;"/>
   </g>
   <g id="patch_82">
    <path d="M 75.495 251.88 
L 416.88 251.88 
" style="fill:none;stroke:#000000;stroke-linecap:square;stroke-linejoin:miter;stroke-width:0.8;"/>
   </g>
   <g id="patch_83">
    <path d="M 75.495 15.12 
L 416.88 15.12 
" style="fill:none;stroke:#000000;stroke-linecap:square;stroke-linejoin:miter;stroke-width:0.8;"/>
   </g>
   <g id="legend_1">
    <g id="patch_84">
     <path d="M 88.095 38.357812 
L 116.095 38.357812 
L 116.095 28.557812 
L 88.095 28.557812 
z
" style="fill:#004684;"/>
    </g>
    <g id="text_14">
     <!-- Bedfordshire -->
     <defs>
      <path d="M 41.109375 46.296875 
Q 39.59375 47.171875 37.8125 47.578125 
Q 36.03125 48 33.890625 48 
Q 26.265625 48 22.1875 43.046875 
Q 18.109375 38.09375 18.109375 28.8125 
L 18.109375 0 
L 9.078125 0 
L 9.078125 54.6875 
L 18.109375 54.6875 
L 18.109375 46.1875 
Q 20.953125 51.171875 25.484375 53.578125 
Q 30.03125 56 36.53125 56 
Q 37.453125 56 38.578125 55.875 
Q 39.703125 55.765625 41.0625 55.515625 
z
" id="DejaVuSans-114"/>
      <path d="M 54.890625 33.015625 
L 54.890625 0 
L 45.90625 0 
L 45.90625 32.71875 
Q 45.90625 40.484375 42.875 44.328125 
Q 39.84375 48.1875 33.796875 48.1875 
Q 26.515625 48.1875 22.3125 43.546875 
Q 18.109375 38.921875 18.109375 30.90625 
L 18.109375 0 
L 9.078125 0 
L 9.078125 75.984375 
L 18.109375 75.984375 
L 18.109375 46.1875 
Q 21.34375 51.125 25.703125 53.5625 
Q 30.078125 56 35.796875 56 
Q 45.21875 56 50.046875 50.171875 
Q 54.890625 44.34375 54.890625 33.015625 
z
" id="DejaVuSans-104"/>
     </defs>
     <g transform="translate(127.295 38.357812)scale(0.14 -0.14)">
      <use xlink:href="#DejaVuSans-66"/>
      <use x="68.603516" xlink:href="#DejaVuSans-101"/>
      <use x="130.126953" xlink:href="#DejaVuSans-100"/>
      <use x="193.603516" xlink:href="#DejaVuSans-102"/>
      <use x="228.808594" xlink:href="#DejaVuSans-111"/>
      <use x="289.990234" xlink:href="#DejaVuSans-114"/>
      <use x="331.087891" xlink:href="#DejaVuSans-100"/>
      <use x="394.564453" xlink:href="#DejaVuSans-115"/>
      <use x="446.664062" xlink:href="#DejaVuSans-104"/>
      <use x="510.042969" xlink:href="#DejaVuSans-105"/>
      <use x="537.826172" xlink:href="#DejaVuSans-114"/>
      <use x="578.908203" xlink:href="#DejaVuSans-101"/>
     </g>
    </g>
    <g id="patch_85">
     <path d="M 88.095 58.907187 
L 116.095 58.907187 
L 116.095 49.107187 
L 88.095 49.107187 
z
" style="fill:#006bc8;"/>
    </g>
    <g id="text_15">
     <!-- Bedford -->
     <g transform="translate(127.295 58.907187)scale(0.14 -0.14)">
      <use xlink:href="#DejaVuSans-66"/>
      <use x="68.603516" xlink:href="#DejaVuSans-101"/>
      <use x="130.126953" xlink:href="#DejaVuSans-100"/>
      <use x="193.603516" xlink:href="#DejaVuSans-102"/>
      <use x="228.808594" xlink:href="#DejaVuSans-111"/>
      <use x="289.990234" xlink:href="#DejaVuSans-114"/>
      <use x="331.087891" xlink:href="#DejaVuSans-100"/>
     </g>
    </g>
    <g id="patch_86">
     <path d="M 88.095 79.456562 
L 116.095 79.456562 
L 116.095 69.656562 
L 88.095 69.656562 
z
" style="fill:#39a1fc;"/>
    </g>
    <g id="text_16">
     <!-- Luton And Dunstable -->
     <defs>
      <path d="M 9.8125 72.90625 
L 19.671875 72.90625 
L 19.671875 8.296875 
L 55.171875 8.296875 
L 55.171875 0 
L 9.8125 0 
z
" id="DejaVuSans-76"/>
      <path d="M 8.5 21.578125 
L 8.5 54.6875 
L 17.484375 54.6875 
L 17.484375 21.921875 
Q 17.484375 14.15625 20.5 10.265625 
Q 23.53125 6.390625 29.59375 6.390625 
Q 36.859375 6.390625 41.078125 11.03125 
Q 45.3125 15.671875 45.3125 23.6875 
L 45.3125 54.6875 
L 54.296875 54.6875 
L 54.296875 0 
L 45.3125 0 
L 45.3125 8.40625 
Q 42.046875 3.421875 37.71875 1 
Q 33.40625 -1.421875 27.6875 -1.421875 
Q 18.265625 -1.421875 13.375 4.4375 
Q 8.5 10.296875 8.5 21.578125 
z
M 31.109375 56 
z
" id="DejaVuSans-117"/>
      <path d="M 54.890625 33.015625 
L 54.890625 0 
L 45.90625 0 
L 45.90625 32.71875 
Q 45.90625 40.484375 42.875 44.328125 
Q 39.84375 48.1875 33.796875 48.1875 
Q 26.515625 48.1875 22.3125 43.546875 
Q 18.109375 38.921875 18.109375 30.90625 
L 18.109375 0 
L 9.078125 0 
L 9.078125 54.6875 
L 18.109375 54.6875 
L 18.109375 46.1875 
Q 21.34375 51.125 25.703125 53.5625 
Q 30.078125 56 35.796875 56 
Q 45.21875 56 50.046875 50.171875 
Q 54.890625 44.34375 54.890625 33.015625 
z
" id="DejaVuSans-110"/>
      <path d="M 19.671875 64.796875 
L 19.671875 8.109375 
L 31.59375 8.109375 
Q 46.6875 8.109375 53.6875 14.9375 
Q 60.6875 21.78125 60.6875 36.53125 
Q 60.6875 51.171875 53.6875 57.984375 
Q 46.6875 64.796875 31.59375 64.796875 
z
M 9.8125 72.90625 
L 30.078125 72.90625 
Q 51.265625 72.90625 61.171875 64.09375 
Q 71.09375 55.28125 71.09375 36.53125 
Q 71.09375 17.671875 61.125 8.828125 
Q 51.171875 0 30.078125 0 
L 9.8125 0 
z
" id="DejaVuSans-68"/>
     </defs>
     <g transform="translate(127.295 79.456562)scale(0.14 -0.14)">
      <use xlink:href="#DejaVuSans-76"/>
      <use x="55.697266" xlink:href="#DejaVuSans-117"/>
      <use x="119.076172" xlink:href="#DejaVuSans-116"/>
      <use x="158.285156" xlink:href="#DejaVuSans-111"/>
      <use x="219.466797" xlink:href="#DejaVuSans-110"/>
      <use x="282.845703" xlink:href="#DejaVuSans-32"/>
      <use x="314.632812" xlink:href="#DejaVuSans-65"/>
      <use x="383.041016" xlink:href="#DejaVuSans-110"/>
      <use x="446.419922" xlink:href="#DejaVuSans-100"/>
      <use x="509.896484" xlink:href="#DejaVuSans-32"/>
      <use x="541.683594" xlink:href="#DejaVuSans-68"/>
      <use x="618.685547" xlink:href="#DejaVuSans-117"/>
      <use x="682.064453" xlink:href="#DejaVuSans-110"/>
      <use x="745.443359" xlink:href="#DejaVuSans-115"/>
      <use x="797.542969" xlink:href="#DejaVuSans-116"/>
      <use x="836.751953" xlink:href="#DejaVuSans-97"/>
      <use x="898.03125" xlink:href="#DejaVuSans-98"/>
      <use x="961.507812" xlink:href="#DejaVuSans-108"/>
      <use x="989.291016" xlink:href="#DejaVuSans-101"/>
     </g>
    </g>
   </g>
  </g>
 </g>
 <defs>
  <clipPath id="pafd7d622e7">
   <rect height="236.76" width="341.385" x="75.495" y="15.12"/>
  </clipPath>
 </defs>
</svg>
