<?xml version="1.0" encoding="utf-8" standalone="no"?>
<!DOCTYPE svg PUBLIC "-//W3C//DTD SVG 1.1//EN"
  "http://www.w3.org/Graphics/SVG/1.1/DTD/svg11.dtd">
<svg height="271.709375pt" version="1.1" viewBox="0 0 416.177324 271.709375" width="416.177324pt" xmlns="http://www.w3.org/2000/svg" xmlns:xlink="http://www.w3.org/1999/xlink">
 <metadata>
  <rdf:RDF xmlns:cc="http://creativecommons.org/ns#" xmlns:dc="http://purl.org/dc/elements/1.1/" xmlns:rdf="http://www.w3.org/1999/02/22-rdf-syntax-ns#">
   <cc:Work>
    <dc:type rdf:resource="http://purl.org/dc/dcmitype/StillImage"/>
    <dc:date>2022-01-26T19:39:58.995542</dc:date>
    <dc:format>image/svg+xml</dc:format>
    <dc:creator>
     <cc:Agent>
      <dc:title>Matplotlib v3.4.3, https://matplotlib.org/</dc:title>
     </cc:Agent>
    </dc:creator>
   </cc:Work>
  </rdf:RDF>
 </metadata>
 <defs>
  <style type="text/css">*{stroke-linecap:butt;stroke-linejoin:round;}</style>
 </defs>
 <g id="figure_1">
  <g id="patch_1">
   <path d="M 0 271.709375 
L 416.177324 271.709375 
L 416.177324 0 
L 0 0 
z
" style="fill:none;"/>
  </g>
  <g id="axes_1">
   <g id="patch_2">
    <path d="M 67.379375 243.96 
L 395.142156 243.96 
L 395.142156 7.2 
L 67.379375 7.2 
z
" style="fill:#ffffff;"/>
   </g>
   <g id="patch_3">
    <path clip-path="url(#pedec2ba5a1)" d="M 374.973176 243.96 
L 380.369559 243.96 
L 380.369559 87.237709 
L 374.973176 87.237709 
z
" style="fill:#004684;"/>
   </g>
   <g id="patch_4">
    <path clip-path="url(#pedec2ba5a1)" d="M 368.227698 243.96 
L 373.624081 243.96 
L 373.624081 83.593005 
L 368.227698 83.593005 
z
" style="fill:#004684;"/>
   </g>
   <g id="patch_5">
    <path clip-path="url(#pedec2ba5a1)" d="M 361.48222 243.96 
L 366.878603 243.96 
L 366.878603 81.406182 
L 361.48222 81.406182 
z
" style="fill:#004684;"/>
   </g>
   <g id="patch_6">
    <path clip-path="url(#pedec2ba5a1)" d="M 354.736742 243.96 
L 360.133125 243.96 
L 360.133125 79.802512 
L 354.736742 79.802512 
z
" style="fill:#004684;"/>
   </g>
   <g id="patch_7">
    <path clip-path="url(#pedec2ba5a1)" d="M 347.991264 243.96 
L 353.387646 243.96 
L 353.387646 86.217192 
L 347.991264 86.217192 
z
" style="fill:#004684;"/>
   </g>
   <g id="patch_8">
    <path clip-path="url(#pedec2ba5a1)" d="M 341.245786 243.96 
L 346.642168 243.96 
L 346.642168 93.506601 
L 341.245786 93.506601 
z
" style="fill:#004684;"/>
   </g>
   <g id="patch_9">
    <path clip-path="url(#pedec2ba5a1)" d="M 334.500308 243.96 
L 339.89669 243.96 
L 339.89669 183.16633 
L 334.500308 183.16633 
z
" style="fill:#006bc8;"/>
   </g>
   <g id="patch_10">
    <path clip-path="url(#pedec2ba5a1)" d="M 327.75483 243.96 
L 333.151212 243.96 
L 333.151212 184.77 
L 327.75483 184.77 
z
" style="fill:#006bc8;"/>
   </g>
   <g id="patch_11">
    <path clip-path="url(#pedec2ba5a1)" d="M 321.009352 243.96 
L 326.405734 243.96 
L 326.405734 186.37367 
L 321.009352 186.37367 
z
" style="fill:#006bc8;"/>
   </g>
   <g id="patch_12">
    <path clip-path="url(#pedec2ba5a1)" d="M 314.263873 243.96 
L 319.660256 243.96 
L 319.660256 184.77 
L 314.263873 184.77 
z
" style="fill:#006bc8;"/>
   </g>
   <g id="patch_13">
    <path clip-path="url(#pedec2ba5a1)" d="M 307.518395 243.96 
L 312.914778 243.96 
L 312.914778 185.790517 
L 307.518395 185.790517 
z
" style="fill:#006bc8;"/>
   </g>
   <g id="patch_14">
    <path clip-path="url(#pedec2ba5a1)" d="M 300.772917 243.96 
L 306.1693 243.96 
L 306.1693 182.000025 
L 300.772917 182.000025 
z
" style="fill:#006bc8;"/>
   </g>
   <g id="patch_15">
    <path clip-path="url(#pedec2ba5a1)" d="M 294.027439 243.96 
L 299.423822 243.96 
L 299.423822 186.082094 
L 294.027439 186.082094 
z
" style="fill:#006bc8;"/>
   </g>
   <g id="patch_16">
    <path clip-path="url(#pedec2ba5a1)" d="M 287.281961 243.96 
L 292.678344 243.96 
L 292.678344 183.312118 
L 287.281961 183.312118 
z
" style="fill:#006bc8;"/>
   </g>
   <g id="patch_17">
    <path clip-path="url(#pedec2ba5a1)" d="M 280.536483 243.96 
L 285.932865 243.96 
L 285.932865 181.708448 
L 280.536483 181.708448 
z
" style="fill:#006bc8;"/>
   </g>
   <g id="patch_18">
    <path clip-path="url(#pedec2ba5a1)" d="M 273.791005 243.96 
L 279.187387 243.96 
L 279.187387 185.353153 
L 273.791005 185.353153 
z
" style="fill:#006bc8;"/>
   </g>
   <g id="patch_19">
    <path clip-path="url(#pedec2ba5a1)" d="M 267.045527 243.96 
L 272.441909 243.96 
L 272.441909 185.790517 
L 267.045527 185.790517 
z
" style="fill:#006bc8;"/>
   </g>
   <g id="patch_20">
    <path clip-path="url(#pedec2ba5a1)" d="M 260.300049 243.96 
L 265.696431 243.96 
L 265.696431 185.644729 
L 260.300049 185.644729 
z
" style="fill:#006bc8;"/>
   </g>
   <g id="patch_21">
    <path clip-path="url(#pedec2ba5a1)" d="M 253.554571 243.96 
L 258.950953 243.96 
L 258.950953 184.478424 
L 253.554571 184.478424 
z
" style="fill:#006bc8;"/>
   </g>
   <g id="patch_22">
    <path clip-path="url(#pedec2ba5a1)" d="M 246.809092 243.96 
L 252.205475 243.96 
L 252.205475 183.603695 
L 246.809092 183.603695 
z
" style="fill:#006bc8;"/>
   </g>
   <g id="patch_23">
    <path clip-path="url(#pedec2ba5a1)" d="M 240.063614 243.96 
L 245.459997 243.96 
L 245.459997 185.498941 
L 240.063614 185.498941 
z
" style="fill:#006bc8;"/>
   </g>
   <g id="patch_24">
    <path clip-path="url(#pedec2ba5a1)" d="M 233.318136 243.96 
L 238.714519 243.96 
L 238.714519 186.227882 
L 233.318136 186.227882 
z
" style="fill:#006bc8;"/>
   </g>
   <g id="patch_25">
    <path clip-path="url(#pedec2ba5a1)" d="M 226.572658 243.96 
L 231.969041 243.96 
L 231.969041 184.915788 
L 226.572658 184.915788 
z
" style="fill:#006bc8;"/>
   </g>
   <g id="patch_26">
    <path clip-path="url(#pedec2ba5a1)" d="M 219.82718 243.96 
L 225.223563 243.96 
L 225.223563 187.831552 
L 219.82718 187.831552 
z
" style="fill:#006bc8;"/>
   </g>
   <g id="patch_27">
    <path clip-path="url(#pedec2ba5a1)" d="M 213.081702 243.96 
L 218.478084 243.96 
L 218.478084 187.248399 
L 213.081702 187.248399 
z
" style="fill:#006bc8;"/>
   </g>
   <g id="patch_28">
    <path clip-path="url(#pedec2ba5a1)" d="M 206.336224 243.96 
L 211.732606 243.96 
L 211.732606 187.831552 
L 206.336224 187.831552 
z
" style="fill:#006bc8;"/>
   </g>
   <g id="patch_29">
    <path clip-path="url(#pedec2ba5a1)" d="M 199.590746 243.96 
L 204.987128 243.96 
L 204.987128 183.749483 
L 199.590746 183.749483 
z
" style="fill:#006bc8;"/>
   </g>
   <g id="patch_30">
    <path clip-path="url(#pedec2ba5a1)" d="M 192.845268 243.96 
L 198.24165 243.96 
L 198.24165 186.37367 
L 192.845268 186.37367 
z
" style="fill:#006bc8;"/>
   </g>
   <g id="patch_31">
    <path clip-path="url(#pedec2ba5a1)" d="M 186.09979 243.96 
L 191.496172 243.96 
L 191.496172 189.58101 
L 186.09979 189.58101 
z
" style="fill:#006bc8;"/>
   </g>
   <g id="patch_32">
    <path clip-path="url(#pedec2ba5a1)" d="M 179.354311 243.96 
L 184.750694 243.96 
L 184.750694 191.622044 
L 179.354311 191.622044 
z
" style="fill:#006bc8;"/>
   </g>
   <g id="patch_33">
    <path clip-path="url(#pedec2ba5a1)" d="M 172.608833 243.96 
L 178.005216 243.96 
L 178.005216 191.038892 
L 172.608833 191.038892 
z
" style="fill:#006bc8;"/>
   </g>
   <g id="patch_34">
    <path clip-path="url(#pedec2ba5a1)" d="M 165.863355 243.96 
L 171.259738 243.96 
L 171.259738 192.78835 
L 165.863355 192.78835 
z
" style="fill:#006bc8;"/>
   </g>
   <g id="patch_35">
    <path clip-path="url(#pedec2ba5a1)" d="M 159.117877 243.96 
L 164.51426 243.96 
L 164.51426 194.100443 
L 159.117877 194.100443 
z
" style="fill:#006bc8;"/>
   </g>
   <g id="patch_36">
    <path clip-path="url(#pedec2ba5a1)" d="M 152.372399 243.96 
L 157.768782 243.96 
L 157.768782 191.913621 
L 152.372399 191.913621 
z
" style="fill:#006bc8;"/>
   </g>
   <g id="patch_37">
    <path clip-path="url(#pedec2ba5a1)" d="M 145.626921 243.96 
L 151.023303 243.96 
L 151.023303 190.893103 
L 145.626921 190.893103 
z
" style="fill:#006bc8;"/>
   </g>
   <g id="patch_38">
    <path clip-path="url(#pedec2ba5a1)" d="M 138.881443 243.96 
L 144.277825 243.96 
L 144.277825 191.767833 
L 138.881443 191.767833 
z
" style="fill:#006bc8;"/>
   </g>
   <g id="patch_39">
    <path clip-path="url(#pedec2ba5a1)" d="M 132.135965 243.96 
L 137.532347 243.96 
L 137.532347 190.893103 
L 132.135965 190.893103 
z
" style="fill:#006bc8;"/>
   </g>
   <g id="patch_40">
    <path clip-path="url(#pedec2ba5a1)" d="M 125.390487 243.96 
L 130.786869 243.96 
L 130.786869 192.350985 
L 125.390487 192.350985 
z
" style="fill:#006bc8;"/>
   </g>
   <g id="patch_41">
    <path clip-path="url(#pedec2ba5a1)" d="M 118.645009 243.96 
L 124.041391 243.96 
L 124.041391 190.018374 
L 118.645009 190.018374 
z
" style="fill:#006bc8;"/>
   </g>
   <g id="patch_42">
    <path clip-path="url(#pedec2ba5a1)" d="M 111.89953 243.96 
L 117.295913 243.96 
L 117.295913 192.350985 
L 111.89953 192.350985 
z
" style="fill:#006bc8;"/>
   </g>
   <g id="patch_43">
    <path clip-path="url(#pedec2ba5a1)" d="M 105.154052 243.96 
L 110.550435 243.96 
L 110.550435 192.350985 
L 105.154052 192.350985 
z
" style="fill:#006bc8;"/>
   </g>
   <g id="patch_44">
    <path clip-path="url(#pedec2ba5a1)" d="M 98.408574 243.96 
L 103.804957 243.96 
L 103.804957 189.143645 
L 98.408574 189.143645 
z
" style="fill:#006bc8;"/>
   </g>
   <g id="patch_45">
    <path clip-path="url(#pedec2ba5a1)" d="M 91.663096 243.96 
L 97.059479 243.96 
L 97.059479 182.291601 
L 91.663096 182.291601 
z
" style="fill:#006bc8;"/>
   </g>
   <g id="patch_46">
    <path clip-path="url(#pedec2ba5a1)" d="M 84.917618 243.96 
L 90.314001 243.96 
L 90.314001 183.312118 
L 84.917618 183.312118 
z
" style="fill:#006bc8;"/>
   </g>
   <g id="patch_47">
    <path clip-path="url(#pedec2ba5a1)" d="M 334.500308 183.16633 
L 339.89669 183.16633 
L 339.89669 77.178325 
L 334.500308 77.178325 
z
" style="fill:#39a1fc;"/>
   </g>
   <g id="patch_48">
    <path clip-path="url(#pedec2ba5a1)" d="M 327.75483 184.77 
L 333.151212 184.77 
L 333.151212 78.781995 
L 327.75483 78.781995 
z
" style="fill:#39a1fc;"/>
   </g>
   <g id="patch_49">
    <path clip-path="url(#pedec2ba5a1)" d="M 321.009352 186.37367 
L 326.405734 186.37367 
L 326.405734 82.4267 
L 321.009352 82.4267 
z
" style="fill:#39a1fc;"/>
   </g>
   <g id="patch_50">
    <path clip-path="url(#pedec2ba5a1)" d="M 314.263873 184.77 
L 319.660256 184.77 
L 319.660256 79.9483 
L 314.263873 79.9483 
z
" style="fill:#39a1fc;"/>
   </g>
   <g id="patch_51">
    <path clip-path="url(#pedec2ba5a1)" d="M 307.518395 185.790517 
L 312.914778 185.790517 
L 312.914778 80.239877 
L 307.518395 80.239877 
z
" style="fill:#39a1fc;"/>
   </g>
   <g id="patch_52">
    <path clip-path="url(#pedec2ba5a1)" d="M 300.772917 182.000025 
L 306.1693 182.000025 
L 306.1693 78.636207 
L 300.772917 78.636207 
z
" style="fill:#39a1fc;"/>
   </g>
   <g id="patch_53">
    <path clip-path="url(#pedec2ba5a1)" d="M 294.027439 186.082094 
L 299.423822 186.082094 
L 299.423822 83.884581 
L 294.027439 83.884581 
z
" style="fill:#39a1fc;"/>
   </g>
   <g id="patch_54">
    <path clip-path="url(#pedec2ba5a1)" d="M 287.281961 183.312118 
L 292.678344 183.312118 
L 292.678344 79.365148 
L 287.281961 79.365148 
z
" style="fill:#39a1fc;"/>
   </g>
   <g id="patch_55">
    <path clip-path="url(#pedec2ba5a1)" d="M 280.536483 181.708448 
L 285.932865 181.708448 
L 285.932865 74.845714 
L 280.536483 74.845714 
z
" style="fill:#39a1fc;"/>
   </g>
   <g id="patch_56">
    <path clip-path="url(#pedec2ba5a1)" d="M 273.791005 185.353153 
L 279.187387 185.353153 
L 279.187387 80.385665 
L 273.791005 80.385665 
z
" style="fill:#39a1fc;"/>
   </g>
   <g id="patch_57">
    <path clip-path="url(#pedec2ba5a1)" d="M 267.045527 185.790517 
L 272.441909 185.790517 
L 272.441909 84.467734 
L 267.045527 84.467734 
z
" style="fill:#39a1fc;"/>
   </g>
   <g id="patch_58">
    <path clip-path="url(#pedec2ba5a1)" d="M 260.300049 185.644729 
L 265.696431 185.644729 
L 265.696431 84.467734 
L 260.300049 84.467734 
z
" style="fill:#39a1fc;"/>
   </g>
   <g id="patch_59">
    <path clip-path="url(#pedec2ba5a1)" d="M 253.554571 184.478424 
L 258.950953 184.478424 
L 258.950953 83.009852 
L 253.554571 83.009852 
z
" style="fill:#39a1fc;"/>
   </g>
   <g id="patch_60">
    <path clip-path="url(#pedec2ba5a1)" d="M 246.809092 183.603695 
L 252.205475 183.603695 
L 252.205475 86.508768 
L 246.809092 86.508768 
z
" style="fill:#39a1fc;"/>
   </g>
   <g id="patch_61">
    <path clip-path="url(#pedec2ba5a1)" d="M 240.063614 185.498941 
L 245.459997 185.498941 
L 245.459997 89.716108 
L 240.063614 89.716108 
z
" style="fill:#39a1fc;"/>
   </g>
   <g id="patch_62">
    <path clip-path="url(#pedec2ba5a1)" d="M 233.318136 186.227882 
L 238.714519 186.227882 
L 238.714519 92.194507 
L 233.318136 92.194507 
z
" style="fill:#39a1fc;"/>
   </g>
   <g id="patch_63">
    <path clip-path="url(#pedec2ba5a1)" d="M 226.572658 184.915788 
L 231.969041 184.915788 
L 231.969041 85.634039 
L 226.572658 85.634039 
z
" style="fill:#39a1fc;"/>
   </g>
   <g id="patch_64">
    <path clip-path="url(#pedec2ba5a1)" d="M 219.82718 187.831552 
L 225.223563 187.831552 
L 225.223563 92.340296 
L 219.82718 92.340296 
z
" style="fill:#39a1fc;"/>
   </g>
   <g id="patch_65">
    <path clip-path="url(#pedec2ba5a1)" d="M 213.081702 187.248399 
L 218.478084 187.248399 
L 218.478084 94.38133 
L 213.081702 94.38133 
z
" style="fill:#39a1fc;"/>
   </g>
   <g id="patch_66">
    <path clip-path="url(#pedec2ba5a1)" d="M 206.336224 187.831552 
L 211.732606 187.831552 
L 211.732606 94.818695 
L 206.336224 94.818695 
z
" style="fill:#39a1fc;"/>
   </g>
   <g id="patch_67">
    <path clip-path="url(#pedec2ba5a1)" d="M 199.590746 183.749483 
L 204.987128 183.749483 
L 204.987128 89.716108 
L 199.590746 89.716108 
z
" style="fill:#39a1fc;"/>
   </g>
   <g id="patch_68">
    <path clip-path="url(#pedec2ba5a1)" d="M 192.845268 186.37367 
L 198.24165 186.37367 
L 198.24165 94.672906 
L 192.845268 94.672906 
z
" style="fill:#39a1fc;"/>
   </g>
   <g id="patch_69">
    <path clip-path="url(#pedec2ba5a1)" d="M 186.09979 189.58101 
L 191.496172 189.58101 
L 191.496172 99.046552 
L 186.09979 99.046552 
z
" style="fill:#39a1fc;"/>
   </g>
   <g id="patch_70">
    <path clip-path="url(#pedec2ba5a1)" d="M 179.354311 191.622044 
L 184.750694 191.622044 
L 184.750694 100.358645 
L 179.354311 100.358645 
z
" style="fill:#39a1fc;"/>
   </g>
   <g id="patch_71">
    <path clip-path="url(#pedec2ba5a1)" d="M 172.608833 191.038892 
L 178.005216 191.038892 
L 178.005216 99.046552 
L 172.608833 99.046552 
z
" style="fill:#39a1fc;"/>
   </g>
   <g id="patch_72">
    <path clip-path="url(#pedec2ba5a1)" d="M 165.863355 192.78835 
L 171.259738 192.78835 
L 171.259738 100.941798 
L 165.863355 100.941798 
z
" style="fill:#39a1fc;"/>
   </g>
   <g id="patch_73">
    <path clip-path="url(#pedec2ba5a1)" d="M 159.117877 194.100443 
L 164.51426 194.100443 
L 164.51426 104.00335 
L 159.117877 104.00335 
z
" style="fill:#39a1fc;"/>
   </g>
   <g id="patch_74">
    <path clip-path="url(#pedec2ba5a1)" d="M 152.372399 191.913621 
L 157.768782 191.913621 
L 157.768782 100.79601 
L 152.372399 100.79601 
z
" style="fill:#39a1fc;"/>
   </g>
   <g id="patch_75">
    <path clip-path="url(#pedec2ba5a1)" d="M 145.626921 190.893103 
L 151.023303 190.893103 
L 151.023303 97.005517 
L 145.626921 97.005517 
z
" style="fill:#39a1fc;"/>
   </g>
   <g id="patch_76">
    <path clip-path="url(#pedec2ba5a1)" d="M 138.881443 191.767833 
L 144.277825 191.767833 
L 144.277825 97.880246 
L 138.881443 97.880246 
z
" style="fill:#39a1fc;"/>
   </g>
   <g id="patch_77">
    <path clip-path="url(#pedec2ba5a1)" d="M 132.135965 190.893103 
L 137.532347 190.893103 
L 137.532347 98.609187 
L 132.135965 98.609187 
z
" style="fill:#39a1fc;"/>
   </g>
   <g id="patch_78">
    <path clip-path="url(#pedec2ba5a1)" d="M 125.390487 192.350985 
L 130.786869 192.350985 
L 130.786869 97.005517 
L 125.390487 97.005517 
z
" style="fill:#39a1fc;"/>
   </g>
   <g id="patch_79">
    <path clip-path="url(#pedec2ba5a1)" d="M 118.645009 190.018374 
L 124.041391 190.018374 
L 124.041391 97.58867 
L 118.645009 97.58867 
z
" style="fill:#39a1fc;"/>
   </g>
   <g id="patch_80">
    <path clip-path="url(#pedec2ba5a1)" d="M 111.89953 192.350985 
L 117.295913 192.350985 
L 117.295913 101.670739 
L 111.89953 101.670739 
z
" style="fill:#39a1fc;"/>
   </g>
   <g id="patch_81">
    <path clip-path="url(#pedec2ba5a1)" d="M 105.154052 192.350985 
L 110.550435 192.350985 
L 110.550435 103.565985 
L 105.154052 103.565985 
z
" style="fill:#39a1fc;"/>
   </g>
   <g id="patch_82">
    <path clip-path="url(#pedec2ba5a1)" d="M 98.408574 189.143645 
L 103.804957 189.143645 
L 103.804957 99.921281 
L 98.408574 99.921281 
z
" style="fill:#39a1fc;"/>
   </g>
   <g id="patch_83">
    <path clip-path="url(#pedec2ba5a1)" d="M 91.663096 182.291601 
L 97.059479 182.291601 
L 97.059479 93.506601 
L 91.663096 93.506601 
z
" style="fill:#39a1fc;"/>
   </g>
   <g id="patch_84">
    <path clip-path="url(#pedec2ba5a1)" d="M 84.917618 183.312118 
L 90.314001 183.312118 
L 90.314001 94.672906 
L 84.917618 94.672906 
z
" style="fill:#39a1fc;"/>
   </g>
   <g id="matplotlib.axis_1">
    <g id="xtick_1">
     <g id="line2d_1">
      <defs>
       <path d="M 0 0 
L 0 3.5 
" id="m7b44a28f05" style="stroke:#000000;stroke-width:0.8;"/>
      </defs>
      <g>
       <use style="stroke:#000000;stroke-width:0.8;" x="67.379375" xlink:href="#m7b44a28f05" y="243.96"/>
      </g>
     </g>
     <g id="text_1">
      <!-- 2010 -->
      <g transform="translate(49.564375 261.597813)scale(0.14 -0.14)">
       <defs>
        <path d="M 1228 531 
L 3431 531 
L 3431 0 
L 469 0 
L 469 531 
Q 828 903 1448 1529 
Q 2069 2156 2228 2338 
Q 2531 2678 2651 2914 
Q 2772 3150 2772 3378 
Q 2772 3750 2511 3984 
Q 2250 4219 1831 4219 
Q 1534 4219 1204 4116 
Q 875 4013 500 3803 
L 500 4441 
Q 881 4594 1212 4672 
Q 1544 4750 1819 4750 
Q 2544 4750 2975 4387 
Q 3406 4025 3406 3419 
Q 3406 3131 3298 2873 
Q 3191 2616 2906 2266 
Q 2828 2175 2409 1742 
Q 1991 1309 1228 531 
z
" id="DejaVuSans-32" transform="scale(0.015625)"/>
        <path d="M 2034 4250 
Q 1547 4250 1301 3770 
Q 1056 3291 1056 2328 
Q 1056 1369 1301 889 
Q 1547 409 2034 409 
Q 2525 409 2770 889 
Q 3016 1369 3016 2328 
Q 3016 3291 2770 3770 
Q 2525 4250 2034 4250 
z
M 2034 4750 
Q 2819 4750 3233 4129 
Q 3647 3509 3647 2328 
Q 3647 1150 3233 529 
Q 2819 -91 2034 -91 
Q 1250 -91 836 529 
Q 422 1150 422 2328 
Q 422 3509 836 4129 
Q 1250 4750 2034 4750 
z
" id="DejaVuSans-30" transform="scale(0.015625)"/>
        <path d="M 794 531 
L 1825 531 
L 1825 4091 
L 703 3866 
L 703 4441 
L 1819 4666 
L 2450 4666 
L 2450 531 
L 3481 531 
L 3481 0 
L 794 0 
L 794 531 
z
" id="DejaVuSans-31" transform="scale(0.015625)"/>
       </defs>
       <use xlink:href="#DejaVuSans-32"/>
       <use x="63.623047" xlink:href="#DejaVuSans-30"/>
       <use x="127.246094" xlink:href="#DejaVuSans-31"/>
       <use x="190.869141" xlink:href="#DejaVuSans-30"/>
      </g>
     </g>
    </g>
    <g id="xtick_2">
     <g id="line2d_2">
      <g>
       <use style="stroke:#000000;stroke-width:0.8;" x="121.3432" xlink:href="#m7b44a28f05" y="243.96"/>
      </g>
     </g>
     <g id="text_2">
      <!-- 2012 -->
      <g transform="translate(103.5282 261.597813)scale(0.14 -0.14)">
       <use xlink:href="#DejaVuSans-32"/>
       <use x="63.623047" xlink:href="#DejaVuSans-30"/>
       <use x="127.246094" xlink:href="#DejaVuSans-31"/>
       <use x="190.869141" xlink:href="#DejaVuSans-32"/>
      </g>
     </g>
    </g>
    <g id="xtick_3">
     <g id="line2d_3">
      <g>
       <use style="stroke:#000000;stroke-width:0.8;" x="175.307025" xlink:href="#m7b44a28f05" y="243.96"/>
      </g>
     </g>
     <g id="text_3">
      <!-- 2014 -->
      <g transform="translate(157.492025 261.597813)scale(0.14 -0.14)">
       <defs>
        <path d="M 2419 4116 
L 825 1625 
L 2419 1625 
L 2419 4116 
z
M 2253 4666 
L 3047 4666 
L 3047 1625 
L 3713 1625 
L 3713 1100 
L 3047 1100 
L 3047 0 
L 2419 0 
L 2419 1100 
L 313 1100 
L 313 1709 
L 2253 4666 
z
" id="DejaVuSans-34" transform="scale(0.015625)"/>
       </defs>
       <use xlink:href="#DejaVuSans-32"/>
       <use x="63.623047" xlink:href="#DejaVuSans-30"/>
       <use x="127.246094" xlink:href="#DejaVuSans-31"/>
       <use x="190.869141" xlink:href="#DejaVuSans-34"/>
      </g>
     </g>
    </g>
    <g id="xtick_4">
     <g id="line2d_4">
      <g>
       <use style="stroke:#000000;stroke-width:0.8;" x="229.270849" xlink:href="#m7b44a28f05" y="243.96"/>
      </g>
     </g>
     <g id="text_4">
      <!-- 2016 -->
      <g transform="translate(211.455849 261.597813)scale(0.14 -0.14)">
       <defs>
        <path d="M 2113 2584 
Q 1688 2584 1439 2293 
Q 1191 2003 1191 1497 
Q 1191 994 1439 701 
Q 1688 409 2113 409 
Q 2538 409 2786 701 
Q 3034 994 3034 1497 
Q 3034 2003 2786 2293 
Q 2538 2584 2113 2584 
z
M 3366 4563 
L 3366 3988 
Q 3128 4100 2886 4159 
Q 2644 4219 2406 4219 
Q 1781 4219 1451 3797 
Q 1122 3375 1075 2522 
Q 1259 2794 1537 2939 
Q 1816 3084 2150 3084 
Q 2853 3084 3261 2657 
Q 3669 2231 3669 1497 
Q 3669 778 3244 343 
Q 2819 -91 2113 -91 
Q 1303 -91 875 529 
Q 447 1150 447 2328 
Q 447 3434 972 4092 
Q 1497 4750 2381 4750 
Q 2619 4750 2861 4703 
Q 3103 4656 3366 4563 
z
" id="DejaVuSans-36" transform="scale(0.015625)"/>
       </defs>
       <use xlink:href="#DejaVuSans-32"/>
       <use x="63.623047" xlink:href="#DejaVuSans-30"/>
       <use x="127.246094" xlink:href="#DejaVuSans-31"/>
       <use x="190.869141" xlink:href="#DejaVuSans-36"/>
      </g>
     </g>
    </g>
    <g id="xtick_5">
     <g id="line2d_5">
      <g>
       <use style="stroke:#000000;stroke-width:0.8;" x="283.234674" xlink:href="#m7b44a28f05" y="243.96"/>
      </g>
     </g>
     <g id="text_5">
      <!-- 2018 -->
      <g transform="translate(265.419674 261.597813)scale(0.14 -0.14)">
       <defs>
        <path d="M 2034 2216 
Q 1584 2216 1326 1975 
Q 1069 1734 1069 1313 
Q 1069 891 1326 650 
Q 1584 409 2034 409 
Q 2484 409 2743 651 
Q 3003 894 3003 1313 
Q 3003 1734 2745 1975 
Q 2488 2216 2034 2216 
z
M 1403 2484 
Q 997 2584 770 2862 
Q 544 3141 544 3541 
Q 544 4100 942 4425 
Q 1341 4750 2034 4750 
Q 2731 4750 3128 4425 
Q 3525 4100 3525 3541 
Q 3525 3141 3298 2862 
Q 3072 2584 2669 2484 
Q 3125 2378 3379 2068 
Q 3634 1759 3634 1313 
Q 3634 634 3220 271 
Q 2806 -91 2034 -91 
Q 1263 -91 848 271 
Q 434 634 434 1313 
Q 434 1759 690 2068 
Q 947 2378 1403 2484 
z
M 1172 3481 
Q 1172 3119 1398 2916 
Q 1625 2713 2034 2713 
Q 2441 2713 2670 2916 
Q 2900 3119 2900 3481 
Q 2900 3844 2670 4047 
Q 2441 4250 2034 4250 
Q 1625 4250 1398 4047 
Q 1172 3844 1172 3481 
z
" id="DejaVuSans-38" transform="scale(0.015625)"/>
       </defs>
       <use xlink:href="#DejaVuSans-32"/>
       <use x="63.623047" xlink:href="#DejaVuSans-30"/>
       <use x="127.246094" xlink:href="#DejaVuSans-31"/>
       <use x="190.869141" xlink:href="#DejaVuSans-38"/>
      </g>
     </g>
    </g>
    <g id="xtick_6">
     <g id="line2d_6">
      <g>
       <use style="stroke:#000000;stroke-width:0.8;" x="337.198499" xlink:href="#m7b44a28f05" y="243.96"/>
      </g>
     </g>
     <g id="text_6">
      <!-- 2020 -->
      <g transform="translate(319.383499 261.597813)scale(0.14 -0.14)">
       <use xlink:href="#DejaVuSans-32"/>
       <use x="63.623047" xlink:href="#DejaVuSans-30"/>
       <use x="127.246094" xlink:href="#DejaVuSans-32"/>
       <use x="190.869141" xlink:href="#DejaVuSans-30"/>
      </g>
     </g>
    </g>
    <g id="xtick_7">
     <g id="line2d_7">
      <g>
       <use style="stroke:#000000;stroke-width:0.8;" x="391.162324" xlink:href="#m7b44a28f05" y="243.96"/>
      </g>
     </g>
     <g id="text_7">
      <!-- 2022 -->
      <g transform="translate(373.347324 261.597813)scale(0.14 -0.14)">
       <use xlink:href="#DejaVuSans-32"/>
       <use x="63.623047" xlink:href="#DejaVuSans-30"/>
       <use x="127.246094" xlink:href="#DejaVuSans-32"/>
       <use x="190.869141" xlink:href="#DejaVuSans-32"/>
      </g>
     </g>
    </g>
   </g>
   <g id="matplotlib.axis_2">
    <g id="ytick_1">
     <g id="line2d_8">
      <defs>
       <path d="M 0 0 
L -3.5 0 
" id="mc48270adce" style="stroke:#000000;stroke-width:0.8;"/>
      </defs>
      <g>
       <use style="stroke:#000000;stroke-width:0.8;" x="67.379375" xlink:href="#mc48270adce" y="243.96"/>
      </g>
     </g>
     <g id="text_8">
      <!-- 0 -->
      <g transform="translate(51.471875 249.278906)scale(0.14 -0.14)">
       <use xlink:href="#DejaVuSans-30"/>
      </g>
     </g>
    </g>
    <g id="ytick_2">
     <g id="line2d_9">
      <g>
       <use style="stroke:#000000;stroke-width:0.8;" x="67.379375" xlink:href="#mc48270adce" y="207.512956"/>
      </g>
     </g>
     <g id="text_9">
      <!-- 250 -->
      <g transform="translate(33.656875 212.831862)scale(0.14 -0.14)">
       <defs>
        <path d="M 691 4666 
L 3169 4666 
L 3169 4134 
L 1269 4134 
L 1269 2991 
Q 1406 3038 1543 3061 
Q 1681 3084 1819 3084 
Q 2600 3084 3056 2656 
Q 3513 2228 3513 1497 
Q 3513 744 3044 326 
Q 2575 -91 1722 -91 
Q 1428 -91 1123 -41 
Q 819 9 494 109 
L 494 744 
Q 775 591 1075 516 
Q 1375 441 1709 441 
Q 2250 441 2565 725 
Q 2881 1009 2881 1497 
Q 2881 1984 2565 2268 
Q 2250 2553 1709 2553 
Q 1456 2553 1204 2497 
Q 953 2441 691 2322 
L 691 4666 
z
" id="DejaVuSans-35" transform="scale(0.015625)"/>
       </defs>
       <use xlink:href="#DejaVuSans-32"/>
       <use x="63.623047" xlink:href="#DejaVuSans-35"/>
       <use x="127.246094" xlink:href="#DejaVuSans-30"/>
      </g>
     </g>
    </g>
    <g id="ytick_3">
     <g id="line2d_10">
      <g>
       <use style="stroke:#000000;stroke-width:0.8;" x="67.379375" xlink:href="#mc48270adce" y="171.065911"/>
      </g>
     </g>
     <g id="text_10">
      <!-- 500 -->
      <g transform="translate(33.656875 176.384818)scale(0.14 -0.14)">
       <use xlink:href="#DejaVuSans-35"/>
       <use x="63.623047" xlink:href="#DejaVuSans-30"/>
       <use x="127.246094" xlink:href="#DejaVuSans-30"/>
      </g>
     </g>
    </g>
    <g id="ytick_4">
     <g id="line2d_11">
      <g>
       <use style="stroke:#000000;stroke-width:0.8;" x="67.379375" xlink:href="#mc48270adce" y="134.618867"/>
      </g>
     </g>
     <g id="text_11">
      <!-- 750 -->
      <g transform="translate(33.656875 139.937773)scale(0.14 -0.14)">
       <defs>
        <path d="M 525 4666 
L 3525 4666 
L 3525 4397 
L 1831 0 
L 1172 0 
L 2766 4134 
L 525 4134 
L 525 4666 
z
" id="DejaVuSans-37" transform="scale(0.015625)"/>
       </defs>
       <use xlink:href="#DejaVuSans-37"/>
       <use x="63.623047" xlink:href="#DejaVuSans-35"/>
       <use x="127.246094" xlink:href="#DejaVuSans-30"/>
      </g>
     </g>
    </g>
    <g id="ytick_5">
     <g id="line2d_12">
      <g>
       <use style="stroke:#000000;stroke-width:0.8;" x="67.379375" xlink:href="#mc48270adce" y="98.171823"/>
      </g>
     </g>
     <g id="text_12">
      <!-- 1000 -->
      <g transform="translate(24.749375 103.490729)scale(0.14 -0.14)">
       <use xlink:href="#DejaVuSans-31"/>
       <use x="63.623047" xlink:href="#DejaVuSans-30"/>
       <use x="127.246094" xlink:href="#DejaVuSans-30"/>
       <use x="190.869141" xlink:href="#DejaVuSans-30"/>
      </g>
     </g>
    </g>
    <g id="ytick_6">
     <g id="line2d_13">
      <g>
       <use style="stroke:#000000;stroke-width:0.8;" x="67.379375" xlink:href="#mc48270adce" y="61.724778"/>
      </g>
     </g>
     <g id="text_13">
      <!-- 1250 -->
      <g transform="translate(24.749375 67.043685)scale(0.14 -0.14)">
       <use xlink:href="#DejaVuSans-31"/>
       <use x="63.623047" xlink:href="#DejaVuSans-32"/>
       <use x="127.246094" xlink:href="#DejaVuSans-35"/>
       <use x="190.869141" xlink:href="#DejaVuSans-30"/>
      </g>
     </g>
    </g>
    <g id="ytick_7">
     <g id="line2d_14">
      <g>
       <use style="stroke:#000000;stroke-width:0.8;" x="67.379375" xlink:href="#mc48270adce" y="25.277734"/>
      </g>
     </g>
     <g id="text_14">
      <!-- 1500 -->
      <g transform="translate(24.749375 30.59664)scale(0.14 -0.14)">
       <use xlink:href="#DejaVuSans-31"/>
       <use x="63.623047" xlink:href="#DejaVuSans-35"/>
       <use x="127.246094" xlink:href="#DejaVuSans-30"/>
       <use x="190.869141" xlink:href="#DejaVuSans-30"/>
      </g>
     </g>
    </g>
    <g id="text_15">
     <!-- Total # of Available Beds -->
     <g transform="translate(17.837813 212.324219)rotate(-90)scale(0.14 -0.14)">
      <defs>
       <path d="M -19 4666 
L 3928 4666 
L 3928 4134 
L 2272 4134 
L 2272 0 
L 1638 0 
L 1638 4134 
L -19 4134 
L -19 4666 
z
" id="DejaVuSans-54" transform="scale(0.015625)"/>
       <path d="M 1959 3097 
Q 1497 3097 1228 2736 
Q 959 2375 959 1747 
Q 959 1119 1226 758 
Q 1494 397 1959 397 
Q 2419 397 2687 759 
Q 2956 1122 2956 1747 
Q 2956 2369 2687 2733 
Q 2419 3097 1959 3097 
z
M 1959 3584 
Q 2709 3584 3137 3096 
Q 3566 2609 3566 1747 
Q 3566 888 3137 398 
Q 2709 -91 1959 -91 
Q 1206 -91 779 398 
Q 353 888 353 1747 
Q 353 2609 779 3096 
Q 1206 3584 1959 3584 
z
" id="DejaVuSans-6f" transform="scale(0.015625)"/>
       <path d="M 1172 4494 
L 1172 3500 
L 2356 3500 
L 2356 3053 
L 1172 3053 
L 1172 1153 
Q 1172 725 1289 603 
Q 1406 481 1766 481 
L 2356 481 
L 2356 0 
L 1766 0 
Q 1100 0 847 248 
Q 594 497 594 1153 
L 594 3053 
L 172 3053 
L 172 3500 
L 594 3500 
L 594 4494 
L 1172 4494 
z
" id="DejaVuSans-74" transform="scale(0.015625)"/>
       <path d="M 2194 1759 
Q 1497 1759 1228 1600 
Q 959 1441 959 1056 
Q 959 750 1161 570 
Q 1363 391 1709 391 
Q 2188 391 2477 730 
Q 2766 1069 2766 1631 
L 2766 1759 
L 2194 1759 
z
M 3341 1997 
L 3341 0 
L 2766 0 
L 2766 531 
Q 2569 213 2275 61 
Q 1981 -91 1556 -91 
Q 1019 -91 701 211 
Q 384 513 384 1019 
Q 384 1609 779 1909 
Q 1175 2209 1959 2209 
L 2766 2209 
L 2766 2266 
Q 2766 2663 2505 2880 
Q 2244 3097 1772 3097 
Q 1472 3097 1187 3025 
Q 903 2953 641 2809 
L 641 3341 
Q 956 3463 1253 3523 
Q 1550 3584 1831 3584 
Q 2591 3584 2966 3190 
Q 3341 2797 3341 1997 
z
" id="DejaVuSans-61" transform="scale(0.015625)"/>
       <path d="M 603 4863 
L 1178 4863 
L 1178 0 
L 603 0 
L 603 4863 
z
" id="DejaVuSans-6c" transform="scale(0.015625)"/>
       <path id="DejaVuSans-20" transform="scale(0.015625)"/>
       <path d="M 3272 2816 
L 2363 2816 
L 2100 1772 
L 3016 1772 
L 3272 2816 
z
M 2803 4594 
L 2478 3297 
L 3391 3297 
L 3719 4594 
L 4219 4594 
L 3897 3297 
L 4872 3297 
L 4872 2816 
L 3775 2816 
L 3519 1772 
L 4513 1772 
L 4513 1294 
L 3397 1294 
L 3072 0 
L 2572 0 
L 2894 1294 
L 1978 1294 
L 1656 0 
L 1153 0 
L 1478 1294 
L 494 1294 
L 494 1772 
L 1594 1772 
L 1856 2816 
L 850 2816 
L 850 3297 
L 1978 3297 
L 2297 4594 
L 2803 4594 
z
" id="DejaVuSans-23" transform="scale(0.015625)"/>
       <path d="M 2375 4863 
L 2375 4384 
L 1825 4384 
Q 1516 4384 1395 4259 
Q 1275 4134 1275 3809 
L 1275 3500 
L 2222 3500 
L 2222 3053 
L 1275 3053 
L 1275 0 
L 697 0 
L 697 3053 
L 147 3053 
L 147 3500 
L 697 3500 
L 697 3744 
Q 697 4328 969 4595 
Q 1241 4863 1831 4863 
L 2375 4863 
z
" id="DejaVuSans-66" transform="scale(0.015625)"/>
       <path d="M 2188 4044 
L 1331 1722 
L 3047 1722 
L 2188 4044 
z
M 1831 4666 
L 2547 4666 
L 4325 0 
L 3669 0 
L 3244 1197 
L 1141 1197 
L 716 0 
L 50 0 
L 1831 4666 
z
" id="DejaVuSans-41" transform="scale(0.015625)"/>
       <path d="M 191 3500 
L 800 3500 
L 1894 563 
L 2988 3500 
L 3597 3500 
L 2284 0 
L 1503 0 
L 191 3500 
z
" id="DejaVuSans-76" transform="scale(0.015625)"/>
       <path d="M 603 3500 
L 1178 3500 
L 1178 0 
L 603 0 
L 603 3500 
z
M 603 4863 
L 1178 4863 
L 1178 4134 
L 603 4134 
L 603 4863 
z
" id="DejaVuSans-69" transform="scale(0.015625)"/>
       <path d="M 3116 1747 
Q 3116 2381 2855 2742 
Q 2594 3103 2138 3103 
Q 1681 3103 1420 2742 
Q 1159 2381 1159 1747 
Q 1159 1113 1420 752 
Q 1681 391 2138 391 
Q 2594 391 2855 752 
Q 3116 1113 3116 1747 
z
M 1159 2969 
Q 1341 3281 1617 3432 
Q 1894 3584 2278 3584 
Q 2916 3584 3314 3078 
Q 3713 2572 3713 1747 
Q 3713 922 3314 415 
Q 2916 -91 2278 -91 
Q 1894 -91 1617 61 
Q 1341 213 1159 525 
L 1159 0 
L 581 0 
L 581 4863 
L 1159 4863 
L 1159 2969 
z
" id="DejaVuSans-62" transform="scale(0.015625)"/>
       <path d="M 3597 1894 
L 3597 1613 
L 953 1613 
Q 991 1019 1311 708 
Q 1631 397 2203 397 
Q 2534 397 2845 478 
Q 3156 559 3463 722 
L 3463 178 
Q 3153 47 2828 -22 
Q 2503 -91 2169 -91 
Q 1331 -91 842 396 
Q 353 884 353 1716 
Q 353 2575 817 3079 
Q 1281 3584 2069 3584 
Q 2775 3584 3186 3129 
Q 3597 2675 3597 1894 
z
M 3022 2063 
Q 3016 2534 2758 2815 
Q 2500 3097 2075 3097 
Q 1594 3097 1305 2825 
Q 1016 2553 972 2059 
L 3022 2063 
z
" id="DejaVuSans-65" transform="scale(0.015625)"/>
       <path d="M 1259 2228 
L 1259 519 
L 2272 519 
Q 2781 519 3026 730 
Q 3272 941 3272 1375 
Q 3272 1813 3026 2020 
Q 2781 2228 2272 2228 
L 1259 2228 
z
M 1259 4147 
L 1259 2741 
L 2194 2741 
Q 2656 2741 2882 2914 
Q 3109 3088 3109 3444 
Q 3109 3797 2882 3972 
Q 2656 4147 2194 4147 
L 1259 4147 
z
M 628 4666 
L 2241 4666 
Q 2963 4666 3353 4366 
Q 3744 4066 3744 3513 
Q 3744 3084 3544 2831 
Q 3344 2578 2956 2516 
Q 3422 2416 3680 2098 
Q 3938 1781 3938 1306 
Q 3938 681 3513 340 
Q 3088 0 2303 0 
L 628 0 
L 628 4666 
z
" id="DejaVuSans-42" transform="scale(0.015625)"/>
       <path d="M 2906 2969 
L 2906 4863 
L 3481 4863 
L 3481 0 
L 2906 0 
L 2906 525 
Q 2725 213 2448 61 
Q 2172 -91 1784 -91 
Q 1150 -91 751 415 
Q 353 922 353 1747 
Q 353 2572 751 3078 
Q 1150 3584 1784 3584 
Q 2172 3584 2448 3432 
Q 2725 3281 2906 2969 
z
M 947 1747 
Q 947 1113 1208 752 
Q 1469 391 1925 391 
Q 2381 391 2643 752 
Q 2906 1113 2906 1747 
Q 2906 2381 2643 2742 
Q 2381 3103 1925 3103 
Q 1469 3103 1208 2742 
Q 947 2381 947 1747 
z
" id="DejaVuSans-64" transform="scale(0.015625)"/>
       <path d="M 2834 3397 
L 2834 2853 
Q 2591 2978 2328 3040 
Q 2066 3103 1784 3103 
Q 1356 3103 1142 2972 
Q 928 2841 928 2578 
Q 928 2378 1081 2264 
Q 1234 2150 1697 2047 
L 1894 2003 
Q 2506 1872 2764 1633 
Q 3022 1394 3022 966 
Q 3022 478 2636 193 
Q 2250 -91 1575 -91 
Q 1294 -91 989 -36 
Q 684 19 347 128 
L 347 722 
Q 666 556 975 473 
Q 1284 391 1588 391 
Q 1994 391 2212 530 
Q 2431 669 2431 922 
Q 2431 1156 2273 1281 
Q 2116 1406 1581 1522 
L 1381 1569 
Q 847 1681 609 1914 
Q 372 2147 372 2553 
Q 372 3047 722 3315 
Q 1072 3584 1716 3584 
Q 2034 3584 2315 3537 
Q 2597 3491 2834 3397 
z
" id="DejaVuSans-73" transform="scale(0.015625)"/>
      </defs>
      <use xlink:href="#DejaVuSans-54"/>
      <use x="44.083984" xlink:href="#DejaVuSans-6f"/>
      <use x="105.265625" xlink:href="#DejaVuSans-74"/>
      <use x="144.474609" xlink:href="#DejaVuSans-61"/>
      <use x="205.753906" xlink:href="#DejaVuSans-6c"/>
      <use x="233.537109" xlink:href="#DejaVuSans-20"/>
      <use x="265.324219" xlink:href="#DejaVuSans-23"/>
      <use x="349.113281" xlink:href="#DejaVuSans-20"/>
      <use x="380.900391" xlink:href="#DejaVuSans-6f"/>
      <use x="442.082031" xlink:href="#DejaVuSans-66"/>
      <use x="477.287109" xlink:href="#DejaVuSans-20"/>
      <use x="509.074219" xlink:href="#DejaVuSans-41"/>
      <use x="571.607422" xlink:href="#DejaVuSans-76"/>
      <use x="630.787109" xlink:href="#DejaVuSans-61"/>
      <use x="692.066406" xlink:href="#DejaVuSans-69"/>
      <use x="719.849609" xlink:href="#DejaVuSans-6c"/>
      <use x="747.632812" xlink:href="#DejaVuSans-61"/>
      <use x="808.912109" xlink:href="#DejaVuSans-62"/>
      <use x="872.388672" xlink:href="#DejaVuSans-6c"/>
      <use x="900.171875" xlink:href="#DejaVuSans-65"/>
      <use x="961.695312" xlink:href="#DejaVuSans-20"/>
      <use x="993.482422" xlink:href="#DejaVuSans-42"/>
      <use x="1062.085938" xlink:href="#DejaVuSans-65"/>
      <use x="1123.609375" xlink:href="#DejaVuSans-64"/>
      <use x="1187.085938" xlink:href="#DejaVuSans-73"/>
     </g>
    </g>
   </g>
   <g id="patch_85">
    <path d="M 67.379375 243.96 
L 67.379375 7.2 
" style="fill:none;stroke:#000000;stroke-linecap:square;stroke-linejoin:miter;stroke-width:0.8;"/>
   </g>
   <g id="patch_86">
    <path d="M 395.142156 243.96 
L 395.142156 7.2 
" style="fill:none;stroke:#000000;stroke-linecap:square;stroke-linejoin:miter;stroke-width:0.8;"/>
   </g>
   <g id="patch_87">
    <path d="M 67.379375 243.96 
L 395.142156 243.96 
" style="fill:none;stroke:#000000;stroke-linecap:square;stroke-linejoin:miter;stroke-width:0.8;"/>
   </g>
   <g id="patch_88">
    <path d="M 67.379375 7.2 
L 395.142156 7.2 
" style="fill:none;stroke:#000000;stroke-linecap:square;stroke-linejoin:miter;stroke-width:0.8;"/>
   </g>
   <g id="legend_1">
    <g id="patch_89">
     <path d="M 79.979375 30.437813 
L 107.979375 30.437813 
L 107.979375 20.637813 
L 79.979375 20.637813 
z
" style="fill:#004684;"/>
    </g>
    <g id="text_16">
     <!-- Bedfordshire -->
     <g transform="translate(119.179375 30.437813)scale(0.14 -0.14)">
      <defs>
       <path d="M 2631 2963 
Q 2534 3019 2420 3045 
Q 2306 3072 2169 3072 
Q 1681 3072 1420 2755 
Q 1159 2438 1159 1844 
L 1159 0 
L 581 0 
L 581 3500 
L 1159 3500 
L 1159 2956 
Q 1341 3275 1631 3429 
Q 1922 3584 2338 3584 
Q 2397 3584 2469 3576 
Q 2541 3569 2628 3553 
L 2631 2963 
z
" id="DejaVuSans-72" transform="scale(0.015625)"/>
       <path d="M 3513 2113 
L 3513 0 
L 2938 0 
L 2938 2094 
Q 2938 2591 2744 2837 
Q 2550 3084 2163 3084 
Q 1697 3084 1428 2787 
Q 1159 2491 1159 1978 
L 1159 0 
L 581 0 
L 581 4863 
L 1159 4863 
L 1159 2956 
Q 1366 3272 1645 3428 
Q 1925 3584 2291 3584 
Q 2894 3584 3203 3211 
Q 3513 2838 3513 2113 
z
" id="DejaVuSans-68" transform="scale(0.015625)"/>
      </defs>
      <use xlink:href="#DejaVuSans-42"/>
      <use x="68.603516" xlink:href="#DejaVuSans-65"/>
      <use x="130.126953" xlink:href="#DejaVuSans-64"/>
      <use x="193.603516" xlink:href="#DejaVuSans-66"/>
      <use x="228.808594" xlink:href="#DejaVuSans-6f"/>
      <use x="289.990234" xlink:href="#DejaVuSans-72"/>
      <use x="329.353516" xlink:href="#DejaVuSans-64"/>
      <use x="392.830078" xlink:href="#DejaVuSans-73"/>
      <use x="444.929688" xlink:href="#DejaVuSans-68"/>
      <use x="508.308594" xlink:href="#DejaVuSans-69"/>
      <use x="536.091797" xlink:href="#DejaVuSans-72"/>
      <use x="574.955078" xlink:href="#DejaVuSans-65"/>
     </g>
    </g>
    <g id="patch_90">
     <path d="M 79.979375 50.987188 
L 107.979375 50.987188 
L 107.979375 41.187188 
L 79.979375 41.187188 
z
" style="fill:#006bc8;"/>
    </g>
    <g id="text_17">
     <!-- Bedford -->
     <g transform="translate(119.179375 50.987188)scale(0.14 -0.14)">
      <use xlink:href="#DejaVuSans-42"/>
      <use x="68.603516" xlink:href="#DejaVuSans-65"/>
      <use x="130.126953" xlink:href="#DejaVuSans-64"/>
      <use x="193.603516" xlink:href="#DejaVuSans-66"/>
      <use x="228.808594" xlink:href="#DejaVuSans-6f"/>
      <use x="289.990234" xlink:href="#DejaVuSans-72"/>
      <use x="329.353516" xlink:href="#DejaVuSans-64"/>
     </g>
    </g>
    <g id="patch_91">
     <path d="M 79.979375 71.536563 
L 107.979375 71.536563 
L 107.979375 61.736563 
L 79.979375 61.736563 
z
" style="fill:#39a1fc;"/>
    </g>
    <g id="text_18">
     <!-- Luton And Dunstable -->
     <g transform="translate(119.179375 71.536563)scale(0.14 -0.14)">
      <defs>
       <path d="M 628 4666 
L 1259 4666 
L 1259 531 
L 3531 531 
L 3531 0 
L 628 0 
L 628 4666 
z
" id="DejaVuSans-4c" transform="scale(0.015625)"/>
       <path d="M 544 1381 
L 544 3500 
L 1119 3500 
L 1119 1403 
Q 1119 906 1312 657 
Q 1506 409 1894 409 
Q 2359 409 2629 706 
Q 2900 1003 2900 1516 
L 2900 3500 
L 3475 3500 
L 3475 0 
L 2900 0 
L 2900 538 
Q 2691 219 2414 64 
Q 2138 -91 1772 -91 
Q 1169 -91 856 284 
Q 544 659 544 1381 
z
M 1991 3584 
L 1991 3584 
z
" id="DejaVuSans-75" transform="scale(0.015625)"/>
       <path d="M 3513 2113 
L 3513 0 
L 2938 0 
L 2938 2094 
Q 2938 2591 2744 2837 
Q 2550 3084 2163 3084 
Q 1697 3084 1428 2787 
Q 1159 2491 1159 1978 
L 1159 0 
L 581 0 
L 581 3500 
L 1159 3500 
L 1159 2956 
Q 1366 3272 1645 3428 
Q 1925 3584 2291 3584 
Q 2894 3584 3203 3211 
Q 3513 2838 3513 2113 
z
" id="DejaVuSans-6e" transform="scale(0.015625)"/>
       <path d="M 1259 4147 
L 1259 519 
L 2022 519 
Q 2988 519 3436 956 
Q 3884 1394 3884 2338 
Q 3884 3275 3436 3711 
Q 2988 4147 2022 4147 
L 1259 4147 
z
M 628 4666 
L 1925 4666 
Q 3281 4666 3915 4102 
Q 4550 3538 4550 2338 
Q 4550 1131 3912 565 
Q 3275 0 1925 0 
L 628 0 
L 628 4666 
z
" id="DejaVuSans-44" transform="scale(0.015625)"/>
      </defs>
      <use xlink:href="#DejaVuSans-4c"/>
      <use x="53.962891" xlink:href="#DejaVuSans-75"/>
      <use x="117.341797" xlink:href="#DejaVuSans-74"/>
      <use x="156.550781" xlink:href="#DejaVuSans-6f"/>
      <use x="217.732422" xlink:href="#DejaVuSans-6e"/>
      <use x="281.111328" xlink:href="#DejaVuSans-20"/>
      <use x="312.898438" xlink:href="#DejaVuSans-41"/>
      <use x="381.306641" xlink:href="#DejaVuSans-6e"/>
      <use x="444.685547" xlink:href="#DejaVuSans-64"/>
      <use x="508.162109" xlink:href="#DejaVuSans-20"/>
      <use x="539.949219" xlink:href="#DejaVuSans-44"/>
      <use x="616.951172" xlink:href="#DejaVuSans-75"/>
      <use x="680.330078" xlink:href="#DejaVuSans-6e"/>
      <use x="743.708984" xlink:href="#DejaVuSans-73"/>
      <use x="795.808594" xlink:href="#DejaVuSans-74"/>
      <use x="835.017578" xlink:href="#DejaVuSans-61"/>
      <use x="896.296875" xlink:href="#DejaVuSans-62"/>
      <use x="959.773438" xlink:href="#DejaVuSans-6c"/>
      <use x="987.556641" xlink:href="#DejaVuSans-65"/>
     </g>
    </g>
   </g>
  </g>
 </g>
 <defs>
  <clipPath id="pedec2ba5a1">
   <rect height="236.76" width="327.762781" x="67.379375" y="7.2"/>
  </clipPath>
 </defs>
</svg>
