<?xml version="1.0" encoding="utf-8" standalone="no"?>
<!DOCTYPE svg PUBLIC "-//W3C//DTD SVG 1.1//EN"
  "http://www.w3.org/Graphics/SVG/1.1/DTD/svg11.dtd">
<!-- Created with matplotlib (https://matplotlib.org/) -->
<svg height="252.389375pt" version="1.1" viewBox="0 0 412.749375 252.389375" width="412.749375pt" xmlns="http://www.w3.org/2000/svg" xmlns:xlink="http://www.w3.org/1999/xlink">
 <defs>
  <style type="text/css">
*{stroke-linecap:butt;stroke-linejoin:round;}
  </style>
 </defs>
 <g id="figure_1">
  <g id="patch_1">
   <path d="M 0 252.389375 
L 412.749375 252.389375 
L 412.749375 0 
L 0 0 
z
" style="fill:#ffffff;"/>
  </g>
  <g id="axes_1">
   <g id="patch_2">
    <path d="M 70.749375 212.275118 
L 405.549375 212.275118 
L 405.549375 7.2 
L 70.749375 7.2 
z
" style="fill:#ffffff;"/>
   </g>
   <g id="patch_3">
    <path clip-path="url(#pdf58d73f30)" d="M 385.223602 823.568179 
L 390.533673 823.568179 
L 390.533673 164.213741 
L 385.223602 164.213741 
z
" style="fill:#0072ce;"/>
   </g>
   <g id="patch_4">
    <path clip-path="url(#pdf58d73f30)" d="M 377.848503 823.568179 
L 383.158574 823.568179 
L 383.158574 162.227733 
L 377.848503 162.227733 
z
" style="fill:#0072ce;"/>
   </g>
   <g id="patch_5">
    <path clip-path="url(#pdf58d73f30)" d="M 370.473404 823.568179 
L 375.783475 823.568179 
L 375.783475 166.199748 
L 370.473404 166.199748 
z
" style="fill:#0072ce;"/>
   </g>
   <g id="patch_6">
    <path clip-path="url(#pdf58d73f30)" d="M 363.098304 823.568179 
L 368.408376 823.568179 
L 368.408376 147.332678 
L 363.098304 147.332678 
z
" style="fill:#0072ce;"/>
   </g>
   <g id="patch_7">
    <path clip-path="url(#pdf58d73f30)" d="M 355.723205 823.568179 
L 361.033277 823.568179 
L 361.033277 152.297697 
L 355.723205 152.297697 
z
" style="fill:#0072ce;"/>
   </g>
   <g id="patch_8">
    <path clip-path="url(#pdf58d73f30)" d="M 348.348106 823.568179 
L 353.658178 823.568179 
L 353.658178 151.304693 
L 348.348106 151.304693 
z
" style="fill:#0072ce;"/>
   </g>
   <g id="patch_9">
    <path clip-path="url(#pdf58d73f30)" d="M 340.973007 823.568179 
L 346.283078 823.568179 
L 346.283078 150.311689 
L 340.973007 150.311689 
z
" style="fill:#0072ce;"/>
   </g>
   <g id="patch_10">
    <path clip-path="url(#pdf58d73f30)" d="M 333.597908 823.568179 
L 338.907979 823.568179 
L 338.907979 149.318685 
L 333.597908 149.318685 
z
" style="fill:#0072ce;"/>
   </g>
   <g id="patch_11">
    <path clip-path="url(#pdf58d73f30)" d="M 326.222809 823.568179 
L 331.53288 823.568179 
L 331.53288 150.311689 
L 326.222809 150.311689 
z
" style="fill:#0072ce;"/>
   </g>
   <g id="patch_12">
    <path clip-path="url(#pdf58d73f30)" d="M 318.84771 823.568179 
L 324.157781 823.568179 
L 324.157781 149.318685 
L 318.84771 149.318685 
z
" style="fill:#0072ce;"/>
   </g>
   <g id="patch_13">
    <path clip-path="url(#pdf58d73f30)" d="M 311.472611 823.568179 
L 316.782682 823.568179 
L 316.782682 153.2907 
L 311.472611 153.2907 
z
" style="fill:#0072ce;"/>
   </g>
   <g id="patch_14">
    <path clip-path="url(#pdf58d73f30)" d="M 304.097511 823.568179 
L 309.407583 823.568179 
L 309.407583 154.283704 
L 304.097511 154.283704 
z
" style="fill:#0072ce;"/>
   </g>
   <g id="patch_15">
    <path clip-path="url(#pdf58d73f30)" d="M 296.722412 823.568179 
L 302.032484 823.568179 
L 302.032484 174.143777 
L 296.722412 174.143777 
z
" style="fill:#0072ce;"/>
   </g>
   <g id="patch_16">
    <path clip-path="url(#pdf58d73f30)" d="M 289.347313 823.568179 
L 294.657385 823.568179 
L 294.657385 180.101799 
L 289.347313 180.101799 
z
" style="fill:#0072ce;"/>
   </g>
   <g id="patch_17">
    <path clip-path="url(#pdf58d73f30)" d="M 281.972214 823.568179 
L 287.282285 823.568179 
L 287.282285 175.136781 
L 281.972214 175.136781 
z
" style="fill:#0072ce;"/>
   </g>
   <g id="patch_18">
    <path clip-path="url(#pdf58d73f30)" d="M 274.597115 823.568179 
L 279.907186 823.568179 
L 279.907186 174.143777 
L 274.597115 174.143777 
z
" style="fill:#0072ce;"/>
   </g>
   <g id="patch_19">
    <path clip-path="url(#pdf58d73f30)" d="M 267.222016 823.568179 
L 272.532087 823.568179 
L 272.532087 168.185755 
L 267.222016 168.185755 
z
" style="fill:#0072ce;"/>
   </g>
   <g id="patch_20">
    <path clip-path="url(#pdf58d73f30)" d="M 259.846917 823.568179 
L 265.156988 823.568179 
L 265.156988 157.262715 
L 259.846917 157.262715 
z
" style="fill:#0072ce;"/>
   </g>
   <g id="patch_21">
    <path clip-path="url(#pdf58d73f30)" d="M 252.471818 823.568179 
L 257.781889 823.568179 
L 257.781889 154.283704 
L 252.471818 154.283704 
z
" style="fill:#0072ce;"/>
   </g>
   <g id="patch_22">
    <path clip-path="url(#pdf58d73f30)" d="M 245.096718 823.568179 
L 250.40679 823.568179 
L 250.40679 133.430627 
L 245.096718 133.430627 
z
" style="fill:#0072ce;"/>
   </g>
   <g id="patch_23">
    <path clip-path="url(#pdf58d73f30)" d="M 237.721619 823.568179 
L 243.031691 823.568179 
L 243.031691 122.507586 
L 237.721619 122.507586 
z
" style="fill:#0072ce;"/>
   </g>
   <g id="patch_24">
    <path clip-path="url(#pdf58d73f30)" d="M 230.34652 823.568179 
L 235.656591 823.568179 
L 235.656591 138.395645 
L 230.34652 138.395645 
z
" style="fill:#0072ce;"/>
   </g>
   <g id="patch_25">
    <path clip-path="url(#pdf58d73f30)" d="M 222.971421 823.568179 
L 228.281492 823.568179 
L 228.281492 142.36766 
L 222.971421 142.36766 
z
" style="fill:#0072ce;"/>
   </g>
   <g id="patch_26">
    <path clip-path="url(#pdf58d73f30)" d="M 215.596322 823.568179 
L 220.906393 823.568179 
L 220.906393 144.353667 
L 215.596322 144.353667 
z
" style="fill:#0072ce;"/>
   </g>
   <g id="patch_27">
    <path clip-path="url(#pdf58d73f30)" d="M 208.221223 823.568179 
L 213.531294 823.568179 
L 213.531294 147.332678 
L 208.221223 147.332678 
z
" style="fill:#0072ce;"/>
   </g>
   <g id="patch_28">
    <path clip-path="url(#pdf58d73f30)" d="M 200.846124 823.568179 
L 206.156195 823.568179 
L 206.156195 138.395645 
L 200.846124 138.395645 
z
" style="fill:#0072ce;"/>
   </g>
   <g id="patch_29">
    <path clip-path="url(#pdf58d73f30)" d="M 193.471024 823.568179 
L 198.781096 823.568179 
L 198.781096 99.668502 
L 193.471024 99.668502 
z
" style="fill:#0072ce;"/>
   </g>
   <g id="patch_30">
    <path clip-path="url(#pdf58d73f30)" d="M 186.095925 823.568179 
L 191.405997 823.568179 
L 191.405997 81.794436 
L 186.095925 81.794436 
z
" style="fill:#0072ce;"/>
   </g>
   <g id="patch_31">
    <path clip-path="url(#pdf58d73f30)" d="M 178.720826 823.568179 
L 184.030898 823.568179 
L 184.030898 25.193227 
L 178.720826 25.193227 
z
" style="fill:#0072ce;"/>
   </g>
   <g id="patch_32">
    <path clip-path="url(#pdf58d73f30)" d="M 171.345727 823.568179 
L 176.655798 823.568179 
L 176.655798 23.207219 
L 171.345727 23.207219 
z
" style="fill:#0072ce;"/>
   </g>
   <g id="patch_33">
    <path clip-path="url(#pdf58d73f30)" d="M 163.970628 823.568179 
L 169.280699 823.568179 
L 169.280699 37.109271 
L 163.970628 37.109271 
z
" style="fill:#0072ce;"/>
   </g>
   <g id="patch_34">
    <path clip-path="url(#pdf58d73f30)" d="M 156.595529 823.568179 
L 161.9056 823.568179 
L 161.9056 87.752458 
L 156.595529 87.752458 
z
" style="fill:#0072ce;"/>
   </g>
   <g id="patch_35">
    <path clip-path="url(#pdf58d73f30)" d="M 149.22043 823.568179 
L 154.530501 823.568179 
L 154.530501 55.97634 
L 149.22043 55.97634 
z
" style="fill:#0072ce;"/>
   </g>
   <g id="patch_36">
    <path clip-path="url(#pdf58d73f30)" d="M 141.845331 823.568179 
L 147.155402 823.568179 
L 147.155402 129.458612 
L 141.845331 129.458612 
z
" style="fill:#0072ce;"/>
   </g>
   <g id="patch_37">
    <path clip-path="url(#pdf58d73f30)" d="M 134.470231 823.568179 
L 139.780303 823.568179 
L 139.780303 133.430627 
L 134.470231 133.430627 
z
" style="fill:#0072ce;"/>
   </g>
   <g id="patch_38">
    <path clip-path="url(#pdf58d73f30)" d="M 127.095132 823.568179 
L 132.405204 823.568179 
L 132.405204 95.696487 
L 127.095132 95.696487 
z
" style="fill:#0072ce;"/>
   </g>
   <g id="patch_39">
    <path clip-path="url(#pdf58d73f30)" d="M 119.720033 823.568179 
L 125.030105 823.568179 
L 125.030105 95.696487 
L 119.720033 95.696487 
z
" style="fill:#0072ce;"/>
   </g>
   <g id="patch_40">
    <path clip-path="url(#pdf58d73f30)" d="M 112.344934 823.568179 
L 117.655005 823.568179 
L 117.655005 138.395645 
L 112.344934 138.395645 
z
" style="fill:#0072ce;"/>
   </g>
   <g id="patch_41">
    <path clip-path="url(#pdf58d73f30)" d="M 104.969835 823.568179 
L 110.279906 823.568179 
L 110.279906 107.612531 
L 104.969835 107.612531 
z
" style="fill:#0072ce;"/>
   </g>
   <g id="patch_42">
    <path clip-path="url(#pdf58d73f30)" d="M 97.594736 823.568179 
L 102.904807 823.568179 
L 102.904807 107.612531 
L 97.594736 107.612531 
z
" style="fill:#0072ce;"/>
   </g>
   <g id="patch_43">
    <path clip-path="url(#pdf58d73f30)" d="M 90.219637 823.568179 
L 95.529708 823.568179 
L 95.529708 91.724473 
L 90.219637 91.724473 
z
" style="fill:#0072ce;"/>
   </g>
   <g id="matplotlib.axis_1">
    <g id="xtick_1"/>
    <g id="xtick_2"/>
    <g id="xtick_3"/>
    <g id="xtick_4"/>
    <g id="xtick_5"/>
    <g id="xtick_6"/>
   </g>
   <g id="matplotlib.axis_2">
    <g id="ytick_1">
     <g id="line2d_1">
      <defs>
       <path d="M 0 0 
L -3.5 0 
" id="m77b59e73ef" style="stroke:#000000;stroke-width:0.8;"/>
      </defs>
      <g>
       <use style="stroke:#000000;stroke-width:0.8;" x="70.749375" xlink:href="#m77b59e73ef" y="178.115792"/>
      </g>
     </g>
     <g id="text_1">
      <!-- 650 -->
      <defs>
       <path d="M 33.015625 40.375 
Q 26.375 40.375 22.484375 35.828125 
Q 18.609375 31.296875 18.609375 23.390625 
Q 18.609375 15.53125 22.484375 10.953125 
Q 26.375 6.390625 33.015625 6.390625 
Q 39.65625 6.390625 43.53125 10.953125 
Q 47.40625 15.53125 47.40625 23.390625 
Q 47.40625 31.296875 43.53125 35.828125 
Q 39.65625 40.375 33.015625 40.375 
z
M 52.59375 71.296875 
L 52.59375 62.3125 
Q 48.875 64.0625 45.09375 64.984375 
Q 41.3125 65.921875 37.59375 65.921875 
Q 27.828125 65.921875 22.671875 59.328125 
Q 17.53125 52.734375 16.796875 39.40625 
Q 19.671875 43.65625 24.015625 45.921875 
Q 28.375 48.1875 33.59375 48.1875 
Q 44.578125 48.1875 50.953125 41.515625 
Q 57.328125 34.859375 57.328125 23.390625 
Q 57.328125 12.15625 50.6875 5.359375 
Q 44.046875 -1.421875 33.015625 -1.421875 
Q 20.359375 -1.421875 13.671875 8.265625 
Q 6.984375 17.96875 6.984375 36.375 
Q 6.984375 53.65625 15.1875 63.9375 
Q 23.390625 74.21875 37.203125 74.21875 
Q 40.921875 74.21875 44.703125 73.484375 
Q 48.484375 72.75 52.59375 71.296875 
z
" id="DejaVuSans-54"/>
       <path d="M 10.796875 72.90625 
L 49.515625 72.90625 
L 49.515625 64.59375 
L 19.828125 64.59375 
L 19.828125 46.734375 
Q 21.96875 47.46875 24.109375 47.828125 
Q 26.265625 48.1875 28.421875 48.1875 
Q 40.625 48.1875 47.75 41.5 
Q 54.890625 34.8125 54.890625 23.390625 
Q 54.890625 11.625 47.5625 5.09375 
Q 40.234375 -1.421875 26.90625 -1.421875 
Q 22.3125 -1.421875 17.546875 -0.640625 
Q 12.796875 0.140625 7.71875 1.703125 
L 7.71875 11.625 
Q 12.109375 9.234375 16.796875 8.0625 
Q 21.484375 6.890625 26.703125 6.890625 
Q 35.15625 6.890625 40.078125 11.328125 
Q 45.015625 15.765625 45.015625 23.390625 
Q 45.015625 31 40.078125 35.4375 
Q 35.15625 39.890625 26.703125 39.890625 
Q 22.75 39.890625 18.8125 39.015625 
Q 14.890625 38.140625 10.796875 36.28125 
z
" id="DejaVuSans-53"/>
       <path d="M 31.78125 66.40625 
Q 24.171875 66.40625 20.328125 58.90625 
Q 16.5 51.421875 16.5 36.375 
Q 16.5 21.390625 20.328125 13.890625 
Q 24.171875 6.390625 31.78125 6.390625 
Q 39.453125 6.390625 43.28125 13.890625 
Q 47.125 21.390625 47.125 36.375 
Q 47.125 51.421875 43.28125 58.90625 
Q 39.453125 66.40625 31.78125 66.40625 
z
M 31.78125 74.21875 
Q 44.046875 74.21875 50.515625 64.515625 
Q 56.984375 54.828125 56.984375 36.375 
Q 56.984375 17.96875 50.515625 8.265625 
Q 44.046875 -1.421875 31.78125 -1.421875 
Q 19.53125 -1.421875 13.0625 8.265625 
Q 6.59375 17.96875 6.59375 36.375 
Q 6.59375 54.828125 13.0625 64.515625 
Q 19.53125 74.21875 31.78125 74.21875 
z
" id="DejaVuSans-48"/>
      </defs>
      <g transform="translate(37.026875 183.434698)scale(0.14 -0.14)">
       <use xlink:href="#DejaVuSans-54"/>
       <use x="63.623047" xlink:href="#DejaVuSans-53"/>
       <use x="127.246094" xlink:href="#DejaVuSans-48"/>
      </g>
     </g>
    </g>
    <g id="ytick_2">
     <g id="line2d_2">
      <g>
       <use style="stroke:#000000;stroke-width:0.8;" x="70.749375" xlink:href="#m77b59e73ef" y="128.465608"/>
      </g>
     </g>
     <g id="text_2">
      <!-- 700 -->
      <defs>
       <path d="M 8.203125 72.90625 
L 55.078125 72.90625 
L 55.078125 68.703125 
L 28.609375 0 
L 18.3125 0 
L 43.21875 64.59375 
L 8.203125 64.59375 
z
" id="DejaVuSans-55"/>
      </defs>
      <g transform="translate(37.026875 133.784515)scale(0.14 -0.14)">
       <use xlink:href="#DejaVuSans-55"/>
       <use x="63.623047" xlink:href="#DejaVuSans-48"/>
       <use x="127.246094" xlink:href="#DejaVuSans-48"/>
      </g>
     </g>
    </g>
    <g id="ytick_3">
     <g id="line2d_3">
      <g>
       <use style="stroke:#000000;stroke-width:0.8;" x="70.749375" xlink:href="#m77b59e73ef" y="78.815425"/>
      </g>
     </g>
     <g id="text_3">
      <!-- 750 -->
      <g transform="translate(37.026875 84.134331)scale(0.14 -0.14)">
       <use xlink:href="#DejaVuSans-55"/>
       <use x="63.623047" xlink:href="#DejaVuSans-53"/>
       <use x="127.246094" xlink:href="#DejaVuSans-48"/>
      </g>
     </g>
    </g>
    <g id="ytick_4">
     <g id="line2d_4">
      <g>
       <use style="stroke:#000000;stroke-width:0.8;" x="70.749375" xlink:href="#m77b59e73ef" y="29.165241"/>
      </g>
     </g>
     <g id="text_4">
      <!-- 800 -->
      <defs>
       <path d="M 31.78125 34.625 
Q 24.75 34.625 20.71875 30.859375 
Q 16.703125 27.09375 16.703125 20.515625 
Q 16.703125 13.921875 20.71875 10.15625 
Q 24.75 6.390625 31.78125 6.390625 
Q 38.8125 6.390625 42.859375 10.171875 
Q 46.921875 13.96875 46.921875 20.515625 
Q 46.921875 27.09375 42.890625 30.859375 
Q 38.875 34.625 31.78125 34.625 
z
M 21.921875 38.8125 
Q 15.578125 40.375 12.03125 44.71875 
Q 8.5 49.078125 8.5 55.328125 
Q 8.5 64.0625 14.71875 69.140625 
Q 20.953125 74.21875 31.78125 74.21875 
Q 42.671875 74.21875 48.875 69.140625 
Q 55.078125 64.0625 55.078125 55.328125 
Q 55.078125 49.078125 51.53125 44.71875 
Q 48 40.375 41.703125 38.8125 
Q 48.828125 37.15625 52.796875 32.3125 
Q 56.78125 27.484375 56.78125 20.515625 
Q 56.78125 9.90625 50.3125 4.234375 
Q 43.84375 -1.421875 31.78125 -1.421875 
Q 19.734375 -1.421875 13.25 4.234375 
Q 6.78125 9.90625 6.78125 20.515625 
Q 6.78125 27.484375 10.78125 32.3125 
Q 14.796875 37.15625 21.921875 38.8125 
z
M 18.3125 54.390625 
Q 18.3125 48.734375 21.84375 45.5625 
Q 25.390625 42.390625 31.78125 42.390625 
Q 38.140625 42.390625 41.71875 45.5625 
Q 45.3125 48.734375 45.3125 54.390625 
Q 45.3125 60.0625 41.71875 63.234375 
Q 38.140625 66.40625 31.78125 66.40625 
Q 25.390625 66.40625 21.84375 63.234375 
Q 18.3125 60.0625 18.3125 54.390625 
z
" id="DejaVuSans-56"/>
      </defs>
      <g transform="translate(37.026875 34.484147)scale(0.14 -0.14)">
       <use xlink:href="#DejaVuSans-56"/>
       <use x="63.623047" xlink:href="#DejaVuSans-48"/>
       <use x="127.246094" xlink:href="#DejaVuSans-48"/>
      </g>
     </g>
    </g>
   </g>
   <g id="line2d_5">
    <path d="M 66.167323 216.85717 
L 75.331427 207.693066 
" style="fill:none;stroke:#000000;stroke-linecap:square;stroke-width:0.8;"/>
   </g>
   <g id="patch_44">
    <path d="M 70.749375 212.275118 
L 70.749375 7.2 
" style="fill:none;stroke:#000000;stroke-linecap:square;stroke-linejoin:miter;stroke-width:0.8;"/>
   </g>
  </g>
  <g id="axes_2">
   <g id="patch_45">
    <path d="M 70.749375 224.64 
L 405.549375 224.64 
L 405.549375 220.638195 
L 70.749375 220.638195 
z
" style="fill:#ffffff;"/>
   </g>
   <g id="patch_46">
    <path clip-path="url(#p559d1d9e0a)" d="M 385.223602 224.64 
L 390.533673 224.64 
L 390.533673 -434.714438 
L 385.223602 -434.714438 
z
" style="fill:#0072ce;"/>
   </g>
   <g id="patch_47">
    <path clip-path="url(#p559d1d9e0a)" d="M 377.848503 224.64 
L 383.158574 224.64 
L 383.158574 -436.700445 
L 377.848503 -436.700445 
z
" style="fill:#0072ce;"/>
   </g>
   <g id="patch_48">
    <path clip-path="url(#p559d1d9e0a)" d="M 370.473404 224.64 
L 375.783475 224.64 
L 375.783475 -432.728431 
L 370.473404 -432.728431 
z
" style="fill:#0072ce;"/>
   </g>
   <g id="patch_49">
    <path clip-path="url(#p559d1d9e0a)" d="M 363.098304 224.64 
L 368.408376 224.64 
L 368.408376 -451.5955 
L 363.098304 -451.5955 
z
" style="fill:#0072ce;"/>
   </g>
   <g id="patch_50">
    <path clip-path="url(#p559d1d9e0a)" d="M 355.723205 224.64 
L 361.033277 224.64 
L 361.033277 -446.630482 
L 355.723205 -446.630482 
z
" style="fill:#0072ce;"/>
   </g>
   <g id="patch_51">
    <path clip-path="url(#p559d1d9e0a)" d="M 348.348106 224.64 
L 353.658178 224.64 
L 353.658178 -447.623486 
L 348.348106 -447.623486 
z
" style="fill:#0072ce;"/>
   </g>
   <g id="patch_52">
    <path clip-path="url(#p559d1d9e0a)" d="M 340.973007 224.64 
L 346.283078 224.64 
L 346.283078 -448.616489 
L 340.973007 -448.616489 
z
" style="fill:#0072ce;"/>
   </g>
   <g id="patch_53">
    <path clip-path="url(#p559d1d9e0a)" d="M 333.597908 224.64 
L 338.907979 224.64 
L 338.907979 -449.609493 
L 333.597908 -449.609493 
z
" style="fill:#0072ce;"/>
   </g>
   <g id="patch_54">
    <path clip-path="url(#p559d1d9e0a)" d="M 326.222809 224.64 
L 331.53288 224.64 
L 331.53288 -448.616489 
L 326.222809 -448.616489 
z
" style="fill:#0072ce;"/>
   </g>
   <g id="patch_55">
    <path clip-path="url(#p559d1d9e0a)" d="M 318.84771 224.64 
L 324.157781 224.64 
L 324.157781 -449.609493 
L 318.84771 -449.609493 
z
" style="fill:#0072ce;"/>
   </g>
   <g id="patch_56">
    <path clip-path="url(#p559d1d9e0a)" d="M 311.472611 224.64 
L 316.782682 224.64 
L 316.782682 -445.637478 
L 311.472611 -445.637478 
z
" style="fill:#0072ce;"/>
   </g>
   <g id="patch_57">
    <path clip-path="url(#p559d1d9e0a)" d="M 304.097511 224.64 
L 309.407583 224.64 
L 309.407583 -444.644475 
L 304.097511 -444.644475 
z
" style="fill:#0072ce;"/>
   </g>
   <g id="patch_58">
    <path clip-path="url(#p559d1d9e0a)" d="M 296.722412 224.64 
L 302.032484 224.64 
L 302.032484 -424.784401 
L 296.722412 -424.784401 
z
" style="fill:#0072ce;"/>
   </g>
   <g id="patch_59">
    <path clip-path="url(#p559d1d9e0a)" d="M 289.347313 224.64 
L 294.657385 224.64 
L 294.657385 -418.826379 
L 289.347313 -418.826379 
z
" style="fill:#0072ce;"/>
   </g>
   <g id="patch_60">
    <path clip-path="url(#p559d1d9e0a)" d="M 281.972214 224.64 
L 287.282285 224.64 
L 287.282285 -423.791398 
L 281.972214 -423.791398 
z
" style="fill:#0072ce;"/>
   </g>
   <g id="patch_61">
    <path clip-path="url(#p559d1d9e0a)" d="M 274.597115 224.64 
L 279.907186 224.64 
L 279.907186 -424.784401 
L 274.597115 -424.784401 
z
" style="fill:#0072ce;"/>
   </g>
   <g id="patch_62">
    <path clip-path="url(#p559d1d9e0a)" d="M 267.222016 224.64 
L 272.532087 224.64 
L 272.532087 -430.742423 
L 267.222016 -430.742423 
z
" style="fill:#0072ce;"/>
   </g>
   <g id="patch_63">
    <path clip-path="url(#p559d1d9e0a)" d="M 259.846917 224.64 
L 265.156988 224.64 
L 265.156988 -441.665464 
L 259.846917 -441.665464 
z
" style="fill:#0072ce;"/>
   </g>
   <g id="patch_64">
    <path clip-path="url(#p559d1d9e0a)" d="M 252.471818 224.64 
L 257.781889 224.64 
L 257.781889 -444.644475 
L 252.471818 -444.644475 
z
" style="fill:#0072ce;"/>
   </g>
   <g id="patch_65">
    <path clip-path="url(#p559d1d9e0a)" d="M 245.096718 224.64 
L 250.40679 224.64 
L 250.40679 -465.497552 
L 245.096718 -465.497552 
z
" style="fill:#0072ce;"/>
   </g>
   <g id="patch_66">
    <path clip-path="url(#p559d1d9e0a)" d="M 237.721619 224.64 
L 243.031691 224.64 
L 243.031691 -476.420592 
L 237.721619 -476.420592 
z
" style="fill:#0072ce;"/>
   </g>
   <g id="patch_67">
    <path clip-path="url(#p559d1d9e0a)" d="M 230.34652 224.64 
L 235.656591 224.64 
L 235.656591 -460.532533 
L 230.34652 -460.532533 
z
" style="fill:#0072ce;"/>
   </g>
   <g id="patch_68">
    <path clip-path="url(#p559d1d9e0a)" d="M 222.971421 224.64 
L 228.281492 224.64 
L 228.281492 -456.560519 
L 222.971421 -456.560519 
z
" style="fill:#0072ce;"/>
   </g>
   <g id="patch_69">
    <path clip-path="url(#p559d1d9e0a)" d="M 215.596322 224.64 
L 220.906393 224.64 
L 220.906393 -454.574511 
L 215.596322 -454.574511 
z
" style="fill:#0072ce;"/>
   </g>
   <g id="patch_70">
    <path clip-path="url(#p559d1d9e0a)" d="M 208.221223 224.64 
L 213.531294 224.64 
L 213.531294 -451.5955 
L 208.221223 -451.5955 
z
" style="fill:#0072ce;"/>
   </g>
   <g id="patch_71">
    <path clip-path="url(#p559d1d9e0a)" d="M 200.846124 224.64 
L 206.156195 224.64 
L 206.156195 -460.532533 
L 200.846124 -460.532533 
z
" style="fill:#0072ce;"/>
   </g>
   <g id="patch_72">
    <path clip-path="url(#p559d1d9e0a)" d="M 193.471024 224.64 
L 198.781096 224.64 
L 198.781096 -499.259677 
L 193.471024 -499.259677 
z
" style="fill:#0072ce;"/>
   </g>
   <g id="patch_73">
    <path clip-path="url(#p559d1d9e0a)" d="M 186.095925 224.64 
L 191.405997 224.64 
L 191.405997 -517.133743 
L 186.095925 -517.133743 
z
" style="fill:#0072ce;"/>
   </g>
   <g id="patch_74">
    <path clip-path="url(#p559d1d9e0a)" d="M 178.720826 224.64 
L 184.030898 224.64 
L 184.030898 -573.734952 
L 178.720826 -573.734952 
z
" style="fill:#0072ce;"/>
   </g>
   <g id="patch_75">
    <path clip-path="url(#p559d1d9e0a)" d="M 171.345727 224.64 
L 176.655798 224.64 
L 176.655798 -575.720959 
L 171.345727 -575.720959 
z
" style="fill:#0072ce;"/>
   </g>
   <g id="patch_76">
    <path clip-path="url(#p559d1d9e0a)" d="M 163.970628 224.64 
L 169.280699 224.64 
L 169.280699 -561.818908 
L 163.970628 -561.818908 
z
" style="fill:#0072ce;"/>
   </g>
   <g id="patch_77">
    <path clip-path="url(#p559d1d9e0a)" d="M 156.595529 224.64 
L 161.9056 224.64 
L 161.9056 -511.175721 
L 156.595529 -511.175721 
z
" style="fill:#0072ce;"/>
   </g>
   <g id="patch_78">
    <path clip-path="url(#p559d1d9e0a)" d="M 149.22043 224.64 
L 154.530501 224.64 
L 154.530501 -542.951838 
L 149.22043 -542.951838 
z
" style="fill:#0072ce;"/>
   </g>
   <g id="patch_79">
    <path clip-path="url(#p559d1d9e0a)" d="M 141.845331 224.64 
L 147.155402 224.64 
L 147.155402 -469.469567 
L 141.845331 -469.469567 
z
" style="fill:#0072ce;"/>
   </g>
   <g id="patch_80">
    <path clip-path="url(#p559d1d9e0a)" d="M 134.470231 224.64 
L 139.780303 224.64 
L 139.780303 -465.497552 
L 134.470231 -465.497552 
z
" style="fill:#0072ce;"/>
   </g>
   <g id="patch_81">
    <path clip-path="url(#p559d1d9e0a)" d="M 127.095132 224.64 
L 132.405204 224.64 
L 132.405204 -503.231691 
L 127.095132 -503.231691 
z
" style="fill:#0072ce;"/>
   </g>
   <g id="patch_82">
    <path clip-path="url(#p559d1d9e0a)" d="M 119.720033 224.64 
L 125.030105 224.64 
L 125.030105 -503.231691 
L 119.720033 -503.231691 
z
" style="fill:#0072ce;"/>
   </g>
   <g id="patch_83">
    <path clip-path="url(#p559d1d9e0a)" d="M 112.344934 224.64 
L 117.655005 224.64 
L 117.655005 -460.532533 
L 112.344934 -460.532533 
z
" style="fill:#0072ce;"/>
   </g>
   <g id="patch_84">
    <path clip-path="url(#p559d1d9e0a)" d="M 104.969835 224.64 
L 110.279906 224.64 
L 110.279906 -491.315647 
L 104.969835 -491.315647 
z
" style="fill:#0072ce;"/>
   </g>
   <g id="patch_85">
    <path clip-path="url(#p559d1d9e0a)" d="M 97.594736 224.64 
L 102.904807 224.64 
L 102.904807 -491.315647 
L 97.594736 -491.315647 
z
" style="fill:#0072ce;"/>
   </g>
   <g id="patch_86">
    <path clip-path="url(#p559d1d9e0a)" d="M 90.219637 224.64 
L 95.529708 224.64 
L 95.529708 -507.203706 
L 90.219637 -507.203706 
z
" style="fill:#0072ce;"/>
   </g>
   <g id="matplotlib.axis_3">
    <g id="xtick_7">
     <g id="line2d_6">
      <defs>
       <path d="M 0 0 
L 0 3.5 
" id="m7238a5570e" style="stroke:#000000;stroke-width:0.8;"/>
      </defs>
      <g>
       <use style="stroke:#000000;stroke-width:0.8;" x="70.749375" xlink:href="#m7238a5570e" y="224.64"/>
      </g>
     </g>
     <g id="text_5">
      <!-- 2010 -->
      <defs>
       <path d="M 19.1875 8.296875 
L 53.609375 8.296875 
L 53.609375 0 
L 7.328125 0 
L 7.328125 8.296875 
Q 12.9375 14.109375 22.625 23.890625 
Q 32.328125 33.6875 34.8125 36.53125 
Q 39.546875 41.84375 41.421875 45.53125 
Q 43.3125 49.21875 43.3125 52.78125 
Q 43.3125 58.59375 39.234375 62.25 
Q 35.15625 65.921875 28.609375 65.921875 
Q 23.96875 65.921875 18.8125 64.3125 
Q 13.671875 62.703125 7.8125 59.421875 
L 7.8125 69.390625 
Q 13.765625 71.78125 18.9375 73 
Q 24.125 74.21875 28.421875 74.21875 
Q 39.75 74.21875 46.484375 68.546875 
Q 53.21875 62.890625 53.21875 53.421875 
Q 53.21875 48.921875 51.53125 44.890625 
Q 49.859375 40.875 45.40625 35.40625 
Q 44.1875 33.984375 37.640625 27.21875 
Q 31.109375 20.453125 19.1875 8.296875 
z
" id="DejaVuSans-50"/>
       <path d="M 12.40625 8.296875 
L 28.515625 8.296875 
L 28.515625 63.921875 
L 10.984375 60.40625 
L 10.984375 69.390625 
L 28.421875 72.90625 
L 38.28125 72.90625 
L 38.28125 8.296875 
L 54.390625 8.296875 
L 54.390625 0 
L 12.40625 0 
z
" id="DejaVuSans-49"/>
      </defs>
      <g transform="translate(52.934375 242.277813)scale(0.14 -0.14)">
       <use xlink:href="#DejaVuSans-50"/>
       <use x="63.623047" xlink:href="#DejaVuSans-48"/>
       <use x="127.246094" xlink:href="#DejaVuSans-49"/>
       <use x="190.869141" xlink:href="#DejaVuSans-48"/>
      </g>
     </g>
    </g>
    <g id="xtick_8">
     <g id="line2d_7">
      <g>
       <use style="stroke:#000000;stroke-width:0.8;" x="129.750168" xlink:href="#m7238a5570e" y="224.64"/>
      </g>
     </g>
     <g id="text_6">
      <!-- 2012 -->
      <g transform="translate(111.935168 242.277813)scale(0.14 -0.14)">
       <use xlink:href="#DejaVuSans-50"/>
       <use x="63.623047" xlink:href="#DejaVuSans-48"/>
       <use x="127.246094" xlink:href="#DejaVuSans-49"/>
       <use x="190.869141" xlink:href="#DejaVuSans-50"/>
      </g>
     </g>
    </g>
    <g id="xtick_9">
     <g id="line2d_8">
      <g>
       <use style="stroke:#000000;stroke-width:0.8;" x="188.750961" xlink:href="#m7238a5570e" y="224.64"/>
      </g>
     </g>
     <g id="text_7">
      <!-- 2014 -->
      <defs>
       <path d="M 37.796875 64.3125 
L 12.890625 25.390625 
L 37.796875 25.390625 
z
M 35.203125 72.90625 
L 47.609375 72.90625 
L 47.609375 25.390625 
L 58.015625 25.390625 
L 58.015625 17.1875 
L 47.609375 17.1875 
L 47.609375 0 
L 37.796875 0 
L 37.796875 17.1875 
L 4.890625 17.1875 
L 4.890625 26.703125 
z
" id="DejaVuSans-52"/>
      </defs>
      <g transform="translate(170.935961 242.277813)scale(0.14 -0.14)">
       <use xlink:href="#DejaVuSans-50"/>
       <use x="63.623047" xlink:href="#DejaVuSans-48"/>
       <use x="127.246094" xlink:href="#DejaVuSans-49"/>
       <use x="190.869141" xlink:href="#DejaVuSans-52"/>
      </g>
     </g>
    </g>
    <g id="xtick_10">
     <g id="line2d_9">
      <g>
       <use style="stroke:#000000;stroke-width:0.8;" x="247.751754" xlink:href="#m7238a5570e" y="224.64"/>
      </g>
     </g>
     <g id="text_8">
      <!-- 2016 -->
      <g transform="translate(229.936754 242.277813)scale(0.14 -0.14)">
       <use xlink:href="#DejaVuSans-50"/>
       <use x="63.623047" xlink:href="#DejaVuSans-48"/>
       <use x="127.246094" xlink:href="#DejaVuSans-49"/>
       <use x="190.869141" xlink:href="#DejaVuSans-54"/>
      </g>
     </g>
    </g>
    <g id="xtick_11">
     <g id="line2d_10">
      <g>
       <use style="stroke:#000000;stroke-width:0.8;" x="306.752547" xlink:href="#m7238a5570e" y="224.64"/>
      </g>
     </g>
     <g id="text_9">
      <!-- 2018 -->
      <g transform="translate(288.937547 242.277813)scale(0.14 -0.14)">
       <use xlink:href="#DejaVuSans-50"/>
       <use x="63.623047" xlink:href="#DejaVuSans-48"/>
       <use x="127.246094" xlink:href="#DejaVuSans-49"/>
       <use x="190.869141" xlink:href="#DejaVuSans-56"/>
      </g>
     </g>
    </g>
    <g id="xtick_12">
     <g id="line2d_11">
      <g>
       <use style="stroke:#000000;stroke-width:0.8;" x="365.75334" xlink:href="#m7238a5570e" y="224.64"/>
      </g>
     </g>
     <g id="text_10">
      <!-- 2020 -->
      <g transform="translate(347.93834 242.277813)scale(0.14 -0.14)">
       <use xlink:href="#DejaVuSans-50"/>
       <use x="63.623047" xlink:href="#DejaVuSans-48"/>
       <use x="127.246094" xlink:href="#DejaVuSans-50"/>
       <use x="190.869141" xlink:href="#DejaVuSans-48"/>
      </g>
     </g>
    </g>
   </g>
   <g id="matplotlib.axis_4">
    <g id="ytick_5">
     <g id="line2d_12">
      <g>
       <use style="stroke:#000000;stroke-width:0.8;" x="70.749375" xlink:href="#m77b59e73ef" y="224.64"/>
      </g>
     </g>
     <g id="text_11">
      <!-- 0 -->
      <g transform="translate(54.841875 229.958906)scale(0.14 -0.14)">
       <use xlink:href="#DejaVuSans-48"/>
      </g>
     </g>
    </g>
   </g>
   <g id="line2d_13">
    <path d="M 66.167323 225.220247 
L 75.331427 216.056143 
" style="fill:none;stroke:#000000;stroke-linecap:square;stroke-width:0.8;"/>
   </g>
   <g id="patch_87">
    <path d="M 70.749375 224.64 
L 70.749375 220.638195 
" style="fill:none;stroke:#000000;stroke-linecap:square;stroke-linejoin:miter;stroke-width:0.8;"/>
   </g>
   <g id="patch_88">
    <path d="M 70.749375 224.64 
L 405.549375 224.64 
" style="fill:none;stroke:#000000;stroke-linecap:square;stroke-linejoin:miter;stroke-width:0.8;"/>
   </g>
  </g>
  <g id="axes_3">
   <g id="patch_89">
    <path d="M 70.749375 224.64 
L 405.549375 224.64 
L 405.549375 7.2 
L 70.749375 7.2 
z
" style="fill:none;"/>
   </g>
   <g id="matplotlib.axis_5"/>
   <g id="matplotlib.axis_6">
    <g id="text_12">
     <!-- # of Overnight Beds -->
     <defs>
      <path d="M 51.125 44 
L 36.921875 44 
L 32.8125 27.6875 
L 47.125 27.6875 
z
M 43.796875 71.78125 
L 38.71875 51.515625 
L 52.984375 51.515625 
L 58.109375 71.78125 
L 65.921875 71.78125 
L 60.890625 51.515625 
L 76.125 51.515625 
L 76.125 44 
L 58.984375 44 
L 54.984375 27.6875 
L 70.515625 27.6875 
L 70.515625 20.21875 
L 53.078125 20.21875 
L 48 0 
L 40.1875 0 
L 45.21875 20.21875 
L 30.90625 20.21875 
L 25.875 0 
L 18.015625 0 
L 23.09375 20.21875 
L 7.71875 20.21875 
L 7.71875 27.6875 
L 24.90625 27.6875 
L 29 44 
L 13.28125 44 
L 13.28125 51.515625 
L 30.90625 51.515625 
L 35.890625 71.78125 
z
" id="DejaVuSans-35"/>
      <path id="DejaVuSans-32"/>
      <path d="M 30.609375 48.390625 
Q 23.390625 48.390625 19.1875 42.75 
Q 14.984375 37.109375 14.984375 27.296875 
Q 14.984375 17.484375 19.15625 11.84375 
Q 23.34375 6.203125 30.609375 6.203125 
Q 37.796875 6.203125 41.984375 11.859375 
Q 46.1875 17.53125 46.1875 27.296875 
Q 46.1875 37.015625 41.984375 42.703125 
Q 37.796875 48.390625 30.609375 48.390625 
z
M 30.609375 56 
Q 42.328125 56 49.015625 48.375 
Q 55.71875 40.765625 55.71875 27.296875 
Q 55.71875 13.875 49.015625 6.21875 
Q 42.328125 -1.421875 30.609375 -1.421875 
Q 18.84375 -1.421875 12.171875 6.21875 
Q 5.515625 13.875 5.515625 27.296875 
Q 5.515625 40.765625 12.171875 48.375 
Q 18.84375 56 30.609375 56 
z
" id="DejaVuSans-111"/>
      <path d="M 37.109375 75.984375 
L 37.109375 68.5 
L 28.515625 68.5 
Q 23.6875 68.5 21.796875 66.546875 
Q 19.921875 64.59375 19.921875 59.515625 
L 19.921875 54.6875 
L 34.71875 54.6875 
L 34.71875 47.703125 
L 19.921875 47.703125 
L 19.921875 0 
L 10.890625 0 
L 10.890625 47.703125 
L 2.296875 47.703125 
L 2.296875 54.6875 
L 10.890625 54.6875 
L 10.890625 58.5 
Q 10.890625 67.625 15.140625 71.796875 
Q 19.390625 75.984375 28.609375 75.984375 
z
" id="DejaVuSans-102"/>
      <path d="M 39.40625 66.21875 
Q 28.65625 66.21875 22.328125 58.203125 
Q 16.015625 50.203125 16.015625 36.375 
Q 16.015625 22.609375 22.328125 14.59375 
Q 28.65625 6.59375 39.40625 6.59375 
Q 50.140625 6.59375 56.421875 14.59375 
Q 62.703125 22.609375 62.703125 36.375 
Q 62.703125 50.203125 56.421875 58.203125 
Q 50.140625 66.21875 39.40625 66.21875 
z
M 39.40625 74.21875 
Q 54.734375 74.21875 63.90625 63.9375 
Q 73.09375 53.65625 73.09375 36.375 
Q 73.09375 19.140625 63.90625 8.859375 
Q 54.734375 -1.421875 39.40625 -1.421875 
Q 24.03125 -1.421875 14.8125 8.828125 
Q 5.609375 19.09375 5.609375 36.375 
Q 5.609375 53.65625 14.8125 63.9375 
Q 24.03125 74.21875 39.40625 74.21875 
z
" id="DejaVuSans-79"/>
      <path d="M 2.984375 54.6875 
L 12.5 54.6875 
L 29.59375 8.796875 
L 46.6875 54.6875 
L 56.203125 54.6875 
L 35.6875 0 
L 23.484375 0 
z
" id="DejaVuSans-118"/>
      <path d="M 56.203125 29.59375 
L 56.203125 25.203125 
L 14.890625 25.203125 
Q 15.484375 15.921875 20.484375 11.0625 
Q 25.484375 6.203125 34.421875 6.203125 
Q 39.59375 6.203125 44.453125 7.46875 
Q 49.3125 8.734375 54.109375 11.28125 
L 54.109375 2.78125 
Q 49.265625 0.734375 44.1875 -0.34375 
Q 39.109375 -1.421875 33.890625 -1.421875 
Q 20.796875 -1.421875 13.15625 6.1875 
Q 5.515625 13.8125 5.515625 26.8125 
Q 5.515625 40.234375 12.765625 48.109375 
Q 20.015625 56 32.328125 56 
Q 43.359375 56 49.78125 48.890625 
Q 56.203125 41.796875 56.203125 29.59375 
z
M 47.21875 32.234375 
Q 47.125 39.59375 43.09375 43.984375 
Q 39.0625 48.390625 32.421875 48.390625 
Q 24.90625 48.390625 20.390625 44.140625 
Q 15.875 39.890625 15.1875 32.171875 
z
" id="DejaVuSans-101"/>
      <path d="M 41.109375 46.296875 
Q 39.59375 47.171875 37.8125 47.578125 
Q 36.03125 48 33.890625 48 
Q 26.265625 48 22.1875 43.046875 
Q 18.109375 38.09375 18.109375 28.8125 
L 18.109375 0 
L 9.078125 0 
L 9.078125 54.6875 
L 18.109375 54.6875 
L 18.109375 46.1875 
Q 20.953125 51.171875 25.484375 53.578125 
Q 30.03125 56 36.53125 56 
Q 37.453125 56 38.578125 55.875 
Q 39.703125 55.765625 41.0625 55.515625 
z
" id="DejaVuSans-114"/>
      <path d="M 54.890625 33.015625 
L 54.890625 0 
L 45.90625 0 
L 45.90625 32.71875 
Q 45.90625 40.484375 42.875 44.328125 
Q 39.84375 48.1875 33.796875 48.1875 
Q 26.515625 48.1875 22.3125 43.546875 
Q 18.109375 38.921875 18.109375 30.90625 
L 18.109375 0 
L 9.078125 0 
L 9.078125 54.6875 
L 18.109375 54.6875 
L 18.109375 46.1875 
Q 21.34375 51.125 25.703125 53.5625 
Q 30.078125 56 35.796875 56 
Q 45.21875 56 50.046875 50.171875 
Q 54.890625 44.34375 54.890625 33.015625 
z
" id="DejaVuSans-110"/>
      <path d="M 9.421875 54.6875 
L 18.40625 54.6875 
L 18.40625 0 
L 9.421875 0 
z
M 9.421875 75.984375 
L 18.40625 75.984375 
L 18.40625 64.59375 
L 9.421875 64.59375 
z
" id="DejaVuSans-105"/>
      <path d="M 45.40625 27.984375 
Q 45.40625 37.75 41.375 43.109375 
Q 37.359375 48.484375 30.078125 48.484375 
Q 22.859375 48.484375 18.828125 43.109375 
Q 14.796875 37.75 14.796875 27.984375 
Q 14.796875 18.265625 18.828125 12.890625 
Q 22.859375 7.515625 30.078125 7.515625 
Q 37.359375 7.515625 41.375 12.890625 
Q 45.40625 18.265625 45.40625 27.984375 
z
M 54.390625 6.78125 
Q 54.390625 -7.171875 48.1875 -13.984375 
Q 42 -20.796875 29.203125 -20.796875 
Q 24.46875 -20.796875 20.265625 -20.09375 
Q 16.0625 -19.390625 12.109375 -17.921875 
L 12.109375 -9.1875 
Q 16.0625 -11.328125 19.921875 -12.34375 
Q 23.78125 -13.375 27.78125 -13.375 
Q 36.625 -13.375 41.015625 -8.765625 
Q 45.40625 -4.15625 45.40625 5.171875 
L 45.40625 9.625 
Q 42.625 4.78125 38.28125 2.390625 
Q 33.9375 0 27.875 0 
Q 17.828125 0 11.671875 7.65625 
Q 5.515625 15.328125 5.515625 27.984375 
Q 5.515625 40.671875 11.671875 48.328125 
Q 17.828125 56 27.875 56 
Q 33.9375 56 38.28125 53.609375 
Q 42.625 51.21875 45.40625 46.390625 
L 45.40625 54.6875 
L 54.390625 54.6875 
z
" id="DejaVuSans-103"/>
      <path d="M 54.890625 33.015625 
L 54.890625 0 
L 45.90625 0 
L 45.90625 32.71875 
Q 45.90625 40.484375 42.875 44.328125 
Q 39.84375 48.1875 33.796875 48.1875 
Q 26.515625 48.1875 22.3125 43.546875 
Q 18.109375 38.921875 18.109375 30.90625 
L 18.109375 0 
L 9.078125 0 
L 9.078125 75.984375 
L 18.109375 75.984375 
L 18.109375 46.1875 
Q 21.34375 51.125 25.703125 53.5625 
Q 30.078125 56 35.796875 56 
Q 45.21875 56 50.046875 50.171875 
Q 54.890625 44.34375 54.890625 33.015625 
z
" id="DejaVuSans-104"/>
      <path d="M 18.3125 70.21875 
L 18.3125 54.6875 
L 36.8125 54.6875 
L 36.8125 47.703125 
L 18.3125 47.703125 
L 18.3125 18.015625 
Q 18.3125 11.328125 20.140625 9.421875 
Q 21.96875 7.515625 27.59375 7.515625 
L 36.8125 7.515625 
L 36.8125 0 
L 27.59375 0 
Q 17.1875 0 13.234375 3.875 
Q 9.28125 7.765625 9.28125 18.015625 
L 9.28125 47.703125 
L 2.6875 47.703125 
L 2.6875 54.6875 
L 9.28125 54.6875 
L 9.28125 70.21875 
z
" id="DejaVuSans-116"/>
      <path d="M 19.671875 34.8125 
L 19.671875 8.109375 
L 35.5 8.109375 
Q 43.453125 8.109375 47.28125 11.40625 
Q 51.125 14.703125 51.125 21.484375 
Q 51.125 28.328125 47.28125 31.5625 
Q 43.453125 34.8125 35.5 34.8125 
z
M 19.671875 64.796875 
L 19.671875 42.828125 
L 34.28125 42.828125 
Q 41.5 42.828125 45.03125 45.53125 
Q 48.578125 48.25 48.578125 53.8125 
Q 48.578125 59.328125 45.03125 62.0625 
Q 41.5 64.796875 34.28125 64.796875 
z
M 9.8125 72.90625 
L 35.015625 72.90625 
Q 46.296875 72.90625 52.390625 68.21875 
Q 58.5 63.53125 58.5 54.890625 
Q 58.5 48.1875 55.375 44.234375 
Q 52.25 40.28125 46.1875 39.3125 
Q 53.46875 37.75 57.5 32.78125 
Q 61.53125 27.828125 61.53125 20.40625 
Q 61.53125 10.640625 54.890625 5.3125 
Q 48.25 0 35.984375 0 
L 9.8125 0 
z
" id="DejaVuSans-66"/>
      <path d="M 45.40625 46.390625 
L 45.40625 75.984375 
L 54.390625 75.984375 
L 54.390625 0 
L 45.40625 0 
L 45.40625 8.203125 
Q 42.578125 3.328125 38.25 0.953125 
Q 33.9375 -1.421875 27.875 -1.421875 
Q 17.96875 -1.421875 11.734375 6.484375 
Q 5.515625 14.40625 5.515625 27.296875 
Q 5.515625 40.1875 11.734375 48.09375 
Q 17.96875 56 27.875 56 
Q 33.9375 56 38.25 53.625 
Q 42.578125 51.265625 45.40625 46.390625 
z
M 14.796875 27.296875 
Q 14.796875 17.390625 18.875 11.75 
Q 22.953125 6.109375 30.078125 6.109375 
Q 37.203125 6.109375 41.296875 11.75 
Q 45.40625 17.390625 45.40625 27.296875 
Q 45.40625 37.203125 41.296875 42.84375 
Q 37.203125 48.484375 30.078125 48.484375 
Q 22.953125 48.484375 18.875 42.84375 
Q 14.796875 37.203125 14.796875 27.296875 
z
" id="DejaVuSans-100"/>
      <path d="M 44.28125 53.078125 
L 44.28125 44.578125 
Q 40.484375 46.53125 36.375 47.5 
Q 32.28125 48.484375 27.875 48.484375 
Q 21.1875 48.484375 17.84375 46.4375 
Q 14.5 44.390625 14.5 40.28125 
Q 14.5 37.15625 16.890625 35.375 
Q 19.28125 33.59375 26.515625 31.984375 
L 29.59375 31.296875 
Q 39.15625 29.25 43.1875 25.515625 
Q 47.21875 21.78125 47.21875 15.09375 
Q 47.21875 7.46875 41.1875 3.015625 
Q 35.15625 -1.421875 24.609375 -1.421875 
Q 20.21875 -1.421875 15.453125 -0.5625 
Q 10.6875 0.296875 5.421875 2 
L 5.421875 11.28125 
Q 10.40625 8.6875 15.234375 7.390625 
Q 20.0625 6.109375 24.8125 6.109375 
Q 31.15625 6.109375 34.5625 8.28125 
Q 37.984375 10.453125 37.984375 14.40625 
Q 37.984375 18.0625 35.515625 20.015625 
Q 33.0625 21.96875 24.703125 23.78125 
L 21.578125 24.515625 
Q 13.234375 26.265625 9.515625 29.90625 
Q 5.8125 33.546875 5.8125 39.890625 
Q 5.8125 47.609375 11.28125 51.796875 
Q 16.75 56 26.8125 56 
Q 31.78125 56 36.171875 55.265625 
Q 40.578125 54.546875 44.28125 53.078125 
z
" id="DejaVuSans-115"/>
     </defs>
     <g transform="translate(17.837812 187.25)rotate(-90)scale(0.14 -0.14)">
      <use xlink:href="#DejaVuSans-35"/>
      <use x="83.789062" xlink:href="#DejaVuSans-32"/>
      <use x="115.576172" xlink:href="#DejaVuSans-111"/>
      <use x="176.757812" xlink:href="#DejaVuSans-102"/>
      <use x="211.962891" xlink:href="#DejaVuSans-32"/>
      <use x="243.75" xlink:href="#DejaVuSans-79"/>
      <use x="322.460938" xlink:href="#DejaVuSans-118"/>
      <use x="381.640625" xlink:href="#DejaVuSans-101"/>
      <use x="443.164062" xlink:href="#DejaVuSans-114"/>
      <use x="484.261719" xlink:href="#DejaVuSans-110"/>
      <use x="547.640625" xlink:href="#DejaVuSans-105"/>
      <use x="575.423828" xlink:href="#DejaVuSans-103"/>
      <use x="638.900391" xlink:href="#DejaVuSans-104"/>
      <use x="702.279297" xlink:href="#DejaVuSans-116"/>
      <use x="741.488281" xlink:href="#DejaVuSans-32"/>
      <use x="773.275391" xlink:href="#DejaVuSans-66"/>
      <use x="841.878906" xlink:href="#DejaVuSans-101"/>
      <use x="903.402344" xlink:href="#DejaVuSans-100"/>
      <use x="966.878906" xlink:href="#DejaVuSans-115"/>
     </g>
    </g>
   </g>
  </g>
 </g>
 <defs>
  <clipPath id="pdf58d73f30">
   <rect height="205.075118" width="334.8" x="70.749375" y="7.2"/>
  </clipPath>
  <clipPath id="p559d1d9e0a">
   <rect height="4.001805" width="334.8" x="70.749375" y="220.638195"/>
  </clipPath>
 </defs>
</svg>
