<?xml version="1.0" encoding="utf-8" standalone="no"?>
<!DOCTYPE svg PUBLIC "-//W3C//DTD SVG 1.1//EN"
  "http://www.w3.org/Graphics/SVG/1.1/DTD/svg11.dtd">
<!-- Created with matplotlib (https://matplotlib.org/) -->
<svg height="288pt" version="1.1" viewBox="0 0 432 288" width="432pt" xmlns="http://www.w3.org/2000/svg" xmlns:xlink="http://www.w3.org/1999/xlink">
 <defs>
  <style type="text/css">
*{stroke-linecap:butt;stroke-linejoin:round;}
  </style>
 </defs>
 <g id="figure_1">
  <g id="patch_1">
   <path d="M 0 288 
L 432 288 
L 432 0 
L 0 0 
z
" style="fill:#ffffff;"/>
  </g>
  <g id="axes_1">
   <g id="patch_2">
    <path d="M 88.065 225.449541 
L 396.84661 225.449541 
L 396.84661 19.44 
L 88.065 19.44 
z
" style="fill:#ffffff;"/>
   </g>
   <g id="matplotlib.axis_1">
    <g id="xtick_1">
     <g id="line2d_1">
      <defs>
       <path d="M 0 0 
L 0 3.5 
" id="m4551b138f2" style="stroke:#000000;stroke-width:0.8;"/>
      </defs>
      <g>
       <use style="stroke:#000000;stroke-width:0.8;" x="102.100528" xlink:href="#m4551b138f2" y="225.449541"/>
      </g>
     </g>
     <g id="text_1">
      <!-- Mar -->
      <defs>
       <path d="M 9.8125 72.90625 
L 24.515625 72.90625 
L 43.109375 23.296875 
L 61.8125 72.90625 
L 76.515625 72.90625 
L 76.515625 0 
L 66.890625 0 
L 66.890625 64.015625 
L 48.09375 14.015625 
L 38.1875 14.015625 
L 19.390625 64.015625 
L 19.390625 0 
L 9.8125 0 
z
" id="DejaVuSans-77"/>
       <path d="M 34.28125 27.484375 
Q 23.390625 27.484375 19.1875 25 
Q 14.984375 22.515625 14.984375 16.5 
Q 14.984375 11.71875 18.140625 8.90625 
Q 21.296875 6.109375 26.703125 6.109375 
Q 34.1875 6.109375 38.703125 11.40625 
Q 43.21875 16.703125 43.21875 25.484375 
L 43.21875 27.484375 
z
M 52.203125 31.203125 
L 52.203125 0 
L 43.21875 0 
L 43.21875 8.296875 
Q 40.140625 3.328125 35.546875 0.953125 
Q 30.953125 -1.421875 24.3125 -1.421875 
Q 15.921875 -1.421875 10.953125 3.296875 
Q 6 8.015625 6 15.921875 
Q 6 25.140625 12.171875 29.828125 
Q 18.359375 34.515625 30.609375 34.515625 
L 43.21875 34.515625 
L 43.21875 35.40625 
Q 43.21875 41.609375 39.140625 45 
Q 35.0625 48.390625 27.6875 48.390625 
Q 23 48.390625 18.546875 47.265625 
Q 14.109375 46.140625 10.015625 43.890625 
L 10.015625 52.203125 
Q 14.9375 54.109375 19.578125 55.046875 
Q 24.21875 56 28.609375 56 
Q 40.484375 56 46.34375 49.84375 
Q 52.203125 43.703125 52.203125 31.203125 
z
" id="DejaVuSans-97"/>
       <path d="M 41.109375 46.296875 
Q 39.59375 47.171875 37.8125 47.578125 
Q 36.03125 48 33.890625 48 
Q 26.265625 48 22.1875 43.046875 
Q 18.109375 38.09375 18.109375 28.8125 
L 18.109375 0 
L 9.078125 0 
L 9.078125 54.6875 
L 18.109375 54.6875 
L 18.109375 46.1875 
Q 20.953125 51.171875 25.484375 53.578125 
Q 30.03125 56 36.53125 56 
Q 37.453125 56 38.578125 55.875 
Q 39.703125 55.765625 41.0625 55.515625 
z
" id="DejaVuSans-114"/>
      </defs>
      <g transform="translate(91.039824 263.132431)rotate(-35)scale(0.18 -0.18)">
       <use xlink:href="#DejaVuSans-77"/>
       <use x="86.279297" xlink:href="#DejaVuSans-97"/>
       <use x="147.558594" xlink:href="#DejaVuSans-114"/>
      </g>
     </g>
    </g>
    <g id="xtick_2">
     <g id="line2d_2">
      <g>
       <use style="stroke:#000000;stroke-width:0.8;" x="134.938366" xlink:href="#m4551b138f2" y="225.449541"/>
      </g>
     </g>
     <g id="text_2">
      <!-- Apr -->
      <defs>
       <path d="M 34.1875 63.1875 
L 20.796875 26.90625 
L 47.609375 26.90625 
z
M 28.609375 72.90625 
L 39.796875 72.90625 
L 67.578125 0 
L 57.328125 0 
L 50.6875 18.703125 
L 17.828125 18.703125 
L 11.1875 0 
L 0.78125 0 
z
" id="DejaVuSans-65"/>
       <path d="M 18.109375 8.203125 
L 18.109375 -20.796875 
L 9.078125 -20.796875 
L 9.078125 54.6875 
L 18.109375 54.6875 
L 18.109375 46.390625 
Q 20.953125 51.265625 25.265625 53.625 
Q 29.59375 56 35.59375 56 
Q 45.5625 56 51.78125 48.09375 
Q 58.015625 40.1875 58.015625 27.296875 
Q 58.015625 14.40625 51.78125 6.484375 
Q 45.5625 -1.421875 35.59375 -1.421875 
Q 29.59375 -1.421875 25.265625 0.953125 
Q 20.953125 3.328125 18.109375 8.203125 
z
M 48.6875 27.296875 
Q 48.6875 37.203125 44.609375 42.84375 
Q 40.53125 48.484375 33.40625 48.484375 
Q 26.265625 48.484375 22.1875 42.84375 
Q 18.109375 37.203125 18.109375 27.296875 
Q 18.109375 17.390625 22.1875 11.75 
Q 26.265625 6.109375 33.40625 6.109375 
Q 40.53125 6.109375 44.609375 11.75 
Q 48.6875 17.390625 48.6875 27.296875 
z
" id="DejaVuSans-112"/>
      </defs>
      <g transform="translate(125.033051 261.514407)rotate(-35)scale(0.18 -0.18)">
       <use xlink:href="#DejaVuSans-65"/>
       <use x="68.408203" xlink:href="#DejaVuSans-112"/>
       <use x="131.884766" xlink:href="#DejaVuSans-114"/>
      </g>
     </g>
    </g>
    <g id="xtick_3">
     <g id="line2d_3">
      <g>
       <use style="stroke:#000000;stroke-width:0.8;" x="166.716919" xlink:href="#m4551b138f2" y="225.449541"/>
      </g>
     </g>
     <g id="text_3">
      <!-- May -->
      <defs>
       <path d="M 32.171875 -5.078125 
Q 28.375 -14.84375 24.75 -17.8125 
Q 21.140625 -20.796875 15.09375 -20.796875 
L 7.90625 -20.796875 
L 7.90625 -13.28125 
L 13.1875 -13.28125 
Q 16.890625 -13.28125 18.9375 -11.515625 
Q 21 -9.765625 23.484375 -3.21875 
L 25.09375 0.875 
L 2.984375 54.6875 
L 12.5 54.6875 
L 29.59375 11.921875 
L 46.6875 54.6875 
L 56.203125 54.6875 
z
" id="DejaVuSans-121"/>
      </defs>
      <g transform="translate(154.32343 264.998884)rotate(-35)scale(0.18 -0.18)">
       <use xlink:href="#DejaVuSans-77"/>
       <use x="86.279297" xlink:href="#DejaVuSans-97"/>
       <use x="147.558594" xlink:href="#DejaVuSans-121"/>
      </g>
     </g>
    </g>
    <g id="xtick_4">
     <g id="line2d_4">
      <g>
       <use style="stroke:#000000;stroke-width:0.8;" x="199.554758" xlink:href="#m4551b138f2" y="225.449541"/>
      </g>
     </g>
     <g id="text_4">
      <!-- Jun -->
      <defs>
       <path d="M 9.8125 72.90625 
L 19.671875 72.90625 
L 19.671875 5.078125 
Q 19.671875 -8.109375 14.671875 -14.0625 
Q 9.671875 -20.015625 -1.421875 -20.015625 
L -5.171875 -20.015625 
L -5.171875 -11.71875 
L -2.09375 -11.71875 
Q 4.4375 -11.71875 7.125 -8.046875 
Q 9.8125 -4.390625 9.8125 5.078125 
z
" id="DejaVuSans-74"/>
       <path d="M 8.5 21.578125 
L 8.5 54.6875 
L 17.484375 54.6875 
L 17.484375 21.921875 
Q 17.484375 14.15625 20.5 10.265625 
Q 23.53125 6.390625 29.59375 6.390625 
Q 36.859375 6.390625 41.078125 11.03125 
Q 45.3125 15.671875 45.3125 23.6875 
L 45.3125 54.6875 
L 54.296875 54.6875 
L 54.296875 0 
L 45.3125 0 
L 45.3125 8.40625 
Q 42.046875 3.421875 37.71875 1 
Q 33.40625 -1.421875 27.6875 -1.421875 
Q 18.265625 -1.421875 13.375 4.4375 
Q 8.5 10.296875 8.5 21.578125 
z
M 31.109375 56 
z
" id="DejaVuSans-117"/>
       <path d="M 54.890625 33.015625 
L 54.890625 0 
L 45.90625 0 
L 45.90625 32.71875 
Q 45.90625 40.484375 42.875 44.328125 
Q 39.84375 48.1875 33.796875 48.1875 
Q 26.515625 48.1875 22.3125 43.546875 
Q 18.109375 38.921875 18.109375 30.90625 
L 18.109375 0 
L 9.078125 0 
L 9.078125 54.6875 
L 18.109375 54.6875 
L 18.109375 46.1875 
Q 21.34375 51.125 25.703125 53.5625 
Q 30.078125 56 35.796875 56 
Q 45.21875 56 50.046875 50.171875 
Q 54.890625 44.34375 54.890625 33.015625 
z
" id="DejaVuSans-110"/>
      </defs>
      <g transform="translate(190.884315 259.785074)rotate(-35)scale(0.18 -0.18)">
       <use xlink:href="#DejaVuSans-74"/>
       <use x="29.492188" xlink:href="#DejaVuSans-117"/>
       <use x="92.871094" xlink:href="#DejaVuSans-110"/>
      </g>
     </g>
    </g>
    <g id="xtick_5">
     <g id="line2d_5">
      <g>
       <use style="stroke:#000000;stroke-width:0.8;" x="231.333311" xlink:href="#m4551b138f2" y="225.449541"/>
      </g>
     </g>
     <g id="text_5">
      <!-- Jul -->
      <defs>
       <path d="M 9.421875 75.984375 
L 18.40625 75.984375 
L 18.40625 0 
L 9.421875 0 
z
" id="DejaVuSans-108"/>
      </defs>
      <g transform="translate(225.28697 256.110242)rotate(-35)scale(0.18 -0.18)">
       <use xlink:href="#DejaVuSans-74"/>
       <use x="29.492188" xlink:href="#DejaVuSans-117"/>
       <use x="92.871094" xlink:href="#DejaVuSans-108"/>
      </g>
     </g>
    </g>
    <g id="xtick_6">
     <g id="line2d_6">
      <g>
       <use style="stroke:#000000;stroke-width:0.8;" x="264.17115" xlink:href="#m4551b138f2" y="225.449541"/>
      </g>
     </g>
     <g id="text_6">
      <!-- Aug -->
      <defs>
       <path d="M 45.40625 27.984375 
Q 45.40625 37.75 41.375 43.109375 
Q 37.359375 48.484375 30.078125 48.484375 
Q 22.859375 48.484375 18.828125 43.109375 
Q 14.796875 37.75 14.796875 27.984375 
Q 14.796875 18.265625 18.828125 12.890625 
Q 22.859375 7.515625 30.078125 7.515625 
Q 37.359375 7.515625 41.375 12.890625 
Q 45.40625 18.265625 45.40625 27.984375 
z
M 54.390625 6.78125 
Q 54.390625 -7.171875 48.1875 -13.984375 
Q 42 -20.796875 29.203125 -20.796875 
Q 24.46875 -20.796875 20.265625 -20.09375 
Q 16.0625 -19.390625 12.109375 -17.921875 
L 12.109375 -9.1875 
Q 16.0625 -11.328125 19.921875 -12.34375 
Q 23.78125 -13.375 27.78125 -13.375 
Q 36.625 -13.375 41.015625 -8.765625 
Q 45.40625 -4.15625 45.40625 5.171875 
L 45.40625 9.625 
Q 42.625 4.78125 38.28125 2.390625 
Q 33.9375 0 27.875 0 
Q 17.828125 0 11.671875 7.65625 
Q 5.515625 15.328125 5.515625 27.984375 
Q 5.515625 40.671875 11.671875 48.328125 
Q 17.828125 56 27.875 56 
Q 33.9375 56 38.28125 53.609375 
Q 42.625 51.21875 45.40625 46.390625 
L 45.40625 54.6875 
L 54.390625 54.6875 
z
" id="DejaVuSans-103"/>
      </defs>
      <g transform="translate(252.624331 263.813194)rotate(-35)scale(0.18 -0.18)">
       <use xlink:href="#DejaVuSans-65"/>
       <use x="68.408203" xlink:href="#DejaVuSans-117"/>
       <use x="131.787109" xlink:href="#DejaVuSans-103"/>
      </g>
     </g>
    </g>
    <g id="xtick_7">
     <g id="line2d_7">
      <g>
       <use style="stroke:#000000;stroke-width:0.8;" x="297.008988" xlink:href="#m4551b138f2" y="225.449541"/>
      </g>
     </g>
     <g id="text_7">
      <!-- Sep -->
      <defs>
       <path d="M 53.515625 70.515625 
L 53.515625 60.890625 
Q 47.90625 63.578125 42.921875 64.890625 
Q 37.9375 66.21875 33.296875 66.21875 
Q 25.25 66.21875 20.875 63.09375 
Q 16.5 59.96875 16.5 54.203125 
Q 16.5 49.359375 19.40625 46.890625 
Q 22.3125 44.4375 30.421875 42.921875 
L 36.375 41.703125 
Q 47.40625 39.59375 52.65625 34.296875 
Q 57.90625 29 57.90625 20.125 
Q 57.90625 9.515625 50.796875 4.046875 
Q 43.703125 -1.421875 29.984375 -1.421875 
Q 24.8125 -1.421875 18.96875 -0.25 
Q 13.140625 0.921875 6.890625 3.21875 
L 6.890625 13.375 
Q 12.890625 10.015625 18.65625 8.296875 
Q 24.421875 6.59375 29.984375 6.59375 
Q 38.421875 6.59375 43.015625 9.90625 
Q 47.609375 13.234375 47.609375 19.390625 
Q 47.609375 24.75 44.3125 27.78125 
Q 41.015625 30.8125 33.5 32.328125 
L 27.484375 33.5 
Q 16.453125 35.6875 11.515625 40.375 
Q 6.59375 45.0625 6.59375 53.421875 
Q 6.59375 63.09375 13.40625 68.65625 
Q 20.21875 74.21875 32.171875 74.21875 
Q 37.3125 74.21875 42.625 73.28125 
Q 47.953125 72.359375 53.515625 70.515625 
z
" id="DejaVuSans-83"/>
       <path d="M 56.203125 29.59375 
L 56.203125 25.203125 
L 14.890625 25.203125 
Q 15.484375 15.921875 20.484375 11.0625 
Q 25.484375 6.203125 34.421875 6.203125 
Q 39.59375 6.203125 44.453125 7.46875 
Q 49.3125 8.734375 54.109375 11.28125 
L 54.109375 2.78125 
Q 49.265625 0.734375 44.1875 -0.34375 
Q 39.109375 -1.421875 33.890625 -1.421875 
Q 20.796875 -1.421875 13.15625 6.1875 
Q 5.515625 13.8125 5.515625 26.8125 
Q 5.515625 40.234375 12.765625 48.109375 
Q 20.015625 56 32.328125 56 
Q 43.359375 56 49.78125 48.890625 
Q 56.203125 41.796875 56.203125 29.59375 
z
M 47.21875 32.234375 
Q 47.125 39.59375 43.09375 43.984375 
Q 39.0625 48.390625 32.421875 48.390625 
Q 24.90625 48.390625 20.390625 44.140625 
Q 15.875 39.890625 15.1875 32.171875 
z
" id="DejaVuSans-101"/>
      </defs>
      <g transform="translate(285.960956 263.114686)rotate(-35)scale(0.18 -0.18)">
       <use xlink:href="#DejaVuSans-83"/>
       <use x="63.476562" xlink:href="#DejaVuSans-101"/>
       <use x="125" xlink:href="#DejaVuSans-112"/>
      </g>
     </g>
    </g>
    <g id="xtick_8">
     <g id="line2d_8">
      <g>
       <use style="stroke:#000000;stroke-width:0.8;" x="328.787541" xlink:href="#m4551b138f2" y="225.449541"/>
      </g>
     </g>
     <g id="text_8">
      <!-- Oct -->
      <defs>
       <path d="M 39.40625 66.21875 
Q 28.65625 66.21875 22.328125 58.203125 
Q 16.015625 50.203125 16.015625 36.375 
Q 16.015625 22.609375 22.328125 14.59375 
Q 28.65625 6.59375 39.40625 6.59375 
Q 50.140625 6.59375 56.421875 14.59375 
Q 62.703125 22.609375 62.703125 36.375 
Q 62.703125 50.203125 56.421875 58.203125 
Q 50.140625 66.21875 39.40625 66.21875 
z
M 39.40625 74.21875 
Q 54.734375 74.21875 63.90625 63.9375 
Q 73.09375 53.65625 73.09375 36.375 
Q 73.09375 19.140625 63.90625 8.859375 
Q 54.734375 -1.421875 39.40625 -1.421875 
Q 24.03125 -1.421875 14.8125 8.828125 
Q 5.609375 19.09375 5.609375 36.375 
Q 5.609375 53.65625 14.8125 63.9375 
Q 24.03125 74.21875 39.40625 74.21875 
z
" id="DejaVuSans-79"/>
       <path d="M 48.78125 52.59375 
L 48.78125 44.1875 
Q 44.96875 46.296875 41.140625 47.34375 
Q 37.3125 48.390625 33.40625 48.390625 
Q 24.65625 48.390625 19.8125 42.84375 
Q 14.984375 37.3125 14.984375 27.296875 
Q 14.984375 17.28125 19.8125 11.734375 
Q 24.65625 6.203125 33.40625 6.203125 
Q 37.3125 6.203125 41.140625 7.25 
Q 44.96875 8.296875 48.78125 10.40625 
L 48.78125 2.09375 
Q 45.015625 0.34375 40.984375 -0.53125 
Q 36.96875 -1.421875 32.421875 -1.421875 
Q 20.0625 -1.421875 12.78125 6.34375 
Q 5.515625 14.109375 5.515625 27.296875 
Q 5.515625 40.671875 12.859375 48.328125 
Q 20.21875 56 33.015625 56 
Q 37.15625 56 41.109375 55.140625 
Q 45.0625 54.296875 48.78125 52.59375 
z
" id="DejaVuSans-99"/>
       <path d="M 18.3125 70.21875 
L 18.3125 54.6875 
L 36.8125 54.6875 
L 36.8125 47.703125 
L 18.3125 47.703125 
L 18.3125 18.015625 
Q 18.3125 11.328125 20.140625 9.421875 
Q 21.96875 7.515625 27.59375 7.515625 
L 36.8125 7.515625 
L 36.8125 0 
L 27.59375 0 
Q 17.1875 0 13.234375 3.875 
Q 9.28125 7.765625 9.28125 18.015625 
L 9.28125 47.703125 
L 2.6875 47.703125 
L 2.6875 54.6875 
L 9.28125 54.6875 
L 9.28125 70.21875 
z
" id="DejaVuSans-116"/>
      </defs>
      <g transform="translate(318.889138 261.504728)rotate(-35)scale(0.18 -0.18)">
       <use xlink:href="#DejaVuSans-79"/>
       <use x="78.710938" xlink:href="#DejaVuSans-99"/>
       <use x="133.691406" xlink:href="#DejaVuSans-116"/>
      </g>
     </g>
    </g>
    <g id="xtick_9">
     <g id="line2d_9">
      <g>
       <use style="stroke:#000000;stroke-width:0.8;" x="361.62538" xlink:href="#m4551b138f2" y="225.449541"/>
      </g>
     </g>
     <g id="text_9">
      <!-- Nov -->
      <defs>
       <path d="M 9.8125 72.90625 
L 23.09375 72.90625 
L 55.421875 11.921875 
L 55.421875 72.90625 
L 64.984375 72.90625 
L 64.984375 0 
L 51.703125 0 
L 19.390625 60.984375 
L 19.390625 0 
L 9.8125 0 
z
" id="DejaVuSans-78"/>
       <path d="M 30.609375 48.390625 
Q 23.390625 48.390625 19.1875 42.75 
Q 14.984375 37.109375 14.984375 27.296875 
Q 14.984375 17.484375 19.15625 11.84375 
Q 23.34375 6.203125 30.609375 6.203125 
Q 37.796875 6.203125 41.984375 11.859375 
Q 46.1875 17.53125 46.1875 27.296875 
Q 46.1875 37.015625 41.984375 42.703125 
Q 37.796875 48.390625 30.609375 48.390625 
z
M 30.609375 56 
Q 42.328125 56 49.015625 48.375 
Q 55.71875 40.765625 55.71875 27.296875 
Q 55.71875 13.875 49.015625 6.21875 
Q 42.328125 -1.421875 30.609375 -1.421875 
Q 18.84375 -1.421875 12.171875 6.21875 
Q 5.515625 13.875 5.515625 27.296875 
Q 5.515625 40.765625 12.171875 48.375 
Q 18.84375 56 30.609375 56 
z
" id="DejaVuSans-111"/>
       <path d="M 2.984375 54.6875 
L 12.5 54.6875 
L 29.59375 8.796875 
L 46.6875 54.6875 
L 56.203125 54.6875 
L 35.6875 0 
L 23.484375 0 
z
" id="DejaVuSans-118"/>
      </defs>
      <g transform="translate(350.084321 263.805128)rotate(-35)scale(0.18 -0.18)">
       <use xlink:href="#DejaVuSans-78"/>
       <use x="74.804688" xlink:href="#DejaVuSans-111"/>
       <use x="135.986328" xlink:href="#DejaVuSans-118"/>
      </g>
     </g>
    </g>
    <g id="xtick_10">
     <g id="line2d_10">
      <g>
       <use style="stroke:#000000;stroke-width:0.8;" x="393.403933" xlink:href="#m4551b138f2" y="225.449541"/>
      </g>
     </g>
     <g id="text_10">
      <!-- Dec -->
      <defs>
       <path d="M 19.671875 64.796875 
L 19.671875 8.109375 
L 31.59375 8.109375 
Q 46.6875 8.109375 53.6875 14.9375 
Q 60.6875 21.78125 60.6875 36.53125 
Q 60.6875 51.171875 53.6875 57.984375 
Q 46.6875 64.796875 31.59375 64.796875 
z
M 9.8125 72.90625 
L 30.078125 72.90625 
Q 51.265625 72.90625 61.171875 64.09375 
Q 71.09375 55.28125 71.09375 36.53125 
Q 71.09375 17.671875 61.125 8.828125 
Q 51.171875 0 30.078125 0 
L 9.8125 0 
z
" id="DejaVuSans-68"/>
      </defs>
      <g transform="translate(381.986131 263.632518)rotate(-35)scale(0.18 -0.18)">
       <use xlink:href="#DejaVuSans-68"/>
       <use x="77.001953" xlink:href="#DejaVuSans-101"/>
       <use x="138.525391" xlink:href="#DejaVuSans-99"/>
      </g>
     </g>
    </g>
   </g>
   <g id="matplotlib.axis_2">
    <g id="ytick_1">
     <g id="line2d_11">
      <defs>
       <path d="M 0 0 
L -3.5 0 
" id="m442c6f1bb5" style="stroke:#000000;stroke-width:0.8;"/>
      </defs>
      <g>
       <use style="stroke:#000000;stroke-width:0.8;" x="88.065" xlink:href="#m442c6f1bb5" y="216.085471"/>
      </g>
     </g>
     <g id="text_11">
      <!-- 0.0 -->
      <defs>
       <path d="M 31.78125 66.40625 
Q 24.171875 66.40625 20.328125 58.90625 
Q 16.5 51.421875 16.5 36.375 
Q 16.5 21.390625 20.328125 13.890625 
Q 24.171875 6.390625 31.78125 6.390625 
Q 39.453125 6.390625 43.28125 13.890625 
Q 47.125 21.390625 47.125 36.375 
Q 47.125 51.421875 43.28125 58.90625 
Q 39.453125 66.40625 31.78125 66.40625 
z
M 31.78125 74.21875 
Q 44.046875 74.21875 50.515625 64.515625 
Q 56.984375 54.828125 56.984375 36.375 
Q 56.984375 17.96875 50.515625 8.265625 
Q 44.046875 -1.421875 31.78125 -1.421875 
Q 19.53125 -1.421875 13.0625 8.265625 
Q 6.59375 17.96875 6.59375 36.375 
Q 6.59375 54.828125 13.0625 64.515625 
Q 19.53125 74.21875 31.78125 74.21875 
z
" id="DejaVuSans-48"/>
       <path d="M 10.6875 12.40625 
L 21 12.40625 
L 21 0 
L 10.6875 0 
z
" id="DejaVuSans-46"/>
      </defs>
      <g transform="translate(52.439375 222.924065)scale(0.18 -0.18)">
       <use xlink:href="#DejaVuSans-48"/>
       <use x="63.623047" xlink:href="#DejaVuSans-46"/>
       <use x="95.410156" xlink:href="#DejaVuSans-48"/>
      </g>
     </g>
    </g>
    <g id="ytick_2">
     <g id="line2d_12">
      <g>
       <use style="stroke:#000000;stroke-width:0.8;" x="88.065" xlink:href="#m442c6f1bb5" y="173.521516"/>
      </g>
     </g>
     <g id="text_12">
      <!-- 2.5 -->
      <defs>
       <path d="M 19.1875 8.296875 
L 53.609375 8.296875 
L 53.609375 0 
L 7.328125 0 
L 7.328125 8.296875 
Q 12.9375 14.109375 22.625 23.890625 
Q 32.328125 33.6875 34.8125 36.53125 
Q 39.546875 41.84375 41.421875 45.53125 
Q 43.3125 49.21875 43.3125 52.78125 
Q 43.3125 58.59375 39.234375 62.25 
Q 35.15625 65.921875 28.609375 65.921875 
Q 23.96875 65.921875 18.8125 64.3125 
Q 13.671875 62.703125 7.8125 59.421875 
L 7.8125 69.390625 
Q 13.765625 71.78125 18.9375 73 
Q 24.125 74.21875 28.421875 74.21875 
Q 39.75 74.21875 46.484375 68.546875 
Q 53.21875 62.890625 53.21875 53.421875 
Q 53.21875 48.921875 51.53125 44.890625 
Q 49.859375 40.875 45.40625 35.40625 
Q 44.1875 33.984375 37.640625 27.21875 
Q 31.109375 20.453125 19.1875 8.296875 
z
" id="DejaVuSans-50"/>
       <path d="M 10.796875 72.90625 
L 49.515625 72.90625 
L 49.515625 64.59375 
L 19.828125 64.59375 
L 19.828125 46.734375 
Q 21.96875 47.46875 24.109375 47.828125 
Q 26.265625 48.1875 28.421875 48.1875 
Q 40.625 48.1875 47.75 41.5 
Q 54.890625 34.8125 54.890625 23.390625 
Q 54.890625 11.625 47.5625 5.09375 
Q 40.234375 -1.421875 26.90625 -1.421875 
Q 22.3125 -1.421875 17.546875 -0.640625 
Q 12.796875 0.140625 7.71875 1.703125 
L 7.71875 11.625 
Q 12.109375 9.234375 16.796875 8.0625 
Q 21.484375 6.890625 26.703125 6.890625 
Q 35.15625 6.890625 40.078125 11.328125 
Q 45.015625 15.765625 45.015625 23.390625 
Q 45.015625 31 40.078125 35.4375 
Q 35.15625 39.890625 26.703125 39.890625 
Q 22.75 39.890625 18.8125 39.015625 
Q 14.890625 38.140625 10.796875 36.28125 
z
" id="DejaVuSans-53"/>
      </defs>
      <g transform="translate(52.439375 180.36011)scale(0.18 -0.18)">
       <use xlink:href="#DejaVuSans-50"/>
       <use x="63.623047" xlink:href="#DejaVuSans-46"/>
       <use x="95.410156" xlink:href="#DejaVuSans-53"/>
      </g>
     </g>
    </g>
    <g id="ytick_3">
     <g id="line2d_13">
      <g>
       <use style="stroke:#000000;stroke-width:0.8;" x="88.065" xlink:href="#m442c6f1bb5" y="130.957561"/>
      </g>
     </g>
     <g id="text_13">
      <!-- 5.0 -->
      <g transform="translate(52.439375 137.796155)scale(0.18 -0.18)">
       <use xlink:href="#DejaVuSans-53"/>
       <use x="63.623047" xlink:href="#DejaVuSans-46"/>
       <use x="95.410156" xlink:href="#DejaVuSans-48"/>
      </g>
     </g>
    </g>
    <g id="ytick_4">
     <g id="line2d_14">
      <g>
       <use style="stroke:#000000;stroke-width:0.8;" x="88.065" xlink:href="#m442c6f1bb5" y="88.393607"/>
      </g>
     </g>
     <g id="text_14">
      <!-- 7.5 -->
      <defs>
       <path d="M 8.203125 72.90625 
L 55.078125 72.90625 
L 55.078125 68.703125 
L 28.609375 0 
L 18.3125 0 
L 43.21875 64.59375 
L 8.203125 64.59375 
z
" id="DejaVuSans-55"/>
      </defs>
      <g transform="translate(52.439375 95.2322)scale(0.18 -0.18)">
       <use xlink:href="#DejaVuSans-55"/>
       <use x="63.623047" xlink:href="#DejaVuSans-46"/>
       <use x="95.410156" xlink:href="#DejaVuSans-53"/>
      </g>
     </g>
    </g>
    <g id="ytick_5">
     <g id="line2d_15">
      <g>
       <use style="stroke:#000000;stroke-width:0.8;" x="88.065" xlink:href="#m442c6f1bb5" y="45.829652"/>
      </g>
     </g>
     <g id="text_15">
      <!-- 10.0 -->
      <defs>
       <path d="M 12.40625 8.296875 
L 28.515625 8.296875 
L 28.515625 63.921875 
L 10.984375 60.40625 
L 10.984375 69.390625 
L 28.421875 72.90625 
L 38.28125 72.90625 
L 38.28125 8.296875 
L 54.390625 8.296875 
L 54.390625 0 
L 12.40625 0 
z
" id="DejaVuSans-49"/>
      </defs>
      <g transform="translate(40.986875 52.668246)scale(0.18 -0.18)">
       <use xlink:href="#DejaVuSans-49"/>
       <use x="63.623047" xlink:href="#DejaVuSans-48"/>
       <use x="127.246094" xlink:href="#DejaVuSans-46"/>
       <use x="159.033203" xlink:href="#DejaVuSans-48"/>
      </g>
     </g>
    </g>
    <g id="text_16">
     <!-- Daily Covid-19 Deaths -->
     <defs>
      <path d="M 9.421875 54.6875 
L 18.40625 54.6875 
L 18.40625 0 
L 9.421875 0 
z
M 9.421875 75.984375 
L 18.40625 75.984375 
L 18.40625 64.59375 
L 9.421875 64.59375 
z
" id="DejaVuSans-105"/>
      <path id="DejaVuSans-32"/>
      <path d="M 64.40625 67.28125 
L 64.40625 56.890625 
Q 59.421875 61.53125 53.78125 63.8125 
Q 48.140625 66.109375 41.796875 66.109375 
Q 29.296875 66.109375 22.65625 58.46875 
Q 16.015625 50.828125 16.015625 36.375 
Q 16.015625 21.96875 22.65625 14.328125 
Q 29.296875 6.6875 41.796875 6.6875 
Q 48.140625 6.6875 53.78125 8.984375 
Q 59.421875 11.28125 64.40625 15.921875 
L 64.40625 5.609375 
Q 59.234375 2.09375 53.4375 0.328125 
Q 47.65625 -1.421875 41.21875 -1.421875 
Q 24.65625 -1.421875 15.125 8.703125 
Q 5.609375 18.84375 5.609375 36.375 
Q 5.609375 53.953125 15.125 64.078125 
Q 24.65625 74.21875 41.21875 74.21875 
Q 47.75 74.21875 53.53125 72.484375 
Q 59.328125 70.75 64.40625 67.28125 
z
" id="DejaVuSans-67"/>
      <path d="M 45.40625 46.390625 
L 45.40625 75.984375 
L 54.390625 75.984375 
L 54.390625 0 
L 45.40625 0 
L 45.40625 8.203125 
Q 42.578125 3.328125 38.25 0.953125 
Q 33.9375 -1.421875 27.875 -1.421875 
Q 17.96875 -1.421875 11.734375 6.484375 
Q 5.515625 14.40625 5.515625 27.296875 
Q 5.515625 40.1875 11.734375 48.09375 
Q 17.96875 56 27.875 56 
Q 33.9375 56 38.25 53.625 
Q 42.578125 51.265625 45.40625 46.390625 
z
M 14.796875 27.296875 
Q 14.796875 17.390625 18.875 11.75 
Q 22.953125 6.109375 30.078125 6.109375 
Q 37.203125 6.109375 41.296875 11.75 
Q 45.40625 17.390625 45.40625 27.296875 
Q 45.40625 37.203125 41.296875 42.84375 
Q 37.203125 48.484375 30.078125 48.484375 
Q 22.953125 48.484375 18.875 42.84375 
Q 14.796875 37.203125 14.796875 27.296875 
z
" id="DejaVuSans-100"/>
      <path d="M 4.890625 31.390625 
L 31.203125 31.390625 
L 31.203125 23.390625 
L 4.890625 23.390625 
z
" id="DejaVuSans-45"/>
      <path d="M 10.984375 1.515625 
L 10.984375 10.5 
Q 14.703125 8.734375 18.5 7.8125 
Q 22.3125 6.890625 25.984375 6.890625 
Q 35.75 6.890625 40.890625 13.453125 
Q 46.046875 20.015625 46.78125 33.40625 
Q 43.953125 29.203125 39.59375 26.953125 
Q 35.25 24.703125 29.984375 24.703125 
Q 19.046875 24.703125 12.671875 31.3125 
Q 6.296875 37.9375 6.296875 49.421875 
Q 6.296875 60.640625 12.9375 67.421875 
Q 19.578125 74.21875 30.609375 74.21875 
Q 43.265625 74.21875 49.921875 64.515625 
Q 56.59375 54.828125 56.59375 36.375 
Q 56.59375 19.140625 48.40625 8.859375 
Q 40.234375 -1.421875 26.421875 -1.421875 
Q 22.703125 -1.421875 18.890625 -0.6875 
Q 15.09375 0.046875 10.984375 1.515625 
z
M 30.609375 32.421875 
Q 37.25 32.421875 41.125 36.953125 
Q 45.015625 41.5 45.015625 49.421875 
Q 45.015625 57.28125 41.125 61.84375 
Q 37.25 66.40625 30.609375 66.40625 
Q 23.96875 66.40625 20.09375 61.84375 
Q 16.21875 57.28125 16.21875 49.421875 
Q 16.21875 41.5 20.09375 36.953125 
Q 23.96875 32.421875 30.609375 32.421875 
z
" id="DejaVuSans-57"/>
      <path d="M 54.890625 33.015625 
L 54.890625 0 
L 45.90625 0 
L 45.90625 32.71875 
Q 45.90625 40.484375 42.875 44.328125 
Q 39.84375 48.1875 33.796875 48.1875 
Q 26.515625 48.1875 22.3125 43.546875 
Q 18.109375 38.921875 18.109375 30.90625 
L 18.109375 0 
L 9.078125 0 
L 9.078125 75.984375 
L 18.109375 75.984375 
L 18.109375 46.1875 
Q 21.34375 51.125 25.703125 53.5625 
Q 30.078125 56 35.796875 56 
Q 45.21875 56 50.046875 50.171875 
Q 54.890625 44.34375 54.890625 33.015625 
z
" id="DejaVuSans-104"/>
      <path d="M 44.28125 53.078125 
L 44.28125 44.578125 
Q 40.484375 46.53125 36.375 47.5 
Q 32.28125 48.484375 27.875 48.484375 
Q 21.1875 48.484375 17.84375 46.4375 
Q 14.5 44.390625 14.5 40.28125 
Q 14.5 37.15625 16.890625 35.375 
Q 19.28125 33.59375 26.515625 31.984375 
L 29.59375 31.296875 
Q 39.15625 29.25 43.1875 25.515625 
Q 47.21875 21.78125 47.21875 15.09375 
Q 47.21875 7.46875 41.1875 3.015625 
Q 35.15625 -1.421875 24.609375 -1.421875 
Q 20.21875 -1.421875 15.453125 -0.5625 
Q 10.6875 0.296875 5.421875 2 
L 5.421875 11.28125 
Q 10.40625 8.6875 15.234375 7.390625 
Q 20.0625 6.109375 24.8125 6.109375 
Q 31.15625 6.109375 34.5625 8.28125 
Q 37.984375 10.453125 37.984375 14.40625 
Q 37.984375 18.0625 35.515625 20.015625 
Q 33.0625 21.96875 24.703125 23.78125 
L 21.578125 24.515625 
Q 13.234375 26.265625 9.515625 29.90625 
Q 5.8125 33.546875 5.8125 39.890625 
Q 5.8125 47.609375 11.28125 51.796875 
Q 16.75 56 26.8125 56 
Q 31.78125 56 36.171875 55.265625 
Q 40.578125 54.546875 44.28125 53.078125 
z
" id="DejaVuSans-115"/>
     </defs>
     <g transform="translate(33.243438 222.87352)rotate(-90)scale(0.18 -0.18)">
      <use xlink:href="#DejaVuSans-68"/>
      <use x="77.001953" xlink:href="#DejaVuSans-97"/>
      <use x="138.28125" xlink:href="#DejaVuSans-105"/>
      <use x="166.064453" xlink:href="#DejaVuSans-108"/>
      <use x="193.847656" xlink:href="#DejaVuSans-121"/>
      <use x="253.027344" xlink:href="#DejaVuSans-32"/>
      <use x="284.814453" xlink:href="#DejaVuSans-67"/>
      <use x="354.638672" xlink:href="#DejaVuSans-111"/>
      <use x="415.820312" xlink:href="#DejaVuSans-118"/>
      <use x="475" xlink:href="#DejaVuSans-105"/>
      <use x="502.783203" xlink:href="#DejaVuSans-100"/>
      <use x="566.259766" xlink:href="#DejaVuSans-45"/>
      <use x="602.34375" xlink:href="#DejaVuSans-49"/>
      <use x="665.966797" xlink:href="#DejaVuSans-57"/>
      <use x="729.589844" xlink:href="#DejaVuSans-32"/>
      <use x="761.376953" xlink:href="#DejaVuSans-68"/>
      <use x="838.378906" xlink:href="#DejaVuSans-101"/>
      <use x="899.902344" xlink:href="#DejaVuSans-97"/>
      <use x="961.181641" xlink:href="#DejaVuSans-116"/>
      <use x="1000.390625" xlink:href="#DejaVuSans-104"/>
      <use x="1063.769531" xlink:href="#DejaVuSans-115"/>
     </g>
    </g>
   </g>
   <g id="line2d_16">
    <defs>
     <path d="M 0 2.5 
C 0.663008 2.5 1.29895 2.236584 1.767767 1.767767 
C 2.236584 1.29895 2.5 0.663008 2.5 0 
C 2.5 -0.663008 2.236584 -1.29895 1.767767 -1.767767 
C 1.29895 -2.236584 0.663008 -2.5 0 -2.5 
C -0.663008 -2.5 -1.29895 -2.236584 -1.767767 -1.767767 
C -2.236584 -1.29895 -2.5 -0.663008 -2.5 0 
C -2.5 0.663008 -2.236584 1.29895 -1.767767 1.767767 
C -1.29895 2.236584 -0.663008 2.5 0 2.5 
z
" id="mb46e1ccdb9" style="stroke:#0000ff;stroke-opacity:0.2;"/>
    </defs>
    <g clip-path="url(#p919f1339d3)">
     <use style="fill:#0000ff;fill-opacity:0.2;stroke:#0000ff;stroke-opacity:0.2;" x="102.100528" xlink:href="#mb46e1ccdb9" y="216.085471"/>
     <use style="fill:#0000ff;fill-opacity:0.2;stroke:#0000ff;stroke-opacity:0.2;" x="103.159813" xlink:href="#mb46e1ccdb9" y="216.085471"/>
     <use style="fill:#0000ff;fill-opacity:0.2;stroke:#0000ff;stroke-opacity:0.2;" x="104.219098" xlink:href="#mb46e1ccdb9" y="216.085471"/>
     <use style="fill:#0000ff;fill-opacity:0.2;stroke:#0000ff;stroke-opacity:0.2;" x="105.278383" xlink:href="#mb46e1ccdb9" y="216.085471"/>
     <use style="fill:#0000ff;fill-opacity:0.2;stroke:#0000ff;stroke-opacity:0.2;" x="106.337668" xlink:href="#mb46e1ccdb9" y="216.085471"/>
     <use style="fill:#0000ff;fill-opacity:0.2;stroke:#0000ff;stroke-opacity:0.2;" x="107.396953" xlink:href="#mb46e1ccdb9" y="216.085471"/>
     <use style="fill:#0000ff;fill-opacity:0.2;stroke:#0000ff;stroke-opacity:0.2;" x="108.456238" xlink:href="#mb46e1ccdb9" y="216.085471"/>
     <use style="fill:#0000ff;fill-opacity:0.2;stroke:#0000ff;stroke-opacity:0.2;" x="109.515523" xlink:href="#mb46e1ccdb9" y="216.085471"/>
     <use style="fill:#0000ff;fill-opacity:0.2;stroke:#0000ff;stroke-opacity:0.2;" x="110.574809" xlink:href="#mb46e1ccdb9" y="216.085471"/>
     <use style="fill:#0000ff;fill-opacity:0.2;stroke:#0000ff;stroke-opacity:0.2;" x="111.634094" xlink:href="#mb46e1ccdb9" y="216.085471"/>
     <use style="fill:#0000ff;fill-opacity:0.2;stroke:#0000ff;stroke-opacity:0.2;" x="112.693379" xlink:href="#mb46e1ccdb9" y="216.085471"/>
     <use style="fill:#0000ff;fill-opacity:0.2;stroke:#0000ff;stroke-opacity:0.2;" x="113.752664" xlink:href="#mb46e1ccdb9" y="216.085471"/>
     <use style="fill:#0000ff;fill-opacity:0.2;stroke:#0000ff;stroke-opacity:0.2;" x="114.811949" xlink:href="#mb46e1ccdb9" y="216.085471"/>
     <use style="fill:#0000ff;fill-opacity:0.2;stroke:#0000ff;stroke-opacity:0.2;" x="115.871234" xlink:href="#mb46e1ccdb9" y="216.085471"/>
     <use style="fill:#0000ff;fill-opacity:0.2;stroke:#0000ff;stroke-opacity:0.2;" x="116.930519" xlink:href="#mb46e1ccdb9" y="216.085471"/>
     <use style="fill:#0000ff;fill-opacity:0.2;stroke:#0000ff;stroke-opacity:0.2;" x="117.989804" xlink:href="#mb46e1ccdb9" y="216.085471"/>
     <use style="fill:#0000ff;fill-opacity:0.2;stroke:#0000ff;stroke-opacity:0.2;" x="119.049089" xlink:href="#mb46e1ccdb9" y="216.085471"/>
     <use style="fill:#0000ff;fill-opacity:0.2;stroke:#0000ff;stroke-opacity:0.2;" x="120.108375" xlink:href="#mb46e1ccdb9" y="216.085471"/>
     <use style="fill:#0000ff;fill-opacity:0.2;stroke:#0000ff;stroke-opacity:0.2;" x="121.16766" xlink:href="#mb46e1ccdb9" y="216.085471"/>
     <use style="fill:#0000ff;fill-opacity:0.2;stroke:#0000ff;stroke-opacity:0.2;" x="122.226945" xlink:href="#mb46e1ccdb9" y="199.059889"/>
     <use style="fill:#0000ff;fill-opacity:0.2;stroke:#0000ff;stroke-opacity:0.2;" x="123.28623" xlink:href="#mb46e1ccdb9" y="216.085471"/>
     <use style="fill:#0000ff;fill-opacity:0.2;stroke:#0000ff;stroke-opacity:0.2;" x="124.345515" xlink:href="#mb46e1ccdb9" y="216.085471"/>
     <use style="fill:#0000ff;fill-opacity:0.2;stroke:#0000ff;stroke-opacity:0.2;" x="125.4048" xlink:href="#mb46e1ccdb9" y="182.034307"/>
     <use style="fill:#0000ff;fill-opacity:0.2;stroke:#0000ff;stroke-opacity:0.2;" x="126.464085" xlink:href="#mb46e1ccdb9" y="182.034307"/>
     <use style="fill:#0000ff;fill-opacity:0.2;stroke:#0000ff;stroke-opacity:0.2;" x="127.52337" xlink:href="#mb46e1ccdb9" y="216.085471"/>
     <use style="fill:#0000ff;fill-opacity:0.2;stroke:#0000ff;stroke-opacity:0.2;" x="128.582655" xlink:href="#mb46e1ccdb9" y="216.085471"/>
     <use style="fill:#0000ff;fill-opacity:0.2;stroke:#0000ff;stroke-opacity:0.2;" x="129.641941" xlink:href="#mb46e1ccdb9" y="216.085471"/>
     <use style="fill:#0000ff;fill-opacity:0.2;stroke:#0000ff;stroke-opacity:0.2;" x="130.701226" xlink:href="#mb46e1ccdb9" y="199.059889"/>
     <use style="fill:#0000ff;fill-opacity:0.2;stroke:#0000ff;stroke-opacity:0.2;" x="131.760511" xlink:href="#mb46e1ccdb9" y="199.059889"/>
     <use style="fill:#0000ff;fill-opacity:0.2;stroke:#0000ff;stroke-opacity:0.2;" x="132.819796" xlink:href="#mb46e1ccdb9" y="216.085471"/>
     <use style="fill:#0000ff;fill-opacity:0.2;stroke:#0000ff;stroke-opacity:0.2;" x="133.879081" xlink:href="#mb46e1ccdb9" y="182.034307"/>
     <use style="fill:#0000ff;fill-opacity:0.2;stroke:#0000ff;stroke-opacity:0.2;" x="134.938366" xlink:href="#mb46e1ccdb9" y="165.008725"/>
     <use style="fill:#0000ff;fill-opacity:0.2;stroke:#0000ff;stroke-opacity:0.2;" x="135.997651" xlink:href="#mb46e1ccdb9" y="182.034307"/>
     <use style="fill:#0000ff;fill-opacity:0.2;stroke:#0000ff;stroke-opacity:0.2;" x="137.056936" xlink:href="#mb46e1ccdb9" y="96.906398"/>
     <use style="fill:#0000ff;fill-opacity:0.2;stroke:#0000ff;stroke-opacity:0.2;" x="138.116221" xlink:href="#mb46e1ccdb9" y="96.906398"/>
     <use style="fill:#0000ff;fill-opacity:0.2;stroke:#0000ff;stroke-opacity:0.2;" x="139.175507" xlink:href="#mb46e1ccdb9" y="28.80407"/>
     <use style="fill:#0000ff;fill-opacity:0.2;stroke:#0000ff;stroke-opacity:0.2;" x="140.234792" xlink:href="#mb46e1ccdb9" y="130.957561"/>
     <use style="fill:#0000ff;fill-opacity:0.2;stroke:#0000ff;stroke-opacity:0.2;" x="141.294077" xlink:href="#mb46e1ccdb9" y="79.880816"/>
     <use style="fill:#0000ff;fill-opacity:0.2;stroke:#0000ff;stroke-opacity:0.2;" x="142.353362" xlink:href="#mb46e1ccdb9" y="165.008725"/>
     <use style="fill:#0000ff;fill-opacity:0.2;stroke:#0000ff;stroke-opacity:0.2;" x="143.412647" xlink:href="#mb46e1ccdb9" y="147.983143"/>
     <use style="fill:#0000ff;fill-opacity:0.2;stroke:#0000ff;stroke-opacity:0.2;" x="144.471932" xlink:href="#mb46e1ccdb9" y="130.957561"/>
     <use style="fill:#0000ff;fill-opacity:0.2;stroke:#0000ff;stroke-opacity:0.2;" x="145.531217" xlink:href="#mb46e1ccdb9" y="62.855234"/>
     <use style="fill:#0000ff;fill-opacity:0.2;stroke:#0000ff;stroke-opacity:0.2;" x="146.590502" xlink:href="#mb46e1ccdb9" y="96.906398"/>
     <use style="fill:#0000ff;fill-opacity:0.2;stroke:#0000ff;stroke-opacity:0.2;" x="147.649787" xlink:href="#mb46e1ccdb9" y="45.829652"/>
     <use style="fill:#0000ff;fill-opacity:0.2;stroke:#0000ff;stroke-opacity:0.2;" x="148.709073" xlink:href="#mb46e1ccdb9" y="79.880816"/>
     <use style="fill:#0000ff;fill-opacity:0.2;stroke:#0000ff;stroke-opacity:0.2;" x="149.768358" xlink:href="#mb46e1ccdb9" y="45.829652"/>
     <use style="fill:#0000ff;fill-opacity:0.2;stroke:#0000ff;stroke-opacity:0.2;" x="150.827643" xlink:href="#mb46e1ccdb9" y="45.829652"/>
     <use style="fill:#0000ff;fill-opacity:0.2;stroke:#0000ff;stroke-opacity:0.2;" x="151.886928" xlink:href="#mb46e1ccdb9" y="79.880816"/>
     <use style="fill:#0000ff;fill-opacity:0.2;stroke:#0000ff;stroke-opacity:0.2;" x="152.946213" xlink:href="#mb46e1ccdb9" y="147.983143"/>
     <use style="fill:#0000ff;fill-opacity:0.2;stroke:#0000ff;stroke-opacity:0.2;" x="154.005498" xlink:href="#mb46e1ccdb9" y="147.983143"/>
     <use style="fill:#0000ff;fill-opacity:0.2;stroke:#0000ff;stroke-opacity:0.2;" x="155.064783" xlink:href="#mb46e1ccdb9" y="165.008725"/>
     <use style="fill:#0000ff;fill-opacity:0.2;stroke:#0000ff;stroke-opacity:0.2;" x="156.124068" xlink:href="#mb46e1ccdb9" y="147.983143"/>
     <use style="fill:#0000ff;fill-opacity:0.2;stroke:#0000ff;stroke-opacity:0.2;" x="157.183353" xlink:href="#mb46e1ccdb9" y="199.059889"/>
     <use style="fill:#0000ff;fill-opacity:0.2;stroke:#0000ff;stroke-opacity:0.2;" x="158.242639" xlink:href="#mb46e1ccdb9" y="147.983143"/>
     <use style="fill:#0000ff;fill-opacity:0.2;stroke:#0000ff;stroke-opacity:0.2;" x="159.301924" xlink:href="#mb46e1ccdb9" y="147.983143"/>
     <use style="fill:#0000ff;fill-opacity:0.2;stroke:#0000ff;stroke-opacity:0.2;" x="160.361209" xlink:href="#mb46e1ccdb9" y="165.008725"/>
     <use style="fill:#0000ff;fill-opacity:0.2;stroke:#0000ff;stroke-opacity:0.2;" x="161.420494" xlink:href="#mb46e1ccdb9" y="182.034307"/>
     <use style="fill:#0000ff;fill-opacity:0.2;stroke:#0000ff;stroke-opacity:0.2;" x="162.479779" xlink:href="#mb46e1ccdb9" y="182.034307"/>
     <use style="fill:#0000ff;fill-opacity:0.2;stroke:#0000ff;stroke-opacity:0.2;" x="163.539064" xlink:href="#mb46e1ccdb9" y="130.957561"/>
     <use style="fill:#0000ff;fill-opacity:0.2;stroke:#0000ff;stroke-opacity:0.2;" x="164.598349" xlink:href="#mb46e1ccdb9" y="182.034307"/>
     <use style="fill:#0000ff;fill-opacity:0.2;stroke:#0000ff;stroke-opacity:0.2;" x="165.657634" xlink:href="#mb46e1ccdb9" y="130.957561"/>
     <use style="fill:#0000ff;fill-opacity:0.2;stroke:#0000ff;stroke-opacity:0.2;" x="166.716919" xlink:href="#mb46e1ccdb9" y="216.085471"/>
     <use style="fill:#0000ff;fill-opacity:0.2;stroke:#0000ff;stroke-opacity:0.2;" x="167.776205" xlink:href="#mb46e1ccdb9" y="216.085471"/>
     <use style="fill:#0000ff;fill-opacity:0.2;stroke:#0000ff;stroke-opacity:0.2;" x="168.83549" xlink:href="#mb46e1ccdb9" y="96.906398"/>
     <use style="fill:#0000ff;fill-opacity:0.2;stroke:#0000ff;stroke-opacity:0.2;" x="169.894775" xlink:href="#mb46e1ccdb9" y="147.983143"/>
     <use style="fill:#0000ff;fill-opacity:0.2;stroke:#0000ff;stroke-opacity:0.2;" x="170.95406" xlink:href="#mb46e1ccdb9" y="182.034307"/>
     <use style="fill:#0000ff;fill-opacity:0.2;stroke:#0000ff;stroke-opacity:0.2;" x="172.013345" xlink:href="#mb46e1ccdb9" y="165.008725"/>
     <use style="fill:#0000ff;fill-opacity:0.2;stroke:#0000ff;stroke-opacity:0.2;" x="173.07263" xlink:href="#mb46e1ccdb9" y="147.983143"/>
     <use style="fill:#0000ff;fill-opacity:0.2;stroke:#0000ff;stroke-opacity:0.2;" x="174.131915" xlink:href="#mb46e1ccdb9" y="182.034307"/>
     <use style="fill:#0000ff;fill-opacity:0.2;stroke:#0000ff;stroke-opacity:0.2;" x="175.1912" xlink:href="#mb46e1ccdb9" y="216.085471"/>
     <use style="fill:#0000ff;fill-opacity:0.2;stroke:#0000ff;stroke-opacity:0.2;" x="176.250485" xlink:href="#mb46e1ccdb9" y="216.085471"/>
     <use style="fill:#0000ff;fill-opacity:0.2;stroke:#0000ff;stroke-opacity:0.2;" x="177.309771" xlink:href="#mb46e1ccdb9" y="182.034307"/>
     <use style="fill:#0000ff;fill-opacity:0.2;stroke:#0000ff;stroke-opacity:0.2;" x="178.369056" xlink:href="#mb46e1ccdb9" y="182.034307"/>
     <use style="fill:#0000ff;fill-opacity:0.2;stroke:#0000ff;stroke-opacity:0.2;" x="179.428341" xlink:href="#mb46e1ccdb9" y="216.085471"/>
     <use style="fill:#0000ff;fill-opacity:0.2;stroke:#0000ff;stroke-opacity:0.2;" x="180.487626" xlink:href="#mb46e1ccdb9" y="182.034307"/>
     <use style="fill:#0000ff;fill-opacity:0.2;stroke:#0000ff;stroke-opacity:0.2;" x="181.546911" xlink:href="#mb46e1ccdb9" y="199.059889"/>
     <use style="fill:#0000ff;fill-opacity:0.2;stroke:#0000ff;stroke-opacity:0.2;" x="182.606196" xlink:href="#mb46e1ccdb9" y="216.085471"/>
     <use style="fill:#0000ff;fill-opacity:0.2;stroke:#0000ff;stroke-opacity:0.2;" x="183.665481" xlink:href="#mb46e1ccdb9" y="182.034307"/>
     <use style="fill:#0000ff;fill-opacity:0.2;stroke:#0000ff;stroke-opacity:0.2;" x="184.724766" xlink:href="#mb46e1ccdb9" y="216.085471"/>
     <use style="fill:#0000ff;fill-opacity:0.2;stroke:#0000ff;stroke-opacity:0.2;" x="185.784051" xlink:href="#mb46e1ccdb9" y="216.085471"/>
     <use style="fill:#0000ff;fill-opacity:0.2;stroke:#0000ff;stroke-opacity:0.2;" x="186.843337" xlink:href="#mb46e1ccdb9" y="182.034307"/>
     <use style="fill:#0000ff;fill-opacity:0.2;stroke:#0000ff;stroke-opacity:0.2;" x="187.902622" xlink:href="#mb46e1ccdb9" y="199.059889"/>
     <use style="fill:#0000ff;fill-opacity:0.2;stroke:#0000ff;stroke-opacity:0.2;" x="188.961907" xlink:href="#mb46e1ccdb9" y="182.034307"/>
     <use style="fill:#0000ff;fill-opacity:0.2;stroke:#0000ff;stroke-opacity:0.2;" x="190.021192" xlink:href="#mb46e1ccdb9" y="199.059889"/>
     <use style="fill:#0000ff;fill-opacity:0.2;stroke:#0000ff;stroke-opacity:0.2;" x="191.080477" xlink:href="#mb46e1ccdb9" y="165.008725"/>
     <use style="fill:#0000ff;fill-opacity:0.2;stroke:#0000ff;stroke-opacity:0.2;" x="192.139762" xlink:href="#mb46e1ccdb9" y="216.085471"/>
     <use style="fill:#0000ff;fill-opacity:0.2;stroke:#0000ff;stroke-opacity:0.2;" x="193.199047" xlink:href="#mb46e1ccdb9" y="182.034307"/>
     <use style="fill:#0000ff;fill-opacity:0.2;stroke:#0000ff;stroke-opacity:0.2;" x="194.258332" xlink:href="#mb46e1ccdb9" y="216.085471"/>
     <use style="fill:#0000ff;fill-opacity:0.2;stroke:#0000ff;stroke-opacity:0.2;" x="195.317617" xlink:href="#mb46e1ccdb9" y="199.059889"/>
     <use style="fill:#0000ff;fill-opacity:0.2;stroke:#0000ff;stroke-opacity:0.2;" x="196.376903" xlink:href="#mb46e1ccdb9" y="182.034307"/>
     <use style="fill:#0000ff;fill-opacity:0.2;stroke:#0000ff;stroke-opacity:0.2;" x="197.436188" xlink:href="#mb46e1ccdb9" y="216.085471"/>
     <use style="fill:#0000ff;fill-opacity:0.2;stroke:#0000ff;stroke-opacity:0.2;" x="198.495473" xlink:href="#mb46e1ccdb9" y="216.085471"/>
     <use style="fill:#0000ff;fill-opacity:0.2;stroke:#0000ff;stroke-opacity:0.2;" x="199.554758" xlink:href="#mb46e1ccdb9" y="199.059889"/>
     <use style="fill:#0000ff;fill-opacity:0.2;stroke:#0000ff;stroke-opacity:0.2;" x="200.614043" xlink:href="#mb46e1ccdb9" y="199.059889"/>
     <use style="fill:#0000ff;fill-opacity:0.2;stroke:#0000ff;stroke-opacity:0.2;" x="201.673328" xlink:href="#mb46e1ccdb9" y="216.085471"/>
     <use style="fill:#0000ff;fill-opacity:0.2;stroke:#0000ff;stroke-opacity:0.2;" x="202.732613" xlink:href="#mb46e1ccdb9" y="199.059889"/>
     <use style="fill:#0000ff;fill-opacity:0.2;stroke:#0000ff;stroke-opacity:0.2;" x="203.791898" xlink:href="#mb46e1ccdb9" y="199.059889"/>
     <use style="fill:#0000ff;fill-opacity:0.2;stroke:#0000ff;stroke-opacity:0.2;" x="204.851183" xlink:href="#mb46e1ccdb9" y="216.085471"/>
     <use style="fill:#0000ff;fill-opacity:0.2;stroke:#0000ff;stroke-opacity:0.2;" x="205.910469" xlink:href="#mb46e1ccdb9" y="199.059889"/>
     <use style="fill:#0000ff;fill-opacity:0.2;stroke:#0000ff;stroke-opacity:0.2;" x="206.969754" xlink:href="#mb46e1ccdb9" y="216.085471"/>
     <use style="fill:#0000ff;fill-opacity:0.2;stroke:#0000ff;stroke-opacity:0.2;" x="208.029039" xlink:href="#mb46e1ccdb9" y="216.085471"/>
     <use style="fill:#0000ff;fill-opacity:0.2;stroke:#0000ff;stroke-opacity:0.2;" x="209.088324" xlink:href="#mb46e1ccdb9" y="199.059889"/>
     <use style="fill:#0000ff;fill-opacity:0.2;stroke:#0000ff;stroke-opacity:0.2;" x="210.147609" xlink:href="#mb46e1ccdb9" y="216.085471"/>
     <use style="fill:#0000ff;fill-opacity:0.2;stroke:#0000ff;stroke-opacity:0.2;" x="211.206894" xlink:href="#mb46e1ccdb9" y="216.085471"/>
     <use style="fill:#0000ff;fill-opacity:0.2;stroke:#0000ff;stroke-opacity:0.2;" x="212.266179" xlink:href="#mb46e1ccdb9" y="216.085471"/>
     <use style="fill:#0000ff;fill-opacity:0.2;stroke:#0000ff;stroke-opacity:0.2;" x="213.325464" xlink:href="#mb46e1ccdb9" y="216.085471"/>
     <use style="fill:#0000ff;fill-opacity:0.2;stroke:#0000ff;stroke-opacity:0.2;" x="214.384749" xlink:href="#mb46e1ccdb9" y="216.085471"/>
     <use style="fill:#0000ff;fill-opacity:0.2;stroke:#0000ff;stroke-opacity:0.2;" x="215.444035" xlink:href="#mb46e1ccdb9" y="216.085471"/>
     <use style="fill:#0000ff;fill-opacity:0.2;stroke:#0000ff;stroke-opacity:0.2;" x="216.50332" xlink:href="#mb46e1ccdb9" y="216.085471"/>
     <use style="fill:#0000ff;fill-opacity:0.2;stroke:#0000ff;stroke-opacity:0.2;" x="217.562605" xlink:href="#mb46e1ccdb9" y="216.085471"/>
     <use style="fill:#0000ff;fill-opacity:0.2;stroke:#0000ff;stroke-opacity:0.2;" x="218.62189" xlink:href="#mb46e1ccdb9" y="216.085471"/>
     <use style="fill:#0000ff;fill-opacity:0.2;stroke:#0000ff;stroke-opacity:0.2;" x="219.681175" xlink:href="#mb46e1ccdb9" y="216.085471"/>
     <use style="fill:#0000ff;fill-opacity:0.2;stroke:#0000ff;stroke-opacity:0.2;" x="220.74046" xlink:href="#mb46e1ccdb9" y="216.085471"/>
     <use style="fill:#0000ff;fill-opacity:0.2;stroke:#0000ff;stroke-opacity:0.2;" x="221.799745" xlink:href="#mb46e1ccdb9" y="216.085471"/>
     <use style="fill:#0000ff;fill-opacity:0.2;stroke:#0000ff;stroke-opacity:0.2;" x="222.85903" xlink:href="#mb46e1ccdb9" y="216.085471"/>
     <use style="fill:#0000ff;fill-opacity:0.2;stroke:#0000ff;stroke-opacity:0.2;" x="223.918315" xlink:href="#mb46e1ccdb9" y="216.085471"/>
     <use style="fill:#0000ff;fill-opacity:0.2;stroke:#0000ff;stroke-opacity:0.2;" x="224.977601" xlink:href="#mb46e1ccdb9" y="216.085471"/>
     <use style="fill:#0000ff;fill-opacity:0.2;stroke:#0000ff;stroke-opacity:0.2;" x="226.036886" xlink:href="#mb46e1ccdb9" y="216.085471"/>
     <use style="fill:#0000ff;fill-opacity:0.2;stroke:#0000ff;stroke-opacity:0.2;" x="227.096171" xlink:href="#mb46e1ccdb9" y="216.085471"/>
     <use style="fill:#0000ff;fill-opacity:0.2;stroke:#0000ff;stroke-opacity:0.2;" x="228.155456" xlink:href="#mb46e1ccdb9" y="216.085471"/>
     <use style="fill:#0000ff;fill-opacity:0.2;stroke:#0000ff;stroke-opacity:0.2;" x="229.214741" xlink:href="#mb46e1ccdb9" y="216.085471"/>
     <use style="fill:#0000ff;fill-opacity:0.2;stroke:#0000ff;stroke-opacity:0.2;" x="230.274026" xlink:href="#mb46e1ccdb9" y="216.085471"/>
     <use style="fill:#0000ff;fill-opacity:0.2;stroke:#0000ff;stroke-opacity:0.2;" x="231.333311" xlink:href="#mb46e1ccdb9" y="216.085471"/>
     <use style="fill:#0000ff;fill-opacity:0.2;stroke:#0000ff;stroke-opacity:0.2;" x="232.392596" xlink:href="#mb46e1ccdb9" y="216.085471"/>
     <use style="fill:#0000ff;fill-opacity:0.2;stroke:#0000ff;stroke-opacity:0.2;" x="233.451881" xlink:href="#mb46e1ccdb9" y="182.034307"/>
     <use style="fill:#0000ff;fill-opacity:0.2;stroke:#0000ff;stroke-opacity:0.2;" x="234.511167" xlink:href="#mb46e1ccdb9" y="216.085471"/>
     <use style="fill:#0000ff;fill-opacity:0.2;stroke:#0000ff;stroke-opacity:0.2;" x="235.570452" xlink:href="#mb46e1ccdb9" y="199.059889"/>
     <use style="fill:#0000ff;fill-opacity:0.2;stroke:#0000ff;stroke-opacity:0.2;" x="236.629737" xlink:href="#mb46e1ccdb9" y="199.059889"/>
     <use style="fill:#0000ff;fill-opacity:0.2;stroke:#0000ff;stroke-opacity:0.2;" x="237.689022" xlink:href="#mb46e1ccdb9" y="216.085471"/>
     <use style="fill:#0000ff;fill-opacity:0.2;stroke:#0000ff;stroke-opacity:0.2;" x="238.748307" xlink:href="#mb46e1ccdb9" y="216.085471"/>
     <use style="fill:#0000ff;fill-opacity:0.2;stroke:#0000ff;stroke-opacity:0.2;" x="239.807592" xlink:href="#mb46e1ccdb9" y="199.059889"/>
     <use style="fill:#0000ff;fill-opacity:0.2;stroke:#0000ff;stroke-opacity:0.2;" x="240.866877" xlink:href="#mb46e1ccdb9" y="216.085471"/>
     <use style="fill:#0000ff;fill-opacity:0.2;stroke:#0000ff;stroke-opacity:0.2;" x="241.926162" xlink:href="#mb46e1ccdb9" y="216.085471"/>
     <use style="fill:#0000ff;fill-opacity:0.2;stroke:#0000ff;stroke-opacity:0.2;" x="242.985447" xlink:href="#mb46e1ccdb9" y="216.085471"/>
     <use style="fill:#0000ff;fill-opacity:0.2;stroke:#0000ff;stroke-opacity:0.2;" x="244.044733" xlink:href="#mb46e1ccdb9" y="216.085471"/>
     <use style="fill:#0000ff;fill-opacity:0.2;stroke:#0000ff;stroke-opacity:0.2;" x="245.104018" xlink:href="#mb46e1ccdb9" y="216.085471"/>
     <use style="fill:#0000ff;fill-opacity:0.2;stroke:#0000ff;stroke-opacity:0.2;" x="246.163303" xlink:href="#mb46e1ccdb9" y="216.085471"/>
     <use style="fill:#0000ff;fill-opacity:0.2;stroke:#0000ff;stroke-opacity:0.2;" x="247.222588" xlink:href="#mb46e1ccdb9" y="216.085471"/>
     <use style="fill:#0000ff;fill-opacity:0.2;stroke:#0000ff;stroke-opacity:0.2;" x="248.281873" xlink:href="#mb46e1ccdb9" y="216.085471"/>
     <use style="fill:#0000ff;fill-opacity:0.2;stroke:#0000ff;stroke-opacity:0.2;" x="249.341158" xlink:href="#mb46e1ccdb9" y="216.085471"/>
     <use style="fill:#0000ff;fill-opacity:0.2;stroke:#0000ff;stroke-opacity:0.2;" x="250.400443" xlink:href="#mb46e1ccdb9" y="216.085471"/>
     <use style="fill:#0000ff;fill-opacity:0.2;stroke:#0000ff;stroke-opacity:0.2;" x="251.459728" xlink:href="#mb46e1ccdb9" y="216.085471"/>
     <use style="fill:#0000ff;fill-opacity:0.2;stroke:#0000ff;stroke-opacity:0.2;" x="252.519013" xlink:href="#mb46e1ccdb9" y="216.085471"/>
     <use style="fill:#0000ff;fill-opacity:0.2;stroke:#0000ff;stroke-opacity:0.2;" x="253.578299" xlink:href="#mb46e1ccdb9" y="216.085471"/>
     <use style="fill:#0000ff;fill-opacity:0.2;stroke:#0000ff;stroke-opacity:0.2;" x="254.637584" xlink:href="#mb46e1ccdb9" y="216.085471"/>
     <use style="fill:#0000ff;fill-opacity:0.2;stroke:#0000ff;stroke-opacity:0.2;" x="255.696869" xlink:href="#mb46e1ccdb9" y="216.085471"/>
     <use style="fill:#0000ff;fill-opacity:0.2;stroke:#0000ff;stroke-opacity:0.2;" x="256.756154" xlink:href="#mb46e1ccdb9" y="216.085471"/>
     <use style="fill:#0000ff;fill-opacity:0.2;stroke:#0000ff;stroke-opacity:0.2;" x="257.815439" xlink:href="#mb46e1ccdb9" y="216.085471"/>
     <use style="fill:#0000ff;fill-opacity:0.2;stroke:#0000ff;stroke-opacity:0.2;" x="258.874724" xlink:href="#mb46e1ccdb9" y="216.085471"/>
     <use style="fill:#0000ff;fill-opacity:0.2;stroke:#0000ff;stroke-opacity:0.2;" x="259.934009" xlink:href="#mb46e1ccdb9" y="199.059889"/>
     <use style="fill:#0000ff;fill-opacity:0.2;stroke:#0000ff;stroke-opacity:0.2;" x="260.993294" xlink:href="#mb46e1ccdb9" y="216.085471"/>
     <use style="fill:#0000ff;fill-opacity:0.2;stroke:#0000ff;stroke-opacity:0.2;" x="262.052579" xlink:href="#mb46e1ccdb9" y="216.085471"/>
     <use style="fill:#0000ff;fill-opacity:0.2;stroke:#0000ff;stroke-opacity:0.2;" x="263.111865" xlink:href="#mb46e1ccdb9" y="216.085471"/>
     <use style="fill:#0000ff;fill-opacity:0.2;stroke:#0000ff;stroke-opacity:0.2;" x="264.17115" xlink:href="#mb46e1ccdb9" y="216.085471"/>
     <use style="fill:#0000ff;fill-opacity:0.2;stroke:#0000ff;stroke-opacity:0.2;" x="265.230435" xlink:href="#mb46e1ccdb9" y="216.085471"/>
     <use style="fill:#0000ff;fill-opacity:0.2;stroke:#0000ff;stroke-opacity:0.2;" x="266.28972" xlink:href="#mb46e1ccdb9" y="182.034307"/>
     <use style="fill:#0000ff;fill-opacity:0.2;stroke:#0000ff;stroke-opacity:0.2;" x="267.349005" xlink:href="#mb46e1ccdb9" y="199.059889"/>
     <use style="fill:#0000ff;fill-opacity:0.2;stroke:#0000ff;stroke-opacity:0.2;" x="268.40829" xlink:href="#mb46e1ccdb9" y="216.085471"/>
     <use style="fill:#0000ff;fill-opacity:0.2;stroke:#0000ff;stroke-opacity:0.2;" x="269.467575" xlink:href="#mb46e1ccdb9" y="216.085471"/>
     <use style="fill:#0000ff;fill-opacity:0.2;stroke:#0000ff;stroke-opacity:0.2;" x="270.52686" xlink:href="#mb46e1ccdb9" y="216.085471"/>
     <use style="fill:#0000ff;fill-opacity:0.2;stroke:#0000ff;stroke-opacity:0.2;" x="271.586145" xlink:href="#mb46e1ccdb9" y="216.085471"/>
     <use style="fill:#0000ff;fill-opacity:0.2;stroke:#0000ff;stroke-opacity:0.2;" x="272.645431" xlink:href="#mb46e1ccdb9" y="216.085471"/>
     <use style="fill:#0000ff;fill-opacity:0.2;stroke:#0000ff;stroke-opacity:0.2;" x="273.704716" xlink:href="#mb46e1ccdb9" y="216.085471"/>
     <use style="fill:#0000ff;fill-opacity:0.2;stroke:#0000ff;stroke-opacity:0.2;" x="274.764001" xlink:href="#mb46e1ccdb9" y="216.085471"/>
     <use style="fill:#0000ff;fill-opacity:0.2;stroke:#0000ff;stroke-opacity:0.2;" x="275.823286" xlink:href="#mb46e1ccdb9" y="216.085471"/>
     <use style="fill:#0000ff;fill-opacity:0.2;stroke:#0000ff;stroke-opacity:0.2;" x="276.882571" xlink:href="#mb46e1ccdb9" y="216.085471"/>
     <use style="fill:#0000ff;fill-opacity:0.2;stroke:#0000ff;stroke-opacity:0.2;" x="277.941856" xlink:href="#mb46e1ccdb9" y="216.085471"/>
     <use style="fill:#0000ff;fill-opacity:0.2;stroke:#0000ff;stroke-opacity:0.2;" x="279.001141" xlink:href="#mb46e1ccdb9" y="216.085471"/>
     <use style="fill:#0000ff;fill-opacity:0.2;stroke:#0000ff;stroke-opacity:0.2;" x="280.060426" xlink:href="#mb46e1ccdb9" y="216.085471"/>
     <use style="fill:#0000ff;fill-opacity:0.2;stroke:#0000ff;stroke-opacity:0.2;" x="281.119711" xlink:href="#mb46e1ccdb9" y="216.085471"/>
     <use style="fill:#0000ff;fill-opacity:0.2;stroke:#0000ff;stroke-opacity:0.2;" x="282.178997" xlink:href="#mb46e1ccdb9" y="216.085471"/>
     <use style="fill:#0000ff;fill-opacity:0.2;stroke:#0000ff;stroke-opacity:0.2;" x="283.238282" xlink:href="#mb46e1ccdb9" y="216.085471"/>
     <use style="fill:#0000ff;fill-opacity:0.2;stroke:#0000ff;stroke-opacity:0.2;" x="284.297567" xlink:href="#mb46e1ccdb9" y="216.085471"/>
     <use style="fill:#0000ff;fill-opacity:0.2;stroke:#0000ff;stroke-opacity:0.2;" x="285.356852" xlink:href="#mb46e1ccdb9" y="216.085471"/>
     <use style="fill:#0000ff;fill-opacity:0.2;stroke:#0000ff;stroke-opacity:0.2;" x="286.416137" xlink:href="#mb46e1ccdb9" y="199.059889"/>
     <use style="fill:#0000ff;fill-opacity:0.2;stroke:#0000ff;stroke-opacity:0.2;" x="287.475422" xlink:href="#mb46e1ccdb9" y="216.085471"/>
     <use style="fill:#0000ff;fill-opacity:0.2;stroke:#0000ff;stroke-opacity:0.2;" x="288.534707" xlink:href="#mb46e1ccdb9" y="216.085471"/>
     <use style="fill:#0000ff;fill-opacity:0.2;stroke:#0000ff;stroke-opacity:0.2;" x="289.593992" xlink:href="#mb46e1ccdb9" y="216.085471"/>
     <use style="fill:#0000ff;fill-opacity:0.2;stroke:#0000ff;stroke-opacity:0.2;" x="290.653277" xlink:href="#mb46e1ccdb9" y="216.085471"/>
     <use style="fill:#0000ff;fill-opacity:0.2;stroke:#0000ff;stroke-opacity:0.2;" x="291.712563" xlink:href="#mb46e1ccdb9" y="216.085471"/>
     <use style="fill:#0000ff;fill-opacity:0.2;stroke:#0000ff;stroke-opacity:0.2;" x="292.771848" xlink:href="#mb46e1ccdb9" y="216.085471"/>
     <use style="fill:#0000ff;fill-opacity:0.2;stroke:#0000ff;stroke-opacity:0.2;" x="293.831133" xlink:href="#mb46e1ccdb9" y="216.085471"/>
     <use style="fill:#0000ff;fill-opacity:0.2;stroke:#0000ff;stroke-opacity:0.2;" x="294.890418" xlink:href="#mb46e1ccdb9" y="216.085471"/>
     <use style="fill:#0000ff;fill-opacity:0.2;stroke:#0000ff;stroke-opacity:0.2;" x="295.949703" xlink:href="#mb46e1ccdb9" y="199.059889"/>
     <use style="fill:#0000ff;fill-opacity:0.2;stroke:#0000ff;stroke-opacity:0.2;" x="297.008988" xlink:href="#mb46e1ccdb9" y="216.085471"/>
     <use style="fill:#0000ff;fill-opacity:0.2;stroke:#0000ff;stroke-opacity:0.2;" x="298.068273" xlink:href="#mb46e1ccdb9" y="216.085471"/>
     <use style="fill:#0000ff;fill-opacity:0.2;stroke:#0000ff;stroke-opacity:0.2;" x="299.127558" xlink:href="#mb46e1ccdb9" y="216.085471"/>
     <use style="fill:#0000ff;fill-opacity:0.2;stroke:#0000ff;stroke-opacity:0.2;" x="300.186843" xlink:href="#mb46e1ccdb9" y="216.085471"/>
     <use style="fill:#0000ff;fill-opacity:0.2;stroke:#0000ff;stroke-opacity:0.2;" x="301.246129" xlink:href="#mb46e1ccdb9" y="216.085471"/>
     <use style="fill:#0000ff;fill-opacity:0.2;stroke:#0000ff;stroke-opacity:0.2;" x="302.305414" xlink:href="#mb46e1ccdb9" y="216.085471"/>
     <use style="fill:#0000ff;fill-opacity:0.2;stroke:#0000ff;stroke-opacity:0.2;" x="303.364699" xlink:href="#mb46e1ccdb9" y="216.085471"/>
     <use style="fill:#0000ff;fill-opacity:0.2;stroke:#0000ff;stroke-opacity:0.2;" x="304.423984" xlink:href="#mb46e1ccdb9" y="216.085471"/>
     <use style="fill:#0000ff;fill-opacity:0.2;stroke:#0000ff;stroke-opacity:0.2;" x="305.483269" xlink:href="#mb46e1ccdb9" y="216.085471"/>
     <use style="fill:#0000ff;fill-opacity:0.2;stroke:#0000ff;stroke-opacity:0.2;" x="306.542554" xlink:href="#mb46e1ccdb9" y="199.059889"/>
     <use style="fill:#0000ff;fill-opacity:0.2;stroke:#0000ff;stroke-opacity:0.2;" x="307.601839" xlink:href="#mb46e1ccdb9" y="216.085471"/>
     <use style="fill:#0000ff;fill-opacity:0.2;stroke:#0000ff;stroke-opacity:0.2;" x="308.661124" xlink:href="#mb46e1ccdb9" y="216.085471"/>
     <use style="fill:#0000ff;fill-opacity:0.2;stroke:#0000ff;stroke-opacity:0.2;" x="309.720409" xlink:href="#mb46e1ccdb9" y="216.085471"/>
     <use style="fill:#0000ff;fill-opacity:0.2;stroke:#0000ff;stroke-opacity:0.2;" x="310.779695" xlink:href="#mb46e1ccdb9" y="216.085471"/>
     <use style="fill:#0000ff;fill-opacity:0.2;stroke:#0000ff;stroke-opacity:0.2;" x="311.83898" xlink:href="#mb46e1ccdb9" y="216.085471"/>
     <use style="fill:#0000ff;fill-opacity:0.2;stroke:#0000ff;stroke-opacity:0.2;" x="312.898265" xlink:href="#mb46e1ccdb9" y="199.059889"/>
     <use style="fill:#0000ff;fill-opacity:0.2;stroke:#0000ff;stroke-opacity:0.2;" x="313.95755" xlink:href="#mb46e1ccdb9" y="216.085471"/>
     <use style="fill:#0000ff;fill-opacity:0.2;stroke:#0000ff;stroke-opacity:0.2;" x="315.016835" xlink:href="#mb46e1ccdb9" y="199.059889"/>
     <use style="fill:#0000ff;fill-opacity:0.2;stroke:#0000ff;stroke-opacity:0.2;" x="316.07612" xlink:href="#mb46e1ccdb9" y="216.085471"/>
     <use style="fill:#0000ff;fill-opacity:0.2;stroke:#0000ff;stroke-opacity:0.2;" x="317.135405" xlink:href="#mb46e1ccdb9" y="216.085471"/>
     <use style="fill:#0000ff;fill-opacity:0.2;stroke:#0000ff;stroke-opacity:0.2;" x="318.19469" xlink:href="#mb46e1ccdb9" y="216.085471"/>
     <use style="fill:#0000ff;fill-opacity:0.2;stroke:#0000ff;stroke-opacity:0.2;" x="319.253975" xlink:href="#mb46e1ccdb9" y="182.034307"/>
     <use style="fill:#0000ff;fill-opacity:0.2;stroke:#0000ff;stroke-opacity:0.2;" x="320.313261" xlink:href="#mb46e1ccdb9" y="199.059889"/>
     <use style="fill:#0000ff;fill-opacity:0.2;stroke:#0000ff;stroke-opacity:0.2;" x="321.372546" xlink:href="#mb46e1ccdb9" y="216.085471"/>
     <use style="fill:#0000ff;fill-opacity:0.2;stroke:#0000ff;stroke-opacity:0.2;" x="322.431831" xlink:href="#mb46e1ccdb9" y="199.059889"/>
     <use style="fill:#0000ff;fill-opacity:0.2;stroke:#0000ff;stroke-opacity:0.2;" x="323.491116" xlink:href="#mb46e1ccdb9" y="216.085471"/>
     <use style="fill:#0000ff;fill-opacity:0.2;stroke:#0000ff;stroke-opacity:0.2;" x="324.550401" xlink:href="#mb46e1ccdb9" y="216.085471"/>
     <use style="fill:#0000ff;fill-opacity:0.2;stroke:#0000ff;stroke-opacity:0.2;" x="325.609686" xlink:href="#mb46e1ccdb9" y="216.085471"/>
     <use style="fill:#0000ff;fill-opacity:0.2;stroke:#0000ff;stroke-opacity:0.2;" x="326.668971" xlink:href="#mb46e1ccdb9" y="216.085471"/>
     <use style="fill:#0000ff;fill-opacity:0.2;stroke:#0000ff;stroke-opacity:0.2;" x="327.728256" xlink:href="#mb46e1ccdb9" y="165.008725"/>
     <use style="fill:#0000ff;fill-opacity:0.2;stroke:#0000ff;stroke-opacity:0.2;" x="328.787541" xlink:href="#mb46e1ccdb9" y="182.034307"/>
     <use style="fill:#0000ff;fill-opacity:0.2;stroke:#0000ff;stroke-opacity:0.2;" x="329.846827" xlink:href="#mb46e1ccdb9" y="147.983143"/>
     <use style="fill:#0000ff;fill-opacity:0.2;stroke:#0000ff;stroke-opacity:0.2;" x="330.906112" xlink:href="#mb46e1ccdb9" y="199.059889"/>
     <use style="fill:#0000ff;fill-opacity:0.2;stroke:#0000ff;stroke-opacity:0.2;" x="331.965397" xlink:href="#mb46e1ccdb9" y="165.008725"/>
     <use style="fill:#0000ff;fill-opacity:0.2;stroke:#0000ff;stroke-opacity:0.2;" x="333.024682" xlink:href="#mb46e1ccdb9" y="216.085471"/>
     <use style="fill:#0000ff;fill-opacity:0.2;stroke:#0000ff;stroke-opacity:0.2;" x="334.083967" xlink:href="#mb46e1ccdb9" y="182.034307"/>
     <use style="fill:#0000ff;fill-opacity:0.2;stroke:#0000ff;stroke-opacity:0.2;" x="335.143252" xlink:href="#mb46e1ccdb9" y="216.085471"/>
     <use style="fill:#0000ff;fill-opacity:0.2;stroke:#0000ff;stroke-opacity:0.2;" x="336.202537" xlink:href="#mb46e1ccdb9" y="199.059889"/>
     <use style="fill:#0000ff;fill-opacity:0.2;stroke:#0000ff;stroke-opacity:0.2;" x="337.261822" xlink:href="#mb46e1ccdb9" y="199.059889"/>
     <use style="fill:#0000ff;fill-opacity:0.2;stroke:#0000ff;stroke-opacity:0.2;" x="338.321107" xlink:href="#mb46e1ccdb9" y="165.008725"/>
     <use style="fill:#0000ff;fill-opacity:0.2;stroke:#0000ff;stroke-opacity:0.2;" x="339.380393" xlink:href="#mb46e1ccdb9" y="216.085471"/>
     <use style="fill:#0000ff;fill-opacity:0.2;stroke:#0000ff;stroke-opacity:0.2;" x="340.439678" xlink:href="#mb46e1ccdb9" y="182.034307"/>
     <use style="fill:#0000ff;fill-opacity:0.2;stroke:#0000ff;stroke-opacity:0.2;" x="341.498963" xlink:href="#mb46e1ccdb9" y="199.059889"/>
     <use style="fill:#0000ff;fill-opacity:0.2;stroke:#0000ff;stroke-opacity:0.2;" x="342.558248" xlink:href="#mb46e1ccdb9" y="199.059889"/>
     <use style="fill:#0000ff;fill-opacity:0.2;stroke:#0000ff;stroke-opacity:0.2;" x="343.617533" xlink:href="#mb46e1ccdb9" y="216.085471"/>
     <use style="fill:#0000ff;fill-opacity:0.2;stroke:#0000ff;stroke-opacity:0.2;" x="344.676818" xlink:href="#mb46e1ccdb9" y="199.059889"/>
     <use style="fill:#0000ff;fill-opacity:0.2;stroke:#0000ff;stroke-opacity:0.2;" x="345.736103" xlink:href="#mb46e1ccdb9" y="199.059889"/>
     <use style="fill:#0000ff;fill-opacity:0.2;stroke:#0000ff;stroke-opacity:0.2;" x="346.795388" xlink:href="#mb46e1ccdb9" y="216.085471"/>
     <use style="fill:#0000ff;fill-opacity:0.2;stroke:#0000ff;stroke-opacity:0.2;" x="347.854673" xlink:href="#mb46e1ccdb9" y="165.008725"/>
     <use style="fill:#0000ff;fill-opacity:0.2;stroke:#0000ff;stroke-opacity:0.2;" x="348.913959" xlink:href="#mb46e1ccdb9" y="182.034307"/>
     <use style="fill:#0000ff;fill-opacity:0.2;stroke:#0000ff;stroke-opacity:0.2;" x="349.973244" xlink:href="#mb46e1ccdb9" y="182.034307"/>
     <use style="fill:#0000ff;fill-opacity:0.2;stroke:#0000ff;stroke-opacity:0.2;" x="351.032529" xlink:href="#mb46e1ccdb9" y="182.034307"/>
     <use style="fill:#0000ff;fill-opacity:0.2;stroke:#0000ff;stroke-opacity:0.2;" x="352.091814" xlink:href="#mb46e1ccdb9" y="147.983143"/>
     <use style="fill:#0000ff;fill-opacity:0.2;stroke:#0000ff;stroke-opacity:0.2;" x="353.151099" xlink:href="#mb46e1ccdb9" y="182.034307"/>
     <use style="fill:#0000ff;fill-opacity:0.2;stroke:#0000ff;stroke-opacity:0.2;" x="354.210384" xlink:href="#mb46e1ccdb9" y="182.034307"/>
     <use style="fill:#0000ff;fill-opacity:0.2;stroke:#0000ff;stroke-opacity:0.2;" x="355.269669" xlink:href="#mb46e1ccdb9" y="182.034307"/>
     <use style="fill:#0000ff;fill-opacity:0.2;stroke:#0000ff;stroke-opacity:0.2;" x="356.328954" xlink:href="#mb46e1ccdb9" y="216.085471"/>
     <use style="fill:#0000ff;fill-opacity:0.2;stroke:#0000ff;stroke-opacity:0.2;" x="357.388239" xlink:href="#mb46e1ccdb9" y="216.085471"/>
     <use style="fill:#0000ff;fill-opacity:0.2;stroke:#0000ff;stroke-opacity:0.2;" x="358.447525" xlink:href="#mb46e1ccdb9" y="165.008725"/>
     <use style="fill:#0000ff;fill-opacity:0.2;stroke:#0000ff;stroke-opacity:0.2;" x="359.50681" xlink:href="#mb46e1ccdb9" y="165.008725"/>
     <use style="fill:#0000ff;fill-opacity:0.2;stroke:#0000ff;stroke-opacity:0.2;" x="360.566095" xlink:href="#mb46e1ccdb9" y="199.059889"/>
     <use style="fill:#0000ff;fill-opacity:0.2;stroke:#0000ff;stroke-opacity:0.2;" x="361.62538" xlink:href="#mb46e1ccdb9" y="216.085471"/>
     <use style="fill:#0000ff;fill-opacity:0.2;stroke:#0000ff;stroke-opacity:0.2;" x="362.684665" xlink:href="#mb46e1ccdb9" y="147.983143"/>
     <use style="fill:#0000ff;fill-opacity:0.2;stroke:#0000ff;stroke-opacity:0.2;" x="363.74395" xlink:href="#mb46e1ccdb9" y="182.034307"/>
     <use style="fill:#0000ff;fill-opacity:0.2;stroke:#0000ff;stroke-opacity:0.2;" x="364.803235" xlink:href="#mb46e1ccdb9" y="199.059889"/>
     <use style="fill:#0000ff;fill-opacity:0.2;stroke:#0000ff;stroke-opacity:0.2;" x="365.86252" xlink:href="#mb46e1ccdb9" y="147.983143"/>
     <use style="fill:#0000ff;fill-opacity:0.2;stroke:#0000ff;stroke-opacity:0.2;" x="366.921805" xlink:href="#mb46e1ccdb9" y="182.034307"/>
     <use style="fill:#0000ff;fill-opacity:0.2;stroke:#0000ff;stroke-opacity:0.2;" x="367.981091" xlink:href="#mb46e1ccdb9" y="165.008725"/>
     <use style="fill:#0000ff;fill-opacity:0.2;stroke:#0000ff;stroke-opacity:0.2;" x="369.040376" xlink:href="#mb46e1ccdb9" y="165.008725"/>
     <use style="fill:#0000ff;fill-opacity:0.2;stroke:#0000ff;stroke-opacity:0.2;" x="370.099661" xlink:href="#mb46e1ccdb9" y="216.085471"/>
     <use style="fill:#0000ff;fill-opacity:0.2;stroke:#0000ff;stroke-opacity:0.2;" x="371.158946" xlink:href="#mb46e1ccdb9" y="165.008725"/>
     <use style="fill:#0000ff;fill-opacity:0.2;stroke:#0000ff;stroke-opacity:0.2;" x="372.218231" xlink:href="#mb46e1ccdb9" y="147.983143"/>
     <use style="fill:#0000ff;fill-opacity:0.2;stroke:#0000ff;stroke-opacity:0.2;" x="373.277516" xlink:href="#mb46e1ccdb9" y="147.983143"/>
     <use style="fill:#0000ff;fill-opacity:0.2;stroke:#0000ff;stroke-opacity:0.2;" x="374.336801" xlink:href="#mb46e1ccdb9" y="113.93198"/>
     <use style="fill:#0000ff;fill-opacity:0.2;stroke:#0000ff;stroke-opacity:0.2;" x="375.396086" xlink:href="#mb46e1ccdb9" y="130.957561"/>
     <use style="fill:#0000ff;fill-opacity:0.2;stroke:#0000ff;stroke-opacity:0.2;" x="376.455371" xlink:href="#mb46e1ccdb9" y="96.906398"/>
     <use style="fill:#0000ff;fill-opacity:0.2;stroke:#0000ff;stroke-opacity:0.2;" x="377.514657" xlink:href="#mb46e1ccdb9" y="130.957561"/>
     <use style="fill:#0000ff;fill-opacity:0.2;stroke:#0000ff;stroke-opacity:0.2;" x="378.573942" xlink:href="#mb46e1ccdb9" y="199.059889"/>
     <use style="fill:#0000ff;fill-opacity:0.2;stroke:#0000ff;stroke-opacity:0.2;" x="379.633227" xlink:href="#mb46e1ccdb9" y="147.983143"/>
     <use style="fill:#0000ff;fill-opacity:0.2;stroke:#0000ff;stroke-opacity:0.2;" x="380.692512" xlink:href="#mb46e1ccdb9" y="147.983143"/>
     <use style="fill:#0000ff;fill-opacity:0.2;stroke:#0000ff;stroke-opacity:0.2;" x="381.751797" xlink:href="#mb46e1ccdb9" y="165.008725"/>
     <use style="fill:#0000ff;fill-opacity:0.2;stroke:#0000ff;stroke-opacity:0.2;" x="382.811082" xlink:href="#mb46e1ccdb9" y="216.085471"/>
    </g>
   </g>
   <g id="line2d_17">
    <path clip-path="url(#p919f1339d3)" d="M 105.278383 216.085471 
L 117.989804 216.085471 
L 119.049089 213.653245 
L 121.16766 213.653245 
L 123.28623 203.924341 
L 125.4048 203.924341 
L 126.464085 206.356567 
L 128.582655 201.492115 
L 129.641941 206.356567 
L 130.701226 206.356567 
L 131.760511 199.059889 
L 132.819796 194.195437 
L 133.879081 177.169855 
L 134.938366 162.576499 
L 135.997651 138.254239 
L 137.056936 126.093109 
L 138.116221 111.499754 
L 139.175507 111.499754 
L 140.234792 106.635302 
L 141.294077 111.499754 
L 142.353362 106.635302 
L 143.412647 116.364206 
L 144.471932 104.203076 
L 145.531217 104.203076 
L 146.590502 87.177494 
L 147.649787 72.584138 
L 148.709073 65.28746 
L 149.768358 77.44859 
L 150.827643 84.745268 
L 151.886928 101.77085 
L 152.946213 111.499754 
L 154.005498 133.389787 
L 155.064783 147.983143 
L 156.124068 157.712047 
L 157.183353 160.144273 
L 158.242639 165.008725 
L 159.301924 167.440951 
L 162.479779 160.144273 
L 163.539064 169.873177 
L 164.598349 177.169855 
L 165.657634 165.008725 
L 166.716919 160.144273 
L 167.776205 167.440951 
L 168.83549 165.008725 
L 169.894775 167.440951 
L 170.95406 162.576499 
L 172.013345 162.576499 
L 173.07263 179.602081 
L 174.131915 184.466533 
L 175.1912 184.466533 
L 176.250485 191.763211 
L 177.309771 196.627663 
L 178.369056 199.059889 
L 179.428341 199.059889 
L 180.487626 194.195437 
L 182.606196 203.924341 
L 183.665481 199.059889 
L 184.724766 201.492115 
L 187.902622 194.195437 
L 188.961907 194.195437 
L 190.021192 189.330985 
L 191.080477 194.195437 
L 193.199047 194.195437 
L 194.258332 196.627663 
L 195.317617 203.924341 
L 196.376903 201.492115 
L 197.436188 203.924341 
L 199.554758 203.924341 
L 200.614043 206.356567 
L 201.673328 206.356567 
L 202.732613 203.924341 
L 204.851183 208.788793 
L 205.910469 206.356567 
L 208.029039 211.221019 
L 209.088324 211.221019 
L 210.147609 213.653245 
L 212.266179 213.653245 
L 213.325464 216.085471 
L 229.214741 216.085471 
L 230.274026 211.221019 
L 231.333311 211.221019 
L 233.451881 206.356567 
L 235.570452 206.356567 
L 236.629737 203.924341 
L 237.689022 208.788793 
L 238.748307 208.788793 
L 240.866877 213.653245 
L 242.985447 213.653245 
L 244.044733 216.085471 
L 255.696869 216.085471 
L 256.756154 213.653245 
L 262.052579 213.653245 
L 263.111865 208.788793 
L 269.467575 208.788793 
L 270.52686 213.653245 
L 271.586145 216.085471 
L 282.178997 216.085471 
L 283.238282 213.653245 
L 289.593992 213.653245 
L 290.653277 216.085471 
L 291.712563 216.085471 
L 292.771848 213.653245 
L 299.127558 213.653245 
L 300.186843 216.085471 
L 302.305414 216.085471 
L 303.364699 213.653245 
L 308.661124 213.653245 
L 309.720409 211.221019 
L 310.779695 213.653245 
L 311.83898 211.221019 
L 315.016835 211.221019 
L 316.07612 206.356567 
L 322.431831 206.356567 
L 323.491116 211.221019 
L 325.609686 201.492115 
L 326.668971 194.195437 
L 327.728256 191.763211 
L 328.787541 184.466533 
L 329.846827 184.466533 
L 330.906112 179.602081 
L 331.965397 186.898759 
L 333.024682 189.330985 
L 334.083967 196.627663 
L 335.143252 191.763211 
L 336.202537 199.059889 
L 337.261822 194.195437 
L 338.321107 196.627663 
L 339.380393 194.195437 
L 340.439678 196.627663 
L 341.498963 196.627663 
L 342.558248 201.492115 
L 343.617533 201.492115 
L 346.795388 194.195437 
L 347.854673 189.330985 
L 348.913959 182.034307 
L 349.973244 179.602081 
L 351.032529 174.737629 
L 352.091814 177.169855 
L 354.210384 186.898759 
L 355.269669 184.466533 
L 357.388239 189.330985 
L 358.447525 194.195437 
L 360.566095 184.466533 
L 362.684665 179.602081 
L 363.74395 182.034307 
L 364.803235 177.169855 
L 365.86252 169.873177 
L 366.921805 179.602081 
L 367.981091 177.169855 
L 369.040376 169.873177 
L 370.099661 169.873177 
L 371.158946 160.144273 
L 372.218231 155.279821 
L 373.277516 145.550917 
L 374.336801 133.389787 
L 375.396086 138.254239 
L 377.514657 138.254239 
L 378.573942 145.550917 
L 379.633227 157.712047 
L 379.633227 157.712047 
" style="fill:none;stroke:#e60000;stroke-linecap:square;stroke-width:2;"/>
   </g>
   <g id="patch_3">
    <path d="M 88.065 225.449541 
L 88.065 19.44 
" style="fill:none;stroke:#000000;stroke-linecap:square;stroke-linejoin:miter;stroke-width:0.8;"/>
   </g>
   <g id="patch_4">
    <path d="M 396.84661 225.449541 
L 396.84661 19.44 
" style="fill:none;stroke:#000000;stroke-linecap:square;stroke-linejoin:miter;stroke-width:0.8;"/>
   </g>
   <g id="patch_5">
    <path d="M 88.065 225.449541 
L 396.84661 225.449541 
" style="fill:none;stroke:#000000;stroke-linecap:square;stroke-linejoin:miter;stroke-width:0.8;"/>
   </g>
   <g id="patch_6">
    <path d="M 88.065 19.44 
L 396.84661 19.44 
" style="fill:none;stroke:#000000;stroke-linecap:square;stroke-linejoin:miter;stroke-width:0.8;"/>
   </g>
   <g id="legend_1">
    <g id="line2d_18">
     <path d="M 230.950985 37.777812 
L 258.950985 37.777812 
" style="fill:none;stroke:#e60000;stroke-linecap:square;stroke-width:2;"/>
    </g>
    <g id="line2d_19"/>
    <g id="text_17">
     <!-- Weekly Average -->
     <defs>
      <path d="M 3.328125 72.90625 
L 13.28125 72.90625 
L 28.609375 11.28125 
L 43.890625 72.90625 
L 54.984375 72.90625 
L 70.3125 11.28125 
L 85.59375 72.90625 
L 95.609375 72.90625 
L 77.296875 0 
L 64.890625 0 
L 49.515625 63.28125 
L 33.984375 0 
L 21.578125 0 
z
" id="DejaVuSans-87"/>
      <path d="M 9.078125 75.984375 
L 18.109375 75.984375 
L 18.109375 31.109375 
L 44.921875 54.6875 
L 56.390625 54.6875 
L 27.390625 29.109375 
L 57.625 0 
L 45.90625 0 
L 18.109375 26.703125 
L 18.109375 0 
L 9.078125 0 
z
" id="DejaVuSans-107"/>
     </defs>
     <g transform="translate(270.150985 42.677812)scale(0.14 -0.14)">
      <use xlink:href="#DejaVuSans-87"/>
      <use x="98.798828" xlink:href="#DejaVuSans-101"/>
      <use x="160.322266" xlink:href="#DejaVuSans-101"/>
      <use x="221.845703" xlink:href="#DejaVuSans-107"/>
      <use x="279.755859" xlink:href="#DejaVuSans-108"/>
      <use x="307.539062" xlink:href="#DejaVuSans-121"/>
      <use x="366.71875" xlink:href="#DejaVuSans-32"/>
      <use x="398.505859" xlink:href="#DejaVuSans-65"/>
      <use x="466.835938" xlink:href="#DejaVuSans-118"/>
      <use x="526.015625" xlink:href="#DejaVuSans-101"/>
      <use x="587.539062" xlink:href="#DejaVuSans-114"/>
      <use x="628.652344" xlink:href="#DejaVuSans-97"/>
      <use x="689.931641" xlink:href="#DejaVuSans-103"/>
      <use x="753.408203" xlink:href="#DejaVuSans-101"/>
     </g>
    </g>
   </g>
  </g>
 </g>
 <defs>
  <clipPath id="p919f1339d3">
   <rect height="206.009541" width="308.78161" x="88.065" y="19.44"/>
  </clipPath>
 </defs>
</svg>
