<?xml version="1.0" encoding="utf-8" standalone="no"?>
<!DOCTYPE svg PUBLIC "-//W3C//DTD SVG 1.1//EN"
  "http://www.w3.org/Graphics/SVG/1.1/DTD/svg11.dtd">
<!-- Created with matplotlib (https://matplotlib.org/) -->
<svg height="288pt" version="1.1" viewBox="0 0 432 288" width="432pt" xmlns="http://www.w3.org/2000/svg" xmlns:xlink="http://www.w3.org/1999/xlink">
 <defs>
  <style type="text/css">
*{stroke-linecap:butt;stroke-linejoin:round;}
  </style>
 </defs>
 <g id="figure_1">
  <g id="patch_1">
   <path d="M 0 288 
L 432 288 
L 432 0 
L 0 0 
z
" style="fill:#ffffff;"/>
  </g>
  <g id="axes_1">
   <g id="patch_2">
    <path d="M 57.745 237.778155 
L 416.88 237.778155 
L 416.88 15.12 
L 57.745 15.12 
z
" style="fill:#ffffff;"/>
   </g>
   <g id="matplotlib.axis_1">
    <g id="xtick_1">
     <g id="line2d_1">
      <defs>
       <path d="M 0 0 
L 0 3.5 
" id="m7c1424e285" style="stroke:#000000;stroke-width:0.8;"/>
      </defs>
      <g>
       <use style="stroke:#000000;stroke-width:0.8;" x="74.069318" xlink:href="#m7c1424e285" y="237.778155"/>
      </g>
     </g>
     <g id="text_1">
      <!-- Mar -->
      <defs>
       <path d="M 9.8125 72.90625 
L 24.515625 72.90625 
L 43.109375 23.296875 
L 61.8125 72.90625 
L 76.515625 72.90625 
L 76.515625 0 
L 66.890625 0 
L 66.890625 64.015625 
L 48.09375 14.015625 
L 38.1875 14.015625 
L 19.390625 64.015625 
L 19.390625 0 
L 9.8125 0 
z
" id="DejaVuSans-77"/>
       <path d="M 34.28125 27.484375 
Q 23.390625 27.484375 19.1875 25 
Q 14.984375 22.515625 14.984375 16.5 
Q 14.984375 11.71875 18.140625 8.90625 
Q 21.296875 6.109375 26.703125 6.109375 
Q 34.1875 6.109375 38.703125 11.40625 
Q 43.21875 16.703125 43.21875 25.484375 
L 43.21875 27.484375 
z
M 52.203125 31.203125 
L 52.203125 0 
L 43.21875 0 
L 43.21875 8.296875 
Q 40.140625 3.328125 35.546875 0.953125 
Q 30.953125 -1.421875 24.3125 -1.421875 
Q 15.921875 -1.421875 10.953125 3.296875 
Q 6 8.015625 6 15.921875 
Q 6 25.140625 12.171875 29.828125 
Q 18.359375 34.515625 30.609375 34.515625 
L 43.21875 34.515625 
L 43.21875 35.40625 
Q 43.21875 41.609375 39.140625 45 
Q 35.0625 48.390625 27.6875 48.390625 
Q 23 48.390625 18.546875 47.265625 
Q 14.109375 46.140625 10.015625 43.890625 
L 10.015625 52.203125 
Q 14.9375 54.109375 19.578125 55.046875 
Q 24.21875 56 28.609375 56 
Q 40.484375 56 46.34375 49.84375 
Q 52.203125 43.703125 52.203125 31.203125 
z
" id="DejaVuSans-97"/>
       <path d="M 41.109375 46.296875 
Q 39.59375 47.171875 37.8125 47.578125 
Q 36.03125 48 33.890625 48 
Q 26.265625 48 22.1875 43.046875 
Q 18.109375 38.09375 18.109375 28.8125 
L 18.109375 0 
L 9.078125 0 
L 9.078125 54.6875 
L 18.109375 54.6875 
L 18.109375 46.1875 
Q 20.953125 51.171875 25.484375 53.578125 
Q 30.03125 56 36.53125 56 
Q 37.453125 56 38.578125 55.875 
Q 39.703125 55.765625 41.0625 55.515625 
z
" id="DejaVuSans-114"/>
      </defs>
      <g transform="translate(65.466549 268.642624)rotate(-35)scale(0.14 -0.14)">
       <use xlink:href="#DejaVuSans-77"/>
       <use x="86.279297" xlink:href="#DejaVuSans-97"/>
       <use x="147.558594" xlink:href="#DejaVuSans-114"/>
      </g>
     </g>
    </g>
    <g id="xtick_2">
     <g id="line2d_2">
      <g>
       <use style="stroke:#000000;stroke-width:0.8;" x="106.098044" xlink:href="#m7c1424e285" y="237.778155"/>
      </g>
     </g>
     <g id="text_2">
      <!-- Apr -->
      <defs>
       <path d="M 34.1875 63.1875 
L 20.796875 26.90625 
L 47.609375 26.90625 
z
M 28.609375 72.90625 
L 39.796875 72.90625 
L 67.578125 0 
L 57.328125 0 
L 50.6875 18.703125 
L 17.828125 18.703125 
L 11.1875 0 
L 0.78125 0 
z
" id="DejaVuSans-65"/>
       <path d="M 18.109375 8.203125 
L 18.109375 -20.796875 
L 9.078125 -20.796875 
L 9.078125 54.6875 
L 18.109375 54.6875 
L 18.109375 46.390625 
Q 20.953125 51.265625 25.265625 53.625 
Q 29.59375 56 35.59375 56 
Q 45.5625 56 51.78125 48.09375 
Q 58.015625 40.1875 58.015625 27.296875 
Q 58.015625 14.40625 51.78125 6.484375 
Q 45.5625 -1.421875 35.59375 -1.421875 
Q 29.59375 -1.421875 25.265625 0.953125 
Q 20.953125 3.328125 18.109375 8.203125 
z
M 48.6875 27.296875 
Q 48.6875 37.203125 44.609375 42.84375 
Q 40.53125 48.484375 33.40625 48.484375 
Q 26.265625 48.484375 22.1875 42.84375 
Q 18.109375 37.203125 18.109375 27.296875 
Q 18.109375 17.390625 22.1875 11.75 
Q 26.265625 6.109375 33.40625 6.109375 
Q 40.53125 6.109375 44.609375 11.75 
Q 48.6875 17.390625 48.6875 27.296875 
z
" id="DejaVuSans-112"/>
      </defs>
      <g transform="translate(98.39391 267.384162)rotate(-35)scale(0.14 -0.14)">
       <use xlink:href="#DejaVuSans-65"/>
       <use x="68.408203" xlink:href="#DejaVuSans-112"/>
       <use x="131.884766" xlink:href="#DejaVuSans-114"/>
      </g>
     </g>
    </g>
    <g id="xtick_3">
     <g id="line2d_3">
      <g>
       <use style="stroke:#000000;stroke-width:0.8;" x="137.093585" xlink:href="#m7c1424e285" y="237.778155"/>
      </g>
     </g>
     <g id="text_3">
      <!-- May -->
      <defs>
       <path d="M 32.171875 -5.078125 
Q 28.375 -14.84375 24.75 -17.8125 
Q 21.140625 -20.796875 15.09375 -20.796875 
L 7.90625 -20.796875 
L 7.90625 -13.28125 
L 13.1875 -13.28125 
Q 16.890625 -13.28125 18.9375 -11.515625 
Q 21 -9.765625 23.484375 -3.21875 
L 25.09375 0.875 
L 2.984375 54.6875 
L 12.5 54.6875 
L 29.59375 11.921875 
L 46.6875 54.6875 
L 56.203125 54.6875 
z
" id="DejaVuSans-121"/>
      </defs>
      <g transform="translate(127.454204 270.094311)rotate(-35)scale(0.14 -0.14)">
       <use xlink:href="#DejaVuSans-77"/>
       <use x="86.279297" xlink:href="#DejaVuSans-97"/>
       <use x="147.558594" xlink:href="#DejaVuSans-121"/>
      </g>
     </g>
    </g>
    <g id="xtick_4">
     <g id="line2d_4">
      <g>
       <use style="stroke:#000000;stroke-width:0.8;" x="169.12231" xlink:href="#m7c1424e285" y="237.778155"/>
      </g>
     </g>
     <g id="text_4">
      <!-- Jun -->
      <defs>
       <path d="M 9.8125 72.90625 
L 19.671875 72.90625 
L 19.671875 5.078125 
Q 19.671875 -8.109375 14.671875 -14.0625 
Q 9.671875 -20.015625 -1.421875 -20.015625 
L -5.171875 -20.015625 
L -5.171875 -11.71875 
L -2.09375 -11.71875 
Q 4.4375 -11.71875 7.125 -8.046875 
Q 9.8125 -4.390625 9.8125 5.078125 
z
" id="DejaVuSans-74"/>
       <path d="M 8.5 21.578125 
L 8.5 54.6875 
L 17.484375 54.6875 
L 17.484375 21.921875 
Q 17.484375 14.15625 20.5 10.265625 
Q 23.53125 6.390625 29.59375 6.390625 
Q 36.859375 6.390625 41.078125 11.03125 
Q 45.3125 15.671875 45.3125 23.6875 
L 45.3125 54.6875 
L 54.296875 54.6875 
L 54.296875 0 
L 45.3125 0 
L 45.3125 8.40625 
Q 42.046875 3.421875 37.71875 1 
Q 33.40625 -1.421875 27.6875 -1.421875 
Q 18.265625 -1.421875 13.375 4.4375 
Q 8.5 10.296875 8.5 21.578125 
z
M 31.109375 56 
z
" id="DejaVuSans-117"/>
       <path d="M 54.890625 33.015625 
L 54.890625 0 
L 45.90625 0 
L 45.90625 32.71875 
Q 45.90625 40.484375 42.875 44.328125 
Q 39.84375 48.1875 33.796875 48.1875 
Q 26.515625 48.1875 22.3125 43.546875 
Q 18.109375 38.921875 18.109375 30.90625 
L 18.109375 0 
L 9.078125 0 
L 9.078125 54.6875 
L 18.109375 54.6875 
L 18.109375 46.1875 
Q 21.34375 51.125 25.703125 53.5625 
Q 30.078125 56 35.796875 56 
Q 45.21875 56 50.046875 50.171875 
Q 54.890625 44.34375 54.890625 33.015625 
z
" id="DejaVuSans-110"/>
      </defs>
      <g transform="translate(162.378632 266.039125)rotate(-35)scale(0.14 -0.14)">
       <use xlink:href="#DejaVuSans-74"/>
       <use x="29.492188" xlink:href="#DejaVuSans-117"/>
       <use x="92.871094" xlink:href="#DejaVuSans-110"/>
      </g>
     </g>
    </g>
    <g id="xtick_5">
     <g id="line2d_5">
      <g>
       <use style="stroke:#000000;stroke-width:0.8;" x="200.117851" xlink:href="#m7c1424e285" y="237.778155"/>
      </g>
     </g>
     <g id="text_5">
      <!-- Jul -->
      <defs>
       <path d="M 9.421875 75.984375 
L 18.40625 75.984375 
L 18.40625 0 
L 9.421875 0 
z
" id="DejaVuSans-108"/>
      </defs>
      <g transform="translate(195.415141 263.180922)rotate(-35)scale(0.14 -0.14)">
       <use xlink:href="#DejaVuSans-74"/>
       <use x="29.492188" xlink:href="#DejaVuSans-117"/>
       <use x="92.871094" xlink:href="#DejaVuSans-108"/>
      </g>
     </g>
    </g>
    <g id="xtick_6">
     <g id="line2d_6">
      <g>
       <use style="stroke:#000000;stroke-width:0.8;" x="232.146577" xlink:href="#m7c1424e285" y="237.778155"/>
      </g>
     </g>
     <g id="text_6">
      <!-- Aug -->
      <defs>
       <path d="M 45.40625 27.984375 
Q 45.40625 37.75 41.375 43.109375 
Q 37.359375 48.484375 30.078125 48.484375 
Q 22.859375 48.484375 18.828125 43.109375 
Q 14.796875 37.75 14.796875 27.984375 
Q 14.796875 18.265625 18.828125 12.890625 
Q 22.859375 7.515625 30.078125 7.515625 
Q 37.359375 7.515625 41.375 12.890625 
Q 45.40625 18.265625 45.40625 27.984375 
z
M 54.390625 6.78125 
Q 54.390625 -7.171875 48.1875 -13.984375 
Q 42 -20.796875 29.203125 -20.796875 
Q 24.46875 -20.796875 20.265625 -20.09375 
Q 16.0625 -19.390625 12.109375 -17.921875 
L 12.109375 -9.1875 
Q 16.0625 -11.328125 19.921875 -12.34375 
Q 23.78125 -13.375 27.78125 -13.375 
Q 36.625 -13.375 41.015625 -8.765625 
Q 45.40625 -4.15625 45.40625 5.171875 
L 45.40625 9.625 
Q 42.625 4.78125 38.28125 2.390625 
Q 33.9375 0 27.875 0 
Q 17.828125 0 11.671875 7.65625 
Q 5.515625 15.328125 5.515625 27.984375 
Q 5.515625 40.671875 11.671875 48.328125 
Q 17.828125 56 27.875 56 
Q 33.9375 56 38.28125 53.609375 
Q 42.625 51.21875 45.40625 46.390625 
L 45.40625 54.6875 
L 54.390625 54.6875 
z
" id="DejaVuSans-103"/>
      </defs>
      <g transform="translate(223.165717 269.172107)rotate(-35)scale(0.14 -0.14)">
       <use xlink:href="#DejaVuSans-65"/>
       <use x="68.408203" xlink:href="#DejaVuSans-117"/>
       <use x="131.787109" xlink:href="#DejaVuSans-103"/>
      </g>
     </g>
    </g>
    <g id="xtick_7">
     <g id="line2d_7">
      <g>
       <use style="stroke:#000000;stroke-width:0.8;" x="264.175302" xlink:href="#m7c1424e285" y="237.778155"/>
      </g>
     </g>
     <g id="text_7">
      <!-- Sep -->
      <defs>
       <path d="M 53.515625 70.515625 
L 53.515625 60.890625 
Q 47.90625 63.578125 42.921875 64.890625 
Q 37.9375 66.21875 33.296875 66.21875 
Q 25.25 66.21875 20.875 63.09375 
Q 16.5 59.96875 16.5 54.203125 
Q 16.5 49.359375 19.40625 46.890625 
Q 22.3125 44.4375 30.421875 42.921875 
L 36.375 41.703125 
Q 47.40625 39.59375 52.65625 34.296875 
Q 57.90625 29 57.90625 20.125 
Q 57.90625 9.515625 50.796875 4.046875 
Q 43.703125 -1.421875 29.984375 -1.421875 
Q 24.8125 -1.421875 18.96875 -0.25 
Q 13.140625 0.921875 6.890625 3.21875 
L 6.890625 13.375 
Q 12.890625 10.015625 18.65625 8.296875 
Q 24.421875 6.59375 29.984375 6.59375 
Q 38.421875 6.59375 43.015625 9.90625 
Q 47.609375 13.234375 47.609375 19.390625 
Q 47.609375 24.75 44.3125 27.78125 
Q 41.015625 30.8125 33.5 32.328125 
L 27.484375 33.5 
Q 16.453125 35.6875 11.515625 40.375 
Q 6.59375 45.0625 6.59375 53.421875 
Q 6.59375 63.09375 13.40625 68.65625 
Q 20.21875 74.21875 32.171875 74.21875 
Q 37.3125 74.21875 42.625 73.28125 
Q 47.953125 72.359375 53.515625 70.515625 
z
" id="DejaVuSans-83"/>
       <path d="M 56.203125 29.59375 
L 56.203125 25.203125 
L 14.890625 25.203125 
Q 15.484375 15.921875 20.484375 11.0625 
Q 25.484375 6.203125 34.421875 6.203125 
Q 39.59375 6.203125 44.453125 7.46875 
Q 49.3125 8.734375 54.109375 11.28125 
L 54.109375 2.78125 
Q 49.265625 0.734375 44.1875 -0.34375 
Q 39.109375 -1.421875 33.890625 -1.421875 
Q 20.796875 -1.421875 13.15625 6.1875 
Q 5.515625 13.8125 5.515625 26.8125 
Q 5.515625 40.234375 12.765625 48.109375 
Q 20.015625 56 32.328125 56 
Q 43.359375 56 49.78125 48.890625 
Q 56.203125 41.796875 56.203125 29.59375 
z
M 47.21875 32.234375 
Q 47.125 39.59375 43.09375 43.984375 
Q 39.0625 48.390625 32.421875 48.390625 
Q 24.90625 48.390625 20.390625 44.140625 
Q 15.875 39.890625 15.1875 32.171875 
z
" id="DejaVuSans-101"/>
      </defs>
      <g transform="translate(255.582388 268.628823)rotate(-35)scale(0.14 -0.14)">
       <use xlink:href="#DejaVuSans-83"/>
       <use x="63.476562" xlink:href="#DejaVuSans-101"/>
       <use x="125" xlink:href="#DejaVuSans-112"/>
      </g>
     </g>
    </g>
    <g id="xtick_8">
     <g id="line2d_8">
      <g>
       <use style="stroke:#000000;stroke-width:0.8;" x="295.170843" xlink:href="#m7c1424e285" y="237.778155"/>
      </g>
     </g>
     <g id="text_8">
      <!-- Oct -->
      <defs>
       <path d="M 39.40625 66.21875 
Q 28.65625 66.21875 22.328125 58.203125 
Q 16.015625 50.203125 16.015625 36.375 
Q 16.015625 22.609375 22.328125 14.59375 
Q 28.65625 6.59375 39.40625 6.59375 
Q 50.140625 6.59375 56.421875 14.59375 
Q 62.703125 22.609375 62.703125 36.375 
Q 62.703125 50.203125 56.421875 58.203125 
Q 50.140625 66.21875 39.40625 66.21875 
z
M 39.40625 74.21875 
Q 54.734375 74.21875 63.90625 63.9375 
Q 73.09375 53.65625 73.09375 36.375 
Q 73.09375 19.140625 63.90625 8.859375 
Q 54.734375 -1.421875 39.40625 -1.421875 
Q 24.03125 -1.421875 14.8125 8.828125 
Q 5.609375 19.09375 5.609375 36.375 
Q 5.609375 53.65625 14.8125 63.9375 
Q 24.03125 74.21875 39.40625 74.21875 
z
" id="DejaVuSans-79"/>
       <path d="M 48.78125 52.59375 
L 48.78125 44.1875 
Q 44.96875 46.296875 41.140625 47.34375 
Q 37.3125 48.390625 33.40625 48.390625 
Q 24.65625 48.390625 19.8125 42.84375 
Q 14.984375 37.3125 14.984375 27.296875 
Q 14.984375 17.28125 19.8125 11.734375 
Q 24.65625 6.203125 33.40625 6.203125 
Q 37.3125 6.203125 41.140625 7.25 
Q 44.96875 8.296875 48.78125 10.40625 
L 48.78125 2.09375 
Q 45.015625 0.34375 40.984375 -0.53125 
Q 36.96875 -1.421875 32.421875 -1.421875 
Q 20.0625 -1.421875 12.78125 6.34375 
Q 5.515625 14.109375 5.515625 27.296875 
Q 5.515625 40.671875 12.859375 48.328125 
Q 20.21875 56 33.015625 56 
Q 37.15625 56 41.109375 55.140625 
Q 45.0625 54.296875 48.78125 52.59375 
z
" id="DejaVuSans-99"/>
       <path d="M 18.3125 70.21875 
L 18.3125 54.6875 
L 36.8125 54.6875 
L 36.8125 47.703125 
L 18.3125 47.703125 
L 18.3125 18.015625 
Q 18.3125 11.328125 20.140625 9.421875 
Q 21.96875 7.515625 27.59375 7.515625 
L 36.8125 7.515625 
L 36.8125 0 
L 27.59375 0 
Q 17.1875 0 13.234375 3.875 
Q 9.28125 7.765625 9.28125 18.015625 
L 9.28125 47.703125 
L 2.6875 47.703125 
L 2.6875 54.6875 
L 9.28125 54.6875 
L 9.28125 70.21875 
z
" id="DejaVuSans-116"/>
      </defs>
      <g transform="translate(287.472085 267.376634)rotate(-35)scale(0.14 -0.14)">
       <use xlink:href="#DejaVuSans-79"/>
       <use x="78.710938" xlink:href="#DejaVuSans-99"/>
       <use x="133.691406" xlink:href="#DejaVuSans-116"/>
      </g>
     </g>
    </g>
    <g id="xtick_9">
     <g id="line2d_9">
      <g>
       <use style="stroke:#000000;stroke-width:0.8;" x="327.199568" xlink:href="#m7c1424e285" y="237.778155"/>
      </g>
     </g>
     <g id="text_9">
      <!-- Nov -->
      <defs>
       <path d="M 9.8125 72.90625 
L 23.09375 72.90625 
L 55.421875 11.921875 
L 55.421875 72.90625 
L 64.984375 72.90625 
L 64.984375 0 
L 51.703125 0 
L 19.390625 60.984375 
L 19.390625 0 
L 9.8125 0 
z
" id="DejaVuSans-78"/>
       <path d="M 30.609375 48.390625 
Q 23.390625 48.390625 19.1875 42.75 
Q 14.984375 37.109375 14.984375 27.296875 
Q 14.984375 17.484375 19.15625 11.84375 
Q 23.34375 6.203125 30.609375 6.203125 
Q 37.796875 6.203125 41.984375 11.859375 
Q 46.1875 17.53125 46.1875 27.296875 
Q 46.1875 37.015625 41.984375 42.703125 
Q 37.796875 48.390625 30.609375 48.390625 
z
M 30.609375 56 
Q 42.328125 56 49.015625 48.375 
Q 55.71875 40.765625 55.71875 27.296875 
Q 55.71875 13.875 49.015625 6.21875 
Q 42.328125 -1.421875 30.609375 -1.421875 
Q 18.84375 -1.421875 12.171875 6.21875 
Q 5.515625 13.875 5.515625 27.296875 
Q 5.515625 40.765625 12.171875 48.375 
Q 18.84375 56 30.609375 56 
z
" id="DejaVuSans-111"/>
       <path d="M 2.984375 54.6875 
L 12.5 54.6875 
L 29.59375 8.796875 
L 46.6875 54.6875 
L 56.203125 54.6875 
L 35.6875 0 
L 23.484375 0 
z
" id="DejaVuSans-118"/>
      </defs>
      <g transform="translate(318.223189 269.165834)rotate(-35)scale(0.14 -0.14)">
       <use xlink:href="#DejaVuSans-78"/>
       <use x="74.804688" xlink:href="#DejaVuSans-111"/>
       <use x="135.986328" xlink:href="#DejaVuSans-118"/>
      </g>
     </g>
    </g>
    <g id="xtick_10">
     <g id="line2d_10">
      <g>
       <use style="stroke:#000000;stroke-width:0.8;" x="358.195109" xlink:href="#m7c1424e285" y="237.778155"/>
      </g>
     </g>
     <g id="text_10">
      <!-- Dec -->
      <defs>
       <path d="M 19.671875 64.796875 
L 19.671875 8.109375 
L 31.59375 8.109375 
Q 46.6875 8.109375 53.6875 14.9375 
Q 60.6875 21.78125 60.6875 36.53125 
Q 60.6875 51.171875 53.6875 57.984375 
Q 46.6875 64.796875 31.59375 64.796875 
z
M 9.8125 72.90625 
L 30.078125 72.90625 
Q 51.265625 72.90625 61.171875 64.09375 
Q 71.09375 55.28125 71.09375 36.53125 
Q 71.09375 17.671875 61.125 8.828125 
Q 51.171875 0 30.078125 0 
L 9.8125 0 
z
" id="DejaVuSans-68"/>
      </defs>
      <g transform="translate(349.314596 269.031581)rotate(-35)scale(0.14 -0.14)">
       <use xlink:href="#DejaVuSans-68"/>
       <use x="77.001953" xlink:href="#DejaVuSans-101"/>
       <use x="138.525391" xlink:href="#DejaVuSans-99"/>
      </g>
     </g>
    </g>
    <g id="xtick_11">
     <g id="line2d_11">
      <g>
       <use style="stroke:#000000;stroke-width:0.8;" x="390.223835" xlink:href="#m7c1424e285" y="237.778155"/>
      </g>
     </g>
     <g id="text_11">
      <!-- Jan -->
      <g transform="translate(383.600214 265.870996)rotate(-35)scale(0.14 -0.14)">
       <use xlink:href="#DejaVuSans-74"/>
       <use x="29.492188" xlink:href="#DejaVuSans-97"/>
       <use x="90.771484" xlink:href="#DejaVuSans-110"/>
      </g>
     </g>
    </g>
   </g>
   <g id="matplotlib.axis_2">
    <g id="ytick_1">
     <g id="line2d_12">
      <defs>
       <path d="M 0 0 
L -3.5 0 
" id="m4185aa1cf9" style="stroke:#000000;stroke-width:0.8;"/>
      </defs>
      <g>
       <use style="stroke:#000000;stroke-width:0.8;" x="57.745" xlink:href="#m4185aa1cf9" y="227.65733"/>
      </g>
     </g>
     <g id="text_12">
      <!-- 0 -->
      <defs>
       <path d="M 31.78125 66.40625 
Q 24.171875 66.40625 20.328125 58.90625 
Q 16.5 51.421875 16.5 36.375 
Q 16.5 21.390625 20.328125 13.890625 
Q 24.171875 6.390625 31.78125 6.390625 
Q 39.453125 6.390625 43.28125 13.890625 
Q 47.125 21.390625 47.125 36.375 
Q 47.125 51.421875 43.28125 58.90625 
Q 39.453125 66.40625 31.78125 66.40625 
z
M 31.78125 74.21875 
Q 44.046875 74.21875 50.515625 64.515625 
Q 56.984375 54.828125 56.984375 36.375 
Q 56.984375 17.96875 50.515625 8.265625 
Q 44.046875 -1.421875 31.78125 -1.421875 
Q 19.53125 -1.421875 13.0625 8.265625 
Q 6.59375 17.96875 6.59375 36.375 
Q 6.59375 54.828125 13.0625 64.515625 
Q 19.53125 74.21875 31.78125 74.21875 
z
" id="DejaVuSans-48"/>
      </defs>
      <g transform="translate(41.8375 232.976236)scale(0.14 -0.14)">
       <use xlink:href="#DejaVuSans-48"/>
      </g>
     </g>
    </g>
    <g id="ytick_2">
     <g id="line2d_13">
      <g>
       <use style="stroke:#000000;stroke-width:0.8;" x="57.745" xlink:href="#m4185aa1cf9" y="190.854329"/>
      </g>
     </g>
     <g id="text_13">
      <!-- 2 -->
      <defs>
       <path d="M 19.1875 8.296875 
L 53.609375 8.296875 
L 53.609375 0 
L 7.328125 0 
L 7.328125 8.296875 
Q 12.9375 14.109375 22.625 23.890625 
Q 32.328125 33.6875 34.8125 36.53125 
Q 39.546875 41.84375 41.421875 45.53125 
Q 43.3125 49.21875 43.3125 52.78125 
Q 43.3125 58.59375 39.234375 62.25 
Q 35.15625 65.921875 28.609375 65.921875 
Q 23.96875 65.921875 18.8125 64.3125 
Q 13.671875 62.703125 7.8125 59.421875 
L 7.8125 69.390625 
Q 13.765625 71.78125 18.9375 73 
Q 24.125 74.21875 28.421875 74.21875 
Q 39.75 74.21875 46.484375 68.546875 
Q 53.21875 62.890625 53.21875 53.421875 
Q 53.21875 48.921875 51.53125 44.890625 
Q 49.859375 40.875 45.40625 35.40625 
Q 44.1875 33.984375 37.640625 27.21875 
Q 31.109375 20.453125 19.1875 8.296875 
z
" id="DejaVuSans-50"/>
      </defs>
      <g transform="translate(41.8375 196.173235)scale(0.14 -0.14)">
       <use xlink:href="#DejaVuSans-50"/>
      </g>
     </g>
    </g>
    <g id="ytick_3">
     <g id="line2d_14">
      <g>
       <use style="stroke:#000000;stroke-width:0.8;" x="57.745" xlink:href="#m4185aa1cf9" y="154.051328"/>
      </g>
     </g>
     <g id="text_14">
      <!-- 4 -->
      <defs>
       <path d="M 37.796875 64.3125 
L 12.890625 25.390625 
L 37.796875 25.390625 
z
M 35.203125 72.90625 
L 47.609375 72.90625 
L 47.609375 25.390625 
L 58.015625 25.390625 
L 58.015625 17.1875 
L 47.609375 17.1875 
L 47.609375 0 
L 37.796875 0 
L 37.796875 17.1875 
L 4.890625 17.1875 
L 4.890625 26.703125 
z
" id="DejaVuSans-52"/>
      </defs>
      <g transform="translate(41.8375 159.370234)scale(0.14 -0.14)">
       <use xlink:href="#DejaVuSans-52"/>
      </g>
     </g>
    </g>
    <g id="ytick_4">
     <g id="line2d_15">
      <g>
       <use style="stroke:#000000;stroke-width:0.8;" x="57.745" xlink:href="#m4185aa1cf9" y="117.248327"/>
      </g>
     </g>
     <g id="text_15">
      <!-- 6 -->
      <defs>
       <path d="M 33.015625 40.375 
Q 26.375 40.375 22.484375 35.828125 
Q 18.609375 31.296875 18.609375 23.390625 
Q 18.609375 15.53125 22.484375 10.953125 
Q 26.375 6.390625 33.015625 6.390625 
Q 39.65625 6.390625 43.53125 10.953125 
Q 47.40625 15.53125 47.40625 23.390625 
Q 47.40625 31.296875 43.53125 35.828125 
Q 39.65625 40.375 33.015625 40.375 
z
M 52.59375 71.296875 
L 52.59375 62.3125 
Q 48.875 64.0625 45.09375 64.984375 
Q 41.3125 65.921875 37.59375 65.921875 
Q 27.828125 65.921875 22.671875 59.328125 
Q 17.53125 52.734375 16.796875 39.40625 
Q 19.671875 43.65625 24.015625 45.921875 
Q 28.375 48.1875 33.59375 48.1875 
Q 44.578125 48.1875 50.953125 41.515625 
Q 57.328125 34.859375 57.328125 23.390625 
Q 57.328125 12.15625 50.6875 5.359375 
Q 44.046875 -1.421875 33.015625 -1.421875 
Q 20.359375 -1.421875 13.671875 8.265625 
Q 6.984375 17.96875 6.984375 36.375 
Q 6.984375 53.65625 15.1875 63.9375 
Q 23.390625 74.21875 37.203125 74.21875 
Q 40.921875 74.21875 44.703125 73.484375 
Q 48.484375 72.75 52.59375 71.296875 
z
" id="DejaVuSans-54"/>
      </defs>
      <g transform="translate(41.8375 122.567233)scale(0.14 -0.14)">
       <use xlink:href="#DejaVuSans-54"/>
      </g>
     </g>
    </g>
    <g id="ytick_5">
     <g id="line2d_16">
      <g>
       <use style="stroke:#000000;stroke-width:0.8;" x="57.745" xlink:href="#m4185aa1cf9" y="80.445326"/>
      </g>
     </g>
     <g id="text_16">
      <!-- 8 -->
      <defs>
       <path d="M 31.78125 34.625 
Q 24.75 34.625 20.71875 30.859375 
Q 16.703125 27.09375 16.703125 20.515625 
Q 16.703125 13.921875 20.71875 10.15625 
Q 24.75 6.390625 31.78125 6.390625 
Q 38.8125 6.390625 42.859375 10.171875 
Q 46.921875 13.96875 46.921875 20.515625 
Q 46.921875 27.09375 42.890625 30.859375 
Q 38.875 34.625 31.78125 34.625 
z
M 21.921875 38.8125 
Q 15.578125 40.375 12.03125 44.71875 
Q 8.5 49.078125 8.5 55.328125 
Q 8.5 64.0625 14.71875 69.140625 
Q 20.953125 74.21875 31.78125 74.21875 
Q 42.671875 74.21875 48.875 69.140625 
Q 55.078125 64.0625 55.078125 55.328125 
Q 55.078125 49.078125 51.53125 44.71875 
Q 48 40.375 41.703125 38.8125 
Q 48.828125 37.15625 52.796875 32.3125 
Q 56.78125 27.484375 56.78125 20.515625 
Q 56.78125 9.90625 50.3125 4.234375 
Q 43.84375 -1.421875 31.78125 -1.421875 
Q 19.734375 -1.421875 13.25 4.234375 
Q 6.78125 9.90625 6.78125 20.515625 
Q 6.78125 27.484375 10.78125 32.3125 
Q 14.796875 37.15625 21.921875 38.8125 
z
M 18.3125 54.390625 
Q 18.3125 48.734375 21.84375 45.5625 
Q 25.390625 42.390625 31.78125 42.390625 
Q 38.140625 42.390625 41.71875 45.5625 
Q 45.3125 48.734375 45.3125 54.390625 
Q 45.3125 60.0625 41.71875 63.234375 
Q 38.140625 66.40625 31.78125 66.40625 
Q 25.390625 66.40625 21.84375 63.234375 
Q 18.3125 60.0625 18.3125 54.390625 
z
" id="DejaVuSans-56"/>
      </defs>
      <g transform="translate(41.8375 85.764233)scale(0.14 -0.14)">
       <use xlink:href="#DejaVuSans-56"/>
      </g>
     </g>
    </g>
    <g id="ytick_6">
     <g id="line2d_17">
      <g>
       <use style="stroke:#000000;stroke-width:0.8;" x="57.745" xlink:href="#m4185aa1cf9" y="43.642326"/>
      </g>
     </g>
     <g id="text_17">
      <!-- 10 -->
      <defs>
       <path d="M 12.40625 8.296875 
L 28.515625 8.296875 
L 28.515625 63.921875 
L 10.984375 60.40625 
L 10.984375 69.390625 
L 28.421875 72.90625 
L 38.28125 72.90625 
L 38.28125 8.296875 
L 54.390625 8.296875 
L 54.390625 0 
L 12.40625 0 
z
" id="DejaVuSans-49"/>
      </defs>
      <g transform="translate(32.93 48.961232)scale(0.14 -0.14)">
       <use xlink:href="#DejaVuSans-49"/>
       <use x="63.623047" xlink:href="#DejaVuSans-48"/>
      </g>
     </g>
    </g>
    <g id="text_18">
     <!-- Daily Covid-19 Deaths -->
     <defs>
      <path d="M 9.421875 54.6875 
L 18.40625 54.6875 
L 18.40625 0 
L 9.421875 0 
z
M 9.421875 75.984375 
L 18.40625 75.984375 
L 18.40625 64.59375 
L 9.421875 64.59375 
z
" id="DejaVuSans-105"/>
      <path id="DejaVuSans-32"/>
      <path d="M 64.40625 67.28125 
L 64.40625 56.890625 
Q 59.421875 61.53125 53.78125 63.8125 
Q 48.140625 66.109375 41.796875 66.109375 
Q 29.296875 66.109375 22.65625 58.46875 
Q 16.015625 50.828125 16.015625 36.375 
Q 16.015625 21.96875 22.65625 14.328125 
Q 29.296875 6.6875 41.796875 6.6875 
Q 48.140625 6.6875 53.78125 8.984375 
Q 59.421875 11.28125 64.40625 15.921875 
L 64.40625 5.609375 
Q 59.234375 2.09375 53.4375 0.328125 
Q 47.65625 -1.421875 41.21875 -1.421875 
Q 24.65625 -1.421875 15.125 8.703125 
Q 5.609375 18.84375 5.609375 36.375 
Q 5.609375 53.953125 15.125 64.078125 
Q 24.65625 74.21875 41.21875 74.21875 
Q 47.75 74.21875 53.53125 72.484375 
Q 59.328125 70.75 64.40625 67.28125 
z
" id="DejaVuSans-67"/>
      <path d="M 45.40625 46.390625 
L 45.40625 75.984375 
L 54.390625 75.984375 
L 54.390625 0 
L 45.40625 0 
L 45.40625 8.203125 
Q 42.578125 3.328125 38.25 0.953125 
Q 33.9375 -1.421875 27.875 -1.421875 
Q 17.96875 -1.421875 11.734375 6.484375 
Q 5.515625 14.40625 5.515625 27.296875 
Q 5.515625 40.1875 11.734375 48.09375 
Q 17.96875 56 27.875 56 
Q 33.9375 56 38.25 53.625 
Q 42.578125 51.265625 45.40625 46.390625 
z
M 14.796875 27.296875 
Q 14.796875 17.390625 18.875 11.75 
Q 22.953125 6.109375 30.078125 6.109375 
Q 37.203125 6.109375 41.296875 11.75 
Q 45.40625 17.390625 45.40625 27.296875 
Q 45.40625 37.203125 41.296875 42.84375 
Q 37.203125 48.484375 30.078125 48.484375 
Q 22.953125 48.484375 18.875 42.84375 
Q 14.796875 37.203125 14.796875 27.296875 
z
" id="DejaVuSans-100"/>
      <path d="M 4.890625 31.390625 
L 31.203125 31.390625 
L 31.203125 23.390625 
L 4.890625 23.390625 
z
" id="DejaVuSans-45"/>
      <path d="M 10.984375 1.515625 
L 10.984375 10.5 
Q 14.703125 8.734375 18.5 7.8125 
Q 22.3125 6.890625 25.984375 6.890625 
Q 35.75 6.890625 40.890625 13.453125 
Q 46.046875 20.015625 46.78125 33.40625 
Q 43.953125 29.203125 39.59375 26.953125 
Q 35.25 24.703125 29.984375 24.703125 
Q 19.046875 24.703125 12.671875 31.3125 
Q 6.296875 37.9375 6.296875 49.421875 
Q 6.296875 60.640625 12.9375 67.421875 
Q 19.578125 74.21875 30.609375 74.21875 
Q 43.265625 74.21875 49.921875 64.515625 
Q 56.59375 54.828125 56.59375 36.375 
Q 56.59375 19.140625 48.40625 8.859375 
Q 40.234375 -1.421875 26.421875 -1.421875 
Q 22.703125 -1.421875 18.890625 -0.6875 
Q 15.09375 0.046875 10.984375 1.515625 
z
M 30.609375 32.421875 
Q 37.25 32.421875 41.125 36.953125 
Q 45.015625 41.5 45.015625 49.421875 
Q 45.015625 57.28125 41.125 61.84375 
Q 37.25 66.40625 30.609375 66.40625 
Q 23.96875 66.40625 20.09375 61.84375 
Q 16.21875 57.28125 16.21875 49.421875 
Q 16.21875 41.5 20.09375 36.953125 
Q 23.96875 32.421875 30.609375 32.421875 
z
" id="DejaVuSans-57"/>
      <path d="M 54.890625 33.015625 
L 54.890625 0 
L 45.90625 0 
L 45.90625 32.71875 
Q 45.90625 40.484375 42.875 44.328125 
Q 39.84375 48.1875 33.796875 48.1875 
Q 26.515625 48.1875 22.3125 43.546875 
Q 18.109375 38.921875 18.109375 30.90625 
L 18.109375 0 
L 9.078125 0 
L 9.078125 75.984375 
L 18.109375 75.984375 
L 18.109375 46.1875 
Q 21.34375 51.125 25.703125 53.5625 
Q 30.078125 56 35.796875 56 
Q 45.21875 56 50.046875 50.171875 
Q 54.890625 44.34375 54.890625 33.015625 
z
" id="DejaVuSans-104"/>
      <path d="M 44.28125 53.078125 
L 44.28125 44.578125 
Q 40.484375 46.53125 36.375 47.5 
Q 32.28125 48.484375 27.875 48.484375 
Q 21.1875 48.484375 17.84375 46.4375 
Q 14.5 44.390625 14.5 40.28125 
Q 14.5 37.15625 16.890625 35.375 
Q 19.28125 33.59375 26.515625 31.984375 
L 29.59375 31.296875 
Q 39.15625 29.25 43.1875 25.515625 
Q 47.21875 21.78125 47.21875 15.09375 
Q 47.21875 7.46875 41.1875 3.015625 
Q 35.15625 -1.421875 24.609375 -1.421875 
Q 20.21875 -1.421875 15.453125 -0.5625 
Q 10.6875 0.296875 5.421875 2 
L 5.421875 11.28125 
Q 10.40625 8.6875 15.234375 7.390625 
Q 20.0625 6.109375 24.8125 6.109375 
Q 31.15625 6.109375 34.5625 8.28125 
Q 37.984375 10.453125 37.984375 14.40625 
Q 37.984375 18.0625 35.515625 20.015625 
Q 33.0625 21.96875 24.703125 23.78125 
L 21.578125 24.515625 
Q 13.234375 26.265625 9.515625 29.90625 
Q 5.8125 33.546875 5.8125 39.890625 
Q 5.8125 47.609375 11.28125 51.796875 
Q 16.75 56 26.8125 56 
Q 31.78125 56 36.171875 55.265625 
Q 40.578125 54.546875 44.28125 53.078125 
z
" id="DejaVuSans-115"/>
     </defs>
     <g transform="translate(26.018438 204.560327)rotate(-90)scale(0.14 -0.14)">
      <use xlink:href="#DejaVuSans-68"/>
      <use x="77.001953" xlink:href="#DejaVuSans-97"/>
      <use x="138.28125" xlink:href="#DejaVuSans-105"/>
      <use x="166.064453" xlink:href="#DejaVuSans-108"/>
      <use x="193.847656" xlink:href="#DejaVuSans-121"/>
      <use x="253.027344" xlink:href="#DejaVuSans-32"/>
      <use x="284.814453" xlink:href="#DejaVuSans-67"/>
      <use x="354.638672" xlink:href="#DejaVuSans-111"/>
      <use x="415.820312" xlink:href="#DejaVuSans-118"/>
      <use x="475" xlink:href="#DejaVuSans-105"/>
      <use x="502.783203" xlink:href="#DejaVuSans-100"/>
      <use x="566.259766" xlink:href="#DejaVuSans-45"/>
      <use x="602.34375" xlink:href="#DejaVuSans-49"/>
      <use x="665.966797" xlink:href="#DejaVuSans-57"/>
      <use x="729.589844" xlink:href="#DejaVuSans-32"/>
      <use x="761.376953" xlink:href="#DejaVuSans-68"/>
      <use x="838.378906" xlink:href="#DejaVuSans-101"/>
      <use x="899.902344" xlink:href="#DejaVuSans-97"/>
      <use x="961.181641" xlink:href="#DejaVuSans-116"/>
      <use x="1000.390625" xlink:href="#DejaVuSans-104"/>
      <use x="1063.769531" xlink:href="#DejaVuSans-115"/>
     </g>
    </g>
   </g>
   <g id="line2d_18">
    <defs>
     <path d="M 0 2.5 
C 0.663008 2.5 1.29895 2.236584 1.767767 1.767767 
C 2.236584 1.29895 2.5 0.663008 2.5 0 
C 2.5 -0.663008 2.236584 -1.29895 1.767767 -1.767767 
C 1.29895 -2.236584 0.663008 -2.5 0 -2.5 
C -0.663008 -2.5 -1.29895 -2.236584 -1.767767 -1.767767 
C -2.236584 -1.29895 -2.5 -0.663008 -2.5 0 
C -2.5 0.663008 -2.236584 1.29895 -1.767767 1.767767 
C -1.29895 2.236584 -0.663008 2.5 0 2.5 
z
" id="m1ebfd038c5" style="stroke:#0000ff;stroke-opacity:0.2;"/>
    </defs>
    <g clip-path="url(#pa09d81d012)">
     <use style="fill:#0000ff;fill-opacity:0.2;stroke:#0000ff;stroke-opacity:0.2;" x="74.069318" xlink:href="#m1ebfd038c5" y="227.65733"/>
     <use style="fill:#0000ff;fill-opacity:0.2;stroke:#0000ff;stroke-opacity:0.2;" x="75.102503" xlink:href="#m1ebfd038c5" y="227.65733"/>
     <use style="fill:#0000ff;fill-opacity:0.2;stroke:#0000ff;stroke-opacity:0.2;" x="76.135688" xlink:href="#m1ebfd038c5" y="227.65733"/>
     <use style="fill:#0000ff;fill-opacity:0.2;stroke:#0000ff;stroke-opacity:0.2;" x="77.168872" xlink:href="#m1ebfd038c5" y="227.65733"/>
     <use style="fill:#0000ff;fill-opacity:0.2;stroke:#0000ff;stroke-opacity:0.2;" x="78.202057" xlink:href="#m1ebfd038c5" y="227.65733"/>
     <use style="fill:#0000ff;fill-opacity:0.2;stroke:#0000ff;stroke-opacity:0.2;" x="79.235242" xlink:href="#m1ebfd038c5" y="227.65733"/>
     <use style="fill:#0000ff;fill-opacity:0.2;stroke:#0000ff;stroke-opacity:0.2;" x="80.268426" xlink:href="#m1ebfd038c5" y="227.65733"/>
     <use style="fill:#0000ff;fill-opacity:0.2;stroke:#0000ff;stroke-opacity:0.2;" x="81.301611" xlink:href="#m1ebfd038c5" y="227.65733"/>
     <use style="fill:#0000ff;fill-opacity:0.2;stroke:#0000ff;stroke-opacity:0.2;" x="82.334796" xlink:href="#m1ebfd038c5" y="227.65733"/>
     <use style="fill:#0000ff;fill-opacity:0.2;stroke:#0000ff;stroke-opacity:0.2;" x="83.36798" xlink:href="#m1ebfd038c5" y="227.65733"/>
     <use style="fill:#0000ff;fill-opacity:0.2;stroke:#0000ff;stroke-opacity:0.2;" x="84.401165" xlink:href="#m1ebfd038c5" y="227.65733"/>
     <use style="fill:#0000ff;fill-opacity:0.2;stroke:#0000ff;stroke-opacity:0.2;" x="85.43435" xlink:href="#m1ebfd038c5" y="227.65733"/>
     <use style="fill:#0000ff;fill-opacity:0.2;stroke:#0000ff;stroke-opacity:0.2;" x="86.467535" xlink:href="#m1ebfd038c5" y="227.65733"/>
     <use style="fill:#0000ff;fill-opacity:0.2;stroke:#0000ff;stroke-opacity:0.2;" x="87.500719" xlink:href="#m1ebfd038c5" y="227.65733"/>
     <use style="fill:#0000ff;fill-opacity:0.2;stroke:#0000ff;stroke-opacity:0.2;" x="88.533904" xlink:href="#m1ebfd038c5" y="227.65733"/>
     <use style="fill:#0000ff;fill-opacity:0.2;stroke:#0000ff;stroke-opacity:0.2;" x="89.567089" xlink:href="#m1ebfd038c5" y="227.65733"/>
     <use style="fill:#0000ff;fill-opacity:0.2;stroke:#0000ff;stroke-opacity:0.2;" x="90.600273" xlink:href="#m1ebfd038c5" y="227.65733"/>
     <use style="fill:#0000ff;fill-opacity:0.2;stroke:#0000ff;stroke-opacity:0.2;" x="91.633458" xlink:href="#m1ebfd038c5" y="227.65733"/>
     <use style="fill:#0000ff;fill-opacity:0.2;stroke:#0000ff;stroke-opacity:0.2;" x="92.666643" xlink:href="#m1ebfd038c5" y="227.65733"/>
     <use style="fill:#0000ff;fill-opacity:0.2;stroke:#0000ff;stroke-opacity:0.2;" x="93.699827" xlink:href="#m1ebfd038c5" y="209.255829"/>
     <use style="fill:#0000ff;fill-opacity:0.2;stroke:#0000ff;stroke-opacity:0.2;" x="94.733012" xlink:href="#m1ebfd038c5" y="209.255829"/>
     <use style="fill:#0000ff;fill-opacity:0.2;stroke:#0000ff;stroke-opacity:0.2;" x="95.766197" xlink:href="#m1ebfd038c5" y="209.255829"/>
     <use style="fill:#0000ff;fill-opacity:0.2;stroke:#0000ff;stroke-opacity:0.2;" x="96.799381" xlink:href="#m1ebfd038c5" y="209.255829"/>
     <use style="fill:#0000ff;fill-opacity:0.2;stroke:#0000ff;stroke-opacity:0.2;" x="97.832566" xlink:href="#m1ebfd038c5" y="227.65733"/>
     <use style="fill:#0000ff;fill-opacity:0.2;stroke:#0000ff;stroke-opacity:0.2;" x="98.865751" xlink:href="#m1ebfd038c5" y="227.65733"/>
     <use style="fill:#0000ff;fill-opacity:0.2;stroke:#0000ff;stroke-opacity:0.2;" x="99.898936" xlink:href="#m1ebfd038c5" y="172.452828"/>
     <use style="fill:#0000ff;fill-opacity:0.2;stroke:#0000ff;stroke-opacity:0.2;" x="100.93212" xlink:href="#m1ebfd038c5" y="172.452828"/>
     <use style="fill:#0000ff;fill-opacity:0.2;stroke:#0000ff;stroke-opacity:0.2;" x="101.965305" xlink:href="#m1ebfd038c5" y="209.255829"/>
     <use style="fill:#0000ff;fill-opacity:0.2;stroke:#0000ff;stroke-opacity:0.2;" x="102.99849" xlink:href="#m1ebfd038c5" y="190.854329"/>
     <use style="fill:#0000ff;fill-opacity:0.2;stroke:#0000ff;stroke-opacity:0.2;" x="104.031674" xlink:href="#m1ebfd038c5" y="62.043826"/>
     <use style="fill:#0000ff;fill-opacity:0.2;stroke:#0000ff;stroke-opacity:0.2;" x="105.064859" xlink:href="#m1ebfd038c5" y="172.452828"/>
     <use style="fill:#0000ff;fill-opacity:0.2;stroke:#0000ff;stroke-opacity:0.2;" x="106.098044" xlink:href="#m1ebfd038c5" y="190.854329"/>
     <use style="fill:#0000ff;fill-opacity:0.2;stroke:#0000ff;stroke-opacity:0.2;" x="107.131228" xlink:href="#m1ebfd038c5" y="190.854329"/>
     <use style="fill:#0000ff;fill-opacity:0.2;stroke:#0000ff;stroke-opacity:0.2;" x="108.164413" xlink:href="#m1ebfd038c5" y="62.043826"/>
     <use style="fill:#0000ff;fill-opacity:0.2;stroke:#0000ff;stroke-opacity:0.2;" x="109.197598" xlink:href="#m1ebfd038c5" y="117.248327"/>
     <use style="fill:#0000ff;fill-opacity:0.2;stroke:#0000ff;stroke-opacity:0.2;" x="110.230783" xlink:href="#m1ebfd038c5" y="98.846827"/>
     <use style="fill:#0000ff;fill-opacity:0.2;stroke:#0000ff;stroke-opacity:0.2;" x="111.263967" xlink:href="#m1ebfd038c5" y="172.452828"/>
     <use style="fill:#0000ff;fill-opacity:0.2;stroke:#0000ff;stroke-opacity:0.2;" x="112.297152" xlink:href="#m1ebfd038c5" y="25.240825"/>
     <use style="fill:#0000ff;fill-opacity:0.2;stroke:#0000ff;stroke-opacity:0.2;" x="113.330337" xlink:href="#m1ebfd038c5" y="117.248327"/>
     <use style="fill:#0000ff;fill-opacity:0.2;stroke:#0000ff;stroke-opacity:0.2;" x="114.363521" xlink:href="#m1ebfd038c5" y="117.248327"/>
     <use style="fill:#0000ff;fill-opacity:0.2;stroke:#0000ff;stroke-opacity:0.2;" x="115.396706" xlink:href="#m1ebfd038c5" y="80.445326"/>
     <use style="fill:#0000ff;fill-opacity:0.2;stroke:#0000ff;stroke-opacity:0.2;" x="116.429891" xlink:href="#m1ebfd038c5" y="135.649828"/>
     <use style="fill:#0000ff;fill-opacity:0.2;stroke:#0000ff;stroke-opacity:0.2;" x="117.463075" xlink:href="#m1ebfd038c5" y="98.846827"/>
     <use style="fill:#0000ff;fill-opacity:0.2;stroke:#0000ff;stroke-opacity:0.2;" x="118.49626" xlink:href="#m1ebfd038c5" y="190.854329"/>
     <use style="fill:#0000ff;fill-opacity:0.2;stroke:#0000ff;stroke-opacity:0.2;" x="119.529445" xlink:href="#m1ebfd038c5" y="43.642326"/>
     <use style="fill:#0000ff;fill-opacity:0.2;stroke:#0000ff;stroke-opacity:0.2;" x="120.562629" xlink:href="#m1ebfd038c5" y="209.255829"/>
     <use style="fill:#0000ff;fill-opacity:0.2;stroke:#0000ff;stroke-opacity:0.2;" x="121.595814" xlink:href="#m1ebfd038c5" y="172.452828"/>
     <use style="fill:#0000ff;fill-opacity:0.2;stroke:#0000ff;stroke-opacity:0.2;" x="122.628999" xlink:href="#m1ebfd038c5" y="154.051328"/>
     <use style="fill:#0000ff;fill-opacity:0.2;stroke:#0000ff;stroke-opacity:0.2;" x="123.662184" xlink:href="#m1ebfd038c5" y="98.846827"/>
     <use style="fill:#0000ff;fill-opacity:0.2;stroke:#0000ff;stroke-opacity:0.2;" x="124.695368" xlink:href="#m1ebfd038c5" y="98.846827"/>
     <use style="fill:#0000ff;fill-opacity:0.2;stroke:#0000ff;stroke-opacity:0.2;" x="125.728553" xlink:href="#m1ebfd038c5" y="135.649828"/>
     <use style="fill:#0000ff;fill-opacity:0.2;stroke:#0000ff;stroke-opacity:0.2;" x="126.761738" xlink:href="#m1ebfd038c5" y="117.248327"/>
     <use style="fill:#0000ff;fill-opacity:0.2;stroke:#0000ff;stroke-opacity:0.2;" x="127.794922" xlink:href="#m1ebfd038c5" y="117.248327"/>
     <use style="fill:#0000ff;fill-opacity:0.2;stroke:#0000ff;stroke-opacity:0.2;" x="128.828107" xlink:href="#m1ebfd038c5" y="190.854329"/>
     <use style="fill:#0000ff;fill-opacity:0.2;stroke:#0000ff;stroke-opacity:0.2;" x="129.861292" xlink:href="#m1ebfd038c5" y="117.248327"/>
     <use style="fill:#0000ff;fill-opacity:0.2;stroke:#0000ff;stroke-opacity:0.2;" x="130.894476" xlink:href="#m1ebfd038c5" y="135.649828"/>
     <use style="fill:#0000ff;fill-opacity:0.2;stroke:#0000ff;stroke-opacity:0.2;" x="131.927661" xlink:href="#m1ebfd038c5" y="172.452828"/>
     <use style="fill:#0000ff;fill-opacity:0.2;stroke:#0000ff;stroke-opacity:0.2;" x="132.960846" xlink:href="#m1ebfd038c5" y="190.854329"/>
     <use style="fill:#0000ff;fill-opacity:0.2;stroke:#0000ff;stroke-opacity:0.2;" x="133.99403" xlink:href="#m1ebfd038c5" y="172.452828"/>
     <use style="fill:#0000ff;fill-opacity:0.2;stroke:#0000ff;stroke-opacity:0.2;" x="135.027215" xlink:href="#m1ebfd038c5" y="190.854329"/>
     <use style="fill:#0000ff;fill-opacity:0.2;stroke:#0000ff;stroke-opacity:0.2;" x="136.0604" xlink:href="#m1ebfd038c5" y="154.051328"/>
     <use style="fill:#0000ff;fill-opacity:0.2;stroke:#0000ff;stroke-opacity:0.2;" x="137.093585" xlink:href="#m1ebfd038c5" y="80.445326"/>
     <use style="fill:#0000ff;fill-opacity:0.2;stroke:#0000ff;stroke-opacity:0.2;" x="138.126769" xlink:href="#m1ebfd038c5" y="227.65733"/>
     <use style="fill:#0000ff;fill-opacity:0.2;stroke:#0000ff;stroke-opacity:0.2;" x="139.159954" xlink:href="#m1ebfd038c5" y="190.854329"/>
     <use style="fill:#0000ff;fill-opacity:0.2;stroke:#0000ff;stroke-opacity:0.2;" x="140.193139" xlink:href="#m1ebfd038c5" y="117.248327"/>
     <use style="fill:#0000ff;fill-opacity:0.2;stroke:#0000ff;stroke-opacity:0.2;" x="141.226323" xlink:href="#m1ebfd038c5" y="154.051328"/>
     <use style="fill:#0000ff;fill-opacity:0.2;stroke:#0000ff;stroke-opacity:0.2;" x="142.259508" xlink:href="#m1ebfd038c5" y="209.255829"/>
     <use style="fill:#0000ff;fill-opacity:0.2;stroke:#0000ff;stroke-opacity:0.2;" x="143.292693" xlink:href="#m1ebfd038c5" y="190.854329"/>
     <use style="fill:#0000ff;fill-opacity:0.2;stroke:#0000ff;stroke-opacity:0.2;" x="144.325877" xlink:href="#m1ebfd038c5" y="209.255829"/>
     <use style="fill:#0000ff;fill-opacity:0.2;stroke:#0000ff;stroke-opacity:0.2;" x="145.359062" xlink:href="#m1ebfd038c5" y="172.452828"/>
     <use style="fill:#0000ff;fill-opacity:0.2;stroke:#0000ff;stroke-opacity:0.2;" x="146.392247" xlink:href="#m1ebfd038c5" y="209.255829"/>
     <use style="fill:#0000ff;fill-opacity:0.2;stroke:#0000ff;stroke-opacity:0.2;" x="147.425432" xlink:href="#m1ebfd038c5" y="190.854329"/>
     <use style="fill:#0000ff;fill-opacity:0.2;stroke:#0000ff;stroke-opacity:0.2;" x="148.458616" xlink:href="#m1ebfd038c5" y="190.854329"/>
     <use style="fill:#0000ff;fill-opacity:0.2;stroke:#0000ff;stroke-opacity:0.2;" x="149.491801" xlink:href="#m1ebfd038c5" y="227.65733"/>
     <use style="fill:#0000ff;fill-opacity:0.2;stroke:#0000ff;stroke-opacity:0.2;" x="150.524986" xlink:href="#m1ebfd038c5" y="172.452828"/>
     <use style="fill:#0000ff;fill-opacity:0.2;stroke:#0000ff;stroke-opacity:0.2;" x="151.55817" xlink:href="#m1ebfd038c5" y="190.854329"/>
     <use style="fill:#0000ff;fill-opacity:0.2;stroke:#0000ff;stroke-opacity:0.2;" x="152.591355" xlink:href="#m1ebfd038c5" y="209.255829"/>
     <use style="fill:#0000ff;fill-opacity:0.2;stroke:#0000ff;stroke-opacity:0.2;" x="153.62454" xlink:href="#m1ebfd038c5" y="172.452828"/>
     <use style="fill:#0000ff;fill-opacity:0.2;stroke:#0000ff;stroke-opacity:0.2;" x="154.657724" xlink:href="#m1ebfd038c5" y="172.452828"/>
     <use style="fill:#0000ff;fill-opacity:0.2;stroke:#0000ff;stroke-opacity:0.2;" x="155.690909" xlink:href="#m1ebfd038c5" y="190.854329"/>
     <use style="fill:#0000ff;fill-opacity:0.2;stroke:#0000ff;stroke-opacity:0.2;" x="156.724094" xlink:href="#m1ebfd038c5" y="227.65733"/>
     <use style="fill:#0000ff;fill-opacity:0.2;stroke:#0000ff;stroke-opacity:0.2;" x="157.757278" xlink:href="#m1ebfd038c5" y="172.452828"/>
     <use style="fill:#0000ff;fill-opacity:0.2;stroke:#0000ff;stroke-opacity:0.2;" x="158.790463" xlink:href="#m1ebfd038c5" y="209.255829"/>
     <use style="fill:#0000ff;fill-opacity:0.2;stroke:#0000ff;stroke-opacity:0.2;" x="159.823648" xlink:href="#m1ebfd038c5" y="209.255829"/>
     <use style="fill:#0000ff;fill-opacity:0.2;stroke:#0000ff;stroke-opacity:0.2;" x="160.856833" xlink:href="#m1ebfd038c5" y="209.255829"/>
     <use style="fill:#0000ff;fill-opacity:0.2;stroke:#0000ff;stroke-opacity:0.2;" x="161.890017" xlink:href="#m1ebfd038c5" y="209.255829"/>
     <use style="fill:#0000ff;fill-opacity:0.2;stroke:#0000ff;stroke-opacity:0.2;" x="162.923202" xlink:href="#m1ebfd038c5" y="209.255829"/>
     <use style="fill:#0000ff;fill-opacity:0.2;stroke:#0000ff;stroke-opacity:0.2;" x="163.956387" xlink:href="#m1ebfd038c5" y="190.854329"/>
     <use style="fill:#0000ff;fill-opacity:0.2;stroke:#0000ff;stroke-opacity:0.2;" x="164.989571" xlink:href="#m1ebfd038c5" y="209.255829"/>
     <use style="fill:#0000ff;fill-opacity:0.2;stroke:#0000ff;stroke-opacity:0.2;" x="166.022756" xlink:href="#m1ebfd038c5" y="154.051328"/>
     <use style="fill:#0000ff;fill-opacity:0.2;stroke:#0000ff;stroke-opacity:0.2;" x="167.055941" xlink:href="#m1ebfd038c5" y="209.255829"/>
     <use style="fill:#0000ff;fill-opacity:0.2;stroke:#0000ff;stroke-opacity:0.2;" x="168.089125" xlink:href="#m1ebfd038c5" y="209.255829"/>
     <use style="fill:#0000ff;fill-opacity:0.2;stroke:#0000ff;stroke-opacity:0.2;" x="169.12231" xlink:href="#m1ebfd038c5" y="209.255829"/>
     <use style="fill:#0000ff;fill-opacity:0.2;stroke:#0000ff;stroke-opacity:0.2;" x="170.155495" xlink:href="#m1ebfd038c5" y="190.854329"/>
     <use style="fill:#0000ff;fill-opacity:0.2;stroke:#0000ff;stroke-opacity:0.2;" x="171.18868" xlink:href="#m1ebfd038c5" y="227.65733"/>
     <use style="fill:#0000ff;fill-opacity:0.2;stroke:#0000ff;stroke-opacity:0.2;" x="172.221864" xlink:href="#m1ebfd038c5" y="190.854329"/>
     <use style="fill:#0000ff;fill-opacity:0.2;stroke:#0000ff;stroke-opacity:0.2;" x="173.255049" xlink:href="#m1ebfd038c5" y="209.255829"/>
     <use style="fill:#0000ff;fill-opacity:0.2;stroke:#0000ff;stroke-opacity:0.2;" x="174.288234" xlink:href="#m1ebfd038c5" y="227.65733"/>
     <use style="fill:#0000ff;fill-opacity:0.2;stroke:#0000ff;stroke-opacity:0.2;" x="175.321418" xlink:href="#m1ebfd038c5" y="227.65733"/>
     <use style="fill:#0000ff;fill-opacity:0.2;stroke:#0000ff;stroke-opacity:0.2;" x="176.354603" xlink:href="#m1ebfd038c5" y="209.255829"/>
     <use style="fill:#0000ff;fill-opacity:0.2;stroke:#0000ff;stroke-opacity:0.2;" x="177.387788" xlink:href="#m1ebfd038c5" y="227.65733"/>
     <use style="fill:#0000ff;fill-opacity:0.2;stroke:#0000ff;stroke-opacity:0.2;" x="178.420972" xlink:href="#m1ebfd038c5" y="190.854329"/>
     <use style="fill:#0000ff;fill-opacity:0.2;stroke:#0000ff;stroke-opacity:0.2;" x="179.454157" xlink:href="#m1ebfd038c5" y="227.65733"/>
     <use style="fill:#0000ff;fill-opacity:0.2;stroke:#0000ff;stroke-opacity:0.2;" x="180.487342" xlink:href="#m1ebfd038c5" y="227.65733"/>
     <use style="fill:#0000ff;fill-opacity:0.2;stroke:#0000ff;stroke-opacity:0.2;" x="181.520526" xlink:href="#m1ebfd038c5" y="227.65733"/>
     <use style="fill:#0000ff;fill-opacity:0.2;stroke:#0000ff;stroke-opacity:0.2;" x="182.553711" xlink:href="#m1ebfd038c5" y="227.65733"/>
     <use style="fill:#0000ff;fill-opacity:0.2;stroke:#0000ff;stroke-opacity:0.2;" x="183.586896" xlink:href="#m1ebfd038c5" y="227.65733"/>
     <use style="fill:#0000ff;fill-opacity:0.2;stroke:#0000ff;stroke-opacity:0.2;" x="184.620081" xlink:href="#m1ebfd038c5" y="209.255829"/>
     <use style="fill:#0000ff;fill-opacity:0.2;stroke:#0000ff;stroke-opacity:0.2;" x="185.653265" xlink:href="#m1ebfd038c5" y="227.65733"/>
     <use style="fill:#0000ff;fill-opacity:0.2;stroke:#0000ff;stroke-opacity:0.2;" x="186.68645" xlink:href="#m1ebfd038c5" y="227.65733"/>
     <use style="fill:#0000ff;fill-opacity:0.2;stroke:#0000ff;stroke-opacity:0.2;" x="187.719635" xlink:href="#m1ebfd038c5" y="227.65733"/>
     <use style="fill:#0000ff;fill-opacity:0.2;stroke:#0000ff;stroke-opacity:0.2;" x="188.752819" xlink:href="#m1ebfd038c5" y="227.65733"/>
     <use style="fill:#0000ff;fill-opacity:0.2;stroke:#0000ff;stroke-opacity:0.2;" x="189.786004" xlink:href="#m1ebfd038c5" y="227.65733"/>
     <use style="fill:#0000ff;fill-opacity:0.2;stroke:#0000ff;stroke-opacity:0.2;" x="190.819189" xlink:href="#m1ebfd038c5" y="227.65733"/>
     <use style="fill:#0000ff;fill-opacity:0.2;stroke:#0000ff;stroke-opacity:0.2;" x="191.852373" xlink:href="#m1ebfd038c5" y="209.255829"/>
     <use style="fill:#0000ff;fill-opacity:0.2;stroke:#0000ff;stroke-opacity:0.2;" x="192.885558" xlink:href="#m1ebfd038c5" y="209.255829"/>
     <use style="fill:#0000ff;fill-opacity:0.2;stroke:#0000ff;stroke-opacity:0.2;" x="193.918743" xlink:href="#m1ebfd038c5" y="227.65733"/>
     <use style="fill:#0000ff;fill-opacity:0.2;stroke:#0000ff;stroke-opacity:0.2;" x="194.951928" xlink:href="#m1ebfd038c5" y="209.255829"/>
     <use style="fill:#0000ff;fill-opacity:0.2;stroke:#0000ff;stroke-opacity:0.2;" x="195.985112" xlink:href="#m1ebfd038c5" y="227.65733"/>
     <use style="fill:#0000ff;fill-opacity:0.2;stroke:#0000ff;stroke-opacity:0.2;" x="197.018297" xlink:href="#m1ebfd038c5" y="209.255829"/>
     <use style="fill:#0000ff;fill-opacity:0.2;stroke:#0000ff;stroke-opacity:0.2;" x="198.051482" xlink:href="#m1ebfd038c5" y="227.65733"/>
     <use style="fill:#0000ff;fill-opacity:0.2;stroke:#0000ff;stroke-opacity:0.2;" x="199.084666" xlink:href="#m1ebfd038c5" y="227.65733"/>
     <use style="fill:#0000ff;fill-opacity:0.2;stroke:#0000ff;stroke-opacity:0.2;" x="200.117851" xlink:href="#m1ebfd038c5" y="227.65733"/>
     <use style="fill:#0000ff;fill-opacity:0.2;stroke:#0000ff;stroke-opacity:0.2;" x="201.151036" xlink:href="#m1ebfd038c5" y="227.65733"/>
     <use style="fill:#0000ff;fill-opacity:0.2;stroke:#0000ff;stroke-opacity:0.2;" x="202.18422" xlink:href="#m1ebfd038c5" y="227.65733"/>
     <use style="fill:#0000ff;fill-opacity:0.2;stroke:#0000ff;stroke-opacity:0.2;" x="203.217405" xlink:href="#m1ebfd038c5" y="227.65733"/>
     <use style="fill:#0000ff;fill-opacity:0.2;stroke:#0000ff;stroke-opacity:0.2;" x="204.25059" xlink:href="#m1ebfd038c5" y="227.65733"/>
     <use style="fill:#0000ff;fill-opacity:0.2;stroke:#0000ff;stroke-opacity:0.2;" x="205.283774" xlink:href="#m1ebfd038c5" y="227.65733"/>
     <use style="fill:#0000ff;fill-opacity:0.2;stroke:#0000ff;stroke-opacity:0.2;" x="206.316959" xlink:href="#m1ebfd038c5" y="227.65733"/>
     <use style="fill:#0000ff;fill-opacity:0.2;stroke:#0000ff;stroke-opacity:0.2;" x="207.350144" xlink:href="#m1ebfd038c5" y="227.65733"/>
     <use style="fill:#0000ff;fill-opacity:0.2;stroke:#0000ff;stroke-opacity:0.2;" x="208.383329" xlink:href="#m1ebfd038c5" y="227.65733"/>
     <use style="fill:#0000ff;fill-opacity:0.2;stroke:#0000ff;stroke-opacity:0.2;" x="209.416513" xlink:href="#m1ebfd038c5" y="227.65733"/>
     <use style="fill:#0000ff;fill-opacity:0.2;stroke:#0000ff;stroke-opacity:0.2;" x="210.449698" xlink:href="#m1ebfd038c5" y="227.65733"/>
     <use style="fill:#0000ff;fill-opacity:0.2;stroke:#0000ff;stroke-opacity:0.2;" x="211.482883" xlink:href="#m1ebfd038c5" y="227.65733"/>
     <use style="fill:#0000ff;fill-opacity:0.2;stroke:#0000ff;stroke-opacity:0.2;" x="212.516067" xlink:href="#m1ebfd038c5" y="227.65733"/>
     <use style="fill:#0000ff;fill-opacity:0.2;stroke:#0000ff;stroke-opacity:0.2;" x="213.549252" xlink:href="#m1ebfd038c5" y="227.65733"/>
     <use style="fill:#0000ff;fill-opacity:0.2;stroke:#0000ff;stroke-opacity:0.2;" x="214.582437" xlink:href="#m1ebfd038c5" y="227.65733"/>
     <use style="fill:#0000ff;fill-opacity:0.2;stroke:#0000ff;stroke-opacity:0.2;" x="215.615621" xlink:href="#m1ebfd038c5" y="227.65733"/>
     <use style="fill:#0000ff;fill-opacity:0.2;stroke:#0000ff;stroke-opacity:0.2;" x="216.648806" xlink:href="#m1ebfd038c5" y="227.65733"/>
     <use style="fill:#0000ff;fill-opacity:0.2;stroke:#0000ff;stroke-opacity:0.2;" x="217.681991" xlink:href="#m1ebfd038c5" y="227.65733"/>
     <use style="fill:#0000ff;fill-opacity:0.2;stroke:#0000ff;stroke-opacity:0.2;" x="218.715175" xlink:href="#m1ebfd038c5" y="227.65733"/>
     <use style="fill:#0000ff;fill-opacity:0.2;stroke:#0000ff;stroke-opacity:0.2;" x="219.74836" xlink:href="#m1ebfd038c5" y="227.65733"/>
     <use style="fill:#0000ff;fill-opacity:0.2;stroke:#0000ff;stroke-opacity:0.2;" x="220.781545" xlink:href="#m1ebfd038c5" y="227.65733"/>
     <use style="fill:#0000ff;fill-opacity:0.2;stroke:#0000ff;stroke-opacity:0.2;" x="221.81473" xlink:href="#m1ebfd038c5" y="227.65733"/>
     <use style="fill:#0000ff;fill-opacity:0.2;stroke:#0000ff;stroke-opacity:0.2;" x="222.847914" xlink:href="#m1ebfd038c5" y="227.65733"/>
     <use style="fill:#0000ff;fill-opacity:0.2;stroke:#0000ff;stroke-opacity:0.2;" x="223.881099" xlink:href="#m1ebfd038c5" y="227.65733"/>
     <use style="fill:#0000ff;fill-opacity:0.2;stroke:#0000ff;stroke-opacity:0.2;" x="224.914284" xlink:href="#m1ebfd038c5" y="227.65733"/>
     <use style="fill:#0000ff;fill-opacity:0.2;stroke:#0000ff;stroke-opacity:0.2;" x="225.947468" xlink:href="#m1ebfd038c5" y="227.65733"/>
     <use style="fill:#0000ff;fill-opacity:0.2;stroke:#0000ff;stroke-opacity:0.2;" x="226.980653" xlink:href="#m1ebfd038c5" y="227.65733"/>
     <use style="fill:#0000ff;fill-opacity:0.2;stroke:#0000ff;stroke-opacity:0.2;" x="228.013838" xlink:href="#m1ebfd038c5" y="227.65733"/>
     <use style="fill:#0000ff;fill-opacity:0.2;stroke:#0000ff;stroke-opacity:0.2;" x="229.047022" xlink:href="#m1ebfd038c5" y="227.65733"/>
     <use style="fill:#0000ff;fill-opacity:0.2;stroke:#0000ff;stroke-opacity:0.2;" x="230.080207" xlink:href="#m1ebfd038c5" y="227.65733"/>
     <use style="fill:#0000ff;fill-opacity:0.2;stroke:#0000ff;stroke-opacity:0.2;" x="231.113392" xlink:href="#m1ebfd038c5" y="227.65733"/>
     <use style="fill:#0000ff;fill-opacity:0.2;stroke:#0000ff;stroke-opacity:0.2;" x="232.146577" xlink:href="#m1ebfd038c5" y="227.65733"/>
     <use style="fill:#0000ff;fill-opacity:0.2;stroke:#0000ff;stroke-opacity:0.2;" x="233.179761" xlink:href="#m1ebfd038c5" y="227.65733"/>
     <use style="fill:#0000ff;fill-opacity:0.2;stroke:#0000ff;stroke-opacity:0.2;" x="234.212946" xlink:href="#m1ebfd038c5" y="227.65733"/>
     <use style="fill:#0000ff;fill-opacity:0.2;stroke:#0000ff;stroke-opacity:0.2;" x="235.246131" xlink:href="#m1ebfd038c5" y="227.65733"/>
     <use style="fill:#0000ff;fill-opacity:0.2;stroke:#0000ff;stroke-opacity:0.2;" x="236.279315" xlink:href="#m1ebfd038c5" y="227.65733"/>
     <use style="fill:#0000ff;fill-opacity:0.2;stroke:#0000ff;stroke-opacity:0.2;" x="237.3125" xlink:href="#m1ebfd038c5" y="227.65733"/>
     <use style="fill:#0000ff;fill-opacity:0.2;stroke:#0000ff;stroke-opacity:0.2;" x="238.345685" xlink:href="#m1ebfd038c5" y="227.65733"/>
     <use style="fill:#0000ff;fill-opacity:0.2;stroke:#0000ff;stroke-opacity:0.2;" x="239.378869" xlink:href="#m1ebfd038c5" y="227.65733"/>
     <use style="fill:#0000ff;fill-opacity:0.2;stroke:#0000ff;stroke-opacity:0.2;" x="240.412054" xlink:href="#m1ebfd038c5" y="227.65733"/>
     <use style="fill:#0000ff;fill-opacity:0.2;stroke:#0000ff;stroke-opacity:0.2;" x="241.445239" xlink:href="#m1ebfd038c5" y="227.65733"/>
     <use style="fill:#0000ff;fill-opacity:0.2;stroke:#0000ff;stroke-opacity:0.2;" x="242.478423" xlink:href="#m1ebfd038c5" y="227.65733"/>
     <use style="fill:#0000ff;fill-opacity:0.2;stroke:#0000ff;stroke-opacity:0.2;" x="243.511608" xlink:href="#m1ebfd038c5" y="227.65733"/>
     <use style="fill:#0000ff;fill-opacity:0.2;stroke:#0000ff;stroke-opacity:0.2;" x="244.544793" xlink:href="#m1ebfd038c5" y="227.65733"/>
     <use style="fill:#0000ff;fill-opacity:0.2;stroke:#0000ff;stroke-opacity:0.2;" x="245.577978" xlink:href="#m1ebfd038c5" y="227.65733"/>
     <use style="fill:#0000ff;fill-opacity:0.2;stroke:#0000ff;stroke-opacity:0.2;" x="246.611162" xlink:href="#m1ebfd038c5" y="227.65733"/>
     <use style="fill:#0000ff;fill-opacity:0.2;stroke:#0000ff;stroke-opacity:0.2;" x="247.644347" xlink:href="#m1ebfd038c5" y="227.65733"/>
     <use style="fill:#0000ff;fill-opacity:0.2;stroke:#0000ff;stroke-opacity:0.2;" x="248.677532" xlink:href="#m1ebfd038c5" y="227.65733"/>
     <use style="fill:#0000ff;fill-opacity:0.2;stroke:#0000ff;stroke-opacity:0.2;" x="249.710716" xlink:href="#m1ebfd038c5" y="227.65733"/>
     <use style="fill:#0000ff;fill-opacity:0.2;stroke:#0000ff;stroke-opacity:0.2;" x="250.743901" xlink:href="#m1ebfd038c5" y="227.65733"/>
     <use style="fill:#0000ff;fill-opacity:0.2;stroke:#0000ff;stroke-opacity:0.2;" x="251.777086" xlink:href="#m1ebfd038c5" y="227.65733"/>
     <use style="fill:#0000ff;fill-opacity:0.2;stroke:#0000ff;stroke-opacity:0.2;" x="252.81027" xlink:href="#m1ebfd038c5" y="227.65733"/>
     <use style="fill:#0000ff;fill-opacity:0.2;stroke:#0000ff;stroke-opacity:0.2;" x="253.843455" xlink:href="#m1ebfd038c5" y="227.65733"/>
     <use style="fill:#0000ff;fill-opacity:0.2;stroke:#0000ff;stroke-opacity:0.2;" x="254.87664" xlink:href="#m1ebfd038c5" y="227.65733"/>
     <use style="fill:#0000ff;fill-opacity:0.2;stroke:#0000ff;stroke-opacity:0.2;" x="255.909825" xlink:href="#m1ebfd038c5" y="227.65733"/>
     <use style="fill:#0000ff;fill-opacity:0.2;stroke:#0000ff;stroke-opacity:0.2;" x="256.943009" xlink:href="#m1ebfd038c5" y="227.65733"/>
     <use style="fill:#0000ff;fill-opacity:0.2;stroke:#0000ff;stroke-opacity:0.2;" x="257.976194" xlink:href="#m1ebfd038c5" y="227.65733"/>
     <use style="fill:#0000ff;fill-opacity:0.2;stroke:#0000ff;stroke-opacity:0.2;" x="259.009379" xlink:href="#m1ebfd038c5" y="227.65733"/>
     <use style="fill:#0000ff;fill-opacity:0.2;stroke:#0000ff;stroke-opacity:0.2;" x="260.042563" xlink:href="#m1ebfd038c5" y="227.65733"/>
     <use style="fill:#0000ff;fill-opacity:0.2;stroke:#0000ff;stroke-opacity:0.2;" x="261.075748" xlink:href="#m1ebfd038c5" y="227.65733"/>
     <use style="fill:#0000ff;fill-opacity:0.2;stroke:#0000ff;stroke-opacity:0.2;" x="262.108933" xlink:href="#m1ebfd038c5" y="227.65733"/>
     <use style="fill:#0000ff;fill-opacity:0.2;stroke:#0000ff;stroke-opacity:0.2;" x="263.142117" xlink:href="#m1ebfd038c5" y="227.65733"/>
     <use style="fill:#0000ff;fill-opacity:0.2;stroke:#0000ff;stroke-opacity:0.2;" x="264.175302" xlink:href="#m1ebfd038c5" y="227.65733"/>
     <use style="fill:#0000ff;fill-opacity:0.2;stroke:#0000ff;stroke-opacity:0.2;" x="265.208487" xlink:href="#m1ebfd038c5" y="227.65733"/>
     <use style="fill:#0000ff;fill-opacity:0.2;stroke:#0000ff;stroke-opacity:0.2;" x="266.241671" xlink:href="#m1ebfd038c5" y="227.65733"/>
     <use style="fill:#0000ff;fill-opacity:0.2;stroke:#0000ff;stroke-opacity:0.2;" x="267.274856" xlink:href="#m1ebfd038c5" y="227.65733"/>
     <use style="fill:#0000ff;fill-opacity:0.2;stroke:#0000ff;stroke-opacity:0.2;" x="268.308041" xlink:href="#m1ebfd038c5" y="227.65733"/>
     <use style="fill:#0000ff;fill-opacity:0.2;stroke:#0000ff;stroke-opacity:0.2;" x="269.341226" xlink:href="#m1ebfd038c5" y="209.255829"/>
     <use style="fill:#0000ff;fill-opacity:0.2;stroke:#0000ff;stroke-opacity:0.2;" x="270.37441" xlink:href="#m1ebfd038c5" y="227.65733"/>
     <use style="fill:#0000ff;fill-opacity:0.2;stroke:#0000ff;stroke-opacity:0.2;" x="271.407595" xlink:href="#m1ebfd038c5" y="227.65733"/>
     <use style="fill:#0000ff;fill-opacity:0.2;stroke:#0000ff;stroke-opacity:0.2;" x="272.44078" xlink:href="#m1ebfd038c5" y="227.65733"/>
     <use style="fill:#0000ff;fill-opacity:0.2;stroke:#0000ff;stroke-opacity:0.2;" x="273.473964" xlink:href="#m1ebfd038c5" y="227.65733"/>
     <use style="fill:#0000ff;fill-opacity:0.2;stroke:#0000ff;stroke-opacity:0.2;" x="274.507149" xlink:href="#m1ebfd038c5" y="227.65733"/>
     <use style="fill:#0000ff;fill-opacity:0.2;stroke:#0000ff;stroke-opacity:0.2;" x="275.540334" xlink:href="#m1ebfd038c5" y="227.65733"/>
     <use style="fill:#0000ff;fill-opacity:0.2;stroke:#0000ff;stroke-opacity:0.2;" x="276.573518" xlink:href="#m1ebfd038c5" y="227.65733"/>
     <use style="fill:#0000ff;fill-opacity:0.2;stroke:#0000ff;stroke-opacity:0.2;" x="277.606703" xlink:href="#m1ebfd038c5" y="227.65733"/>
     <use style="fill:#0000ff;fill-opacity:0.2;stroke:#0000ff;stroke-opacity:0.2;" x="278.639888" xlink:href="#m1ebfd038c5" y="227.65733"/>
     <use style="fill:#0000ff;fill-opacity:0.2;stroke:#0000ff;stroke-opacity:0.2;" x="279.673072" xlink:href="#m1ebfd038c5" y="227.65733"/>
     <use style="fill:#0000ff;fill-opacity:0.2;stroke:#0000ff;stroke-opacity:0.2;" x="280.706257" xlink:href="#m1ebfd038c5" y="227.65733"/>
     <use style="fill:#0000ff;fill-opacity:0.2;stroke:#0000ff;stroke-opacity:0.2;" x="281.739442" xlink:href="#m1ebfd038c5" y="227.65733"/>
     <use style="fill:#0000ff;fill-opacity:0.2;stroke:#0000ff;stroke-opacity:0.2;" x="282.772627" xlink:href="#m1ebfd038c5" y="227.65733"/>
     <use style="fill:#0000ff;fill-opacity:0.2;stroke:#0000ff;stroke-opacity:0.2;" x="283.805811" xlink:href="#m1ebfd038c5" y="227.65733"/>
     <use style="fill:#0000ff;fill-opacity:0.2;stroke:#0000ff;stroke-opacity:0.2;" x="284.838996" xlink:href="#m1ebfd038c5" y="227.65733"/>
     <use style="fill:#0000ff;fill-opacity:0.2;stroke:#0000ff;stroke-opacity:0.2;" x="285.872181" xlink:href="#m1ebfd038c5" y="227.65733"/>
     <use style="fill:#0000ff;fill-opacity:0.2;stroke:#0000ff;stroke-opacity:0.2;" x="286.905365" xlink:href="#m1ebfd038c5" y="209.255829"/>
     <use style="fill:#0000ff;fill-opacity:0.2;stroke:#0000ff;stroke-opacity:0.2;" x="287.93855" xlink:href="#m1ebfd038c5" y="227.65733"/>
     <use style="fill:#0000ff;fill-opacity:0.2;stroke:#0000ff;stroke-opacity:0.2;" x="288.971735" xlink:href="#m1ebfd038c5" y="227.65733"/>
     <use style="fill:#0000ff;fill-opacity:0.2;stroke:#0000ff;stroke-opacity:0.2;" x="290.004919" xlink:href="#m1ebfd038c5" y="227.65733"/>
     <use style="fill:#0000ff;fill-opacity:0.2;stroke:#0000ff;stroke-opacity:0.2;" x="291.038104" xlink:href="#m1ebfd038c5" y="227.65733"/>
     <use style="fill:#0000ff;fill-opacity:0.2;stroke:#0000ff;stroke-opacity:0.2;" x="292.071289" xlink:href="#m1ebfd038c5" y="209.255829"/>
     <use style="fill:#0000ff;fill-opacity:0.2;stroke:#0000ff;stroke-opacity:0.2;" x="293.104474" xlink:href="#m1ebfd038c5" y="209.255829"/>
     <use style="fill:#0000ff;fill-opacity:0.2;stroke:#0000ff;stroke-opacity:0.2;" x="294.137658" xlink:href="#m1ebfd038c5" y="227.65733"/>
     <use style="fill:#0000ff;fill-opacity:0.2;stroke:#0000ff;stroke-opacity:0.2;" x="295.170843" xlink:href="#m1ebfd038c5" y="227.65733"/>
     <use style="fill:#0000ff;fill-opacity:0.2;stroke:#0000ff;stroke-opacity:0.2;" x="296.204028" xlink:href="#m1ebfd038c5" y="190.854329"/>
     <use style="fill:#0000ff;fill-opacity:0.2;stroke:#0000ff;stroke-opacity:0.2;" x="297.237212" xlink:href="#m1ebfd038c5" y="209.255829"/>
     <use style="fill:#0000ff;fill-opacity:0.2;stroke:#0000ff;stroke-opacity:0.2;" x="298.270397" xlink:href="#m1ebfd038c5" y="190.854329"/>
     <use style="fill:#0000ff;fill-opacity:0.2;stroke:#0000ff;stroke-opacity:0.2;" x="299.303582" xlink:href="#m1ebfd038c5" y="227.65733"/>
     <use style="fill:#0000ff;fill-opacity:0.2;stroke:#0000ff;stroke-opacity:0.2;" x="300.336766" xlink:href="#m1ebfd038c5" y="227.65733"/>
     <use style="fill:#0000ff;fill-opacity:0.2;stroke:#0000ff;stroke-opacity:0.2;" x="301.369951" xlink:href="#m1ebfd038c5" y="190.854329"/>
     <use style="fill:#0000ff;fill-opacity:0.2;stroke:#0000ff;stroke-opacity:0.2;" x="302.403136" xlink:href="#m1ebfd038c5" y="190.854329"/>
     <use style="fill:#0000ff;fill-opacity:0.2;stroke:#0000ff;stroke-opacity:0.2;" x="303.43632" xlink:href="#m1ebfd038c5" y="227.65733"/>
     <use style="fill:#0000ff;fill-opacity:0.2;stroke:#0000ff;stroke-opacity:0.2;" x="304.469505" xlink:href="#m1ebfd038c5" y="209.255829"/>
     <use style="fill:#0000ff;fill-opacity:0.2;stroke:#0000ff;stroke-opacity:0.2;" x="305.50269" xlink:href="#m1ebfd038c5" y="227.65733"/>
     <use style="fill:#0000ff;fill-opacity:0.2;stroke:#0000ff;stroke-opacity:0.2;" x="306.535875" xlink:href="#m1ebfd038c5" y="209.255829"/>
     <use style="fill:#0000ff;fill-opacity:0.2;stroke:#0000ff;stroke-opacity:0.2;" x="307.569059" xlink:href="#m1ebfd038c5" y="190.854329"/>
     <use style="fill:#0000ff;fill-opacity:0.2;stroke:#0000ff;stroke-opacity:0.2;" x="308.602244" xlink:href="#m1ebfd038c5" y="190.854329"/>
     <use style="fill:#0000ff;fill-opacity:0.2;stroke:#0000ff;stroke-opacity:0.2;" x="309.635429" xlink:href="#m1ebfd038c5" y="190.854329"/>
     <use style="fill:#0000ff;fill-opacity:0.2;stroke:#0000ff;stroke-opacity:0.2;" x="310.668613" xlink:href="#m1ebfd038c5" y="190.854329"/>
     <use style="fill:#0000ff;fill-opacity:0.2;stroke:#0000ff;stroke-opacity:0.2;" x="311.701798" xlink:href="#m1ebfd038c5" y="172.452828"/>
     <use style="fill:#0000ff;fill-opacity:0.2;stroke:#0000ff;stroke-opacity:0.2;" x="312.734983" xlink:href="#m1ebfd038c5" y="172.452828"/>
     <use style="fill:#0000ff;fill-opacity:0.2;stroke:#0000ff;stroke-opacity:0.2;" x="313.768167" xlink:href="#m1ebfd038c5" y="209.255829"/>
     <use style="fill:#0000ff;fill-opacity:0.2;stroke:#0000ff;stroke-opacity:0.2;" x="314.801352" xlink:href="#m1ebfd038c5" y="209.255829"/>
     <use style="fill:#0000ff;fill-opacity:0.2;stroke:#0000ff;stroke-opacity:0.2;" x="315.834537" xlink:href="#m1ebfd038c5" y="209.255829"/>
     <use style="fill:#0000ff;fill-opacity:0.2;stroke:#0000ff;stroke-opacity:0.2;" x="316.867722" xlink:href="#m1ebfd038c5" y="172.452828"/>
     <use style="fill:#0000ff;fill-opacity:0.2;stroke:#0000ff;stroke-opacity:0.2;" x="317.900906" xlink:href="#m1ebfd038c5" y="227.65733"/>
     <use style="fill:#0000ff;fill-opacity:0.2;stroke:#0000ff;stroke-opacity:0.2;" x="318.934091" xlink:href="#m1ebfd038c5" y="190.854329"/>
     <use style="fill:#0000ff;fill-opacity:0.2;stroke:#0000ff;stroke-opacity:0.2;" x="319.967276" xlink:href="#m1ebfd038c5" y="227.65733"/>
     <use style="fill:#0000ff;fill-opacity:0.2;stroke:#0000ff;stroke-opacity:0.2;" x="321.00046" xlink:href="#m1ebfd038c5" y="227.65733"/>
     <use style="fill:#0000ff;fill-opacity:0.2;stroke:#0000ff;stroke-opacity:0.2;" x="322.033645" xlink:href="#m1ebfd038c5" y="172.452828"/>
     <use style="fill:#0000ff;fill-opacity:0.2;stroke:#0000ff;stroke-opacity:0.2;" x="323.06683" xlink:href="#m1ebfd038c5" y="172.452828"/>
     <use style="fill:#0000ff;fill-opacity:0.2;stroke:#0000ff;stroke-opacity:0.2;" x="324.100014" xlink:href="#m1ebfd038c5" y="154.051328"/>
     <use style="fill:#0000ff;fill-opacity:0.2;stroke:#0000ff;stroke-opacity:0.2;" x="325.133199" xlink:href="#m1ebfd038c5" y="154.051328"/>
     <use style="fill:#0000ff;fill-opacity:0.2;stroke:#0000ff;stroke-opacity:0.2;" x="326.166384" xlink:href="#m1ebfd038c5" y="190.854329"/>
     <use style="fill:#0000ff;fill-opacity:0.2;stroke:#0000ff;stroke-opacity:0.2;" x="327.199568" xlink:href="#m1ebfd038c5" y="154.051328"/>
     <use style="fill:#0000ff;fill-opacity:0.2;stroke:#0000ff;stroke-opacity:0.2;" x="328.232753" xlink:href="#m1ebfd038c5" y="135.649828"/>
     <use style="fill:#0000ff;fill-opacity:0.2;stroke:#0000ff;stroke-opacity:0.2;" x="329.265938" xlink:href="#m1ebfd038c5" y="172.452828"/>
     <use style="fill:#0000ff;fill-opacity:0.2;stroke:#0000ff;stroke-opacity:0.2;" x="330.299123" xlink:href="#m1ebfd038c5" y="172.452828"/>
     <use style="fill:#0000ff;fill-opacity:0.2;stroke:#0000ff;stroke-opacity:0.2;" x="331.332307" xlink:href="#m1ebfd038c5" y="154.051328"/>
     <use style="fill:#0000ff;fill-opacity:0.2;stroke:#0000ff;stroke-opacity:0.2;" x="332.365492" xlink:href="#m1ebfd038c5" y="172.452828"/>
     <use style="fill:#0000ff;fill-opacity:0.2;stroke:#0000ff;stroke-opacity:0.2;" x="333.398677" xlink:href="#m1ebfd038c5" y="190.854329"/>
     <use style="fill:#0000ff;fill-opacity:0.2;stroke:#0000ff;stroke-opacity:0.2;" x="334.431861" xlink:href="#m1ebfd038c5" y="209.255829"/>
     <use style="fill:#0000ff;fill-opacity:0.2;stroke:#0000ff;stroke-opacity:0.2;" x="335.465046" xlink:href="#m1ebfd038c5" y="98.846827"/>
     <use style="fill:#0000ff;fill-opacity:0.2;stroke:#0000ff;stroke-opacity:0.2;" x="336.498231" xlink:href="#m1ebfd038c5" y="154.051328"/>
     <use style="fill:#0000ff;fill-opacity:0.2;stroke:#0000ff;stroke-opacity:0.2;" x="337.531415" xlink:href="#m1ebfd038c5" y="172.452828"/>
     <use style="fill:#0000ff;fill-opacity:0.2;stroke:#0000ff;stroke-opacity:0.2;" x="338.5646" xlink:href="#m1ebfd038c5" y="154.051328"/>
     <use style="fill:#0000ff;fill-opacity:0.2;stroke:#0000ff;stroke-opacity:0.2;" x="339.597785" xlink:href="#m1ebfd038c5" y="154.051328"/>
     <use style="fill:#0000ff;fill-opacity:0.2;stroke:#0000ff;stroke-opacity:0.2;" x="340.63097" xlink:href="#m1ebfd038c5" y="135.649828"/>
     <use style="fill:#0000ff;fill-opacity:0.2;stroke:#0000ff;stroke-opacity:0.2;" x="341.664154" xlink:href="#m1ebfd038c5" y="154.051328"/>
     <use style="fill:#0000ff;fill-opacity:0.2;stroke:#0000ff;stroke-opacity:0.2;" x="342.697339" xlink:href="#m1ebfd038c5" y="209.255829"/>
     <use style="fill:#0000ff;fill-opacity:0.2;stroke:#0000ff;stroke-opacity:0.2;" x="343.730524" xlink:href="#m1ebfd038c5" y="135.649828"/>
     <use style="fill:#0000ff;fill-opacity:0.2;stroke:#0000ff;stroke-opacity:0.2;" x="344.763708" xlink:href="#m1ebfd038c5" y="117.248327"/>
     <use style="fill:#0000ff;fill-opacity:0.2;stroke:#0000ff;stroke-opacity:0.2;" x="345.796893" xlink:href="#m1ebfd038c5" y="135.649828"/>
     <use style="fill:#0000ff;fill-opacity:0.2;stroke:#0000ff;stroke-opacity:0.2;" x="346.830078" xlink:href="#m1ebfd038c5" y="62.043826"/>
     <use style="fill:#0000ff;fill-opacity:0.2;stroke:#0000ff;stroke-opacity:0.2;" x="347.863262" xlink:href="#m1ebfd038c5" y="190.854329"/>
     <use style="fill:#0000ff;fill-opacity:0.2;stroke:#0000ff;stroke-opacity:0.2;" x="348.896447" xlink:href="#m1ebfd038c5" y="117.248327"/>
     <use style="fill:#0000ff;fill-opacity:0.2;stroke:#0000ff;stroke-opacity:0.2;" x="349.929632" xlink:href="#m1ebfd038c5" y="209.255829"/>
     <use style="fill:#0000ff;fill-opacity:0.2;stroke:#0000ff;stroke-opacity:0.2;" x="350.962816" xlink:href="#m1ebfd038c5" y="172.452828"/>
     <use style="fill:#0000ff;fill-opacity:0.2;stroke:#0000ff;stroke-opacity:0.2;" x="351.996001" xlink:href="#m1ebfd038c5" y="135.649828"/>
     <use style="fill:#0000ff;fill-opacity:0.2;stroke:#0000ff;stroke-opacity:0.2;" x="353.029186" xlink:href="#m1ebfd038c5" y="172.452828"/>
     <use style="fill:#0000ff;fill-opacity:0.2;stroke:#0000ff;stroke-opacity:0.2;" x="354.062371" xlink:href="#m1ebfd038c5" y="135.649828"/>
     <use style="fill:#0000ff;fill-opacity:0.2;stroke:#0000ff;stroke-opacity:0.2;" x="355.095555" xlink:href="#m1ebfd038c5" y="227.65733"/>
     <use style="fill:#0000ff;fill-opacity:0.2;stroke:#0000ff;stroke-opacity:0.2;" x="356.12874" xlink:href="#m1ebfd038c5" y="135.649828"/>
     <use style="fill:#0000ff;fill-opacity:0.2;stroke:#0000ff;stroke-opacity:0.2;" x="357.161925" xlink:href="#m1ebfd038c5" y="117.248327"/>
     <use style="fill:#0000ff;fill-opacity:0.2;stroke:#0000ff;stroke-opacity:0.2;" x="358.195109" xlink:href="#m1ebfd038c5" y="172.452828"/>
     <use style="fill:#0000ff;fill-opacity:0.2;stroke:#0000ff;stroke-opacity:0.2;" x="359.228294" xlink:href="#m1ebfd038c5" y="154.051328"/>
     <use style="fill:#0000ff;fill-opacity:0.2;stroke:#0000ff;stroke-opacity:0.2;" x="360.261479" xlink:href="#m1ebfd038c5" y="154.051328"/>
     <use style="fill:#0000ff;fill-opacity:0.2;stroke:#0000ff;stroke-opacity:0.2;" x="361.294663" xlink:href="#m1ebfd038c5" y="209.255829"/>
     <use style="fill:#0000ff;fill-opacity:0.2;stroke:#0000ff;stroke-opacity:0.2;" x="362.327848" xlink:href="#m1ebfd038c5" y="172.452828"/>
     <use style="fill:#0000ff;fill-opacity:0.2;stroke:#0000ff;stroke-opacity:0.2;" x="363.361033" xlink:href="#m1ebfd038c5" y="190.854329"/>
     <use style="fill:#0000ff;fill-opacity:0.2;stroke:#0000ff;stroke-opacity:0.2;" x="364.394217" xlink:href="#m1ebfd038c5" y="154.051328"/>
     <use style="fill:#0000ff;fill-opacity:0.2;stroke:#0000ff;stroke-opacity:0.2;" x="365.427402" xlink:href="#m1ebfd038c5" y="209.255829"/>
     <use style="fill:#0000ff;fill-opacity:0.2;stroke:#0000ff;stroke-opacity:0.2;" x="366.460587" xlink:href="#m1ebfd038c5" y="172.452828"/>
     <use style="fill:#0000ff;fill-opacity:0.2;stroke:#0000ff;stroke-opacity:0.2;" x="367.493772" xlink:href="#m1ebfd038c5" y="172.452828"/>
     <use style="fill:#0000ff;fill-opacity:0.2;stroke:#0000ff;stroke-opacity:0.2;" x="368.526956" xlink:href="#m1ebfd038c5" y="172.452828"/>
     <use style="fill:#0000ff;fill-opacity:0.2;stroke:#0000ff;stroke-opacity:0.2;" x="369.560141" xlink:href="#m1ebfd038c5" y="209.255829"/>
     <use style="fill:#0000ff;fill-opacity:0.2;stroke:#0000ff;stroke-opacity:0.2;" x="370.593326" xlink:href="#m1ebfd038c5" y="227.65733"/>
     <use style="fill:#0000ff;fill-opacity:0.2;stroke:#0000ff;stroke-opacity:0.2;" x="371.62651" xlink:href="#m1ebfd038c5" y="80.445326"/>
     <use style="fill:#0000ff;fill-opacity:0.2;stroke:#0000ff;stroke-opacity:0.2;" x="372.659695" xlink:href="#m1ebfd038c5" y="154.051328"/>
     <use style="fill:#0000ff;fill-opacity:0.2;stroke:#0000ff;stroke-opacity:0.2;" x="373.69288" xlink:href="#m1ebfd038c5" y="154.051328"/>
     <use style="fill:#0000ff;fill-opacity:0.2;stroke:#0000ff;stroke-opacity:0.2;" x="374.726064" xlink:href="#m1ebfd038c5" y="209.255829"/>
     <use style="fill:#0000ff;fill-opacity:0.2;stroke:#0000ff;stroke-opacity:0.2;" x="375.759249" xlink:href="#m1ebfd038c5" y="190.854329"/>
     <use style="fill:#0000ff;fill-opacity:0.2;stroke:#0000ff;stroke-opacity:0.2;" x="376.792434" xlink:href="#m1ebfd038c5" y="154.051328"/>
     <use style="fill:#0000ff;fill-opacity:0.2;stroke:#0000ff;stroke-opacity:0.2;" x="377.825619" xlink:href="#m1ebfd038c5" y="135.649828"/>
     <use style="fill:#0000ff;fill-opacity:0.2;stroke:#0000ff;stroke-opacity:0.2;" x="378.858803" xlink:href="#m1ebfd038c5" y="209.255829"/>
     <use style="fill:#0000ff;fill-opacity:0.2;stroke:#0000ff;stroke-opacity:0.2;" x="379.891988" xlink:href="#m1ebfd038c5" y="98.846827"/>
     <use style="fill:#0000ff;fill-opacity:0.2;stroke:#0000ff;stroke-opacity:0.2;" x="380.925173" xlink:href="#m1ebfd038c5" y="154.051328"/>
     <use style="fill:#0000ff;fill-opacity:0.2;stroke:#0000ff;stroke-opacity:0.2;" x="381.958357" xlink:href="#m1ebfd038c5" y="172.452828"/>
     <use style="fill:#0000ff;fill-opacity:0.2;stroke:#0000ff;stroke-opacity:0.2;" x="382.991542" xlink:href="#m1ebfd038c5" y="190.854329"/>
     <use style="fill:#0000ff;fill-opacity:0.2;stroke:#0000ff;stroke-opacity:0.2;" x="384.024727" xlink:href="#m1ebfd038c5" y="98.846827"/>
     <use style="fill:#0000ff;fill-opacity:0.2;stroke:#0000ff;stroke-opacity:0.2;" x="385.057911" xlink:href="#m1ebfd038c5" y="80.445326"/>
     <use style="fill:#0000ff;fill-opacity:0.2;stroke:#0000ff;stroke-opacity:0.2;" x="386.091096" xlink:href="#m1ebfd038c5" y="135.649828"/>
     <use style="fill:#0000ff;fill-opacity:0.2;stroke:#0000ff;stroke-opacity:0.2;" x="387.124281" xlink:href="#m1ebfd038c5" y="135.649828"/>
     <use style="fill:#0000ff;fill-opacity:0.2;stroke:#0000ff;stroke-opacity:0.2;" x="388.157465" xlink:href="#m1ebfd038c5" y="117.248327"/>
     <use style="fill:#0000ff;fill-opacity:0.2;stroke:#0000ff;stroke-opacity:0.2;" x="389.19065" xlink:href="#m1ebfd038c5" y="154.051328"/>
     <use style="fill:#0000ff;fill-opacity:0.2;stroke:#0000ff;stroke-opacity:0.2;" x="390.223835" xlink:href="#m1ebfd038c5" y="172.452828"/>
     <use style="fill:#0000ff;fill-opacity:0.2;stroke:#0000ff;stroke-opacity:0.2;" x="391.25702" xlink:href="#m1ebfd038c5" y="135.649828"/>
     <use style="fill:#0000ff;fill-opacity:0.2;stroke:#0000ff;stroke-opacity:0.2;" x="392.290204" xlink:href="#m1ebfd038c5" y="209.255829"/>
     <use style="fill:#0000ff;fill-opacity:0.2;stroke:#0000ff;stroke-opacity:0.2;" x="393.323389" xlink:href="#m1ebfd038c5" y="172.452828"/>
     <use style="fill:#0000ff;fill-opacity:0.2;stroke:#0000ff;stroke-opacity:0.2;" x="394.356574" xlink:href="#m1ebfd038c5" y="172.452828"/>
     <use style="fill:#0000ff;fill-opacity:0.2;stroke:#0000ff;stroke-opacity:0.2;" x="395.389758" xlink:href="#m1ebfd038c5" y="98.846827"/>
     <use style="fill:#0000ff;fill-opacity:0.2;stroke:#0000ff;stroke-opacity:0.2;" x="396.422943" xlink:href="#m1ebfd038c5" y="172.452828"/>
     <use style="fill:#0000ff;fill-opacity:0.2;stroke:#0000ff;stroke-opacity:0.2;" x="397.456128" xlink:href="#m1ebfd038c5" y="135.649828"/>
     <use style="fill:#0000ff;fill-opacity:0.2;stroke:#0000ff;stroke-opacity:0.2;" x="398.489312" xlink:href="#m1ebfd038c5" y="43.642326"/>
     <use style="fill:#0000ff;fill-opacity:0.2;stroke:#0000ff;stroke-opacity:0.2;" x="399.522497" xlink:href="#m1ebfd038c5" y="117.248327"/>
     <use style="fill:#0000ff;fill-opacity:0.2;stroke:#0000ff;stroke-opacity:0.2;" x="400.555682" xlink:href="#m1ebfd038c5" y="227.65733"/>
    </g>
   </g>
   <g id="line2d_19">
    <path clip-path="url(#pa09d81d012)" d="M 77.168872 227.65733 
L 89.567089 227.65733 
L 93.699827 217.142186 
L 95.766197 217.142186 
L 96.799381 209.255829 
L 97.832566 203.998258 
L 98.865751 203.998258 
L 99.898936 201.369472 
L 100.93212 180.339186 
L 101.965305 172.452828 
L 102.99849 167.195257 
L 104.031674 169.824043 
L 105.064859 154.051328 
L 107.131228 127.76347 
L 108.164413 143.536185 
L 109.197598 122.505899 
L 111.263967 101.475613 
L 113.330337 106.733184 
L 114.363521 106.733184 
L 116.429891 111.990756 
L 117.463075 125.134684 
L 118.49626 133.021042 
L 119.529445 143.536185 
L 120.562629 138.278613 
L 121.595814 138.278613 
L 122.628999 130.392256 
L 123.662184 140.907399 
L 124.695368 127.76347 
L 125.728553 130.392256 
L 126.761738 125.134684 
L 127.794922 130.392256 
L 128.828107 140.907399 
L 130.894476 156.680114 
L 131.927661 167.195257 
L 133.99403 156.680114 
L 135.027215 169.824043 
L 136.0604 172.452828 
L 137.093585 161.937685 
L 138.126769 159.308899 
L 139.159954 161.937685 
L 140.193139 167.195257 
L 141.226323 185.596757 
L 142.259508 177.7104 
L 143.292693 180.339186 
L 144.325877 190.854329 
L 145.359062 196.1119 
L 146.392247 198.740686 
L 148.458616 193.483114 
L 149.491801 198.740686 
L 150.524986 193.483114 
L 151.55817 190.854329 
L 154.657724 190.854329 
L 155.690909 193.483114 
L 156.724094 193.483114 
L 158.790463 203.998258 
L 159.823648 206.627043 
L 160.856833 201.369472 
L 161.890017 206.627043 
L 162.923202 198.740686 
L 166.022756 198.740686 
L 167.055941 196.1119 
L 168.089125 201.369472 
L 169.12231 198.740686 
L 170.155495 206.627043 
L 172.221864 211.884615 
L 173.255049 211.884615 
L 174.288234 217.142186 
L 175.321418 211.884615 
L 176.354603 217.142186 
L 177.387788 219.770972 
L 179.454157 219.770972 
L 180.487342 222.399758 
L 181.520526 219.770972 
L 182.553711 225.028544 
L 188.752819 225.028544 
L 189.786004 222.399758 
L 190.819189 222.399758 
L 191.852373 219.770972 
L 192.885558 219.770972 
L 193.918743 217.142186 
L 194.951928 217.142186 
L 197.018297 222.399758 
L 198.051482 222.399758 
L 199.084666 225.028544 
L 200.117851 225.028544 
L 201.151036 227.65733 
L 265.208487 227.65733 
L 266.241671 225.028544 
L 272.44078 225.028544 
L 273.473964 227.65733 
L 282.772627 227.65733 
L 283.805811 225.028544 
L 287.93855 225.028544 
L 290.004919 219.770972 
L 291.038104 222.399758 
L 292.071289 222.399758 
L 293.104474 217.142186 
L 294.137658 214.513401 
L 295.170843 209.255829 
L 297.237212 214.513401 
L 299.303582 203.998258 
L 300.336766 209.255829 
L 301.369951 209.255829 
L 302.403136 214.513401 
L 303.43632 211.884615 
L 304.469505 206.627043 
L 306.535875 206.627043 
L 308.602244 196.1119 
L 309.635429 188.225543 
L 310.668613 188.225543 
L 312.734983 193.483114 
L 313.768167 190.854329 
L 314.801352 196.1119 
L 315.834537 198.740686 
L 316.867722 206.627043 
L 317.900906 209.255829 
L 319.967276 198.740686 
L 321.00046 196.1119 
L 322.033645 185.596757 
L 323.06683 185.596757 
L 324.100014 175.081614 
L 325.133199 161.937685 
L 328.232753 161.937685 
L 329.265938 164.566471 
L 330.299123 164.566471 
L 331.332307 172.452828 
L 332.365492 167.195257 
L 333.398677 164.566471 
L 335.465046 164.566471 
L 336.498231 161.937685 
L 338.5646 146.164971 
L 339.597785 161.937685 
L 340.63097 159.308899 
L 341.664154 151.422542 
L 342.697339 148.793756 
L 343.730524 135.649828 
L 344.763708 143.536185 
L 345.796893 138.278613 
L 346.830078 138.278613 
L 347.863262 143.536185 
L 348.896447 146.164971 
L 349.929632 151.422542 
L 350.962816 161.937685 
L 351.996001 167.195257 
L 353.029186 169.824043 
L 354.062371 156.680114 
L 355.095555 156.680114 
L 356.12874 159.308899 
L 357.161925 156.680114 
L 358.195109 167.195257 
L 359.228294 159.308899 
L 360.261479 167.195257 
L 362.327848 177.7104 
L 364.394217 182.967971 
L 365.427402 177.7104 
L 367.493772 188.225543 
L 368.526956 177.7104 
L 369.560141 169.824043 
L 370.593326 167.195257 
L 371.62651 172.452828 
L 372.659695 175.081614 
L 373.69288 167.195257 
L 374.726064 154.051328 
L 375.759249 172.452828 
L 376.792434 164.566471 
L 377.825619 164.566471 
L 378.858803 159.308899 
L 379.891988 159.308899 
L 381.958357 143.536185 
L 382.991542 133.021042 
L 384.024727 138.278613 
L 385.057911 133.021042 
L 387.124281 127.76347 
L 388.157465 133.021042 
L 389.19065 151.422542 
L 391.25702 161.937685 
L 392.290204 159.308899 
L 393.323389 161.937685 
L 394.356574 156.680114 
L 394.356574 156.680114 
" style="fill:none;stroke:#e60000;stroke-linecap:square;stroke-width:2;"/>
   </g>
   <g id="patch_3">
    <path d="M 57.745 237.778155 
L 57.745 15.12 
" style="fill:none;stroke:#000000;stroke-linecap:square;stroke-linejoin:miter;stroke-width:0.8;"/>
   </g>
   <g id="patch_4">
    <path d="M 416.88 237.778155 
L 416.88 15.12 
" style="fill:none;stroke:#000000;stroke-linecap:square;stroke-linejoin:miter;stroke-width:0.8;"/>
   </g>
   <g id="patch_5">
    <path d="M 57.745 237.778155 
L 416.88 237.778155 
" style="fill:none;stroke:#000000;stroke-linecap:square;stroke-linejoin:miter;stroke-width:0.8;"/>
   </g>
   <g id="patch_6">
    <path d="M 57.745 15.12 
L 416.88 15.12 
" style="fill:none;stroke:#000000;stroke-linecap:square;stroke-linejoin:miter;stroke-width:0.8;"/>
   </g>
   <g id="legend_1">
    <g id="line2d_20">
     <path d="M 160.664687 33.457812 
L 188.664687 33.457812 
" style="fill:none;stroke:#e60000;stroke-linecap:square;stroke-width:2;"/>
    </g>
    <g id="line2d_21"/>
    <g id="text_19">
     <!-- Weekly Average -->
     <defs>
      <path d="M 3.328125 72.90625 
L 13.28125 72.90625 
L 28.609375 11.28125 
L 43.890625 72.90625 
L 54.984375 72.90625 
L 70.3125 11.28125 
L 85.59375 72.90625 
L 95.609375 72.90625 
L 77.296875 0 
L 64.890625 0 
L 49.515625 63.28125 
L 33.984375 0 
L 21.578125 0 
z
" id="DejaVuSans-87"/>
      <path d="M 9.078125 75.984375 
L 18.109375 75.984375 
L 18.109375 31.109375 
L 44.921875 54.6875 
L 56.390625 54.6875 
L 27.390625 29.109375 
L 57.625 0 
L 45.90625 0 
L 18.109375 26.703125 
L 18.109375 0 
L 9.078125 0 
z
" id="DejaVuSans-107"/>
     </defs>
     <g transform="translate(199.864687 38.357812)scale(0.14 -0.14)">
      <use xlink:href="#DejaVuSans-87"/>
      <use x="98.798828" xlink:href="#DejaVuSans-101"/>
      <use x="160.322266" xlink:href="#DejaVuSans-101"/>
      <use x="221.845703" xlink:href="#DejaVuSans-107"/>
      <use x="279.755859" xlink:href="#DejaVuSans-108"/>
      <use x="307.539062" xlink:href="#DejaVuSans-121"/>
      <use x="366.71875" xlink:href="#DejaVuSans-32"/>
      <use x="398.505859" xlink:href="#DejaVuSans-65"/>
      <use x="466.835938" xlink:href="#DejaVuSans-118"/>
      <use x="526.015625" xlink:href="#DejaVuSans-101"/>
      <use x="587.539062" xlink:href="#DejaVuSans-114"/>
      <use x="628.652344" xlink:href="#DejaVuSans-97"/>
      <use x="689.931641" xlink:href="#DejaVuSans-103"/>
      <use x="753.408203" xlink:href="#DejaVuSans-101"/>
     </g>
    </g>
   </g>
  </g>
 </g>
 <defs>
  <clipPath id="pa09d81d012">
   <rect height="222.658155" width="359.135" x="57.745" y="15.12"/>
  </clipPath>
 </defs>
</svg>
