<?xml version="1.0" encoding="utf-8" standalone="no"?>
<!DOCTYPE svg PUBLIC "-//W3C//DTD SVG 1.1//EN"
  "http://www.w3.org/Graphics/SVG/1.1/DTD/svg11.dtd">
<!-- Created with matplotlib (https://matplotlib.org/) -->
<svg height="288pt" version="1.1" viewBox="0 0 432 288" width="432pt" xmlns="http://www.w3.org/2000/svg" xmlns:xlink="http://www.w3.org/1999/xlink">
 <defs>
  <style type="text/css">
*{stroke-linecap:butt;stroke-linejoin:round;}
  </style>
 </defs>
 <g id="figure_1">
  <g id="patch_1">
   <path d="M 0 288 
L 432 288 
L 432 0 
L 0 0 
z
" style="fill:#ffffff;"/>
  </g>
  <g id="axes_1">
   <g id="patch_2">
    <path d="M 66.495 237.778155 
L 413.055168 237.778155 
L 413.055168 15.12 
L 66.495 15.12 
z
" style="fill:#ffffff;"/>
   </g>
   <g id="matplotlib.axis_1">
    <g id="xtick_1">
     <g id="line2d_1">
      <defs>
       <path d="M 0 0 
L 0 3.5 
" id="m473564c33e" style="stroke:#000000;stroke-width:0.8;"/>
      </defs>
      <g>
       <use style="stroke:#000000;stroke-width:0.8;" x="82.247735" xlink:href="#m473564c33e" y="237.778155"/>
      </g>
     </g>
     <g id="text_1">
      <!-- Mar -->
      <defs>
       <path d="M 9.8125 72.90625 
L 24.515625 72.90625 
L 43.109375 23.296875 
L 61.8125 72.90625 
L 76.515625 72.90625 
L 76.515625 0 
L 66.890625 0 
L 66.890625 64.015625 
L 48.09375 14.015625 
L 38.1875 14.015625 
L 19.390625 64.015625 
L 19.390625 0 
L 9.8125 0 
z
" id="DejaVuSans-77"/>
       <path d="M 34.28125 27.484375 
Q 23.390625 27.484375 19.1875 25 
Q 14.984375 22.515625 14.984375 16.5 
Q 14.984375 11.71875 18.140625 8.90625 
Q 21.296875 6.109375 26.703125 6.109375 
Q 34.1875 6.109375 38.703125 11.40625 
Q 43.21875 16.703125 43.21875 25.484375 
L 43.21875 27.484375 
z
M 52.203125 31.203125 
L 52.203125 0 
L 43.21875 0 
L 43.21875 8.296875 
Q 40.140625 3.328125 35.546875 0.953125 
Q 30.953125 -1.421875 24.3125 -1.421875 
Q 15.921875 -1.421875 10.953125 3.296875 
Q 6 8.015625 6 15.921875 
Q 6 25.140625 12.171875 29.828125 
Q 18.359375 34.515625 30.609375 34.515625 
L 43.21875 34.515625 
L 43.21875 35.40625 
Q 43.21875 41.609375 39.140625 45 
Q 35.0625 48.390625 27.6875 48.390625 
Q 23 48.390625 18.546875 47.265625 
Q 14.109375 46.140625 10.015625 43.890625 
L 10.015625 52.203125 
Q 14.9375 54.109375 19.578125 55.046875 
Q 24.21875 56 28.609375 56 
Q 40.484375 56 46.34375 49.84375 
Q 52.203125 43.703125 52.203125 31.203125 
z
" id="DejaVuSans-97"/>
       <path d="M 41.109375 46.296875 
Q 39.59375 47.171875 37.8125 47.578125 
Q 36.03125 48 33.890625 48 
Q 26.265625 48 22.1875 43.046875 
Q 18.109375 38.09375 18.109375 28.8125 
L 18.109375 0 
L 9.078125 0 
L 9.078125 54.6875 
L 18.109375 54.6875 
L 18.109375 46.1875 
Q 20.953125 51.171875 25.484375 53.578125 
Q 30.03125 56 36.53125 56 
Q 37.453125 56 38.578125 55.875 
Q 39.703125 55.765625 41.0625 55.515625 
z
" id="DejaVuSans-114"/>
      </defs>
      <g transform="translate(73.644966 268.642624)rotate(-35)scale(0.14 -0.14)">
       <use xlink:href="#DejaVuSans-77"/>
       <use x="86.279297" xlink:href="#DejaVuSans-97"/>
       <use x="147.558594" xlink:href="#DejaVuSans-114"/>
      </g>
     </g>
    </g>
    <g id="xtick_2">
     <g id="line2d_2">
      <g>
       <use style="stroke:#000000;stroke-width:0.8;" x="111.665493" xlink:href="#m473564c33e" y="237.778155"/>
      </g>
     </g>
     <g id="text_2">
      <!-- Apr -->
      <defs>
       <path d="M 34.1875 63.1875 
L 20.796875 26.90625 
L 47.609375 26.90625 
z
M 28.609375 72.90625 
L 39.796875 72.90625 
L 67.578125 0 
L 57.328125 0 
L 50.6875 18.703125 
L 17.828125 18.703125 
L 11.1875 0 
L 0.78125 0 
z
" id="DejaVuSans-65"/>
       <path d="M 18.109375 8.203125 
L 18.109375 -20.796875 
L 9.078125 -20.796875 
L 9.078125 54.6875 
L 18.109375 54.6875 
L 18.109375 46.390625 
Q 20.953125 51.265625 25.265625 53.625 
Q 29.59375 56 35.59375 56 
Q 45.5625 56 51.78125 48.09375 
Q 58.015625 40.1875 58.015625 27.296875 
Q 58.015625 14.40625 51.78125 6.484375 
Q 45.5625 -1.421875 35.59375 -1.421875 
Q 29.59375 -1.421875 25.265625 0.953125 
Q 20.953125 3.328125 18.109375 8.203125 
z
M 48.6875 27.296875 
Q 48.6875 37.203125 44.609375 42.84375 
Q 40.53125 48.484375 33.40625 48.484375 
Q 26.265625 48.484375 22.1875 42.84375 
Q 18.109375 37.203125 18.109375 27.296875 
Q 18.109375 17.390625 22.1875 11.75 
Q 26.265625 6.109375 33.40625 6.109375 
Q 40.53125 6.109375 44.609375 11.75 
Q 48.6875 17.390625 48.6875 27.296875 
z
" id="DejaVuSans-112"/>
      </defs>
      <g transform="translate(103.961359 267.384162)rotate(-35)scale(0.14 -0.14)">
       <use xlink:href="#DejaVuSans-65"/>
       <use x="68.408203" xlink:href="#DejaVuSans-112"/>
       <use x="131.884766" xlink:href="#DejaVuSans-114"/>
      </g>
     </g>
    </g>
    <g id="xtick_3">
     <g id="line2d_3">
      <g>
       <use style="stroke:#000000;stroke-width:0.8;" x="140.134291" xlink:href="#m473564c33e" y="237.778155"/>
      </g>
     </g>
     <g id="text_3">
      <!-- May -->
      <defs>
       <path d="M 32.171875 -5.078125 
Q 28.375 -14.84375 24.75 -17.8125 
Q 21.140625 -20.796875 15.09375 -20.796875 
L 7.90625 -20.796875 
L 7.90625 -13.28125 
L 13.1875 -13.28125 
Q 16.890625 -13.28125 18.9375 -11.515625 
Q 21 -9.765625 23.484375 -3.21875 
L 25.09375 0.875 
L 2.984375 54.6875 
L 12.5 54.6875 
L 29.59375 11.921875 
L 46.6875 54.6875 
L 56.203125 54.6875 
z
" id="DejaVuSans-121"/>
      </defs>
      <g transform="translate(130.494911 270.094311)rotate(-35)scale(0.14 -0.14)">
       <use xlink:href="#DejaVuSans-77"/>
       <use x="86.279297" xlink:href="#DejaVuSans-97"/>
       <use x="147.558594" xlink:href="#DejaVuSans-121"/>
      </g>
     </g>
    </g>
    <g id="xtick_4">
     <g id="line2d_4">
      <g>
       <use style="stroke:#000000;stroke-width:0.8;" x="169.552049" xlink:href="#m473564c33e" y="237.778155"/>
      </g>
     </g>
     <g id="text_4">
      <!-- Jun -->
      <defs>
       <path d="M 9.8125 72.90625 
L 19.671875 72.90625 
L 19.671875 5.078125 
Q 19.671875 -8.109375 14.671875 -14.0625 
Q 9.671875 -20.015625 -1.421875 -20.015625 
L -5.171875 -20.015625 
L -5.171875 -11.71875 
L -2.09375 -11.71875 
Q 4.4375 -11.71875 7.125 -8.046875 
Q 9.8125 -4.390625 9.8125 5.078125 
z
" id="DejaVuSans-74"/>
       <path d="M 8.5 21.578125 
L 8.5 54.6875 
L 17.484375 54.6875 
L 17.484375 21.921875 
Q 17.484375 14.15625 20.5 10.265625 
Q 23.53125 6.390625 29.59375 6.390625 
Q 36.859375 6.390625 41.078125 11.03125 
Q 45.3125 15.671875 45.3125 23.6875 
L 45.3125 54.6875 
L 54.296875 54.6875 
L 54.296875 0 
L 45.3125 0 
L 45.3125 8.40625 
Q 42.046875 3.421875 37.71875 1 
Q 33.40625 -1.421875 27.6875 -1.421875 
Q 18.265625 -1.421875 13.375 4.4375 
Q 8.5 10.296875 8.5 21.578125 
z
M 31.109375 56 
z
" id="DejaVuSans-117"/>
       <path d="M 54.890625 33.015625 
L 54.890625 0 
L 45.90625 0 
L 45.90625 32.71875 
Q 45.90625 40.484375 42.875 44.328125 
Q 39.84375 48.1875 33.796875 48.1875 
Q 26.515625 48.1875 22.3125 43.546875 
Q 18.109375 38.921875 18.109375 30.90625 
L 18.109375 0 
L 9.078125 0 
L 9.078125 54.6875 
L 18.109375 54.6875 
L 18.109375 46.1875 
Q 21.34375 51.125 25.703125 53.5625 
Q 30.078125 56 35.796875 56 
Q 45.21875 56 50.046875 50.171875 
Q 54.890625 44.34375 54.890625 33.015625 
z
" id="DejaVuSans-110"/>
      </defs>
      <g transform="translate(162.808371 266.039125)rotate(-35)scale(0.14 -0.14)">
       <use xlink:href="#DejaVuSans-74"/>
       <use x="29.492188" xlink:href="#DejaVuSans-117"/>
       <use x="92.871094" xlink:href="#DejaVuSans-110"/>
      </g>
     </g>
    </g>
    <g id="xtick_5">
     <g id="line2d_5">
      <g>
       <use style="stroke:#000000;stroke-width:0.8;" x="198.020847" xlink:href="#m473564c33e" y="237.778155"/>
      </g>
     </g>
     <g id="text_5">
      <!-- Jul -->
      <defs>
       <path d="M 9.421875 75.984375 
L 18.40625 75.984375 
L 18.40625 0 
L 9.421875 0 
z
" id="DejaVuSans-108"/>
      </defs>
      <g transform="translate(193.318138 263.180922)rotate(-35)scale(0.14 -0.14)">
       <use xlink:href="#DejaVuSans-74"/>
       <use x="29.492188" xlink:href="#DejaVuSans-117"/>
       <use x="92.871094" xlink:href="#DejaVuSans-108"/>
      </g>
     </g>
    </g>
    <g id="xtick_6">
     <g id="line2d_6">
      <g>
       <use style="stroke:#000000;stroke-width:0.8;" x="227.438605" xlink:href="#m473564c33e" y="237.778155"/>
      </g>
     </g>
     <g id="text_6">
      <!-- Aug -->
      <defs>
       <path d="M 45.40625 27.984375 
Q 45.40625 37.75 41.375 43.109375 
Q 37.359375 48.484375 30.078125 48.484375 
Q 22.859375 48.484375 18.828125 43.109375 
Q 14.796875 37.75 14.796875 27.984375 
Q 14.796875 18.265625 18.828125 12.890625 
Q 22.859375 7.515625 30.078125 7.515625 
Q 37.359375 7.515625 41.375 12.890625 
Q 45.40625 18.265625 45.40625 27.984375 
z
M 54.390625 6.78125 
Q 54.390625 -7.171875 48.1875 -13.984375 
Q 42 -20.796875 29.203125 -20.796875 
Q 24.46875 -20.796875 20.265625 -20.09375 
Q 16.0625 -19.390625 12.109375 -17.921875 
L 12.109375 -9.1875 
Q 16.0625 -11.328125 19.921875 -12.34375 
Q 23.78125 -13.375 27.78125 -13.375 
Q 36.625 -13.375 41.015625 -8.765625 
Q 45.40625 -4.15625 45.40625 5.171875 
L 45.40625 9.625 
Q 42.625 4.78125 38.28125 2.390625 
Q 33.9375 0 27.875 0 
Q 17.828125 0 11.671875 7.65625 
Q 5.515625 15.328125 5.515625 27.984375 
Q 5.515625 40.671875 11.671875 48.328125 
Q 17.828125 56 27.875 56 
Q 33.9375 56 38.28125 53.609375 
Q 42.625 51.21875 45.40625 46.390625 
L 45.40625 54.6875 
L 54.390625 54.6875 
z
" id="DejaVuSans-103"/>
      </defs>
      <g transform="translate(218.457746 269.172107)rotate(-35)scale(0.14 -0.14)">
       <use xlink:href="#DejaVuSans-65"/>
       <use x="68.408203" xlink:href="#DejaVuSans-117"/>
       <use x="131.787109" xlink:href="#DejaVuSans-103"/>
      </g>
     </g>
    </g>
    <g id="xtick_7">
     <g id="line2d_7">
      <g>
       <use style="stroke:#000000;stroke-width:0.8;" x="256.856363" xlink:href="#m473564c33e" y="237.778155"/>
      </g>
     </g>
     <g id="text_7">
      <!-- Sep -->
      <defs>
       <path d="M 53.515625 70.515625 
L 53.515625 60.890625 
Q 47.90625 63.578125 42.921875 64.890625 
Q 37.9375 66.21875 33.296875 66.21875 
Q 25.25 66.21875 20.875 63.09375 
Q 16.5 59.96875 16.5 54.203125 
Q 16.5 49.359375 19.40625 46.890625 
Q 22.3125 44.4375 30.421875 42.921875 
L 36.375 41.703125 
Q 47.40625 39.59375 52.65625 34.296875 
Q 57.90625 29 57.90625 20.125 
Q 57.90625 9.515625 50.796875 4.046875 
Q 43.703125 -1.421875 29.984375 -1.421875 
Q 24.8125 -1.421875 18.96875 -0.25 
Q 13.140625 0.921875 6.890625 3.21875 
L 6.890625 13.375 
Q 12.890625 10.015625 18.65625 8.296875 
Q 24.421875 6.59375 29.984375 6.59375 
Q 38.421875 6.59375 43.015625 9.90625 
Q 47.609375 13.234375 47.609375 19.390625 
Q 47.609375 24.75 44.3125 27.78125 
Q 41.015625 30.8125 33.5 32.328125 
L 27.484375 33.5 
Q 16.453125 35.6875 11.515625 40.375 
Q 6.59375 45.0625 6.59375 53.421875 
Q 6.59375 63.09375 13.40625 68.65625 
Q 20.21875 74.21875 32.171875 74.21875 
Q 37.3125 74.21875 42.625 73.28125 
Q 47.953125 72.359375 53.515625 70.515625 
z
" id="DejaVuSans-83"/>
       <path d="M 56.203125 29.59375 
L 56.203125 25.203125 
L 14.890625 25.203125 
Q 15.484375 15.921875 20.484375 11.0625 
Q 25.484375 6.203125 34.421875 6.203125 
Q 39.59375 6.203125 44.453125 7.46875 
Q 49.3125 8.734375 54.109375 11.28125 
L 54.109375 2.78125 
Q 49.265625 0.734375 44.1875 -0.34375 
Q 39.109375 -1.421875 33.890625 -1.421875 
Q 20.796875 -1.421875 13.15625 6.1875 
Q 5.515625 13.8125 5.515625 26.8125 
Q 5.515625 40.234375 12.765625 48.109375 
Q 20.015625 56 32.328125 56 
Q 43.359375 56 49.78125 48.890625 
Q 56.203125 41.796875 56.203125 29.59375 
z
M 47.21875 32.234375 
Q 47.125 39.59375 43.09375 43.984375 
Q 39.0625 48.390625 32.421875 48.390625 
Q 24.90625 48.390625 20.390625 44.140625 
Q 15.875 39.890625 15.1875 32.171875 
z
" id="DejaVuSans-101"/>
      </defs>
      <g transform="translate(248.263449 268.628823)rotate(-35)scale(0.14 -0.14)">
       <use xlink:href="#DejaVuSans-83"/>
       <use x="63.476562" xlink:href="#DejaVuSans-101"/>
       <use x="125" xlink:href="#DejaVuSans-112"/>
      </g>
     </g>
    </g>
    <g id="xtick_8">
     <g id="line2d_8">
      <g>
       <use style="stroke:#000000;stroke-width:0.8;" x="285.325161" xlink:href="#m473564c33e" y="237.778155"/>
      </g>
     </g>
     <g id="text_8">
      <!-- Oct -->
      <defs>
       <path d="M 39.40625 66.21875 
Q 28.65625 66.21875 22.328125 58.203125 
Q 16.015625 50.203125 16.015625 36.375 
Q 16.015625 22.609375 22.328125 14.59375 
Q 28.65625 6.59375 39.40625 6.59375 
Q 50.140625 6.59375 56.421875 14.59375 
Q 62.703125 22.609375 62.703125 36.375 
Q 62.703125 50.203125 56.421875 58.203125 
Q 50.140625 66.21875 39.40625 66.21875 
z
M 39.40625 74.21875 
Q 54.734375 74.21875 63.90625 63.9375 
Q 73.09375 53.65625 73.09375 36.375 
Q 73.09375 19.140625 63.90625 8.859375 
Q 54.734375 -1.421875 39.40625 -1.421875 
Q 24.03125 -1.421875 14.8125 8.828125 
Q 5.609375 19.09375 5.609375 36.375 
Q 5.609375 53.65625 14.8125 63.9375 
Q 24.03125 74.21875 39.40625 74.21875 
z
" id="DejaVuSans-79"/>
       <path d="M 48.78125 52.59375 
L 48.78125 44.1875 
Q 44.96875 46.296875 41.140625 47.34375 
Q 37.3125 48.390625 33.40625 48.390625 
Q 24.65625 48.390625 19.8125 42.84375 
Q 14.984375 37.3125 14.984375 27.296875 
Q 14.984375 17.28125 19.8125 11.734375 
Q 24.65625 6.203125 33.40625 6.203125 
Q 37.3125 6.203125 41.140625 7.25 
Q 44.96875 8.296875 48.78125 10.40625 
L 48.78125 2.09375 
Q 45.015625 0.34375 40.984375 -0.53125 
Q 36.96875 -1.421875 32.421875 -1.421875 
Q 20.0625 -1.421875 12.78125 6.34375 
Q 5.515625 14.109375 5.515625 27.296875 
Q 5.515625 40.671875 12.859375 48.328125 
Q 20.21875 56 33.015625 56 
Q 37.15625 56 41.109375 55.140625 
Q 45.0625 54.296875 48.78125 52.59375 
z
" id="DejaVuSans-99"/>
       <path d="M 18.3125 70.21875 
L 18.3125 54.6875 
L 36.8125 54.6875 
L 36.8125 47.703125 
L 18.3125 47.703125 
L 18.3125 18.015625 
Q 18.3125 11.328125 20.140625 9.421875 
Q 21.96875 7.515625 27.59375 7.515625 
L 36.8125 7.515625 
L 36.8125 0 
L 27.59375 0 
Q 17.1875 0 13.234375 3.875 
Q 9.28125 7.765625 9.28125 18.015625 
L 9.28125 47.703125 
L 2.6875 47.703125 
L 2.6875 54.6875 
L 9.28125 54.6875 
L 9.28125 70.21875 
z
" id="DejaVuSans-116"/>
      </defs>
      <g transform="translate(277.626403 267.376634)rotate(-35)scale(0.14 -0.14)">
       <use xlink:href="#DejaVuSans-79"/>
       <use x="78.710938" xlink:href="#DejaVuSans-99"/>
       <use x="133.691406" xlink:href="#DejaVuSans-116"/>
      </g>
     </g>
    </g>
    <g id="xtick_9">
     <g id="line2d_9">
      <g>
       <use style="stroke:#000000;stroke-width:0.8;" x="314.742919" xlink:href="#m473564c33e" y="237.778155"/>
      </g>
     </g>
     <g id="text_9">
      <!-- Nov -->
      <defs>
       <path d="M 9.8125 72.90625 
L 23.09375 72.90625 
L 55.421875 11.921875 
L 55.421875 72.90625 
L 64.984375 72.90625 
L 64.984375 0 
L 51.703125 0 
L 19.390625 60.984375 
L 19.390625 0 
L 9.8125 0 
z
" id="DejaVuSans-78"/>
       <path d="M 30.609375 48.390625 
Q 23.390625 48.390625 19.1875 42.75 
Q 14.984375 37.109375 14.984375 27.296875 
Q 14.984375 17.484375 19.15625 11.84375 
Q 23.34375 6.203125 30.609375 6.203125 
Q 37.796875 6.203125 41.984375 11.859375 
Q 46.1875 17.53125 46.1875 27.296875 
Q 46.1875 37.015625 41.984375 42.703125 
Q 37.796875 48.390625 30.609375 48.390625 
z
M 30.609375 56 
Q 42.328125 56 49.015625 48.375 
Q 55.71875 40.765625 55.71875 27.296875 
Q 55.71875 13.875 49.015625 6.21875 
Q 42.328125 -1.421875 30.609375 -1.421875 
Q 18.84375 -1.421875 12.171875 6.21875 
Q 5.515625 13.875 5.515625 27.296875 
Q 5.515625 40.765625 12.171875 48.375 
Q 18.84375 56 30.609375 56 
z
" id="DejaVuSans-111"/>
       <path d="M 2.984375 54.6875 
L 12.5 54.6875 
L 29.59375 8.796875 
L 46.6875 54.6875 
L 56.203125 54.6875 
L 35.6875 0 
L 23.484375 0 
z
" id="DejaVuSans-118"/>
      </defs>
      <g transform="translate(305.76654 269.165834)rotate(-35)scale(0.14 -0.14)">
       <use xlink:href="#DejaVuSans-78"/>
       <use x="74.804688" xlink:href="#DejaVuSans-111"/>
       <use x="135.986328" xlink:href="#DejaVuSans-118"/>
      </g>
     </g>
    </g>
    <g id="xtick_10">
     <g id="line2d_10">
      <g>
       <use style="stroke:#000000;stroke-width:0.8;" x="343.211717" xlink:href="#m473564c33e" y="237.778155"/>
      </g>
     </g>
     <g id="text_10">
      <!-- Dec -->
      <defs>
       <path d="M 19.671875 64.796875 
L 19.671875 8.109375 
L 31.59375 8.109375 
Q 46.6875 8.109375 53.6875 14.9375 
Q 60.6875 21.78125 60.6875 36.53125 
Q 60.6875 51.171875 53.6875 57.984375 
Q 46.6875 64.796875 31.59375 64.796875 
z
M 9.8125 72.90625 
L 30.078125 72.90625 
Q 51.265625 72.90625 61.171875 64.09375 
Q 71.09375 55.28125 71.09375 36.53125 
Q 71.09375 17.671875 61.125 8.828125 
Q 51.171875 0 30.078125 0 
L 9.8125 0 
z
" id="DejaVuSans-68"/>
      </defs>
      <g transform="translate(334.331204 269.031581)rotate(-35)scale(0.14 -0.14)">
       <use xlink:href="#DejaVuSans-68"/>
       <use x="77.001953" xlink:href="#DejaVuSans-101"/>
       <use x="138.525391" xlink:href="#DejaVuSans-99"/>
      </g>
     </g>
    </g>
    <g id="xtick_11">
     <g id="line2d_11">
      <g>
       <use style="stroke:#000000;stroke-width:0.8;" x="372.629475" xlink:href="#m473564c33e" y="237.778155"/>
      </g>
     </g>
     <g id="text_11">
      <!-- Jan -->
      <g transform="translate(366.005854 265.870996)rotate(-35)scale(0.14 -0.14)">
       <use xlink:href="#DejaVuSans-74"/>
       <use x="29.492188" xlink:href="#DejaVuSans-97"/>
       <use x="90.771484" xlink:href="#DejaVuSans-110"/>
      </g>
     </g>
    </g>
    <g id="xtick_12">
     <g id="line2d_12">
      <g>
       <use style="stroke:#000000;stroke-width:0.8;" x="402.047233" xlink:href="#m473564c33e" y="237.778155"/>
      </g>
     </g>
     <g id="text_12">
      <!-- Feb -->
      <defs>
       <path d="M 9.8125 72.90625 
L 51.703125 72.90625 
L 51.703125 64.59375 
L 19.671875 64.59375 
L 19.671875 43.109375 
L 48.578125 43.109375 
L 48.578125 34.8125 
L 19.671875 34.8125 
L 19.671875 0 
L 9.8125 0 
z
" id="DejaVuSans-70"/>
       <path d="M 48.6875 27.296875 
Q 48.6875 37.203125 44.609375 42.84375 
Q 40.53125 48.484375 33.40625 48.484375 
Q 26.265625 48.484375 22.1875 42.84375 
Q 18.109375 37.203125 18.109375 27.296875 
Q 18.109375 17.390625 22.1875 11.75 
Q 26.265625 6.109375 33.40625 6.109375 
Q 40.53125 6.109375 44.609375 11.75 
Q 48.6875 17.390625 48.6875 27.296875 
z
M 18.109375 46.390625 
Q 20.953125 51.265625 25.265625 53.625 
Q 29.59375 56 35.59375 56 
Q 45.5625 56 51.78125 48.09375 
Q 58.015625 40.1875 58.015625 27.296875 
Q 58.015625 14.40625 51.78125 6.484375 
Q 45.5625 -1.421875 35.59375 -1.421875 
Q 29.59375 -1.421875 25.265625 0.953125 
Q 20.953125 3.328125 18.109375 8.203125 
L 18.109375 0 
L 9.078125 0 
L 9.078125 75.984375 
L 18.109375 75.984375 
z
" id="DejaVuSans-98"/>
      </defs>
      <g transform="translate(393.801051 268.143254)rotate(-35)scale(0.14 -0.14)">
       <use xlink:href="#DejaVuSans-70"/>
       <use x="57.441406" xlink:href="#DejaVuSans-101"/>
       <use x="118.964844" xlink:href="#DejaVuSans-98"/>
      </g>
     </g>
    </g>
   </g>
   <g id="matplotlib.axis_2">
    <g id="ytick_1">
     <g id="line2d_13">
      <defs>
       <path d="M 0 0 
L -3.5 0 
" id="m8296a1a52b" style="stroke:#000000;stroke-width:0.8;"/>
      </defs>
      <g>
       <use style="stroke:#000000;stroke-width:0.8;" x="66.495" xlink:href="#m8296a1a52b" y="227.65733"/>
      </g>
     </g>
     <g id="text_13">
      <!-- 0 -->
      <defs>
       <path d="M 31.78125 66.40625 
Q 24.171875 66.40625 20.328125 58.90625 
Q 16.5 51.421875 16.5 36.375 
Q 16.5 21.390625 20.328125 13.890625 
Q 24.171875 6.390625 31.78125 6.390625 
Q 39.453125 6.390625 43.28125 13.890625 
Q 47.125 21.390625 47.125 36.375 
Q 47.125 51.421875 43.28125 58.90625 
Q 39.453125 66.40625 31.78125 66.40625 
z
M 31.78125 74.21875 
Q 44.046875 74.21875 50.515625 64.515625 
Q 56.984375 54.828125 56.984375 36.375 
Q 56.984375 17.96875 50.515625 8.265625 
Q 44.046875 -1.421875 31.78125 -1.421875 
Q 19.53125 -1.421875 13.0625 8.265625 
Q 6.59375 17.96875 6.59375 36.375 
Q 6.59375 54.828125 13.0625 64.515625 
Q 19.53125 74.21875 31.78125 74.21875 
z
" id="DejaVuSans-48"/>
      </defs>
      <g transform="translate(50.5875 232.976236)scale(0.14 -0.14)">
       <use xlink:href="#DejaVuSans-48"/>
      </g>
     </g>
    </g>
    <g id="ytick_2">
     <g id="line2d_14">
      <g>
       <use style="stroke:#000000;stroke-width:0.8;" x="66.495" xlink:href="#m8296a1a52b" y="182.675884"/>
      </g>
     </g>
     <g id="text_14">
      <!-- 200 -->
      <defs>
       <path d="M 19.1875 8.296875 
L 53.609375 8.296875 
L 53.609375 0 
L 7.328125 0 
L 7.328125 8.296875 
Q 12.9375 14.109375 22.625 23.890625 
Q 32.328125 33.6875 34.8125 36.53125 
Q 39.546875 41.84375 41.421875 45.53125 
Q 43.3125 49.21875 43.3125 52.78125 
Q 43.3125 58.59375 39.234375 62.25 
Q 35.15625 65.921875 28.609375 65.921875 
Q 23.96875 65.921875 18.8125 64.3125 
Q 13.671875 62.703125 7.8125 59.421875 
L 7.8125 69.390625 
Q 13.765625 71.78125 18.9375 73 
Q 24.125 74.21875 28.421875 74.21875 
Q 39.75 74.21875 46.484375 68.546875 
Q 53.21875 62.890625 53.21875 53.421875 
Q 53.21875 48.921875 51.53125 44.890625 
Q 49.859375 40.875 45.40625 35.40625 
Q 44.1875 33.984375 37.640625 27.21875 
Q 31.109375 20.453125 19.1875 8.296875 
z
" id="DejaVuSans-50"/>
      </defs>
      <g transform="translate(32.7725 187.99479)scale(0.14 -0.14)">
       <use xlink:href="#DejaVuSans-50"/>
       <use x="63.623047" xlink:href="#DejaVuSans-48"/>
       <use x="127.246094" xlink:href="#DejaVuSans-48"/>
      </g>
     </g>
    </g>
    <g id="ytick_3">
     <g id="line2d_15">
      <g>
       <use style="stroke:#000000;stroke-width:0.8;" x="66.495" xlink:href="#m8296a1a52b" y="137.694439"/>
      </g>
     </g>
     <g id="text_15">
      <!-- 400 -->
      <defs>
       <path d="M 37.796875 64.3125 
L 12.890625 25.390625 
L 37.796875 25.390625 
z
M 35.203125 72.90625 
L 47.609375 72.90625 
L 47.609375 25.390625 
L 58.015625 25.390625 
L 58.015625 17.1875 
L 47.609375 17.1875 
L 47.609375 0 
L 37.796875 0 
L 37.796875 17.1875 
L 4.890625 17.1875 
L 4.890625 26.703125 
z
" id="DejaVuSans-52"/>
      </defs>
      <g transform="translate(32.7725 143.013345)scale(0.14 -0.14)">
       <use xlink:href="#DejaVuSans-52"/>
       <use x="63.623047" xlink:href="#DejaVuSans-48"/>
       <use x="127.246094" xlink:href="#DejaVuSans-48"/>
      </g>
     </g>
    </g>
    <g id="ytick_4">
     <g id="line2d_16">
      <g>
       <use style="stroke:#000000;stroke-width:0.8;" x="66.495" xlink:href="#m8296a1a52b" y="92.712993"/>
      </g>
     </g>
     <g id="text_16">
      <!-- 600 -->
      <defs>
       <path d="M 33.015625 40.375 
Q 26.375 40.375 22.484375 35.828125 
Q 18.609375 31.296875 18.609375 23.390625 
Q 18.609375 15.53125 22.484375 10.953125 
Q 26.375 6.390625 33.015625 6.390625 
Q 39.65625 6.390625 43.53125 10.953125 
Q 47.40625 15.53125 47.40625 23.390625 
Q 47.40625 31.296875 43.53125 35.828125 
Q 39.65625 40.375 33.015625 40.375 
z
M 52.59375 71.296875 
L 52.59375 62.3125 
Q 48.875 64.0625 45.09375 64.984375 
Q 41.3125 65.921875 37.59375 65.921875 
Q 27.828125 65.921875 22.671875 59.328125 
Q 17.53125 52.734375 16.796875 39.40625 
Q 19.671875 43.65625 24.015625 45.921875 
Q 28.375 48.1875 33.59375 48.1875 
Q 44.578125 48.1875 50.953125 41.515625 
Q 57.328125 34.859375 57.328125 23.390625 
Q 57.328125 12.15625 50.6875 5.359375 
Q 44.046875 -1.421875 33.015625 -1.421875 
Q 20.359375 -1.421875 13.671875 8.265625 
Q 6.984375 17.96875 6.984375 36.375 
Q 6.984375 53.65625 15.1875 63.9375 
Q 23.390625 74.21875 37.203125 74.21875 
Q 40.921875 74.21875 44.703125 73.484375 
Q 48.484375 72.75 52.59375 71.296875 
z
" id="DejaVuSans-54"/>
      </defs>
      <g transform="translate(32.7725 98.0319)scale(0.14 -0.14)">
       <use xlink:href="#DejaVuSans-54"/>
       <use x="63.623047" xlink:href="#DejaVuSans-48"/>
       <use x="127.246094" xlink:href="#DejaVuSans-48"/>
      </g>
     </g>
    </g>
    <g id="ytick_5">
     <g id="line2d_17">
      <g>
       <use style="stroke:#000000;stroke-width:0.8;" x="66.495" xlink:href="#m8296a1a52b" y="47.731548"/>
      </g>
     </g>
     <g id="text_17">
      <!-- 800 -->
      <defs>
       <path d="M 31.78125 34.625 
Q 24.75 34.625 20.71875 30.859375 
Q 16.703125 27.09375 16.703125 20.515625 
Q 16.703125 13.921875 20.71875 10.15625 
Q 24.75 6.390625 31.78125 6.390625 
Q 38.8125 6.390625 42.859375 10.171875 
Q 46.921875 13.96875 46.921875 20.515625 
Q 46.921875 27.09375 42.890625 30.859375 
Q 38.875 34.625 31.78125 34.625 
z
M 21.921875 38.8125 
Q 15.578125 40.375 12.03125 44.71875 
Q 8.5 49.078125 8.5 55.328125 
Q 8.5 64.0625 14.71875 69.140625 
Q 20.953125 74.21875 31.78125 74.21875 
Q 42.671875 74.21875 48.875 69.140625 
Q 55.078125 64.0625 55.078125 55.328125 
Q 55.078125 49.078125 51.53125 44.71875 
Q 48 40.375 41.703125 38.8125 
Q 48.828125 37.15625 52.796875 32.3125 
Q 56.78125 27.484375 56.78125 20.515625 
Q 56.78125 9.90625 50.3125 4.234375 
Q 43.84375 -1.421875 31.78125 -1.421875 
Q 19.734375 -1.421875 13.25 4.234375 
Q 6.78125 9.90625 6.78125 20.515625 
Q 6.78125 27.484375 10.78125 32.3125 
Q 14.796875 37.15625 21.921875 38.8125 
z
M 18.3125 54.390625 
Q 18.3125 48.734375 21.84375 45.5625 
Q 25.390625 42.390625 31.78125 42.390625 
Q 38.140625 42.390625 41.71875 45.5625 
Q 45.3125 48.734375 45.3125 54.390625 
Q 45.3125 60.0625 41.71875 63.234375 
Q 38.140625 66.40625 31.78125 66.40625 
Q 25.390625 66.40625 21.84375 63.234375 
Q 18.3125 60.0625 18.3125 54.390625 
z
" id="DejaVuSans-56"/>
      </defs>
      <g transform="translate(32.7725 53.050454)scale(0.14 -0.14)">
       <use xlink:href="#DejaVuSans-56"/>
       <use x="63.623047" xlink:href="#DejaVuSans-48"/>
       <use x="127.246094" xlink:href="#DejaVuSans-48"/>
      </g>
     </g>
    </g>
    <g id="text_18">
     <!-- Daily Covid-19 Deaths -->
     <defs>
      <path d="M 9.421875 54.6875 
L 18.40625 54.6875 
L 18.40625 0 
L 9.421875 0 
z
M 9.421875 75.984375 
L 18.40625 75.984375 
L 18.40625 64.59375 
L 9.421875 64.59375 
z
" id="DejaVuSans-105"/>
      <path id="DejaVuSans-32"/>
      <path d="M 64.40625 67.28125 
L 64.40625 56.890625 
Q 59.421875 61.53125 53.78125 63.8125 
Q 48.140625 66.109375 41.796875 66.109375 
Q 29.296875 66.109375 22.65625 58.46875 
Q 16.015625 50.828125 16.015625 36.375 
Q 16.015625 21.96875 22.65625 14.328125 
Q 29.296875 6.6875 41.796875 6.6875 
Q 48.140625 6.6875 53.78125 8.984375 
Q 59.421875 11.28125 64.40625 15.921875 
L 64.40625 5.609375 
Q 59.234375 2.09375 53.4375 0.328125 
Q 47.65625 -1.421875 41.21875 -1.421875 
Q 24.65625 -1.421875 15.125 8.703125 
Q 5.609375 18.84375 5.609375 36.375 
Q 5.609375 53.953125 15.125 64.078125 
Q 24.65625 74.21875 41.21875 74.21875 
Q 47.75 74.21875 53.53125 72.484375 
Q 59.328125 70.75 64.40625 67.28125 
z
" id="DejaVuSans-67"/>
      <path d="M 45.40625 46.390625 
L 45.40625 75.984375 
L 54.390625 75.984375 
L 54.390625 0 
L 45.40625 0 
L 45.40625 8.203125 
Q 42.578125 3.328125 38.25 0.953125 
Q 33.9375 -1.421875 27.875 -1.421875 
Q 17.96875 -1.421875 11.734375 6.484375 
Q 5.515625 14.40625 5.515625 27.296875 
Q 5.515625 40.1875 11.734375 48.09375 
Q 17.96875 56 27.875 56 
Q 33.9375 56 38.25 53.625 
Q 42.578125 51.265625 45.40625 46.390625 
z
M 14.796875 27.296875 
Q 14.796875 17.390625 18.875 11.75 
Q 22.953125 6.109375 30.078125 6.109375 
Q 37.203125 6.109375 41.296875 11.75 
Q 45.40625 17.390625 45.40625 27.296875 
Q 45.40625 37.203125 41.296875 42.84375 
Q 37.203125 48.484375 30.078125 48.484375 
Q 22.953125 48.484375 18.875 42.84375 
Q 14.796875 37.203125 14.796875 27.296875 
z
" id="DejaVuSans-100"/>
      <path d="M 4.890625 31.390625 
L 31.203125 31.390625 
L 31.203125 23.390625 
L 4.890625 23.390625 
z
" id="DejaVuSans-45"/>
      <path d="M 12.40625 8.296875 
L 28.515625 8.296875 
L 28.515625 63.921875 
L 10.984375 60.40625 
L 10.984375 69.390625 
L 28.421875 72.90625 
L 38.28125 72.90625 
L 38.28125 8.296875 
L 54.390625 8.296875 
L 54.390625 0 
L 12.40625 0 
z
" id="DejaVuSans-49"/>
      <path d="M 10.984375 1.515625 
L 10.984375 10.5 
Q 14.703125 8.734375 18.5 7.8125 
Q 22.3125 6.890625 25.984375 6.890625 
Q 35.75 6.890625 40.890625 13.453125 
Q 46.046875 20.015625 46.78125 33.40625 
Q 43.953125 29.203125 39.59375 26.953125 
Q 35.25 24.703125 29.984375 24.703125 
Q 19.046875 24.703125 12.671875 31.3125 
Q 6.296875 37.9375 6.296875 49.421875 
Q 6.296875 60.640625 12.9375 67.421875 
Q 19.578125 74.21875 30.609375 74.21875 
Q 43.265625 74.21875 49.921875 64.515625 
Q 56.59375 54.828125 56.59375 36.375 
Q 56.59375 19.140625 48.40625 8.859375 
Q 40.234375 -1.421875 26.421875 -1.421875 
Q 22.703125 -1.421875 18.890625 -0.6875 
Q 15.09375 0.046875 10.984375 1.515625 
z
M 30.609375 32.421875 
Q 37.25 32.421875 41.125 36.953125 
Q 45.015625 41.5 45.015625 49.421875 
Q 45.015625 57.28125 41.125 61.84375 
Q 37.25 66.40625 30.609375 66.40625 
Q 23.96875 66.40625 20.09375 61.84375 
Q 16.21875 57.28125 16.21875 49.421875 
Q 16.21875 41.5 20.09375 36.953125 
Q 23.96875 32.421875 30.609375 32.421875 
z
" id="DejaVuSans-57"/>
      <path d="M 54.890625 33.015625 
L 54.890625 0 
L 45.90625 0 
L 45.90625 32.71875 
Q 45.90625 40.484375 42.875 44.328125 
Q 39.84375 48.1875 33.796875 48.1875 
Q 26.515625 48.1875 22.3125 43.546875 
Q 18.109375 38.921875 18.109375 30.90625 
L 18.109375 0 
L 9.078125 0 
L 9.078125 75.984375 
L 18.109375 75.984375 
L 18.109375 46.1875 
Q 21.34375 51.125 25.703125 53.5625 
Q 30.078125 56 35.796875 56 
Q 45.21875 56 50.046875 50.171875 
Q 54.890625 44.34375 54.890625 33.015625 
z
" id="DejaVuSans-104"/>
      <path d="M 44.28125 53.078125 
L 44.28125 44.578125 
Q 40.484375 46.53125 36.375 47.5 
Q 32.28125 48.484375 27.875 48.484375 
Q 21.1875 48.484375 17.84375 46.4375 
Q 14.5 44.390625 14.5 40.28125 
Q 14.5 37.15625 16.890625 35.375 
Q 19.28125 33.59375 26.515625 31.984375 
L 29.59375 31.296875 
Q 39.15625 29.25 43.1875 25.515625 
Q 47.21875 21.78125 47.21875 15.09375 
Q 47.21875 7.46875 41.1875 3.015625 
Q 35.15625 -1.421875 24.609375 -1.421875 
Q 20.21875 -1.421875 15.453125 -0.5625 
Q 10.6875 0.296875 5.421875 2 
L 5.421875 11.28125 
Q 10.40625 8.6875 15.234375 7.390625 
Q 20.0625 6.109375 24.8125 6.109375 
Q 31.15625 6.109375 34.5625 8.28125 
Q 37.984375 10.453125 37.984375 14.40625 
Q 37.984375 18.0625 35.515625 20.015625 
Q 33.0625 21.96875 24.703125 23.78125 
L 21.578125 24.515625 
Q 13.234375 26.265625 9.515625 29.90625 
Q 5.8125 33.546875 5.8125 39.890625 
Q 5.8125 47.609375 11.28125 51.796875 
Q 16.75 56 26.8125 56 
Q 31.78125 56 36.171875 55.265625 
Q 40.578125 54.546875 44.28125 53.078125 
z
" id="DejaVuSans-115"/>
     </defs>
     <g transform="translate(25.860937 204.560327)rotate(-90)scale(0.14 -0.14)">
      <use xlink:href="#DejaVuSans-68"/>
      <use x="77.001953" xlink:href="#DejaVuSans-97"/>
      <use x="138.28125" xlink:href="#DejaVuSans-105"/>
      <use x="166.064453" xlink:href="#DejaVuSans-108"/>
      <use x="193.847656" xlink:href="#DejaVuSans-121"/>
      <use x="253.027344" xlink:href="#DejaVuSans-32"/>
      <use x="284.814453" xlink:href="#DejaVuSans-67"/>
      <use x="354.638672" xlink:href="#DejaVuSans-111"/>
      <use x="415.820312" xlink:href="#DejaVuSans-118"/>
      <use x="475" xlink:href="#DejaVuSans-105"/>
      <use x="502.783203" xlink:href="#DejaVuSans-100"/>
      <use x="566.259766" xlink:href="#DejaVuSans-45"/>
      <use x="602.34375" xlink:href="#DejaVuSans-49"/>
      <use x="665.966797" xlink:href="#DejaVuSans-57"/>
      <use x="729.589844" xlink:href="#DejaVuSans-32"/>
      <use x="761.376953" xlink:href="#DejaVuSans-68"/>
      <use x="838.378906" xlink:href="#DejaVuSans-101"/>
      <use x="899.902344" xlink:href="#DejaVuSans-97"/>
      <use x="961.181641" xlink:href="#DejaVuSans-116"/>
      <use x="1000.390625" xlink:href="#DejaVuSans-104"/>
      <use x="1063.769531" xlink:href="#DejaVuSans-115"/>
     </g>
    </g>
   </g>
   <g id="line2d_18">
    <defs>
     <path d="M 0 2.5 
C 0.663008 2.5 1.29895 2.236584 1.767767 1.767767 
C 2.236584 1.29895 2.5 0.663008 2.5 0 
C 2.5 -0.663008 2.236584 -1.29895 1.767767 -1.767767 
C 1.29895 -2.236584 0.663008 -2.5 0 -2.5 
C -0.663008 -2.5 -1.29895 -2.236584 -1.767767 -1.767767 
C -2.236584 -1.29895 -2.5 -0.663008 -2.5 0 
C -2.5 0.663008 -2.236584 1.29895 -1.767767 1.767767 
C -1.29895 2.236584 -0.663008 2.5 0 2.5 
z
" id="m085a8f7826" style="stroke:#0000ff;stroke-opacity:0.2;"/>
    </defs>
    <g clip-path="url(#pedb949cccf)">
     <use style="fill:#0000ff;fill-opacity:0.2;stroke:#0000ff;stroke-opacity:0.2;" x="82.247735" xlink:href="#m085a8f7826" y="227.65733"/>
     <use style="fill:#0000ff;fill-opacity:0.2;stroke:#0000ff;stroke-opacity:0.2;" x="83.196695" xlink:href="#m085a8f7826" y="227.432422"/>
     <use style="fill:#0000ff;fill-opacity:0.2;stroke:#0000ff;stroke-opacity:0.2;" x="84.145655" xlink:href="#m085a8f7826" y="227.207515"/>
     <use style="fill:#0000ff;fill-opacity:0.2;stroke:#0000ff;stroke-opacity:0.2;" x="85.094615" xlink:href="#m085a8f7826" y="227.65733"/>
     <use style="fill:#0000ff;fill-opacity:0.2;stroke:#0000ff;stroke-opacity:0.2;" x="86.043575" xlink:href="#m085a8f7826" y="227.207515"/>
     <use style="fill:#0000ff;fill-opacity:0.2;stroke:#0000ff;stroke-opacity:0.2;" x="86.992535" xlink:href="#m085a8f7826" y="227.207515"/>
     <use style="fill:#0000ff;fill-opacity:0.2;stroke:#0000ff;stroke-opacity:0.2;" x="87.941495" xlink:href="#m085a8f7826" y="227.65733"/>
     <use style="fill:#0000ff;fill-opacity:0.2;stroke:#0000ff;stroke-opacity:0.2;" x="88.890454" xlink:href="#m085a8f7826" y="226.757701"/>
     <use style="fill:#0000ff;fill-opacity:0.2;stroke:#0000ff;stroke-opacity:0.2;" x="89.839414" xlink:href="#m085a8f7826" y="226.757701"/>
     <use style="fill:#0000ff;fill-opacity:0.2;stroke:#0000ff;stroke-opacity:0.2;" x="90.788374" xlink:href="#m085a8f7826" y="227.432422"/>
     <use style="fill:#0000ff;fill-opacity:0.2;stroke:#0000ff;stroke-opacity:0.2;" x="91.737334" xlink:href="#m085a8f7826" y="225.633164"/>
     <use style="fill:#0000ff;fill-opacity:0.2;stroke:#0000ff;stroke-opacity:0.2;" x="92.686294" xlink:href="#m085a8f7826" y="224.508628"/>
     <use style="fill:#0000ff;fill-opacity:0.2;stroke:#0000ff;stroke-opacity:0.2;" x="93.635254" xlink:href="#m085a8f7826" y="223.159185"/>
     <use style="fill:#0000ff;fill-opacity:0.2;stroke:#0000ff;stroke-opacity:0.2;" x="94.584214" xlink:href="#m085a8f7826" y="222.709371"/>
     <use style="fill:#0000ff;fill-opacity:0.2;stroke:#0000ff;stroke-opacity:0.2;" x="95.533174" xlink:href="#m085a8f7826" y="221.584834"/>
     <use style="fill:#0000ff;fill-opacity:0.2;stroke:#0000ff;stroke-opacity:0.2;" x="96.482134" xlink:href="#m085a8f7826" y="218.66104"/>
     <use style="fill:#0000ff;fill-opacity:0.2;stroke:#0000ff;stroke-opacity:0.2;" x="97.431094" xlink:href="#m085a8f7826" y="217.311597"/>
     <use style="fill:#0000ff;fill-opacity:0.2;stroke:#0000ff;stroke-opacity:0.2;" x="98.380054" xlink:href="#m085a8f7826" y="212.813453"/>
     <use style="fill:#0000ff;fill-opacity:0.2;stroke:#0000ff;stroke-opacity:0.2;" x="99.329014" xlink:href="#m085a8f7826" y="213.488174"/>
     <use style="fill:#0000ff;fill-opacity:0.2;stroke:#0000ff;stroke-opacity:0.2;" x="100.277974" xlink:href="#m085a8f7826" y="204.042071"/>
     <use style="fill:#0000ff;fill-opacity:0.2;stroke:#0000ff;stroke-opacity:0.2;" x="101.226934" xlink:href="#m085a8f7826" y="204.491885"/>
     <use style="fill:#0000ff;fill-opacity:0.2;stroke:#0000ff;stroke-opacity:0.2;" x="102.175894" xlink:href="#m085a8f7826" y="194.146153"/>
     <use style="fill:#0000ff;fill-opacity:0.2;stroke:#0000ff;stroke-opacity:0.2;" x="103.124854" xlink:href="#m085a8f7826" y="191.89708"/>
     <use style="fill:#0000ff;fill-opacity:0.2;stroke:#0000ff;stroke-opacity:0.2;" x="104.073813" xlink:href="#m085a8f7826" y="181.776255"/>
     <use style="fill:#0000ff;fill-opacity:0.2;stroke:#0000ff;stroke-opacity:0.2;" x="105.022773" xlink:href="#m085a8f7826" y="168.506729"/>
     <use style="fill:#0000ff;fill-opacity:0.2;stroke:#0000ff;stroke-opacity:0.2;" x="105.971733" xlink:href="#m085a8f7826" y="154.337574"/>
     <use style="fill:#0000ff;fill-opacity:0.2;stroke:#0000ff;stroke-opacity:0.2;" x="106.920693" xlink:href="#m085a8f7826" y="148.265078"/>
     <use style="fill:#0000ff;fill-opacity:0.2;stroke:#0000ff;stroke-opacity:0.2;" x="107.869653" xlink:href="#m085a8f7826" y="146.690728"/>
     <use style="fill:#0000ff;fill-opacity:0.2;stroke:#0000ff;stroke-opacity:0.2;" x="108.818613" xlink:href="#m085a8f7826" y="129.372871"/>
     <use style="fill:#0000ff;fill-opacity:0.2;stroke:#0000ff;stroke-opacity:0.2;" x="109.767573" xlink:href="#m085a8f7826" y="115.65353"/>
     <use style="fill:#0000ff;fill-opacity:0.2;stroke:#0000ff;stroke-opacity:0.2;" x="110.716533" xlink:href="#m085a8f7826" y="98.110767"/>
     <use style="fill:#0000ff;fill-opacity:0.2;stroke:#0000ff;stroke-opacity:0.2;" x="111.665493" xlink:href="#m085a8f7826" y="82.817075"/>
     <use style="fill:#0000ff;fill-opacity:0.2;stroke:#0000ff;stroke-opacity:0.2;" x="112.614453" xlink:href="#m085a8f7826" y="82.142354"/>
     <use style="fill:#0000ff;fill-opacity:0.2;stroke:#0000ff;stroke-opacity:0.2;" x="113.563413" xlink:href="#m085a8f7826" y="70.222271"/>
     <use style="fill:#0000ff;fill-opacity:0.2;stroke:#0000ff;stroke-opacity:0.2;" x="114.512373" xlink:href="#m085a8f7826" y="52.679507"/>
     <use style="fill:#0000ff;fill-opacity:0.2;stroke:#0000ff;stroke-opacity:0.2;" x="115.461333" xlink:href="#m085a8f7826" y="60.55126"/>
     <use style="fill:#0000ff;fill-opacity:0.2;stroke:#0000ff;stroke-opacity:0.2;" x="116.410293" xlink:href="#m085a8f7826" y="64.149775"/>
     <use style="fill:#0000ff;fill-opacity:0.2;stroke:#0000ff;stroke-opacity:0.2;" x="117.359253" xlink:href="#m085a8f7826" y="44.807754"/>
     <use style="fill:#0000ff;fill-opacity:0.2;stroke:#0000ff;stroke-opacity:0.2;" x="118.308212" xlink:href="#m085a8f7826" y="25.240825"/>
     <use style="fill:#0000ff;fill-opacity:0.2;stroke:#0000ff;stroke-opacity:0.2;" x="119.257172" xlink:href="#m085a8f7826" y="49.530806"/>
     <use style="fill:#0000ff;fill-opacity:0.2;stroke:#0000ff;stroke-opacity:0.2;" x="120.206132" xlink:href="#m085a8f7826" y="61.225982"/>
     <use style="fill:#0000ff;fill-opacity:0.2;stroke:#0000ff;stroke-opacity:0.2;" x="121.155092" xlink:href="#m085a8f7826" y="52.4546"/>
     <use style="fill:#0000ff;fill-opacity:0.2;stroke:#0000ff;stroke-opacity:0.2;" x="122.104052" xlink:href="#m085a8f7826" y="66.173941"/>
     <use style="fill:#0000ff;fill-opacity:0.2;stroke:#0000ff;stroke-opacity:0.2;" x="123.053012" xlink:href="#m085a8f7826" y="70.447178"/>
     <use style="fill:#0000ff;fill-opacity:0.2;stroke:#0000ff;stroke-opacity:0.2;" x="124.001972" xlink:href="#m085a8f7826" y="82.367261"/>
     <use style="fill:#0000ff;fill-opacity:0.2;stroke:#0000ff;stroke-opacity:0.2;" x="124.950932" xlink:href="#m085a8f7826" y="73.370972"/>
     <use style="fill:#0000ff;fill-opacity:0.2;stroke:#0000ff;stroke-opacity:0.2;" x="125.899892" xlink:href="#m085a8f7826" y="83.941611"/>
     <use style="fill:#0000ff;fill-opacity:0.2;stroke:#0000ff;stroke-opacity:0.2;" x="126.848852" xlink:href="#m085a8f7826" y="90.463921"/>
     <use style="fill:#0000ff;fill-opacity:0.2;stroke:#0000ff;stroke-opacity:0.2;" x="127.797812" xlink:href="#m085a8f7826" y="99.46021"/>
     <use style="fill:#0000ff;fill-opacity:0.2;stroke:#0000ff;stroke-opacity:0.2;" x="128.746772" xlink:href="#m085a8f7826" y="110.03085"/>
     <use style="fill:#0000ff;fill-opacity:0.2;stroke:#0000ff;stroke-opacity:0.2;" x="129.695732" xlink:href="#m085a8f7826" y="100.359839"/>
     <use style="fill:#0000ff;fill-opacity:0.2;stroke:#0000ff;stroke-opacity:0.2;" x="130.644692" xlink:href="#m085a8f7826" y="118.352417"/>
     <use style="fill:#0000ff;fill-opacity:0.2;stroke:#0000ff;stroke-opacity:0.2;" x="131.593652" xlink:href="#m085a8f7826" y="114.978809"/>
     <use style="fill:#0000ff;fill-opacity:0.2;stroke:#0000ff;stroke-opacity:0.2;" x="132.542612" xlink:href="#m085a8f7826" y="126.22417"/>
     <use style="fill:#0000ff;fill-opacity:0.2;stroke:#0000ff;stroke-opacity:0.2;" x="133.491571" xlink:href="#m085a8f7826" y="129.372871"/>
     <use style="fill:#0000ff;fill-opacity:0.2;stroke:#0000ff;stroke-opacity:0.2;" x="134.440531" xlink:href="#m085a8f7826" y="141.068047"/>
     <use style="fill:#0000ff;fill-opacity:0.2;stroke:#0000ff;stroke-opacity:0.2;" x="135.389491" xlink:href="#m085a8f7826" y="142.192583"/>
     <use style="fill:#0000ff;fill-opacity:0.2;stroke:#0000ff;stroke-opacity:0.2;" x="136.338451" xlink:href="#m085a8f7826" y="150.064336"/>
     <use style="fill:#0000ff;fill-opacity:0.2;stroke:#0000ff;stroke-opacity:0.2;" x="137.287411" xlink:href="#m085a8f7826" y="150.963965"/>
     <use style="fill:#0000ff;fill-opacity:0.2;stroke:#0000ff;stroke-opacity:0.2;" x="138.236371" xlink:href="#m085a8f7826" y="154.787388"/>
     <use style="fill:#0000ff;fill-opacity:0.2;stroke:#0000ff;stroke-opacity:0.2;" x="139.185331" xlink:href="#m085a8f7826" y="157.261367"/>
     <use style="fill:#0000ff;fill-opacity:0.2;stroke:#0000ff;stroke-opacity:0.2;" x="140.134291" xlink:href="#m085a8f7826" y="158.835718"/>
     <use style="fill:#0000ff;fill-opacity:0.2;stroke:#0000ff;stroke-opacity:0.2;" x="141.083251" xlink:href="#m085a8f7826" y="167.382193"/>
     <use style="fill:#0000ff;fill-opacity:0.2;stroke:#0000ff;stroke-opacity:0.2;" x="142.032211" xlink:href="#m085a8f7826" y="171.205616"/>
     <use style="fill:#0000ff;fill-opacity:0.2;stroke:#0000ff;stroke-opacity:0.2;" x="142.981171" xlink:href="#m085a8f7826" y="169.406358"/>
     <use style="fill:#0000ff;fill-opacity:0.2;stroke:#0000ff;stroke-opacity:0.2;" x="143.930131" xlink:href="#m085a8f7826" y="171.205616"/>
     <use style="fill:#0000ff;fill-opacity:0.2;stroke:#0000ff;stroke-opacity:0.2;" x="144.879091" xlink:href="#m085a8f7826" y="167.832007"/>
     <use style="fill:#0000ff;fill-opacity:0.2;stroke:#0000ff;stroke-opacity:0.2;" x="145.828051" xlink:href="#m085a8f7826" y="170.305987"/>
     <use style="fill:#0000ff;fill-opacity:0.2;stroke:#0000ff;stroke-opacity:0.2;" x="146.777011" xlink:href="#m085a8f7826" y="179.527183"/>
     <use style="fill:#0000ff;fill-opacity:0.2;stroke:#0000ff;stroke-opacity:0.2;" x="147.72597" xlink:href="#m085a8f7826" y="182.001162"/>
     <use style="fill:#0000ff;fill-opacity:0.2;stroke:#0000ff;stroke-opacity:0.2;" x="148.67493" xlink:href="#m085a8f7826" y="183.575513"/>
     <use style="fill:#0000ff;fill-opacity:0.2;stroke:#0000ff;stroke-opacity:0.2;" x="149.62389" xlink:href="#m085a8f7826" y="190.32273"/>
     <use style="fill:#0000ff;fill-opacity:0.2;stroke:#0000ff;stroke-opacity:0.2;" x="150.57285" xlink:href="#m085a8f7826" y="186.499307"/>
     <use style="fill:#0000ff;fill-opacity:0.2;stroke:#0000ff;stroke-opacity:0.2;" x="151.52181" xlink:href="#m085a8f7826" y="191.222359"/>
     <use style="fill:#0000ff;fill-opacity:0.2;stroke:#0000ff;stroke-opacity:0.2;" x="152.47077" xlink:href="#m085a8f7826" y="187.174029"/>
     <use style="fill:#0000ff;fill-opacity:0.2;stroke:#0000ff;stroke-opacity:0.2;" x="153.41973" xlink:href="#m085a8f7826" y="188.973286"/>
     <use style="fill:#0000ff;fill-opacity:0.2;stroke:#0000ff;stroke-opacity:0.2;" x="154.36869" xlink:href="#m085a8f7826" y="190.097823"/>
     <use style="fill:#0000ff;fill-opacity:0.2;stroke:#0000ff;stroke-opacity:0.2;" x="155.31765" xlink:href="#m085a8f7826" y="196.620132"/>
     <use style="fill:#0000ff;fill-opacity:0.2;stroke:#0000ff;stroke-opacity:0.2;" x="156.26661" xlink:href="#m085a8f7826" y="191.89708"/>
     <use style="fill:#0000ff;fill-opacity:0.2;stroke:#0000ff;stroke-opacity:0.2;" x="157.21557" xlink:href="#m085a8f7826" y="195.270689"/>
     <use style="fill:#0000ff;fill-opacity:0.2;stroke:#0000ff;stroke-opacity:0.2;" x="158.16453" xlink:href="#m085a8f7826" y="193.246524"/>
     <use style="fill:#0000ff;fill-opacity:0.2;stroke:#0000ff;stroke-opacity:0.2;" x="159.11349" xlink:href="#m085a8f7826" y="193.921245"/>
     <use style="fill:#0000ff;fill-opacity:0.2;stroke:#0000ff;stroke-opacity:0.2;" x="160.06245" xlink:href="#m085a8f7826" y="200.218648"/>
     <use style="fill:#0000ff;fill-opacity:0.2;stroke:#0000ff;stroke-opacity:0.2;" x="161.01141" xlink:href="#m085a8f7826" y="198.869204"/>
     <use style="fill:#0000ff;fill-opacity:0.2;stroke:#0000ff;stroke-opacity:0.2;" x="161.96037" xlink:href="#m085a8f7826" y="201.568091"/>
     <use style="fill:#0000ff;fill-opacity:0.2;stroke:#0000ff;stroke-opacity:0.2;" x="162.909329" xlink:href="#m085a8f7826" y="197.744668"/>
     <use style="fill:#0000ff;fill-opacity:0.2;stroke:#0000ff;stroke-opacity:0.2;" x="163.858289" xlink:href="#m085a8f7826" y="196.395225"/>
     <use style="fill:#0000ff;fill-opacity:0.2;stroke:#0000ff;stroke-opacity:0.2;" x="164.807249" xlink:href="#m085a8f7826" y="200.218648"/>
     <use style="fill:#0000ff;fill-opacity:0.2;stroke:#0000ff;stroke-opacity:0.2;" x="165.756209" xlink:href="#m085a8f7826" y="199.768833"/>
     <use style="fill:#0000ff;fill-opacity:0.2;stroke:#0000ff;stroke-opacity:0.2;" x="166.705169" xlink:href="#m085a8f7826" y="201.343184"/>
     <use style="fill:#0000ff;fill-opacity:0.2;stroke:#0000ff;stroke-opacity:0.2;" x="167.654129" xlink:href="#m085a8f7826" y="206.965865"/>
     <use style="fill:#0000ff;fill-opacity:0.2;stroke:#0000ff;stroke-opacity:0.2;" x="168.603089" xlink:href="#m085a8f7826" y="208.99003"/>
     <use style="fill:#0000ff;fill-opacity:0.2;stroke:#0000ff;stroke-opacity:0.2;" x="169.552049" xlink:href="#m085a8f7826" y="206.51605"/>
     <use style="fill:#0000ff;fill-opacity:0.2;stroke:#0000ff;stroke-opacity:0.2;" x="170.501009" xlink:href="#m085a8f7826" y="203.142442"/>
     <use style="fill:#0000ff;fill-opacity:0.2;stroke:#0000ff;stroke-opacity:0.2;" x="171.449969" xlink:href="#m085a8f7826" y="202.692627"/>
     <use style="fill:#0000ff;fill-opacity:0.2;stroke:#0000ff;stroke-opacity:0.2;" x="172.398929" xlink:href="#m085a8f7826" y="208.99003"/>
     <use style="fill:#0000ff;fill-opacity:0.2;stroke:#0000ff;stroke-opacity:0.2;" x="173.347889" xlink:href="#m085a8f7826" y="208.315308"/>
     <use style="fill:#0000ff;fill-opacity:0.2;stroke:#0000ff;stroke-opacity:0.2;" x="174.296849" xlink:href="#m085a8f7826" y="208.99003"/>
     <use style="fill:#0000ff;fill-opacity:0.2;stroke:#0000ff;stroke-opacity:0.2;" x="175.245809" xlink:href="#m085a8f7826" y="209.664751"/>
     <use style="fill:#0000ff;fill-opacity:0.2;stroke:#0000ff;stroke-opacity:0.2;" x="176.194769" xlink:href="#m085a8f7826" y="211.239102"/>
     <use style="fill:#0000ff;fill-opacity:0.2;stroke:#0000ff;stroke-opacity:0.2;" x="177.143728" xlink:href="#m085a8f7826" y="212.363638"/>
     <use style="fill:#0000ff;fill-opacity:0.2;stroke:#0000ff;stroke-opacity:0.2;" x="178.092688" xlink:href="#m085a8f7826" y="210.114566"/>
     <use style="fill:#0000ff;fill-opacity:0.2;stroke:#0000ff;stroke-opacity:0.2;" x="179.041648" xlink:href="#m085a8f7826" y="216.636875"/>
     <use style="fill:#0000ff;fill-opacity:0.2;stroke:#0000ff;stroke-opacity:0.2;" x="179.990608" xlink:href="#m085a8f7826" y="215.962154"/>
     <use style="fill:#0000ff;fill-opacity:0.2;stroke:#0000ff;stroke-opacity:0.2;" x="180.939568" xlink:href="#m085a8f7826" y="217.986319"/>
     <use style="fill:#0000ff;fill-opacity:0.2;stroke:#0000ff;stroke-opacity:0.2;" x="181.888528" xlink:href="#m085a8f7826" y="214.61271"/>
     <use style="fill:#0000ff;fill-opacity:0.2;stroke:#0000ff;stroke-opacity:0.2;" x="182.837488" xlink:href="#m085a8f7826" y="215.062525"/>
     <use style="fill:#0000ff;fill-opacity:0.2;stroke:#0000ff;stroke-opacity:0.2;" x="183.786448" xlink:href="#m085a8f7826" y="213.713081"/>
     <use style="fill:#0000ff;fill-opacity:0.2;stroke:#0000ff;stroke-opacity:0.2;" x="184.735408" xlink:href="#m085a8f7826" y="216.411968"/>
     <use style="fill:#0000ff;fill-opacity:0.2;stroke:#0000ff;stroke-opacity:0.2;" x="185.684368" xlink:href="#m085a8f7826" y="216.411968"/>
     <use style="fill:#0000ff;fill-opacity:0.2;stroke:#0000ff;stroke-opacity:0.2;" x="186.633328" xlink:href="#m085a8f7826" y="218.211226"/>
     <use style="fill:#0000ff;fill-opacity:0.2;stroke:#0000ff;stroke-opacity:0.2;" x="187.582288" xlink:href="#m085a8f7826" y="217.536504"/>
     <use style="fill:#0000ff;fill-opacity:0.2;stroke:#0000ff;stroke-opacity:0.2;" x="188.531248" xlink:href="#m085a8f7826" y="219.560669"/>
     <use style="fill:#0000ff;fill-opacity:0.2;stroke:#0000ff;stroke-opacity:0.2;" x="189.480208" xlink:href="#m085a8f7826" y="217.986319"/>
     <use style="fill:#0000ff;fill-opacity:0.2;stroke:#0000ff;stroke-opacity:0.2;" x="190.429168" xlink:href="#m085a8f7826" y="215.737246"/>
     <use style="fill:#0000ff;fill-opacity:0.2;stroke:#0000ff;stroke-opacity:0.2;" x="191.378128" xlink:href="#m085a8f7826" y="215.512339"/>
     <use style="fill:#0000ff;fill-opacity:0.2;stroke:#0000ff;stroke-opacity:0.2;" x="192.327087" xlink:href="#m085a8f7826" y="217.311597"/>
     <use style="fill:#0000ff;fill-opacity:0.2;stroke:#0000ff;stroke-opacity:0.2;" x="193.276047" xlink:href="#m085a8f7826" y="219.335762"/>
     <use style="fill:#0000ff;fill-opacity:0.2;stroke:#0000ff;stroke-opacity:0.2;" x="194.225007" xlink:href="#m085a8f7826" y="220.460298"/>
     <use style="fill:#0000ff;fill-opacity:0.2;stroke:#0000ff;stroke-opacity:0.2;" x="195.173967" xlink:href="#m085a8f7826" y="219.335762"/>
     <use style="fill:#0000ff;fill-opacity:0.2;stroke:#0000ff;stroke-opacity:0.2;" x="196.122927" xlink:href="#m085a8f7826" y="221.13502"/>
     <use style="fill:#0000ff;fill-opacity:0.2;stroke:#0000ff;stroke-opacity:0.2;" x="197.071887" xlink:href="#m085a8f7826" y="220.685205"/>
     <use style="fill:#0000ff;fill-opacity:0.2;stroke:#0000ff;stroke-opacity:0.2;" x="198.020847" xlink:href="#m085a8f7826" y="223.608999"/>
     <use style="fill:#0000ff;fill-opacity:0.2;stroke:#0000ff;stroke-opacity:0.2;" x="198.969807" xlink:href="#m085a8f7826" y="219.560669"/>
     <use style="fill:#0000ff;fill-opacity:0.2;stroke:#0000ff;stroke-opacity:0.2;" x="199.918767" xlink:href="#m085a8f7826" y="223.384092"/>
     <use style="fill:#0000ff;fill-opacity:0.2;stroke:#0000ff;stroke-opacity:0.2;" x="200.867727" xlink:href="#m085a8f7826" y="222.709371"/>
     <use style="fill:#0000ff;fill-opacity:0.2;stroke:#0000ff;stroke-opacity:0.2;" x="201.816687" xlink:href="#m085a8f7826" y="222.034649"/>
     <use style="fill:#0000ff;fill-opacity:0.2;stroke:#0000ff;stroke-opacity:0.2;" x="202.765647" xlink:href="#m085a8f7826" y="222.259556"/>
     <use style="fill:#0000ff;fill-opacity:0.2;stroke:#0000ff;stroke-opacity:0.2;" x="203.714607" xlink:href="#m085a8f7826" y="222.484463"/>
     <use style="fill:#0000ff;fill-opacity:0.2;stroke:#0000ff;stroke-opacity:0.2;" x="204.663567" xlink:href="#m085a8f7826" y="222.934278"/>
     <use style="fill:#0000ff;fill-opacity:0.2;stroke:#0000ff;stroke-opacity:0.2;" x="205.612527" xlink:href="#m085a8f7826" y="219.110855"/>
     <use style="fill:#0000ff;fill-opacity:0.2;stroke:#0000ff;stroke-opacity:0.2;" x="206.561487" xlink:href="#m085a8f7826" y="224.058814"/>
     <use style="fill:#0000ff;fill-opacity:0.2;stroke:#0000ff;stroke-opacity:0.2;" x="207.510446" xlink:href="#m085a8f7826" y="224.733536"/>
     <use style="fill:#0000ff;fill-opacity:0.2;stroke:#0000ff;stroke-opacity:0.2;" x="208.459406" xlink:href="#m085a8f7826" y="224.058814"/>
     <use style="fill:#0000ff;fill-opacity:0.2;stroke:#0000ff;stroke-opacity:0.2;" x="209.408366" xlink:href="#m085a8f7826" y="222.484463"/>
     <use style="fill:#0000ff;fill-opacity:0.2;stroke:#0000ff;stroke-opacity:0.2;" x="210.357326" xlink:href="#m085a8f7826" y="224.733536"/>
     <use style="fill:#0000ff;fill-opacity:0.2;stroke:#0000ff;stroke-opacity:0.2;" x="211.306286" xlink:href="#m085a8f7826" y="222.934278"/>
     <use style="fill:#0000ff;fill-opacity:0.2;stroke:#0000ff;stroke-opacity:0.2;" x="212.255246" xlink:href="#m085a8f7826" y="225.408257"/>
     <use style="fill:#0000ff;fill-opacity:0.2;stroke:#0000ff;stroke-opacity:0.2;" x="213.204206" xlink:href="#m085a8f7826" y="225.408257"/>
     <use style="fill:#0000ff;fill-opacity:0.2;stroke:#0000ff;stroke-opacity:0.2;" x="214.153166" xlink:href="#m085a8f7826" y="223.833907"/>
     <use style="fill:#0000ff;fill-opacity:0.2;stroke:#0000ff;stroke-opacity:0.2;" x="215.102126" xlink:href="#m085a8f7826" y="225.18335"/>
     <use style="fill:#0000ff;fill-opacity:0.2;stroke:#0000ff;stroke-opacity:0.2;" x="216.051086" xlink:href="#m085a8f7826" y="225.18335"/>
     <use style="fill:#0000ff;fill-opacity:0.2;stroke:#0000ff;stroke-opacity:0.2;" x="217.000046" xlink:href="#m085a8f7826" y="225.408257"/>
     <use style="fill:#0000ff;fill-opacity:0.2;stroke:#0000ff;stroke-opacity:0.2;" x="217.949006" xlink:href="#m085a8f7826" y="224.283721"/>
     <use style="fill:#0000ff;fill-opacity:0.2;stroke:#0000ff;stroke-opacity:0.2;" x="218.897966" xlink:href="#m085a8f7826" y="224.283721"/>
     <use style="fill:#0000ff;fill-opacity:0.2;stroke:#0000ff;stroke-opacity:0.2;" x="219.846926" xlink:href="#m085a8f7826" y="226.532793"/>
     <use style="fill:#0000ff;fill-opacity:0.2;stroke:#0000ff;stroke-opacity:0.2;" x="220.795886" xlink:href="#m085a8f7826" y="224.958443"/>
     <use style="fill:#0000ff;fill-opacity:0.2;stroke:#0000ff;stroke-opacity:0.2;" x="221.744845" xlink:href="#m085a8f7826" y="224.958443"/>
     <use style="fill:#0000ff;fill-opacity:0.2;stroke:#0000ff;stroke-opacity:0.2;" x="222.693805" xlink:href="#m085a8f7826" y="225.633164"/>
     <use style="fill:#0000ff;fill-opacity:0.2;stroke:#0000ff;stroke-opacity:0.2;" x="223.642765" xlink:href="#m085a8f7826" y="225.633164"/>
     <use style="fill:#0000ff;fill-opacity:0.2;stroke:#0000ff;stroke-opacity:0.2;" x="224.591725" xlink:href="#m085a8f7826" y="226.307886"/>
     <use style="fill:#0000ff;fill-opacity:0.2;stroke:#0000ff;stroke-opacity:0.2;" x="225.540685" xlink:href="#m085a8f7826" y="225.858072"/>
     <use style="fill:#0000ff;fill-opacity:0.2;stroke:#0000ff;stroke-opacity:0.2;" x="226.489645" xlink:href="#m085a8f7826" y="226.532793"/>
     <use style="fill:#0000ff;fill-opacity:0.2;stroke:#0000ff;stroke-opacity:0.2;" x="227.438605" xlink:href="#m085a8f7826" y="226.082979"/>
     <use style="fill:#0000ff;fill-opacity:0.2;stroke:#0000ff;stroke-opacity:0.2;" x="228.387565" xlink:href="#m085a8f7826" y="225.18335"/>
     <use style="fill:#0000ff;fill-opacity:0.2;stroke:#0000ff;stroke-opacity:0.2;" x="229.336525" xlink:href="#m085a8f7826" y="225.18335"/>
     <use style="fill:#0000ff;fill-opacity:0.2;stroke:#0000ff;stroke-opacity:0.2;" x="230.285485" xlink:href="#m085a8f7826" y="225.858072"/>
     <use style="fill:#0000ff;fill-opacity:0.2;stroke:#0000ff;stroke-opacity:0.2;" x="231.234445" xlink:href="#m085a8f7826" y="226.532793"/>
     <use style="fill:#0000ff;fill-opacity:0.2;stroke:#0000ff;stroke-opacity:0.2;" x="232.183405" xlink:href="#m085a8f7826" y="225.633164"/>
     <use style="fill:#0000ff;fill-opacity:0.2;stroke:#0000ff;stroke-opacity:0.2;" x="233.132365" xlink:href="#m085a8f7826" y="226.307886"/>
     <use style="fill:#0000ff;fill-opacity:0.2;stroke:#0000ff;stroke-opacity:0.2;" x="234.081325" xlink:href="#m085a8f7826" y="225.858072"/>
     <use style="fill:#0000ff;fill-opacity:0.2;stroke:#0000ff;stroke-opacity:0.2;" x="235.030285" xlink:href="#m085a8f7826" y="226.307886"/>
     <use style="fill:#0000ff;fill-opacity:0.2;stroke:#0000ff;stroke-opacity:0.2;" x="235.979245" xlink:href="#m085a8f7826" y="225.858072"/>
     <use style="fill:#0000ff;fill-opacity:0.2;stroke:#0000ff;stroke-opacity:0.2;" x="236.928204" xlink:href="#m085a8f7826" y="225.18335"/>
     <use style="fill:#0000ff;fill-opacity:0.2;stroke:#0000ff;stroke-opacity:0.2;" x="237.877164" xlink:href="#m085a8f7826" y="226.757701"/>
     <use style="fill:#0000ff;fill-opacity:0.2;stroke:#0000ff;stroke-opacity:0.2;" x="238.826124" xlink:href="#m085a8f7826" y="226.757701"/>
     <use style="fill:#0000ff;fill-opacity:0.2;stroke:#0000ff;stroke-opacity:0.2;" x="239.775084" xlink:href="#m085a8f7826" y="226.532793"/>
     <use style="fill:#0000ff;fill-opacity:0.2;stroke:#0000ff;stroke-opacity:0.2;" x="240.724044" xlink:href="#m085a8f7826" y="225.18335"/>
     <use style="fill:#0000ff;fill-opacity:0.2;stroke:#0000ff;stroke-opacity:0.2;" x="241.673004" xlink:href="#m085a8f7826" y="226.982608"/>
     <use style="fill:#0000ff;fill-opacity:0.2;stroke:#0000ff;stroke-opacity:0.2;" x="242.621964" xlink:href="#m085a8f7826" y="225.408257"/>
     <use style="fill:#0000ff;fill-opacity:0.2;stroke:#0000ff;stroke-opacity:0.2;" x="243.570924" xlink:href="#m085a8f7826" y="225.858072"/>
     <use style="fill:#0000ff;fill-opacity:0.2;stroke:#0000ff;stroke-opacity:0.2;" x="244.519884" xlink:href="#m085a8f7826" y="226.982608"/>
     <use style="fill:#0000ff;fill-opacity:0.2;stroke:#0000ff;stroke-opacity:0.2;" x="245.468844" xlink:href="#m085a8f7826" y="226.982608"/>
     <use style="fill:#0000ff;fill-opacity:0.2;stroke:#0000ff;stroke-opacity:0.2;" x="246.417804" xlink:href="#m085a8f7826" y="226.307886"/>
     <use style="fill:#0000ff;fill-opacity:0.2;stroke:#0000ff;stroke-opacity:0.2;" x="247.366764" xlink:href="#m085a8f7826" y="226.532793"/>
     <use style="fill:#0000ff;fill-opacity:0.2;stroke:#0000ff;stroke-opacity:0.2;" x="248.315724" xlink:href="#m085a8f7826" y="225.408257"/>
     <use style="fill:#0000ff;fill-opacity:0.2;stroke:#0000ff;stroke-opacity:0.2;" x="249.264684" xlink:href="#m085a8f7826" y="226.532793"/>
     <use style="fill:#0000ff;fill-opacity:0.2;stroke:#0000ff;stroke-opacity:0.2;" x="250.213644" xlink:href="#m085a8f7826" y="225.408257"/>
     <use style="fill:#0000ff;fill-opacity:0.2;stroke:#0000ff;stroke-opacity:0.2;" x="251.162603" xlink:href="#m085a8f7826" y="225.408257"/>
     <use style="fill:#0000ff;fill-opacity:0.2;stroke:#0000ff;stroke-opacity:0.2;" x="252.111563" xlink:href="#m085a8f7826" y="226.082979"/>
     <use style="fill:#0000ff;fill-opacity:0.2;stroke:#0000ff;stroke-opacity:0.2;" x="253.060523" xlink:href="#m085a8f7826" y="226.532793"/>
     <use style="fill:#0000ff;fill-opacity:0.2;stroke:#0000ff;stroke-opacity:0.2;" x="254.009483" xlink:href="#m085a8f7826" y="227.207515"/>
     <use style="fill:#0000ff;fill-opacity:0.2;stroke:#0000ff;stroke-opacity:0.2;" x="254.958443" xlink:href="#m085a8f7826" y="226.757701"/>
     <use style="fill:#0000ff;fill-opacity:0.2;stroke:#0000ff;stroke-opacity:0.2;" x="255.907403" xlink:href="#m085a8f7826" y="226.082979"/>
     <use style="fill:#0000ff;fill-opacity:0.2;stroke:#0000ff;stroke-opacity:0.2;" x="256.856363" xlink:href="#m085a8f7826" y="226.982608"/>
     <use style="fill:#0000ff;fill-opacity:0.2;stroke:#0000ff;stroke-opacity:0.2;" x="257.805323" xlink:href="#m085a8f7826" y="225.633164"/>
     <use style="fill:#0000ff;fill-opacity:0.2;stroke:#0000ff;stroke-opacity:0.2;" x="258.754283" xlink:href="#m085a8f7826" y="226.757701"/>
     <use style="fill:#0000ff;fill-opacity:0.2;stroke:#0000ff;stroke-opacity:0.2;" x="259.703243" xlink:href="#m085a8f7826" y="226.307886"/>
     <use style="fill:#0000ff;fill-opacity:0.2;stroke:#0000ff;stroke-opacity:0.2;" x="260.652203" xlink:href="#m085a8f7826" y="225.858072"/>
     <use style="fill:#0000ff;fill-opacity:0.2;stroke:#0000ff;stroke-opacity:0.2;" x="261.601163" xlink:href="#m085a8f7826" y="226.082979"/>
     <use style="fill:#0000ff;fill-opacity:0.2;stroke:#0000ff;stroke-opacity:0.2;" x="262.550123" xlink:href="#m085a8f7826" y="225.633164"/>
     <use style="fill:#0000ff;fill-opacity:0.2;stroke:#0000ff;stroke-opacity:0.2;" x="263.499083" xlink:href="#m085a8f7826" y="225.18335"/>
     <use style="fill:#0000ff;fill-opacity:0.2;stroke:#0000ff;stroke-opacity:0.2;" x="264.448043" xlink:href="#m085a8f7826" y="226.082979"/>
     <use style="fill:#0000ff;fill-opacity:0.2;stroke:#0000ff;stroke-opacity:0.2;" x="265.397003" xlink:href="#m085a8f7826" y="225.633164"/>
     <use style="fill:#0000ff;fill-opacity:0.2;stroke:#0000ff;stroke-opacity:0.2;" x="266.345962" xlink:href="#m085a8f7826" y="226.082979"/>
     <use style="fill:#0000ff;fill-opacity:0.2;stroke:#0000ff;stroke-opacity:0.2;" x="267.294922" xlink:href="#m085a8f7826" y="225.858072"/>
     <use style="fill:#0000ff;fill-opacity:0.2;stroke:#0000ff;stroke-opacity:0.2;" x="268.243882" xlink:href="#m085a8f7826" y="224.508628"/>
     <use style="fill:#0000ff;fill-opacity:0.2;stroke:#0000ff;stroke-opacity:0.2;" x="269.192842" xlink:href="#m085a8f7826" y="225.18335"/>
     <use style="fill:#0000ff;fill-opacity:0.2;stroke:#0000ff;stroke-opacity:0.2;" x="270.141802" xlink:href="#m085a8f7826" y="224.958443"/>
     <use style="fill:#0000ff;fill-opacity:0.2;stroke:#0000ff;stroke-opacity:0.2;" x="271.090762" xlink:href="#m085a8f7826" y="224.058814"/>
     <use style="fill:#0000ff;fill-opacity:0.2;stroke:#0000ff;stroke-opacity:0.2;" x="272.039722" xlink:href="#m085a8f7826" y="223.159185"/>
     <use style="fill:#0000ff;fill-opacity:0.2;stroke:#0000ff;stroke-opacity:0.2;" x="272.988682" xlink:href="#m085a8f7826" y="223.384092"/>
     <use style="fill:#0000ff;fill-opacity:0.2;stroke:#0000ff;stroke-opacity:0.2;" x="273.937642" xlink:href="#m085a8f7826" y="225.18335"/>
     <use style="fill:#0000ff;fill-opacity:0.2;stroke:#0000ff;stroke-opacity:0.2;" x="274.886602" xlink:href="#m085a8f7826" y="222.259556"/>
     <use style="fill:#0000ff;fill-opacity:0.2;stroke:#0000ff;stroke-opacity:0.2;" x="275.835562" xlink:href="#m085a8f7826" y="223.833907"/>
     <use style="fill:#0000ff;fill-opacity:0.2;stroke:#0000ff;stroke-opacity:0.2;" x="276.784522" xlink:href="#m085a8f7826" y="221.809742"/>
     <use style="fill:#0000ff;fill-opacity:0.2;stroke:#0000ff;stroke-opacity:0.2;" x="277.733482" xlink:href="#m085a8f7826" y="219.335762"/>
     <use style="fill:#0000ff;fill-opacity:0.2;stroke:#0000ff;stroke-opacity:0.2;" x="278.682442" xlink:href="#m085a8f7826" y="222.034649"/>
     <use style="fill:#0000ff;fill-opacity:0.2;stroke:#0000ff;stroke-opacity:0.2;" x="279.631402" xlink:href="#m085a8f7826" y="222.709371"/>
     <use style="fill:#0000ff;fill-opacity:0.2;stroke:#0000ff;stroke-opacity:0.2;" x="280.580361" xlink:href="#m085a8f7826" y="220.910113"/>
     <use style="fill:#0000ff;fill-opacity:0.2;stroke:#0000ff;stroke-opacity:0.2;" x="281.529321" xlink:href="#m085a8f7826" y="220.010484"/>
     <use style="fill:#0000ff;fill-opacity:0.2;stroke:#0000ff;stroke-opacity:0.2;" x="282.478281" xlink:href="#m085a8f7826" y="219.110855"/>
     <use style="fill:#0000ff;fill-opacity:0.2;stroke:#0000ff;stroke-opacity:0.2;" x="283.427241" xlink:href="#m085a8f7826" y="219.785577"/>
     <use style="fill:#0000ff;fill-opacity:0.2;stroke:#0000ff;stroke-opacity:0.2;" x="284.376201" xlink:href="#m085a8f7826" y="218.436133"/>
     <use style="fill:#0000ff;fill-opacity:0.2;stroke:#0000ff;stroke-opacity:0.2;" x="285.325161" xlink:href="#m085a8f7826" y="217.986319"/>
     <use style="fill:#0000ff;fill-opacity:0.2;stroke:#0000ff;stroke-opacity:0.2;" x="286.274121" xlink:href="#m085a8f7826" y="216.861783"/>
     <use style="fill:#0000ff;fill-opacity:0.2;stroke:#0000ff;stroke-opacity:0.2;" x="287.223081" xlink:href="#m085a8f7826" y="219.110855"/>
     <use style="fill:#0000ff;fill-opacity:0.2;stroke:#0000ff;stroke-opacity:0.2;" x="288.172041" xlink:href="#m085a8f7826" y="219.110855"/>
     <use style="fill:#0000ff;fill-opacity:0.2;stroke:#0000ff;stroke-opacity:0.2;" x="289.121001" xlink:href="#m085a8f7826" y="218.66104"/>
     <use style="fill:#0000ff;fill-opacity:0.2;stroke:#0000ff;stroke-opacity:0.2;" x="290.069961" xlink:href="#m085a8f7826" y="216.411968"/>
     <use style="fill:#0000ff;fill-opacity:0.2;stroke:#0000ff;stroke-opacity:0.2;" x="291.018921" xlink:href="#m085a8f7826" y="214.61271"/>
     <use style="fill:#0000ff;fill-opacity:0.2;stroke:#0000ff;stroke-opacity:0.2;" x="291.967881" xlink:href="#m085a8f7826" y="214.837618"/>
     <use style="fill:#0000ff;fill-opacity:0.2;stroke:#0000ff;stroke-opacity:0.2;" x="292.916841" xlink:href="#m085a8f7826" y="216.411968"/>
     <use style="fill:#0000ff;fill-opacity:0.2;stroke:#0000ff;stroke-opacity:0.2;" x="293.865801" xlink:href="#m085a8f7826" y="213.937989"/>
     <use style="fill:#0000ff;fill-opacity:0.2;stroke:#0000ff;stroke-opacity:0.2;" x="294.814761" xlink:href="#m085a8f7826" y="210.56438"/>
     <use style="fill:#0000ff;fill-opacity:0.2;stroke:#0000ff;stroke-opacity:0.2;" x="295.76372" xlink:href="#m085a8f7826" y="211.464009"/>
     <use style="fill:#0000ff;fill-opacity:0.2;stroke:#0000ff;stroke-opacity:0.2;" x="296.71268" xlink:href="#m085a8f7826" y="211.913824"/>
     <use style="fill:#0000ff;fill-opacity:0.2;stroke:#0000ff;stroke-opacity:0.2;" x="297.66164" xlink:href="#m085a8f7826" y="209.439844"/>
     <use style="fill:#0000ff;fill-opacity:0.2;stroke:#0000ff;stroke-opacity:0.2;" x="298.6106" xlink:href="#m085a8f7826" y="207.190772"/>
     <use style="fill:#0000ff;fill-opacity:0.2;stroke:#0000ff;stroke-opacity:0.2;" x="299.55956" xlink:href="#m085a8f7826" y="207.190772"/>
     <use style="fill:#0000ff;fill-opacity:0.2;stroke:#0000ff;stroke-opacity:0.2;" x="300.50852" xlink:href="#m085a8f7826" y="198.41939"/>
     <use style="fill:#0000ff;fill-opacity:0.2;stroke:#0000ff;stroke-opacity:0.2;" x="301.45748" xlink:href="#m085a8f7826" y="207.190772"/>
     <use style="fill:#0000ff;fill-opacity:0.2;stroke:#0000ff;stroke-opacity:0.2;" x="302.40644" xlink:href="#m085a8f7826" y="201.568091"/>
     <use style="fill:#0000ff;fill-opacity:0.2;stroke:#0000ff;stroke-opacity:0.2;" x="303.3554" xlink:href="#m085a8f7826" y="197.969576"/>
     <use style="fill:#0000ff;fill-opacity:0.2;stroke:#0000ff;stroke-opacity:0.2;" x="304.30436" xlink:href="#m085a8f7826" y="195.270689"/>
     <use style="fill:#0000ff;fill-opacity:0.2;stroke:#0000ff;stroke-opacity:0.2;" x="305.25332" xlink:href="#m085a8f7826" y="194.820874"/>
     <use style="fill:#0000ff;fill-opacity:0.2;stroke:#0000ff;stroke-opacity:0.2;" x="306.20228" xlink:href="#m085a8f7826" y="194.820874"/>
     <use style="fill:#0000ff;fill-opacity:0.2;stroke:#0000ff;stroke-opacity:0.2;" x="307.15124" xlink:href="#m085a8f7826" y="196.620132"/>
     <use style="fill:#0000ff;fill-opacity:0.2;stroke:#0000ff;stroke-opacity:0.2;" x="308.1002" xlink:href="#m085a8f7826" y="191.222359"/>
     <use style="fill:#0000ff;fill-opacity:0.2;stroke:#0000ff;stroke-opacity:0.2;" x="309.04916" xlink:href="#m085a8f7826" y="189.198194"/>
     <use style="fill:#0000ff;fill-opacity:0.2;stroke:#0000ff;stroke-opacity:0.2;" x="309.998119" xlink:href="#m085a8f7826" y="189.872915"/>
     <use style="fill:#0000ff;fill-opacity:0.2;stroke:#0000ff;stroke-opacity:0.2;" x="310.947079" xlink:href="#m085a8f7826" y="187.398936"/>
     <use style="fill:#0000ff;fill-opacity:0.2;stroke:#0000ff;stroke-opacity:0.2;" x="311.896039" xlink:href="#m085a8f7826" y="180.651719"/>
     <use style="fill:#0000ff;fill-opacity:0.2;stroke:#0000ff;stroke-opacity:0.2;" x="312.844999" xlink:href="#m085a8f7826" y="181.326441"/>
     <use style="fill:#0000ff;fill-opacity:0.2;stroke:#0000ff;stroke-opacity:0.2;" x="313.793959" xlink:href="#m085a8f7826" y="179.976997"/>
     <use style="fill:#0000ff;fill-opacity:0.2;stroke:#0000ff;stroke-opacity:0.2;" x="314.742919" xlink:href="#m085a8f7826" y="177.727925"/>
     <use style="fill:#0000ff;fill-opacity:0.2;stroke:#0000ff;stroke-opacity:0.2;" x="315.691879" xlink:href="#m085a8f7826" y="177.727925"/>
     <use style="fill:#0000ff;fill-opacity:0.2;stroke:#0000ff;stroke-opacity:0.2;" x="316.640839" xlink:href="#m085a8f7826" y="180.876626"/>
     <use style="fill:#0000ff;fill-opacity:0.2;stroke:#0000ff;stroke-opacity:0.2;" x="317.589799" xlink:href="#m085a8f7826" y="174.804131"/>
     <use style="fill:#0000ff;fill-opacity:0.2;stroke:#0000ff;stroke-opacity:0.2;" x="318.538759" xlink:href="#m085a8f7826" y="178.627554"/>
     <use style="fill:#0000ff;fill-opacity:0.2;stroke:#0000ff;stroke-opacity:0.2;" x="319.487719" xlink:href="#m085a8f7826" y="175.478853"/>
     <use style="fill:#0000ff;fill-opacity:0.2;stroke:#0000ff;stroke-opacity:0.2;" x="320.436679" xlink:href="#m085a8f7826" y="166.482564"/>
     <use style="fill:#0000ff;fill-opacity:0.2;stroke:#0000ff;stroke-opacity:0.2;" x="321.385639" xlink:href="#m085a8f7826" y="170.305987"/>
     <use style="fill:#0000ff;fill-opacity:0.2;stroke:#0000ff;stroke-opacity:0.2;" x="322.334599" xlink:href="#m085a8f7826" y="157.711182"/>
     <use style="fill:#0000ff;fill-opacity:0.2;stroke:#0000ff;stroke-opacity:0.2;" x="323.283559" xlink:href="#m085a8f7826" y="167.6071"/>
     <use style="fill:#0000ff;fill-opacity:0.2;stroke:#0000ff;stroke-opacity:0.2;" x="324.232519" xlink:href="#m085a8f7826" y="173.904502"/>
     <use style="fill:#0000ff;fill-opacity:0.2;stroke:#0000ff;stroke-opacity:0.2;" x="325.181478" xlink:href="#m085a8f7826" y="166.482564"/>
     <use style="fill:#0000ff;fill-opacity:0.2;stroke:#0000ff;stroke-opacity:0.2;" x="326.130438" xlink:href="#m085a8f7826" y="168.731636"/>
     <use style="fill:#0000ff;fill-opacity:0.2;stroke:#0000ff;stroke-opacity:0.2;" x="327.079398" xlink:href="#m085a8f7826" y="166.707471"/>
     <use style="fill:#0000ff;fill-opacity:0.2;stroke:#0000ff;stroke-opacity:0.2;" x="328.028358" xlink:href="#m085a8f7826" y="161.08479"/>
     <use style="fill:#0000ff;fill-opacity:0.2;stroke:#0000ff;stroke-opacity:0.2;" x="328.977318" xlink:href="#m085a8f7826" y="166.707471"/>
     <use style="fill:#0000ff;fill-opacity:0.2;stroke:#0000ff;stroke-opacity:0.2;" x="329.926278" xlink:href="#m085a8f7826" y="161.759512"/>
     <use style="fill:#0000ff;fill-opacity:0.2;stroke:#0000ff;stroke-opacity:0.2;" x="330.875238" xlink:href="#m085a8f7826" y="153.662852"/>
     <use style="fill:#0000ff;fill-opacity:0.2;stroke:#0000ff;stroke-opacity:0.2;" x="331.824198" xlink:href="#m085a8f7826" y="161.534605"/>
     <use style="fill:#0000ff;fill-opacity:0.2;stroke:#0000ff;stroke-opacity:0.2;" x="332.773158" xlink:href="#m085a8f7826" y="159.960254"/>
     <use style="fill:#0000ff;fill-opacity:0.2;stroke:#0000ff;stroke-opacity:0.2;" x="333.722118" xlink:href="#m085a8f7826" y="167.6071"/>
     <use style="fill:#0000ff;fill-opacity:0.2;stroke:#0000ff;stroke-opacity:0.2;" x="334.671078" xlink:href="#m085a8f7826" y="155.687017"/>
     <use style="fill:#0000ff;fill-opacity:0.2;stroke:#0000ff;stroke-opacity:0.2;" x="335.620038" xlink:href="#m085a8f7826" y="160.859883"/>
     <use style="fill:#0000ff;fill-opacity:0.2;stroke:#0000ff;stroke-opacity:0.2;" x="336.568998" xlink:href="#m085a8f7826" y="157.711182"/>
     <use style="fill:#0000ff;fill-opacity:0.2;stroke:#0000ff;stroke-opacity:0.2;" x="337.517958" xlink:href="#m085a8f7826" y="154.562481"/>
     <use style="fill:#0000ff;fill-opacity:0.2;stroke:#0000ff;stroke-opacity:0.2;" x="338.466918" xlink:href="#m085a8f7826" y="163.783677"/>
     <use style="fill:#0000ff;fill-opacity:0.2;stroke:#0000ff;stroke-opacity:0.2;" x="339.415877" xlink:href="#m085a8f7826" y="163.55877"/>
     <use style="fill:#0000ff;fill-opacity:0.2;stroke:#0000ff;stroke-opacity:0.2;" x="340.364837" xlink:href="#m085a8f7826" y="157.261367"/>
     <use style="fill:#0000ff;fill-opacity:0.2;stroke:#0000ff;stroke-opacity:0.2;" x="341.313797" xlink:href="#m085a8f7826" y="157.486275"/>
     <use style="fill:#0000ff;fill-opacity:0.2;stroke:#0000ff;stroke-opacity:0.2;" x="342.262757" xlink:href="#m085a8f7826" y="167.382193"/>
     <use style="fill:#0000ff;fill-opacity:0.2;stroke:#0000ff;stroke-opacity:0.2;" x="343.211717" xlink:href="#m085a8f7826" y="166.482564"/>
     <use style="fill:#0000ff;fill-opacity:0.2;stroke:#0000ff;stroke-opacity:0.2;" x="344.160677" xlink:href="#m085a8f7826" y="167.6071"/>
     <use style="fill:#0000ff;fill-opacity:0.2;stroke:#0000ff;stroke-opacity:0.2;" x="345.109637" xlink:href="#m085a8f7826" y="160.410069"/>
     <use style="fill:#0000ff;fill-opacity:0.2;stroke:#0000ff;stroke-opacity:0.2;" x="346.058597" xlink:href="#m085a8f7826" y="161.759512"/>
     <use style="fill:#0000ff;fill-opacity:0.2;stroke:#0000ff;stroke-opacity:0.2;" x="347.007557" xlink:href="#m085a8f7826" y="169.631265"/>
     <use style="fill:#0000ff;fill-opacity:0.2;stroke:#0000ff;stroke-opacity:0.2;" x="347.956517" xlink:href="#m085a8f7826" y="166.482564"/>
     <use style="fill:#0000ff;fill-opacity:0.2;stroke:#0000ff;stroke-opacity:0.2;" x="348.905477" xlink:href="#m085a8f7826" y="170.980708"/>
     <use style="fill:#0000ff;fill-opacity:0.2;stroke:#0000ff;stroke-opacity:0.2;" x="349.854437" xlink:href="#m085a8f7826" y="162.209326"/>
     <use style="fill:#0000ff;fill-opacity:0.2;stroke:#0000ff;stroke-opacity:0.2;" x="350.803397" xlink:href="#m085a8f7826" y="166.707471"/>
     <use style="fill:#0000ff;fill-opacity:0.2;stroke:#0000ff;stroke-opacity:0.2;" x="351.752357" xlink:href="#m085a8f7826" y="160.410069"/>
     <use style="fill:#0000ff;fill-opacity:0.2;stroke:#0000ff;stroke-opacity:0.2;" x="352.701317" xlink:href="#m085a8f7826" y="162.884048"/>
     <use style="fill:#0000ff;fill-opacity:0.2;stroke:#0000ff;stroke-opacity:0.2;" x="353.650277" xlink:href="#m085a8f7826" y="160.634976"/>
     <use style="fill:#0000ff;fill-opacity:0.2;stroke:#0000ff;stroke-opacity:0.2;" x="354.599236" xlink:href="#m085a8f7826" y="162.884048"/>
     <use style="fill:#0000ff;fill-opacity:0.2;stroke:#0000ff;stroke-opacity:0.2;" x="355.548196" xlink:href="#m085a8f7826" y="159.285533"/>
     <use style="fill:#0000ff;fill-opacity:0.2;stroke:#0000ff;stroke-opacity:0.2;" x="356.497156" xlink:href="#m085a8f7826" y="156.586646"/>
     <use style="fill:#0000ff;fill-opacity:0.2;stroke:#0000ff;stroke-opacity:0.2;" x="357.446116" xlink:href="#m085a8f7826" y="166.482564"/>
     <use style="fill:#0000ff;fill-opacity:0.2;stroke:#0000ff;stroke-opacity:0.2;" x="358.395076" xlink:href="#m085a8f7826" y="151.638687"/>
     <use style="fill:#0000ff;fill-opacity:0.2;stroke:#0000ff;stroke-opacity:0.2;" x="359.344036" xlink:href="#m085a8f7826" y="153.662852"/>
     <use style="fill:#0000ff;fill-opacity:0.2;stroke:#0000ff;stroke-opacity:0.2;" x="360.292996" xlink:href="#m085a8f7826" y="158.385904"/>
     <use style="fill:#0000ff;fill-opacity:0.2;stroke:#0000ff;stroke-opacity:0.2;" x="361.241956" xlink:href="#m085a8f7826" y="152.313408"/>
     <use style="fill:#0000ff;fill-opacity:0.2;stroke:#0000ff;stroke-opacity:0.2;" x="362.190916" xlink:href="#m085a8f7826" y="141.517862"/>
     <use style="fill:#0000ff;fill-opacity:0.2;stroke:#0000ff;stroke-opacity:0.2;" x="363.139876" xlink:href="#m085a8f7826" y="146.465821"/>
     <use style="fill:#0000ff;fill-opacity:0.2;stroke:#0000ff;stroke-opacity:0.2;" x="364.088836" xlink:href="#m085a8f7826" y="145.341284"/>
     <use style="fill:#0000ff;fill-opacity:0.2;stroke:#0000ff;stroke-opacity:0.2;" x="365.037796" xlink:href="#m085a8f7826" y="144.666563"/>
     <use style="fill:#0000ff;fill-opacity:0.2;stroke:#0000ff;stroke-opacity:0.2;" x="365.986756" xlink:href="#m085a8f7826" y="134.770645"/>
     <use style="fill:#0000ff;fill-opacity:0.2;stroke:#0000ff;stroke-opacity:0.2;" x="366.935716" xlink:href="#m085a8f7826" y="129.822686"/>
     <use style="fill:#0000ff;fill-opacity:0.2;stroke:#0000ff;stroke-opacity:0.2;" x="367.884676" xlink:href="#m085a8f7826" y="127.123799"/>
     <use style="fill:#0000ff;fill-opacity:0.2;stroke:#0000ff;stroke-opacity:0.2;" x="368.833635" xlink:href="#m085a8f7826" y="130.2725"/>
     <use style="fill:#0000ff;fill-opacity:0.2;stroke:#0000ff;stroke-opacity:0.2;" x="369.782595" xlink:href="#m085a8f7826" y="128.023428"/>
     <use style="fill:#0000ff;fill-opacity:0.2;stroke:#0000ff;stroke-opacity:0.2;" x="370.731555" xlink:href="#m085a8f7826" y="123.075469"/>
     <use style="fill:#0000ff;fill-opacity:0.2;stroke:#0000ff;stroke-opacity:0.2;" x="371.680515" xlink:href="#m085a8f7826" y="114.07918"/>
     <use style="fill:#0000ff;fill-opacity:0.2;stroke:#0000ff;stroke-opacity:0.2;" x="372.629475" xlink:href="#m085a8f7826" y="118.352417"/>
     <use style="fill:#0000ff;fill-opacity:0.2;stroke:#0000ff;stroke-opacity:0.2;" x="373.578435" xlink:href="#m085a8f7826" y="117.227881"/>
     <use style="fill:#0000ff;fill-opacity:0.2;stroke:#0000ff;stroke-opacity:0.2;" x="374.527395" xlink:href="#m085a8f7826" y="124.64982"/>
     <use style="fill:#0000ff;fill-opacity:0.2;stroke:#0000ff;stroke-opacity:0.2;" x="375.476355" xlink:href="#m085a8f7826" y="99.910025"/>
     <use style="fill:#0000ff;fill-opacity:0.2;stroke:#0000ff;stroke-opacity:0.2;" x="376.425315" xlink:href="#m085a8f7826" y="92.937901"/>
     <use style="fill:#0000ff;fill-opacity:0.2;stroke:#0000ff;stroke-opacity:0.2;" x="377.374275" xlink:href="#m085a8f7826" y="87.540127"/>
     <use style="fill:#0000ff;fill-opacity:0.2;stroke:#0000ff;stroke-opacity:0.2;" x="378.323235" xlink:href="#m085a8f7826" y="82.592168"/>
     <use style="fill:#0000ff;fill-opacity:0.2;stroke:#0000ff;stroke-opacity:0.2;" x="379.272195" xlink:href="#m085a8f7826" y="81.917446"/>
     <use style="fill:#0000ff;fill-opacity:0.2;stroke:#0000ff;stroke-opacity:0.2;" x="380.221155" xlink:href="#m085a8f7826" y="78.094024"/>
     <use style="fill:#0000ff;fill-opacity:0.2;stroke:#0000ff;stroke-opacity:0.2;" x="381.170115" xlink:href="#m085a8f7826" y="72.021528"/>
     <use style="fill:#0000ff;fill-opacity:0.2;stroke:#0000ff;stroke-opacity:0.2;" x="382.119075" xlink:href="#m085a8f7826" y="61.001074"/>
     <use style="fill:#0000ff;fill-opacity:0.2;stroke:#0000ff;stroke-opacity:0.2;" x="383.068035" xlink:href="#m085a8f7826" y="51.554971"/>
     <use style="fill:#0000ff;fill-opacity:0.2;stroke:#0000ff;stroke-opacity:0.2;" x="384.016994" xlink:href="#m085a8f7826" y="59.426724"/>
     <use style="fill:#0000ff;fill-opacity:0.2;stroke:#0000ff;stroke-opacity:0.2;" x="384.965954" xlink:href="#m085a8f7826" y="58.302188"/>
     <use style="fill:#0000ff;fill-opacity:0.2;stroke:#0000ff;stroke-opacity:0.2;" x="385.914914" xlink:href="#m085a8f7826" y="64.374683"/>
     <use style="fill:#0000ff;fill-opacity:0.2;stroke:#0000ff;stroke-opacity:0.2;" x="386.863874" xlink:href="#m085a8f7826" y="45.707383"/>
     <use style="fill:#0000ff;fill-opacity:0.2;stroke:#0000ff;stroke-opacity:0.2;" x="387.812834" xlink:href="#m085a8f7826" y="53.354229"/>
     <use style="fill:#0000ff;fill-opacity:0.2;stroke:#0000ff;stroke-opacity:0.2;" x="388.761794" xlink:href="#m085a8f7826" y="45.707383"/>
     <use style="fill:#0000ff;fill-opacity:0.2;stroke:#0000ff;stroke-opacity:0.2;" x="389.710754" xlink:href="#m085a8f7826" y="41.209238"/>
     <use style="fill:#0000ff;fill-opacity:0.2;stroke:#0000ff;stroke-opacity:0.2;" x="390.659714" xlink:href="#m085a8f7826" y="52.904414"/>
     <use style="fill:#0000ff;fill-opacity:0.2;stroke:#0000ff;stroke-opacity:0.2;" x="391.608674" xlink:href="#m085a8f7826" y="55.603301"/>
     <use style="fill:#0000ff;fill-opacity:0.2;stroke:#0000ff;stroke-opacity:0.2;" x="392.557634" xlink:href="#m085a8f7826" y="64.824497"/>
     <use style="fill:#0000ff;fill-opacity:0.2;stroke:#0000ff;stroke-opacity:0.2;" x="393.506594" xlink:href="#m085a8f7826" y="77.869116"/>
     <use style="fill:#0000ff;fill-opacity:0.2;stroke:#0000ff;stroke-opacity:0.2;" x="394.455554" xlink:href="#m085a8f7826" y="81.467632"/>
     <use style="fill:#0000ff;fill-opacity:0.2;stroke:#0000ff;stroke-opacity:0.2;" x="395.404514" xlink:href="#m085a8f7826" y="86.415591"/>
     <use style="fill:#0000ff;fill-opacity:0.2;stroke:#0000ff;stroke-opacity:0.2;" x="396.353474" xlink:href="#m085a8f7826" y="124.424912"/>
     <use style="fill:#0000ff;fill-opacity:0.2;stroke:#0000ff;stroke-opacity:0.2;" x="397.302434" xlink:href="#m085a8f7826" y="206.291143"/>
    </g>
   </g>
   <g id="line2d_19">
    <path clip-path="url(#pedb949cccf)" d="M 85.094615 227.432422 
L 86.992535 227.207515 
L 87.941495 227.239645 
L 89.839414 226.564923 
L 91.737334 225.279739 
L 92.686294 224.540758 
L 93.635254 223.384092 
L 94.584214 221.93826 
L 95.533174 220.106873 
L 96.482134 218.532522 
L 98.380054 213.199008 
L 100.277974 205.455773 
L 101.226934 200.379296 
L 102.175894 194.049764 
L 105.971733 160.120902 
L 107.869653 137.276754 
L 108.818613 125.035375 
L 110.716533 103.572799 
L 111.665493 90.142625 
L 112.614453 80.310966 
L 114.512373 65.338571 
L 115.461333 57.113392 
L 116.410293 52.4546 
L 117.359253 51.169416 
L 118.308212 51.137286 
L 120.206132 52.840155 
L 121.155092 58.205799 
L 122.104052 65.081534 
L 123.053012 69.997363 
L 124.001972 74.174212 
L 125.899892 87.154572 
L 126.848852 91.427809 
L 127.797812 96.568546 
L 131.593652 120.055286 
L 132.542612 124.64982 
L 133.491571 131.750462 
L 134.440531 136.409255 
L 135.389491 142.096194 
L 137.287411 150.739058 
L 139.185331 158.64294 
L 141.083251 164.297751 
L 142.981171 168.024785 
L 143.930131 170.980708 
L 144.879091 173.069133 
L 145.828051 174.836261 
L 146.777011 177.824314 
L 147.72597 180.009127 
L 148.67493 183.350606 
L 149.62389 185.760326 
L 151.52181 188.266435 
L 152.47077 190.129952 
L 153.41973 190.354859 
L 154.36869 191.607914 
L 155.31765 191.89708 
L 156.26661 192.860969 
L 157.21557 194.467449 
L 158.16453 195.720503 
L 160.06245 197.262724 
L 161.01141 197.423372 
L 162.909329 199.25476 
L 163.858289 199.415408 
L 166.705169 202.885405 
L 167.654129 203.849293 
L 168.603089 204.202719 
L 169.552049 205.520032 
L 170.501009 206.51605 
L 171.449969 206.805217 
L 172.398929 206.901605 
L 173.347889 207.576327 
L 174.296849 208.893641 
L 177.143728 212.138731 
L 178.092688 213.423915 
L 179.041648 214.130766 
L 179.990608 214.67697 
L 180.939568 214.869747 
L 181.888528 215.769376 
L 182.837488 215.737246 
L 183.786448 216.058543 
L 184.735408 215.994283 
L 185.684368 216.701135 
L 186.633328 217.118819 
L 187.582288 217.407986 
L 188.531248 217.279467 
L 190.429168 217.568634 
L 191.378128 217.986319 
L 192.327087 217.954189 
L 193.276047 218.404004 
L 194.225007 219.110855 
L 195.173967 220.267521 
L 196.122927 220.588817 
L 197.071887 221.16715 
L 199.918767 222.034649 
L 200.867727 222.291686 
L 202.765647 222.131038 
L 203.714607 222.227426 
L 205.612527 222.805759 
L 206.561487 222.837889 
L 207.510446 223.159185 
L 208.459406 223.159185 
L 209.408366 224.058814 
L 210.357326 224.251592 
L 211.306286 224.123073 
L 212.255246 224.283721 
L 213.204206 224.669276 
L 215.102126 224.958443 
L 216.051086 224.797795 
L 217.949006 225.119091 
L 219.846926 225.15122 
L 220.795886 225.18335 
L 222.693805 225.697424 
L 223.642765 225.697424 
L 224.591725 225.858072 
L 228.387565 225.890201 
L 231.234445 225.793812 
L 233.132365 226.050849 
L 234.081325 225.954461 
L 235.030285 225.98659 
L 235.979245 226.147238 
L 236.928204 226.179368 
L 237.877164 226.082979 
L 238.826124 226.179368 
L 239.775084 226.115109 
L 241.673004 226.243627 
L 244.519884 226.436405 
L 245.468844 226.211497 
L 246.417804 226.372145 
L 247.366764 226.307886 
L 249.264684 225.954461 
L 251.162603 226.082979 
L 252.111563 226.275757 
L 253.060523 226.211497 
L 254.009483 226.436405 
L 256.856363 226.532793 
L 258.754283 226.243627 
L 259.703243 226.179368 
L 260.652203 225.922331 
L 261.601163 225.98659 
L 262.550123 225.825942 
L 264.448043 225.793812 
L 265.397003 225.568905 
L 267.294922 225.472516 
L 269.192842 224.829924 
L 270.141802 224.444369 
L 271.090762 224.34798 
L 272.039722 224.026684 
L 272.988682 223.833907 
L 273.937642 223.384092 
L 274.886602 222.709371 
L 276.784522 222.452334 
L 277.733482 221.841871 
L 278.682442 221.520575 
L 279.631402 220.845853 
L 280.580361 220.556687 
L 281.529321 220.428169 
L 282.478281 219.849836 
L 283.427241 219.014466 
L 284.376201 218.757429 
L 286.274121 218.564652 
L 289.121001 217.08669 
L 290.069961 217.022431 
L 291.018921 216.28345 
L 291.967881 215.062525 
L 292.916841 214.034377 
L 294.814761 212.652805 
L 295.76372 211.560398 
L 296.71268 210.243084 
L 297.66164 208.026142 
L 298.6106 207.544197 
L 299.55956 206.130495 
L 302.40644 200.347166 
L 303.3554 198.580038 
L 304.30436 198.323001 
L 305.25332 196.041799 
L 306.20228 194.274671 
L 308.1002 191.993469 
L 312.844999 182.097551 
L 313.793959 180.812367 
L 314.742919 179.013109 
L 315.691879 178.723943 
L 316.640839 177.888573 
L 317.589799 175.960797 
L 318.538759 174.90052 
L 319.487719 172.040985 
L 320.436679 170.145339 
L 321.385639 170.01682 
L 322.334599 168.281822 
L 323.283559 167.317933 
L 324.232519 167.350063 
L 325.181478 166.032749 
L 326.130438 167.317933 
L 327.079398 166.482564 
L 328.028358 163.590899 
L 328.977318 162.884048 
L 329.926278 161.630994 
L 330.875238 161.759512 
L 333.722118 159.574699 
L 334.671078 159.703217 
L 335.620038 160.024513 
L 336.568998 160.538587 
L 337.517958 159.060625 
L 338.466918 159.317662 
L 339.415877 160.249421 
L 340.364837 161.502475 
L 341.313797 163.365992 
L 342.262757 162.884048 
L 343.211717 162.627011 
L 344.160677 164.39414 
L 345.109637 165.679324 
L 346.058597 166.193397 
L 347.007557 165.582935 
L 347.956517 165.454416 
L 348.905477 165.454416 
L 349.854437 165.615064 
L 350.803397 164.32988 
L 351.752357 163.815807 
L 352.701317 162.145067 
L 353.650277 161.341827 
L 354.599236 161.309698 
L 356.497156 158.739329 
L 357.446116 158.418033 
L 358.395076 156.907942 
L 359.344036 154.369703 
L 360.292996 152.923871 
L 361.241956 149.903688 
L 362.190916 148.90767 
L 363.139876 146.208784 
L 365.037796 138.529808 
L 365.986756 136.923328 
L 366.935716 134.288701 
L 367.884676 131.10787 
L 368.833635 126.738244 
L 369.782595 124.392783 
L 370.731555 122.593525 
L 371.680515 122.240099 
L 372.629475 117.902603 
L 377.374275 92.520216 
L 378.323235 85.001888 
L 380.221155 73.53162 
L 381.170115 69.515419 
L 382.119075 66.045422 
L 383.068035 63.539313 
L 384.016994 58.91265 
L 384.965954 56.245893 
L 385.914914 54.06108 
L 386.863874 52.583118 
L 387.812834 51.65136 
L 388.761794 51.265804 
L 389.710754 51.330064 
L 390.659714 55.924597 
L 391.608674 59.940797 
L 391.608674 59.940797 
" style="fill:none;stroke:#e60000;stroke-linecap:square;stroke-width:2;"/>
   </g>
   <g id="patch_3">
    <path d="M 66.495 237.778155 
L 66.495 15.12 
" style="fill:none;stroke:#000000;stroke-linecap:square;stroke-linejoin:miter;stroke-width:0.8;"/>
   </g>
   <g id="patch_4">
    <path d="M 413.055168 237.778155 
L 413.055168 15.12 
" style="fill:none;stroke:#000000;stroke-linecap:square;stroke-linejoin:miter;stroke-width:0.8;"/>
   </g>
   <g id="patch_5">
    <path d="M 66.495 237.778155 
L 413.055168 237.778155 
" style="fill:none;stroke:#000000;stroke-linecap:square;stroke-linejoin:miter;stroke-width:0.8;"/>
   </g>
   <g id="patch_6">
    <path d="M 66.495 15.12 
L 413.055168 15.12 
" style="fill:none;stroke:#000000;stroke-linecap:square;stroke-linejoin:miter;stroke-width:0.8;"/>
   </g>
   <g id="legend_1">
    <g id="line2d_20">
     <path d="M 163.127272 33.457812 
L 191.127272 33.457812 
" style="fill:none;stroke:#e60000;stroke-linecap:square;stroke-width:2;"/>
    </g>
    <g id="line2d_21"/>
    <g id="text_19">
     <!-- Weekly Average -->
     <defs>
      <path d="M 3.328125 72.90625 
L 13.28125 72.90625 
L 28.609375 11.28125 
L 43.890625 72.90625 
L 54.984375 72.90625 
L 70.3125 11.28125 
L 85.59375 72.90625 
L 95.609375 72.90625 
L 77.296875 0 
L 64.890625 0 
L 49.515625 63.28125 
L 33.984375 0 
L 21.578125 0 
z
" id="DejaVuSans-87"/>
      <path d="M 9.078125 75.984375 
L 18.109375 75.984375 
L 18.109375 31.109375 
L 44.921875 54.6875 
L 56.390625 54.6875 
L 27.390625 29.109375 
L 57.625 0 
L 45.90625 0 
L 18.109375 26.703125 
L 18.109375 0 
L 9.078125 0 
z
" id="DejaVuSans-107"/>
     </defs>
     <g transform="translate(202.327272 38.357812)scale(0.14 -0.14)">
      <use xlink:href="#DejaVuSans-87"/>
      <use x="98.798828" xlink:href="#DejaVuSans-101"/>
      <use x="160.322266" xlink:href="#DejaVuSans-101"/>
      <use x="221.845703" xlink:href="#DejaVuSans-107"/>
      <use x="279.755859" xlink:href="#DejaVuSans-108"/>
      <use x="307.539062" xlink:href="#DejaVuSans-121"/>
      <use x="366.71875" xlink:href="#DejaVuSans-32"/>
      <use x="398.505859" xlink:href="#DejaVuSans-65"/>
      <use x="466.835938" xlink:href="#DejaVuSans-118"/>
      <use x="526.015625" xlink:href="#DejaVuSans-101"/>
      <use x="587.539062" xlink:href="#DejaVuSans-114"/>
      <use x="628.652344" xlink:href="#DejaVuSans-97"/>
      <use x="689.931641" xlink:href="#DejaVuSans-103"/>
      <use x="753.408203" xlink:href="#DejaVuSans-101"/>
     </g>
    </g>
   </g>
  </g>
 </g>
 <defs>
  <clipPath id="pedb949cccf">
   <rect height="222.658155" width="346.560168" x="66.495" y="15.12"/>
  </clipPath>
 </defs>
</svg>
