<?xml version="1.0" encoding="utf-8" standalone="no"?>
<!DOCTYPE svg PUBLIC "-//W3C//DTD SVG 1.1//EN"
  "http://www.w3.org/Graphics/SVG/1.1/DTD/svg11.dtd">
<!-- Created with matplotlib (https://matplotlib.org/) -->
<svg height="288pt" version="1.1" viewBox="0 0 432 288" width="432pt" xmlns="http://www.w3.org/2000/svg" xmlns:xlink="http://www.w3.org/1999/xlink">
 <defs>
  <style type="text/css">
*{stroke-linecap:butt;stroke-linejoin:round;}
  </style>
 </defs>
 <g id="figure_1">
  <g id="patch_1">
   <path d="M 0 288 
L 432 288 
L 432 0 
L 0 0 
z
" style="fill:#ffffff;"/>
  </g>
  <g id="axes_1">
   <g id="patch_2">
    <path d="M 66.495 237.778155 
L 411.18276 237.778155 
L 411.18276 15.12 
L 66.495 15.12 
z
" style="fill:#ffffff;"/>
   </g>
   <g id="matplotlib.axis_1">
    <g id="xtick_1">
     <g id="line2d_1">
      <defs>
       <path d="M 0 0 
L 0 3.5 
" id="m76e33343c0" style="stroke:#000000;stroke-width:0.8;"/>
      </defs>
      <g>
       <use style="stroke:#000000;stroke-width:0.8;" x="82.162625" xlink:href="#m76e33343c0" y="237.778155"/>
      </g>
     </g>
     <g id="text_1">
      <!-- Mar -->
      <defs>
       <path d="M 9.8125 72.90625 
L 24.515625 72.90625 
L 43.109375 23.296875 
L 61.8125 72.90625 
L 76.515625 72.90625 
L 76.515625 0 
L 66.890625 0 
L 66.890625 64.015625 
L 48.09375 14.015625 
L 38.1875 14.015625 
L 19.390625 64.015625 
L 19.390625 0 
L 9.8125 0 
z
" id="DejaVuSans-77"/>
       <path d="M 34.28125 27.484375 
Q 23.390625 27.484375 19.1875 25 
Q 14.984375 22.515625 14.984375 16.5 
Q 14.984375 11.71875 18.140625 8.90625 
Q 21.296875 6.109375 26.703125 6.109375 
Q 34.1875 6.109375 38.703125 11.40625 
Q 43.21875 16.703125 43.21875 25.484375 
L 43.21875 27.484375 
z
M 52.203125 31.203125 
L 52.203125 0 
L 43.21875 0 
L 43.21875 8.296875 
Q 40.140625 3.328125 35.546875 0.953125 
Q 30.953125 -1.421875 24.3125 -1.421875 
Q 15.921875 -1.421875 10.953125 3.296875 
Q 6 8.015625 6 15.921875 
Q 6 25.140625 12.171875 29.828125 
Q 18.359375 34.515625 30.609375 34.515625 
L 43.21875 34.515625 
L 43.21875 35.40625 
Q 43.21875 41.609375 39.140625 45 
Q 35.0625 48.390625 27.6875 48.390625 
Q 23 48.390625 18.546875 47.265625 
Q 14.109375 46.140625 10.015625 43.890625 
L 10.015625 52.203125 
Q 14.9375 54.109375 19.578125 55.046875 
Q 24.21875 56 28.609375 56 
Q 40.484375 56 46.34375 49.84375 
Q 52.203125 43.703125 52.203125 31.203125 
z
" id="DejaVuSans-97"/>
       <path d="M 41.109375 46.296875 
Q 39.59375 47.171875 37.8125 47.578125 
Q 36.03125 48 33.890625 48 
Q 26.265625 48 22.1875 43.046875 
Q 18.109375 38.09375 18.109375 28.8125 
L 18.109375 0 
L 9.078125 0 
L 9.078125 54.6875 
L 18.109375 54.6875 
L 18.109375 46.1875 
Q 20.953125 51.171875 25.484375 53.578125 
Q 30.03125 56 36.53125 56 
Q 37.453125 56 38.578125 55.875 
Q 39.703125 55.765625 41.0625 55.515625 
z
" id="DejaVuSans-114"/>
      </defs>
      <g transform="translate(73.559856 268.642624)rotate(-35)scale(0.14 -0.14)">
       <use xlink:href="#DejaVuSans-77"/>
       <use x="86.279297" xlink:href="#DejaVuSans-97"/>
       <use x="147.558594" xlink:href="#DejaVuSans-114"/>
      </g>
     </g>
    </g>
    <g id="xtick_2">
     <g id="line2d_2">
      <g>
       <use style="stroke:#000000;stroke-width:0.8;" x="111.59877" xlink:href="#m76e33343c0" y="237.778155"/>
      </g>
     </g>
     <g id="text_2">
      <!-- Apr -->
      <defs>
       <path d="M 34.1875 63.1875 
L 20.796875 26.90625 
L 47.609375 26.90625 
z
M 28.609375 72.90625 
L 39.796875 72.90625 
L 67.578125 0 
L 57.328125 0 
L 50.6875 18.703125 
L 17.828125 18.703125 
L 11.1875 0 
L 0.78125 0 
z
" id="DejaVuSans-65"/>
       <path d="M 18.109375 8.203125 
L 18.109375 -20.796875 
L 9.078125 -20.796875 
L 9.078125 54.6875 
L 18.109375 54.6875 
L 18.109375 46.390625 
Q 20.953125 51.265625 25.265625 53.625 
Q 29.59375 56 35.59375 56 
Q 45.5625 56 51.78125 48.09375 
Q 58.015625 40.1875 58.015625 27.296875 
Q 58.015625 14.40625 51.78125 6.484375 
Q 45.5625 -1.421875 35.59375 -1.421875 
Q 29.59375 -1.421875 25.265625 0.953125 
Q 20.953125 3.328125 18.109375 8.203125 
z
M 48.6875 27.296875 
Q 48.6875 37.203125 44.609375 42.84375 
Q 40.53125 48.484375 33.40625 48.484375 
Q 26.265625 48.484375 22.1875 42.84375 
Q 18.109375 37.203125 18.109375 27.296875 
Q 18.109375 17.390625 22.1875 11.75 
Q 26.265625 6.109375 33.40625 6.109375 
Q 40.53125 6.109375 44.609375 11.75 
Q 48.6875 17.390625 48.6875 27.296875 
z
" id="DejaVuSans-112"/>
      </defs>
      <g transform="translate(103.894636 267.384162)rotate(-35)scale(0.14 -0.14)">
       <use xlink:href="#DejaVuSans-65"/>
       <use x="68.408203" xlink:href="#DejaVuSans-112"/>
       <use x="131.884766" xlink:href="#DejaVuSans-114"/>
      </g>
     </g>
    </g>
    <g id="xtick_3">
     <g id="line2d_3">
      <g>
       <use style="stroke:#000000;stroke-width:0.8;" x="140.085362" xlink:href="#m76e33343c0" y="237.778155"/>
      </g>
     </g>
     <g id="text_3">
      <!-- May -->
      <defs>
       <path d="M 32.171875 -5.078125 
Q 28.375 -14.84375 24.75 -17.8125 
Q 21.140625 -20.796875 15.09375 -20.796875 
L 7.90625 -20.796875 
L 7.90625 -13.28125 
L 13.1875 -13.28125 
Q 16.890625 -13.28125 18.9375 -11.515625 
Q 21 -9.765625 23.484375 -3.21875 
L 25.09375 0.875 
L 2.984375 54.6875 
L 12.5 54.6875 
L 29.59375 11.921875 
L 46.6875 54.6875 
L 56.203125 54.6875 
z
" id="DejaVuSans-121"/>
      </defs>
      <g transform="translate(130.445981 270.094311)rotate(-35)scale(0.14 -0.14)">
       <use xlink:href="#DejaVuSans-77"/>
       <use x="86.279297" xlink:href="#DejaVuSans-97"/>
       <use x="147.558594" xlink:href="#DejaVuSans-121"/>
      </g>
     </g>
    </g>
    <g id="xtick_4">
     <g id="line2d_4">
      <g>
       <use style="stroke:#000000;stroke-width:0.8;" x="169.521507" xlink:href="#m76e33343c0" y="237.778155"/>
      </g>
     </g>
     <g id="text_4">
      <!-- Jun -->
      <defs>
       <path d="M 9.8125 72.90625 
L 19.671875 72.90625 
L 19.671875 5.078125 
Q 19.671875 -8.109375 14.671875 -14.0625 
Q 9.671875 -20.015625 -1.421875 -20.015625 
L -5.171875 -20.015625 
L -5.171875 -11.71875 
L -2.09375 -11.71875 
Q 4.4375 -11.71875 7.125 -8.046875 
Q 9.8125 -4.390625 9.8125 5.078125 
z
" id="DejaVuSans-74"/>
       <path d="M 8.5 21.578125 
L 8.5 54.6875 
L 17.484375 54.6875 
L 17.484375 21.921875 
Q 17.484375 14.15625 20.5 10.265625 
Q 23.53125 6.390625 29.59375 6.390625 
Q 36.859375 6.390625 41.078125 11.03125 
Q 45.3125 15.671875 45.3125 23.6875 
L 45.3125 54.6875 
L 54.296875 54.6875 
L 54.296875 0 
L 45.3125 0 
L 45.3125 8.40625 
Q 42.046875 3.421875 37.71875 1 
Q 33.40625 -1.421875 27.6875 -1.421875 
Q 18.265625 -1.421875 13.375 4.4375 
Q 8.5 10.296875 8.5 21.578125 
z
M 31.109375 56 
z
" id="DejaVuSans-117"/>
       <path d="M 54.890625 33.015625 
L 54.890625 0 
L 45.90625 0 
L 45.90625 32.71875 
Q 45.90625 40.484375 42.875 44.328125 
Q 39.84375 48.1875 33.796875 48.1875 
Q 26.515625 48.1875 22.3125 43.546875 
Q 18.109375 38.921875 18.109375 30.90625 
L 18.109375 0 
L 9.078125 0 
L 9.078125 54.6875 
L 18.109375 54.6875 
L 18.109375 46.1875 
Q 21.34375 51.125 25.703125 53.5625 
Q 30.078125 56 35.796875 56 
Q 45.21875 56 50.046875 50.171875 
Q 54.890625 44.34375 54.890625 33.015625 
z
" id="DejaVuSans-110"/>
      </defs>
      <g transform="translate(162.777829 266.039125)rotate(-35)scale(0.14 -0.14)">
       <use xlink:href="#DejaVuSans-74"/>
       <use x="29.492188" xlink:href="#DejaVuSans-117"/>
       <use x="92.871094" xlink:href="#DejaVuSans-110"/>
      </g>
     </g>
    </g>
    <g id="xtick_5">
     <g id="line2d_5">
      <g>
       <use style="stroke:#000000;stroke-width:0.8;" x="198.008098" xlink:href="#m76e33343c0" y="237.778155"/>
      </g>
     </g>
     <g id="text_5">
      <!-- Jul -->
      <defs>
       <path d="M 9.421875 75.984375 
L 18.40625 75.984375 
L 18.40625 0 
L 9.421875 0 
z
" id="DejaVuSans-108"/>
      </defs>
      <g transform="translate(193.305389 263.180922)rotate(-35)scale(0.14 -0.14)">
       <use xlink:href="#DejaVuSans-74"/>
       <use x="29.492188" xlink:href="#DejaVuSans-117"/>
       <use x="92.871094" xlink:href="#DejaVuSans-108"/>
      </g>
     </g>
    </g>
    <g id="xtick_6">
     <g id="line2d_6">
      <g>
       <use style="stroke:#000000;stroke-width:0.8;" x="227.444243" xlink:href="#m76e33343c0" y="237.778155"/>
      </g>
     </g>
     <g id="text_6">
      <!-- Aug -->
      <defs>
       <path d="M 45.40625 27.984375 
Q 45.40625 37.75 41.375 43.109375 
Q 37.359375 48.484375 30.078125 48.484375 
Q 22.859375 48.484375 18.828125 43.109375 
Q 14.796875 37.75 14.796875 27.984375 
Q 14.796875 18.265625 18.828125 12.890625 
Q 22.859375 7.515625 30.078125 7.515625 
Q 37.359375 7.515625 41.375 12.890625 
Q 45.40625 18.265625 45.40625 27.984375 
z
M 54.390625 6.78125 
Q 54.390625 -7.171875 48.1875 -13.984375 
Q 42 -20.796875 29.203125 -20.796875 
Q 24.46875 -20.796875 20.265625 -20.09375 
Q 16.0625 -19.390625 12.109375 -17.921875 
L 12.109375 -9.1875 
Q 16.0625 -11.328125 19.921875 -12.34375 
Q 23.78125 -13.375 27.78125 -13.375 
Q 36.625 -13.375 41.015625 -8.765625 
Q 45.40625 -4.15625 45.40625 5.171875 
L 45.40625 9.625 
Q 42.625 4.78125 38.28125 2.390625 
Q 33.9375 0 27.875 0 
Q 17.828125 0 11.671875 7.65625 
Q 5.515625 15.328125 5.515625 27.984375 
Q 5.515625 40.671875 11.671875 48.328125 
Q 17.828125 56 27.875 56 
Q 33.9375 56 38.28125 53.609375 
Q 42.625 51.21875 45.40625 46.390625 
L 45.40625 54.6875 
L 54.390625 54.6875 
z
" id="DejaVuSans-103"/>
      </defs>
      <g transform="translate(218.463384 269.172107)rotate(-35)scale(0.14 -0.14)">
       <use xlink:href="#DejaVuSans-65"/>
       <use x="68.408203" xlink:href="#DejaVuSans-117"/>
       <use x="131.787109" xlink:href="#DejaVuSans-103"/>
      </g>
     </g>
    </g>
    <g id="xtick_7">
     <g id="line2d_7">
      <g>
       <use style="stroke:#000000;stroke-width:0.8;" x="256.880388" xlink:href="#m76e33343c0" y="237.778155"/>
      </g>
     </g>
     <g id="text_7">
      <!-- Sep -->
      <defs>
       <path d="M 53.515625 70.515625 
L 53.515625 60.890625 
Q 47.90625 63.578125 42.921875 64.890625 
Q 37.9375 66.21875 33.296875 66.21875 
Q 25.25 66.21875 20.875 63.09375 
Q 16.5 59.96875 16.5 54.203125 
Q 16.5 49.359375 19.40625 46.890625 
Q 22.3125 44.4375 30.421875 42.921875 
L 36.375 41.703125 
Q 47.40625 39.59375 52.65625 34.296875 
Q 57.90625 29 57.90625 20.125 
Q 57.90625 9.515625 50.796875 4.046875 
Q 43.703125 -1.421875 29.984375 -1.421875 
Q 24.8125 -1.421875 18.96875 -0.25 
Q 13.140625 0.921875 6.890625 3.21875 
L 6.890625 13.375 
Q 12.890625 10.015625 18.65625 8.296875 
Q 24.421875 6.59375 29.984375 6.59375 
Q 38.421875 6.59375 43.015625 9.90625 
Q 47.609375 13.234375 47.609375 19.390625 
Q 47.609375 24.75 44.3125 27.78125 
Q 41.015625 30.8125 33.5 32.328125 
L 27.484375 33.5 
Q 16.453125 35.6875 11.515625 40.375 
Q 6.59375 45.0625 6.59375 53.421875 
Q 6.59375 63.09375 13.40625 68.65625 
Q 20.21875 74.21875 32.171875 74.21875 
Q 37.3125 74.21875 42.625 73.28125 
Q 47.953125 72.359375 53.515625 70.515625 
z
" id="DejaVuSans-83"/>
       <path d="M 56.203125 29.59375 
L 56.203125 25.203125 
L 14.890625 25.203125 
Q 15.484375 15.921875 20.484375 11.0625 
Q 25.484375 6.203125 34.421875 6.203125 
Q 39.59375 6.203125 44.453125 7.46875 
Q 49.3125 8.734375 54.109375 11.28125 
L 54.109375 2.78125 
Q 49.265625 0.734375 44.1875 -0.34375 
Q 39.109375 -1.421875 33.890625 -1.421875 
Q 20.796875 -1.421875 13.15625 6.1875 
Q 5.515625 13.8125 5.515625 26.8125 
Q 5.515625 40.234375 12.765625 48.109375 
Q 20.015625 56 32.328125 56 
Q 43.359375 56 49.78125 48.890625 
Q 56.203125 41.796875 56.203125 29.59375 
z
M 47.21875 32.234375 
Q 47.125 39.59375 43.09375 43.984375 
Q 39.0625 48.390625 32.421875 48.390625 
Q 24.90625 48.390625 20.390625 44.140625 
Q 15.875 39.890625 15.1875 32.171875 
z
" id="DejaVuSans-101"/>
      </defs>
      <g transform="translate(248.287474 268.628823)rotate(-35)scale(0.14 -0.14)">
       <use xlink:href="#DejaVuSans-83"/>
       <use x="63.476562" xlink:href="#DejaVuSans-101"/>
       <use x="125" xlink:href="#DejaVuSans-112"/>
      </g>
     </g>
    </g>
    <g id="xtick_8">
     <g id="line2d_8">
      <g>
       <use style="stroke:#000000;stroke-width:0.8;" x="285.36698" xlink:href="#m76e33343c0" y="237.778155"/>
      </g>
     </g>
     <g id="text_8">
      <!-- Oct -->
      <defs>
       <path d="M 39.40625 66.21875 
Q 28.65625 66.21875 22.328125 58.203125 
Q 16.015625 50.203125 16.015625 36.375 
Q 16.015625 22.609375 22.328125 14.59375 
Q 28.65625 6.59375 39.40625 6.59375 
Q 50.140625 6.59375 56.421875 14.59375 
Q 62.703125 22.609375 62.703125 36.375 
Q 62.703125 50.203125 56.421875 58.203125 
Q 50.140625 66.21875 39.40625 66.21875 
z
M 39.40625 74.21875 
Q 54.734375 74.21875 63.90625 63.9375 
Q 73.09375 53.65625 73.09375 36.375 
Q 73.09375 19.140625 63.90625 8.859375 
Q 54.734375 -1.421875 39.40625 -1.421875 
Q 24.03125 -1.421875 14.8125 8.828125 
Q 5.609375 19.09375 5.609375 36.375 
Q 5.609375 53.65625 14.8125 63.9375 
Q 24.03125 74.21875 39.40625 74.21875 
z
" id="DejaVuSans-79"/>
       <path d="M 48.78125 52.59375 
L 48.78125 44.1875 
Q 44.96875 46.296875 41.140625 47.34375 
Q 37.3125 48.390625 33.40625 48.390625 
Q 24.65625 48.390625 19.8125 42.84375 
Q 14.984375 37.3125 14.984375 27.296875 
Q 14.984375 17.28125 19.8125 11.734375 
Q 24.65625 6.203125 33.40625 6.203125 
Q 37.3125 6.203125 41.140625 7.25 
Q 44.96875 8.296875 48.78125 10.40625 
L 48.78125 2.09375 
Q 45.015625 0.34375 40.984375 -0.53125 
Q 36.96875 -1.421875 32.421875 -1.421875 
Q 20.0625 -1.421875 12.78125 6.34375 
Q 5.515625 14.109375 5.515625 27.296875 
Q 5.515625 40.671875 12.859375 48.328125 
Q 20.21875 56 33.015625 56 
Q 37.15625 56 41.109375 55.140625 
Q 45.0625 54.296875 48.78125 52.59375 
z
" id="DejaVuSans-99"/>
       <path d="M 18.3125 70.21875 
L 18.3125 54.6875 
L 36.8125 54.6875 
L 36.8125 47.703125 
L 18.3125 47.703125 
L 18.3125 18.015625 
Q 18.3125 11.328125 20.140625 9.421875 
Q 21.96875 7.515625 27.59375 7.515625 
L 36.8125 7.515625 
L 36.8125 0 
L 27.59375 0 
Q 17.1875 0 13.234375 3.875 
Q 9.28125 7.765625 9.28125 18.015625 
L 9.28125 47.703125 
L 2.6875 47.703125 
L 2.6875 54.6875 
L 9.28125 54.6875 
L 9.28125 70.21875 
z
" id="DejaVuSans-116"/>
      </defs>
      <g transform="translate(277.668222 267.376634)rotate(-35)scale(0.14 -0.14)">
       <use xlink:href="#DejaVuSans-79"/>
       <use x="78.710938" xlink:href="#DejaVuSans-99"/>
       <use x="133.691406" xlink:href="#DejaVuSans-116"/>
      </g>
     </g>
    </g>
    <g id="xtick_9">
     <g id="line2d_9">
      <g>
       <use style="stroke:#000000;stroke-width:0.8;" x="314.803125" xlink:href="#m76e33343c0" y="237.778155"/>
      </g>
     </g>
     <g id="text_9">
      <!-- Nov -->
      <defs>
       <path d="M 9.8125 72.90625 
L 23.09375 72.90625 
L 55.421875 11.921875 
L 55.421875 72.90625 
L 64.984375 72.90625 
L 64.984375 0 
L 51.703125 0 
L 19.390625 60.984375 
L 19.390625 0 
L 9.8125 0 
z
" id="DejaVuSans-78"/>
       <path d="M 30.609375 48.390625 
Q 23.390625 48.390625 19.1875 42.75 
Q 14.984375 37.109375 14.984375 27.296875 
Q 14.984375 17.484375 19.15625 11.84375 
Q 23.34375 6.203125 30.609375 6.203125 
Q 37.796875 6.203125 41.984375 11.859375 
Q 46.1875 17.53125 46.1875 27.296875 
Q 46.1875 37.015625 41.984375 42.703125 
Q 37.796875 48.390625 30.609375 48.390625 
z
M 30.609375 56 
Q 42.328125 56 49.015625 48.375 
Q 55.71875 40.765625 55.71875 27.296875 
Q 55.71875 13.875 49.015625 6.21875 
Q 42.328125 -1.421875 30.609375 -1.421875 
Q 18.84375 -1.421875 12.171875 6.21875 
Q 5.515625 13.875 5.515625 27.296875 
Q 5.515625 40.765625 12.171875 48.375 
Q 18.84375 56 30.609375 56 
z
" id="DejaVuSans-111"/>
       <path d="M 2.984375 54.6875 
L 12.5 54.6875 
L 29.59375 8.796875 
L 46.6875 54.6875 
L 56.203125 54.6875 
L 35.6875 0 
L 23.484375 0 
z
" id="DejaVuSans-118"/>
      </defs>
      <g transform="translate(305.826745 269.165834)rotate(-35)scale(0.14 -0.14)">
       <use xlink:href="#DejaVuSans-78"/>
       <use x="74.804688" xlink:href="#DejaVuSans-111"/>
       <use x="135.986328" xlink:href="#DejaVuSans-118"/>
      </g>
     </g>
    </g>
    <g id="xtick_10">
     <g id="line2d_10">
      <g>
       <use style="stroke:#000000;stroke-width:0.8;" x="343.289716" xlink:href="#m76e33343c0" y="237.778155"/>
      </g>
     </g>
     <g id="text_10">
      <!-- Dec -->
      <defs>
       <path d="M 19.671875 64.796875 
L 19.671875 8.109375 
L 31.59375 8.109375 
Q 46.6875 8.109375 53.6875 14.9375 
Q 60.6875 21.78125 60.6875 36.53125 
Q 60.6875 51.171875 53.6875 57.984375 
Q 46.6875 64.796875 31.59375 64.796875 
z
M 9.8125 72.90625 
L 30.078125 72.90625 
Q 51.265625 72.90625 61.171875 64.09375 
Q 71.09375 55.28125 71.09375 36.53125 
Q 71.09375 17.671875 61.125 8.828125 
Q 51.171875 0 30.078125 0 
L 9.8125 0 
z
" id="DejaVuSans-68"/>
      </defs>
      <g transform="translate(334.409203 269.031581)rotate(-35)scale(0.14 -0.14)">
       <use xlink:href="#DejaVuSans-68"/>
       <use x="77.001953" xlink:href="#DejaVuSans-101"/>
       <use x="138.525391" xlink:href="#DejaVuSans-99"/>
      </g>
     </g>
    </g>
    <g id="xtick_11">
     <g id="line2d_11">
      <g>
       <use style="stroke:#000000;stroke-width:0.8;" x="372.725861" xlink:href="#m76e33343c0" y="237.778155"/>
      </g>
     </g>
     <g id="text_11">
      <!-- Jan -->
      <g transform="translate(366.10224 265.870996)rotate(-35)scale(0.14 -0.14)">
       <use xlink:href="#DejaVuSans-74"/>
       <use x="29.492188" xlink:href="#DejaVuSans-97"/>
       <use x="90.771484" xlink:href="#DejaVuSans-110"/>
      </g>
     </g>
    </g>
    <g id="xtick_12">
     <g id="line2d_12">
      <g>
       <use style="stroke:#000000;stroke-width:0.8;" x="402.162006" xlink:href="#m76e33343c0" y="237.778155"/>
      </g>
     </g>
     <g id="text_12">
      <!-- Feb -->
      <defs>
       <path d="M 9.8125 72.90625 
L 51.703125 72.90625 
L 51.703125 64.59375 
L 19.671875 64.59375 
L 19.671875 43.109375 
L 48.578125 43.109375 
L 48.578125 34.8125 
L 19.671875 34.8125 
L 19.671875 0 
L 9.8125 0 
z
" id="DejaVuSans-70"/>
       <path d="M 48.6875 27.296875 
Q 48.6875 37.203125 44.609375 42.84375 
Q 40.53125 48.484375 33.40625 48.484375 
Q 26.265625 48.484375 22.1875 42.84375 
Q 18.109375 37.203125 18.109375 27.296875 
Q 18.109375 17.390625 22.1875 11.75 
Q 26.265625 6.109375 33.40625 6.109375 
Q 40.53125 6.109375 44.609375 11.75 
Q 48.6875 17.390625 48.6875 27.296875 
z
M 18.109375 46.390625 
Q 20.953125 51.265625 25.265625 53.625 
Q 29.59375 56 35.59375 56 
Q 45.5625 56 51.78125 48.09375 
Q 58.015625 40.1875 58.015625 27.296875 
Q 58.015625 14.40625 51.78125 6.484375 
Q 45.5625 -1.421875 35.59375 -1.421875 
Q 29.59375 -1.421875 25.265625 0.953125 
Q 20.953125 3.328125 18.109375 8.203125 
L 18.109375 0 
L 9.078125 0 
L 9.078125 75.984375 
L 18.109375 75.984375 
z
" id="DejaVuSans-98"/>
      </defs>
      <g transform="translate(393.915824 268.143254)rotate(-35)scale(0.14 -0.14)">
       <use xlink:href="#DejaVuSans-70"/>
       <use x="57.441406" xlink:href="#DejaVuSans-101"/>
       <use x="118.964844" xlink:href="#DejaVuSans-98"/>
      </g>
     </g>
    </g>
   </g>
   <g id="matplotlib.axis_2">
    <g id="ytick_1">
     <g id="line2d_13">
      <defs>
       <path d="M 0 0 
L -3.5 0 
" id="m82ab92ee8e" style="stroke:#000000;stroke-width:0.8;"/>
      </defs>
      <g>
       <use style="stroke:#000000;stroke-width:0.8;" x="66.495" xlink:href="#m82ab92ee8e" y="227.65733"/>
      </g>
     </g>
     <g id="text_13">
      <!-- 0 -->
      <defs>
       <path d="M 31.78125 66.40625 
Q 24.171875 66.40625 20.328125 58.90625 
Q 16.5 51.421875 16.5 36.375 
Q 16.5 21.390625 20.328125 13.890625 
Q 24.171875 6.390625 31.78125 6.390625 
Q 39.453125 6.390625 43.28125 13.890625 
Q 47.125 21.390625 47.125 36.375 
Q 47.125 51.421875 43.28125 58.90625 
Q 39.453125 66.40625 31.78125 66.40625 
z
M 31.78125 74.21875 
Q 44.046875 74.21875 50.515625 64.515625 
Q 56.984375 54.828125 56.984375 36.375 
Q 56.984375 17.96875 50.515625 8.265625 
Q 44.046875 -1.421875 31.78125 -1.421875 
Q 19.53125 -1.421875 13.0625 8.265625 
Q 6.59375 17.96875 6.59375 36.375 
Q 6.59375 54.828125 13.0625 64.515625 
Q 19.53125 74.21875 31.78125 74.21875 
z
" id="DejaVuSans-48"/>
      </defs>
      <g transform="translate(50.5875 232.976236)scale(0.14 -0.14)">
       <use xlink:href="#DejaVuSans-48"/>
      </g>
     </g>
    </g>
    <g id="ytick_2">
     <g id="line2d_14">
      <g>
       <use style="stroke:#000000;stroke-width:0.8;" x="66.495" xlink:href="#m82ab92ee8e" y="182.675884"/>
      </g>
     </g>
     <g id="text_14">
      <!-- 200 -->
      <defs>
       <path d="M 19.1875 8.296875 
L 53.609375 8.296875 
L 53.609375 0 
L 7.328125 0 
L 7.328125 8.296875 
Q 12.9375 14.109375 22.625 23.890625 
Q 32.328125 33.6875 34.8125 36.53125 
Q 39.546875 41.84375 41.421875 45.53125 
Q 43.3125 49.21875 43.3125 52.78125 
Q 43.3125 58.59375 39.234375 62.25 
Q 35.15625 65.921875 28.609375 65.921875 
Q 23.96875 65.921875 18.8125 64.3125 
Q 13.671875 62.703125 7.8125 59.421875 
L 7.8125 69.390625 
Q 13.765625 71.78125 18.9375 73 
Q 24.125 74.21875 28.421875 74.21875 
Q 39.75 74.21875 46.484375 68.546875 
Q 53.21875 62.890625 53.21875 53.421875 
Q 53.21875 48.921875 51.53125 44.890625 
Q 49.859375 40.875 45.40625 35.40625 
Q 44.1875 33.984375 37.640625 27.21875 
Q 31.109375 20.453125 19.1875 8.296875 
z
" id="DejaVuSans-50"/>
      </defs>
      <g transform="translate(32.7725 187.99479)scale(0.14 -0.14)">
       <use xlink:href="#DejaVuSans-50"/>
       <use x="63.623047" xlink:href="#DejaVuSans-48"/>
       <use x="127.246094" xlink:href="#DejaVuSans-48"/>
      </g>
     </g>
    </g>
    <g id="ytick_3">
     <g id="line2d_15">
      <g>
       <use style="stroke:#000000;stroke-width:0.8;" x="66.495" xlink:href="#m82ab92ee8e" y="137.694439"/>
      </g>
     </g>
     <g id="text_15">
      <!-- 400 -->
      <defs>
       <path d="M 37.796875 64.3125 
L 12.890625 25.390625 
L 37.796875 25.390625 
z
M 35.203125 72.90625 
L 47.609375 72.90625 
L 47.609375 25.390625 
L 58.015625 25.390625 
L 58.015625 17.1875 
L 47.609375 17.1875 
L 47.609375 0 
L 37.796875 0 
L 37.796875 17.1875 
L 4.890625 17.1875 
L 4.890625 26.703125 
z
" id="DejaVuSans-52"/>
      </defs>
      <g transform="translate(32.7725 143.013345)scale(0.14 -0.14)">
       <use xlink:href="#DejaVuSans-52"/>
       <use x="63.623047" xlink:href="#DejaVuSans-48"/>
       <use x="127.246094" xlink:href="#DejaVuSans-48"/>
      </g>
     </g>
    </g>
    <g id="ytick_4">
     <g id="line2d_16">
      <g>
       <use style="stroke:#000000;stroke-width:0.8;" x="66.495" xlink:href="#m82ab92ee8e" y="92.712993"/>
      </g>
     </g>
     <g id="text_16">
      <!-- 600 -->
      <defs>
       <path d="M 33.015625 40.375 
Q 26.375 40.375 22.484375 35.828125 
Q 18.609375 31.296875 18.609375 23.390625 
Q 18.609375 15.53125 22.484375 10.953125 
Q 26.375 6.390625 33.015625 6.390625 
Q 39.65625 6.390625 43.53125 10.953125 
Q 47.40625 15.53125 47.40625 23.390625 
Q 47.40625 31.296875 43.53125 35.828125 
Q 39.65625 40.375 33.015625 40.375 
z
M 52.59375 71.296875 
L 52.59375 62.3125 
Q 48.875 64.0625 45.09375 64.984375 
Q 41.3125 65.921875 37.59375 65.921875 
Q 27.828125 65.921875 22.671875 59.328125 
Q 17.53125 52.734375 16.796875 39.40625 
Q 19.671875 43.65625 24.015625 45.921875 
Q 28.375 48.1875 33.59375 48.1875 
Q 44.578125 48.1875 50.953125 41.515625 
Q 57.328125 34.859375 57.328125 23.390625 
Q 57.328125 12.15625 50.6875 5.359375 
Q 44.046875 -1.421875 33.015625 -1.421875 
Q 20.359375 -1.421875 13.671875 8.265625 
Q 6.984375 17.96875 6.984375 36.375 
Q 6.984375 53.65625 15.1875 63.9375 
Q 23.390625 74.21875 37.203125 74.21875 
Q 40.921875 74.21875 44.703125 73.484375 
Q 48.484375 72.75 52.59375 71.296875 
z
" id="DejaVuSans-54"/>
      </defs>
      <g transform="translate(32.7725 98.0319)scale(0.14 -0.14)">
       <use xlink:href="#DejaVuSans-54"/>
       <use x="63.623047" xlink:href="#DejaVuSans-48"/>
       <use x="127.246094" xlink:href="#DejaVuSans-48"/>
      </g>
     </g>
    </g>
    <g id="ytick_5">
     <g id="line2d_17">
      <g>
       <use style="stroke:#000000;stroke-width:0.8;" x="66.495" xlink:href="#m82ab92ee8e" y="47.731548"/>
      </g>
     </g>
     <g id="text_17">
      <!-- 800 -->
      <defs>
       <path d="M 31.78125 34.625 
Q 24.75 34.625 20.71875 30.859375 
Q 16.703125 27.09375 16.703125 20.515625 
Q 16.703125 13.921875 20.71875 10.15625 
Q 24.75 6.390625 31.78125 6.390625 
Q 38.8125 6.390625 42.859375 10.171875 
Q 46.921875 13.96875 46.921875 20.515625 
Q 46.921875 27.09375 42.890625 30.859375 
Q 38.875 34.625 31.78125 34.625 
z
M 21.921875 38.8125 
Q 15.578125 40.375 12.03125 44.71875 
Q 8.5 49.078125 8.5 55.328125 
Q 8.5 64.0625 14.71875 69.140625 
Q 20.953125 74.21875 31.78125 74.21875 
Q 42.671875 74.21875 48.875 69.140625 
Q 55.078125 64.0625 55.078125 55.328125 
Q 55.078125 49.078125 51.53125 44.71875 
Q 48 40.375 41.703125 38.8125 
Q 48.828125 37.15625 52.796875 32.3125 
Q 56.78125 27.484375 56.78125 20.515625 
Q 56.78125 9.90625 50.3125 4.234375 
Q 43.84375 -1.421875 31.78125 -1.421875 
Q 19.734375 -1.421875 13.25 4.234375 
Q 6.78125 9.90625 6.78125 20.515625 
Q 6.78125 27.484375 10.78125 32.3125 
Q 14.796875 37.15625 21.921875 38.8125 
z
M 18.3125 54.390625 
Q 18.3125 48.734375 21.84375 45.5625 
Q 25.390625 42.390625 31.78125 42.390625 
Q 38.140625 42.390625 41.71875 45.5625 
Q 45.3125 48.734375 45.3125 54.390625 
Q 45.3125 60.0625 41.71875 63.234375 
Q 38.140625 66.40625 31.78125 66.40625 
Q 25.390625 66.40625 21.84375 63.234375 
Q 18.3125 60.0625 18.3125 54.390625 
z
" id="DejaVuSans-56"/>
      </defs>
      <g transform="translate(32.7725 53.050454)scale(0.14 -0.14)">
       <use xlink:href="#DejaVuSans-56"/>
       <use x="63.623047" xlink:href="#DejaVuSans-48"/>
       <use x="127.246094" xlink:href="#DejaVuSans-48"/>
      </g>
     </g>
    </g>
    <g id="text_18">
     <!-- Daily Covid-19 Deaths -->
     <defs>
      <path d="M 9.421875 54.6875 
L 18.40625 54.6875 
L 18.40625 0 
L 9.421875 0 
z
M 9.421875 75.984375 
L 18.40625 75.984375 
L 18.40625 64.59375 
L 9.421875 64.59375 
z
" id="DejaVuSans-105"/>
      <path id="DejaVuSans-32"/>
      <path d="M 64.40625 67.28125 
L 64.40625 56.890625 
Q 59.421875 61.53125 53.78125 63.8125 
Q 48.140625 66.109375 41.796875 66.109375 
Q 29.296875 66.109375 22.65625 58.46875 
Q 16.015625 50.828125 16.015625 36.375 
Q 16.015625 21.96875 22.65625 14.328125 
Q 29.296875 6.6875 41.796875 6.6875 
Q 48.140625 6.6875 53.78125 8.984375 
Q 59.421875 11.28125 64.40625 15.921875 
L 64.40625 5.609375 
Q 59.234375 2.09375 53.4375 0.328125 
Q 47.65625 -1.421875 41.21875 -1.421875 
Q 24.65625 -1.421875 15.125 8.703125 
Q 5.609375 18.84375 5.609375 36.375 
Q 5.609375 53.953125 15.125 64.078125 
Q 24.65625 74.21875 41.21875 74.21875 
Q 47.75 74.21875 53.53125 72.484375 
Q 59.328125 70.75 64.40625 67.28125 
z
" id="DejaVuSans-67"/>
      <path d="M 45.40625 46.390625 
L 45.40625 75.984375 
L 54.390625 75.984375 
L 54.390625 0 
L 45.40625 0 
L 45.40625 8.203125 
Q 42.578125 3.328125 38.25 0.953125 
Q 33.9375 -1.421875 27.875 -1.421875 
Q 17.96875 -1.421875 11.734375 6.484375 
Q 5.515625 14.40625 5.515625 27.296875 
Q 5.515625 40.1875 11.734375 48.09375 
Q 17.96875 56 27.875 56 
Q 33.9375 56 38.25 53.625 
Q 42.578125 51.265625 45.40625 46.390625 
z
M 14.796875 27.296875 
Q 14.796875 17.390625 18.875 11.75 
Q 22.953125 6.109375 30.078125 6.109375 
Q 37.203125 6.109375 41.296875 11.75 
Q 45.40625 17.390625 45.40625 27.296875 
Q 45.40625 37.203125 41.296875 42.84375 
Q 37.203125 48.484375 30.078125 48.484375 
Q 22.953125 48.484375 18.875 42.84375 
Q 14.796875 37.203125 14.796875 27.296875 
z
" id="DejaVuSans-100"/>
      <path d="M 4.890625 31.390625 
L 31.203125 31.390625 
L 31.203125 23.390625 
L 4.890625 23.390625 
z
" id="DejaVuSans-45"/>
      <path d="M 12.40625 8.296875 
L 28.515625 8.296875 
L 28.515625 63.921875 
L 10.984375 60.40625 
L 10.984375 69.390625 
L 28.421875 72.90625 
L 38.28125 72.90625 
L 38.28125 8.296875 
L 54.390625 8.296875 
L 54.390625 0 
L 12.40625 0 
z
" id="DejaVuSans-49"/>
      <path d="M 10.984375 1.515625 
L 10.984375 10.5 
Q 14.703125 8.734375 18.5 7.8125 
Q 22.3125 6.890625 25.984375 6.890625 
Q 35.75 6.890625 40.890625 13.453125 
Q 46.046875 20.015625 46.78125 33.40625 
Q 43.953125 29.203125 39.59375 26.953125 
Q 35.25 24.703125 29.984375 24.703125 
Q 19.046875 24.703125 12.671875 31.3125 
Q 6.296875 37.9375 6.296875 49.421875 
Q 6.296875 60.640625 12.9375 67.421875 
Q 19.578125 74.21875 30.609375 74.21875 
Q 43.265625 74.21875 49.921875 64.515625 
Q 56.59375 54.828125 56.59375 36.375 
Q 56.59375 19.140625 48.40625 8.859375 
Q 40.234375 -1.421875 26.421875 -1.421875 
Q 22.703125 -1.421875 18.890625 -0.6875 
Q 15.09375 0.046875 10.984375 1.515625 
z
M 30.609375 32.421875 
Q 37.25 32.421875 41.125 36.953125 
Q 45.015625 41.5 45.015625 49.421875 
Q 45.015625 57.28125 41.125 61.84375 
Q 37.25 66.40625 30.609375 66.40625 
Q 23.96875 66.40625 20.09375 61.84375 
Q 16.21875 57.28125 16.21875 49.421875 
Q 16.21875 41.5 20.09375 36.953125 
Q 23.96875 32.421875 30.609375 32.421875 
z
" id="DejaVuSans-57"/>
      <path d="M 54.890625 33.015625 
L 54.890625 0 
L 45.90625 0 
L 45.90625 32.71875 
Q 45.90625 40.484375 42.875 44.328125 
Q 39.84375 48.1875 33.796875 48.1875 
Q 26.515625 48.1875 22.3125 43.546875 
Q 18.109375 38.921875 18.109375 30.90625 
L 18.109375 0 
L 9.078125 0 
L 9.078125 75.984375 
L 18.109375 75.984375 
L 18.109375 46.1875 
Q 21.34375 51.125 25.703125 53.5625 
Q 30.078125 56 35.796875 56 
Q 45.21875 56 50.046875 50.171875 
Q 54.890625 44.34375 54.890625 33.015625 
z
" id="DejaVuSans-104"/>
      <path d="M 44.28125 53.078125 
L 44.28125 44.578125 
Q 40.484375 46.53125 36.375 47.5 
Q 32.28125 48.484375 27.875 48.484375 
Q 21.1875 48.484375 17.84375 46.4375 
Q 14.5 44.390625 14.5 40.28125 
Q 14.5 37.15625 16.890625 35.375 
Q 19.28125 33.59375 26.515625 31.984375 
L 29.59375 31.296875 
Q 39.15625 29.25 43.1875 25.515625 
Q 47.21875 21.78125 47.21875 15.09375 
Q 47.21875 7.46875 41.1875 3.015625 
Q 35.15625 -1.421875 24.609375 -1.421875 
Q 20.21875 -1.421875 15.453125 -0.5625 
Q 10.6875 0.296875 5.421875 2 
L 5.421875 11.28125 
Q 10.40625 8.6875 15.234375 7.390625 
Q 20.0625 6.109375 24.8125 6.109375 
Q 31.15625 6.109375 34.5625 8.28125 
Q 37.984375 10.453125 37.984375 14.40625 
Q 37.984375 18.0625 35.515625 20.015625 
Q 33.0625 21.96875 24.703125 23.78125 
L 21.578125 24.515625 
Q 13.234375 26.265625 9.515625 29.90625 
Q 5.8125 33.546875 5.8125 39.890625 
Q 5.8125 47.609375 11.28125 51.796875 
Q 16.75 56 26.8125 56 
Q 31.78125 56 36.171875 55.265625 
Q 40.578125 54.546875 44.28125 53.078125 
z
" id="DejaVuSans-115"/>
     </defs>
     <g transform="translate(25.860937 204.560327)rotate(-90)scale(0.14 -0.14)">
      <use xlink:href="#DejaVuSans-68"/>
      <use x="77.001953" xlink:href="#DejaVuSans-97"/>
      <use x="138.28125" xlink:href="#DejaVuSans-105"/>
      <use x="166.064453" xlink:href="#DejaVuSans-108"/>
      <use x="193.847656" xlink:href="#DejaVuSans-121"/>
      <use x="253.027344" xlink:href="#DejaVuSans-32"/>
      <use x="284.814453" xlink:href="#DejaVuSans-67"/>
      <use x="354.638672" xlink:href="#DejaVuSans-111"/>
      <use x="415.820312" xlink:href="#DejaVuSans-118"/>
      <use x="475" xlink:href="#DejaVuSans-105"/>
      <use x="502.783203" xlink:href="#DejaVuSans-100"/>
      <use x="566.259766" xlink:href="#DejaVuSans-45"/>
      <use x="602.34375" xlink:href="#DejaVuSans-49"/>
      <use x="665.966797" xlink:href="#DejaVuSans-57"/>
      <use x="729.589844" xlink:href="#DejaVuSans-32"/>
      <use x="761.376953" xlink:href="#DejaVuSans-68"/>
      <use x="838.378906" xlink:href="#DejaVuSans-101"/>
      <use x="899.902344" xlink:href="#DejaVuSans-97"/>
      <use x="961.181641" xlink:href="#DejaVuSans-116"/>
      <use x="1000.390625" xlink:href="#DejaVuSans-104"/>
      <use x="1063.769531" xlink:href="#DejaVuSans-115"/>
     </g>
    </g>
   </g>
   <g id="line2d_18">
    <defs>
     <path d="M 0 2.5 
C 0.663008 2.5 1.29895 2.236584 1.767767 1.767767 
C 2.236584 1.29895 2.5 0.663008 2.5 0 
C 2.5 -0.663008 2.236584 -1.29895 1.767767 -1.767767 
C 1.29895 -2.236584 0.663008 -2.5 0 -2.5 
C -0.663008 -2.5 -1.29895 -2.236584 -1.767767 -1.767767 
C -2.236584 -1.29895 -2.5 -0.663008 -2.5 0 
C -2.5 0.663008 -2.236584 1.29895 -1.767767 1.767767 
C -1.29895 2.236584 -0.663008 2.5 0 2.5 
z
" id="mcf039d6687" style="stroke:#0000ff;stroke-opacity:0.2;"/>
    </defs>
    <g clip-path="url(#pec230ad826)">
     <use style="fill:#0000ff;fill-opacity:0.2;stroke:#0000ff;stroke-opacity:0.2;" x="82.162625" xlink:href="#mcf039d6687" y="227.65733"/>
     <use style="fill:#0000ff;fill-opacity:0.2;stroke:#0000ff;stroke-opacity:0.2;" x="83.112179" xlink:href="#mcf039d6687" y="227.432422"/>
     <use style="fill:#0000ff;fill-opacity:0.2;stroke:#0000ff;stroke-opacity:0.2;" x="84.061732" xlink:href="#mcf039d6687" y="227.207515"/>
     <use style="fill:#0000ff;fill-opacity:0.2;stroke:#0000ff;stroke-opacity:0.2;" x="85.011285" xlink:href="#mcf039d6687" y="227.65733"/>
     <use style="fill:#0000ff;fill-opacity:0.2;stroke:#0000ff;stroke-opacity:0.2;" x="85.960838" xlink:href="#mcf039d6687" y="227.207515"/>
     <use style="fill:#0000ff;fill-opacity:0.2;stroke:#0000ff;stroke-opacity:0.2;" x="86.910391" xlink:href="#mcf039d6687" y="227.207515"/>
     <use style="fill:#0000ff;fill-opacity:0.2;stroke:#0000ff;stroke-opacity:0.2;" x="87.859944" xlink:href="#mcf039d6687" y="227.65733"/>
     <use style="fill:#0000ff;fill-opacity:0.2;stroke:#0000ff;stroke-opacity:0.2;" x="88.809497" xlink:href="#mcf039d6687" y="226.757701"/>
     <use style="fill:#0000ff;fill-opacity:0.2;stroke:#0000ff;stroke-opacity:0.2;" x="89.75905" xlink:href="#mcf039d6687" y="226.757701"/>
     <use style="fill:#0000ff;fill-opacity:0.2;stroke:#0000ff;stroke-opacity:0.2;" x="90.708603" xlink:href="#mcf039d6687" y="227.432422"/>
     <use style="fill:#0000ff;fill-opacity:0.2;stroke:#0000ff;stroke-opacity:0.2;" x="91.658156" xlink:href="#mcf039d6687" y="225.633164"/>
     <use style="fill:#0000ff;fill-opacity:0.2;stroke:#0000ff;stroke-opacity:0.2;" x="92.607709" xlink:href="#mcf039d6687" y="224.508628"/>
     <use style="fill:#0000ff;fill-opacity:0.2;stroke:#0000ff;stroke-opacity:0.2;" x="93.557262" xlink:href="#mcf039d6687" y="223.159185"/>
     <use style="fill:#0000ff;fill-opacity:0.2;stroke:#0000ff;stroke-opacity:0.2;" x="94.506815" xlink:href="#mcf039d6687" y="222.709371"/>
     <use style="fill:#0000ff;fill-opacity:0.2;stroke:#0000ff;stroke-opacity:0.2;" x="95.456368" xlink:href="#mcf039d6687" y="221.584834"/>
     <use style="fill:#0000ff;fill-opacity:0.2;stroke:#0000ff;stroke-opacity:0.2;" x="96.405921" xlink:href="#mcf039d6687" y="218.66104"/>
     <use style="fill:#0000ff;fill-opacity:0.2;stroke:#0000ff;stroke-opacity:0.2;" x="97.355474" xlink:href="#mcf039d6687" y="217.311597"/>
     <use style="fill:#0000ff;fill-opacity:0.2;stroke:#0000ff;stroke-opacity:0.2;" x="98.305027" xlink:href="#mcf039d6687" y="212.813453"/>
     <use style="fill:#0000ff;fill-opacity:0.2;stroke:#0000ff;stroke-opacity:0.2;" x="99.25458" xlink:href="#mcf039d6687" y="213.488174"/>
     <use style="fill:#0000ff;fill-opacity:0.2;stroke:#0000ff;stroke-opacity:0.2;" x="100.204134" xlink:href="#mcf039d6687" y="204.042071"/>
     <use style="fill:#0000ff;fill-opacity:0.2;stroke:#0000ff;stroke-opacity:0.2;" x="101.153687" xlink:href="#mcf039d6687" y="204.491885"/>
     <use style="fill:#0000ff;fill-opacity:0.2;stroke:#0000ff;stroke-opacity:0.2;" x="102.10324" xlink:href="#mcf039d6687" y="194.146153"/>
     <use style="fill:#0000ff;fill-opacity:0.2;stroke:#0000ff;stroke-opacity:0.2;" x="103.052793" xlink:href="#mcf039d6687" y="191.89708"/>
     <use style="fill:#0000ff;fill-opacity:0.2;stroke:#0000ff;stroke-opacity:0.2;" x="104.002346" xlink:href="#mcf039d6687" y="181.776255"/>
     <use style="fill:#0000ff;fill-opacity:0.2;stroke:#0000ff;stroke-opacity:0.2;" x="104.951899" xlink:href="#mcf039d6687" y="168.506729"/>
     <use style="fill:#0000ff;fill-opacity:0.2;stroke:#0000ff;stroke-opacity:0.2;" x="105.901452" xlink:href="#mcf039d6687" y="154.337574"/>
     <use style="fill:#0000ff;fill-opacity:0.2;stroke:#0000ff;stroke-opacity:0.2;" x="106.851005" xlink:href="#mcf039d6687" y="148.265078"/>
     <use style="fill:#0000ff;fill-opacity:0.2;stroke:#0000ff;stroke-opacity:0.2;" x="107.800558" xlink:href="#mcf039d6687" y="146.690728"/>
     <use style="fill:#0000ff;fill-opacity:0.2;stroke:#0000ff;stroke-opacity:0.2;" x="108.750111" xlink:href="#mcf039d6687" y="129.372871"/>
     <use style="fill:#0000ff;fill-opacity:0.2;stroke:#0000ff;stroke-opacity:0.2;" x="109.699664" xlink:href="#mcf039d6687" y="115.65353"/>
     <use style="fill:#0000ff;fill-opacity:0.2;stroke:#0000ff;stroke-opacity:0.2;" x="110.649217" xlink:href="#mcf039d6687" y="98.110767"/>
     <use style="fill:#0000ff;fill-opacity:0.2;stroke:#0000ff;stroke-opacity:0.2;" x="111.59877" xlink:href="#mcf039d6687" y="82.817075"/>
     <use style="fill:#0000ff;fill-opacity:0.2;stroke:#0000ff;stroke-opacity:0.2;" x="112.548323" xlink:href="#mcf039d6687" y="82.142354"/>
     <use style="fill:#0000ff;fill-opacity:0.2;stroke:#0000ff;stroke-opacity:0.2;" x="113.497876" xlink:href="#mcf039d6687" y="70.222271"/>
     <use style="fill:#0000ff;fill-opacity:0.2;stroke:#0000ff;stroke-opacity:0.2;" x="114.447429" xlink:href="#mcf039d6687" y="52.679507"/>
     <use style="fill:#0000ff;fill-opacity:0.2;stroke:#0000ff;stroke-opacity:0.2;" x="115.396982" xlink:href="#mcf039d6687" y="60.55126"/>
     <use style="fill:#0000ff;fill-opacity:0.2;stroke:#0000ff;stroke-opacity:0.2;" x="116.346536" xlink:href="#mcf039d6687" y="64.149775"/>
     <use style="fill:#0000ff;fill-opacity:0.2;stroke:#0000ff;stroke-opacity:0.2;" x="117.296089" xlink:href="#mcf039d6687" y="44.807754"/>
     <use style="fill:#0000ff;fill-opacity:0.2;stroke:#0000ff;stroke-opacity:0.2;" x="118.245642" xlink:href="#mcf039d6687" y="25.240825"/>
     <use style="fill:#0000ff;fill-opacity:0.2;stroke:#0000ff;stroke-opacity:0.2;" x="119.195195" xlink:href="#mcf039d6687" y="49.530806"/>
     <use style="fill:#0000ff;fill-opacity:0.2;stroke:#0000ff;stroke-opacity:0.2;" x="120.144748" xlink:href="#mcf039d6687" y="61.225982"/>
     <use style="fill:#0000ff;fill-opacity:0.2;stroke:#0000ff;stroke-opacity:0.2;" x="121.094301" xlink:href="#mcf039d6687" y="52.4546"/>
     <use style="fill:#0000ff;fill-opacity:0.2;stroke:#0000ff;stroke-opacity:0.2;" x="122.043854" xlink:href="#mcf039d6687" y="66.173941"/>
     <use style="fill:#0000ff;fill-opacity:0.2;stroke:#0000ff;stroke-opacity:0.2;" x="122.993407" xlink:href="#mcf039d6687" y="70.447178"/>
     <use style="fill:#0000ff;fill-opacity:0.2;stroke:#0000ff;stroke-opacity:0.2;" x="123.94296" xlink:href="#mcf039d6687" y="82.367261"/>
     <use style="fill:#0000ff;fill-opacity:0.2;stroke:#0000ff;stroke-opacity:0.2;" x="124.892513" xlink:href="#mcf039d6687" y="73.370972"/>
     <use style="fill:#0000ff;fill-opacity:0.2;stroke:#0000ff;stroke-opacity:0.2;" x="125.842066" xlink:href="#mcf039d6687" y="83.941611"/>
     <use style="fill:#0000ff;fill-opacity:0.2;stroke:#0000ff;stroke-opacity:0.2;" x="126.791619" xlink:href="#mcf039d6687" y="90.463921"/>
     <use style="fill:#0000ff;fill-opacity:0.2;stroke:#0000ff;stroke-opacity:0.2;" x="127.741172" xlink:href="#mcf039d6687" y="99.46021"/>
     <use style="fill:#0000ff;fill-opacity:0.2;stroke:#0000ff;stroke-opacity:0.2;" x="128.690725" xlink:href="#mcf039d6687" y="110.03085"/>
     <use style="fill:#0000ff;fill-opacity:0.2;stroke:#0000ff;stroke-opacity:0.2;" x="129.640278" xlink:href="#mcf039d6687" y="100.359839"/>
     <use style="fill:#0000ff;fill-opacity:0.2;stroke:#0000ff;stroke-opacity:0.2;" x="130.589831" xlink:href="#mcf039d6687" y="118.352417"/>
     <use style="fill:#0000ff;fill-opacity:0.2;stroke:#0000ff;stroke-opacity:0.2;" x="131.539384" xlink:href="#mcf039d6687" y="114.978809"/>
     <use style="fill:#0000ff;fill-opacity:0.2;stroke:#0000ff;stroke-opacity:0.2;" x="132.488937" xlink:href="#mcf039d6687" y="126.22417"/>
     <use style="fill:#0000ff;fill-opacity:0.2;stroke:#0000ff;stroke-opacity:0.2;" x="133.438491" xlink:href="#mcf039d6687" y="129.372871"/>
     <use style="fill:#0000ff;fill-opacity:0.2;stroke:#0000ff;stroke-opacity:0.2;" x="134.388044" xlink:href="#mcf039d6687" y="141.068047"/>
     <use style="fill:#0000ff;fill-opacity:0.2;stroke:#0000ff;stroke-opacity:0.2;" x="135.337597" xlink:href="#mcf039d6687" y="142.192583"/>
     <use style="fill:#0000ff;fill-opacity:0.2;stroke:#0000ff;stroke-opacity:0.2;" x="136.28715" xlink:href="#mcf039d6687" y="150.064336"/>
     <use style="fill:#0000ff;fill-opacity:0.2;stroke:#0000ff;stroke-opacity:0.2;" x="137.236703" xlink:href="#mcf039d6687" y="150.963965"/>
     <use style="fill:#0000ff;fill-opacity:0.2;stroke:#0000ff;stroke-opacity:0.2;" x="138.186256" xlink:href="#mcf039d6687" y="154.787388"/>
     <use style="fill:#0000ff;fill-opacity:0.2;stroke:#0000ff;stroke-opacity:0.2;" x="139.135809" xlink:href="#mcf039d6687" y="157.261367"/>
     <use style="fill:#0000ff;fill-opacity:0.2;stroke:#0000ff;stroke-opacity:0.2;" x="140.085362" xlink:href="#mcf039d6687" y="158.835718"/>
     <use style="fill:#0000ff;fill-opacity:0.2;stroke:#0000ff;stroke-opacity:0.2;" x="141.034915" xlink:href="#mcf039d6687" y="167.382193"/>
     <use style="fill:#0000ff;fill-opacity:0.2;stroke:#0000ff;stroke-opacity:0.2;" x="141.984468" xlink:href="#mcf039d6687" y="171.205616"/>
     <use style="fill:#0000ff;fill-opacity:0.2;stroke:#0000ff;stroke-opacity:0.2;" x="142.934021" xlink:href="#mcf039d6687" y="169.406358"/>
     <use style="fill:#0000ff;fill-opacity:0.2;stroke:#0000ff;stroke-opacity:0.2;" x="143.883574" xlink:href="#mcf039d6687" y="171.205616"/>
     <use style="fill:#0000ff;fill-opacity:0.2;stroke:#0000ff;stroke-opacity:0.2;" x="144.833127" xlink:href="#mcf039d6687" y="167.832007"/>
     <use style="fill:#0000ff;fill-opacity:0.2;stroke:#0000ff;stroke-opacity:0.2;" x="145.78268" xlink:href="#mcf039d6687" y="170.305987"/>
     <use style="fill:#0000ff;fill-opacity:0.2;stroke:#0000ff;stroke-opacity:0.2;" x="146.732233" xlink:href="#mcf039d6687" y="179.527183"/>
     <use style="fill:#0000ff;fill-opacity:0.2;stroke:#0000ff;stroke-opacity:0.2;" x="147.681786" xlink:href="#mcf039d6687" y="182.001162"/>
     <use style="fill:#0000ff;fill-opacity:0.2;stroke:#0000ff;stroke-opacity:0.2;" x="148.631339" xlink:href="#mcf039d6687" y="183.575513"/>
     <use style="fill:#0000ff;fill-opacity:0.2;stroke:#0000ff;stroke-opacity:0.2;" x="149.580893" xlink:href="#mcf039d6687" y="190.32273"/>
     <use style="fill:#0000ff;fill-opacity:0.2;stroke:#0000ff;stroke-opacity:0.2;" x="150.530446" xlink:href="#mcf039d6687" y="186.499307"/>
     <use style="fill:#0000ff;fill-opacity:0.2;stroke:#0000ff;stroke-opacity:0.2;" x="151.479999" xlink:href="#mcf039d6687" y="191.222359"/>
     <use style="fill:#0000ff;fill-opacity:0.2;stroke:#0000ff;stroke-opacity:0.2;" x="152.429552" xlink:href="#mcf039d6687" y="187.174029"/>
     <use style="fill:#0000ff;fill-opacity:0.2;stroke:#0000ff;stroke-opacity:0.2;" x="153.379105" xlink:href="#mcf039d6687" y="188.973286"/>
     <use style="fill:#0000ff;fill-opacity:0.2;stroke:#0000ff;stroke-opacity:0.2;" x="154.328658" xlink:href="#mcf039d6687" y="190.097823"/>
     <use style="fill:#0000ff;fill-opacity:0.2;stroke:#0000ff;stroke-opacity:0.2;" x="155.278211" xlink:href="#mcf039d6687" y="196.620132"/>
     <use style="fill:#0000ff;fill-opacity:0.2;stroke:#0000ff;stroke-opacity:0.2;" x="156.227764" xlink:href="#mcf039d6687" y="191.89708"/>
     <use style="fill:#0000ff;fill-opacity:0.2;stroke:#0000ff;stroke-opacity:0.2;" x="157.177317" xlink:href="#mcf039d6687" y="195.270689"/>
     <use style="fill:#0000ff;fill-opacity:0.2;stroke:#0000ff;stroke-opacity:0.2;" x="158.12687" xlink:href="#mcf039d6687" y="193.246524"/>
     <use style="fill:#0000ff;fill-opacity:0.2;stroke:#0000ff;stroke-opacity:0.2;" x="159.076423" xlink:href="#mcf039d6687" y="193.921245"/>
     <use style="fill:#0000ff;fill-opacity:0.2;stroke:#0000ff;stroke-opacity:0.2;" x="160.025976" xlink:href="#mcf039d6687" y="200.218648"/>
     <use style="fill:#0000ff;fill-opacity:0.2;stroke:#0000ff;stroke-opacity:0.2;" x="160.975529" xlink:href="#mcf039d6687" y="198.869204"/>
     <use style="fill:#0000ff;fill-opacity:0.2;stroke:#0000ff;stroke-opacity:0.2;" x="161.925082" xlink:href="#mcf039d6687" y="201.568091"/>
     <use style="fill:#0000ff;fill-opacity:0.2;stroke:#0000ff;stroke-opacity:0.2;" x="162.874635" xlink:href="#mcf039d6687" y="197.744668"/>
     <use style="fill:#0000ff;fill-opacity:0.2;stroke:#0000ff;stroke-opacity:0.2;" x="163.824188" xlink:href="#mcf039d6687" y="196.395225"/>
     <use style="fill:#0000ff;fill-opacity:0.2;stroke:#0000ff;stroke-opacity:0.2;" x="164.773741" xlink:href="#mcf039d6687" y="200.218648"/>
     <use style="fill:#0000ff;fill-opacity:0.2;stroke:#0000ff;stroke-opacity:0.2;" x="165.723295" xlink:href="#mcf039d6687" y="199.768833"/>
     <use style="fill:#0000ff;fill-opacity:0.2;stroke:#0000ff;stroke-opacity:0.2;" x="166.672848" xlink:href="#mcf039d6687" y="201.343184"/>
     <use style="fill:#0000ff;fill-opacity:0.2;stroke:#0000ff;stroke-opacity:0.2;" x="167.622401" xlink:href="#mcf039d6687" y="206.965865"/>
     <use style="fill:#0000ff;fill-opacity:0.2;stroke:#0000ff;stroke-opacity:0.2;" x="168.571954" xlink:href="#mcf039d6687" y="208.99003"/>
     <use style="fill:#0000ff;fill-opacity:0.2;stroke:#0000ff;stroke-opacity:0.2;" x="169.521507" xlink:href="#mcf039d6687" y="206.51605"/>
     <use style="fill:#0000ff;fill-opacity:0.2;stroke:#0000ff;stroke-opacity:0.2;" x="170.47106" xlink:href="#mcf039d6687" y="203.142442"/>
     <use style="fill:#0000ff;fill-opacity:0.2;stroke:#0000ff;stroke-opacity:0.2;" x="171.420613" xlink:href="#mcf039d6687" y="202.692627"/>
     <use style="fill:#0000ff;fill-opacity:0.2;stroke:#0000ff;stroke-opacity:0.2;" x="172.370166" xlink:href="#mcf039d6687" y="208.99003"/>
     <use style="fill:#0000ff;fill-opacity:0.2;stroke:#0000ff;stroke-opacity:0.2;" x="173.319719" xlink:href="#mcf039d6687" y="208.315308"/>
     <use style="fill:#0000ff;fill-opacity:0.2;stroke:#0000ff;stroke-opacity:0.2;" x="174.269272" xlink:href="#mcf039d6687" y="208.99003"/>
     <use style="fill:#0000ff;fill-opacity:0.2;stroke:#0000ff;stroke-opacity:0.2;" x="175.218825" xlink:href="#mcf039d6687" y="209.664751"/>
     <use style="fill:#0000ff;fill-opacity:0.2;stroke:#0000ff;stroke-opacity:0.2;" x="176.168378" xlink:href="#mcf039d6687" y="211.239102"/>
     <use style="fill:#0000ff;fill-opacity:0.2;stroke:#0000ff;stroke-opacity:0.2;" x="177.117931" xlink:href="#mcf039d6687" y="212.363638"/>
     <use style="fill:#0000ff;fill-opacity:0.2;stroke:#0000ff;stroke-opacity:0.2;" x="178.067484" xlink:href="#mcf039d6687" y="210.114566"/>
     <use style="fill:#0000ff;fill-opacity:0.2;stroke:#0000ff;stroke-opacity:0.2;" x="179.017037" xlink:href="#mcf039d6687" y="216.636875"/>
     <use style="fill:#0000ff;fill-opacity:0.2;stroke:#0000ff;stroke-opacity:0.2;" x="179.96659" xlink:href="#mcf039d6687" y="215.962154"/>
     <use style="fill:#0000ff;fill-opacity:0.2;stroke:#0000ff;stroke-opacity:0.2;" x="180.916143" xlink:href="#mcf039d6687" y="217.986319"/>
     <use style="fill:#0000ff;fill-opacity:0.2;stroke:#0000ff;stroke-opacity:0.2;" x="181.865696" xlink:href="#mcf039d6687" y="214.61271"/>
     <use style="fill:#0000ff;fill-opacity:0.2;stroke:#0000ff;stroke-opacity:0.2;" x="182.81525" xlink:href="#mcf039d6687" y="215.062525"/>
     <use style="fill:#0000ff;fill-opacity:0.2;stroke:#0000ff;stroke-opacity:0.2;" x="183.764803" xlink:href="#mcf039d6687" y="213.713081"/>
     <use style="fill:#0000ff;fill-opacity:0.2;stroke:#0000ff;stroke-opacity:0.2;" x="184.714356" xlink:href="#mcf039d6687" y="216.411968"/>
     <use style="fill:#0000ff;fill-opacity:0.2;stroke:#0000ff;stroke-opacity:0.2;" x="185.663909" xlink:href="#mcf039d6687" y="216.411968"/>
     <use style="fill:#0000ff;fill-opacity:0.2;stroke:#0000ff;stroke-opacity:0.2;" x="186.613462" xlink:href="#mcf039d6687" y="218.211226"/>
     <use style="fill:#0000ff;fill-opacity:0.2;stroke:#0000ff;stroke-opacity:0.2;" x="187.563015" xlink:href="#mcf039d6687" y="217.536504"/>
     <use style="fill:#0000ff;fill-opacity:0.2;stroke:#0000ff;stroke-opacity:0.2;" x="188.512568" xlink:href="#mcf039d6687" y="219.560669"/>
     <use style="fill:#0000ff;fill-opacity:0.2;stroke:#0000ff;stroke-opacity:0.2;" x="189.462121" xlink:href="#mcf039d6687" y="217.986319"/>
     <use style="fill:#0000ff;fill-opacity:0.2;stroke:#0000ff;stroke-opacity:0.2;" x="190.411674" xlink:href="#mcf039d6687" y="215.737246"/>
     <use style="fill:#0000ff;fill-opacity:0.2;stroke:#0000ff;stroke-opacity:0.2;" x="191.361227" xlink:href="#mcf039d6687" y="215.512339"/>
     <use style="fill:#0000ff;fill-opacity:0.2;stroke:#0000ff;stroke-opacity:0.2;" x="192.31078" xlink:href="#mcf039d6687" y="217.311597"/>
     <use style="fill:#0000ff;fill-opacity:0.2;stroke:#0000ff;stroke-opacity:0.2;" x="193.260333" xlink:href="#mcf039d6687" y="219.335762"/>
     <use style="fill:#0000ff;fill-opacity:0.2;stroke:#0000ff;stroke-opacity:0.2;" x="194.209886" xlink:href="#mcf039d6687" y="220.460298"/>
     <use style="fill:#0000ff;fill-opacity:0.2;stroke:#0000ff;stroke-opacity:0.2;" x="195.159439" xlink:href="#mcf039d6687" y="219.335762"/>
     <use style="fill:#0000ff;fill-opacity:0.2;stroke:#0000ff;stroke-opacity:0.2;" x="196.108992" xlink:href="#mcf039d6687" y="221.13502"/>
     <use style="fill:#0000ff;fill-opacity:0.2;stroke:#0000ff;stroke-opacity:0.2;" x="197.058545" xlink:href="#mcf039d6687" y="220.685205"/>
     <use style="fill:#0000ff;fill-opacity:0.2;stroke:#0000ff;stroke-opacity:0.2;" x="198.008098" xlink:href="#mcf039d6687" y="223.608999"/>
     <use style="fill:#0000ff;fill-opacity:0.2;stroke:#0000ff;stroke-opacity:0.2;" x="198.957652" xlink:href="#mcf039d6687" y="219.560669"/>
     <use style="fill:#0000ff;fill-opacity:0.2;stroke:#0000ff;stroke-opacity:0.2;" x="199.907205" xlink:href="#mcf039d6687" y="223.384092"/>
     <use style="fill:#0000ff;fill-opacity:0.2;stroke:#0000ff;stroke-opacity:0.2;" x="200.856758" xlink:href="#mcf039d6687" y="222.709371"/>
     <use style="fill:#0000ff;fill-opacity:0.2;stroke:#0000ff;stroke-opacity:0.2;" x="201.806311" xlink:href="#mcf039d6687" y="222.034649"/>
     <use style="fill:#0000ff;fill-opacity:0.2;stroke:#0000ff;stroke-opacity:0.2;" x="202.755864" xlink:href="#mcf039d6687" y="222.259556"/>
     <use style="fill:#0000ff;fill-opacity:0.2;stroke:#0000ff;stroke-opacity:0.2;" x="203.705417" xlink:href="#mcf039d6687" y="222.484463"/>
     <use style="fill:#0000ff;fill-opacity:0.2;stroke:#0000ff;stroke-opacity:0.2;" x="204.65497" xlink:href="#mcf039d6687" y="222.934278"/>
     <use style="fill:#0000ff;fill-opacity:0.2;stroke:#0000ff;stroke-opacity:0.2;" x="205.604523" xlink:href="#mcf039d6687" y="219.110855"/>
     <use style="fill:#0000ff;fill-opacity:0.2;stroke:#0000ff;stroke-opacity:0.2;" x="206.554076" xlink:href="#mcf039d6687" y="224.058814"/>
     <use style="fill:#0000ff;fill-opacity:0.2;stroke:#0000ff;stroke-opacity:0.2;" x="207.503629" xlink:href="#mcf039d6687" y="224.733536"/>
     <use style="fill:#0000ff;fill-opacity:0.2;stroke:#0000ff;stroke-opacity:0.2;" x="208.453182" xlink:href="#mcf039d6687" y="224.058814"/>
     <use style="fill:#0000ff;fill-opacity:0.2;stroke:#0000ff;stroke-opacity:0.2;" x="209.402735" xlink:href="#mcf039d6687" y="222.484463"/>
     <use style="fill:#0000ff;fill-opacity:0.2;stroke:#0000ff;stroke-opacity:0.2;" x="210.352288" xlink:href="#mcf039d6687" y="224.733536"/>
     <use style="fill:#0000ff;fill-opacity:0.2;stroke:#0000ff;stroke-opacity:0.2;" x="211.301841" xlink:href="#mcf039d6687" y="222.934278"/>
     <use style="fill:#0000ff;fill-opacity:0.2;stroke:#0000ff;stroke-opacity:0.2;" x="212.251394" xlink:href="#mcf039d6687" y="225.408257"/>
     <use style="fill:#0000ff;fill-opacity:0.2;stroke:#0000ff;stroke-opacity:0.2;" x="213.200947" xlink:href="#mcf039d6687" y="225.408257"/>
     <use style="fill:#0000ff;fill-opacity:0.2;stroke:#0000ff;stroke-opacity:0.2;" x="214.1505" xlink:href="#mcf039d6687" y="223.833907"/>
     <use style="fill:#0000ff;fill-opacity:0.2;stroke:#0000ff;stroke-opacity:0.2;" x="215.100053" xlink:href="#mcf039d6687" y="225.18335"/>
     <use style="fill:#0000ff;fill-opacity:0.2;stroke:#0000ff;stroke-opacity:0.2;" x="216.049607" xlink:href="#mcf039d6687" y="225.18335"/>
     <use style="fill:#0000ff;fill-opacity:0.2;stroke:#0000ff;stroke-opacity:0.2;" x="216.99916" xlink:href="#mcf039d6687" y="225.408257"/>
     <use style="fill:#0000ff;fill-opacity:0.2;stroke:#0000ff;stroke-opacity:0.2;" x="217.948713" xlink:href="#mcf039d6687" y="224.283721"/>
     <use style="fill:#0000ff;fill-opacity:0.2;stroke:#0000ff;stroke-opacity:0.2;" x="218.898266" xlink:href="#mcf039d6687" y="224.283721"/>
     <use style="fill:#0000ff;fill-opacity:0.2;stroke:#0000ff;stroke-opacity:0.2;" x="219.847819" xlink:href="#mcf039d6687" y="226.532793"/>
     <use style="fill:#0000ff;fill-opacity:0.2;stroke:#0000ff;stroke-opacity:0.2;" x="220.797372" xlink:href="#mcf039d6687" y="224.958443"/>
     <use style="fill:#0000ff;fill-opacity:0.2;stroke:#0000ff;stroke-opacity:0.2;" x="221.746925" xlink:href="#mcf039d6687" y="224.958443"/>
     <use style="fill:#0000ff;fill-opacity:0.2;stroke:#0000ff;stroke-opacity:0.2;" x="222.696478" xlink:href="#mcf039d6687" y="225.633164"/>
     <use style="fill:#0000ff;fill-opacity:0.2;stroke:#0000ff;stroke-opacity:0.2;" x="223.646031" xlink:href="#mcf039d6687" y="225.633164"/>
     <use style="fill:#0000ff;fill-opacity:0.2;stroke:#0000ff;stroke-opacity:0.2;" x="224.595584" xlink:href="#mcf039d6687" y="226.307886"/>
     <use style="fill:#0000ff;fill-opacity:0.2;stroke:#0000ff;stroke-opacity:0.2;" x="225.545137" xlink:href="#mcf039d6687" y="225.858072"/>
     <use style="fill:#0000ff;fill-opacity:0.2;stroke:#0000ff;stroke-opacity:0.2;" x="226.49469" xlink:href="#mcf039d6687" y="226.532793"/>
     <use style="fill:#0000ff;fill-opacity:0.2;stroke:#0000ff;stroke-opacity:0.2;" x="227.444243" xlink:href="#mcf039d6687" y="226.082979"/>
     <use style="fill:#0000ff;fill-opacity:0.2;stroke:#0000ff;stroke-opacity:0.2;" x="228.393796" xlink:href="#mcf039d6687" y="225.18335"/>
     <use style="fill:#0000ff;fill-opacity:0.2;stroke:#0000ff;stroke-opacity:0.2;" x="229.343349" xlink:href="#mcf039d6687" y="225.18335"/>
     <use style="fill:#0000ff;fill-opacity:0.2;stroke:#0000ff;stroke-opacity:0.2;" x="230.292902" xlink:href="#mcf039d6687" y="225.858072"/>
     <use style="fill:#0000ff;fill-opacity:0.2;stroke:#0000ff;stroke-opacity:0.2;" x="231.242455" xlink:href="#mcf039d6687" y="226.532793"/>
     <use style="fill:#0000ff;fill-opacity:0.2;stroke:#0000ff;stroke-opacity:0.2;" x="232.192009" xlink:href="#mcf039d6687" y="225.633164"/>
     <use style="fill:#0000ff;fill-opacity:0.2;stroke:#0000ff;stroke-opacity:0.2;" x="233.141562" xlink:href="#mcf039d6687" y="226.307886"/>
     <use style="fill:#0000ff;fill-opacity:0.2;stroke:#0000ff;stroke-opacity:0.2;" x="234.091115" xlink:href="#mcf039d6687" y="225.858072"/>
     <use style="fill:#0000ff;fill-opacity:0.2;stroke:#0000ff;stroke-opacity:0.2;" x="235.040668" xlink:href="#mcf039d6687" y="226.307886"/>
     <use style="fill:#0000ff;fill-opacity:0.2;stroke:#0000ff;stroke-opacity:0.2;" x="235.990221" xlink:href="#mcf039d6687" y="225.858072"/>
     <use style="fill:#0000ff;fill-opacity:0.2;stroke:#0000ff;stroke-opacity:0.2;" x="236.939774" xlink:href="#mcf039d6687" y="225.18335"/>
     <use style="fill:#0000ff;fill-opacity:0.2;stroke:#0000ff;stroke-opacity:0.2;" x="237.889327" xlink:href="#mcf039d6687" y="226.757701"/>
     <use style="fill:#0000ff;fill-opacity:0.2;stroke:#0000ff;stroke-opacity:0.2;" x="238.83888" xlink:href="#mcf039d6687" y="226.757701"/>
     <use style="fill:#0000ff;fill-opacity:0.2;stroke:#0000ff;stroke-opacity:0.2;" x="239.788433" xlink:href="#mcf039d6687" y="226.532793"/>
     <use style="fill:#0000ff;fill-opacity:0.2;stroke:#0000ff;stroke-opacity:0.2;" x="240.737986" xlink:href="#mcf039d6687" y="225.18335"/>
     <use style="fill:#0000ff;fill-opacity:0.2;stroke:#0000ff;stroke-opacity:0.2;" x="241.687539" xlink:href="#mcf039d6687" y="226.982608"/>
     <use style="fill:#0000ff;fill-opacity:0.2;stroke:#0000ff;stroke-opacity:0.2;" x="242.637092" xlink:href="#mcf039d6687" y="225.408257"/>
     <use style="fill:#0000ff;fill-opacity:0.2;stroke:#0000ff;stroke-opacity:0.2;" x="243.586645" xlink:href="#mcf039d6687" y="225.858072"/>
     <use style="fill:#0000ff;fill-opacity:0.2;stroke:#0000ff;stroke-opacity:0.2;" x="244.536198" xlink:href="#mcf039d6687" y="226.982608"/>
     <use style="fill:#0000ff;fill-opacity:0.2;stroke:#0000ff;stroke-opacity:0.2;" x="245.485751" xlink:href="#mcf039d6687" y="226.982608"/>
     <use style="fill:#0000ff;fill-opacity:0.2;stroke:#0000ff;stroke-opacity:0.2;" x="246.435304" xlink:href="#mcf039d6687" y="226.307886"/>
     <use style="fill:#0000ff;fill-opacity:0.2;stroke:#0000ff;stroke-opacity:0.2;" x="247.384857" xlink:href="#mcf039d6687" y="226.532793"/>
     <use style="fill:#0000ff;fill-opacity:0.2;stroke:#0000ff;stroke-opacity:0.2;" x="248.334411" xlink:href="#mcf039d6687" y="225.408257"/>
     <use style="fill:#0000ff;fill-opacity:0.2;stroke:#0000ff;stroke-opacity:0.2;" x="249.283964" xlink:href="#mcf039d6687" y="226.532793"/>
     <use style="fill:#0000ff;fill-opacity:0.2;stroke:#0000ff;stroke-opacity:0.2;" x="250.233517" xlink:href="#mcf039d6687" y="225.408257"/>
     <use style="fill:#0000ff;fill-opacity:0.2;stroke:#0000ff;stroke-opacity:0.2;" x="251.18307" xlink:href="#mcf039d6687" y="225.408257"/>
     <use style="fill:#0000ff;fill-opacity:0.2;stroke:#0000ff;stroke-opacity:0.2;" x="252.132623" xlink:href="#mcf039d6687" y="226.082979"/>
     <use style="fill:#0000ff;fill-opacity:0.2;stroke:#0000ff;stroke-opacity:0.2;" x="253.082176" xlink:href="#mcf039d6687" y="226.532793"/>
     <use style="fill:#0000ff;fill-opacity:0.2;stroke:#0000ff;stroke-opacity:0.2;" x="254.031729" xlink:href="#mcf039d6687" y="227.207515"/>
     <use style="fill:#0000ff;fill-opacity:0.2;stroke:#0000ff;stroke-opacity:0.2;" x="254.981282" xlink:href="#mcf039d6687" y="226.757701"/>
     <use style="fill:#0000ff;fill-opacity:0.2;stroke:#0000ff;stroke-opacity:0.2;" x="255.930835" xlink:href="#mcf039d6687" y="226.082979"/>
     <use style="fill:#0000ff;fill-opacity:0.2;stroke:#0000ff;stroke-opacity:0.2;" x="256.880388" xlink:href="#mcf039d6687" y="226.982608"/>
     <use style="fill:#0000ff;fill-opacity:0.2;stroke:#0000ff;stroke-opacity:0.2;" x="257.829941" xlink:href="#mcf039d6687" y="225.633164"/>
     <use style="fill:#0000ff;fill-opacity:0.2;stroke:#0000ff;stroke-opacity:0.2;" x="258.779494" xlink:href="#mcf039d6687" y="226.757701"/>
     <use style="fill:#0000ff;fill-opacity:0.2;stroke:#0000ff;stroke-opacity:0.2;" x="259.729047" xlink:href="#mcf039d6687" y="226.307886"/>
     <use style="fill:#0000ff;fill-opacity:0.2;stroke:#0000ff;stroke-opacity:0.2;" x="260.6786" xlink:href="#mcf039d6687" y="225.858072"/>
     <use style="fill:#0000ff;fill-opacity:0.2;stroke:#0000ff;stroke-opacity:0.2;" x="261.628153" xlink:href="#mcf039d6687" y="226.082979"/>
     <use style="fill:#0000ff;fill-opacity:0.2;stroke:#0000ff;stroke-opacity:0.2;" x="262.577706" xlink:href="#mcf039d6687" y="225.633164"/>
     <use style="fill:#0000ff;fill-opacity:0.2;stroke:#0000ff;stroke-opacity:0.2;" x="263.527259" xlink:href="#mcf039d6687" y="225.18335"/>
     <use style="fill:#0000ff;fill-opacity:0.2;stroke:#0000ff;stroke-opacity:0.2;" x="264.476812" xlink:href="#mcf039d6687" y="226.082979"/>
     <use style="fill:#0000ff;fill-opacity:0.2;stroke:#0000ff;stroke-opacity:0.2;" x="265.426366" xlink:href="#mcf039d6687" y="225.633164"/>
     <use style="fill:#0000ff;fill-opacity:0.2;stroke:#0000ff;stroke-opacity:0.2;" x="266.375919" xlink:href="#mcf039d6687" y="226.082979"/>
     <use style="fill:#0000ff;fill-opacity:0.2;stroke:#0000ff;stroke-opacity:0.2;" x="267.325472" xlink:href="#mcf039d6687" y="225.858072"/>
     <use style="fill:#0000ff;fill-opacity:0.2;stroke:#0000ff;stroke-opacity:0.2;" x="268.275025" xlink:href="#mcf039d6687" y="224.508628"/>
     <use style="fill:#0000ff;fill-opacity:0.2;stroke:#0000ff;stroke-opacity:0.2;" x="269.224578" xlink:href="#mcf039d6687" y="225.18335"/>
     <use style="fill:#0000ff;fill-opacity:0.2;stroke:#0000ff;stroke-opacity:0.2;" x="270.174131" xlink:href="#mcf039d6687" y="224.958443"/>
     <use style="fill:#0000ff;fill-opacity:0.2;stroke:#0000ff;stroke-opacity:0.2;" x="271.123684" xlink:href="#mcf039d6687" y="224.058814"/>
     <use style="fill:#0000ff;fill-opacity:0.2;stroke:#0000ff;stroke-opacity:0.2;" x="272.073237" xlink:href="#mcf039d6687" y="223.159185"/>
     <use style="fill:#0000ff;fill-opacity:0.2;stroke:#0000ff;stroke-opacity:0.2;" x="273.02279" xlink:href="#mcf039d6687" y="223.384092"/>
     <use style="fill:#0000ff;fill-opacity:0.2;stroke:#0000ff;stroke-opacity:0.2;" x="273.972343" xlink:href="#mcf039d6687" y="225.18335"/>
     <use style="fill:#0000ff;fill-opacity:0.2;stroke:#0000ff;stroke-opacity:0.2;" x="274.921896" xlink:href="#mcf039d6687" y="222.259556"/>
     <use style="fill:#0000ff;fill-opacity:0.2;stroke:#0000ff;stroke-opacity:0.2;" x="275.871449" xlink:href="#mcf039d6687" y="223.833907"/>
     <use style="fill:#0000ff;fill-opacity:0.2;stroke:#0000ff;stroke-opacity:0.2;" x="276.821002" xlink:href="#mcf039d6687" y="221.809742"/>
     <use style="fill:#0000ff;fill-opacity:0.2;stroke:#0000ff;stroke-opacity:0.2;" x="277.770555" xlink:href="#mcf039d6687" y="219.335762"/>
     <use style="fill:#0000ff;fill-opacity:0.2;stroke:#0000ff;stroke-opacity:0.2;" x="278.720108" xlink:href="#mcf039d6687" y="222.034649"/>
     <use style="fill:#0000ff;fill-opacity:0.2;stroke:#0000ff;stroke-opacity:0.2;" x="279.669661" xlink:href="#mcf039d6687" y="222.709371"/>
     <use style="fill:#0000ff;fill-opacity:0.2;stroke:#0000ff;stroke-opacity:0.2;" x="280.619214" xlink:href="#mcf039d6687" y="220.910113"/>
     <use style="fill:#0000ff;fill-opacity:0.2;stroke:#0000ff;stroke-opacity:0.2;" x="281.568768" xlink:href="#mcf039d6687" y="220.010484"/>
     <use style="fill:#0000ff;fill-opacity:0.2;stroke:#0000ff;stroke-opacity:0.2;" x="282.518321" xlink:href="#mcf039d6687" y="219.110855"/>
     <use style="fill:#0000ff;fill-opacity:0.2;stroke:#0000ff;stroke-opacity:0.2;" x="283.467874" xlink:href="#mcf039d6687" y="219.785577"/>
     <use style="fill:#0000ff;fill-opacity:0.2;stroke:#0000ff;stroke-opacity:0.2;" x="284.417427" xlink:href="#mcf039d6687" y="218.436133"/>
     <use style="fill:#0000ff;fill-opacity:0.2;stroke:#0000ff;stroke-opacity:0.2;" x="285.36698" xlink:href="#mcf039d6687" y="217.986319"/>
     <use style="fill:#0000ff;fill-opacity:0.2;stroke:#0000ff;stroke-opacity:0.2;" x="286.316533" xlink:href="#mcf039d6687" y="216.861783"/>
     <use style="fill:#0000ff;fill-opacity:0.2;stroke:#0000ff;stroke-opacity:0.2;" x="287.266086" xlink:href="#mcf039d6687" y="219.110855"/>
     <use style="fill:#0000ff;fill-opacity:0.2;stroke:#0000ff;stroke-opacity:0.2;" x="288.215639" xlink:href="#mcf039d6687" y="219.110855"/>
     <use style="fill:#0000ff;fill-opacity:0.2;stroke:#0000ff;stroke-opacity:0.2;" x="289.165192" xlink:href="#mcf039d6687" y="218.66104"/>
     <use style="fill:#0000ff;fill-opacity:0.2;stroke:#0000ff;stroke-opacity:0.2;" x="290.114745" xlink:href="#mcf039d6687" y="216.411968"/>
     <use style="fill:#0000ff;fill-opacity:0.2;stroke:#0000ff;stroke-opacity:0.2;" x="291.064298" xlink:href="#mcf039d6687" y="214.61271"/>
     <use style="fill:#0000ff;fill-opacity:0.2;stroke:#0000ff;stroke-opacity:0.2;" x="292.013851" xlink:href="#mcf039d6687" y="214.837618"/>
     <use style="fill:#0000ff;fill-opacity:0.2;stroke:#0000ff;stroke-opacity:0.2;" x="292.963404" xlink:href="#mcf039d6687" y="216.411968"/>
     <use style="fill:#0000ff;fill-opacity:0.2;stroke:#0000ff;stroke-opacity:0.2;" x="293.912957" xlink:href="#mcf039d6687" y="213.937989"/>
     <use style="fill:#0000ff;fill-opacity:0.2;stroke:#0000ff;stroke-opacity:0.2;" x="294.86251" xlink:href="#mcf039d6687" y="210.56438"/>
     <use style="fill:#0000ff;fill-opacity:0.2;stroke:#0000ff;stroke-opacity:0.2;" x="295.812063" xlink:href="#mcf039d6687" y="211.464009"/>
     <use style="fill:#0000ff;fill-opacity:0.2;stroke:#0000ff;stroke-opacity:0.2;" x="296.761616" xlink:href="#mcf039d6687" y="211.913824"/>
     <use style="fill:#0000ff;fill-opacity:0.2;stroke:#0000ff;stroke-opacity:0.2;" x="297.711169" xlink:href="#mcf039d6687" y="209.439844"/>
     <use style="fill:#0000ff;fill-opacity:0.2;stroke:#0000ff;stroke-opacity:0.2;" x="298.660723" xlink:href="#mcf039d6687" y="207.190772"/>
     <use style="fill:#0000ff;fill-opacity:0.2;stroke:#0000ff;stroke-opacity:0.2;" x="299.610276" xlink:href="#mcf039d6687" y="207.190772"/>
     <use style="fill:#0000ff;fill-opacity:0.2;stroke:#0000ff;stroke-opacity:0.2;" x="300.559829" xlink:href="#mcf039d6687" y="198.41939"/>
     <use style="fill:#0000ff;fill-opacity:0.2;stroke:#0000ff;stroke-opacity:0.2;" x="301.509382" xlink:href="#mcf039d6687" y="207.190772"/>
     <use style="fill:#0000ff;fill-opacity:0.2;stroke:#0000ff;stroke-opacity:0.2;" x="302.458935" xlink:href="#mcf039d6687" y="201.568091"/>
     <use style="fill:#0000ff;fill-opacity:0.2;stroke:#0000ff;stroke-opacity:0.2;" x="303.408488" xlink:href="#mcf039d6687" y="197.969576"/>
     <use style="fill:#0000ff;fill-opacity:0.2;stroke:#0000ff;stroke-opacity:0.2;" x="304.358041" xlink:href="#mcf039d6687" y="195.270689"/>
     <use style="fill:#0000ff;fill-opacity:0.2;stroke:#0000ff;stroke-opacity:0.2;" x="305.307594" xlink:href="#mcf039d6687" y="194.820874"/>
     <use style="fill:#0000ff;fill-opacity:0.2;stroke:#0000ff;stroke-opacity:0.2;" x="306.257147" xlink:href="#mcf039d6687" y="194.820874"/>
     <use style="fill:#0000ff;fill-opacity:0.2;stroke:#0000ff;stroke-opacity:0.2;" x="307.2067" xlink:href="#mcf039d6687" y="196.620132"/>
     <use style="fill:#0000ff;fill-opacity:0.2;stroke:#0000ff;stroke-opacity:0.2;" x="308.156253" xlink:href="#mcf039d6687" y="191.222359"/>
     <use style="fill:#0000ff;fill-opacity:0.2;stroke:#0000ff;stroke-opacity:0.2;" x="309.105806" xlink:href="#mcf039d6687" y="189.198194"/>
     <use style="fill:#0000ff;fill-opacity:0.2;stroke:#0000ff;stroke-opacity:0.2;" x="310.055359" xlink:href="#mcf039d6687" y="189.872915"/>
     <use style="fill:#0000ff;fill-opacity:0.2;stroke:#0000ff;stroke-opacity:0.2;" x="311.004912" xlink:href="#mcf039d6687" y="187.398936"/>
     <use style="fill:#0000ff;fill-opacity:0.2;stroke:#0000ff;stroke-opacity:0.2;" x="311.954465" xlink:href="#mcf039d6687" y="180.651719"/>
     <use style="fill:#0000ff;fill-opacity:0.2;stroke:#0000ff;stroke-opacity:0.2;" x="312.904018" xlink:href="#mcf039d6687" y="181.326441"/>
     <use style="fill:#0000ff;fill-opacity:0.2;stroke:#0000ff;stroke-opacity:0.2;" x="313.853571" xlink:href="#mcf039d6687" y="179.976997"/>
     <use style="fill:#0000ff;fill-opacity:0.2;stroke:#0000ff;stroke-opacity:0.2;" x="314.803125" xlink:href="#mcf039d6687" y="177.727925"/>
     <use style="fill:#0000ff;fill-opacity:0.2;stroke:#0000ff;stroke-opacity:0.2;" x="315.752678" xlink:href="#mcf039d6687" y="177.727925"/>
     <use style="fill:#0000ff;fill-opacity:0.2;stroke:#0000ff;stroke-opacity:0.2;" x="316.702231" xlink:href="#mcf039d6687" y="180.876626"/>
     <use style="fill:#0000ff;fill-opacity:0.2;stroke:#0000ff;stroke-opacity:0.2;" x="317.651784" xlink:href="#mcf039d6687" y="174.804131"/>
     <use style="fill:#0000ff;fill-opacity:0.2;stroke:#0000ff;stroke-opacity:0.2;" x="318.601337" xlink:href="#mcf039d6687" y="178.627554"/>
     <use style="fill:#0000ff;fill-opacity:0.2;stroke:#0000ff;stroke-opacity:0.2;" x="319.55089" xlink:href="#mcf039d6687" y="175.478853"/>
     <use style="fill:#0000ff;fill-opacity:0.2;stroke:#0000ff;stroke-opacity:0.2;" x="320.500443" xlink:href="#mcf039d6687" y="166.482564"/>
     <use style="fill:#0000ff;fill-opacity:0.2;stroke:#0000ff;stroke-opacity:0.2;" x="321.449996" xlink:href="#mcf039d6687" y="170.305987"/>
     <use style="fill:#0000ff;fill-opacity:0.2;stroke:#0000ff;stroke-opacity:0.2;" x="322.399549" xlink:href="#mcf039d6687" y="157.711182"/>
     <use style="fill:#0000ff;fill-opacity:0.2;stroke:#0000ff;stroke-opacity:0.2;" x="323.349102" xlink:href="#mcf039d6687" y="167.6071"/>
     <use style="fill:#0000ff;fill-opacity:0.2;stroke:#0000ff;stroke-opacity:0.2;" x="324.298655" xlink:href="#mcf039d6687" y="174.129409"/>
     <use style="fill:#0000ff;fill-opacity:0.2;stroke:#0000ff;stroke-opacity:0.2;" x="325.248208" xlink:href="#mcf039d6687" y="166.482564"/>
     <use style="fill:#0000ff;fill-opacity:0.2;stroke:#0000ff;stroke-opacity:0.2;" x="326.197761" xlink:href="#mcf039d6687" y="168.731636"/>
     <use style="fill:#0000ff;fill-opacity:0.2;stroke:#0000ff;stroke-opacity:0.2;" x="327.147314" xlink:href="#mcf039d6687" y="166.707471"/>
     <use style="fill:#0000ff;fill-opacity:0.2;stroke:#0000ff;stroke-opacity:0.2;" x="328.096867" xlink:href="#mcf039d6687" y="161.08479"/>
     <use style="fill:#0000ff;fill-opacity:0.2;stroke:#0000ff;stroke-opacity:0.2;" x="329.04642" xlink:href="#mcf039d6687" y="166.707471"/>
     <use style="fill:#0000ff;fill-opacity:0.2;stroke:#0000ff;stroke-opacity:0.2;" x="329.995973" xlink:href="#mcf039d6687" y="161.759512"/>
     <use style="fill:#0000ff;fill-opacity:0.2;stroke:#0000ff;stroke-opacity:0.2;" x="330.945526" xlink:href="#mcf039d6687" y="153.887759"/>
     <use style="fill:#0000ff;fill-opacity:0.2;stroke:#0000ff;stroke-opacity:0.2;" x="331.89508" xlink:href="#mcf039d6687" y="161.534605"/>
     <use style="fill:#0000ff;fill-opacity:0.2;stroke:#0000ff;stroke-opacity:0.2;" x="332.844633" xlink:href="#mcf039d6687" y="159.960254"/>
     <use style="fill:#0000ff;fill-opacity:0.2;stroke:#0000ff;stroke-opacity:0.2;" x="333.794186" xlink:href="#mcf039d6687" y="167.832007"/>
     <use style="fill:#0000ff;fill-opacity:0.2;stroke:#0000ff;stroke-opacity:0.2;" x="334.743739" xlink:href="#mcf039d6687" y="155.911924"/>
     <use style="fill:#0000ff;fill-opacity:0.2;stroke:#0000ff;stroke-opacity:0.2;" x="335.693292" xlink:href="#mcf039d6687" y="160.859883"/>
     <use style="fill:#0000ff;fill-opacity:0.2;stroke:#0000ff;stroke-opacity:0.2;" x="336.642845" xlink:href="#mcf039d6687" y="157.711182"/>
     <use style="fill:#0000ff;fill-opacity:0.2;stroke:#0000ff;stroke-opacity:0.2;" x="337.592398" xlink:href="#mcf039d6687" y="154.562481"/>
     <use style="fill:#0000ff;fill-opacity:0.2;stroke:#0000ff;stroke-opacity:0.2;" x="338.541951" xlink:href="#mcf039d6687" y="163.783677"/>
     <use style="fill:#0000ff;fill-opacity:0.2;stroke:#0000ff;stroke-opacity:0.2;" x="339.491504" xlink:href="#mcf039d6687" y="163.55877"/>
     <use style="fill:#0000ff;fill-opacity:0.2;stroke:#0000ff;stroke-opacity:0.2;" x="340.441057" xlink:href="#mcf039d6687" y="157.486275"/>
     <use style="fill:#0000ff;fill-opacity:0.2;stroke:#0000ff;stroke-opacity:0.2;" x="341.39061" xlink:href="#mcf039d6687" y="157.486275"/>
     <use style="fill:#0000ff;fill-opacity:0.2;stroke:#0000ff;stroke-opacity:0.2;" x="342.340163" xlink:href="#mcf039d6687" y="167.6071"/>
     <use style="fill:#0000ff;fill-opacity:0.2;stroke:#0000ff;stroke-opacity:0.2;" x="343.289716" xlink:href="#mcf039d6687" y="166.482564"/>
     <use style="fill:#0000ff;fill-opacity:0.2;stroke:#0000ff;stroke-opacity:0.2;" x="344.239269" xlink:href="#mcf039d6687" y="167.6071"/>
     <use style="fill:#0000ff;fill-opacity:0.2;stroke:#0000ff;stroke-opacity:0.2;" x="345.188822" xlink:href="#mcf039d6687" y="160.410069"/>
     <use style="fill:#0000ff;fill-opacity:0.2;stroke:#0000ff;stroke-opacity:0.2;" x="346.138375" xlink:href="#mcf039d6687" y="161.984419"/>
     <use style="fill:#0000ff;fill-opacity:0.2;stroke:#0000ff;stroke-opacity:0.2;" x="347.087928" xlink:href="#mcf039d6687" y="169.631265"/>
     <use style="fill:#0000ff;fill-opacity:0.2;stroke:#0000ff;stroke-opacity:0.2;" x="348.037482" xlink:href="#mcf039d6687" y="166.482564"/>
     <use style="fill:#0000ff;fill-opacity:0.2;stroke:#0000ff;stroke-opacity:0.2;" x="348.987035" xlink:href="#mcf039d6687" y="170.980708"/>
     <use style="fill:#0000ff;fill-opacity:0.2;stroke:#0000ff;stroke-opacity:0.2;" x="349.936588" xlink:href="#mcf039d6687" y="162.209326"/>
     <use style="fill:#0000ff;fill-opacity:0.2;stroke:#0000ff;stroke-opacity:0.2;" x="350.886141" xlink:href="#mcf039d6687" y="166.707471"/>
     <use style="fill:#0000ff;fill-opacity:0.2;stroke:#0000ff;stroke-opacity:0.2;" x="351.835694" xlink:href="#mcf039d6687" y="160.859883"/>
     <use style="fill:#0000ff;fill-opacity:0.2;stroke:#0000ff;stroke-opacity:0.2;" x="352.785247" xlink:href="#mcf039d6687" y="163.108955"/>
     <use style="fill:#0000ff;fill-opacity:0.2;stroke:#0000ff;stroke-opacity:0.2;" x="353.7348" xlink:href="#mcf039d6687" y="160.634976"/>
     <use style="fill:#0000ff;fill-opacity:0.2;stroke:#0000ff;stroke-opacity:0.2;" x="354.684353" xlink:href="#mcf039d6687" y="163.108955"/>
     <use style="fill:#0000ff;fill-opacity:0.2;stroke:#0000ff;stroke-opacity:0.2;" x="355.633906" xlink:href="#mcf039d6687" y="159.51044"/>
     <use style="fill:#0000ff;fill-opacity:0.2;stroke:#0000ff;stroke-opacity:0.2;" x="356.583459" xlink:href="#mcf039d6687" y="157.03646"/>
     <use style="fill:#0000ff;fill-opacity:0.2;stroke:#0000ff;stroke-opacity:0.2;" x="357.533012" xlink:href="#mcf039d6687" y="166.707471"/>
     <use style="fill:#0000ff;fill-opacity:0.2;stroke:#0000ff;stroke-opacity:0.2;" x="358.482565" xlink:href="#mcf039d6687" y="152.088501"/>
     <use style="fill:#0000ff;fill-opacity:0.2;stroke:#0000ff;stroke-opacity:0.2;" x="359.432118" xlink:href="#mcf039d6687" y="154.112666"/>
     <use style="fill:#0000ff;fill-opacity:0.2;stroke:#0000ff;stroke-opacity:0.2;" x="360.381671" xlink:href="#mcf039d6687" y="158.385904"/>
     <use style="fill:#0000ff;fill-opacity:0.2;stroke:#0000ff;stroke-opacity:0.2;" x="361.331224" xlink:href="#mcf039d6687" y="152.763223"/>
     <use style="fill:#0000ff;fill-opacity:0.2;stroke:#0000ff;stroke-opacity:0.2;" x="362.280777" xlink:href="#mcf039d6687" y="142.41749"/>
     <use style="fill:#0000ff;fill-opacity:0.2;stroke:#0000ff;stroke-opacity:0.2;" x="363.23033" xlink:href="#mcf039d6687" y="146.915635"/>
     <use style="fill:#0000ff;fill-opacity:0.2;stroke:#0000ff;stroke-opacity:0.2;" x="364.179884" xlink:href="#mcf039d6687" y="145.341284"/>
     <use style="fill:#0000ff;fill-opacity:0.2;stroke:#0000ff;stroke-opacity:0.2;" x="365.129437" xlink:href="#mcf039d6687" y="145.791099"/>
     <use style="fill:#0000ff;fill-opacity:0.2;stroke:#0000ff;stroke-opacity:0.2;" x="366.07899" xlink:href="#mcf039d6687" y="135.445366"/>
     <use style="fill:#0000ff;fill-opacity:0.2;stroke:#0000ff;stroke-opacity:0.2;" x="367.028543" xlink:href="#mcf039d6687" y="130.047593"/>
     <use style="fill:#0000ff;fill-opacity:0.2;stroke:#0000ff;stroke-opacity:0.2;" x="367.978096" xlink:href="#mcf039d6687" y="127.573613"/>
     <use style="fill:#0000ff;fill-opacity:0.2;stroke:#0000ff;stroke-opacity:0.2;" x="368.927649" xlink:href="#mcf039d6687" y="130.497407"/>
     <use style="fill:#0000ff;fill-opacity:0.2;stroke:#0000ff;stroke-opacity:0.2;" x="369.877202" xlink:href="#mcf039d6687" y="128.248335"/>
     <use style="fill:#0000ff;fill-opacity:0.2;stroke:#0000ff;stroke-opacity:0.2;" x="370.826755" xlink:href="#mcf039d6687" y="123.300376"/>
     <use style="fill:#0000ff;fill-opacity:0.2;stroke:#0000ff;stroke-opacity:0.2;" x="371.776308" xlink:href="#mcf039d6687" y="114.978809"/>
     <use style="fill:#0000ff;fill-opacity:0.2;stroke:#0000ff;stroke-opacity:0.2;" x="372.725861" xlink:href="#mcf039d6687" y="118.577324"/>
     <use style="fill:#0000ff;fill-opacity:0.2;stroke:#0000ff;stroke-opacity:0.2;" x="373.675414" xlink:href="#mcf039d6687" y="117.902603"/>
     <use style="fill:#0000ff;fill-opacity:0.2;stroke:#0000ff;stroke-opacity:0.2;" x="374.624967" xlink:href="#mcf039d6687" y="124.874727"/>
     <use style="fill:#0000ff;fill-opacity:0.2;stroke:#0000ff;stroke-opacity:0.2;" x="375.57452" xlink:href="#mcf039d6687" y="100.359839"/>
     <use style="fill:#0000ff;fill-opacity:0.2;stroke:#0000ff;stroke-opacity:0.2;" x="376.524073" xlink:href="#mcf039d6687" y="94.062437"/>
     <use style="fill:#0000ff;fill-opacity:0.2;stroke:#0000ff;stroke-opacity:0.2;" x="377.473626" xlink:href="#mcf039d6687" y="88.439756"/>
     <use style="fill:#0000ff;fill-opacity:0.2;stroke:#0000ff;stroke-opacity:0.2;" x="378.423179" xlink:href="#mcf039d6687" y="83.716704"/>
     <use style="fill:#0000ff;fill-opacity:0.2;stroke:#0000ff;stroke-opacity:0.2;" x="379.372732" xlink:href="#mcf039d6687" y="83.26689"/>
     <use style="fill:#0000ff;fill-opacity:0.2;stroke:#0000ff;stroke-opacity:0.2;" x="380.322285" xlink:href="#mcf039d6687" y="79.21856"/>
     <use style="fill:#0000ff;fill-opacity:0.2;stroke:#0000ff;stroke-opacity:0.2;" x="381.271839" xlink:href="#mcf039d6687" y="72.921157"/>
     <use style="fill:#0000ff;fill-opacity:0.2;stroke:#0000ff;stroke-opacity:0.2;" x="382.221392" xlink:href="#mcf039d6687" y="61.450889"/>
     <use style="fill:#0000ff;fill-opacity:0.2;stroke:#0000ff;stroke-opacity:0.2;" x="383.170945" xlink:href="#mcf039d6687" y="52.4546"/>
     <use style="fill:#0000ff;fill-opacity:0.2;stroke:#0000ff;stroke-opacity:0.2;" x="384.120498" xlink:href="#mcf039d6687" y="62.12561"/>
     <use style="fill:#0000ff;fill-opacity:0.2;stroke:#0000ff;stroke-opacity:0.2;" x="385.070051" xlink:href="#mcf039d6687" y="60.776167"/>
     <use style="fill:#0000ff;fill-opacity:0.2;stroke:#0000ff;stroke-opacity:0.2;" x="386.019604" xlink:href="#mcf039d6687" y="64.59959"/>
     <use style="fill:#0000ff;fill-opacity:0.2;stroke:#0000ff;stroke-opacity:0.2;" x="386.969157" xlink:href="#mcf039d6687" y="47.956455"/>
     <use style="fill:#0000ff;fill-opacity:0.2;stroke:#0000ff;stroke-opacity:0.2;" x="387.91871" xlink:href="#mcf039d6687" y="56.053115"/>
     <use style="fill:#0000ff;fill-opacity:0.2;stroke:#0000ff;stroke-opacity:0.2;" x="388.868263" xlink:href="#mcf039d6687" y="48.181362"/>
     <use style="fill:#0000ff;fill-opacity:0.2;stroke:#0000ff;stroke-opacity:0.2;" x="389.817816" xlink:href="#mcf039d6687" y="45.257568"/>
     <use style="fill:#0000ff;fill-opacity:0.2;stroke:#0000ff;stroke-opacity:0.2;" x="390.767369" xlink:href="#mcf039d6687" y="60.326353"/>
     <use style="fill:#0000ff;fill-opacity:0.2;stroke:#0000ff;stroke-opacity:0.2;" x="391.716922" xlink:href="#mcf039d6687" y="68.423013"/>
     <use style="fill:#0000ff;fill-opacity:0.2;stroke:#0000ff;stroke-opacity:0.2;" x="392.666475" xlink:href="#mcf039d6687" y="92.263179"/>
     <use style="fill:#0000ff;fill-opacity:0.2;stroke:#0000ff;stroke-opacity:0.2;" x="393.616028" xlink:href="#mcf039d6687" y="114.528994"/>
     <use style="fill:#0000ff;fill-opacity:0.2;stroke:#0000ff;stroke-opacity:0.2;" x="394.565581" xlink:href="#mcf039d6687" y="138.594068"/>
     <use style="fill:#0000ff;fill-opacity:0.2;stroke:#0000ff;stroke-opacity:0.2;" x="395.515134" xlink:href="#mcf039d6687" y="206.740957"/>
    </g>
   </g>
   <g id="line2d_19">
    <path clip-path="url(#pec230ad826)" d="M 85.011285 227.432422 
L 86.910391 227.207515 
L 87.859944 227.239645 
L 89.75905 226.564923 
L 91.658156 225.279739 
L 92.607709 224.540758 
L 93.557262 223.384092 
L 94.506815 221.93826 
L 95.456368 220.106873 
L 96.405921 218.532522 
L 98.305027 213.199008 
L 100.204134 205.455773 
L 101.153687 200.379296 
L 102.10324 194.049764 
L 105.901452 160.120902 
L 107.800558 137.276754 
L 108.750111 125.035375 
L 110.649217 103.572799 
L 111.59877 90.142625 
L 112.548323 80.310966 
L 114.447429 65.338571 
L 115.396982 57.113392 
L 116.346536 52.4546 
L 117.296089 51.169416 
L 118.245642 51.137286 
L 120.144748 52.840155 
L 121.094301 58.205799 
L 122.043854 65.081534 
L 122.993407 69.997363 
L 123.94296 74.174212 
L 125.842066 87.154572 
L 126.791619 91.427809 
L 127.741172 96.568546 
L 131.539384 120.055286 
L 132.488937 124.64982 
L 133.438491 131.750462 
L 134.388044 136.409255 
L 135.337597 142.096194 
L 137.236703 150.739058 
L 139.135809 158.64294 
L 141.034915 164.297751 
L 142.934021 168.024785 
L 143.883574 170.980708 
L 144.833127 173.069133 
L 145.78268 174.836261 
L 146.732233 177.824314 
L 147.681786 180.009127 
L 148.631339 183.350606 
L 149.580893 185.760326 
L 151.479999 188.266435 
L 152.429552 190.129952 
L 153.379105 190.354859 
L 154.328658 191.607914 
L 155.278211 191.89708 
L 156.227764 192.860969 
L 157.177317 194.467449 
L 158.12687 195.720503 
L 160.025976 197.262724 
L 160.975529 197.423372 
L 162.874635 199.25476 
L 163.824188 199.415408 
L 166.672848 202.885405 
L 167.622401 203.849293 
L 168.571954 204.202719 
L 169.521507 205.520032 
L 170.47106 206.51605 
L 171.420613 206.805217 
L 172.370166 206.901605 
L 173.319719 207.576327 
L 174.269272 208.893641 
L 177.117931 212.138731 
L 178.067484 213.423915 
L 179.017037 214.130766 
L 179.96659 214.67697 
L 180.916143 214.869747 
L 181.865696 215.769376 
L 182.81525 215.737246 
L 183.764803 216.058543 
L 184.714356 215.994283 
L 185.663909 216.701135 
L 186.613462 217.118819 
L 187.563015 217.407986 
L 188.512568 217.279467 
L 190.411674 217.568634 
L 191.361227 217.986319 
L 192.31078 217.954189 
L 193.260333 218.404004 
L 194.209886 219.110855 
L 195.159439 220.267521 
L 196.108992 220.588817 
L 197.058545 221.16715 
L 199.907205 222.034649 
L 200.856758 222.291686 
L 202.755864 222.131038 
L 203.705417 222.227426 
L 205.604523 222.805759 
L 206.554076 222.837889 
L 207.503629 223.159185 
L 208.453182 223.159185 
L 209.402735 224.058814 
L 210.352288 224.251592 
L 211.301841 224.123073 
L 212.251394 224.283721 
L 213.200947 224.669276 
L 215.100053 224.958443 
L 216.049607 224.797795 
L 217.948713 225.119091 
L 219.847819 225.15122 
L 220.797372 225.18335 
L 222.696478 225.697424 
L 223.646031 225.697424 
L 224.595584 225.858072 
L 228.393796 225.890201 
L 231.242455 225.793812 
L 233.141562 226.050849 
L 234.091115 225.954461 
L 235.040668 225.98659 
L 235.990221 226.147238 
L 236.939774 226.179368 
L 237.889327 226.082979 
L 238.83888 226.179368 
L 239.788433 226.115109 
L 241.687539 226.243627 
L 244.536198 226.436405 
L 245.485751 226.211497 
L 246.435304 226.372145 
L 247.384857 226.307886 
L 249.283964 225.954461 
L 251.18307 226.082979 
L 252.132623 226.275757 
L 253.082176 226.211497 
L 254.031729 226.436405 
L 256.880388 226.532793 
L 258.779494 226.243627 
L 259.729047 226.179368 
L 260.6786 225.922331 
L 261.628153 225.98659 
L 262.577706 225.825942 
L 264.476812 225.793812 
L 265.426366 225.568905 
L 267.325472 225.472516 
L 269.224578 224.829924 
L 270.174131 224.444369 
L 271.123684 224.34798 
L 272.073237 224.026684 
L 273.02279 223.833907 
L 273.972343 223.384092 
L 274.921896 222.709371 
L 276.821002 222.452334 
L 277.770555 221.841871 
L 278.720108 221.520575 
L 279.669661 220.845853 
L 280.619214 220.556687 
L 281.568768 220.428169 
L 282.518321 219.849836 
L 283.467874 219.014466 
L 284.417427 218.757429 
L 286.316533 218.564652 
L 289.165192 217.08669 
L 290.114745 217.022431 
L 291.064298 216.28345 
L 292.013851 215.062525 
L 292.963404 214.034377 
L 294.86251 212.652805 
L 295.812063 211.560398 
L 296.761616 210.243084 
L 297.711169 208.026142 
L 298.660723 207.544197 
L 299.610276 206.130495 
L 302.458935 200.347166 
L 303.408488 198.580038 
L 304.358041 198.323001 
L 305.307594 196.041799 
L 306.257147 194.274671 
L 308.156253 191.993469 
L 312.904018 182.097551 
L 313.853571 180.812367 
L 314.803125 179.013109 
L 315.752678 178.723943 
L 316.702231 177.888573 
L 317.651784 175.960797 
L 318.601337 174.90052 
L 319.55089 172.040985 
L 320.500443 170.145339 
L 321.449996 170.04895 
L 322.399549 168.313951 
L 323.349102 167.350063 
L 324.298655 167.382193 
L 325.248208 166.064879 
L 326.197761 167.350063 
L 327.147314 166.514693 
L 328.096867 163.623029 
L 329.04642 162.916178 
L 329.995973 161.663123 
L 330.945526 161.823771 
L 333.794186 159.671088 
L 334.743739 159.767477 
L 335.693292 160.088773 
L 336.642845 160.602846 
L 337.592398 159.124884 
L 338.541951 159.349792 
L 339.491504 160.31368 
L 340.441057 161.566734 
L 341.39061 163.430251 
L 342.340163 162.948307 
L 343.289716 162.7234 
L 344.239269 164.458399 
L 345.188822 165.743583 
L 346.138375 166.225527 
L 347.087928 165.615064 
L 348.037482 165.486546 
L 349.936588 165.711453 
L 350.886141 164.426269 
L 351.835694 163.944325 
L 352.785247 162.305715 
L 353.7348 161.566734 
L 354.684353 161.566734 
L 356.583459 159.028496 
L 357.533012 158.7072 
L 358.482565 157.229238 
L 359.432118 154.787388 
L 360.381671 153.341556 
L 361.331224 150.289243 
L 362.280777 149.389615 
L 363.23033 146.722857 
L 365.129437 139.076012 
L 366.07899 137.373143 
L 367.028543 134.706386 
L 367.978096 131.557684 
L 368.927649 127.155929 
L 369.877202 124.746208 
L 370.826755 123.01121 
L 371.776308 122.625655 
L 372.725861 118.320288 
L 377.473626 93.419845 
L 378.423179 85.997906 
L 380.322285 74.495508 
L 381.271839 70.736344 
L 382.221392 67.459125 
L 383.170945 64.792368 
L 384.120498 60.326353 
L 385.070051 57.916632 
L 386.019604 56.020986 
L 386.969157 54.992838 
L 387.91871 54.735802 
L 388.868263 55.828208 
L 389.817816 59.780149 
L 389.817816 59.780149 
" style="fill:none;stroke:#e60000;stroke-linecap:square;stroke-width:2;"/>
   </g>
   <g id="patch_3">
    <path d="M 66.495 237.778155 
L 66.495 15.12 
" style="fill:none;stroke:#000000;stroke-linecap:square;stroke-linejoin:miter;stroke-width:0.8;"/>
   </g>
   <g id="patch_4">
    <path d="M 411.18276 237.778155 
L 411.18276 15.12 
" style="fill:none;stroke:#000000;stroke-linecap:square;stroke-linejoin:miter;stroke-width:0.8;"/>
   </g>
   <g id="patch_5">
    <path d="M 66.495 237.778155 
L 411.18276 237.778155 
" style="fill:none;stroke:#000000;stroke-linecap:square;stroke-linejoin:miter;stroke-width:0.8;"/>
   </g>
   <g id="patch_6">
    <path d="M 66.495 15.12 
L 411.18276 15.12 
" style="fill:none;stroke:#000000;stroke-linecap:square;stroke-linejoin:miter;stroke-width:0.8;"/>
   </g>
   <g id="legend_1">
    <g id="line2d_20">
     <path d="M 162.191067 33.457812 
L 190.191067 33.457812 
" style="fill:none;stroke:#e60000;stroke-linecap:square;stroke-width:2;"/>
    </g>
    <g id="line2d_21"/>
    <g id="text_19">
     <!-- Weekly Average -->
     <defs>
      <path d="M 3.328125 72.90625 
L 13.28125 72.90625 
L 28.609375 11.28125 
L 43.890625 72.90625 
L 54.984375 72.90625 
L 70.3125 11.28125 
L 85.59375 72.90625 
L 95.609375 72.90625 
L 77.296875 0 
L 64.890625 0 
L 49.515625 63.28125 
L 33.984375 0 
L 21.578125 0 
z
" id="DejaVuSans-87"/>
      <path d="M 9.078125 75.984375 
L 18.109375 75.984375 
L 18.109375 31.109375 
L 44.921875 54.6875 
L 56.390625 54.6875 
L 27.390625 29.109375 
L 57.625 0 
L 45.90625 0 
L 18.109375 26.703125 
L 18.109375 0 
L 9.078125 0 
z
" id="DejaVuSans-107"/>
     </defs>
     <g transform="translate(201.391067 38.357812)scale(0.14 -0.14)">
      <use xlink:href="#DejaVuSans-87"/>
      <use x="98.798828" xlink:href="#DejaVuSans-101"/>
      <use x="160.322266" xlink:href="#DejaVuSans-101"/>
      <use x="221.845703" xlink:href="#DejaVuSans-107"/>
      <use x="279.755859" xlink:href="#DejaVuSans-108"/>
      <use x="307.539062" xlink:href="#DejaVuSans-121"/>
      <use x="366.71875" xlink:href="#DejaVuSans-32"/>
      <use x="398.505859" xlink:href="#DejaVuSans-65"/>
      <use x="466.835938" xlink:href="#DejaVuSans-118"/>
      <use x="526.015625" xlink:href="#DejaVuSans-101"/>
      <use x="587.539062" xlink:href="#DejaVuSans-114"/>
      <use x="628.652344" xlink:href="#DejaVuSans-97"/>
      <use x="689.931641" xlink:href="#DejaVuSans-103"/>
      <use x="753.408203" xlink:href="#DejaVuSans-101"/>
     </g>
    </g>
   </g>
  </g>
 </g>
 <defs>
  <clipPath id="pec230ad826">
   <rect height="222.658155" width="344.68776" x="66.495" y="15.12"/>
  </clipPath>
 </defs>
</svg>
