<?xml version="1.0" encoding="utf-8" standalone="no"?>
<!DOCTYPE svg PUBLIC "-//W3C//DTD SVG 1.1//EN"
  "http://www.w3.org/Graphics/SVG/1.1/DTD/svg11.dtd">
<svg height="252.389375pt" version="1.1" viewBox="0 0 430.564375 252.389375" width="430.564375pt" xmlns="http://www.w3.org/2000/svg" xmlns:xlink="http://www.w3.org/1999/xlink">
 <metadata>
  <rdf:RDF xmlns:cc="http://creativecommons.org/ns#" xmlns:dc="http://purl.org/dc/elements/1.1/" xmlns:rdf="http://www.w3.org/1999/02/22-rdf-syntax-ns#">
   <cc:Work>
    <dc:type rdf:resource="http://purl.org/dc/dcmitype/StillImage"/>
    <dc:date>2021-11-09T14:43:20.182591</dc:date>
    <dc:format>image/svg+xml</dc:format>
    <dc:creator>
     <cc:Agent>
      <dc:title>Matplotlib v3.4.3, https://matplotlib.org/</dc:title>
     </cc:Agent>
    </dc:creator>
   </cc:Work>
  </rdf:RDF>
 </metadata>
 <defs>
  <style type="text/css">*{stroke-linecap:butt;stroke-linejoin:round;}</style>
 </defs>
 <g id="figure_1">
  <g id="patch_1">
   <path d="M 0 252.389375 
L 430.564375 252.389375 
L 430.564375 0 
L 0 0 
z
" style="fill:none;"/>
  </g>
  <g id="axes_1">
   <g id="patch_2">
    <path d="M 70.749375 212.508893 
L 405.549375 212.508893 
L 405.549375 7.2 
L 70.749375 7.2 
z
" style="fill:#ffffff;"/>
   </g>
   <g id="patch_3">
    <path clip-path="url(#pc85dd2b8bf)" d="M 382.113375 775.878147 
L 387.135375 775.878147 
L 387.135375 108.300206 
L 382.113375 108.300206 
z
" style="fill:#0072ce;"/>
   </g>
   <g id="patch_4">
    <path clip-path="url(#pc85dd2b8bf)" d="M 375.138375 775.878147 
L 380.160375 775.878147 
L 380.160375 151.887769 
L 375.138375 151.887769 
z
" style="fill:#0072ce;"/>
   </g>
   <g id="patch_5">
    <path clip-path="url(#pc85dd2b8bf)" d="M 368.163375 775.878147 
L 373.185375 775.878147 
L 373.185375 147.299604 
L 368.163375 147.299604 
z
" style="fill:#0072ce;"/>
   </g>
   <g id="patch_6">
    <path clip-path="url(#pc85dd2b8bf)" d="M 361.188375 775.878147 
L 366.210375 775.878147 
L 366.210375 123.211741 
L 361.188375 123.211741 
z
" style="fill:#0072ce;"/>
   </g>
   <g id="patch_7">
    <path clip-path="url(#pc85dd2b8bf)" d="M 354.213375 775.878147 
L 359.235375 775.878147 
L 359.235375 173.68155 
L 354.213375 173.68155 
z
" style="fill:#0072ce;"/>
   </g>
   <g id="patch_8">
    <path clip-path="url(#pc85dd2b8bf)" d="M 347.238375 775.878147 
L 352.260375 775.878147 
L 352.260375 32.595491 
L 347.238375 32.595491 
z
" style="fill:#0072ce;"/>
   </g>
   <g id="patch_9">
    <path clip-path="url(#pc85dd2b8bf)" d="M 340.263375 775.878147 
L 345.285375 775.878147 
L 345.285375 39.477738 
L 340.263375 39.477738 
z
" style="fill:#0072ce;"/>
   </g>
   <g id="patch_10">
    <path clip-path="url(#pc85dd2b8bf)" d="M 333.288375 775.878147 
L 338.310375 775.878147 
L 338.310375 78.477136 
L 333.288375 78.477136 
z
" style="fill:#0072ce;"/>
   </g>
   <g id="patch_11">
    <path clip-path="url(#pc85dd2b8bf)" d="M 326.313375 775.878147 
L 331.335375 775.878147 
L 331.335375 72.741931 
L 326.313375 72.741931 
z
" style="fill:#0072ce;"/>
   </g>
   <g id="patch_12">
    <path clip-path="url(#pc85dd2b8bf)" d="M 319.338375 775.878147 
L 324.360375 775.878147 
L 324.360375 68.153766 
L 319.338375 68.153766 
z
" style="fill:#0072ce;"/>
   </g>
   <g id="patch_13">
    <path clip-path="url(#pc85dd2b8bf)" d="M 312.363375 775.878147 
L 317.385375 775.878147 
L 317.385375 88.800506 
L 312.363375 88.800506 
z
" style="fill:#0072ce;"/>
   </g>
   <g id="patch_14">
    <path clip-path="url(#pc85dd2b8bf)" d="M 305.388375 775.878147 
L 310.410375 775.878147 
L 310.410375 86.506424 
L 305.388375 86.506424 
z
" style="fill:#0072ce;"/>
   </g>
   <g id="patch_15">
    <path clip-path="url(#pc85dd2b8bf)" d="M 298.413375 775.878147 
L 303.435375 775.878147 
L 303.435375 92.24163 
L 298.413375 92.24163 
z
" style="fill:#0072ce;"/>
   </g>
   <g id="patch_16">
    <path clip-path="url(#pc85dd2b8bf)" d="M 291.438375 775.878147 
L 296.460375 775.878147 
L 296.460375 84.212342 
L 291.438375 84.212342 
z
" style="fill:#0072ce;"/>
   </g>
   <g id="patch_17">
    <path clip-path="url(#pc85dd2b8bf)" d="M 284.463375 775.878147 
L 289.485375 775.878147 
L 289.485375 92.24163 
L 284.463375 92.24163 
z
" style="fill:#0072ce;"/>
   </g>
   <g id="patch_18">
    <path clip-path="url(#pc85dd2b8bf)" d="M 277.488375 775.878147 
L 282.510375 775.878147 
L 282.510375 99.123877 
L 277.488375 99.123877 
z
" style="fill:#0072ce;"/>
   </g>
   <g id="patch_19">
    <path clip-path="url(#pc85dd2b8bf)" d="M 270.513375 775.878147 
L 275.535375 775.878147 
L 275.535375 102.565 
L 270.513375 102.565 
z
" style="fill:#0072ce;"/>
   </g>
   <g id="patch_20">
    <path clip-path="url(#pc85dd2b8bf)" d="M 263.538375 775.878147 
L 268.560375 775.878147 
L 268.560375 169.093386 
L 263.538375 169.093386 
z
" style="fill:#0072ce;"/>
   </g>
   <g id="patch_21">
    <path clip-path="url(#pc85dd2b8bf)" d="M 256.563375 775.878147 
L 261.585375 775.878147 
L 261.585375 174.828592 
L 256.563375 174.828592 
z
" style="fill:#0072ce;"/>
   </g>
   <g id="patch_22">
    <path clip-path="url(#pc85dd2b8bf)" d="M 249.588375 775.878147 
L 254.610375 775.878147 
L 254.610375 182.85788 
L 249.588375 182.85788 
z
" style="fill:#0072ce;"/>
   </g>
   <g id="patch_23">
    <path clip-path="url(#pc85dd2b8bf)" d="M 242.613375 775.878147 
L 247.635375 775.878147 
L 247.635375 87.653465 
L 242.613375 87.653465 
z
" style="fill:#0072ce;"/>
   </g>
   <g id="patch_24">
    <path clip-path="url(#pc85dd2b8bf)" d="M 235.638375 775.878147 
L 240.660375 775.878147 
L 240.660375 87.653465 
L 235.638375 87.653465 
z
" style="fill:#0072ce;"/>
   </g>
   <g id="patch_25">
    <path clip-path="url(#pc85dd2b8bf)" d="M 228.663375 775.878147 
L 233.685375 775.878147 
L 233.685375 96.829794 
L 228.663375 96.829794 
z
" style="fill:#0072ce;"/>
   </g>
   <g id="patch_26">
    <path clip-path="url(#pc85dd2b8bf)" d="M 221.688375 775.878147 
L 226.710375 775.878147 
L 226.710375 95.682753 
L 221.688375 95.682753 
z
" style="fill:#0072ce;"/>
   </g>
   <g id="patch_27">
    <path clip-path="url(#pc85dd2b8bf)" d="M 214.713375 775.878147 
L 219.735375 775.878147 
L 219.735375 84.212342 
L 214.713375 84.212342 
z
" style="fill:#0072ce;"/>
   </g>
   <g id="patch_28">
    <path clip-path="url(#pc85dd2b8bf)" d="M 207.738375 775.878147 
L 212.760375 775.878147 
L 212.760375 85.359383 
L 207.738375 85.359383 
z
" style="fill:#0072ce;"/>
   </g>
   <g id="patch_29">
    <path clip-path="url(#pc85dd2b8bf)" d="M 200.763375 775.878147 
L 205.785375 775.878147 
L 205.785375 116.329494 
L 200.763375 116.329494 
z
" style="fill:#0072ce;"/>
   </g>
   <g id="patch_30">
    <path clip-path="url(#pc85dd2b8bf)" d="M 193.788375 775.878147 
L 198.810375 775.878147 
L 198.810375 120.917658 
L 193.788375 120.917658 
z
" style="fill:#0072ce;"/>
   </g>
   <g id="patch_31">
    <path clip-path="url(#pc85dd2b8bf)" d="M 186.813375 775.878147 
L 191.835375 775.878147 
L 191.835375 57.830396 
L 186.813375 57.830396 
z
" style="fill:#0072ce;"/>
   </g>
   <g id="patch_32">
    <path clip-path="url(#pc85dd2b8bf)" d="M 179.838375 775.878147 
L 184.860375 775.878147 
L 184.860375 22.272121 
L 179.838375 22.272121 
z
" style="fill:#0072ce;"/>
   </g>
   <g id="patch_33">
    <path clip-path="url(#pc85dd2b8bf)" d="M 172.863375 775.878147 
L 177.885375 775.878147 
L 177.885375 30.301408 
L 172.863375 30.301408 
z
" style="fill:#0072ce;"/>
   </g>
   <g id="patch_34">
    <path clip-path="url(#pc85dd2b8bf)" d="M 165.888375 775.878147 
L 170.910375 775.878147 
L 170.910375 48.654067 
L 165.888375 48.654067 
z
" style="fill:#0072ce;"/>
   </g>
   <g id="patch_35">
    <path clip-path="url(#pc85dd2b8bf)" d="M 158.913375 775.878147 
L 163.935375 775.878147 
L 163.935375 37.183655 
L 158.913375 37.183655 
z
" style="fill:#0072ce;"/>
   </g>
   <g id="patch_36">
    <path clip-path="url(#pc85dd2b8bf)" d="M 151.938375 775.878147 
L 156.960375 775.878147 
L 156.960375 32.595491 
L 151.938375 32.595491 
z
" style="fill:#0072ce;"/>
   </g>
   <g id="patch_37">
    <path clip-path="url(#pc85dd2b8bf)" d="M 144.963375 775.878147 
L 149.985375 775.878147 
L 149.985375 77.330095 
L 144.963375 77.330095 
z
" style="fill:#0072ce;"/>
   </g>
   <g id="patch_38">
    <path clip-path="url(#pc85dd2b8bf)" d="M 137.988375 775.878147 
L 143.010375 775.878147 
L 143.010375 96.829794 
L 137.988375 96.829794 
z
" style="fill:#0072ce;"/>
   </g>
   <g id="patch_39">
    <path clip-path="url(#pc85dd2b8bf)" d="M 131.013375 775.878147 
L 136.035375 775.878147 
L 136.035375 63.565601 
L 131.013375 63.565601 
z
" style="fill:#0072ce;"/>
   </g>
   <g id="patch_40">
    <path clip-path="url(#pc85dd2b8bf)" d="M 124.038375 775.878147 
L 129.060375 775.878147 
L 129.060375 45.212943 
L 124.038375 45.212943 
z
" style="fill:#0072ce;"/>
   </g>
   <g id="patch_41">
    <path clip-path="url(#pc85dd2b8bf)" d="M 117.063375 775.878147 
L 122.085375 775.878147 
L 122.085375 52.09519 
L 117.063375 52.09519 
z
" style="fill:#0072ce;"/>
   </g>
   <g id="patch_42">
    <path clip-path="url(#pc85dd2b8bf)" d="M 110.088375 775.878147 
L 115.110375 775.878147 
L 115.110375 60.124478 
L 110.088375 60.124478 
z
" style="fill:#0072ce;"/>
   </g>
   <g id="patch_43">
    <path clip-path="url(#pc85dd2b8bf)" d="M 103.113375 775.878147 
L 108.135375 775.878147 
L 108.135375 139.270316 
L 103.113375 139.270316 
z
" style="fill:#0072ce;"/>
   </g>
   <g id="patch_44">
    <path clip-path="url(#pc85dd2b8bf)" d="M 96.138375 775.878147 
L 101.160375 775.878147 
L 101.160375 148.446645 
L 96.138375 148.446645 
z
" style="fill:#0072ce;"/>
   </g>
   <g id="patch_45">
    <path clip-path="url(#pc85dd2b8bf)" d="M 89.163375 775.878147 
L 94.185375 775.878147 
L 94.185375 172.534509 
L 89.163375 172.534509 
z
" style="fill:#0072ce;"/>
   </g>
   <g id="matplotlib.axis_1">
    <g id="xtick_1"/>
    <g id="xtick_2"/>
    <g id="xtick_3"/>
    <g id="xtick_4"/>
    <g id="xtick_5"/>
    <g id="xtick_6"/>
    <g id="xtick_7"/>
   </g>
   <g id="matplotlib.axis_2">
    <g id="ytick_1">
     <g id="line2d_1">
      <defs>
       <path d="M 0 0 
L -3.5 0 
" id="m565368837c" style="stroke:#000000;stroke-width:0.8;"/>
      </defs>
      <g>
       <use style="stroke:#000000;stroke-width:0.8;" x="70.749375" xlink:href="#m565368837c" y="202.357579"/>
      </g>
     </g>
     <g id="text_1">
      <!-- 500 -->
      <g transform="translate(37.026875 207.676485)scale(0.14 -0.14)">
       <defs>
        <path d="M 691 4666 
L 3169 4666 
L 3169 4134 
L 1269 4134 
L 1269 2991 
Q 1406 3038 1543 3061 
Q 1681 3084 1819 3084 
Q 2600 3084 3056 2656 
Q 3513 2228 3513 1497 
Q 3513 744 3044 326 
Q 2575 -91 1722 -91 
Q 1428 -91 1123 -41 
Q 819 9 494 109 
L 494 744 
Q 775 591 1075 516 
Q 1375 441 1709 441 
Q 2250 441 2565 725 
Q 2881 1009 2881 1497 
Q 2881 1984 2565 2268 
Q 2250 2553 1709 2553 
Q 1456 2553 1204 2497 
Q 953 2441 691 2322 
L 691 4666 
z
" id="DejaVuSans-35" transform="scale(0.015625)"/>
        <path d="M 2034 4250 
Q 1547 4250 1301 3770 
Q 1056 3291 1056 2328 
Q 1056 1369 1301 889 
Q 1547 409 2034 409 
Q 2525 409 2770 889 
Q 3016 1369 3016 2328 
Q 3016 3291 2770 3770 
Q 2525 4250 2034 4250 
z
M 2034 4750 
Q 2819 4750 3233 4129 
Q 3647 3509 3647 2328 
Q 3647 1150 3233 529 
Q 2819 -91 2034 -91 
Q 1250 -91 836 529 
Q 422 1150 422 2328 
Q 422 3509 836 4129 
Q 1250 4750 2034 4750 
z
" id="DejaVuSans-30" transform="scale(0.015625)"/>
       </defs>
       <use xlink:href="#DejaVuSans-35"/>
       <use x="63.623047" xlink:href="#DejaVuSans-30"/>
       <use x="127.246094" xlink:href="#DejaVuSans-30"/>
      </g>
     </g>
    </g>
    <g id="ytick_2">
     <g id="line2d_2">
      <g>
       <use style="stroke:#000000;stroke-width:0.8;" x="70.749375" xlink:href="#m565368837c" y="145.005522"/>
      </g>
     </g>
     <g id="text_2">
      <!-- 550 -->
      <g transform="translate(37.026875 150.324428)scale(0.14 -0.14)">
       <use xlink:href="#DejaVuSans-35"/>
       <use x="63.623047" xlink:href="#DejaVuSans-35"/>
       <use x="127.246094" xlink:href="#DejaVuSans-30"/>
      </g>
     </g>
    </g>
    <g id="ytick_3">
     <g id="line2d_3">
      <g>
       <use style="stroke:#000000;stroke-width:0.8;" x="70.749375" xlink:href="#m565368837c" y="87.653465"/>
      </g>
     </g>
     <g id="text_3">
      <!-- 600 -->
      <g transform="translate(37.026875 92.972372)scale(0.14 -0.14)">
       <defs>
        <path d="M 2113 2584 
Q 1688 2584 1439 2293 
Q 1191 2003 1191 1497 
Q 1191 994 1439 701 
Q 1688 409 2113 409 
Q 2538 409 2786 701 
Q 3034 994 3034 1497 
Q 3034 2003 2786 2293 
Q 2538 2584 2113 2584 
z
M 3366 4563 
L 3366 3988 
Q 3128 4100 2886 4159 
Q 2644 4219 2406 4219 
Q 1781 4219 1451 3797 
Q 1122 3375 1075 2522 
Q 1259 2794 1537 2939 
Q 1816 3084 2150 3084 
Q 2853 3084 3261 2657 
Q 3669 2231 3669 1497 
Q 3669 778 3244 343 
Q 2819 -91 2113 -91 
Q 1303 -91 875 529 
Q 447 1150 447 2328 
Q 447 3434 972 4092 
Q 1497 4750 2381 4750 
Q 2619 4750 2861 4703 
Q 3103 4656 3366 4563 
z
" id="DejaVuSans-36" transform="scale(0.015625)"/>
       </defs>
       <use xlink:href="#DejaVuSans-36"/>
       <use x="63.623047" xlink:href="#DejaVuSans-30"/>
       <use x="127.246094" xlink:href="#DejaVuSans-30"/>
      </g>
     </g>
    </g>
    <g id="ytick_4">
     <g id="line2d_4">
      <g>
       <use style="stroke:#000000;stroke-width:0.8;" x="70.749375" xlink:href="#m565368837c" y="30.301408"/>
      </g>
     </g>
     <g id="text_4">
      <!-- 650 -->
      <g transform="translate(37.026875 35.620315)scale(0.14 -0.14)">
       <use xlink:href="#DejaVuSans-36"/>
       <use x="63.623047" xlink:href="#DejaVuSans-35"/>
       <use x="127.246094" xlink:href="#DejaVuSans-30"/>
      </g>
     </g>
    </g>
   </g>
   <g id="line2d_5">
    <path d="M 66.167323 217.090945 
L 75.331427 207.926841 
" style="fill:none;stroke:#000000;stroke-linecap:square;stroke-width:0.8;"/>
   </g>
   <g id="patch_46">
    <path d="M 70.749375 212.508893 
L 70.749375 7.2 
" style="fill:none;stroke:#000000;stroke-linecap:square;stroke-linejoin:miter;stroke-width:0.8;"/>
   </g>
  </g>
  <g id="axes_2">
   <g id="patch_47">
    <path d="M 70.749375 224.64 
L 405.549375 224.64 
L 405.549375 220.87197 
L 70.749375 220.87197 
z
" style="fill:#ffffff;"/>
   </g>
   <g id="patch_48">
    <path clip-path="url(#p3e5b29b1a7)" d="M 382.113375 224.64 
L 387.135375 224.64 
L 387.135375 -442.937941 
L 382.113375 -442.937941 
z
" style="fill:#0072ce;"/>
   </g>
   <g id="patch_49">
    <path clip-path="url(#p3e5b29b1a7)" d="M 375.138375 224.64 
L 380.160375 224.64 
L 380.160375 -399.350378 
L 375.138375 -399.350378 
z
" style="fill:#0072ce;"/>
   </g>
   <g id="patch_50">
    <path clip-path="url(#p3e5b29b1a7)" d="M 368.163375 224.64 
L 373.185375 224.64 
L 373.185375 -403.938543 
L 368.163375 -403.938543 
z
" style="fill:#0072ce;"/>
   </g>
   <g id="patch_51">
    <path clip-path="url(#p3e5b29b1a7)" d="M 361.188375 224.64 
L 366.210375 224.64 
L 366.210375 -428.026406 
L 361.188375 -428.026406 
z
" style="fill:#0072ce;"/>
   </g>
   <g id="patch_52">
    <path clip-path="url(#p3e5b29b1a7)" d="M 354.213375 224.64 
L 359.235375 224.64 
L 359.235375 -377.556596 
L 354.213375 -377.556596 
z
" style="fill:#0072ce;"/>
   </g>
   <g id="patch_53">
    <path clip-path="url(#p3e5b29b1a7)" d="M 347.238375 224.64 
L 352.260375 224.64 
L 352.260375 -518.642656 
L 347.238375 -518.642656 
z
" style="fill:#0072ce;"/>
   </g>
   <g id="patch_54">
    <path clip-path="url(#p3e5b29b1a7)" d="M 340.263375 224.64 
L 345.285375 224.64 
L 345.285375 -511.760409 
L 340.263375 -511.760409 
z
" style="fill:#0072ce;"/>
   </g>
   <g id="patch_55">
    <path clip-path="url(#p3e5b29b1a7)" d="M 333.288375 224.64 
L 338.310375 224.64 
L 338.310375 -472.761011 
L 333.288375 -472.761011 
z
" style="fill:#0072ce;"/>
   </g>
   <g id="patch_56">
    <path clip-path="url(#p3e5b29b1a7)" d="M 326.313375 224.64 
L 331.335375 224.64 
L 331.335375 -478.496216 
L 326.313375 -478.496216 
z
" style="fill:#0072ce;"/>
   </g>
   <g id="patch_57">
    <path clip-path="url(#p3e5b29b1a7)" d="M 319.338375 224.64 
L 324.360375 224.64 
L 324.360375 -483.084381 
L 319.338375 -483.084381 
z
" style="fill:#0072ce;"/>
   </g>
   <g id="patch_58">
    <path clip-path="url(#p3e5b29b1a7)" d="M 312.363375 224.64 
L 317.385375 224.64 
L 317.385375 -462.437641 
L 312.363375 -462.437641 
z
" style="fill:#0072ce;"/>
   </g>
   <g id="patch_59">
    <path clip-path="url(#p3e5b29b1a7)" d="M 305.388375 224.64 
L 310.410375 224.64 
L 310.410375 -464.731723 
L 305.388375 -464.731723 
z
" style="fill:#0072ce;"/>
   </g>
   <g id="patch_60">
    <path clip-path="url(#p3e5b29b1a7)" d="M 298.413375 224.64 
L 303.435375 224.64 
L 303.435375 -458.996517 
L 298.413375 -458.996517 
z
" style="fill:#0072ce;"/>
   </g>
   <g id="patch_61">
    <path clip-path="url(#p3e5b29b1a7)" d="M 291.438375 224.64 
L 296.460375 224.64 
L 296.460375 -467.025805 
L 291.438375 -467.025805 
z
" style="fill:#0072ce;"/>
   </g>
   <g id="patch_62">
    <path clip-path="url(#p3e5b29b1a7)" d="M 284.463375 224.64 
L 289.485375 224.64 
L 289.485375 -458.996517 
L 284.463375 -458.996517 
z
" style="fill:#0072ce;"/>
   </g>
   <g id="patch_63">
    <path clip-path="url(#p3e5b29b1a7)" d="M 277.488375 224.64 
L 282.510375 224.64 
L 282.510375 -452.11427 
L 277.488375 -452.11427 
z
" style="fill:#0072ce;"/>
   </g>
   <g id="patch_64">
    <path clip-path="url(#p3e5b29b1a7)" d="M 270.513375 224.64 
L 275.535375 224.64 
L 275.535375 -448.673147 
L 270.513375 -448.673147 
z
" style="fill:#0072ce;"/>
   </g>
   <g id="patch_65">
    <path clip-path="url(#p3e5b29b1a7)" d="M 263.538375 224.64 
L 268.560375 224.64 
L 268.560375 -382.144761 
L 263.538375 -382.144761 
z
" style="fill:#0072ce;"/>
   </g>
   <g id="patch_66">
    <path clip-path="url(#p3e5b29b1a7)" d="M 256.563375 224.64 
L 261.585375 224.64 
L 261.585375 -376.409555 
L 256.563375 -376.409555 
z
" style="fill:#0072ce;"/>
   </g>
   <g id="patch_67">
    <path clip-path="url(#p3e5b29b1a7)" d="M 249.588375 224.64 
L 254.610375 224.64 
L 254.610375 -368.380267 
L 249.588375 -368.380267 
z
" style="fill:#0072ce;"/>
   </g>
   <g id="patch_68">
    <path clip-path="url(#p3e5b29b1a7)" d="M 242.613375 224.64 
L 247.635375 224.64 
L 247.635375 -463.584682 
L 242.613375 -463.584682 
z
" style="fill:#0072ce;"/>
   </g>
   <g id="patch_69">
    <path clip-path="url(#p3e5b29b1a7)" d="M 235.638375 224.64 
L 240.660375 224.64 
L 240.660375 -463.584682 
L 235.638375 -463.584682 
z
" style="fill:#0072ce;"/>
   </g>
   <g id="patch_70">
    <path clip-path="url(#p3e5b29b1a7)" d="M 228.663375 224.64 
L 233.685375 224.64 
L 233.685375 -454.408353 
L 228.663375 -454.408353 
z
" style="fill:#0072ce;"/>
   </g>
   <g id="patch_71">
    <path clip-path="url(#p3e5b29b1a7)" d="M 221.688375 224.64 
L 226.710375 224.64 
L 226.710375 -455.555394 
L 221.688375 -455.555394 
z
" style="fill:#0072ce;"/>
   </g>
   <g id="patch_72">
    <path clip-path="url(#p3e5b29b1a7)" d="M 214.713375 224.64 
L 219.735375 224.64 
L 219.735375 -467.025805 
L 214.713375 -467.025805 
z
" style="fill:#0072ce;"/>
   </g>
   <g id="patch_73">
    <path clip-path="url(#p3e5b29b1a7)" d="M 207.738375 224.64 
L 212.760375 224.64 
L 212.760375 -465.878764 
L 207.738375 -465.878764 
z
" style="fill:#0072ce;"/>
   </g>
   <g id="patch_74">
    <path clip-path="url(#p3e5b29b1a7)" d="M 200.763375 224.64 
L 205.785375 224.64 
L 205.785375 -434.908653 
L 200.763375 -434.908653 
z
" style="fill:#0072ce;"/>
   </g>
   <g id="patch_75">
    <path clip-path="url(#p3e5b29b1a7)" d="M 193.788375 224.64 
L 198.810375 224.64 
L 198.810375 -430.320489 
L 193.788375 -430.320489 
z
" style="fill:#0072ce;"/>
   </g>
   <g id="patch_76">
    <path clip-path="url(#p3e5b29b1a7)" d="M 186.813375 224.64 
L 191.835375 224.64 
L 191.835375 -493.407751 
L 186.813375 -493.407751 
z
" style="fill:#0072ce;"/>
   </g>
   <g id="patch_77">
    <path clip-path="url(#p3e5b29b1a7)" d="M 179.838375 224.64 
L 184.860375 224.64 
L 184.860375 -528.966026 
L 179.838375 -528.966026 
z
" style="fill:#0072ce;"/>
   </g>
   <g id="patch_78">
    <path clip-path="url(#p3e5b29b1a7)" d="M 172.863375 224.64 
L 177.885375 224.64 
L 177.885375 -520.936738 
L 172.863375 -520.936738 
z
" style="fill:#0072ce;"/>
   </g>
   <g id="patch_79">
    <path clip-path="url(#p3e5b29b1a7)" d="M 165.888375 224.64 
L 170.910375 224.64 
L 170.910375 -502.58408 
L 165.888375 -502.58408 
z
" style="fill:#0072ce;"/>
   </g>
   <g id="patch_80">
    <path clip-path="url(#p3e5b29b1a7)" d="M 158.913375 224.64 
L 163.935375 224.64 
L 163.935375 -514.054492 
L 158.913375 -514.054492 
z
" style="fill:#0072ce;"/>
   </g>
   <g id="patch_81">
    <path clip-path="url(#p3e5b29b1a7)" d="M 151.938375 224.64 
L 156.960375 224.64 
L 156.960375 -518.642656 
L 151.938375 -518.642656 
z
" style="fill:#0072ce;"/>
   </g>
   <g id="patch_82">
    <path clip-path="url(#p3e5b29b1a7)" d="M 144.963375 224.64 
L 149.985375 224.64 
L 149.985375 -473.908052 
L 144.963375 -473.908052 
z
" style="fill:#0072ce;"/>
   </g>
   <g id="patch_83">
    <path clip-path="url(#p3e5b29b1a7)" d="M 137.988375 224.64 
L 143.010375 224.64 
L 143.010375 -454.408353 
L 137.988375 -454.408353 
z
" style="fill:#0072ce;"/>
   </g>
   <g id="patch_84">
    <path clip-path="url(#p3e5b29b1a7)" d="M 131.013375 224.64 
L 136.035375 224.64 
L 136.035375 -487.672545 
L 131.013375 -487.672545 
z
" style="fill:#0072ce;"/>
   </g>
   <g id="patch_85">
    <path clip-path="url(#p3e5b29b1a7)" d="M 124.038375 224.64 
L 129.060375 224.64 
L 129.060375 -506.025204 
L 124.038375 -506.025204 
z
" style="fill:#0072ce;"/>
   </g>
   <g id="patch_86">
    <path clip-path="url(#p3e5b29b1a7)" d="M 117.063375 224.64 
L 122.085375 224.64 
L 122.085375 -499.142957 
L 117.063375 -499.142957 
z
" style="fill:#0072ce;"/>
   </g>
   <g id="patch_87">
    <path clip-path="url(#p3e5b29b1a7)" d="M 110.088375 224.64 
L 115.110375 224.64 
L 115.110375 -491.113669 
L 110.088375 -491.113669 
z
" style="fill:#0072ce;"/>
   </g>
   <g id="patch_88">
    <path clip-path="url(#p3e5b29b1a7)" d="M 103.113375 224.64 
L 108.135375 224.64 
L 108.135375 -411.967831 
L 103.113375 -411.967831 
z
" style="fill:#0072ce;"/>
   </g>
   <g id="patch_89">
    <path clip-path="url(#p3e5b29b1a7)" d="M 96.138375 224.64 
L 101.160375 224.64 
L 101.160375 -402.791501 
L 96.138375 -402.791501 
z
" style="fill:#0072ce;"/>
   </g>
   <g id="patch_90">
    <path clip-path="url(#p3e5b29b1a7)" d="M 89.163375 224.64 
L 94.185375 224.64 
L 94.185375 -378.703638 
L 89.163375 -378.703638 
z
" style="fill:#0072ce;"/>
   </g>
   <g id="matplotlib.axis_3">
    <g id="xtick_8">
     <g id="line2d_6">
      <defs>
       <path d="M 0 0 
L 0 3.5 
" id="m6d404f7e1c" style="stroke:#000000;stroke-width:0.8;"/>
      </defs>
      <g>
       <use style="stroke:#000000;stroke-width:0.8;" x="70.749375" xlink:href="#m6d404f7e1c" y="224.64"/>
      </g>
     </g>
     <g id="text_5">
      <!-- 2010 -->
      <g transform="translate(52.934375 242.277813)scale(0.14 -0.14)">
       <defs>
        <path d="M 1228 531 
L 3431 531 
L 3431 0 
L 469 0 
L 469 531 
Q 828 903 1448 1529 
Q 2069 2156 2228 2338 
Q 2531 2678 2651 2914 
Q 2772 3150 2772 3378 
Q 2772 3750 2511 3984 
Q 2250 4219 1831 4219 
Q 1534 4219 1204 4116 
Q 875 4013 500 3803 
L 500 4441 
Q 881 4594 1212 4672 
Q 1544 4750 1819 4750 
Q 2544 4750 2975 4387 
Q 3406 4025 3406 3419 
Q 3406 3131 3298 2873 
Q 3191 2616 2906 2266 
Q 2828 2175 2409 1742 
Q 1991 1309 1228 531 
z
" id="DejaVuSans-32" transform="scale(0.015625)"/>
        <path d="M 794 531 
L 1825 531 
L 1825 4091 
L 703 3866 
L 703 4441 
L 1819 4666 
L 2450 4666 
L 2450 531 
L 3481 531 
L 3481 0 
L 794 0 
L 794 531 
z
" id="DejaVuSans-31" transform="scale(0.015625)"/>
       </defs>
       <use xlink:href="#DejaVuSans-32"/>
       <use x="63.623047" xlink:href="#DejaVuSans-30"/>
       <use x="127.246094" xlink:href="#DejaVuSans-31"/>
       <use x="190.869141" xlink:href="#DejaVuSans-30"/>
      </g>
     </g>
    </g>
    <g id="xtick_9">
     <g id="line2d_7">
      <g>
       <use style="stroke:#000000;stroke-width:0.8;" x="126.549375" xlink:href="#m6d404f7e1c" y="224.64"/>
      </g>
     </g>
     <g id="text_6">
      <!-- 2012 -->
      <g transform="translate(108.734375 242.277813)scale(0.14 -0.14)">
       <use xlink:href="#DejaVuSans-32"/>
       <use x="63.623047" xlink:href="#DejaVuSans-30"/>
       <use x="127.246094" xlink:href="#DejaVuSans-31"/>
       <use x="190.869141" xlink:href="#DejaVuSans-32"/>
      </g>
     </g>
    </g>
    <g id="xtick_10">
     <g id="line2d_8">
      <g>
       <use style="stroke:#000000;stroke-width:0.8;" x="182.349375" xlink:href="#m6d404f7e1c" y="224.64"/>
      </g>
     </g>
     <g id="text_7">
      <!-- 2014 -->
      <g transform="translate(164.534375 242.277813)scale(0.14 -0.14)">
       <defs>
        <path d="M 2419 4116 
L 825 1625 
L 2419 1625 
L 2419 4116 
z
M 2253 4666 
L 3047 4666 
L 3047 1625 
L 3713 1625 
L 3713 1100 
L 3047 1100 
L 3047 0 
L 2419 0 
L 2419 1100 
L 313 1100 
L 313 1709 
L 2253 4666 
z
" id="DejaVuSans-34" transform="scale(0.015625)"/>
       </defs>
       <use xlink:href="#DejaVuSans-32"/>
       <use x="63.623047" xlink:href="#DejaVuSans-30"/>
       <use x="127.246094" xlink:href="#DejaVuSans-31"/>
       <use x="190.869141" xlink:href="#DejaVuSans-34"/>
      </g>
     </g>
    </g>
    <g id="xtick_11">
     <g id="line2d_9">
      <g>
       <use style="stroke:#000000;stroke-width:0.8;" x="238.149375" xlink:href="#m6d404f7e1c" y="224.64"/>
      </g>
     </g>
     <g id="text_8">
      <!-- 2016 -->
      <g transform="translate(220.334375 242.277813)scale(0.14 -0.14)">
       <use xlink:href="#DejaVuSans-32"/>
       <use x="63.623047" xlink:href="#DejaVuSans-30"/>
       <use x="127.246094" xlink:href="#DejaVuSans-31"/>
       <use x="190.869141" xlink:href="#DejaVuSans-36"/>
      </g>
     </g>
    </g>
    <g id="xtick_12">
     <g id="line2d_10">
      <g>
       <use style="stroke:#000000;stroke-width:0.8;" x="293.949375" xlink:href="#m6d404f7e1c" y="224.64"/>
      </g>
     </g>
     <g id="text_9">
      <!-- 2018 -->
      <g transform="translate(276.134375 242.277813)scale(0.14 -0.14)">
       <defs>
        <path d="M 2034 2216 
Q 1584 2216 1326 1975 
Q 1069 1734 1069 1313 
Q 1069 891 1326 650 
Q 1584 409 2034 409 
Q 2484 409 2743 651 
Q 3003 894 3003 1313 
Q 3003 1734 2745 1975 
Q 2488 2216 2034 2216 
z
M 1403 2484 
Q 997 2584 770 2862 
Q 544 3141 544 3541 
Q 544 4100 942 4425 
Q 1341 4750 2034 4750 
Q 2731 4750 3128 4425 
Q 3525 4100 3525 3541 
Q 3525 3141 3298 2862 
Q 3072 2584 2669 2484 
Q 3125 2378 3379 2068 
Q 3634 1759 3634 1313 
Q 3634 634 3220 271 
Q 2806 -91 2034 -91 
Q 1263 -91 848 271 
Q 434 634 434 1313 
Q 434 1759 690 2068 
Q 947 2378 1403 2484 
z
M 1172 3481 
Q 1172 3119 1398 2916 
Q 1625 2713 2034 2713 
Q 2441 2713 2670 2916 
Q 2900 3119 2900 3481 
Q 2900 3844 2670 4047 
Q 2441 4250 2034 4250 
Q 1625 4250 1398 4047 
Q 1172 3844 1172 3481 
z
" id="DejaVuSans-38" transform="scale(0.015625)"/>
       </defs>
       <use xlink:href="#DejaVuSans-32"/>
       <use x="63.623047" xlink:href="#DejaVuSans-30"/>
       <use x="127.246094" xlink:href="#DejaVuSans-31"/>
       <use x="190.869141" xlink:href="#DejaVuSans-38"/>
      </g>
     </g>
    </g>
    <g id="xtick_13">
     <g id="line2d_11">
      <g>
       <use style="stroke:#000000;stroke-width:0.8;" x="349.749375" xlink:href="#m6d404f7e1c" y="224.64"/>
      </g>
     </g>
     <g id="text_10">
      <!-- 2020 -->
      <g transform="translate(331.934375 242.277813)scale(0.14 -0.14)">
       <use xlink:href="#DejaVuSans-32"/>
       <use x="63.623047" xlink:href="#DejaVuSans-30"/>
       <use x="127.246094" xlink:href="#DejaVuSans-32"/>
       <use x="190.869141" xlink:href="#DejaVuSans-30"/>
      </g>
     </g>
    </g>
    <g id="xtick_14">
     <g id="line2d_12">
      <g>
       <use style="stroke:#000000;stroke-width:0.8;" x="405.549375" xlink:href="#m6d404f7e1c" y="224.64"/>
      </g>
     </g>
     <g id="text_11">
      <!-- 2022 -->
      <g transform="translate(387.734375 242.277813)scale(0.14 -0.14)">
       <use xlink:href="#DejaVuSans-32"/>
       <use x="63.623047" xlink:href="#DejaVuSans-30"/>
       <use x="127.246094" xlink:href="#DejaVuSans-32"/>
       <use x="190.869141" xlink:href="#DejaVuSans-32"/>
      </g>
     </g>
    </g>
   </g>
   <g id="matplotlib.axis_4">
    <g id="ytick_5">
     <g id="line2d_13">
      <g>
       <use style="stroke:#000000;stroke-width:0.8;" x="70.749375" xlink:href="#m565368837c" y="224.64"/>
      </g>
     </g>
     <g id="text_12">
      <!-- 0 -->
      <g transform="translate(54.841875 229.958906)scale(0.14 -0.14)">
       <use xlink:href="#DejaVuSans-30"/>
      </g>
     </g>
    </g>
   </g>
   <g id="line2d_14">
    <path d="M 66.167323 225.454022 
L 75.331427 216.289918 
" style="fill:none;stroke:#000000;stroke-linecap:square;stroke-width:0.8;"/>
   </g>
   <g id="patch_91">
    <path d="M 70.749375 224.64 
L 70.749375 220.87197 
" style="fill:none;stroke:#000000;stroke-linecap:square;stroke-linejoin:miter;stroke-width:0.8;"/>
   </g>
   <g id="patch_92">
    <path d="M 70.749375 224.64 
L 405.549375 224.64 
" style="fill:none;stroke:#000000;stroke-linecap:square;stroke-linejoin:miter;stroke-width:0.8;"/>
   </g>
  </g>
  <g id="axes_3">
   <g id="patch_93">
    <path d="M 70.749375 224.64 
L 405.549375 224.64 
L 405.549375 7.2 
L 70.749375 7.2 
z
" style="fill:none;"/>
   </g>
   <g id="matplotlib.axis_5"/>
   <g id="matplotlib.axis_6">
    <g id="text_13">
     <!-- # of Overnight Beds -->
     <g transform="translate(17.837812 187.128594)rotate(-90)scale(0.14 -0.14)">
      <defs>
       <path d="M 3272 2816 
L 2363 2816 
L 2100 1772 
L 3016 1772 
L 3272 2816 
z
M 2803 4594 
L 2478 3297 
L 3391 3297 
L 3719 4594 
L 4219 4594 
L 3897 3297 
L 4872 3297 
L 4872 2816 
L 3775 2816 
L 3519 1772 
L 4513 1772 
L 4513 1294 
L 3397 1294 
L 3072 0 
L 2572 0 
L 2894 1294 
L 1978 1294 
L 1656 0 
L 1153 0 
L 1478 1294 
L 494 1294 
L 494 1772 
L 1594 1772 
L 1856 2816 
L 850 2816 
L 850 3297 
L 1978 3297 
L 2297 4594 
L 2803 4594 
z
" id="DejaVuSans-23" transform="scale(0.015625)"/>
       <path id="DejaVuSans-20" transform="scale(0.015625)"/>
       <path d="M 1959 3097 
Q 1497 3097 1228 2736 
Q 959 2375 959 1747 
Q 959 1119 1226 758 
Q 1494 397 1959 397 
Q 2419 397 2687 759 
Q 2956 1122 2956 1747 
Q 2956 2369 2687 2733 
Q 2419 3097 1959 3097 
z
M 1959 3584 
Q 2709 3584 3137 3096 
Q 3566 2609 3566 1747 
Q 3566 888 3137 398 
Q 2709 -91 1959 -91 
Q 1206 -91 779 398 
Q 353 888 353 1747 
Q 353 2609 779 3096 
Q 1206 3584 1959 3584 
z
" id="DejaVuSans-6f" transform="scale(0.015625)"/>
       <path d="M 2375 4863 
L 2375 4384 
L 1825 4384 
Q 1516 4384 1395 4259 
Q 1275 4134 1275 3809 
L 1275 3500 
L 2222 3500 
L 2222 3053 
L 1275 3053 
L 1275 0 
L 697 0 
L 697 3053 
L 147 3053 
L 147 3500 
L 697 3500 
L 697 3744 
Q 697 4328 969 4595 
Q 1241 4863 1831 4863 
L 2375 4863 
z
" id="DejaVuSans-66" transform="scale(0.015625)"/>
       <path d="M 2522 4238 
Q 1834 4238 1429 3725 
Q 1025 3213 1025 2328 
Q 1025 1447 1429 934 
Q 1834 422 2522 422 
Q 3209 422 3611 934 
Q 4013 1447 4013 2328 
Q 4013 3213 3611 3725 
Q 3209 4238 2522 4238 
z
M 2522 4750 
Q 3503 4750 4090 4092 
Q 4678 3434 4678 2328 
Q 4678 1225 4090 567 
Q 3503 -91 2522 -91 
Q 1538 -91 948 565 
Q 359 1222 359 2328 
Q 359 3434 948 4092 
Q 1538 4750 2522 4750 
z
" id="DejaVuSans-4f" transform="scale(0.015625)"/>
       <path d="M 191 3500 
L 800 3500 
L 1894 563 
L 2988 3500 
L 3597 3500 
L 2284 0 
L 1503 0 
L 191 3500 
z
" id="DejaVuSans-76" transform="scale(0.015625)"/>
       <path d="M 3597 1894 
L 3597 1613 
L 953 1613 
Q 991 1019 1311 708 
Q 1631 397 2203 397 
Q 2534 397 2845 478 
Q 3156 559 3463 722 
L 3463 178 
Q 3153 47 2828 -22 
Q 2503 -91 2169 -91 
Q 1331 -91 842 396 
Q 353 884 353 1716 
Q 353 2575 817 3079 
Q 1281 3584 2069 3584 
Q 2775 3584 3186 3129 
Q 3597 2675 3597 1894 
z
M 3022 2063 
Q 3016 2534 2758 2815 
Q 2500 3097 2075 3097 
Q 1594 3097 1305 2825 
Q 1016 2553 972 2059 
L 3022 2063 
z
" id="DejaVuSans-65" transform="scale(0.015625)"/>
       <path d="M 2631 2963 
Q 2534 3019 2420 3045 
Q 2306 3072 2169 3072 
Q 1681 3072 1420 2755 
Q 1159 2438 1159 1844 
L 1159 0 
L 581 0 
L 581 3500 
L 1159 3500 
L 1159 2956 
Q 1341 3275 1631 3429 
Q 1922 3584 2338 3584 
Q 2397 3584 2469 3576 
Q 2541 3569 2628 3553 
L 2631 2963 
z
" id="DejaVuSans-72" transform="scale(0.015625)"/>
       <path d="M 3513 2113 
L 3513 0 
L 2938 0 
L 2938 2094 
Q 2938 2591 2744 2837 
Q 2550 3084 2163 3084 
Q 1697 3084 1428 2787 
Q 1159 2491 1159 1978 
L 1159 0 
L 581 0 
L 581 3500 
L 1159 3500 
L 1159 2956 
Q 1366 3272 1645 3428 
Q 1925 3584 2291 3584 
Q 2894 3584 3203 3211 
Q 3513 2838 3513 2113 
z
" id="DejaVuSans-6e" transform="scale(0.015625)"/>
       <path d="M 603 3500 
L 1178 3500 
L 1178 0 
L 603 0 
L 603 3500 
z
M 603 4863 
L 1178 4863 
L 1178 4134 
L 603 4134 
L 603 4863 
z
" id="DejaVuSans-69" transform="scale(0.015625)"/>
       <path d="M 2906 1791 
Q 2906 2416 2648 2759 
Q 2391 3103 1925 3103 
Q 1463 3103 1205 2759 
Q 947 2416 947 1791 
Q 947 1169 1205 825 
Q 1463 481 1925 481 
Q 2391 481 2648 825 
Q 2906 1169 2906 1791 
z
M 3481 434 
Q 3481 -459 3084 -895 
Q 2688 -1331 1869 -1331 
Q 1566 -1331 1297 -1286 
Q 1028 -1241 775 -1147 
L 775 -588 
Q 1028 -725 1275 -790 
Q 1522 -856 1778 -856 
Q 2344 -856 2625 -561 
Q 2906 -266 2906 331 
L 2906 616 
Q 2728 306 2450 153 
Q 2172 0 1784 0 
Q 1141 0 747 490 
Q 353 981 353 1791 
Q 353 2603 747 3093 
Q 1141 3584 1784 3584 
Q 2172 3584 2450 3431 
Q 2728 3278 2906 2969 
L 2906 3500 
L 3481 3500 
L 3481 434 
z
" id="DejaVuSans-67" transform="scale(0.015625)"/>
       <path d="M 3513 2113 
L 3513 0 
L 2938 0 
L 2938 2094 
Q 2938 2591 2744 2837 
Q 2550 3084 2163 3084 
Q 1697 3084 1428 2787 
Q 1159 2491 1159 1978 
L 1159 0 
L 581 0 
L 581 4863 
L 1159 4863 
L 1159 2956 
Q 1366 3272 1645 3428 
Q 1925 3584 2291 3584 
Q 2894 3584 3203 3211 
Q 3513 2838 3513 2113 
z
" id="DejaVuSans-68" transform="scale(0.015625)"/>
       <path d="M 1172 4494 
L 1172 3500 
L 2356 3500 
L 2356 3053 
L 1172 3053 
L 1172 1153 
Q 1172 725 1289 603 
Q 1406 481 1766 481 
L 2356 481 
L 2356 0 
L 1766 0 
Q 1100 0 847 248 
Q 594 497 594 1153 
L 594 3053 
L 172 3053 
L 172 3500 
L 594 3500 
L 594 4494 
L 1172 4494 
z
" id="DejaVuSans-74" transform="scale(0.015625)"/>
       <path d="M 1259 2228 
L 1259 519 
L 2272 519 
Q 2781 519 3026 730 
Q 3272 941 3272 1375 
Q 3272 1813 3026 2020 
Q 2781 2228 2272 2228 
L 1259 2228 
z
M 1259 4147 
L 1259 2741 
L 2194 2741 
Q 2656 2741 2882 2914 
Q 3109 3088 3109 3444 
Q 3109 3797 2882 3972 
Q 2656 4147 2194 4147 
L 1259 4147 
z
M 628 4666 
L 2241 4666 
Q 2963 4666 3353 4366 
Q 3744 4066 3744 3513 
Q 3744 3084 3544 2831 
Q 3344 2578 2956 2516 
Q 3422 2416 3680 2098 
Q 3938 1781 3938 1306 
Q 3938 681 3513 340 
Q 3088 0 2303 0 
L 628 0 
L 628 4666 
z
" id="DejaVuSans-42" transform="scale(0.015625)"/>
       <path d="M 2906 2969 
L 2906 4863 
L 3481 4863 
L 3481 0 
L 2906 0 
L 2906 525 
Q 2725 213 2448 61 
Q 2172 -91 1784 -91 
Q 1150 -91 751 415 
Q 353 922 353 1747 
Q 353 2572 751 3078 
Q 1150 3584 1784 3584 
Q 2172 3584 2448 3432 
Q 2725 3281 2906 2969 
z
M 947 1747 
Q 947 1113 1208 752 
Q 1469 391 1925 391 
Q 2381 391 2643 752 
Q 2906 1113 2906 1747 
Q 2906 2381 2643 2742 
Q 2381 3103 1925 3103 
Q 1469 3103 1208 2742 
Q 947 2381 947 1747 
z
" id="DejaVuSans-64" transform="scale(0.015625)"/>
       <path d="M 2834 3397 
L 2834 2853 
Q 2591 2978 2328 3040 
Q 2066 3103 1784 3103 
Q 1356 3103 1142 2972 
Q 928 2841 928 2578 
Q 928 2378 1081 2264 
Q 1234 2150 1697 2047 
L 1894 2003 
Q 2506 1872 2764 1633 
Q 3022 1394 3022 966 
Q 3022 478 2636 193 
Q 2250 -91 1575 -91 
Q 1294 -91 989 -36 
Q 684 19 347 128 
L 347 722 
Q 666 556 975 473 
Q 1284 391 1588 391 
Q 1994 391 2212 530 
Q 2431 669 2431 922 
Q 2431 1156 2273 1281 
Q 2116 1406 1581 1522 
L 1381 1569 
Q 847 1681 609 1914 
Q 372 2147 372 2553 
Q 372 3047 722 3315 
Q 1072 3584 1716 3584 
Q 2034 3584 2315 3537 
Q 2597 3491 2834 3397 
z
" id="DejaVuSans-73" transform="scale(0.015625)"/>
      </defs>
      <use xlink:href="#DejaVuSans-23"/>
      <use x="83.789062" xlink:href="#DejaVuSans-20"/>
      <use x="115.576172" xlink:href="#DejaVuSans-6f"/>
      <use x="176.757812" xlink:href="#DejaVuSans-66"/>
      <use x="211.962891" xlink:href="#DejaVuSans-20"/>
      <use x="243.75" xlink:href="#DejaVuSans-4f"/>
      <use x="322.460938" xlink:href="#DejaVuSans-76"/>
      <use x="381.640625" xlink:href="#DejaVuSans-65"/>
      <use x="443.164062" xlink:href="#DejaVuSans-72"/>
      <use x="482.527344" xlink:href="#DejaVuSans-6e"/>
      <use x="545.90625" xlink:href="#DejaVuSans-69"/>
      <use x="573.689453" xlink:href="#DejaVuSans-67"/>
      <use x="637.166016" xlink:href="#DejaVuSans-68"/>
      <use x="700.544922" xlink:href="#DejaVuSans-74"/>
      <use x="739.753906" xlink:href="#DejaVuSans-20"/>
      <use x="771.541016" xlink:href="#DejaVuSans-42"/>
      <use x="840.144531" xlink:href="#DejaVuSans-65"/>
      <use x="901.667969" xlink:href="#DejaVuSans-64"/>
      <use x="965.144531" xlink:href="#DejaVuSans-73"/>
     </g>
    </g>
   </g>
  </g>
 </g>
 <defs>
  <clipPath id="pc85dd2b8bf">
   <rect height="205.308893" width="334.8" x="70.749375" y="7.2"/>
  </clipPath>
  <clipPath id="p3e5b29b1a7">
   <rect height="3.76803" width="334.8" x="70.749375" y="220.87197"/>
  </clipPath>
 </defs>
</svg>
