<?xml version="1.0" encoding="utf-8" standalone="no"?>
<!DOCTYPE svg PUBLIC "-//W3C//DTD SVG 1.1//EN"
  "http://www.w3.org/Graphics/SVG/1.1/DTD/svg11.dtd">
<!-- Created with matplotlib (https://matplotlib.org/) -->
<svg height="288pt" version="1.1" viewBox="0 0 432 288" width="432pt" xmlns="http://www.w3.org/2000/svg" xmlns:xlink="http://www.w3.org/1999/xlink">
 <defs>
  <style type="text/css">
*{stroke-linecap:butt;stroke-linejoin:round;}
  </style>
 </defs>
 <g id="figure_1">
  <g id="patch_1">
   <path d="M 0 288 
L 432 288 
L 432 0 
L 0 0 
z
" style="fill:#ffffff;"/>
  </g>
  <g id="axes_1">
   <g id="patch_2">
    <path d="M 57.87 237.778155 
L 416.88 237.778155 
L 416.88 15.12 
L 57.87 15.12 
z
" style="fill:#ffffff;"/>
   </g>
   <g id="matplotlib.axis_1">
    <g id="xtick_1">
     <g id="line2d_1">
      <defs>
       <path d="M 0 0 
L 0 3.5 
" id="m3a6a6362a6" style="stroke:#000000;stroke-width:0.8;"/>
      </defs>
      <g>
       <use style="stroke:#000000;stroke-width:0.8;" x="74.188636" xlink:href="#m3a6a6362a6" y="237.778155"/>
      </g>
     </g>
     <g id="text_1">
      <!-- Mar -->
      <defs>
       <path d="M 9.8125 72.90625 
L 24.515625 72.90625 
L 43.109375 23.296875 
L 61.8125 72.90625 
L 76.515625 72.90625 
L 76.515625 0 
L 66.890625 0 
L 66.890625 64.015625 
L 48.09375 14.015625 
L 38.1875 14.015625 
L 19.390625 64.015625 
L 19.390625 0 
L 9.8125 0 
z
" id="DejaVuSans-77"/>
       <path d="M 34.28125 27.484375 
Q 23.390625 27.484375 19.1875 25 
Q 14.984375 22.515625 14.984375 16.5 
Q 14.984375 11.71875 18.140625 8.90625 
Q 21.296875 6.109375 26.703125 6.109375 
Q 34.1875 6.109375 38.703125 11.40625 
Q 43.21875 16.703125 43.21875 25.484375 
L 43.21875 27.484375 
z
M 52.203125 31.203125 
L 52.203125 0 
L 43.21875 0 
L 43.21875 8.296875 
Q 40.140625 3.328125 35.546875 0.953125 
Q 30.953125 -1.421875 24.3125 -1.421875 
Q 15.921875 -1.421875 10.953125 3.296875 
Q 6 8.015625 6 15.921875 
Q 6 25.140625 12.171875 29.828125 
Q 18.359375 34.515625 30.609375 34.515625 
L 43.21875 34.515625 
L 43.21875 35.40625 
Q 43.21875 41.609375 39.140625 45 
Q 35.0625 48.390625 27.6875 48.390625 
Q 23 48.390625 18.546875 47.265625 
Q 14.109375 46.140625 10.015625 43.890625 
L 10.015625 52.203125 
Q 14.9375 54.109375 19.578125 55.046875 
Q 24.21875 56 28.609375 56 
Q 40.484375 56 46.34375 49.84375 
Q 52.203125 43.703125 52.203125 31.203125 
z
" id="DejaVuSans-97"/>
       <path d="M 41.109375 46.296875 
Q 39.59375 47.171875 37.8125 47.578125 
Q 36.03125 48 33.890625 48 
Q 26.265625 48 22.1875 43.046875 
Q 18.109375 38.09375 18.109375 28.8125 
L 18.109375 0 
L 9.078125 0 
L 9.078125 54.6875 
L 18.109375 54.6875 
L 18.109375 46.1875 
Q 20.953125 51.171875 25.484375 53.578125 
Q 30.03125 56 36.53125 56 
Q 37.453125 56 38.578125 55.875 
Q 39.703125 55.765625 41.0625 55.515625 
z
" id="DejaVuSans-114"/>
      </defs>
      <g transform="translate(65.585867 268.642624)rotate(-35)scale(0.14 -0.14)">
       <use xlink:href="#DejaVuSans-77"/>
       <use x="86.279297" xlink:href="#DejaVuSans-97"/>
       <use x="147.558594" xlink:href="#DejaVuSans-114"/>
      </g>
     </g>
    </g>
    <g id="xtick_2">
     <g id="line2d_2">
      <g>
       <use style="stroke:#000000;stroke-width:0.8;" x="110.066489" xlink:href="#m3a6a6362a6" y="237.778155"/>
      </g>
     </g>
     <g id="text_2">
      <!-- Apr -->
      <defs>
       <path d="M 34.1875 63.1875 
L 20.796875 26.90625 
L 47.609375 26.90625 
z
M 28.609375 72.90625 
L 39.796875 72.90625 
L 67.578125 0 
L 57.328125 0 
L 50.6875 18.703125 
L 17.828125 18.703125 
L 11.1875 0 
L 0.78125 0 
z
" id="DejaVuSans-65"/>
       <path d="M 18.109375 8.203125 
L 18.109375 -20.796875 
L 9.078125 -20.796875 
L 9.078125 54.6875 
L 18.109375 54.6875 
L 18.109375 46.390625 
Q 20.953125 51.265625 25.265625 53.625 
Q 29.59375 56 35.59375 56 
Q 45.5625 56 51.78125 48.09375 
Q 58.015625 40.1875 58.015625 27.296875 
Q 58.015625 14.40625 51.78125 6.484375 
Q 45.5625 -1.421875 35.59375 -1.421875 
Q 29.59375 -1.421875 25.265625 0.953125 
Q 20.953125 3.328125 18.109375 8.203125 
z
M 48.6875 27.296875 
Q 48.6875 37.203125 44.609375 42.84375 
Q 40.53125 48.484375 33.40625 48.484375 
Q 26.265625 48.484375 22.1875 42.84375 
Q 18.109375 37.203125 18.109375 27.296875 
Q 18.109375 17.390625 22.1875 11.75 
Q 26.265625 6.109375 33.40625 6.109375 
Q 40.53125 6.109375 44.609375 11.75 
Q 48.6875 17.390625 48.6875 27.296875 
z
" id="DejaVuSans-112"/>
      </defs>
      <g transform="translate(102.362356 267.384162)rotate(-35)scale(0.14 -0.14)">
       <use xlink:href="#DejaVuSans-65"/>
       <use x="68.408203" xlink:href="#DejaVuSans-112"/>
       <use x="131.884766" xlink:href="#DejaVuSans-114"/>
      </g>
     </g>
    </g>
    <g id="xtick_3">
     <g id="line2d_3">
      <g>
       <use style="stroke:#000000;stroke-width:0.8;" x="144.786992" xlink:href="#m3a6a6362a6" y="237.778155"/>
      </g>
     </g>
     <g id="text_3">
      <!-- May -->
      <defs>
       <path d="M 32.171875 -5.078125 
Q 28.375 -14.84375 24.75 -17.8125 
Q 21.140625 -20.796875 15.09375 -20.796875 
L 7.90625 -20.796875 
L 7.90625 -13.28125 
L 13.1875 -13.28125 
Q 16.890625 -13.28125 18.9375 -11.515625 
Q 21 -9.765625 23.484375 -3.21875 
L 25.09375 0.875 
L 2.984375 54.6875 
L 12.5 54.6875 
L 29.59375 11.921875 
L 46.6875 54.6875 
L 56.203125 54.6875 
z
" id="DejaVuSans-121"/>
      </defs>
      <g transform="translate(135.147612 270.094311)rotate(-35)scale(0.14 -0.14)">
       <use xlink:href="#DejaVuSans-77"/>
       <use x="86.279297" xlink:href="#DejaVuSans-97"/>
       <use x="147.558594" xlink:href="#DejaVuSans-121"/>
      </g>
     </g>
    </g>
    <g id="xtick_4">
     <g id="line2d_4">
      <g>
       <use style="stroke:#000000;stroke-width:0.8;" x="180.664845" xlink:href="#m3a6a6362a6" y="237.778155"/>
      </g>
     </g>
     <g id="text_4">
      <!-- Jun -->
      <defs>
       <path d="M 9.8125 72.90625 
L 19.671875 72.90625 
L 19.671875 5.078125 
Q 19.671875 -8.109375 14.671875 -14.0625 
Q 9.671875 -20.015625 -1.421875 -20.015625 
L -5.171875 -20.015625 
L -5.171875 -11.71875 
L -2.09375 -11.71875 
Q 4.4375 -11.71875 7.125 -8.046875 
Q 9.8125 -4.390625 9.8125 5.078125 
z
" id="DejaVuSans-74"/>
       <path d="M 8.5 21.578125 
L 8.5 54.6875 
L 17.484375 54.6875 
L 17.484375 21.921875 
Q 17.484375 14.15625 20.5 10.265625 
Q 23.53125 6.390625 29.59375 6.390625 
Q 36.859375 6.390625 41.078125 11.03125 
Q 45.3125 15.671875 45.3125 23.6875 
L 45.3125 54.6875 
L 54.296875 54.6875 
L 54.296875 0 
L 45.3125 0 
L 45.3125 8.40625 
Q 42.046875 3.421875 37.71875 1 
Q 33.40625 -1.421875 27.6875 -1.421875 
Q 18.265625 -1.421875 13.375 4.4375 
Q 8.5 10.296875 8.5 21.578125 
z
M 31.109375 56 
z
" id="DejaVuSans-117"/>
       <path d="M 54.890625 33.015625 
L 54.890625 0 
L 45.90625 0 
L 45.90625 32.71875 
Q 45.90625 40.484375 42.875 44.328125 
Q 39.84375 48.1875 33.796875 48.1875 
Q 26.515625 48.1875 22.3125 43.546875 
Q 18.109375 38.921875 18.109375 30.90625 
L 18.109375 0 
L 9.078125 0 
L 9.078125 54.6875 
L 18.109375 54.6875 
L 18.109375 46.1875 
Q 21.34375 51.125 25.703125 53.5625 
Q 30.078125 56 35.796875 56 
Q 45.21875 56 50.046875 50.171875 
Q 54.890625 44.34375 54.890625 33.015625 
z
" id="DejaVuSans-110"/>
      </defs>
      <g transform="translate(173.921167 266.039125)rotate(-35)scale(0.14 -0.14)">
       <use xlink:href="#DejaVuSans-74"/>
       <use x="29.492188" xlink:href="#DejaVuSans-117"/>
       <use x="92.871094" xlink:href="#DejaVuSans-110"/>
      </g>
     </g>
    </g>
    <g id="xtick_5">
     <g id="line2d_5">
      <g>
       <use style="stroke:#000000;stroke-width:0.8;" x="215.385348" xlink:href="#m3a6a6362a6" y="237.778155"/>
      </g>
     </g>
     <g id="text_5">
      <!-- Jul -->
      <defs>
       <path d="M 9.421875 75.984375 
L 18.40625 75.984375 
L 18.40625 0 
L 9.421875 0 
z
" id="DejaVuSans-108"/>
      </defs>
      <g transform="translate(210.682639 263.180922)rotate(-35)scale(0.14 -0.14)">
       <use xlink:href="#DejaVuSans-74"/>
       <use x="29.492188" xlink:href="#DejaVuSans-117"/>
       <use x="92.871094" xlink:href="#DejaVuSans-108"/>
      </g>
     </g>
    </g>
    <g id="xtick_6">
     <g id="line2d_6">
      <g>
       <use style="stroke:#000000;stroke-width:0.8;" x="251.263201" xlink:href="#m3a6a6362a6" y="237.778155"/>
      </g>
     </g>
     <g id="text_6">
      <!-- Aug -->
      <defs>
       <path d="M 45.40625 27.984375 
Q 45.40625 37.75 41.375 43.109375 
Q 37.359375 48.484375 30.078125 48.484375 
Q 22.859375 48.484375 18.828125 43.109375 
Q 14.796875 37.75 14.796875 27.984375 
Q 14.796875 18.265625 18.828125 12.890625 
Q 22.859375 7.515625 30.078125 7.515625 
Q 37.359375 7.515625 41.375 12.890625 
Q 45.40625 18.265625 45.40625 27.984375 
z
M 54.390625 6.78125 
Q 54.390625 -7.171875 48.1875 -13.984375 
Q 42 -20.796875 29.203125 -20.796875 
Q 24.46875 -20.796875 20.265625 -20.09375 
Q 16.0625 -19.390625 12.109375 -17.921875 
L 12.109375 -9.1875 
Q 16.0625 -11.328125 19.921875 -12.34375 
Q 23.78125 -13.375 27.78125 -13.375 
Q 36.625 -13.375 41.015625 -8.765625 
Q 45.40625 -4.15625 45.40625 5.171875 
L 45.40625 9.625 
Q 42.625 4.78125 38.28125 2.390625 
Q 33.9375 0 27.875 0 
Q 17.828125 0 11.671875 7.65625 
Q 5.515625 15.328125 5.515625 27.984375 
Q 5.515625 40.671875 11.671875 48.328125 
Q 17.828125 56 27.875 56 
Q 33.9375 56 38.28125 53.609375 
Q 42.625 51.21875 45.40625 46.390625 
L 45.40625 54.6875 
L 54.390625 54.6875 
z
" id="DejaVuSans-103"/>
      </defs>
      <g transform="translate(242.282342 269.172107)rotate(-35)scale(0.14 -0.14)">
       <use xlink:href="#DejaVuSans-65"/>
       <use x="68.408203" xlink:href="#DejaVuSans-117"/>
       <use x="131.787109" xlink:href="#DejaVuSans-103"/>
      </g>
     </g>
    </g>
    <g id="xtick_7">
     <g id="line2d_7">
      <g>
       <use style="stroke:#000000;stroke-width:0.8;" x="287.141054" xlink:href="#m3a6a6362a6" y="237.778155"/>
      </g>
     </g>
     <g id="text_7">
      <!-- Sep -->
      <defs>
       <path d="M 53.515625 70.515625 
L 53.515625 60.890625 
Q 47.90625 63.578125 42.921875 64.890625 
Q 37.9375 66.21875 33.296875 66.21875 
Q 25.25 66.21875 20.875 63.09375 
Q 16.5 59.96875 16.5 54.203125 
Q 16.5 49.359375 19.40625 46.890625 
Q 22.3125 44.4375 30.421875 42.921875 
L 36.375 41.703125 
Q 47.40625 39.59375 52.65625 34.296875 
Q 57.90625 29 57.90625 20.125 
Q 57.90625 9.515625 50.796875 4.046875 
Q 43.703125 -1.421875 29.984375 -1.421875 
Q 24.8125 -1.421875 18.96875 -0.25 
Q 13.140625 0.921875 6.890625 3.21875 
L 6.890625 13.375 
Q 12.890625 10.015625 18.65625 8.296875 
Q 24.421875 6.59375 29.984375 6.59375 
Q 38.421875 6.59375 43.015625 9.90625 
Q 47.609375 13.234375 47.609375 19.390625 
Q 47.609375 24.75 44.3125 27.78125 
Q 41.015625 30.8125 33.5 32.328125 
L 27.484375 33.5 
Q 16.453125 35.6875 11.515625 40.375 
Q 6.59375 45.0625 6.59375 53.421875 
Q 6.59375 63.09375 13.40625 68.65625 
Q 20.21875 74.21875 32.171875 74.21875 
Q 37.3125 74.21875 42.625 73.28125 
Q 47.953125 72.359375 53.515625 70.515625 
z
" id="DejaVuSans-83"/>
       <path d="M 56.203125 29.59375 
L 56.203125 25.203125 
L 14.890625 25.203125 
Q 15.484375 15.921875 20.484375 11.0625 
Q 25.484375 6.203125 34.421875 6.203125 
Q 39.59375 6.203125 44.453125 7.46875 
Q 49.3125 8.734375 54.109375 11.28125 
L 54.109375 2.78125 
Q 49.265625 0.734375 44.1875 -0.34375 
Q 39.109375 -1.421875 33.890625 -1.421875 
Q 20.796875 -1.421875 13.15625 6.1875 
Q 5.515625 13.8125 5.515625 26.8125 
Q 5.515625 40.234375 12.765625 48.109375 
Q 20.015625 56 32.328125 56 
Q 43.359375 56 49.78125 48.890625 
Q 56.203125 41.796875 56.203125 29.59375 
z
M 47.21875 32.234375 
Q 47.125 39.59375 43.09375 43.984375 
Q 39.0625 48.390625 32.421875 48.390625 
Q 24.90625 48.390625 20.390625 44.140625 
Q 15.875 39.890625 15.1875 32.171875 
z
" id="DejaVuSans-101"/>
      </defs>
      <g transform="translate(278.54814 268.628823)rotate(-35)scale(0.14 -0.14)">
       <use xlink:href="#DejaVuSans-83"/>
       <use x="63.476562" xlink:href="#DejaVuSans-101"/>
       <use x="125" xlink:href="#DejaVuSans-112"/>
      </g>
     </g>
    </g>
    <g id="xtick_8">
     <g id="line2d_8">
      <g>
       <use style="stroke:#000000;stroke-width:0.8;" x="321.861557" xlink:href="#m3a6a6362a6" y="237.778155"/>
      </g>
     </g>
     <g id="text_8">
      <!-- Oct -->
      <defs>
       <path d="M 39.40625 66.21875 
Q 28.65625 66.21875 22.328125 58.203125 
Q 16.015625 50.203125 16.015625 36.375 
Q 16.015625 22.609375 22.328125 14.59375 
Q 28.65625 6.59375 39.40625 6.59375 
Q 50.140625 6.59375 56.421875 14.59375 
Q 62.703125 22.609375 62.703125 36.375 
Q 62.703125 50.203125 56.421875 58.203125 
Q 50.140625 66.21875 39.40625 66.21875 
z
M 39.40625 74.21875 
Q 54.734375 74.21875 63.90625 63.9375 
Q 73.09375 53.65625 73.09375 36.375 
Q 73.09375 19.140625 63.90625 8.859375 
Q 54.734375 -1.421875 39.40625 -1.421875 
Q 24.03125 -1.421875 14.8125 8.828125 
Q 5.609375 19.09375 5.609375 36.375 
Q 5.609375 53.65625 14.8125 63.9375 
Q 24.03125 74.21875 39.40625 74.21875 
z
" id="DejaVuSans-79"/>
       <path d="M 48.78125 52.59375 
L 48.78125 44.1875 
Q 44.96875 46.296875 41.140625 47.34375 
Q 37.3125 48.390625 33.40625 48.390625 
Q 24.65625 48.390625 19.8125 42.84375 
Q 14.984375 37.3125 14.984375 27.296875 
Q 14.984375 17.28125 19.8125 11.734375 
Q 24.65625 6.203125 33.40625 6.203125 
Q 37.3125 6.203125 41.140625 7.25 
Q 44.96875 8.296875 48.78125 10.40625 
L 48.78125 2.09375 
Q 45.015625 0.34375 40.984375 -0.53125 
Q 36.96875 -1.421875 32.421875 -1.421875 
Q 20.0625 -1.421875 12.78125 6.34375 
Q 5.515625 14.109375 5.515625 27.296875 
Q 5.515625 40.671875 12.859375 48.328125 
Q 20.21875 56 33.015625 56 
Q 37.15625 56 41.109375 55.140625 
Q 45.0625 54.296875 48.78125 52.59375 
z
" id="DejaVuSans-99"/>
       <path d="M 18.3125 70.21875 
L 18.3125 54.6875 
L 36.8125 54.6875 
L 36.8125 47.703125 
L 18.3125 47.703125 
L 18.3125 18.015625 
Q 18.3125 11.328125 20.140625 9.421875 
Q 21.96875 7.515625 27.59375 7.515625 
L 36.8125 7.515625 
L 36.8125 0 
L 27.59375 0 
Q 17.1875 0 13.234375 3.875 
Q 9.28125 7.765625 9.28125 18.015625 
L 9.28125 47.703125 
L 2.6875 47.703125 
L 2.6875 54.6875 
L 9.28125 54.6875 
L 9.28125 70.21875 
z
" id="DejaVuSans-116"/>
      </defs>
      <g transform="translate(314.162799 267.376634)rotate(-35)scale(0.14 -0.14)">
       <use xlink:href="#DejaVuSans-79"/>
       <use x="78.710938" xlink:href="#DejaVuSans-99"/>
       <use x="133.691406" xlink:href="#DejaVuSans-116"/>
      </g>
     </g>
    </g>
    <g id="xtick_9">
     <g id="line2d_9">
      <g>
       <use style="stroke:#000000;stroke-width:0.8;" x="357.73941" xlink:href="#m3a6a6362a6" y="237.778155"/>
      </g>
     </g>
     <g id="text_9">
      <!-- Nov -->
      <defs>
       <path d="M 9.8125 72.90625 
L 23.09375 72.90625 
L 55.421875 11.921875 
L 55.421875 72.90625 
L 64.984375 72.90625 
L 64.984375 0 
L 51.703125 0 
L 19.390625 60.984375 
L 19.390625 0 
L 9.8125 0 
z
" id="DejaVuSans-78"/>
       <path d="M 30.609375 48.390625 
Q 23.390625 48.390625 19.1875 42.75 
Q 14.984375 37.109375 14.984375 27.296875 
Q 14.984375 17.484375 19.15625 11.84375 
Q 23.34375 6.203125 30.609375 6.203125 
Q 37.796875 6.203125 41.984375 11.859375 
Q 46.1875 17.53125 46.1875 27.296875 
Q 46.1875 37.015625 41.984375 42.703125 
Q 37.796875 48.390625 30.609375 48.390625 
z
M 30.609375 56 
Q 42.328125 56 49.015625 48.375 
Q 55.71875 40.765625 55.71875 27.296875 
Q 55.71875 13.875 49.015625 6.21875 
Q 42.328125 -1.421875 30.609375 -1.421875 
Q 18.84375 -1.421875 12.171875 6.21875 
Q 5.515625 13.875 5.515625 27.296875 
Q 5.515625 40.765625 12.171875 48.375 
Q 18.84375 56 30.609375 56 
z
" id="DejaVuSans-111"/>
       <path d="M 2.984375 54.6875 
L 12.5 54.6875 
L 29.59375 8.796875 
L 46.6875 54.6875 
L 56.203125 54.6875 
L 35.6875 0 
L 23.484375 0 
z
" id="DejaVuSans-118"/>
      </defs>
      <g transform="translate(348.763031 269.165834)rotate(-35)scale(0.14 -0.14)">
       <use xlink:href="#DejaVuSans-78"/>
       <use x="74.804688" xlink:href="#DejaVuSans-111"/>
       <use x="135.986328" xlink:href="#DejaVuSans-118"/>
      </g>
     </g>
    </g>
    <g id="xtick_10">
     <g id="line2d_10">
      <g>
       <use style="stroke:#000000;stroke-width:0.8;" x="392.459913" xlink:href="#m3a6a6362a6" y="237.778155"/>
      </g>
     </g>
     <g id="text_10">
      <!-- Dec -->
      <defs>
       <path d="M 19.671875 64.796875 
L 19.671875 8.109375 
L 31.59375 8.109375 
Q 46.6875 8.109375 53.6875 14.9375 
Q 60.6875 21.78125 60.6875 36.53125 
Q 60.6875 51.171875 53.6875 57.984375 
Q 46.6875 64.796875 31.59375 64.796875 
z
M 9.8125 72.90625 
L 30.078125 72.90625 
Q 51.265625 72.90625 61.171875 64.09375 
Q 71.09375 55.28125 71.09375 36.53125 
Q 71.09375 17.671875 61.125 8.828125 
Q 51.171875 0 30.078125 0 
L 9.8125 0 
z
" id="DejaVuSans-68"/>
      </defs>
      <g transform="translate(383.5794 269.031581)rotate(-35)scale(0.14 -0.14)">
       <use xlink:href="#DejaVuSans-68"/>
       <use x="77.001953" xlink:href="#DejaVuSans-101"/>
       <use x="138.525391" xlink:href="#DejaVuSans-99"/>
      </g>
     </g>
    </g>
   </g>
   <g id="matplotlib.axis_2">
    <g id="ytick_1">
     <g id="line2d_11">
      <defs>
       <path d="M 0 0 
L -3.5 0 
" id="m97d000c8c2" style="stroke:#000000;stroke-width:0.8;"/>
      </defs>
      <g>
       <use style="stroke:#000000;stroke-width:0.8;" x="57.87" xlink:href="#m97d000c8c2" y="227.65733"/>
      </g>
     </g>
     <g id="text_11">
      <!-- 0 -->
      <defs>
       <path d="M 31.78125 66.40625 
Q 24.171875 66.40625 20.328125 58.90625 
Q 16.5 51.421875 16.5 36.375 
Q 16.5 21.390625 20.328125 13.890625 
Q 24.171875 6.390625 31.78125 6.390625 
Q 39.453125 6.390625 43.28125 13.890625 
Q 47.125 21.390625 47.125 36.375 
Q 47.125 51.421875 43.28125 58.90625 
Q 39.453125 66.40625 31.78125 66.40625 
z
M 31.78125 74.21875 
Q 44.046875 74.21875 50.515625 64.515625 
Q 56.984375 54.828125 56.984375 36.375 
Q 56.984375 17.96875 50.515625 8.265625 
Q 44.046875 -1.421875 31.78125 -1.421875 
Q 19.53125 -1.421875 13.0625 8.265625 
Q 6.59375 17.96875 6.59375 36.375 
Q 6.59375 54.828125 13.0625 64.515625 
Q 19.53125 74.21875 31.78125 74.21875 
z
" id="DejaVuSans-48"/>
      </defs>
      <g transform="translate(41.9625 232.976236)scale(0.14 -0.14)">
       <use xlink:href="#DejaVuSans-48"/>
      </g>
     </g>
    </g>
    <g id="ytick_2">
     <g id="line2d_12">
      <g>
       <use style="stroke:#000000;stroke-width:0.8;" x="57.87" xlink:href="#m97d000c8c2" y="183.653742"/>
      </g>
     </g>
     <g id="text_12">
      <!-- 5 -->
      <defs>
       <path d="M 10.796875 72.90625 
L 49.515625 72.90625 
L 49.515625 64.59375 
L 19.828125 64.59375 
L 19.828125 46.734375 
Q 21.96875 47.46875 24.109375 47.828125 
Q 26.265625 48.1875 28.421875 48.1875 
Q 40.625 48.1875 47.75 41.5 
Q 54.890625 34.8125 54.890625 23.390625 
Q 54.890625 11.625 47.5625 5.09375 
Q 40.234375 -1.421875 26.90625 -1.421875 
Q 22.3125 -1.421875 17.546875 -0.640625 
Q 12.796875 0.140625 7.71875 1.703125 
L 7.71875 11.625 
Q 12.109375 9.234375 16.796875 8.0625 
Q 21.484375 6.890625 26.703125 6.890625 
Q 35.15625 6.890625 40.078125 11.328125 
Q 45.015625 15.765625 45.015625 23.390625 
Q 45.015625 31 40.078125 35.4375 
Q 35.15625 39.890625 26.703125 39.890625 
Q 22.75 39.890625 18.8125 39.015625 
Q 14.890625 38.140625 10.796875 36.28125 
z
" id="DejaVuSans-53"/>
      </defs>
      <g transform="translate(41.9625 188.972648)scale(0.14 -0.14)">
       <use xlink:href="#DejaVuSans-53"/>
      </g>
     </g>
    </g>
    <g id="ytick_3">
     <g id="line2d_13">
      <g>
       <use style="stroke:#000000;stroke-width:0.8;" x="57.87" xlink:href="#m97d000c8c2" y="139.650154"/>
      </g>
     </g>
     <g id="text_13">
      <!-- 10 -->
      <defs>
       <path d="M 12.40625 8.296875 
L 28.515625 8.296875 
L 28.515625 63.921875 
L 10.984375 60.40625 
L 10.984375 69.390625 
L 28.421875 72.90625 
L 38.28125 72.90625 
L 38.28125 8.296875 
L 54.390625 8.296875 
L 54.390625 0 
L 12.40625 0 
z
" id="DejaVuSans-49"/>
      </defs>
      <g transform="translate(33.055 144.96906)scale(0.14 -0.14)">
       <use xlink:href="#DejaVuSans-49"/>
       <use x="63.623047" xlink:href="#DejaVuSans-48"/>
      </g>
     </g>
    </g>
    <g id="ytick_4">
     <g id="line2d_14">
      <g>
       <use style="stroke:#000000;stroke-width:0.8;" x="57.87" xlink:href="#m97d000c8c2" y="95.646566"/>
      </g>
     </g>
     <g id="text_14">
      <!-- 15 -->
      <g transform="translate(33.055 100.965472)scale(0.14 -0.14)">
       <use xlink:href="#DejaVuSans-49"/>
       <use x="63.623047" xlink:href="#DejaVuSans-53"/>
      </g>
     </g>
    </g>
    <g id="ytick_5">
     <g id="line2d_15">
      <g>
       <use style="stroke:#000000;stroke-width:0.8;" x="57.87" xlink:href="#m97d000c8c2" y="51.642978"/>
      </g>
     </g>
     <g id="text_15">
      <!-- 20 -->
      <defs>
       <path d="M 19.1875 8.296875 
L 53.609375 8.296875 
L 53.609375 0 
L 7.328125 0 
L 7.328125 8.296875 
Q 12.9375 14.109375 22.625 23.890625 
Q 32.328125 33.6875 34.8125 36.53125 
Q 39.546875 41.84375 41.421875 45.53125 
Q 43.3125 49.21875 43.3125 52.78125 
Q 43.3125 58.59375 39.234375 62.25 
Q 35.15625 65.921875 28.609375 65.921875 
Q 23.96875 65.921875 18.8125 64.3125 
Q 13.671875 62.703125 7.8125 59.421875 
L 7.8125 69.390625 
Q 13.765625 71.78125 18.9375 73 
Q 24.125 74.21875 28.421875 74.21875 
Q 39.75 74.21875 46.484375 68.546875 
Q 53.21875 62.890625 53.21875 53.421875 
Q 53.21875 48.921875 51.53125 44.890625 
Q 49.859375 40.875 45.40625 35.40625 
Q 44.1875 33.984375 37.640625 27.21875 
Q 31.109375 20.453125 19.1875 8.296875 
z
" id="DejaVuSans-50"/>
      </defs>
      <g transform="translate(33.055 56.961884)scale(0.14 -0.14)">
       <use xlink:href="#DejaVuSans-50"/>
       <use x="63.623047" xlink:href="#DejaVuSans-48"/>
      </g>
     </g>
    </g>
    <g id="text_16">
     <!-- Daily Covid-19 Deaths -->
     <defs>
      <path d="M 9.421875 54.6875 
L 18.40625 54.6875 
L 18.40625 0 
L 9.421875 0 
z
M 9.421875 75.984375 
L 18.40625 75.984375 
L 18.40625 64.59375 
L 9.421875 64.59375 
z
" id="DejaVuSans-105"/>
      <path id="DejaVuSans-32"/>
      <path d="M 64.40625 67.28125 
L 64.40625 56.890625 
Q 59.421875 61.53125 53.78125 63.8125 
Q 48.140625 66.109375 41.796875 66.109375 
Q 29.296875 66.109375 22.65625 58.46875 
Q 16.015625 50.828125 16.015625 36.375 
Q 16.015625 21.96875 22.65625 14.328125 
Q 29.296875 6.6875 41.796875 6.6875 
Q 48.140625 6.6875 53.78125 8.984375 
Q 59.421875 11.28125 64.40625 15.921875 
L 64.40625 5.609375 
Q 59.234375 2.09375 53.4375 0.328125 
Q 47.65625 -1.421875 41.21875 -1.421875 
Q 24.65625 -1.421875 15.125 8.703125 
Q 5.609375 18.84375 5.609375 36.375 
Q 5.609375 53.953125 15.125 64.078125 
Q 24.65625 74.21875 41.21875 74.21875 
Q 47.75 74.21875 53.53125 72.484375 
Q 59.328125 70.75 64.40625 67.28125 
z
" id="DejaVuSans-67"/>
      <path d="M 45.40625 46.390625 
L 45.40625 75.984375 
L 54.390625 75.984375 
L 54.390625 0 
L 45.40625 0 
L 45.40625 8.203125 
Q 42.578125 3.328125 38.25 0.953125 
Q 33.9375 -1.421875 27.875 -1.421875 
Q 17.96875 -1.421875 11.734375 6.484375 
Q 5.515625 14.40625 5.515625 27.296875 
Q 5.515625 40.1875 11.734375 48.09375 
Q 17.96875 56 27.875 56 
Q 33.9375 56 38.25 53.625 
Q 42.578125 51.265625 45.40625 46.390625 
z
M 14.796875 27.296875 
Q 14.796875 17.390625 18.875 11.75 
Q 22.953125 6.109375 30.078125 6.109375 
Q 37.203125 6.109375 41.296875 11.75 
Q 45.40625 17.390625 45.40625 27.296875 
Q 45.40625 37.203125 41.296875 42.84375 
Q 37.203125 48.484375 30.078125 48.484375 
Q 22.953125 48.484375 18.875 42.84375 
Q 14.796875 37.203125 14.796875 27.296875 
z
" id="DejaVuSans-100"/>
      <path d="M 4.890625 31.390625 
L 31.203125 31.390625 
L 31.203125 23.390625 
L 4.890625 23.390625 
z
" id="DejaVuSans-45"/>
      <path d="M 10.984375 1.515625 
L 10.984375 10.5 
Q 14.703125 8.734375 18.5 7.8125 
Q 22.3125 6.890625 25.984375 6.890625 
Q 35.75 6.890625 40.890625 13.453125 
Q 46.046875 20.015625 46.78125 33.40625 
Q 43.953125 29.203125 39.59375 26.953125 
Q 35.25 24.703125 29.984375 24.703125 
Q 19.046875 24.703125 12.671875 31.3125 
Q 6.296875 37.9375 6.296875 49.421875 
Q 6.296875 60.640625 12.9375 67.421875 
Q 19.578125 74.21875 30.609375 74.21875 
Q 43.265625 74.21875 49.921875 64.515625 
Q 56.59375 54.828125 56.59375 36.375 
Q 56.59375 19.140625 48.40625 8.859375 
Q 40.234375 -1.421875 26.421875 -1.421875 
Q 22.703125 -1.421875 18.890625 -0.6875 
Q 15.09375 0.046875 10.984375 1.515625 
z
M 30.609375 32.421875 
Q 37.25 32.421875 41.125 36.953125 
Q 45.015625 41.5 45.015625 49.421875 
Q 45.015625 57.28125 41.125 61.84375 
Q 37.25 66.40625 30.609375 66.40625 
Q 23.96875 66.40625 20.09375 61.84375 
Q 16.21875 57.28125 16.21875 49.421875 
Q 16.21875 41.5 20.09375 36.953125 
Q 23.96875 32.421875 30.609375 32.421875 
z
" id="DejaVuSans-57"/>
      <path d="M 54.890625 33.015625 
L 54.890625 0 
L 45.90625 0 
L 45.90625 32.71875 
Q 45.90625 40.484375 42.875 44.328125 
Q 39.84375 48.1875 33.796875 48.1875 
Q 26.515625 48.1875 22.3125 43.546875 
Q 18.109375 38.921875 18.109375 30.90625 
L 18.109375 0 
L 9.078125 0 
L 9.078125 75.984375 
L 18.109375 75.984375 
L 18.109375 46.1875 
Q 21.34375 51.125 25.703125 53.5625 
Q 30.078125 56 35.796875 56 
Q 45.21875 56 50.046875 50.171875 
Q 54.890625 44.34375 54.890625 33.015625 
z
" id="DejaVuSans-104"/>
      <path d="M 44.28125 53.078125 
L 44.28125 44.578125 
Q 40.484375 46.53125 36.375 47.5 
Q 32.28125 48.484375 27.875 48.484375 
Q 21.1875 48.484375 17.84375 46.4375 
Q 14.5 44.390625 14.5 40.28125 
Q 14.5 37.15625 16.890625 35.375 
Q 19.28125 33.59375 26.515625 31.984375 
L 29.59375 31.296875 
Q 39.15625 29.25 43.1875 25.515625 
Q 47.21875 21.78125 47.21875 15.09375 
Q 47.21875 7.46875 41.1875 3.015625 
Q 35.15625 -1.421875 24.609375 -1.421875 
Q 20.21875 -1.421875 15.453125 -0.5625 
Q 10.6875 0.296875 5.421875 2 
L 5.421875 11.28125 
Q 10.40625 8.6875 15.234375 7.390625 
Q 20.0625 6.109375 24.8125 6.109375 
Q 31.15625 6.109375 34.5625 8.28125 
Q 37.984375 10.453125 37.984375 14.40625 
Q 37.984375 18.0625 35.515625 20.015625 
Q 33.0625 21.96875 24.703125 23.78125 
L 21.578125 24.515625 
Q 13.234375 26.265625 9.515625 29.90625 
Q 5.8125 33.546875 5.8125 39.890625 
Q 5.8125 47.609375 11.28125 51.796875 
Q 16.75 56 26.8125 56 
Q 31.78125 56 36.171875 55.265625 
Q 40.578125 54.546875 44.28125 53.078125 
z
" id="DejaVuSans-115"/>
     </defs>
     <g transform="translate(26.143438 204.560327)rotate(-90)scale(0.14 -0.14)">
      <use xlink:href="#DejaVuSans-68"/>
      <use x="77.001953" xlink:href="#DejaVuSans-97"/>
      <use x="138.28125" xlink:href="#DejaVuSans-105"/>
      <use x="166.064453" xlink:href="#DejaVuSans-108"/>
      <use x="193.847656" xlink:href="#DejaVuSans-121"/>
      <use x="253.027344" xlink:href="#DejaVuSans-32"/>
      <use x="284.814453" xlink:href="#DejaVuSans-67"/>
      <use x="354.638672" xlink:href="#DejaVuSans-111"/>
      <use x="415.820312" xlink:href="#DejaVuSans-118"/>
      <use x="475" xlink:href="#DejaVuSans-105"/>
      <use x="502.783203" xlink:href="#DejaVuSans-100"/>
      <use x="566.259766" xlink:href="#DejaVuSans-45"/>
      <use x="602.34375" xlink:href="#DejaVuSans-49"/>
      <use x="665.966797" xlink:href="#DejaVuSans-57"/>
      <use x="729.589844" xlink:href="#DejaVuSans-32"/>
      <use x="761.376953" xlink:href="#DejaVuSans-68"/>
      <use x="838.378906" xlink:href="#DejaVuSans-101"/>
      <use x="899.902344" xlink:href="#DejaVuSans-97"/>
      <use x="961.181641" xlink:href="#DejaVuSans-116"/>
      <use x="1000.390625" xlink:href="#DejaVuSans-104"/>
      <use x="1063.769531" xlink:href="#DejaVuSans-115"/>
     </g>
    </g>
   </g>
   <g id="line2d_16">
    <defs>
     <path d="M 0 2.5 
C 0.663008 2.5 1.29895 2.236584 1.767767 1.767767 
C 2.236584 1.29895 2.5 0.663008 2.5 0 
C 2.5 -0.663008 2.236584 -1.29895 1.767767 -1.767767 
C 1.29895 -2.236584 0.663008 -2.5 0 -2.5 
C -0.663008 -2.5 -1.29895 -2.236584 -1.767767 -1.767767 
C -2.236584 -1.29895 -2.5 -0.663008 -2.5 0 
C -2.5 0.663008 -2.236584 1.29895 -1.767767 1.767767 
C -1.29895 2.236584 -0.663008 2.5 0 2.5 
z
" id="m97fd10ae51" style="stroke:#0000ff;stroke-opacity:0.2;"/>
    </defs>
    <g clip-path="url(#p0700809e8e)">
     <use style="fill:#0000ff;fill-opacity:0.2;stroke:#0000ff;stroke-opacity:0.2;" x="74.188636" xlink:href="#m97fd10ae51" y="227.65733"/>
     <use style="fill:#0000ff;fill-opacity:0.2;stroke:#0000ff;stroke-opacity:0.2;" x="75.345986" xlink:href="#m97fd10ae51" y="227.65733"/>
     <use style="fill:#0000ff;fill-opacity:0.2;stroke:#0000ff;stroke-opacity:0.2;" x="76.503337" xlink:href="#m97fd10ae51" y="227.65733"/>
     <use style="fill:#0000ff;fill-opacity:0.2;stroke:#0000ff;stroke-opacity:0.2;" x="77.660687" xlink:href="#m97fd10ae51" y="227.65733"/>
     <use style="fill:#0000ff;fill-opacity:0.2;stroke:#0000ff;stroke-opacity:0.2;" x="78.818037" xlink:href="#m97fd10ae51" y="227.65733"/>
     <use style="fill:#0000ff;fill-opacity:0.2;stroke:#0000ff;stroke-opacity:0.2;" x="79.975387" xlink:href="#m97fd10ae51" y="227.65733"/>
     <use style="fill:#0000ff;fill-opacity:0.2;stroke:#0000ff;stroke-opacity:0.2;" x="81.132737" xlink:href="#m97fd10ae51" y="227.65733"/>
     <use style="fill:#0000ff;fill-opacity:0.2;stroke:#0000ff;stroke-opacity:0.2;" x="82.290087" xlink:href="#m97fd10ae51" y="227.65733"/>
     <use style="fill:#0000ff;fill-opacity:0.2;stroke:#0000ff;stroke-opacity:0.2;" x="83.447437" xlink:href="#m97fd10ae51" y="227.65733"/>
     <use style="fill:#0000ff;fill-opacity:0.2;stroke:#0000ff;stroke-opacity:0.2;" x="84.604787" xlink:href="#m97fd10ae51" y="227.65733"/>
     <use style="fill:#0000ff;fill-opacity:0.2;stroke:#0000ff;stroke-opacity:0.2;" x="85.762137" xlink:href="#m97fd10ae51" y="218.856612"/>
     <use style="fill:#0000ff;fill-opacity:0.2;stroke:#0000ff;stroke-opacity:0.2;" x="86.919487" xlink:href="#m97fd10ae51" y="227.65733"/>
     <use style="fill:#0000ff;fill-opacity:0.2;stroke:#0000ff;stroke-opacity:0.2;" x="88.076838" xlink:href="#m97fd10ae51" y="227.65733"/>
     <use style="fill:#0000ff;fill-opacity:0.2;stroke:#0000ff;stroke-opacity:0.2;" x="89.234188" xlink:href="#m97fd10ae51" y="227.65733"/>
     <use style="fill:#0000ff;fill-opacity:0.2;stroke:#0000ff;stroke-opacity:0.2;" x="90.391538" xlink:href="#m97fd10ae51" y="218.856612"/>
     <use style="fill:#0000ff;fill-opacity:0.2;stroke:#0000ff;stroke-opacity:0.2;" x="91.548888" xlink:href="#m97fd10ae51" y="227.65733"/>
     <use style="fill:#0000ff;fill-opacity:0.2;stroke:#0000ff;stroke-opacity:0.2;" x="92.706238" xlink:href="#m97fd10ae51" y="201.255177"/>
     <use style="fill:#0000ff;fill-opacity:0.2;stroke:#0000ff;stroke-opacity:0.2;" x="93.863588" xlink:href="#m97fd10ae51" y="210.055894"/>
     <use style="fill:#0000ff;fill-opacity:0.2;stroke:#0000ff;stroke-opacity:0.2;" x="95.020938" xlink:href="#m97fd10ae51" y="192.454459"/>
     <use style="fill:#0000ff;fill-opacity:0.2;stroke:#0000ff;stroke-opacity:0.2;" x="96.178288" xlink:href="#m97fd10ae51" y="227.65733"/>
     <use style="fill:#0000ff;fill-opacity:0.2;stroke:#0000ff;stroke-opacity:0.2;" x="97.335638" xlink:href="#m97fd10ae51" y="192.454459"/>
     <use style="fill:#0000ff;fill-opacity:0.2;stroke:#0000ff;stroke-opacity:0.2;" x="98.492988" xlink:href="#m97fd10ae51" y="192.454459"/>
     <use style="fill:#0000ff;fill-opacity:0.2;stroke:#0000ff;stroke-opacity:0.2;" x="99.650338" xlink:href="#m97fd10ae51" y="192.454459"/>
     <use style="fill:#0000ff;fill-opacity:0.2;stroke:#0000ff;stroke-opacity:0.2;" x="100.807689" xlink:href="#m97fd10ae51" y="174.853024"/>
     <use style="fill:#0000ff;fill-opacity:0.2;stroke:#0000ff;stroke-opacity:0.2;" x="101.965039" xlink:href="#m97fd10ae51" y="183.653742"/>
     <use style="fill:#0000ff;fill-opacity:0.2;stroke:#0000ff;stroke-opacity:0.2;" x="103.122389" xlink:href="#m97fd10ae51" y="139.650154"/>
     <use style="fill:#0000ff;fill-opacity:0.2;stroke:#0000ff;stroke-opacity:0.2;" x="104.279739" xlink:href="#m97fd10ae51" y="157.251589"/>
     <use style="fill:#0000ff;fill-opacity:0.2;stroke:#0000ff;stroke-opacity:0.2;" x="105.437089" xlink:href="#m97fd10ae51" y="122.048719"/>
     <use style="fill:#0000ff;fill-opacity:0.2;stroke:#0000ff;stroke-opacity:0.2;" x="106.594439" xlink:href="#m97fd10ae51" y="183.653742"/>
     <use style="fill:#0000ff;fill-opacity:0.2;stroke:#0000ff;stroke-opacity:0.2;" x="107.751789" xlink:href="#m97fd10ae51" y="139.650154"/>
     <use style="fill:#0000ff;fill-opacity:0.2;stroke:#0000ff;stroke-opacity:0.2;" x="108.909139" xlink:href="#m97fd10ae51" y="113.248001"/>
     <use style="fill:#0000ff;fill-opacity:0.2;stroke:#0000ff;stroke-opacity:0.2;" x="110.066489" xlink:href="#m97fd10ae51" y="122.048719"/>
     <use style="fill:#0000ff;fill-opacity:0.2;stroke:#0000ff;stroke-opacity:0.2;" x="111.223839" xlink:href="#m97fd10ae51" y="183.653742"/>
     <use style="fill:#0000ff;fill-opacity:0.2;stroke:#0000ff;stroke-opacity:0.2;" x="112.38119" xlink:href="#m97fd10ae51" y="104.447283"/>
     <use style="fill:#0000ff;fill-opacity:0.2;stroke:#0000ff;stroke-opacity:0.2;" x="113.53854" xlink:href="#m97fd10ae51" y="25.240825"/>
     <use style="fill:#0000ff;fill-opacity:0.2;stroke:#0000ff;stroke-opacity:0.2;" x="114.69589" xlink:href="#m97fd10ae51" y="104.447283"/>
     <use style="fill:#0000ff;fill-opacity:0.2;stroke:#0000ff;stroke-opacity:0.2;" x="115.85324" xlink:href="#m97fd10ae51" y="139.650154"/>
     <use style="fill:#0000ff;fill-opacity:0.2;stroke:#0000ff;stroke-opacity:0.2;" x="117.01059" xlink:href="#m97fd10ae51" y="122.048719"/>
     <use style="fill:#0000ff;fill-opacity:0.2;stroke:#0000ff;stroke-opacity:0.2;" x="118.16794" xlink:href="#m97fd10ae51" y="86.845848"/>
     <use style="fill:#0000ff;fill-opacity:0.2;stroke:#0000ff;stroke-opacity:0.2;" x="119.32529" xlink:href="#m97fd10ae51" y="86.845848"/>
     <use style="fill:#0000ff;fill-opacity:0.2;stroke:#0000ff;stroke-opacity:0.2;" x="120.48264" xlink:href="#m97fd10ae51" y="157.251589"/>
     <use style="fill:#0000ff;fill-opacity:0.2;stroke:#0000ff;stroke-opacity:0.2;" x="121.63999" xlink:href="#m97fd10ae51" y="104.447283"/>
     <use style="fill:#0000ff;fill-opacity:0.2;stroke:#0000ff;stroke-opacity:0.2;" x="122.79734" xlink:href="#m97fd10ae51" y="113.248001"/>
     <use style="fill:#0000ff;fill-opacity:0.2;stroke:#0000ff;stroke-opacity:0.2;" x="123.954691" xlink:href="#m97fd10ae51" y="104.447283"/>
     <use style="fill:#0000ff;fill-opacity:0.2;stroke:#0000ff;stroke-opacity:0.2;" x="125.112041" xlink:href="#m97fd10ae51" y="157.251589"/>
     <use style="fill:#0000ff;fill-opacity:0.2;stroke:#0000ff;stroke-opacity:0.2;" x="126.269391" xlink:href="#m97fd10ae51" y="157.251589"/>
     <use style="fill:#0000ff;fill-opacity:0.2;stroke:#0000ff;stroke-opacity:0.2;" x="127.426741" xlink:href="#m97fd10ae51" y="122.048719"/>
     <use style="fill:#0000ff;fill-opacity:0.2;stroke:#0000ff;stroke-opacity:0.2;" x="128.584091" xlink:href="#m97fd10ae51" y="201.255177"/>
     <use style="fill:#0000ff;fill-opacity:0.2;stroke:#0000ff;stroke-opacity:0.2;" x="129.741441" xlink:href="#m97fd10ae51" y="166.052306"/>
     <use style="fill:#0000ff;fill-opacity:0.2;stroke:#0000ff;stroke-opacity:0.2;" x="130.898791" xlink:href="#m97fd10ae51" y="148.450871"/>
     <use style="fill:#0000ff;fill-opacity:0.2;stroke:#0000ff;stroke-opacity:0.2;" x="132.056141" xlink:href="#m97fd10ae51" y="157.251589"/>
     <use style="fill:#0000ff;fill-opacity:0.2;stroke:#0000ff;stroke-opacity:0.2;" x="133.213491" xlink:href="#m97fd10ae51" y="157.251589"/>
     <use style="fill:#0000ff;fill-opacity:0.2;stroke:#0000ff;stroke-opacity:0.2;" x="134.370841" xlink:href="#m97fd10ae51" y="122.048719"/>
     <use style="fill:#0000ff;fill-opacity:0.2;stroke:#0000ff;stroke-opacity:0.2;" x="135.528191" xlink:href="#m97fd10ae51" y="192.454459"/>
     <use style="fill:#0000ff;fill-opacity:0.2;stroke:#0000ff;stroke-opacity:0.2;" x="136.685542" xlink:href="#m97fd10ae51" y="166.052306"/>
     <use style="fill:#0000ff;fill-opacity:0.2;stroke:#0000ff;stroke-opacity:0.2;" x="137.842892" xlink:href="#m97fd10ae51" y="166.052306"/>
     <use style="fill:#0000ff;fill-opacity:0.2;stroke:#0000ff;stroke-opacity:0.2;" x="139.000242" xlink:href="#m97fd10ae51" y="210.055894"/>
     <use style="fill:#0000ff;fill-opacity:0.2;stroke:#0000ff;stroke-opacity:0.2;" x="140.157592" xlink:href="#m97fd10ae51" y="183.653742"/>
     <use style="fill:#0000ff;fill-opacity:0.2;stroke:#0000ff;stroke-opacity:0.2;" x="141.314942" xlink:href="#m97fd10ae51" y="192.454459"/>
     <use style="fill:#0000ff;fill-opacity:0.2;stroke:#0000ff;stroke-opacity:0.2;" x="142.472292" xlink:href="#m97fd10ae51" y="174.853024"/>
     <use style="fill:#0000ff;fill-opacity:0.2;stroke:#0000ff;stroke-opacity:0.2;" x="143.629642" xlink:href="#m97fd10ae51" y="210.055894"/>
     <use style="fill:#0000ff;fill-opacity:0.2;stroke:#0000ff;stroke-opacity:0.2;" x="144.786992" xlink:href="#m97fd10ae51" y="201.255177"/>
     <use style="fill:#0000ff;fill-opacity:0.2;stroke:#0000ff;stroke-opacity:0.2;" x="145.944342" xlink:href="#m97fd10ae51" y="192.454459"/>
     <use style="fill:#0000ff;fill-opacity:0.2;stroke:#0000ff;stroke-opacity:0.2;" x="147.101692" xlink:href="#m97fd10ae51" y="192.454459"/>
     <use style="fill:#0000ff;fill-opacity:0.2;stroke:#0000ff;stroke-opacity:0.2;" x="148.259043" xlink:href="#m97fd10ae51" y="210.055894"/>
     <use style="fill:#0000ff;fill-opacity:0.2;stroke:#0000ff;stroke-opacity:0.2;" x="149.416393" xlink:href="#m97fd10ae51" y="210.055894"/>
     <use style="fill:#0000ff;fill-opacity:0.2;stroke:#0000ff;stroke-opacity:0.2;" x="150.573743" xlink:href="#m97fd10ae51" y="210.055894"/>
     <use style="fill:#0000ff;fill-opacity:0.2;stroke:#0000ff;stroke-opacity:0.2;" x="151.731093" xlink:href="#m97fd10ae51" y="192.454459"/>
     <use style="fill:#0000ff;fill-opacity:0.2;stroke:#0000ff;stroke-opacity:0.2;" x="152.888443" xlink:href="#m97fd10ae51" y="210.055894"/>
     <use style="fill:#0000ff;fill-opacity:0.2;stroke:#0000ff;stroke-opacity:0.2;" x="154.045793" xlink:href="#m97fd10ae51" y="227.65733"/>
     <use style="fill:#0000ff;fill-opacity:0.2;stroke:#0000ff;stroke-opacity:0.2;" x="155.203143" xlink:href="#m97fd10ae51" y="210.055894"/>
     <use style="fill:#0000ff;fill-opacity:0.2;stroke:#0000ff;stroke-opacity:0.2;" x="156.360493" xlink:href="#m97fd10ae51" y="227.65733"/>
     <use style="fill:#0000ff;fill-opacity:0.2;stroke:#0000ff;stroke-opacity:0.2;" x="157.517843" xlink:href="#m97fd10ae51" y="210.055894"/>
     <use style="fill:#0000ff;fill-opacity:0.2;stroke:#0000ff;stroke-opacity:0.2;" x="158.675193" xlink:href="#m97fd10ae51" y="218.856612"/>
     <use style="fill:#0000ff;fill-opacity:0.2;stroke:#0000ff;stroke-opacity:0.2;" x="159.832544" xlink:href="#m97fd10ae51" y="218.856612"/>
     <use style="fill:#0000ff;fill-opacity:0.2;stroke:#0000ff;stroke-opacity:0.2;" x="160.989894" xlink:href="#m97fd10ae51" y="227.65733"/>
     <use style="fill:#0000ff;fill-opacity:0.2;stroke:#0000ff;stroke-opacity:0.2;" x="162.147244" xlink:href="#m97fd10ae51" y="218.856612"/>
     <use style="fill:#0000ff;fill-opacity:0.2;stroke:#0000ff;stroke-opacity:0.2;" x="163.304594" xlink:href="#m97fd10ae51" y="210.055894"/>
     <use style="fill:#0000ff;fill-opacity:0.2;stroke:#0000ff;stroke-opacity:0.2;" x="164.461944" xlink:href="#m97fd10ae51" y="218.856612"/>
     <use style="fill:#0000ff;fill-opacity:0.2;stroke:#0000ff;stroke-opacity:0.2;" x="165.619294" xlink:href="#m97fd10ae51" y="227.65733"/>
     <use style="fill:#0000ff;fill-opacity:0.2;stroke:#0000ff;stroke-opacity:0.2;" x="166.776644" xlink:href="#m97fd10ae51" y="218.856612"/>
     <use style="fill:#0000ff;fill-opacity:0.2;stroke:#0000ff;stroke-opacity:0.2;" x="167.933994" xlink:href="#m97fd10ae51" y="227.65733"/>
     <use style="fill:#0000ff;fill-opacity:0.2;stroke:#0000ff;stroke-opacity:0.2;" x="169.091344" xlink:href="#m97fd10ae51" y="227.65733"/>
     <use style="fill:#0000ff;fill-opacity:0.2;stroke:#0000ff;stroke-opacity:0.2;" x="170.248694" xlink:href="#m97fd10ae51" y="201.255177"/>
     <use style="fill:#0000ff;fill-opacity:0.2;stroke:#0000ff;stroke-opacity:0.2;" x="171.406044" xlink:href="#m97fd10ae51" y="227.65733"/>
     <use style="fill:#0000ff;fill-opacity:0.2;stroke:#0000ff;stroke-opacity:0.2;" x="172.563395" xlink:href="#m97fd10ae51" y="227.65733"/>
     <use style="fill:#0000ff;fill-opacity:0.2;stroke:#0000ff;stroke-opacity:0.2;" x="173.720745" xlink:href="#m97fd10ae51" y="218.856612"/>
     <use style="fill:#0000ff;fill-opacity:0.2;stroke:#0000ff;stroke-opacity:0.2;" x="174.878095" xlink:href="#m97fd10ae51" y="218.856612"/>
     <use style="fill:#0000ff;fill-opacity:0.2;stroke:#0000ff;stroke-opacity:0.2;" x="176.035445" xlink:href="#m97fd10ae51" y="218.856612"/>
     <use style="fill:#0000ff;fill-opacity:0.2;stroke:#0000ff;stroke-opacity:0.2;" x="177.192795" xlink:href="#m97fd10ae51" y="227.65733"/>
     <use style="fill:#0000ff;fill-opacity:0.2;stroke:#0000ff;stroke-opacity:0.2;" x="178.350145" xlink:href="#m97fd10ae51" y="218.856612"/>
     <use style="fill:#0000ff;fill-opacity:0.2;stroke:#0000ff;stroke-opacity:0.2;" x="179.507495" xlink:href="#m97fd10ae51" y="218.856612"/>
     <use style="fill:#0000ff;fill-opacity:0.2;stroke:#0000ff;stroke-opacity:0.2;" x="180.664845" xlink:href="#m97fd10ae51" y="227.65733"/>
     <use style="fill:#0000ff;fill-opacity:0.2;stroke:#0000ff;stroke-opacity:0.2;" x="181.822195" xlink:href="#m97fd10ae51" y="218.856612"/>
     <use style="fill:#0000ff;fill-opacity:0.2;stroke:#0000ff;stroke-opacity:0.2;" x="182.979545" xlink:href="#m97fd10ae51" y="227.65733"/>
     <use style="fill:#0000ff;fill-opacity:0.2;stroke:#0000ff;stroke-opacity:0.2;" x="184.136896" xlink:href="#m97fd10ae51" y="227.65733"/>
     <use style="fill:#0000ff;fill-opacity:0.2;stroke:#0000ff;stroke-opacity:0.2;" x="185.294246" xlink:href="#m97fd10ae51" y="218.856612"/>
     <use style="fill:#0000ff;fill-opacity:0.2;stroke:#0000ff;stroke-opacity:0.2;" x="186.451596" xlink:href="#m97fd10ae51" y="227.65733"/>
     <use style="fill:#0000ff;fill-opacity:0.2;stroke:#0000ff;stroke-opacity:0.2;" x="187.608946" xlink:href="#m97fd10ae51" y="227.65733"/>
     <use style="fill:#0000ff;fill-opacity:0.2;stroke:#0000ff;stroke-opacity:0.2;" x="188.766296" xlink:href="#m97fd10ae51" y="227.65733"/>
     <use style="fill:#0000ff;fill-opacity:0.2;stroke:#0000ff;stroke-opacity:0.2;" x="189.923646" xlink:href="#m97fd10ae51" y="218.856612"/>
     <use style="fill:#0000ff;fill-opacity:0.2;stroke:#0000ff;stroke-opacity:0.2;" x="191.080996" xlink:href="#m97fd10ae51" y="227.65733"/>
     <use style="fill:#0000ff;fill-opacity:0.2;stroke:#0000ff;stroke-opacity:0.2;" x="192.238346" xlink:href="#m97fd10ae51" y="227.65733"/>
     <use style="fill:#0000ff;fill-opacity:0.2;stroke:#0000ff;stroke-opacity:0.2;" x="193.395696" xlink:href="#m97fd10ae51" y="227.65733"/>
     <use style="fill:#0000ff;fill-opacity:0.2;stroke:#0000ff;stroke-opacity:0.2;" x="194.553046" xlink:href="#m97fd10ae51" y="227.65733"/>
     <use style="fill:#0000ff;fill-opacity:0.2;stroke:#0000ff;stroke-opacity:0.2;" x="195.710397" xlink:href="#m97fd10ae51" y="227.65733"/>
     <use style="fill:#0000ff;fill-opacity:0.2;stroke:#0000ff;stroke-opacity:0.2;" x="196.867747" xlink:href="#m97fd10ae51" y="227.65733"/>
     <use style="fill:#0000ff;fill-opacity:0.2;stroke:#0000ff;stroke-opacity:0.2;" x="198.025097" xlink:href="#m97fd10ae51" y="227.65733"/>
     <use style="fill:#0000ff;fill-opacity:0.2;stroke:#0000ff;stroke-opacity:0.2;" x="199.182447" xlink:href="#m97fd10ae51" y="227.65733"/>
     <use style="fill:#0000ff;fill-opacity:0.2;stroke:#0000ff;stroke-opacity:0.2;" x="200.339797" xlink:href="#m97fd10ae51" y="227.65733"/>
     <use style="fill:#0000ff;fill-opacity:0.2;stroke:#0000ff;stroke-opacity:0.2;" x="201.497147" xlink:href="#m97fd10ae51" y="227.65733"/>
     <use style="fill:#0000ff;fill-opacity:0.2;stroke:#0000ff;stroke-opacity:0.2;" x="202.654497" xlink:href="#m97fd10ae51" y="227.65733"/>
     <use style="fill:#0000ff;fill-opacity:0.2;stroke:#0000ff;stroke-opacity:0.2;" x="203.811847" xlink:href="#m97fd10ae51" y="227.65733"/>
     <use style="fill:#0000ff;fill-opacity:0.2;stroke:#0000ff;stroke-opacity:0.2;" x="204.969197" xlink:href="#m97fd10ae51" y="218.856612"/>
     <use style="fill:#0000ff;fill-opacity:0.2;stroke:#0000ff;stroke-opacity:0.2;" x="206.126547" xlink:href="#m97fd10ae51" y="227.65733"/>
     <use style="fill:#0000ff;fill-opacity:0.2;stroke:#0000ff;stroke-opacity:0.2;" x="207.283897" xlink:href="#m97fd10ae51" y="218.856612"/>
     <use style="fill:#0000ff;fill-opacity:0.2;stroke:#0000ff;stroke-opacity:0.2;" x="208.441248" xlink:href="#m97fd10ae51" y="210.055894"/>
     <use style="fill:#0000ff;fill-opacity:0.2;stroke:#0000ff;stroke-opacity:0.2;" x="209.598598" xlink:href="#m97fd10ae51" y="218.856612"/>
     <use style="fill:#0000ff;fill-opacity:0.2;stroke:#0000ff;stroke-opacity:0.2;" x="210.755948" xlink:href="#m97fd10ae51" y="227.65733"/>
     <use style="fill:#0000ff;fill-opacity:0.2;stroke:#0000ff;stroke-opacity:0.2;" x="211.913298" xlink:href="#m97fd10ae51" y="227.65733"/>
     <use style="fill:#0000ff;fill-opacity:0.2;stroke:#0000ff;stroke-opacity:0.2;" x="213.070648" xlink:href="#m97fd10ae51" y="227.65733"/>
     <use style="fill:#0000ff;fill-opacity:0.2;stroke:#0000ff;stroke-opacity:0.2;" x="214.227998" xlink:href="#m97fd10ae51" y="227.65733"/>
     <use style="fill:#0000ff;fill-opacity:0.2;stroke:#0000ff;stroke-opacity:0.2;" x="215.385348" xlink:href="#m97fd10ae51" y="227.65733"/>
     <use style="fill:#0000ff;fill-opacity:0.2;stroke:#0000ff;stroke-opacity:0.2;" x="216.542698" xlink:href="#m97fd10ae51" y="227.65733"/>
     <use style="fill:#0000ff;fill-opacity:0.2;stroke:#0000ff;stroke-opacity:0.2;" x="217.700048" xlink:href="#m97fd10ae51" y="227.65733"/>
     <use style="fill:#0000ff;fill-opacity:0.2;stroke:#0000ff;stroke-opacity:0.2;" x="218.857398" xlink:href="#m97fd10ae51" y="227.65733"/>
     <use style="fill:#0000ff;fill-opacity:0.2;stroke:#0000ff;stroke-opacity:0.2;" x="220.014749" xlink:href="#m97fd10ae51" y="210.055894"/>
     <use style="fill:#0000ff;fill-opacity:0.2;stroke:#0000ff;stroke-opacity:0.2;" x="221.172099" xlink:href="#m97fd10ae51" y="227.65733"/>
     <use style="fill:#0000ff;fill-opacity:0.2;stroke:#0000ff;stroke-opacity:0.2;" x="222.329449" xlink:href="#m97fd10ae51" y="227.65733"/>
     <use style="fill:#0000ff;fill-opacity:0.2;stroke:#0000ff;stroke-opacity:0.2;" x="223.486799" xlink:href="#m97fd10ae51" y="227.65733"/>
     <use style="fill:#0000ff;fill-opacity:0.2;stroke:#0000ff;stroke-opacity:0.2;" x="224.644149" xlink:href="#m97fd10ae51" y="227.65733"/>
     <use style="fill:#0000ff;fill-opacity:0.2;stroke:#0000ff;stroke-opacity:0.2;" x="225.801499" xlink:href="#m97fd10ae51" y="227.65733"/>
     <use style="fill:#0000ff;fill-opacity:0.2;stroke:#0000ff;stroke-opacity:0.2;" x="226.958849" xlink:href="#m97fd10ae51" y="227.65733"/>
     <use style="fill:#0000ff;fill-opacity:0.2;stroke:#0000ff;stroke-opacity:0.2;" x="228.116199" xlink:href="#m97fd10ae51" y="227.65733"/>
     <use style="fill:#0000ff;fill-opacity:0.2;stroke:#0000ff;stroke-opacity:0.2;" x="229.273549" xlink:href="#m97fd10ae51" y="227.65733"/>
     <use style="fill:#0000ff;fill-opacity:0.2;stroke:#0000ff;stroke-opacity:0.2;" x="230.430899" xlink:href="#m97fd10ae51" y="227.65733"/>
     <use style="fill:#0000ff;fill-opacity:0.2;stroke:#0000ff;stroke-opacity:0.2;" x="231.58825" xlink:href="#m97fd10ae51" y="227.65733"/>
     <use style="fill:#0000ff;fill-opacity:0.2;stroke:#0000ff;stroke-opacity:0.2;" x="232.7456" xlink:href="#m97fd10ae51" y="227.65733"/>
     <use style="fill:#0000ff;fill-opacity:0.2;stroke:#0000ff;stroke-opacity:0.2;" x="233.90295" xlink:href="#m97fd10ae51" y="227.65733"/>
     <use style="fill:#0000ff;fill-opacity:0.2;stroke:#0000ff;stroke-opacity:0.2;" x="235.0603" xlink:href="#m97fd10ae51" y="227.65733"/>
     <use style="fill:#0000ff;fill-opacity:0.2;stroke:#0000ff;stroke-opacity:0.2;" x="236.21765" xlink:href="#m97fd10ae51" y="227.65733"/>
     <use style="fill:#0000ff;fill-opacity:0.2;stroke:#0000ff;stroke-opacity:0.2;" x="237.375" xlink:href="#m97fd10ae51" y="227.65733"/>
     <use style="fill:#0000ff;fill-opacity:0.2;stroke:#0000ff;stroke-opacity:0.2;" x="238.53235" xlink:href="#m97fd10ae51" y="227.65733"/>
     <use style="fill:#0000ff;fill-opacity:0.2;stroke:#0000ff;stroke-opacity:0.2;" x="239.6897" xlink:href="#m97fd10ae51" y="227.65733"/>
     <use style="fill:#0000ff;fill-opacity:0.2;stroke:#0000ff;stroke-opacity:0.2;" x="240.84705" xlink:href="#m97fd10ae51" y="227.65733"/>
     <use style="fill:#0000ff;fill-opacity:0.2;stroke:#0000ff;stroke-opacity:0.2;" x="242.0044" xlink:href="#m97fd10ae51" y="227.65733"/>
     <use style="fill:#0000ff;fill-opacity:0.2;stroke:#0000ff;stroke-opacity:0.2;" x="243.16175" xlink:href="#m97fd10ae51" y="227.65733"/>
     <use style="fill:#0000ff;fill-opacity:0.2;stroke:#0000ff;stroke-opacity:0.2;" x="244.319101" xlink:href="#m97fd10ae51" y="227.65733"/>
     <use style="fill:#0000ff;fill-opacity:0.2;stroke:#0000ff;stroke-opacity:0.2;" x="245.476451" xlink:href="#m97fd10ae51" y="218.856612"/>
     <use style="fill:#0000ff;fill-opacity:0.2;stroke:#0000ff;stroke-opacity:0.2;" x="246.633801" xlink:href="#m97fd10ae51" y="227.65733"/>
     <use style="fill:#0000ff;fill-opacity:0.2;stroke:#0000ff;stroke-opacity:0.2;" x="247.791151" xlink:href="#m97fd10ae51" y="227.65733"/>
     <use style="fill:#0000ff;fill-opacity:0.2;stroke:#0000ff;stroke-opacity:0.2;" x="248.948501" xlink:href="#m97fd10ae51" y="227.65733"/>
     <use style="fill:#0000ff;fill-opacity:0.2;stroke:#0000ff;stroke-opacity:0.2;" x="250.105851" xlink:href="#m97fd10ae51" y="227.65733"/>
     <use style="fill:#0000ff;fill-opacity:0.2;stroke:#0000ff;stroke-opacity:0.2;" x="251.263201" xlink:href="#m97fd10ae51" y="227.65733"/>
     <use style="fill:#0000ff;fill-opacity:0.2;stroke:#0000ff;stroke-opacity:0.2;" x="252.420551" xlink:href="#m97fd10ae51" y="218.856612"/>
     <use style="fill:#0000ff;fill-opacity:0.2;stroke:#0000ff;stroke-opacity:0.2;" x="253.577901" xlink:href="#m97fd10ae51" y="227.65733"/>
     <use style="fill:#0000ff;fill-opacity:0.2;stroke:#0000ff;stroke-opacity:0.2;" x="254.735251" xlink:href="#m97fd10ae51" y="227.65733"/>
     <use style="fill:#0000ff;fill-opacity:0.2;stroke:#0000ff;stroke-opacity:0.2;" x="255.892602" xlink:href="#m97fd10ae51" y="227.65733"/>
     <use style="fill:#0000ff;fill-opacity:0.2;stroke:#0000ff;stroke-opacity:0.2;" x="257.049952" xlink:href="#m97fd10ae51" y="227.65733"/>
     <use style="fill:#0000ff;fill-opacity:0.2;stroke:#0000ff;stroke-opacity:0.2;" x="258.207302" xlink:href="#m97fd10ae51" y="227.65733"/>
     <use style="fill:#0000ff;fill-opacity:0.2;stroke:#0000ff;stroke-opacity:0.2;" x="259.364652" xlink:href="#m97fd10ae51" y="227.65733"/>
     <use style="fill:#0000ff;fill-opacity:0.2;stroke:#0000ff;stroke-opacity:0.2;" x="260.522002" xlink:href="#m97fd10ae51" y="227.65733"/>
     <use style="fill:#0000ff;fill-opacity:0.2;stroke:#0000ff;stroke-opacity:0.2;" x="261.679352" xlink:href="#m97fd10ae51" y="227.65733"/>
     <use style="fill:#0000ff;fill-opacity:0.2;stroke:#0000ff;stroke-opacity:0.2;" x="262.836702" xlink:href="#m97fd10ae51" y="227.65733"/>
     <use style="fill:#0000ff;fill-opacity:0.2;stroke:#0000ff;stroke-opacity:0.2;" x="263.994052" xlink:href="#m97fd10ae51" y="227.65733"/>
     <use style="fill:#0000ff;fill-opacity:0.2;stroke:#0000ff;stroke-opacity:0.2;" x="265.151402" xlink:href="#m97fd10ae51" y="227.65733"/>
     <use style="fill:#0000ff;fill-opacity:0.2;stroke:#0000ff;stroke-opacity:0.2;" x="266.308752" xlink:href="#m97fd10ae51" y="227.65733"/>
     <use style="fill:#0000ff;fill-opacity:0.2;stroke:#0000ff;stroke-opacity:0.2;" x="267.466103" xlink:href="#m97fd10ae51" y="227.65733"/>
     <use style="fill:#0000ff;fill-opacity:0.2;stroke:#0000ff;stroke-opacity:0.2;" x="268.623453" xlink:href="#m97fd10ae51" y="227.65733"/>
     <use style="fill:#0000ff;fill-opacity:0.2;stroke:#0000ff;stroke-opacity:0.2;" x="269.780803" xlink:href="#m97fd10ae51" y="227.65733"/>
     <use style="fill:#0000ff;fill-opacity:0.2;stroke:#0000ff;stroke-opacity:0.2;" x="270.938153" xlink:href="#m97fd10ae51" y="227.65733"/>
     <use style="fill:#0000ff;fill-opacity:0.2;stroke:#0000ff;stroke-opacity:0.2;" x="272.095503" xlink:href="#m97fd10ae51" y="227.65733"/>
     <use style="fill:#0000ff;fill-opacity:0.2;stroke:#0000ff;stroke-opacity:0.2;" x="273.252853" xlink:href="#m97fd10ae51" y="227.65733"/>
     <use style="fill:#0000ff;fill-opacity:0.2;stroke:#0000ff;stroke-opacity:0.2;" x="274.410203" xlink:href="#m97fd10ae51" y="227.65733"/>
     <use style="fill:#0000ff;fill-opacity:0.2;stroke:#0000ff;stroke-opacity:0.2;" x="275.567553" xlink:href="#m97fd10ae51" y="227.65733"/>
     <use style="fill:#0000ff;fill-opacity:0.2;stroke:#0000ff;stroke-opacity:0.2;" x="276.724903" xlink:href="#m97fd10ae51" y="227.65733"/>
     <use style="fill:#0000ff;fill-opacity:0.2;stroke:#0000ff;stroke-opacity:0.2;" x="277.882253" xlink:href="#m97fd10ae51" y="227.65733"/>
     <use style="fill:#0000ff;fill-opacity:0.2;stroke:#0000ff;stroke-opacity:0.2;" x="279.039603" xlink:href="#m97fd10ae51" y="227.65733"/>
     <use style="fill:#0000ff;fill-opacity:0.2;stroke:#0000ff;stroke-opacity:0.2;" x="280.196954" xlink:href="#m97fd10ae51" y="227.65733"/>
     <use style="fill:#0000ff;fill-opacity:0.2;stroke:#0000ff;stroke-opacity:0.2;" x="281.354304" xlink:href="#m97fd10ae51" y="227.65733"/>
     <use style="fill:#0000ff;fill-opacity:0.2;stroke:#0000ff;stroke-opacity:0.2;" x="282.511654" xlink:href="#m97fd10ae51" y="227.65733"/>
     <use style="fill:#0000ff;fill-opacity:0.2;stroke:#0000ff;stroke-opacity:0.2;" x="283.669004" xlink:href="#m97fd10ae51" y="227.65733"/>
     <use style="fill:#0000ff;fill-opacity:0.2;stroke:#0000ff;stroke-opacity:0.2;" x="284.826354" xlink:href="#m97fd10ae51" y="227.65733"/>
     <use style="fill:#0000ff;fill-opacity:0.2;stroke:#0000ff;stroke-opacity:0.2;" x="285.983704" xlink:href="#m97fd10ae51" y="227.65733"/>
     <use style="fill:#0000ff;fill-opacity:0.2;stroke:#0000ff;stroke-opacity:0.2;" x="287.141054" xlink:href="#m97fd10ae51" y="227.65733"/>
     <use style="fill:#0000ff;fill-opacity:0.2;stroke:#0000ff;stroke-opacity:0.2;" x="288.298404" xlink:href="#m97fd10ae51" y="218.856612"/>
     <use style="fill:#0000ff;fill-opacity:0.2;stroke:#0000ff;stroke-opacity:0.2;" x="289.455754" xlink:href="#m97fd10ae51" y="227.65733"/>
     <use style="fill:#0000ff;fill-opacity:0.2;stroke:#0000ff;stroke-opacity:0.2;" x="290.613104" xlink:href="#m97fd10ae51" y="227.65733"/>
     <use style="fill:#0000ff;fill-opacity:0.2;stroke:#0000ff;stroke-opacity:0.2;" x="291.770455" xlink:href="#m97fd10ae51" y="227.65733"/>
     <use style="fill:#0000ff;fill-opacity:0.2;stroke:#0000ff;stroke-opacity:0.2;" x="292.927805" xlink:href="#m97fd10ae51" y="227.65733"/>
     <use style="fill:#0000ff;fill-opacity:0.2;stroke:#0000ff;stroke-opacity:0.2;" x="294.085155" xlink:href="#m97fd10ae51" y="227.65733"/>
     <use style="fill:#0000ff;fill-opacity:0.2;stroke:#0000ff;stroke-opacity:0.2;" x="295.242505" xlink:href="#m97fd10ae51" y="227.65733"/>
     <use style="fill:#0000ff;fill-opacity:0.2;stroke:#0000ff;stroke-opacity:0.2;" x="296.399855" xlink:href="#m97fd10ae51" y="227.65733"/>
     <use style="fill:#0000ff;fill-opacity:0.2;stroke:#0000ff;stroke-opacity:0.2;" x="297.557205" xlink:href="#m97fd10ae51" y="227.65733"/>
     <use style="fill:#0000ff;fill-opacity:0.2;stroke:#0000ff;stroke-opacity:0.2;" x="298.714555" xlink:href="#m97fd10ae51" y="227.65733"/>
     <use style="fill:#0000ff;fill-opacity:0.2;stroke:#0000ff;stroke-opacity:0.2;" x="299.871905" xlink:href="#m97fd10ae51" y="227.65733"/>
     <use style="fill:#0000ff;fill-opacity:0.2;stroke:#0000ff;stroke-opacity:0.2;" x="301.029255" xlink:href="#m97fd10ae51" y="227.65733"/>
     <use style="fill:#0000ff;fill-opacity:0.2;stroke:#0000ff;stroke-opacity:0.2;" x="302.186605" xlink:href="#m97fd10ae51" y="227.65733"/>
     <use style="fill:#0000ff;fill-opacity:0.2;stroke:#0000ff;stroke-opacity:0.2;" x="303.343956" xlink:href="#m97fd10ae51" y="227.65733"/>
     <use style="fill:#0000ff;fill-opacity:0.2;stroke:#0000ff;stroke-opacity:0.2;" x="304.501306" xlink:href="#m97fd10ae51" y="227.65733"/>
     <use style="fill:#0000ff;fill-opacity:0.2;stroke:#0000ff;stroke-opacity:0.2;" x="305.658656" xlink:href="#m97fd10ae51" y="227.65733"/>
     <use style="fill:#0000ff;fill-opacity:0.2;stroke:#0000ff;stroke-opacity:0.2;" x="306.816006" xlink:href="#m97fd10ae51" y="227.65733"/>
     <use style="fill:#0000ff;fill-opacity:0.2;stroke:#0000ff;stroke-opacity:0.2;" x="307.973356" xlink:href="#m97fd10ae51" y="227.65733"/>
     <use style="fill:#0000ff;fill-opacity:0.2;stroke:#0000ff;stroke-opacity:0.2;" x="309.130706" xlink:href="#m97fd10ae51" y="227.65733"/>
     <use style="fill:#0000ff;fill-opacity:0.2;stroke:#0000ff;stroke-opacity:0.2;" x="310.288056" xlink:href="#m97fd10ae51" y="227.65733"/>
     <use style="fill:#0000ff;fill-opacity:0.2;stroke:#0000ff;stroke-opacity:0.2;" x="311.445406" xlink:href="#m97fd10ae51" y="227.65733"/>
     <use style="fill:#0000ff;fill-opacity:0.2;stroke:#0000ff;stroke-opacity:0.2;" x="312.602756" xlink:href="#m97fd10ae51" y="227.65733"/>
     <use style="fill:#0000ff;fill-opacity:0.2;stroke:#0000ff;stroke-opacity:0.2;" x="313.760106" xlink:href="#m97fd10ae51" y="227.65733"/>
     <use style="fill:#0000ff;fill-opacity:0.2;stroke:#0000ff;stroke-opacity:0.2;" x="314.917456" xlink:href="#m97fd10ae51" y="227.65733"/>
     <use style="fill:#0000ff;fill-opacity:0.2;stroke:#0000ff;stroke-opacity:0.2;" x="316.074807" xlink:href="#m97fd10ae51" y="227.65733"/>
     <use style="fill:#0000ff;fill-opacity:0.2;stroke:#0000ff;stroke-opacity:0.2;" x="317.232157" xlink:href="#m97fd10ae51" y="227.65733"/>
     <use style="fill:#0000ff;fill-opacity:0.2;stroke:#0000ff;stroke-opacity:0.2;" x="318.389507" xlink:href="#m97fd10ae51" y="227.65733"/>
     <use style="fill:#0000ff;fill-opacity:0.2;stroke:#0000ff;stroke-opacity:0.2;" x="319.546857" xlink:href="#m97fd10ae51" y="227.65733"/>
     <use style="fill:#0000ff;fill-opacity:0.2;stroke:#0000ff;stroke-opacity:0.2;" x="320.704207" xlink:href="#m97fd10ae51" y="218.856612"/>
     <use style="fill:#0000ff;fill-opacity:0.2;stroke:#0000ff;stroke-opacity:0.2;" x="321.861557" xlink:href="#m97fd10ae51" y="227.65733"/>
     <use style="fill:#0000ff;fill-opacity:0.2;stroke:#0000ff;stroke-opacity:0.2;" x="323.018907" xlink:href="#m97fd10ae51" y="227.65733"/>
     <use style="fill:#0000ff;fill-opacity:0.2;stroke:#0000ff;stroke-opacity:0.2;" x="324.176257" xlink:href="#m97fd10ae51" y="227.65733"/>
     <use style="fill:#0000ff;fill-opacity:0.2;stroke:#0000ff;stroke-opacity:0.2;" x="325.333607" xlink:href="#m97fd10ae51" y="218.856612"/>
     <use style="fill:#0000ff;fill-opacity:0.2;stroke:#0000ff;stroke-opacity:0.2;" x="326.490957" xlink:href="#m97fd10ae51" y="227.65733"/>
     <use style="fill:#0000ff;fill-opacity:0.2;stroke:#0000ff;stroke-opacity:0.2;" x="327.648308" xlink:href="#m97fd10ae51" y="227.65733"/>
     <use style="fill:#0000ff;fill-opacity:0.2;stroke:#0000ff;stroke-opacity:0.2;" x="328.805658" xlink:href="#m97fd10ae51" y="227.65733"/>
     <use style="fill:#0000ff;fill-opacity:0.2;stroke:#0000ff;stroke-opacity:0.2;" x="329.963008" xlink:href="#m97fd10ae51" y="218.856612"/>
     <use style="fill:#0000ff;fill-opacity:0.2;stroke:#0000ff;stroke-opacity:0.2;" x="331.120358" xlink:href="#m97fd10ae51" y="210.055894"/>
     <use style="fill:#0000ff;fill-opacity:0.2;stroke:#0000ff;stroke-opacity:0.2;" x="332.277708" xlink:href="#m97fd10ae51" y="227.65733"/>
     <use style="fill:#0000ff;fill-opacity:0.2;stroke:#0000ff;stroke-opacity:0.2;" x="333.435058" xlink:href="#m97fd10ae51" y="227.65733"/>
     <use style="fill:#0000ff;fill-opacity:0.2;stroke:#0000ff;stroke-opacity:0.2;" x="334.592408" xlink:href="#m97fd10ae51" y="227.65733"/>
     <use style="fill:#0000ff;fill-opacity:0.2;stroke:#0000ff;stroke-opacity:0.2;" x="335.749758" xlink:href="#m97fd10ae51" y="227.65733"/>
     <use style="fill:#0000ff;fill-opacity:0.2;stroke:#0000ff;stroke-opacity:0.2;" x="336.907108" xlink:href="#m97fd10ae51" y="201.255177"/>
     <use style="fill:#0000ff;fill-opacity:0.2;stroke:#0000ff;stroke-opacity:0.2;" x="338.064458" xlink:href="#m97fd10ae51" y="218.856612"/>
     <use style="fill:#0000ff;fill-opacity:0.2;stroke:#0000ff;stroke-opacity:0.2;" x="339.221809" xlink:href="#m97fd10ae51" y="218.856612"/>
     <use style="fill:#0000ff;fill-opacity:0.2;stroke:#0000ff;stroke-opacity:0.2;" x="340.379159" xlink:href="#m97fd10ae51" y="227.65733"/>
     <use style="fill:#0000ff;fill-opacity:0.2;stroke:#0000ff;stroke-opacity:0.2;" x="341.536509" xlink:href="#m97fd10ae51" y="227.65733"/>
     <use style="fill:#0000ff;fill-opacity:0.2;stroke:#0000ff;stroke-opacity:0.2;" x="342.693859" xlink:href="#m97fd10ae51" y="227.65733"/>
     <use style="fill:#0000ff;fill-opacity:0.2;stroke:#0000ff;stroke-opacity:0.2;" x="343.851209" xlink:href="#m97fd10ae51" y="227.65733"/>
     <use style="fill:#0000ff;fill-opacity:0.2;stroke:#0000ff;stroke-opacity:0.2;" x="345.008559" xlink:href="#m97fd10ae51" y="227.65733"/>
     <use style="fill:#0000ff;fill-opacity:0.2;stroke:#0000ff;stroke-opacity:0.2;" x="346.165909" xlink:href="#m97fd10ae51" y="210.055894"/>
     <use style="fill:#0000ff;fill-opacity:0.2;stroke:#0000ff;stroke-opacity:0.2;" x="347.323259" xlink:href="#m97fd10ae51" y="227.65733"/>
     <use style="fill:#0000ff;fill-opacity:0.2;stroke:#0000ff;stroke-opacity:0.2;" x="348.480609" xlink:href="#m97fd10ae51" y="218.856612"/>
     <use style="fill:#0000ff;fill-opacity:0.2;stroke:#0000ff;stroke-opacity:0.2;" x="349.637959" xlink:href="#m97fd10ae51" y="227.65733"/>
     <use style="fill:#0000ff;fill-opacity:0.2;stroke:#0000ff;stroke-opacity:0.2;" x="350.795309" xlink:href="#m97fd10ae51" y="227.65733"/>
     <use style="fill:#0000ff;fill-opacity:0.2;stroke:#0000ff;stroke-opacity:0.2;" x="351.95266" xlink:href="#m97fd10ae51" y="218.856612"/>
     <use style="fill:#0000ff;fill-opacity:0.2;stroke:#0000ff;stroke-opacity:0.2;" x="353.11001" xlink:href="#m97fd10ae51" y="210.055894"/>
     <use style="fill:#0000ff;fill-opacity:0.2;stroke:#0000ff;stroke-opacity:0.2;" x="354.26736" xlink:href="#m97fd10ae51" y="227.65733"/>
     <use style="fill:#0000ff;fill-opacity:0.2;stroke:#0000ff;stroke-opacity:0.2;" x="355.42471" xlink:href="#m97fd10ae51" y="227.65733"/>
     <use style="fill:#0000ff;fill-opacity:0.2;stroke:#0000ff;stroke-opacity:0.2;" x="356.58206" xlink:href="#m97fd10ae51" y="227.65733"/>
     <use style="fill:#0000ff;fill-opacity:0.2;stroke:#0000ff;stroke-opacity:0.2;" x="357.73941" xlink:href="#m97fd10ae51" y="227.65733"/>
     <use style="fill:#0000ff;fill-opacity:0.2;stroke:#0000ff;stroke-opacity:0.2;" x="358.89676" xlink:href="#m97fd10ae51" y="218.856612"/>
     <use style="fill:#0000ff;fill-opacity:0.2;stroke:#0000ff;stroke-opacity:0.2;" x="360.05411" xlink:href="#m97fd10ae51" y="210.055894"/>
     <use style="fill:#0000ff;fill-opacity:0.2;stroke:#0000ff;stroke-opacity:0.2;" x="361.21146" xlink:href="#m97fd10ae51" y="227.65733"/>
     <use style="fill:#0000ff;fill-opacity:0.2;stroke:#0000ff;stroke-opacity:0.2;" x="362.36881" xlink:href="#m97fd10ae51" y="218.856612"/>
     <use style="fill:#0000ff;fill-opacity:0.2;stroke:#0000ff;stroke-opacity:0.2;" x="363.526161" xlink:href="#m97fd10ae51" y="227.65733"/>
     <use style="fill:#0000ff;fill-opacity:0.2;stroke:#0000ff;stroke-opacity:0.2;" x="364.683511" xlink:href="#m97fd10ae51" y="218.856612"/>
     <use style="fill:#0000ff;fill-opacity:0.2;stroke:#0000ff;stroke-opacity:0.2;" x="365.840861" xlink:href="#m97fd10ae51" y="227.65733"/>
     <use style="fill:#0000ff;fill-opacity:0.2;stroke:#0000ff;stroke-opacity:0.2;" x="366.998211" xlink:href="#m97fd10ae51" y="227.65733"/>
     <use style="fill:#0000ff;fill-opacity:0.2;stroke:#0000ff;stroke-opacity:0.2;" x="368.155561" xlink:href="#m97fd10ae51" y="227.65733"/>
     <use style="fill:#0000ff;fill-opacity:0.2;stroke:#0000ff;stroke-opacity:0.2;" x="369.312911" xlink:href="#m97fd10ae51" y="227.65733"/>
     <use style="fill:#0000ff;fill-opacity:0.2;stroke:#0000ff;stroke-opacity:0.2;" x="370.470261" xlink:href="#m97fd10ae51" y="218.856612"/>
     <use style="fill:#0000ff;fill-opacity:0.2;stroke:#0000ff;stroke-opacity:0.2;" x="371.627611" xlink:href="#m97fd10ae51" y="227.65733"/>
     <use style="fill:#0000ff;fill-opacity:0.2;stroke:#0000ff;stroke-opacity:0.2;" x="372.784961" xlink:href="#m97fd10ae51" y="227.65733"/>
     <use style="fill:#0000ff;fill-opacity:0.2;stroke:#0000ff;stroke-opacity:0.2;" x="373.942311" xlink:href="#m97fd10ae51" y="227.65733"/>
     <use style="fill:#0000ff;fill-opacity:0.2;stroke:#0000ff;stroke-opacity:0.2;" x="375.099662" xlink:href="#m97fd10ae51" y="227.65733"/>
     <use style="fill:#0000ff;fill-opacity:0.2;stroke:#0000ff;stroke-opacity:0.2;" x="376.257012" xlink:href="#m97fd10ae51" y="218.856612"/>
     <use style="fill:#0000ff;fill-opacity:0.2;stroke:#0000ff;stroke-opacity:0.2;" x="377.414362" xlink:href="#m97fd10ae51" y="227.65733"/>
     <use style="fill:#0000ff;fill-opacity:0.2;stroke:#0000ff;stroke-opacity:0.2;" x="378.571712" xlink:href="#m97fd10ae51" y="218.856612"/>
     <use style="fill:#0000ff;fill-opacity:0.2;stroke:#0000ff;stroke-opacity:0.2;" x="379.729062" xlink:href="#m97fd10ae51" y="218.856612"/>
     <use style="fill:#0000ff;fill-opacity:0.2;stroke:#0000ff;stroke-opacity:0.2;" x="380.886412" xlink:href="#m97fd10ae51" y="218.856612"/>
     <use style="fill:#0000ff;fill-opacity:0.2;stroke:#0000ff;stroke-opacity:0.2;" x="382.043762" xlink:href="#m97fd10ae51" y="218.856612"/>
     <use style="fill:#0000ff;fill-opacity:0.2;stroke:#0000ff;stroke-opacity:0.2;" x="383.201112" xlink:href="#m97fd10ae51" y="227.65733"/>
     <use style="fill:#0000ff;fill-opacity:0.2;stroke:#0000ff;stroke-opacity:0.2;" x="384.358462" xlink:href="#m97fd10ae51" y="218.856612"/>
     <use style="fill:#0000ff;fill-opacity:0.2;stroke:#0000ff;stroke-opacity:0.2;" x="385.515812" xlink:href="#m97fd10ae51" y="227.65733"/>
     <use style="fill:#0000ff;fill-opacity:0.2;stroke:#0000ff;stroke-opacity:0.2;" x="386.673162" xlink:href="#m97fd10ae51" y="218.856612"/>
     <use style="fill:#0000ff;fill-opacity:0.2;stroke:#0000ff;stroke-opacity:0.2;" x="387.830513" xlink:href="#m97fd10ae51" y="227.65733"/>
     <use style="fill:#0000ff;fill-opacity:0.2;stroke:#0000ff;stroke-opacity:0.2;" x="388.987863" xlink:href="#m97fd10ae51" y="227.65733"/>
     <use style="fill:#0000ff;fill-opacity:0.2;stroke:#0000ff;stroke-opacity:0.2;" x="390.145213" xlink:href="#m97fd10ae51" y="227.65733"/>
     <use style="fill:#0000ff;fill-opacity:0.2;stroke:#0000ff;stroke-opacity:0.2;" x="391.302563" xlink:href="#m97fd10ae51" y="227.65733"/>
     <use style="fill:#0000ff;fill-opacity:0.2;stroke:#0000ff;stroke-opacity:0.2;" x="392.459913" xlink:href="#m97fd10ae51" y="227.65733"/>
     <use style="fill:#0000ff;fill-opacity:0.2;stroke:#0000ff;stroke-opacity:0.2;" x="393.617263" xlink:href="#m97fd10ae51" y="227.65733"/>
     <use style="fill:#0000ff;fill-opacity:0.2;stroke:#0000ff;stroke-opacity:0.2;" x="394.774613" xlink:href="#m97fd10ae51" y="227.65733"/>
     <use style="fill:#0000ff;fill-opacity:0.2;stroke:#0000ff;stroke-opacity:0.2;" x="395.931963" xlink:href="#m97fd10ae51" y="218.856612"/>
     <use style="fill:#0000ff;fill-opacity:0.2;stroke:#0000ff;stroke-opacity:0.2;" x="397.089313" xlink:href="#m97fd10ae51" y="218.856612"/>
     <use style="fill:#0000ff;fill-opacity:0.2;stroke:#0000ff;stroke-opacity:0.2;" x="398.246663" xlink:href="#m97fd10ae51" y="218.856612"/>
     <use style="fill:#0000ff;fill-opacity:0.2;stroke:#0000ff;stroke-opacity:0.2;" x="399.404014" xlink:href="#m97fd10ae51" y="218.856612"/>
     <use style="fill:#0000ff;fill-opacity:0.2;stroke:#0000ff;stroke-opacity:0.2;" x="400.561364" xlink:href="#m97fd10ae51" y="227.65733"/>
    </g>
   </g>
   <g id="line2d_17">
    <path clip-path="url(#p0700809e8e)" d="M 77.660687 227.65733 
L 81.132737 227.65733 
L 82.290087 226.400084 
L 85.762137 226.400084 
L 86.919487 225.142839 
L 88.076838 225.142839 
L 89.234188 221.371103 
L 90.391538 220.113857 
L 91.548888 215.084876 
L 92.706238 215.084876 
L 93.863588 210.055894 
L 95.020938 206.284158 
L 96.178288 201.255177 
L 98.492988 193.711705 
L 99.650338 186.168232 
L 101.965039 166.052306 
L 103.122389 164.795061 
L 104.279739 157.251589 
L 106.594439 139.650154 
L 107.751789 145.936381 
L 108.909139 138.392908 
L 110.066489 124.563209 
L 111.223839 113.248001 
L 112.38119 113.248001 
L 113.53854 114.505246 
L 114.69589 109.476265 
L 115.85324 95.646566 
L 117.01059 103.190038 
L 118.16794 114.505246 
L 119.32529 115.762492 
L 120.48264 110.73351 
L 121.63999 115.762492 
L 122.79734 125.820455 
L 123.954691 130.849436 
L 125.112041 137.135663 
L 126.269391 145.936381 
L 127.426741 150.965362 
L 128.584091 158.508834 
L 129.741441 158.508834 
L 130.898791 153.479853 
L 132.056141 163.537816 
L 133.213491 158.508834 
L 134.370841 158.508834 
L 135.528191 167.309552 
L 136.685542 171.081288 
L 137.842892 176.110269 
L 139.000242 183.653742 
L 140.157592 186.168232 
L 141.314942 191.197214 
L 142.472292 194.96895 
L 143.629642 192.454459 
L 144.786992 196.226195 
L 145.944342 198.740686 
L 147.101692 203.769668 
L 148.259043 201.255177 
L 149.416393 202.512422 
L 150.573743 207.541404 
L 152.888443 212.570385 
L 154.045793 212.570385 
L 155.203143 213.82763 
L 156.360493 217.599367 
L 157.517843 220.113857 
L 158.675193 218.856612 
L 159.832544 218.856612 
L 160.989894 217.599367 
L 162.147244 220.113857 
L 163.304594 220.113857 
L 164.461944 221.371103 
L 165.619294 221.371103 
L 166.776644 218.856612 
L 167.933994 221.371103 
L 169.091344 222.628348 
L 170.248694 221.371103 
L 171.406044 221.371103 
L 172.563395 220.113857 
L 173.720745 220.113857 
L 174.878095 222.628348 
L 176.035445 221.371103 
L 178.350145 221.371103 
L 180.664845 223.885593 
L 181.822195 222.628348 
L 184.136896 225.142839 
L 188.766296 225.142839 
L 189.923646 226.400084 
L 193.395696 226.400084 
L 194.553046 227.65733 
L 200.339797 227.65733 
L 201.497147 226.400084 
L 202.654497 226.400084 
L 203.811847 225.142839 
L 204.969197 222.628348 
L 206.126547 221.371103 
L 208.441248 221.371103 
L 209.598598 222.628348 
L 210.755948 222.628348 
L 211.913298 223.885593 
L 213.070648 226.400084 
L 214.227998 227.65733 
L 215.385348 227.65733 
L 216.542698 225.142839 
L 223.486799 225.142839 
L 224.644149 227.65733 
L 240.84705 227.65733 
L 242.0044 226.400084 
L 247.791151 226.400084 
L 248.948501 225.142839 
L 250.105851 226.400084 
L 255.892602 226.400084 
L 257.049952 227.65733 
L 283.669004 227.65733 
L 284.826354 226.400084 
L 291.770455 226.400084 
L 292.927805 227.65733 
L 316.074807 227.65733 
L 317.232157 226.400084 
L 320.704207 226.400084 
L 321.861557 225.142839 
L 324.176257 225.142839 
L 325.333607 226.400084 
L 326.490957 225.142839 
L 327.648308 222.628348 
L 328.805658 222.628348 
L 329.963008 223.885593 
L 332.277708 223.885593 
L 333.435058 220.113857 
L 334.592408 220.113857 
L 335.749758 221.371103 
L 340.379159 221.371103 
L 341.536509 225.142839 
L 342.693859 223.885593 
L 343.851209 225.142839 
L 345.008559 223.885593 
L 347.323259 223.885593 
L 348.480609 222.628348 
L 349.637959 220.113857 
L 350.795309 222.628348 
L 351.95266 222.628348 
L 353.11001 223.885593 
L 354.26736 223.885593 
L 356.58206 221.371103 
L 357.73941 223.885593 
L 358.89676 222.628348 
L 360.05411 222.628348 
L 361.21146 221.371103 
L 362.36881 221.371103 
L 363.526161 222.628348 
L 364.683511 225.142839 
L 368.155561 225.142839 
L 369.312911 226.400084 
L 371.627611 226.400084 
L 372.784961 225.142839 
L 375.099662 225.142839 
L 378.571712 221.371103 
L 383.201112 221.371103 
L 386.673162 225.142839 
L 387.830513 225.142839 
L 388.987863 226.400084 
L 390.145213 226.400084 
L 391.302563 227.65733 
L 395.931963 222.628348 
L 397.089313 222.628348 
L 397.089313 222.628348 
" style="fill:none;stroke:#e60000;stroke-linecap:square;stroke-width:2;"/>
   </g>
   <g id="patch_3">
    <path d="M 57.87 237.778155 
L 57.87 15.12 
" style="fill:none;stroke:#000000;stroke-linecap:square;stroke-linejoin:miter;stroke-width:0.8;"/>
   </g>
   <g id="patch_4">
    <path d="M 416.88 237.778155 
L 416.88 15.12 
" style="fill:none;stroke:#000000;stroke-linecap:square;stroke-linejoin:miter;stroke-width:0.8;"/>
   </g>
   <g id="patch_5">
    <path d="M 57.87 237.778155 
L 416.88 237.778155 
" style="fill:none;stroke:#000000;stroke-linecap:square;stroke-linejoin:miter;stroke-width:0.8;"/>
   </g>
   <g id="patch_6">
    <path d="M 57.87 15.12 
L 416.88 15.12 
" style="fill:none;stroke:#000000;stroke-linecap:square;stroke-linejoin:miter;stroke-width:0.8;"/>
   </g>
   <g id="legend_1">
    <g id="line2d_18">
     <path d="M 250.984375 33.457813 
L 278.984375 33.457813 
" style="fill:none;stroke:#e60000;stroke-linecap:square;stroke-width:2;"/>
    </g>
    <g id="line2d_19"/>
    <g id="text_17">
     <!-- Weekly Average -->
     <defs>
      <path d="M 3.328125 72.90625 
L 13.28125 72.90625 
L 28.609375 11.28125 
L 43.890625 72.90625 
L 54.984375 72.90625 
L 70.3125 11.28125 
L 85.59375 72.90625 
L 95.609375 72.90625 
L 77.296875 0 
L 64.890625 0 
L 49.515625 63.28125 
L 33.984375 0 
L 21.578125 0 
z
" id="DejaVuSans-87"/>
      <path d="M 9.078125 75.984375 
L 18.109375 75.984375 
L 18.109375 31.109375 
L 44.921875 54.6875 
L 56.390625 54.6875 
L 27.390625 29.109375 
L 57.625 0 
L 45.90625 0 
L 18.109375 26.703125 
L 18.109375 0 
L 9.078125 0 
z
" id="DejaVuSans-107"/>
     </defs>
     <g transform="translate(290.184375 38.357813)scale(0.14 -0.14)">
      <use xlink:href="#DejaVuSans-87"/>
      <use x="98.798828" xlink:href="#DejaVuSans-101"/>
      <use x="160.322266" xlink:href="#DejaVuSans-101"/>
      <use x="221.845703" xlink:href="#DejaVuSans-107"/>
      <use x="279.755859" xlink:href="#DejaVuSans-108"/>
      <use x="307.539062" xlink:href="#DejaVuSans-121"/>
      <use x="366.71875" xlink:href="#DejaVuSans-32"/>
      <use x="398.505859" xlink:href="#DejaVuSans-65"/>
      <use x="466.835938" xlink:href="#DejaVuSans-118"/>
      <use x="526.015625" xlink:href="#DejaVuSans-101"/>
      <use x="587.539062" xlink:href="#DejaVuSans-114"/>
      <use x="628.652344" xlink:href="#DejaVuSans-97"/>
      <use x="689.931641" xlink:href="#DejaVuSans-103"/>
      <use x="753.408203" xlink:href="#DejaVuSans-101"/>
     </g>
    </g>
   </g>
  </g>
 </g>
 <defs>
  <clipPath id="p0700809e8e">
   <rect height="222.658155" width="359.01" x="57.87" y="15.12"/>
  </clipPath>
 </defs>
</svg>
