<?xml version="1.0" encoding="utf-8" standalone="no"?>
<!DOCTYPE svg PUBLIC "-//W3C//DTD SVG 1.1//EN"
  "http://www.w3.org/Graphics/SVG/1.1/DTD/svg11.dtd">
<!-- Created with matplotlib (https://matplotlib.org/) -->
<svg height="271.709375pt" version="1.1" viewBox="0 0 416.089375 271.709375" width="416.089375pt" xmlns="http://www.w3.org/2000/svg" xmlns:xlink="http://www.w3.org/1999/xlink">
 <defs>
  <style type="text/css">
*{stroke-linecap:butt;stroke-linejoin:round;}
  </style>
 </defs>
 <g id="figure_1">
  <g id="patch_1">
   <path d="M -0 271.709375 
L 416.089375 271.709375 
L 416.089375 0 
L -0 0 
z
" style="fill:#ffffff;"/>
  </g>
  <g id="axes_1">
   <g id="patch_2">
    <path d="M 67.379375 243.96 
L 408.889375 243.96 
L 408.889375 7.2 
L 67.379375 7.2 
z
" style="fill:#ffffff;"/>
   </g>
   <g id="patch_3">
    <path clip-path="url(#pbb007bcb17)" d="M 387.659779 243.96 
L 393.536484 243.96 
L 393.536484 87.272973 
L 387.659779 87.272973 
z
" style="fill:#004684;"/>
   </g>
   <g id="patch_4">
    <path clip-path="url(#pbb007bcb17)" d="M 380.313899 243.96 
L 386.190603 243.96 
L 386.190603 96.386297 
L 380.313899 96.386297 
z
" style="fill:#004684;"/>
   </g>
   <g id="patch_5">
    <path clip-path="url(#pbb007bcb17)" d="M 372.968018 243.96 
L 378.844722 243.96 
L 378.844722 88.412139 
L 372.968018 88.412139 
z
" style="fill:#004684;"/>
   </g>
   <g id="patch_6">
    <path clip-path="url(#pbb007bcb17)" d="M 365.622137 243.96 
L 371.498842 243.96 
L 371.498842 78.884574 
L 365.622137 78.884574 
z
" style="fill:#004684;"/>
   </g>
   <g id="patch_7">
    <path clip-path="url(#pbb007bcb17)" d="M 358.276256 243.96 
L 364.152961 243.96 
L 364.152961 74.845714 
L 358.276256 74.845714 
z
" style="fill:#004684;"/>
   </g>
   <g id="patch_8">
    <path clip-path="url(#pbb007bcb17)" d="M 350.930375 243.96 
L 356.80708 243.96 
L 356.80708 78.15965 
L 350.930375 78.15965 
z
" style="fill:#004684;"/>
   </g>
   <g id="patch_9">
    <path clip-path="url(#pbb007bcb17)" d="M 343.584494 243.96 
L 349.461199 243.96 
L 349.461199 166.186069 
L 343.584494 166.186069 
z
" style="fill:#006bc8;"/>
   </g>
   <g id="patch_10">
    <path clip-path="url(#pbb007bcb17)" d="M 336.238614 243.96 
L 342.115318 243.96 
L 342.115318 163.804178 
L 336.238614 163.804178 
z
" style="fill:#006bc8;"/>
   </g>
   <g id="patch_11">
    <path clip-path="url(#pbb007bcb17)" d="M 328.892733 243.96 
L 334.769437 243.96 
L 334.769437 170.846292 
L 328.892733 170.846292 
z
" style="fill:#006bc8;"/>
   </g>
   <g id="patch_12">
    <path clip-path="url(#pbb007bcb17)" d="M 321.546852 243.96 
L 327.423557 243.96 
L 327.423557 165.564706 
L 321.546852 165.564706 
z
" style="fill:#006bc8;"/>
   </g>
   <g id="patch_13">
    <path clip-path="url(#pbb007bcb17)" d="M 314.200971 243.96 
L 320.077676 243.96 
L 320.077676 166.807432 
L 314.200971 166.807432 
z
" style="fill:#006bc8;"/>
   </g>
   <g id="patch_14">
    <path clip-path="url(#pbb007bcb17)" d="M 306.85509 243.96 
L 312.731795 243.96 
L 312.731795 165.771827 
L 306.85509 165.771827 
z
" style="fill:#006bc8;"/>
   </g>
   <g id="patch_15">
    <path clip-path="url(#pbb007bcb17)" d="M 299.509209 243.96 
L 305.385914 243.96 
L 305.385914 162.250771 
L 299.509209 162.250771 
z
" style="fill:#006bc8;"/>
   </g>
   <g id="patch_16">
    <path clip-path="url(#pbb007bcb17)" d="M 292.163329 243.96 
L 298.040033 243.96 
L 298.040033 164.529102 
L 292.163329 164.529102 
z
" style="fill:#006bc8;"/>
   </g>
   <g id="patch_17">
    <path clip-path="url(#pbb007bcb17)" d="M 284.817448 243.96 
L 290.694152 243.96 
L 290.694152 164.529102 
L 284.817448 164.529102 
z
" style="fill:#006bc8;"/>
   </g>
   <g id="patch_18">
    <path clip-path="url(#pbb007bcb17)" d="M 277.471567 243.96 
L 283.348272 243.96 
L 283.348272 159.661758 
L 277.471567 159.661758 
z
" style="fill:#006bc8;"/>
   </g>
   <g id="patch_19">
    <path clip-path="url(#pbb007bcb17)" d="M 270.125686 243.96 
L 276.002391 243.96 
L 276.002391 160.593803 
L 270.125686 160.593803 
z
" style="fill:#006bc8;"/>
   </g>
   <g id="patch_20">
    <path clip-path="url(#pbb007bcb17)" d="M 262.779805 243.96 
L 268.65651 243.96 
L 268.65651 163.493497 
L 262.779805 163.493497 
z
" style="fill:#006bc8;"/>
   </g>
   <g id="patch_21">
    <path clip-path="url(#pbb007bcb17)" d="M 255.433924 243.96 
L 261.310629 243.96 
L 261.310629 162.872134 
L 255.433924 162.872134 
z
" style="fill:#006bc8;"/>
   </g>
   <g id="patch_22">
    <path clip-path="url(#pbb007bcb17)" d="M 248.088044 243.96 
L 253.964748 243.96 
L 253.964748 158.522593 
L 248.088044 158.522593 
z
" style="fill:#006bc8;"/>
   </g>
   <g id="patch_23">
    <path clip-path="url(#pbb007bcb17)" d="M 240.742163 243.96 
L 246.618867 243.96 
L 246.618867 154.173052 
L 240.742163 154.173052 
z
" style="fill:#006bc8;"/>
   </g>
   <g id="patch_24">
    <path clip-path="url(#pbb007bcb17)" d="M 233.396282 243.96 
L 239.272987 243.96 
L 239.272987 164.21842 
L 233.396282 164.21842 
z
" style="fill:#006bc8;"/>
   </g>
   <g id="patch_25">
    <path clip-path="url(#pbb007bcb17)" d="M 226.050401 243.96 
L 231.927106 243.96 
L 231.927106 163.597057 
L 226.050401 163.597057 
z
" style="fill:#006bc8;"/>
   </g>
   <g id="patch_26">
    <path clip-path="url(#pbb007bcb17)" d="M 218.70452 243.96 
L 224.581225 243.96 
L 224.581225 160.904484 
L 218.70452 160.904484 
z
" style="fill:#006bc8;"/>
   </g>
   <g id="patch_27">
    <path clip-path="url(#pbb007bcb17)" d="M 211.358639 243.96 
L 217.235344 243.96 
L 217.235344 160.800924 
L 211.358639 160.800924 
z
" style="fill:#006bc8;"/>
   </g>
   <g id="patch_28">
    <path clip-path="url(#pbb007bcb17)" d="M 204.012759 243.96 
L 209.889463 243.96 
L 209.889463 162.665013 
L 204.012759 162.665013 
z
" style="fill:#006bc8;"/>
   </g>
   <g id="patch_29">
    <path clip-path="url(#pbb007bcb17)" d="M 196.666878 243.96 
L 202.543582 243.96 
L 202.543582 164.425541 
L 196.666878 164.425541 
z
" style="fill:#006bc8;"/>
   </g>
   <g id="patch_30">
    <path clip-path="url(#pbb007bcb17)" d="M 189.320997 243.96 
L 195.197702 243.96 
L 195.197702 164.011299 
L 189.320997 164.011299 
z
" style="fill:#006bc8;"/>
   </g>
   <g id="patch_31">
    <path clip-path="url(#pbb007bcb17)" d="M 181.975116 243.96 
L 187.851821 243.96 
L 187.851821 161.629408 
L 181.975116 161.629408 
z
" style="fill:#006bc8;"/>
   </g>
   <g id="patch_32">
    <path clip-path="url(#pbb007bcb17)" d="M 174.629235 243.96 
L 180.50594 243.96 
L 180.50594 162.768573 
L 174.629235 162.768573 
z
" style="fill:#006bc8;"/>
   </g>
   <g id="patch_33">
    <path clip-path="url(#pbb007bcb17)" d="M 167.283354 243.96 
L 173.160059 243.96 
L 173.160059 168.878642 
L 167.283354 168.878642 
z
" style="fill:#006bc8;"/>
   </g>
   <g id="patch_34">
    <path clip-path="url(#pbb007bcb17)" d="M 159.937474 243.96 
L 165.814178 243.96 
L 165.814178 164.529102 
L 159.937474 164.529102 
z
" style="fill:#006bc8;"/>
   </g>
   <g id="patch_35">
    <path clip-path="url(#pbb007bcb17)" d="M 152.591593 243.96 
L 158.468297 243.96 
L 158.468297 162.14721 
L 152.591593 162.14721 
z
" style="fill:#006bc8;"/>
   </g>
   <g id="patch_36">
    <path clip-path="url(#pbb007bcb17)" d="M 145.245712 243.96 
L 151.122417 243.96 
L 151.122417 162.872134 
L 145.245712 162.872134 
z
" style="fill:#006bc8;"/>
   </g>
   <g id="patch_37">
    <path clip-path="url(#pbb007bcb17)" d="M 137.899831 243.96 
L 143.776536 243.96 
L 143.776536 165.771827 
L 137.899831 165.771827 
z
" style="fill:#006bc8;"/>
   </g>
   <g id="patch_38">
    <path clip-path="url(#pbb007bcb17)" d="M 130.55395 243.96 
L 136.430655 243.96 
L 136.430655 166.39319 
L 130.55395 166.39319 
z
" style="fill:#006bc8;"/>
   </g>
   <g id="patch_39">
    <path clip-path="url(#pbb007bcb17)" d="M 123.208069 243.96 
L 129.084774 243.96 
L 129.084774 162.872134 
L 123.208069 162.872134 
z
" style="fill:#006bc8;"/>
   </g>
   <g id="patch_40">
    <path clip-path="url(#pbb007bcb17)" d="M 115.862189 243.96 
L 121.738893 243.96 
L 121.738893 166.703872 
L 115.862189 166.703872 
z
" style="fill:#006bc8;"/>
   </g>
   <g id="patch_41">
    <path clip-path="url(#pbb007bcb17)" d="M 108.516308 243.96 
L 114.393012 243.96 
L 114.393012 162.250771 
L 108.516308 162.250771 
z
" style="fill:#006bc8;"/>
   </g>
   <g id="patch_42">
    <path clip-path="url(#pbb007bcb17)" d="M 101.170427 243.96 
L 107.047132 243.96 
L 107.047132 159.765319 
L 101.170427 159.765319 
z
" style="fill:#006bc8;"/>
   </g>
   <g id="patch_43">
    <path clip-path="url(#pbb007bcb17)" d="M 93.824546 243.96 
L 99.701251 243.96 
L 99.701251 154.380173 
L 93.824546 154.380173 
z
" style="fill:#006bc8;"/>
   </g>
   <g id="patch_44">
    <path clip-path="url(#pbb007bcb17)" d="M 86.478665 243.96 
L 92.35537 243.96 
L 92.35537 155.208657 
L 86.478665 155.208657 
z
" style="fill:#006bc8;"/>
   </g>
   <g id="patch_45">
    <path clip-path="url(#pbb007bcb17)" d="M 343.584494 166.186069 
L 349.461199 166.186069 
L 349.461199 80.748662 
L 343.584494 80.748662 
z
" style="fill:#39a1fc;"/>
   </g>
   <g id="patch_46">
    <path clip-path="url(#pbb007bcb17)" d="M 336.238614 163.804178 
L 342.115318 163.804178 
L 342.115318 78.366771 
L 336.238614 78.366771 
z
" style="fill:#39a1fc;"/>
   </g>
   <g id="patch_47">
    <path clip-path="url(#pbb007bcb17)" d="M 328.892733 170.846292 
L 334.769437 170.846292 
L 334.769437 85.098203 
L 328.892733 85.098203 
z
" style="fill:#39a1fc;"/>
   </g>
   <g id="patch_48">
    <path clip-path="url(#pbb007bcb17)" d="M 321.546852 165.564706 
L 327.423557 165.564706 
L 327.423557 81.784267 
L 321.546852 81.784267 
z
" style="fill:#39a1fc;"/>
   </g>
   <g id="patch_49">
    <path clip-path="url(#pbb007bcb17)" d="M 314.200971 166.807432 
L 320.077676 166.807432 
L 320.077676 84.166159 
L 314.200971 84.166159 
z
" style="fill:#39a1fc;"/>
   </g>
   <g id="patch_50">
    <path clip-path="url(#pbb007bcb17)" d="M 306.85509 165.771827 
L 312.731795 165.771827 
L 312.731795 83.544796 
L 306.85509 83.544796 
z
" style="fill:#39a1fc;"/>
   </g>
   <g id="patch_51">
    <path clip-path="url(#pbb007bcb17)" d="M 299.509209 162.250771 
L 305.385914 162.250771 
L 305.385914 78.573892 
L 299.509209 78.573892 
z
" style="fill:#39a1fc;"/>
   </g>
   <g id="patch_52">
    <path clip-path="url(#pbb007bcb17)" d="M 292.163329 164.529102 
L 298.040033 164.529102 
L 298.040033 86.858732 
L 292.163329 86.858732 
z
" style="fill:#39a1fc;"/>
   </g>
   <g id="patch_53">
    <path clip-path="url(#pbb007bcb17)" d="M 284.817448 164.529102 
L 290.694152 164.529102 
L 290.694152 89.447744 
L 284.817448 89.447744 
z
" style="fill:#39a1fc;"/>
   </g>
   <g id="patch_54">
    <path clip-path="url(#pbb007bcb17)" d="M 277.471567 159.661758 
L 283.348272 159.661758 
L 283.348272 84.580401 
L 277.471567 84.580401 
z
" style="fill:#39a1fc;"/>
   </g>
   <g id="patch_55">
    <path clip-path="url(#pbb007bcb17)" d="M 270.125686 160.593803 
L 276.002391 160.593803 
L 276.002391 83.751917 
L 270.125686 83.751917 
z
" style="fill:#39a1fc;"/>
   </g>
   <g id="patch_56">
    <path clip-path="url(#pbb007bcb17)" d="M 262.779805 163.493497 
L 268.65651 163.493497 
L 268.65651 90.276228 
L 262.779805 90.276228 
z
" style="fill:#39a1fc;"/>
   </g>
   <g id="patch_57">
    <path clip-path="url(#pbb007bcb17)" d="M 255.433924 162.872134 
L 261.310629 162.872134 
L 261.310629 89.137062 
L 255.433924 89.137062 
z
" style="fill:#39a1fc;"/>
   </g>
   <g id="patch_58">
    <path clip-path="url(#pbb007bcb17)" d="M 248.088044 158.522593 
L 253.964748 158.522593 
L 253.964748 83.648356 
L 248.088044 83.648356 
z
" style="fill:#39a1fc;"/>
   </g>
   <g id="patch_59">
    <path clip-path="url(#pbb007bcb17)" d="M 240.742163 154.173052 
L 246.618867 154.173052 
L 246.618867 77.952529 
L 240.742163 77.952529 
z
" style="fill:#39a1fc;"/>
   </g>
   <g id="patch_60">
    <path clip-path="url(#pbb007bcb17)" d="M 233.396282 164.21842 
L 239.272987 164.21842 
L 239.272987 96.075615 
L 233.396282 96.075615 
z
" style="fill:#39a1fc;"/>
   </g>
   <g id="patch_61">
    <path clip-path="url(#pbb007bcb17)" d="M 226.050401 163.597057 
L 231.927106 163.597057 
L 231.927106 94.625769 
L 226.050401 94.625769 
z
" style="fill:#39a1fc;"/>
   </g>
   <g id="patch_62">
    <path clip-path="url(#pbb007bcb17)" d="M 218.70452 160.904484 
L 224.581225 160.904484 
L 224.581225 91.415393 
L 218.70452 91.415393 
z
" style="fill:#39a1fc;"/>
   </g>
   <g id="patch_63">
    <path clip-path="url(#pbb007bcb17)" d="M 211.358639 160.800924 
L 217.235344 160.800924 
L 217.235344 89.654865 
L 211.358639 89.654865 
z
" style="fill:#39a1fc;"/>
   </g>
   <g id="patch_64">
    <path clip-path="url(#pbb007bcb17)" d="M 204.012759 162.665013 
L 209.889463 162.665013 
L 209.889463 91.829635 
L 204.012759 91.829635 
z
" style="fill:#39a1fc;"/>
   </g>
   <g id="patch_65">
    <path clip-path="url(#pbb007bcb17)" d="M 196.666878 164.425541 
L 202.543582 164.425541 
L 202.543582 95.247131 
L 196.666878 95.247131 
z
" style="fill:#39a1fc;"/>
   </g>
   <g id="patch_66">
    <path clip-path="url(#pbb007bcb17)" d="M 189.320997 164.011299 
L 195.197702 164.011299 
L 195.197702 93.693724 
L 189.320997 93.693724 
z
" style="fill:#39a1fc;"/>
   </g>
   <g id="patch_67">
    <path clip-path="url(#pbb007bcb17)" d="M 181.975116 161.629408 
L 187.851821 161.629408 
L 187.851821 88.515699 
L 181.975116 88.515699 
z
" style="fill:#39a1fc;"/>
   </g>
   <g id="patch_68">
    <path clip-path="url(#pbb007bcb17)" d="M 174.629235 162.768573 
L 180.50594 162.768573 
L 180.50594 92.86524 
L 174.629235 92.86524 
z
" style="fill:#39a1fc;"/>
   </g>
   <g id="patch_69">
    <path clip-path="url(#pbb007bcb17)" d="M 167.283354 168.878642 
L 173.160059 168.878642 
L 173.160059 99.596672 
L 167.283354 99.596672 
z
" style="fill:#39a1fc;"/>
   </g>
   <g id="patch_70">
    <path clip-path="url(#pbb007bcb17)" d="M 159.937474 164.529102 
L 165.814178 164.529102 
L 165.814178 93.279482 
L 159.937474 93.279482 
z
" style="fill:#39a1fc;"/>
   </g>
   <g id="patch_71">
    <path clip-path="url(#pbb007bcb17)" d="M 152.591593 162.14721 
L 158.468297 162.14721 
L 158.468297 88.412139 
L 152.591593 88.412139 
z
" style="fill:#39a1fc;"/>
   </g>
   <g id="patch_72">
    <path clip-path="url(#pbb007bcb17)" d="M 145.245712 162.872134 
L 151.122417 162.872134 
L 151.122417 90.483349 
L 145.245712 90.483349 
z
" style="fill:#39a1fc;"/>
   </g>
   <g id="patch_73">
    <path clip-path="url(#pbb007bcb17)" d="M 137.899831 165.771827 
L 143.776536 165.771827 
L 143.776536 92.140317 
L 137.899831 92.140317 
z
" style="fill:#39a1fc;"/>
   </g>
   <g id="patch_74">
    <path clip-path="url(#pbb007bcb17)" d="M 130.55395 166.39319 
L 136.430655 166.39319 
L 136.430655 92.86524 
L 130.55395 92.86524 
z
" style="fill:#39a1fc;"/>
   </g>
   <g id="patch_75">
    <path clip-path="url(#pbb007bcb17)" d="M 123.208069 162.872134 
L 129.084774 162.872134 
L 129.084774 87.376534 
L 123.208069 87.376534 
z
" style="fill:#39a1fc;"/>
   </g>
   <g id="patch_76">
    <path clip-path="url(#pbb007bcb17)" d="M 115.862189 166.703872 
L 121.738893 166.703872 
L 121.738893 93.797285 
L 115.862189 93.797285 
z
" style="fill:#39a1fc;"/>
   </g>
   <g id="patch_77">
    <path clip-path="url(#pbb007bcb17)" d="M 108.516308 162.250771 
L 114.393012 162.250771 
L 114.393012 89.344183 
L 108.516308 89.344183 
z
" style="fill:#39a1fc;"/>
   </g>
   <g id="patch_78">
    <path clip-path="url(#pbb007bcb17)" d="M 101.170427 159.765319 
L 107.047132 159.765319 
L 107.047132 86.44449 
L 101.170427 86.44449 
z
" style="fill:#39a1fc;"/>
   </g>
   <g id="matplotlib.axis_1">
    <g id="xtick_1">
     <g id="line2d_1">
      <defs>
       <path d="M 0 0 
L 0 3.5 
" id="mafaf6ddfb1" style="stroke:#000000;stroke-width:0.8;"/>
      </defs>
      <g>
       <use style="stroke:#000000;stroke-width:0.8;" x="67.379375" xlink:href="#mafaf6ddfb1" y="243.96"/>
      </g>
     </g>
     <g id="text_1">
      <!-- 2010 -->
      <defs>
       <path d="M 19.1875 8.296875 
L 53.609375 8.296875 
L 53.609375 0 
L 7.328125 0 
L 7.328125 8.296875 
Q 12.9375 14.109375 22.625 23.890625 
Q 32.328125 33.6875 34.8125 36.53125 
Q 39.546875 41.84375 41.421875 45.53125 
Q 43.3125 49.21875 43.3125 52.78125 
Q 43.3125 58.59375 39.234375 62.25 
Q 35.15625 65.921875 28.609375 65.921875 
Q 23.96875 65.921875 18.8125 64.3125 
Q 13.671875 62.703125 7.8125 59.421875 
L 7.8125 69.390625 
Q 13.765625 71.78125 18.9375 73 
Q 24.125 74.21875 28.421875 74.21875 
Q 39.75 74.21875 46.484375 68.546875 
Q 53.21875 62.890625 53.21875 53.421875 
Q 53.21875 48.921875 51.53125 44.890625 
Q 49.859375 40.875 45.40625 35.40625 
Q 44.1875 33.984375 37.640625 27.21875 
Q 31.109375 20.453125 19.1875 8.296875 
z
" id="DejaVuSans-50"/>
       <path d="M 31.78125 66.40625 
Q 24.171875 66.40625 20.328125 58.90625 
Q 16.5 51.421875 16.5 36.375 
Q 16.5 21.390625 20.328125 13.890625 
Q 24.171875 6.390625 31.78125 6.390625 
Q 39.453125 6.390625 43.28125 13.890625 
Q 47.125 21.390625 47.125 36.375 
Q 47.125 51.421875 43.28125 58.90625 
Q 39.453125 66.40625 31.78125 66.40625 
z
M 31.78125 74.21875 
Q 44.046875 74.21875 50.515625 64.515625 
Q 56.984375 54.828125 56.984375 36.375 
Q 56.984375 17.96875 50.515625 8.265625 
Q 44.046875 -1.421875 31.78125 -1.421875 
Q 19.53125 -1.421875 13.0625 8.265625 
Q 6.59375 17.96875 6.59375 36.375 
Q 6.59375 54.828125 13.0625 64.515625 
Q 19.53125 74.21875 31.78125 74.21875 
z
" id="DejaVuSans-48"/>
       <path d="M 12.40625 8.296875 
L 28.515625 8.296875 
L 28.515625 63.921875 
L 10.984375 60.40625 
L 10.984375 69.390625 
L 28.421875 72.90625 
L 38.28125 72.90625 
L 38.28125 8.296875 
L 54.390625 8.296875 
L 54.390625 0 
L 12.40625 0 
z
" id="DejaVuSans-49"/>
      </defs>
      <g transform="translate(49.564375 261.597812)scale(0.14 -0.14)">
       <use xlink:href="#DejaVuSans-50"/>
       <use x="63.623047" xlink:href="#DejaVuSans-48"/>
       <use x="127.246094" xlink:href="#DejaVuSans-49"/>
       <use x="190.869141" xlink:href="#DejaVuSans-48"/>
      </g>
     </g>
    </g>
    <g id="xtick_2">
     <g id="line2d_2">
      <g>
       <use style="stroke:#000000;stroke-width:0.8;" x="126.146422" xlink:href="#mafaf6ddfb1" y="243.96"/>
      </g>
     </g>
     <g id="text_2">
      <!-- 2012 -->
      <g transform="translate(108.331422 261.597812)scale(0.14 -0.14)">
       <use xlink:href="#DejaVuSans-50"/>
       <use x="63.623047" xlink:href="#DejaVuSans-48"/>
       <use x="127.246094" xlink:href="#DejaVuSans-49"/>
       <use x="190.869141" xlink:href="#DejaVuSans-50"/>
      </g>
     </g>
    </g>
    <g id="xtick_3">
     <g id="line2d_3">
      <g>
       <use style="stroke:#000000;stroke-width:0.8;" x="184.913468" xlink:href="#mafaf6ddfb1" y="243.96"/>
      </g>
     </g>
     <g id="text_3">
      <!-- 2014 -->
      <defs>
       <path d="M 37.796875 64.3125 
L 12.890625 25.390625 
L 37.796875 25.390625 
z
M 35.203125 72.90625 
L 47.609375 72.90625 
L 47.609375 25.390625 
L 58.015625 25.390625 
L 58.015625 17.1875 
L 47.609375 17.1875 
L 47.609375 0 
L 37.796875 0 
L 37.796875 17.1875 
L 4.890625 17.1875 
L 4.890625 26.703125 
z
" id="DejaVuSans-52"/>
      </defs>
      <g transform="translate(167.098468 261.597812)scale(0.14 -0.14)">
       <use xlink:href="#DejaVuSans-50"/>
       <use x="63.623047" xlink:href="#DejaVuSans-48"/>
       <use x="127.246094" xlink:href="#DejaVuSans-49"/>
       <use x="190.869141" xlink:href="#DejaVuSans-52"/>
      </g>
     </g>
    </g>
    <g id="xtick_4">
     <g id="line2d_4">
      <g>
       <use style="stroke:#000000;stroke-width:0.8;" x="243.680515" xlink:href="#mafaf6ddfb1" y="243.96"/>
      </g>
     </g>
     <g id="text_4">
      <!-- 2016 -->
      <defs>
       <path d="M 33.015625 40.375 
Q 26.375 40.375 22.484375 35.828125 
Q 18.609375 31.296875 18.609375 23.390625 
Q 18.609375 15.53125 22.484375 10.953125 
Q 26.375 6.390625 33.015625 6.390625 
Q 39.65625 6.390625 43.53125 10.953125 
Q 47.40625 15.53125 47.40625 23.390625 
Q 47.40625 31.296875 43.53125 35.828125 
Q 39.65625 40.375 33.015625 40.375 
z
M 52.59375 71.296875 
L 52.59375 62.3125 
Q 48.875 64.0625 45.09375 64.984375 
Q 41.3125 65.921875 37.59375 65.921875 
Q 27.828125 65.921875 22.671875 59.328125 
Q 17.53125 52.734375 16.796875 39.40625 
Q 19.671875 43.65625 24.015625 45.921875 
Q 28.375 48.1875 33.59375 48.1875 
Q 44.578125 48.1875 50.953125 41.515625 
Q 57.328125 34.859375 57.328125 23.390625 
Q 57.328125 12.15625 50.6875 5.359375 
Q 44.046875 -1.421875 33.015625 -1.421875 
Q 20.359375 -1.421875 13.671875 8.265625 
Q 6.984375 17.96875 6.984375 36.375 
Q 6.984375 53.65625 15.1875 63.9375 
Q 23.390625 74.21875 37.203125 74.21875 
Q 40.921875 74.21875 44.703125 73.484375 
Q 48.484375 72.75 52.59375 71.296875 
z
" id="DejaVuSans-54"/>
      </defs>
      <g transform="translate(225.865515 261.597812)scale(0.14 -0.14)">
       <use xlink:href="#DejaVuSans-50"/>
       <use x="63.623047" xlink:href="#DejaVuSans-48"/>
       <use x="127.246094" xlink:href="#DejaVuSans-49"/>
       <use x="190.869141" xlink:href="#DejaVuSans-54"/>
      </g>
     </g>
    </g>
    <g id="xtick_5">
     <g id="line2d_5">
      <g>
       <use style="stroke:#000000;stroke-width:0.8;" x="302.447562" xlink:href="#mafaf6ddfb1" y="243.96"/>
      </g>
     </g>
     <g id="text_5">
      <!-- 2018 -->
      <defs>
       <path d="M 31.78125 34.625 
Q 24.75 34.625 20.71875 30.859375 
Q 16.703125 27.09375 16.703125 20.515625 
Q 16.703125 13.921875 20.71875 10.15625 
Q 24.75 6.390625 31.78125 6.390625 
Q 38.8125 6.390625 42.859375 10.171875 
Q 46.921875 13.96875 46.921875 20.515625 
Q 46.921875 27.09375 42.890625 30.859375 
Q 38.875 34.625 31.78125 34.625 
z
M 21.921875 38.8125 
Q 15.578125 40.375 12.03125 44.71875 
Q 8.5 49.078125 8.5 55.328125 
Q 8.5 64.0625 14.71875 69.140625 
Q 20.953125 74.21875 31.78125 74.21875 
Q 42.671875 74.21875 48.875 69.140625 
Q 55.078125 64.0625 55.078125 55.328125 
Q 55.078125 49.078125 51.53125 44.71875 
Q 48 40.375 41.703125 38.8125 
Q 48.828125 37.15625 52.796875 32.3125 
Q 56.78125 27.484375 56.78125 20.515625 
Q 56.78125 9.90625 50.3125 4.234375 
Q 43.84375 -1.421875 31.78125 -1.421875 
Q 19.734375 -1.421875 13.25 4.234375 
Q 6.78125 9.90625 6.78125 20.515625 
Q 6.78125 27.484375 10.78125 32.3125 
Q 14.796875 37.15625 21.921875 38.8125 
z
M 18.3125 54.390625 
Q 18.3125 48.734375 21.84375 45.5625 
Q 25.390625 42.390625 31.78125 42.390625 
Q 38.140625 42.390625 41.71875 45.5625 
Q 45.3125 48.734375 45.3125 54.390625 
Q 45.3125 60.0625 41.71875 63.234375 
Q 38.140625 66.40625 31.78125 66.40625 
Q 25.390625 66.40625 21.84375 63.234375 
Q 18.3125 60.0625 18.3125 54.390625 
z
" id="DejaVuSans-56"/>
      </defs>
      <g transform="translate(284.632562 261.597812)scale(0.14 -0.14)">
       <use xlink:href="#DejaVuSans-50"/>
       <use x="63.623047" xlink:href="#DejaVuSans-48"/>
       <use x="127.246094" xlink:href="#DejaVuSans-49"/>
       <use x="190.869141" xlink:href="#DejaVuSans-56"/>
      </g>
     </g>
    </g>
    <g id="xtick_6">
     <g id="line2d_6">
      <g>
       <use style="stroke:#000000;stroke-width:0.8;" x="361.214608" xlink:href="#mafaf6ddfb1" y="243.96"/>
      </g>
     </g>
     <g id="text_6">
      <!-- 2020 -->
      <g transform="translate(343.399608 261.597812)scale(0.14 -0.14)">
       <use xlink:href="#DejaVuSans-50"/>
       <use x="63.623047" xlink:href="#DejaVuSans-48"/>
       <use x="127.246094" xlink:href="#DejaVuSans-50"/>
       <use x="190.869141" xlink:href="#DejaVuSans-48"/>
      </g>
     </g>
    </g>
   </g>
   <g id="matplotlib.axis_2">
    <g id="ytick_1">
     <g id="line2d_7">
      <defs>
       <path d="M 0 0 
L -3.5 0 
" id="mf021ac567e" style="stroke:#000000;stroke-width:0.8;"/>
      </defs>
      <g>
       <use style="stroke:#000000;stroke-width:0.8;" x="67.379375" xlink:href="#mf021ac567e" y="243.96"/>
      </g>
     </g>
     <g id="text_7">
      <!-- 0 -->
      <g transform="translate(51.471875 249.278906)scale(0.14 -0.14)">
       <use xlink:href="#DejaVuSans-48"/>
      </g>
     </g>
    </g>
    <g id="ytick_2">
     <g id="line2d_8">
      <g>
       <use style="stroke:#000000;stroke-width:0.8;" x="67.379375" xlink:href="#mf021ac567e" y="192.179753"/>
      </g>
     </g>
     <g id="text_8">
      <!-- 500 -->
      <defs>
       <path d="M 10.796875 72.90625 
L 49.515625 72.90625 
L 49.515625 64.59375 
L 19.828125 64.59375 
L 19.828125 46.734375 
Q 21.96875 47.46875 24.109375 47.828125 
Q 26.265625 48.1875 28.421875 48.1875 
Q 40.625 48.1875 47.75 41.5 
Q 54.890625 34.8125 54.890625 23.390625 
Q 54.890625 11.625 47.5625 5.09375 
Q 40.234375 -1.421875 26.90625 -1.421875 
Q 22.3125 -1.421875 17.546875 -0.640625 
Q 12.796875 0.140625 7.71875 1.703125 
L 7.71875 11.625 
Q 12.109375 9.234375 16.796875 8.0625 
Q 21.484375 6.890625 26.703125 6.890625 
Q 35.15625 6.890625 40.078125 11.328125 
Q 45.015625 15.765625 45.015625 23.390625 
Q 45.015625 31 40.078125 35.4375 
Q 35.15625 39.890625 26.703125 39.890625 
Q 22.75 39.890625 18.8125 39.015625 
Q 14.890625 38.140625 10.796875 36.28125 
z
" id="DejaVuSans-53"/>
      </defs>
      <g transform="translate(33.656875 197.49866)scale(0.14 -0.14)">
       <use xlink:href="#DejaVuSans-53"/>
       <use x="63.623047" xlink:href="#DejaVuSans-48"/>
       <use x="127.246094" xlink:href="#DejaVuSans-48"/>
      </g>
     </g>
    </g>
    <g id="ytick_3">
     <g id="line2d_9">
      <g>
       <use style="stroke:#000000;stroke-width:0.8;" x="67.379375" xlink:href="#mf021ac567e" y="140.399507"/>
      </g>
     </g>
     <g id="text_9">
      <!-- 1000 -->
      <g transform="translate(24.749375 145.718413)scale(0.14 -0.14)">
       <use xlink:href="#DejaVuSans-49"/>
       <use x="63.623047" xlink:href="#DejaVuSans-48"/>
       <use x="127.246094" xlink:href="#DejaVuSans-48"/>
       <use x="190.869141" xlink:href="#DejaVuSans-48"/>
      </g>
     </g>
    </g>
    <g id="ytick_4">
     <g id="line2d_10">
      <g>
       <use style="stroke:#000000;stroke-width:0.8;" x="67.379375" xlink:href="#mf021ac567e" y="88.61926"/>
      </g>
     </g>
     <g id="text_10">
      <!-- 1500 -->
      <g transform="translate(24.749375 93.938166)scale(0.14 -0.14)">
       <use xlink:href="#DejaVuSans-49"/>
       <use x="63.623047" xlink:href="#DejaVuSans-53"/>
       <use x="127.246094" xlink:href="#DejaVuSans-48"/>
       <use x="190.869141" xlink:href="#DejaVuSans-48"/>
      </g>
     </g>
    </g>
    <g id="ytick_5">
     <g id="line2d_11">
      <g>
       <use style="stroke:#000000;stroke-width:0.8;" x="67.379375" xlink:href="#mf021ac567e" y="36.839013"/>
      </g>
     </g>
     <g id="text_11">
      <!-- 2000 -->
      <g transform="translate(24.749375 42.157919)scale(0.14 -0.14)">
       <use xlink:href="#DejaVuSans-50"/>
       <use x="63.623047" xlink:href="#DejaVuSans-48"/>
       <use x="127.246094" xlink:href="#DejaVuSans-48"/>
       <use x="190.869141" xlink:href="#DejaVuSans-48"/>
      </g>
     </g>
    </g>
    <g id="text_12">
     <!-- Total # of Available Beds -->
     <defs>
      <path d="M -0.296875 72.90625 
L 61.375 72.90625 
L 61.375 64.59375 
L 35.5 64.59375 
L 35.5 0 
L 25.59375 0 
L 25.59375 64.59375 
L -0.296875 64.59375 
z
" id="DejaVuSans-84"/>
      <path d="M 30.609375 48.390625 
Q 23.390625 48.390625 19.1875 42.75 
Q 14.984375 37.109375 14.984375 27.296875 
Q 14.984375 17.484375 19.15625 11.84375 
Q 23.34375 6.203125 30.609375 6.203125 
Q 37.796875 6.203125 41.984375 11.859375 
Q 46.1875 17.53125 46.1875 27.296875 
Q 46.1875 37.015625 41.984375 42.703125 
Q 37.796875 48.390625 30.609375 48.390625 
z
M 30.609375 56 
Q 42.328125 56 49.015625 48.375 
Q 55.71875 40.765625 55.71875 27.296875 
Q 55.71875 13.875 49.015625 6.21875 
Q 42.328125 -1.421875 30.609375 -1.421875 
Q 18.84375 -1.421875 12.171875 6.21875 
Q 5.515625 13.875 5.515625 27.296875 
Q 5.515625 40.765625 12.171875 48.375 
Q 18.84375 56 30.609375 56 
z
" id="DejaVuSans-111"/>
      <path d="M 18.3125 70.21875 
L 18.3125 54.6875 
L 36.8125 54.6875 
L 36.8125 47.703125 
L 18.3125 47.703125 
L 18.3125 18.015625 
Q 18.3125 11.328125 20.140625 9.421875 
Q 21.96875 7.515625 27.59375 7.515625 
L 36.8125 7.515625 
L 36.8125 0 
L 27.59375 0 
Q 17.1875 0 13.234375 3.875 
Q 9.28125 7.765625 9.28125 18.015625 
L 9.28125 47.703125 
L 2.6875 47.703125 
L 2.6875 54.6875 
L 9.28125 54.6875 
L 9.28125 70.21875 
z
" id="DejaVuSans-116"/>
      <path d="M 34.28125 27.484375 
Q 23.390625 27.484375 19.1875 25 
Q 14.984375 22.515625 14.984375 16.5 
Q 14.984375 11.71875 18.140625 8.90625 
Q 21.296875 6.109375 26.703125 6.109375 
Q 34.1875 6.109375 38.703125 11.40625 
Q 43.21875 16.703125 43.21875 25.484375 
L 43.21875 27.484375 
z
M 52.203125 31.203125 
L 52.203125 0 
L 43.21875 0 
L 43.21875 8.296875 
Q 40.140625 3.328125 35.546875 0.953125 
Q 30.953125 -1.421875 24.3125 -1.421875 
Q 15.921875 -1.421875 10.953125 3.296875 
Q 6 8.015625 6 15.921875 
Q 6 25.140625 12.171875 29.828125 
Q 18.359375 34.515625 30.609375 34.515625 
L 43.21875 34.515625 
L 43.21875 35.40625 
Q 43.21875 41.609375 39.140625 45 
Q 35.0625 48.390625 27.6875 48.390625 
Q 23 48.390625 18.546875 47.265625 
Q 14.109375 46.140625 10.015625 43.890625 
L 10.015625 52.203125 
Q 14.9375 54.109375 19.578125 55.046875 
Q 24.21875 56 28.609375 56 
Q 40.484375 56 46.34375 49.84375 
Q 52.203125 43.703125 52.203125 31.203125 
z
" id="DejaVuSans-97"/>
      <path d="M 9.421875 75.984375 
L 18.40625 75.984375 
L 18.40625 0 
L 9.421875 0 
z
" id="DejaVuSans-108"/>
      <path id="DejaVuSans-32"/>
      <path d="M 51.125 44 
L 36.921875 44 
L 32.8125 27.6875 
L 47.125 27.6875 
z
M 43.796875 71.78125 
L 38.71875 51.515625 
L 52.984375 51.515625 
L 58.109375 71.78125 
L 65.921875 71.78125 
L 60.890625 51.515625 
L 76.125 51.515625 
L 76.125 44 
L 58.984375 44 
L 54.984375 27.6875 
L 70.515625 27.6875 
L 70.515625 20.21875 
L 53.078125 20.21875 
L 48 0 
L 40.1875 0 
L 45.21875 20.21875 
L 30.90625 20.21875 
L 25.875 0 
L 18.015625 0 
L 23.09375 20.21875 
L 7.71875 20.21875 
L 7.71875 27.6875 
L 24.90625 27.6875 
L 29 44 
L 13.28125 44 
L 13.28125 51.515625 
L 30.90625 51.515625 
L 35.890625 71.78125 
z
" id="DejaVuSans-35"/>
      <path d="M 37.109375 75.984375 
L 37.109375 68.5 
L 28.515625 68.5 
Q 23.6875 68.5 21.796875 66.546875 
Q 19.921875 64.59375 19.921875 59.515625 
L 19.921875 54.6875 
L 34.71875 54.6875 
L 34.71875 47.703125 
L 19.921875 47.703125 
L 19.921875 0 
L 10.890625 0 
L 10.890625 47.703125 
L 2.296875 47.703125 
L 2.296875 54.6875 
L 10.890625 54.6875 
L 10.890625 58.5 
Q 10.890625 67.625 15.140625 71.796875 
Q 19.390625 75.984375 28.609375 75.984375 
z
" id="DejaVuSans-102"/>
      <path d="M 34.1875 63.1875 
L 20.796875 26.90625 
L 47.609375 26.90625 
z
M 28.609375 72.90625 
L 39.796875 72.90625 
L 67.578125 0 
L 57.328125 0 
L 50.6875 18.703125 
L 17.828125 18.703125 
L 11.1875 0 
L 0.78125 0 
z
" id="DejaVuSans-65"/>
      <path d="M 2.984375 54.6875 
L 12.5 54.6875 
L 29.59375 8.796875 
L 46.6875 54.6875 
L 56.203125 54.6875 
L 35.6875 0 
L 23.484375 0 
z
" id="DejaVuSans-118"/>
      <path d="M 9.421875 54.6875 
L 18.40625 54.6875 
L 18.40625 0 
L 9.421875 0 
z
M 9.421875 75.984375 
L 18.40625 75.984375 
L 18.40625 64.59375 
L 9.421875 64.59375 
z
" id="DejaVuSans-105"/>
      <path d="M 48.6875 27.296875 
Q 48.6875 37.203125 44.609375 42.84375 
Q 40.53125 48.484375 33.40625 48.484375 
Q 26.265625 48.484375 22.1875 42.84375 
Q 18.109375 37.203125 18.109375 27.296875 
Q 18.109375 17.390625 22.1875 11.75 
Q 26.265625 6.109375 33.40625 6.109375 
Q 40.53125 6.109375 44.609375 11.75 
Q 48.6875 17.390625 48.6875 27.296875 
z
M 18.109375 46.390625 
Q 20.953125 51.265625 25.265625 53.625 
Q 29.59375 56 35.59375 56 
Q 45.5625 56 51.78125 48.09375 
Q 58.015625 40.1875 58.015625 27.296875 
Q 58.015625 14.40625 51.78125 6.484375 
Q 45.5625 -1.421875 35.59375 -1.421875 
Q 29.59375 -1.421875 25.265625 0.953125 
Q 20.953125 3.328125 18.109375 8.203125 
L 18.109375 0 
L 9.078125 0 
L 9.078125 75.984375 
L 18.109375 75.984375 
z
" id="DejaVuSans-98"/>
      <path d="M 56.203125 29.59375 
L 56.203125 25.203125 
L 14.890625 25.203125 
Q 15.484375 15.921875 20.484375 11.0625 
Q 25.484375 6.203125 34.421875 6.203125 
Q 39.59375 6.203125 44.453125 7.46875 
Q 49.3125 8.734375 54.109375 11.28125 
L 54.109375 2.78125 
Q 49.265625 0.734375 44.1875 -0.34375 
Q 39.109375 -1.421875 33.890625 -1.421875 
Q 20.796875 -1.421875 13.15625 6.1875 
Q 5.515625 13.8125 5.515625 26.8125 
Q 5.515625 40.234375 12.765625 48.109375 
Q 20.015625 56 32.328125 56 
Q 43.359375 56 49.78125 48.890625 
Q 56.203125 41.796875 56.203125 29.59375 
z
M 47.21875 32.234375 
Q 47.125 39.59375 43.09375 43.984375 
Q 39.0625 48.390625 32.421875 48.390625 
Q 24.90625 48.390625 20.390625 44.140625 
Q 15.875 39.890625 15.1875 32.171875 
z
" id="DejaVuSans-101"/>
      <path d="M 19.671875 34.8125 
L 19.671875 8.109375 
L 35.5 8.109375 
Q 43.453125 8.109375 47.28125 11.40625 
Q 51.125 14.703125 51.125 21.484375 
Q 51.125 28.328125 47.28125 31.5625 
Q 43.453125 34.8125 35.5 34.8125 
z
M 19.671875 64.796875 
L 19.671875 42.828125 
L 34.28125 42.828125 
Q 41.5 42.828125 45.03125 45.53125 
Q 48.578125 48.25 48.578125 53.8125 
Q 48.578125 59.328125 45.03125 62.0625 
Q 41.5 64.796875 34.28125 64.796875 
z
M 9.8125 72.90625 
L 35.015625 72.90625 
Q 46.296875 72.90625 52.390625 68.21875 
Q 58.5 63.53125 58.5 54.890625 
Q 58.5 48.1875 55.375 44.234375 
Q 52.25 40.28125 46.1875 39.3125 
Q 53.46875 37.75 57.5 32.78125 
Q 61.53125 27.828125 61.53125 20.40625 
Q 61.53125 10.640625 54.890625 5.3125 
Q 48.25 0 35.984375 0 
L 9.8125 0 
z
" id="DejaVuSans-66"/>
      <path d="M 45.40625 46.390625 
L 45.40625 75.984375 
L 54.390625 75.984375 
L 54.390625 0 
L 45.40625 0 
L 45.40625 8.203125 
Q 42.578125 3.328125 38.25 0.953125 
Q 33.9375 -1.421875 27.875 -1.421875 
Q 17.96875 -1.421875 11.734375 6.484375 
Q 5.515625 14.40625 5.515625 27.296875 
Q 5.515625 40.1875 11.734375 48.09375 
Q 17.96875 56 27.875 56 
Q 33.9375 56 38.25 53.625 
Q 42.578125 51.265625 45.40625 46.390625 
z
M 14.796875 27.296875 
Q 14.796875 17.390625 18.875 11.75 
Q 22.953125 6.109375 30.078125 6.109375 
Q 37.203125 6.109375 41.296875 11.75 
Q 45.40625 17.390625 45.40625 27.296875 
Q 45.40625 37.203125 41.296875 42.84375 
Q 37.203125 48.484375 30.078125 48.484375 
Q 22.953125 48.484375 18.875 42.84375 
Q 14.796875 37.203125 14.796875 27.296875 
z
" id="DejaVuSans-100"/>
      <path d="M 44.28125 53.078125 
L 44.28125 44.578125 
Q 40.484375 46.53125 36.375 47.5 
Q 32.28125 48.484375 27.875 48.484375 
Q 21.1875 48.484375 17.84375 46.4375 
Q 14.5 44.390625 14.5 40.28125 
Q 14.5 37.15625 16.890625 35.375 
Q 19.28125 33.59375 26.515625 31.984375 
L 29.59375 31.296875 
Q 39.15625 29.25 43.1875 25.515625 
Q 47.21875 21.78125 47.21875 15.09375 
Q 47.21875 7.46875 41.1875 3.015625 
Q 35.15625 -1.421875 24.609375 -1.421875 
Q 20.21875 -1.421875 15.453125 -0.5625 
Q 10.6875 0.296875 5.421875 2 
L 5.421875 11.28125 
Q 10.40625 8.6875 15.234375 7.390625 
Q 20.0625 6.109375 24.8125 6.109375 
Q 31.15625 6.109375 34.5625 8.28125 
Q 37.984375 10.453125 37.984375 14.40625 
Q 37.984375 18.0625 35.515625 20.015625 
Q 33.0625 21.96875 24.703125 23.78125 
L 21.578125 24.515625 
Q 13.234375 26.265625 9.515625 29.90625 
Q 5.8125 33.546875 5.8125 39.890625 
Q 5.8125 47.609375 11.28125 51.796875 
Q 16.75 56 26.8125 56 
Q 31.78125 56 36.171875 55.265625 
Q 40.578125 54.546875 44.28125 53.078125 
z
" id="DejaVuSans-115"/>
     </defs>
     <g transform="translate(17.837813 213.901406)rotate(-90)scale(0.14 -0.14)">
      <use xlink:href="#DejaVuSans-84"/>
      <use x="60.818359" xlink:href="#DejaVuSans-111"/>
      <use x="122" xlink:href="#DejaVuSans-116"/>
      <use x="161.208984" xlink:href="#DejaVuSans-97"/>
      <use x="222.488281" xlink:href="#DejaVuSans-108"/>
      <use x="250.271484" xlink:href="#DejaVuSans-32"/>
      <use x="282.058594" xlink:href="#DejaVuSans-35"/>
      <use x="365.847656" xlink:href="#DejaVuSans-32"/>
      <use x="397.634766" xlink:href="#DejaVuSans-111"/>
      <use x="458.816406" xlink:href="#DejaVuSans-102"/>
      <use x="494.021484" xlink:href="#DejaVuSans-32"/>
      <use x="525.808594" xlink:href="#DejaVuSans-65"/>
      <use x="594.138672" xlink:href="#DejaVuSans-118"/>
      <use x="653.318359" xlink:href="#DejaVuSans-97"/>
      <use x="714.597656" xlink:href="#DejaVuSans-105"/>
      <use x="742.380859" xlink:href="#DejaVuSans-108"/>
      <use x="770.164062" xlink:href="#DejaVuSans-97"/>
      <use x="831.443359" xlink:href="#DejaVuSans-98"/>
      <use x="894.919922" xlink:href="#DejaVuSans-108"/>
      <use x="922.703125" xlink:href="#DejaVuSans-101"/>
      <use x="984.226562" xlink:href="#DejaVuSans-32"/>
      <use x="1016.013672" xlink:href="#DejaVuSans-66"/>
      <use x="1084.617188" xlink:href="#DejaVuSans-101"/>
      <use x="1146.140625" xlink:href="#DejaVuSans-100"/>
      <use x="1209.617188" xlink:href="#DejaVuSans-115"/>
     </g>
    </g>
   </g>
   <g id="patch_79">
    <path d="M 67.379375 243.96 
L 67.379375 7.2 
" style="fill:none;stroke:#000000;stroke-linecap:square;stroke-linejoin:miter;stroke-width:0.8;"/>
   </g>
   <g id="patch_80">
    <path d="M 408.889375 243.96 
L 408.889375 7.2 
" style="fill:none;stroke:#000000;stroke-linecap:square;stroke-linejoin:miter;stroke-width:0.8;"/>
   </g>
   <g id="patch_81">
    <path d="M 67.379375 243.96 
L 408.889375 243.96 
" style="fill:none;stroke:#000000;stroke-linecap:square;stroke-linejoin:miter;stroke-width:0.8;"/>
   </g>
   <g id="patch_82">
    <path d="M 67.379375 7.2 
L 408.889375 7.2 
" style="fill:none;stroke:#000000;stroke-linecap:square;stroke-linejoin:miter;stroke-width:0.8;"/>
   </g>
   <g id="legend_1">
    <g id="patch_83">
     <path d="M 79.979375 30.437812 
L 107.979375 30.437812 
L 107.979375 20.637812 
L 79.979375 20.637812 
z
" style="fill:#004684;"/>
    </g>
    <g id="text_13">
     <!-- Liverpool -->
     <defs>
      <path d="M 9.8125 72.90625 
L 19.671875 72.90625 
L 19.671875 8.296875 
L 55.171875 8.296875 
L 55.171875 0 
L 9.8125 0 
z
" id="DejaVuSans-76"/>
      <path d="M 41.109375 46.296875 
Q 39.59375 47.171875 37.8125 47.578125 
Q 36.03125 48 33.890625 48 
Q 26.265625 48 22.1875 43.046875 
Q 18.109375 38.09375 18.109375 28.8125 
L 18.109375 0 
L 9.078125 0 
L 9.078125 54.6875 
L 18.109375 54.6875 
L 18.109375 46.1875 
Q 20.953125 51.171875 25.484375 53.578125 
Q 30.03125 56 36.53125 56 
Q 37.453125 56 38.578125 55.875 
Q 39.703125 55.765625 41.0625 55.515625 
z
" id="DejaVuSans-114"/>
      <path d="M 18.109375 8.203125 
L 18.109375 -20.796875 
L 9.078125 -20.796875 
L 9.078125 54.6875 
L 18.109375 54.6875 
L 18.109375 46.390625 
Q 20.953125 51.265625 25.265625 53.625 
Q 29.59375 56 35.59375 56 
Q 45.5625 56 51.78125 48.09375 
Q 58.015625 40.1875 58.015625 27.296875 
Q 58.015625 14.40625 51.78125 6.484375 
Q 45.5625 -1.421875 35.59375 -1.421875 
Q 29.59375 -1.421875 25.265625 0.953125 
Q 20.953125 3.328125 18.109375 8.203125 
z
M 48.6875 27.296875 
Q 48.6875 37.203125 44.609375 42.84375 
Q 40.53125 48.484375 33.40625 48.484375 
Q 26.265625 48.484375 22.1875 42.84375 
Q 18.109375 37.203125 18.109375 27.296875 
Q 18.109375 17.390625 22.1875 11.75 
Q 26.265625 6.109375 33.40625 6.109375 
Q 40.53125 6.109375 44.609375 11.75 
Q 48.6875 17.390625 48.6875 27.296875 
z
" id="DejaVuSans-112"/>
     </defs>
     <g transform="translate(119.179375 30.437812)scale(0.14 -0.14)">
      <use xlink:href="#DejaVuSans-76"/>
      <use x="55.712891" xlink:href="#DejaVuSans-105"/>
      <use x="83.496094" xlink:href="#DejaVuSans-118"/>
      <use x="142.675781" xlink:href="#DejaVuSans-101"/>
      <use x="204.199219" xlink:href="#DejaVuSans-114"/>
      <use x="245.3125" xlink:href="#DejaVuSans-112"/>
      <use x="308.789062" xlink:href="#DejaVuSans-111"/>
      <use x="369.970703" xlink:href="#DejaVuSans-111"/>
      <use x="431.152344" xlink:href="#DejaVuSans-108"/>
     </g>
    </g>
    <g id="patch_84">
     <path d="M 79.979375 50.987187 
L 107.979375 50.987187 
L 107.979375 41.187187 
L 79.979375 41.187187 
z
" style="fill:#006bc8;"/>
    </g>
    <g id="text_14">
     <!-- Royal Liverpool And Broadgreen -->
     <defs>
      <path d="M 44.390625 34.1875 
Q 47.5625 33.109375 50.5625 29.59375 
Q 53.5625 26.078125 56.59375 19.921875 
L 66.609375 0 
L 56 0 
L 46.6875 18.703125 
Q 43.0625 26.03125 39.671875 28.421875 
Q 36.28125 30.8125 30.421875 30.8125 
L 19.671875 30.8125 
L 19.671875 0 
L 9.8125 0 
L 9.8125 72.90625 
L 32.078125 72.90625 
Q 44.578125 72.90625 50.734375 67.671875 
Q 56.890625 62.453125 56.890625 51.90625 
Q 56.890625 45.015625 53.6875 40.46875 
Q 50.484375 35.9375 44.390625 34.1875 
z
M 19.671875 64.796875 
L 19.671875 38.921875 
L 32.078125 38.921875 
Q 39.203125 38.921875 42.84375 42.21875 
Q 46.484375 45.515625 46.484375 51.90625 
Q 46.484375 58.296875 42.84375 61.546875 
Q 39.203125 64.796875 32.078125 64.796875 
z
" id="DejaVuSans-82"/>
      <path d="M 32.171875 -5.078125 
Q 28.375 -14.84375 24.75 -17.8125 
Q 21.140625 -20.796875 15.09375 -20.796875 
L 7.90625 -20.796875 
L 7.90625 -13.28125 
L 13.1875 -13.28125 
Q 16.890625 -13.28125 18.9375 -11.515625 
Q 21 -9.765625 23.484375 -3.21875 
L 25.09375 0.875 
L 2.984375 54.6875 
L 12.5 54.6875 
L 29.59375 11.921875 
L 46.6875 54.6875 
L 56.203125 54.6875 
z
" id="DejaVuSans-121"/>
      <path d="M 54.890625 33.015625 
L 54.890625 0 
L 45.90625 0 
L 45.90625 32.71875 
Q 45.90625 40.484375 42.875 44.328125 
Q 39.84375 48.1875 33.796875 48.1875 
Q 26.515625 48.1875 22.3125 43.546875 
Q 18.109375 38.921875 18.109375 30.90625 
L 18.109375 0 
L 9.078125 0 
L 9.078125 54.6875 
L 18.109375 54.6875 
L 18.109375 46.1875 
Q 21.34375 51.125 25.703125 53.5625 
Q 30.078125 56 35.796875 56 
Q 45.21875 56 50.046875 50.171875 
Q 54.890625 44.34375 54.890625 33.015625 
z
" id="DejaVuSans-110"/>
      <path d="M 45.40625 27.984375 
Q 45.40625 37.75 41.375 43.109375 
Q 37.359375 48.484375 30.078125 48.484375 
Q 22.859375 48.484375 18.828125 43.109375 
Q 14.796875 37.75 14.796875 27.984375 
Q 14.796875 18.265625 18.828125 12.890625 
Q 22.859375 7.515625 30.078125 7.515625 
Q 37.359375 7.515625 41.375 12.890625 
Q 45.40625 18.265625 45.40625 27.984375 
z
M 54.390625 6.78125 
Q 54.390625 -7.171875 48.1875 -13.984375 
Q 42 -20.796875 29.203125 -20.796875 
Q 24.46875 -20.796875 20.265625 -20.09375 
Q 16.0625 -19.390625 12.109375 -17.921875 
L 12.109375 -9.1875 
Q 16.0625 -11.328125 19.921875 -12.34375 
Q 23.78125 -13.375 27.78125 -13.375 
Q 36.625 -13.375 41.015625 -8.765625 
Q 45.40625 -4.15625 45.40625 5.171875 
L 45.40625 9.625 
Q 42.625 4.78125 38.28125 2.390625 
Q 33.9375 0 27.875 0 
Q 17.828125 0 11.671875 7.65625 
Q 5.515625 15.328125 5.515625 27.984375 
Q 5.515625 40.671875 11.671875 48.328125 
Q 17.828125 56 27.875 56 
Q 33.9375 56 38.28125 53.609375 
Q 42.625 51.21875 45.40625 46.390625 
L 45.40625 54.6875 
L 54.390625 54.6875 
z
" id="DejaVuSans-103"/>
     </defs>
     <g transform="translate(119.179375 50.987187)scale(0.14 -0.14)">
      <use xlink:href="#DejaVuSans-82"/>
      <use x="69.419922" xlink:href="#DejaVuSans-111"/>
      <use x="130.601562" xlink:href="#DejaVuSans-121"/>
      <use x="189.78125" xlink:href="#DejaVuSans-97"/>
      <use x="251.060547" xlink:href="#DejaVuSans-108"/>
      <use x="278.84375" xlink:href="#DejaVuSans-32"/>
      <use x="310.630859" xlink:href="#DejaVuSans-76"/>
      <use x="366.34375" xlink:href="#DejaVuSans-105"/>
      <use x="394.126953" xlink:href="#DejaVuSans-118"/>
      <use x="453.306641" xlink:href="#DejaVuSans-101"/>
      <use x="514.830078" xlink:href="#DejaVuSans-114"/>
      <use x="555.943359" xlink:href="#DejaVuSans-112"/>
      <use x="619.419922" xlink:href="#DejaVuSans-111"/>
      <use x="680.601562" xlink:href="#DejaVuSans-111"/>
      <use x="741.783203" xlink:href="#DejaVuSans-108"/>
      <use x="769.566406" xlink:href="#DejaVuSans-32"/>
      <use x="801.353516" xlink:href="#DejaVuSans-65"/>
      <use x="869.761719" xlink:href="#DejaVuSans-110"/>
      <use x="933.140625" xlink:href="#DejaVuSans-100"/>
      <use x="996.617188" xlink:href="#DejaVuSans-32"/>
      <use x="1028.404297" xlink:href="#DejaVuSans-66"/>
      <use x="1097.007812" xlink:href="#DejaVuSans-114"/>
      <use x="1138.089844" xlink:href="#DejaVuSans-111"/>
      <use x="1199.271484" xlink:href="#DejaVuSans-97"/>
      <use x="1260.550781" xlink:href="#DejaVuSans-100"/>
      <use x="1324.027344" xlink:href="#DejaVuSans-103"/>
      <use x="1387.503906" xlink:href="#DejaVuSans-114"/>
      <use x="1428.585938" xlink:href="#DejaVuSans-101"/>
      <use x="1490.109375" xlink:href="#DejaVuSans-101"/>
      <use x="1551.632812" xlink:href="#DejaVuSans-110"/>
     </g>
    </g>
    <g id="patch_85">
     <path d="M 79.979375 71.536562 
L 107.979375 71.536562 
L 107.979375 61.736562 
L 79.979375 61.736562 
z
" style="fill:#39a1fc;"/>
    </g>
    <g id="text_15">
     <!-- Aintree -->
     <g transform="translate(119.179375 71.536562)scale(0.14 -0.14)">
      <use xlink:href="#DejaVuSans-65"/>
      <use x="68.408203" xlink:href="#DejaVuSans-105"/>
      <use x="96.191406" xlink:href="#DejaVuSans-110"/>
      <use x="159.570312" xlink:href="#DejaVuSans-116"/>
      <use x="198.779297" xlink:href="#DejaVuSans-114"/>
      <use x="239.861328" xlink:href="#DejaVuSans-101"/>
      <use x="301.384766" xlink:href="#DejaVuSans-101"/>
     </g>
    </g>
   </g>
  </g>
 </g>
 <defs>
  <clipPath id="pbb007bcb17">
   <rect height="236.76" width="341.51" x="67.379375" y="7.2"/>
  </clipPath>
 </defs>
</svg>
