<?xml version="1.0" encoding="utf-8" standalone="no"?>
<!DOCTYPE svg PUBLIC "-//W3C//DTD SVG 1.1//EN"
  "http://www.w3.org/Graphics/SVG/1.1/DTD/svg11.dtd">
<!-- Created with matplotlib (https://matplotlib.org/) -->
<svg height="271.130027pt" version="1.1" viewBox="0 0 415.839375 271.130027" width="415.839375pt" xmlns="http://www.w3.org/2000/svg" xmlns:xlink="http://www.w3.org/1999/xlink">
 <metadata>
  <rdf:RDF xmlns:cc="http://creativecommons.org/ns#" xmlns:dc="http://purl.org/dc/elements/1.1/" xmlns:rdf="http://www.w3.org/1999/02/22-rdf-syntax-ns#">
   <cc:Work>
    <dc:type rdf:resource="http://purl.org/dc/dcmitype/StillImage"/>
    <dc:date>2021-08-15T12:50:51.542575</dc:date>
    <dc:format>image/svg+xml</dc:format>
    <dc:creator>
     <cc:Agent>
      <dc:title>Matplotlib v3.3.4, https://matplotlib.org/</dc:title>
     </cc:Agent>
    </dc:creator>
   </cc:Work>
  </rdf:RDF>
 </metadata>
 <defs>
  <style type="text/css">*{stroke-linecap:butt;stroke-linejoin:round;}</style>
 </defs>
 <g id="figure_1">
  <g id="patch_1">
   <path d="M 0 271.130027 
L 415.839375 271.130027 
L 415.839375 0 
L 0 0 
z
" style="fill:none;"/>
  </g>
  <g id="axes_1">
   <g id="patch_2">
    <path d="M 67.379375 243.380652 
L 408.639375 243.380652 
L 408.639375 7.439948 
L 67.379375 7.439948 
z
" style="fill:#ffffff;"/>
   </g>
   <g id="patch_3">
    <path clip-path="url(#pc2ad6dff88)" d="M 387.42532 243.380652 
L 393.297723 243.380652 
L 393.297723 101.785448 
L 387.42532 101.785448 
z
" style="fill:#004684;"/>
   </g>
   <g id="patch_4">
    <path clip-path="url(#pc2ad6dff88)" d="M 380.084817 243.380652 
L 385.95722 243.380652 
L 385.95722 102.093264 
L 380.084817 102.093264 
z
" style="fill:#004684;"/>
   </g>
   <g id="patch_5">
    <path clip-path="url(#pc2ad6dff88)" d="M 372.744314 243.380652 
L 378.616716 243.380652 
L 378.616716 110.635148 
L 372.744314 110.635148 
z
" style="fill:#004684;"/>
   </g>
   <g id="patch_6">
    <path clip-path="url(#pc2ad6dff88)" d="M 365.40381 243.380652 
L 371.276213 243.380652 
L 371.276213 138.18465 
L 365.40381 138.18465 
z
" style="fill:#004684;"/>
   </g>
   <g id="patch_7">
    <path clip-path="url(#pc2ad6dff88)" d="M 358.063307 243.380652 
L 363.93571 243.380652 
L 363.93571 81.623522 
L 358.063307 81.623522 
z
" style="fill:#004684;"/>
   </g>
   <g id="patch_8">
    <path clip-path="url(#pc2ad6dff88)" d="M 350.722804 243.380652 
L 356.595206 243.380652 
L 356.595206 79.853582 
L 350.722804 79.853582 
z
" style="fill:#004684;"/>
   </g>
   <g id="patch_9">
    <path clip-path="url(#pc2ad6dff88)" d="M 343.3823 243.380652 
L 349.254703 243.380652 
L 349.254703 79.699674 
L 343.3823 79.699674 
z
" style="fill:#004684;"/>
   </g>
   <g id="patch_10">
    <path clip-path="url(#pc2ad6dff88)" d="M 336.041797 243.380652 
L 341.9142 243.380652 
L 341.9142 76.929333 
L 336.041797 76.929333 
z
" style="fill:#004684;"/>
   </g>
   <g id="patch_11">
    <path clip-path="url(#pc2ad6dff88)" d="M 328.701294 243.380652 
L 334.573696 243.380652 
L 334.573696 74.851578 
L 328.701294 74.851578 
z
" style="fill:#004684;"/>
   </g>
   <g id="patch_12">
    <path clip-path="url(#pc2ad6dff88)" d="M 321.36079 243.380652 
L 327.233193 243.380652 
L 327.233193 74.851578 
L 321.36079 74.851578 
z
" style="fill:#004684;"/>
   </g>
   <g id="patch_13">
    <path clip-path="url(#pc2ad6dff88)" d="M 314.020287 243.380652 
L 319.89269 243.380652 
L 319.89269 79.314905 
L 314.020287 79.314905 
z
" style="fill:#004684;"/>
   </g>
   <g id="patch_14">
    <path clip-path="url(#pc2ad6dff88)" d="M 306.679784 243.380652 
L 312.552186 243.380652 
L 312.552186 78.776227 
L 306.679784 78.776227 
z
" style="fill:#004684;"/>
   </g>
   <g id="patch_15">
    <path clip-path="url(#pc2ad6dff88)" d="M 299.33928 243.380652 
L 305.211683 243.380652 
L 305.211683 83.085647 
L 299.33928 83.085647 
z
" style="fill:#004684;"/>
   </g>
   <g id="patch_16">
    <path clip-path="url(#pc2ad6dff88)" d="M 291.998777 243.380652 
L 297.87118 243.380652 
L 297.87118 86.086849 
L 291.998777 86.086849 
z
" style="fill:#004684;"/>
   </g>
   <g id="patch_17">
    <path clip-path="url(#pc2ad6dff88)" d="M 284.658274 243.380652 
L 290.530676 243.380652 
L 290.530676 150.728138 
L 284.658274 150.728138 
z
" style="fill:#006bc8;"/>
   </g>
   <g id="patch_18">
    <path clip-path="url(#pc2ad6dff88)" d="M 277.31777 243.380652 
L 283.190173 243.380652 
L 283.190173 151.420723 
L 277.31777 151.420723 
z
" style="fill:#006bc8;"/>
   </g>
   <g id="patch_19">
    <path clip-path="url(#pc2ad6dff88)" d="M 269.977267 243.380652 
L 275.84967 243.380652 
L 275.84967 149.18906 
L 269.977267 149.18906 
z
" style="fill:#006bc8;"/>
   </g>
   <g id="patch_20">
    <path clip-path="url(#pc2ad6dff88)" d="M 262.636764 243.380652 
L 268.509166 243.380652 
L 268.509166 150.728138 
L 262.636764 150.728138 
z
" style="fill:#006bc8;"/>
   </g>
   <g id="patch_21">
    <path clip-path="url(#pc2ad6dff88)" d="M 255.29626 243.380652 
L 261.168663 243.380652 
L 261.168663 149.727737 
L 255.29626 149.727737 
z
" style="fill:#006bc8;"/>
   </g>
   <g id="patch_22">
    <path clip-path="url(#pc2ad6dff88)" d="M 247.955757 243.380652 
L 253.82816 243.380652 
L 253.82816 147.342166 
L 247.955757 147.342166 
z
" style="fill:#006bc8;"/>
   </g>
   <g id="patch_23">
    <path clip-path="url(#pc2ad6dff88)" d="M 240.615254 243.380652 
L 246.487656 243.380652 
L 246.487656 146.418719 
L 240.615254 146.418719 
z
" style="fill:#006bc8;"/>
   </g>
   <g id="patch_24">
    <path clip-path="url(#pc2ad6dff88)" d="M 233.27475 243.380652 
L 239.147153 243.380652 
L 239.147153 147.573028 
L 233.27475 147.573028 
z
" style="fill:#006bc8;"/>
   </g>
   <g id="patch_25">
    <path clip-path="url(#pc2ad6dff88)" d="M 225.934247 243.380652 
L 231.80665 243.380652 
L 231.80665 150.651184 
L 225.934247 150.651184 
z
" style="fill:#006bc8;"/>
   </g>
   <g id="patch_26">
    <path clip-path="url(#pc2ad6dff88)" d="M 218.593744 243.380652 
L 224.466146 243.380652 
L 224.466146 149.958599 
L 218.593744 149.958599 
z
" style="fill:#006bc8;"/>
   </g>
   <g id="patch_27">
    <path clip-path="url(#pc2ad6dff88)" d="M 211.25324 243.380652 
L 217.125643 243.380652 
L 217.125643 148.80429 
L 211.25324 148.80429 
z
" style="fill:#006bc8;"/>
   </g>
   <g id="patch_28">
    <path clip-path="url(#pc2ad6dff88)" d="M 203.912737 243.380652 
L 209.78514 243.380652 
L 209.78514 149.496876 
L 203.912737 149.496876 
z
" style="fill:#006bc8;"/>
   </g>
   <g id="patch_29">
    <path clip-path="url(#pc2ad6dff88)" d="M 196.572234 243.380652 
L 202.444636 243.380652 
L 202.444636 150.497276 
L 196.572234 150.497276 
z
" style="fill:#006bc8;"/>
   </g>
   <g id="patch_30">
    <path clip-path="url(#pc2ad6dff88)" d="M 189.23173 243.380652 
L 195.104133 243.380652 
L 195.104133 150.651184 
L 189.23173 150.651184 
z
" style="fill:#006bc8;"/>
   </g>
   <g id="patch_31">
    <path clip-path="url(#pc2ad6dff88)" d="M 181.891227 243.380652 
L 187.76363 243.380652 
L 187.76363 150.651184 
L 181.891227 150.651184 
z
" style="fill:#006bc8;"/>
   </g>
   <g id="patch_32">
    <path clip-path="url(#pc2ad6dff88)" d="M 174.550724 243.380652 
L 180.423126 243.380652 
L 180.423126 153.267617 
L 174.550724 153.267617 
z
" style="fill:#006bc8;"/>
   </g>
   <g id="patch_33">
    <path clip-path="url(#pc2ad6dff88)" d="M 167.21022 243.380652 
L 173.082623 243.380652 
L 173.082623 145.956995 
L 167.21022 145.956995 
z
" style="fill:#006bc8;"/>
   </g>
   <g id="patch_34">
    <path clip-path="url(#pc2ad6dff88)" d="M 159.869717 243.380652 
L 165.74212 243.380652 
L 165.74212 144.802687 
L 159.869717 144.802687 
z
" style="fill:#006bc8;"/>
   </g>
   <g id="patch_35">
    <path clip-path="url(#pc2ad6dff88)" d="M 152.529214 243.380652 
L 158.401616 243.380652 
L 158.401616 144.187055 
L 152.529214 144.187055 
z
" style="fill:#006bc8;"/>
   </g>
   <g id="patch_36">
    <path clip-path="url(#pc2ad6dff88)" d="M 145.18871 243.380652 
L 151.061113 243.380652 
L 151.061113 150.882046 
L 145.18871 150.882046 
z
" style="fill:#006bc8;"/>
   </g>
   <g id="patch_37">
    <path clip-path="url(#pc2ad6dff88)" d="M 137.848207 243.380652 
L 143.72061 243.380652 
L 143.72061 150.882046 
L 137.848207 150.882046 
z
" style="fill:#006bc8;"/>
   </g>
   <g id="patch_38">
    <path clip-path="url(#pc2ad6dff88)" d="M 130.507704 243.380652 
L 136.380106 243.380652 
L 136.380106 151.266816 
L 130.507704 151.266816 
z
" style="fill:#006bc8;"/>
   </g>
   <g id="patch_39">
    <path clip-path="url(#pc2ad6dff88)" d="M 123.1672 243.380652 
L 129.039603 243.380652 
L 129.039603 168.735354 
L 123.1672 168.735354 
z
" style="fill:#006bc8;"/>
   </g>
   <g id="patch_40">
    <path clip-path="url(#pc2ad6dff88)" d="M 115.826697 243.380652 
L 121.6991 243.380652 
L 121.6991 168.735354 
L 115.826697 168.735354 
z
" style="fill:#006bc8;"/>
   </g>
   <g id="patch_41">
    <path clip-path="url(#pc2ad6dff88)" d="M 108.486194 243.380652 
L 114.358596 243.380652 
L 114.358596 168.042769 
L 108.486194 168.042769 
z
" style="fill:#006bc8;"/>
   </g>
   <g id="patch_42">
    <path clip-path="url(#pc2ad6dff88)" d="M 101.14569 243.380652 
L 107.018093 243.380652 
L 107.018093 163.34858 
L 101.14569 163.34858 
z
" style="fill:#006bc8;"/>
   </g>
   <g id="patch_43">
    <path clip-path="url(#pc2ad6dff88)" d="M 93.805187 243.380652 
L 99.67759 243.380652 
L 99.67759 162.425133 
L 93.805187 162.425133 
z
" style="fill:#006bc8;"/>
   </g>
   <g id="patch_44">
    <path clip-path="url(#pc2ad6dff88)" d="M 86.464684 243.380652 
L 92.337086 243.380652 
L 92.337086 157.961806 
L 86.464684 157.961806 
z
" style="fill:#006bc8;"/>
   </g>
   <g id="patch_45">
    <path clip-path="url(#pc2ad6dff88)" d="M 284.658274 150.728138 
L 290.530676 150.728138 
L 290.530676 90.165407 
L 284.658274 90.165407 
z
" style="fill:#39a1fc;"/>
   </g>
   <g id="patch_46">
    <path clip-path="url(#pc2ad6dff88)" d="M 277.31777 151.420723 
L 283.190173 151.420723 
L 283.190173 89.857591 
L 277.31777 89.857591 
z
" style="fill:#39a1fc;"/>
   </g>
   <g id="patch_47">
    <path clip-path="url(#pc2ad6dff88)" d="M 269.977267 149.18906 
L 275.84967 149.18906 
L 275.84967 84.932541 
L 269.977267 84.932541 
z
" style="fill:#39a1fc;"/>
   </g>
   <g id="patch_48">
    <path clip-path="url(#pc2ad6dff88)" d="M 262.636764 150.728138 
L 268.509166 150.728138 
L 268.509166 84.163001 
L 262.636764 84.163001 
z
" style="fill:#39a1fc;"/>
   </g>
   <g id="patch_49">
    <path clip-path="url(#pc2ad6dff88)" d="M 255.29626 149.727737 
L 261.168663 149.727737 
L 261.168663 87.395066 
L 255.29626 87.395066 
z
" style="fill:#39a1fc;"/>
   </g>
   <g id="patch_50">
    <path clip-path="url(#pc2ad6dff88)" d="M 247.955757 147.342166 
L 253.82816 147.342166 
L 253.82816 85.70208 
L 247.955757 85.70208 
z
" style="fill:#39a1fc;"/>
   </g>
   <g id="patch_51">
    <path clip-path="url(#pc2ad6dff88)" d="M 240.615254 146.418719 
L 246.487656 146.418719 
L 246.487656 84.701679 
L 240.615254 84.701679 
z
" style="fill:#39a1fc;"/>
   </g>
   <g id="patch_52">
    <path clip-path="url(#pc2ad6dff88)" d="M 233.27475 147.573028 
L 239.147153 147.573028 
L 239.147153 87.318112 
L 233.27475 87.318112 
z
" style="fill:#39a1fc;"/>
   </g>
   <g id="patch_53">
    <path clip-path="url(#pc2ad6dff88)" d="M 225.934247 150.651184 
L 231.80665 150.651184 
L 231.80665 89.780637 
L 225.934247 89.780637 
z
" style="fill:#39a1fc;"/>
   </g>
   <g id="patch_54">
    <path clip-path="url(#pc2ad6dff88)" d="M 218.593744 149.958599 
L 224.466146 149.958599 
L 224.466146 88.626329 
L 218.593744 88.626329 
z
" style="fill:#39a1fc;"/>
   </g>
   <g id="patch_55">
    <path clip-path="url(#pc2ad6dff88)" d="M 211.25324 148.80429 
L 217.125643 148.80429 
L 217.125643 83.54737 
L 211.25324 83.54737 
z
" style="fill:#39a1fc;"/>
   </g>
   <g id="patch_56">
    <path clip-path="url(#pc2ad6dff88)" d="M 203.912737 149.496876 
L 209.78514 149.496876 
L 209.78514 83.239554 
L 203.912737 83.239554 
z
" style="fill:#39a1fc;"/>
   </g>
   <g id="patch_57">
    <path clip-path="url(#pc2ad6dff88)" d="M 196.572234 150.497276 
L 202.444636 150.497276 
L 202.444636 84.701679 
L 196.572234 84.701679 
z
" style="fill:#39a1fc;"/>
   </g>
   <g id="patch_58">
    <path clip-path="url(#pc2ad6dff88)" d="M 189.23173 150.651184 
L 195.104133 150.651184 
L 195.104133 84.547771 
L 189.23173 84.547771 
z
" style="fill:#39a1fc;"/>
   </g>
   <g id="patch_59">
    <path clip-path="url(#pc2ad6dff88)" d="M 181.891227 150.651184 
L 187.76363 150.651184 
L 187.76363 83.778232 
L 181.891227 83.778232 
z
" style="fill:#39a1fc;"/>
   </g>
   <g id="patch_60">
    <path clip-path="url(#pc2ad6dff88)" d="M 174.550724 153.267617 
L 180.423126 153.267617 
L 180.423126 88.318513 
L 174.550724 88.318513 
z
" style="fill:#39a1fc;"/>
   </g>
   <g id="patch_61">
    <path clip-path="url(#pc2ad6dff88)" d="M 167.21022 145.956995 
L 173.082623 145.956995 
L 173.082623 79.160997 
L 167.21022 79.160997 
z
" style="fill:#39a1fc;"/>
   </g>
   <g id="patch_62">
    <path clip-path="url(#pc2ad6dff88)" d="M 159.869717 144.802687 
L 165.74212 144.802687 
L 165.74212 77.237149 
L 159.869717 77.237149 
z
" style="fill:#39a1fc;"/>
   </g>
   <g id="patch_63">
    <path clip-path="url(#pc2ad6dff88)" d="M 152.529214 144.187055 
L 158.401616 144.187055 
L 158.401616 75.544163 
L 152.529214 75.544163 
z
" style="fill:#39a1fc;"/>
   </g>
   <g id="patch_64">
    <path clip-path="url(#pc2ad6dff88)" d="M 145.18871 150.882046 
L 151.061113 150.882046 
L 151.061113 84.316909 
L 145.18871 84.316909 
z
" style="fill:#39a1fc;"/>
   </g>
   <g id="patch_65">
    <path clip-path="url(#pc2ad6dff88)" d="M 137.848207 150.882046 
L 143.72061 150.882046 
L 143.72061 84.701679 
L 137.848207 84.701679 
z
" style="fill:#39a1fc;"/>
   </g>
   <g id="patch_66">
    <path clip-path="url(#pc2ad6dff88)" d="M 130.507704 151.266816 
L 136.380106 151.266816 
L 136.380106 84.701679 
L 130.507704 84.701679 
z
" style="fill:#39a1fc;"/>
   </g>
   <g id="patch_67">
    <path clip-path="url(#pc2ad6dff88)" d="M 123.1672 168.735354 
L 129.039603 168.735354 
L 129.039603 102.170218 
L 123.1672 102.170218 
z
" style="fill:#39a1fc;"/>
   </g>
   <g id="patch_68">
    <path clip-path="url(#pc2ad6dff88)" d="M 115.826697 168.735354 
L 121.6991 168.735354 
L 121.6991 102.324125 
L 115.826697 102.324125 
z
" style="fill:#39a1fc;"/>
   </g>
   <g id="patch_69">
    <path clip-path="url(#pc2ad6dff88)" d="M 108.486194 168.042769 
L 114.358596 168.042769 
L 114.358596 101.554586 
L 108.486194 101.554586 
z
" style="fill:#39a1fc;"/>
   </g>
   <g id="patch_70">
    <path clip-path="url(#pc2ad6dff88)" d="M 101.14569 163.34858 
L 107.018093 163.34858 
L 107.018093 96.475628 
L 101.14569 96.475628 
z
" style="fill:#39a1fc;"/>
   </g>
   <g id="patch_71">
    <path clip-path="url(#pc2ad6dff88)" d="M 93.805187 162.425133 
L 99.67759 162.425133 
L 99.67759 96.167812 
L 93.805187 96.167812 
z
" style="fill:#39a1fc;"/>
   </g>
   <g id="patch_72">
    <path clip-path="url(#pc2ad6dff88)" d="M 86.464684 157.961806 
L 92.337086 157.961806 
L 92.337086 92.627932 
L 86.464684 92.627932 
z
" style="fill:#39a1fc;"/>
   </g>
   <g id="matplotlib.axis_1">
    <g id="xtick_1">
     <g id="line2d_1">
      <defs>
       <path d="M 0 0 
L 0 3.5 
" id="m9bb61e456d" style="stroke:#000000;stroke-width:0.8;"/>
      </defs>
      <g>
       <use style="stroke:#000000;stroke-width:0.8;" x="67.379375" xlink:href="#m9bb61e456d" y="243.380652"/>
      </g>
     </g>
     <g id="text_1">
      <!-- 2010 -->
      <g transform="translate(49.564375 261.018465)scale(0.14 -0.14)">
       <defs>
        <path d="M 19.1875 8.296875 
L 53.609375 8.296875 
L 53.609375 0 
L 7.328125 0 
L 7.328125 8.296875 
Q 12.9375 14.109375 22.625 23.890625 
Q 32.328125 33.6875 34.8125 36.53125 
Q 39.546875 41.84375 41.421875 45.53125 
Q 43.3125 49.21875 43.3125 52.78125 
Q 43.3125 58.59375 39.234375 62.25 
Q 35.15625 65.921875 28.609375 65.921875 
Q 23.96875 65.921875 18.8125 64.3125 
Q 13.671875 62.703125 7.8125 59.421875 
L 7.8125 69.390625 
Q 13.765625 71.78125 18.9375 73 
Q 24.125 74.21875 28.421875 74.21875 
Q 39.75 74.21875 46.484375 68.546875 
Q 53.21875 62.890625 53.21875 53.421875 
Q 53.21875 48.921875 51.53125 44.890625 
Q 49.859375 40.875 45.40625 35.40625 
Q 44.1875 33.984375 37.640625 27.21875 
Q 31.109375 20.453125 19.1875 8.296875 
z
" id="DejaVuSans-50"/>
        <path d="M 31.78125 66.40625 
Q 24.171875 66.40625 20.328125 58.90625 
Q 16.5 51.421875 16.5 36.375 
Q 16.5 21.390625 20.328125 13.890625 
Q 24.171875 6.390625 31.78125 6.390625 
Q 39.453125 6.390625 43.28125 13.890625 
Q 47.125 21.390625 47.125 36.375 
Q 47.125 51.421875 43.28125 58.90625 
Q 39.453125 66.40625 31.78125 66.40625 
z
M 31.78125 74.21875 
Q 44.046875 74.21875 50.515625 64.515625 
Q 56.984375 54.828125 56.984375 36.375 
Q 56.984375 17.96875 50.515625 8.265625 
Q 44.046875 -1.421875 31.78125 -1.421875 
Q 19.53125 -1.421875 13.0625 8.265625 
Q 6.59375 17.96875 6.59375 36.375 
Q 6.59375 54.828125 13.0625 64.515625 
Q 19.53125 74.21875 31.78125 74.21875 
z
" id="DejaVuSans-48"/>
        <path d="M 12.40625 8.296875 
L 28.515625 8.296875 
L 28.515625 63.921875 
L 10.984375 60.40625 
L 10.984375 69.390625 
L 28.421875 72.90625 
L 38.28125 72.90625 
L 38.28125 8.296875 
L 54.390625 8.296875 
L 54.390625 0 
L 12.40625 0 
z
" id="DejaVuSans-49"/>
       </defs>
       <use xlink:href="#DejaVuSans-50"/>
       <use x="63.623047" xlink:href="#DejaVuSans-48"/>
       <use x="127.246094" xlink:href="#DejaVuSans-49"/>
       <use x="190.869141" xlink:href="#DejaVuSans-48"/>
      </g>
     </g>
    </g>
    <g id="xtick_2">
     <g id="line2d_2">
      <g>
       <use style="stroke:#000000;stroke-width:0.8;" x="126.103402" xlink:href="#m9bb61e456d" y="243.380652"/>
      </g>
     </g>
     <g id="text_2">
      <!-- 2012 -->
      <g transform="translate(108.288402 261.018465)scale(0.14 -0.14)">
       <use xlink:href="#DejaVuSans-50"/>
       <use x="63.623047" xlink:href="#DejaVuSans-48"/>
       <use x="127.246094" xlink:href="#DejaVuSans-49"/>
       <use x="190.869141" xlink:href="#DejaVuSans-50"/>
      </g>
     </g>
    </g>
    <g id="xtick_3">
     <g id="line2d_3">
      <g>
       <use style="stroke:#000000;stroke-width:0.8;" x="184.827428" xlink:href="#m9bb61e456d" y="243.380652"/>
      </g>
     </g>
     <g id="text_3">
      <!-- 2014 -->
      <g transform="translate(167.012428 261.018465)scale(0.14 -0.14)">
       <defs>
        <path d="M 37.796875 64.3125 
L 12.890625 25.390625 
L 37.796875 25.390625 
z
M 35.203125 72.90625 
L 47.609375 72.90625 
L 47.609375 25.390625 
L 58.015625 25.390625 
L 58.015625 17.1875 
L 47.609375 17.1875 
L 47.609375 0 
L 37.796875 0 
L 37.796875 17.1875 
L 4.890625 17.1875 
L 4.890625 26.703125 
z
" id="DejaVuSans-52"/>
       </defs>
       <use xlink:href="#DejaVuSans-50"/>
       <use x="63.623047" xlink:href="#DejaVuSans-48"/>
       <use x="127.246094" xlink:href="#DejaVuSans-49"/>
       <use x="190.869141" xlink:href="#DejaVuSans-52"/>
      </g>
     </g>
    </g>
    <g id="xtick_4">
     <g id="line2d_4">
      <g>
       <use style="stroke:#000000;stroke-width:0.8;" x="243.551455" xlink:href="#m9bb61e456d" y="243.380652"/>
      </g>
     </g>
     <g id="text_4">
      <!-- 2016 -->
      <g transform="translate(225.736455 261.018465)scale(0.14 -0.14)">
       <defs>
        <path d="M 33.015625 40.375 
Q 26.375 40.375 22.484375 35.828125 
Q 18.609375 31.296875 18.609375 23.390625 
Q 18.609375 15.53125 22.484375 10.953125 
Q 26.375 6.390625 33.015625 6.390625 
Q 39.65625 6.390625 43.53125 10.953125 
Q 47.40625 15.53125 47.40625 23.390625 
Q 47.40625 31.296875 43.53125 35.828125 
Q 39.65625 40.375 33.015625 40.375 
z
M 52.59375 71.296875 
L 52.59375 62.3125 
Q 48.875 64.0625 45.09375 64.984375 
Q 41.3125 65.921875 37.59375 65.921875 
Q 27.828125 65.921875 22.671875 59.328125 
Q 17.53125 52.734375 16.796875 39.40625 
Q 19.671875 43.65625 24.015625 45.921875 
Q 28.375 48.1875 33.59375 48.1875 
Q 44.578125 48.1875 50.953125 41.515625 
Q 57.328125 34.859375 57.328125 23.390625 
Q 57.328125 12.15625 50.6875 5.359375 
Q 44.046875 -1.421875 33.015625 -1.421875 
Q 20.359375 -1.421875 13.671875 8.265625 
Q 6.984375 17.96875 6.984375 36.375 
Q 6.984375 53.65625 15.1875 63.9375 
Q 23.390625 74.21875 37.203125 74.21875 
Q 40.921875 74.21875 44.703125 73.484375 
Q 48.484375 72.75 52.59375 71.296875 
z
" id="DejaVuSans-54"/>
       </defs>
       <use xlink:href="#DejaVuSans-50"/>
       <use x="63.623047" xlink:href="#DejaVuSans-48"/>
       <use x="127.246094" xlink:href="#DejaVuSans-49"/>
       <use x="190.869141" xlink:href="#DejaVuSans-54"/>
      </g>
     </g>
    </g>
    <g id="xtick_5">
     <g id="line2d_5">
      <g>
       <use style="stroke:#000000;stroke-width:0.8;" x="302.275482" xlink:href="#m9bb61e456d" y="243.380652"/>
      </g>
     </g>
     <g id="text_5">
      <!-- 2018 -->
      <g transform="translate(284.460482 261.018465)scale(0.14 -0.14)">
       <defs>
        <path d="M 31.78125 34.625 
Q 24.75 34.625 20.71875 30.859375 
Q 16.703125 27.09375 16.703125 20.515625 
Q 16.703125 13.921875 20.71875 10.15625 
Q 24.75 6.390625 31.78125 6.390625 
Q 38.8125 6.390625 42.859375 10.171875 
Q 46.921875 13.96875 46.921875 20.515625 
Q 46.921875 27.09375 42.890625 30.859375 
Q 38.875 34.625 31.78125 34.625 
z
M 21.921875 38.8125 
Q 15.578125 40.375 12.03125 44.71875 
Q 8.5 49.078125 8.5 55.328125 
Q 8.5 64.0625 14.71875 69.140625 
Q 20.953125 74.21875 31.78125 74.21875 
Q 42.671875 74.21875 48.875 69.140625 
Q 55.078125 64.0625 55.078125 55.328125 
Q 55.078125 49.078125 51.53125 44.71875 
Q 48 40.375 41.703125 38.8125 
Q 48.828125 37.15625 52.796875 32.3125 
Q 56.78125 27.484375 56.78125 20.515625 
Q 56.78125 9.90625 50.3125 4.234375 
Q 43.84375 -1.421875 31.78125 -1.421875 
Q 19.734375 -1.421875 13.25 4.234375 
Q 6.78125 9.90625 6.78125 20.515625 
Q 6.78125 27.484375 10.78125 32.3125 
Q 14.796875 37.15625 21.921875 38.8125 
z
M 18.3125 54.390625 
Q 18.3125 48.734375 21.84375 45.5625 
Q 25.390625 42.390625 31.78125 42.390625 
Q 38.140625 42.390625 41.71875 45.5625 
Q 45.3125 48.734375 45.3125 54.390625 
Q 45.3125 60.0625 41.71875 63.234375 
Q 38.140625 66.40625 31.78125 66.40625 
Q 25.390625 66.40625 21.84375 63.234375 
Q 18.3125 60.0625 18.3125 54.390625 
z
" id="DejaVuSans-56"/>
       </defs>
       <use xlink:href="#DejaVuSans-50"/>
       <use x="63.623047" xlink:href="#DejaVuSans-48"/>
       <use x="127.246094" xlink:href="#DejaVuSans-49"/>
       <use x="190.869141" xlink:href="#DejaVuSans-56"/>
      </g>
     </g>
    </g>
    <g id="xtick_6">
     <g id="line2d_6">
      <g>
       <use style="stroke:#000000;stroke-width:0.8;" x="360.999508" xlink:href="#m9bb61e456d" y="243.380652"/>
      </g>
     </g>
     <g id="text_6">
      <!-- 2020 -->
      <g transform="translate(343.184508 261.018465)scale(0.14 -0.14)">
       <use xlink:href="#DejaVuSans-50"/>
       <use x="63.623047" xlink:href="#DejaVuSans-48"/>
       <use x="127.246094" xlink:href="#DejaVuSans-50"/>
       <use x="190.869141" xlink:href="#DejaVuSans-48"/>
      </g>
     </g>
    </g>
   </g>
   <g id="matplotlib.axis_2">
    <g id="ytick_1">
     <g id="line2d_7">
      <defs>
       <path d="M 0 0 
L -3.5 0 
" id="md31323ec05" style="stroke:#000000;stroke-width:0.8;"/>
      </defs>
      <g>
       <use style="stroke:#000000;stroke-width:0.8;" x="67.379375" xlink:href="#md31323ec05" y="243.380652"/>
      </g>
     </g>
     <g id="text_7">
      <!-- 0 -->
      <g transform="translate(51.471875 248.699559)scale(0.14 -0.14)">
       <use xlink:href="#DejaVuSans-48"/>
      </g>
     </g>
    </g>
    <g id="ytick_2">
     <g id="line2d_8">
      <g>
       <use style="stroke:#000000;stroke-width:0.8;" x="67.379375" xlink:href="#md31323ec05" y="204.903695"/>
      </g>
     </g>
     <g id="text_8">
      <!-- 500 -->
      <g transform="translate(33.656875 210.222601)scale(0.14 -0.14)">
       <defs>
        <path d="M 10.796875 72.90625 
L 49.515625 72.90625 
L 49.515625 64.59375 
L 19.828125 64.59375 
L 19.828125 46.734375 
Q 21.96875 47.46875 24.109375 47.828125 
Q 26.265625 48.1875 28.421875 48.1875 
Q 40.625 48.1875 47.75 41.5 
Q 54.890625 34.8125 54.890625 23.390625 
Q 54.890625 11.625 47.5625 5.09375 
Q 40.234375 -1.421875 26.90625 -1.421875 
Q 22.3125 -1.421875 17.546875 -0.640625 
Q 12.796875 0.140625 7.71875 1.703125 
L 7.71875 11.625 
Q 12.109375 9.234375 16.796875 8.0625 
Q 21.484375 6.890625 26.703125 6.890625 
Q 35.15625 6.890625 40.078125 11.328125 
Q 45.015625 15.765625 45.015625 23.390625 
Q 45.015625 31 40.078125 35.4375 
Q 35.15625 39.890625 26.703125 39.890625 
Q 22.75 39.890625 18.8125 39.015625 
Q 14.890625 38.140625 10.796875 36.28125 
z
" id="DejaVuSans-53"/>
       </defs>
       <use xlink:href="#DejaVuSans-53"/>
       <use x="63.623047" xlink:href="#DejaVuSans-48"/>
       <use x="127.246094" xlink:href="#DejaVuSans-48"/>
      </g>
     </g>
    </g>
    <g id="ytick_3">
     <g id="line2d_9">
      <g>
       <use style="stroke:#000000;stroke-width:0.8;" x="67.379375" xlink:href="#md31323ec05" y="166.426737"/>
      </g>
     </g>
     <g id="text_9">
      <!-- 1000 -->
      <g transform="translate(24.749375 171.745643)scale(0.14 -0.14)">
       <use xlink:href="#DejaVuSans-49"/>
       <use x="63.623047" xlink:href="#DejaVuSans-48"/>
       <use x="127.246094" xlink:href="#DejaVuSans-48"/>
       <use x="190.869141" xlink:href="#DejaVuSans-48"/>
      </g>
     </g>
    </g>
    <g id="ytick_4">
     <g id="line2d_10">
      <g>
       <use style="stroke:#000000;stroke-width:0.8;" x="67.379375" xlink:href="#md31323ec05" y="127.949779"/>
      </g>
     </g>
     <g id="text_10">
      <!-- 1500 -->
      <g transform="translate(24.749375 133.268686)scale(0.14 -0.14)">
       <use xlink:href="#DejaVuSans-49"/>
       <use x="63.623047" xlink:href="#DejaVuSans-53"/>
       <use x="127.246094" xlink:href="#DejaVuSans-48"/>
       <use x="190.869141" xlink:href="#DejaVuSans-48"/>
      </g>
     </g>
    </g>
    <g id="ytick_5">
     <g id="line2d_11">
      <g>
       <use style="stroke:#000000;stroke-width:0.8;" x="67.379375" xlink:href="#md31323ec05" y="89.472822"/>
      </g>
     </g>
     <g id="text_11">
      <!-- 2000 -->
      <g transform="translate(24.749375 94.791728)scale(0.14 -0.14)">
       <use xlink:href="#DejaVuSans-50"/>
       <use x="63.623047" xlink:href="#DejaVuSans-48"/>
       <use x="127.246094" xlink:href="#DejaVuSans-48"/>
       <use x="190.869141" xlink:href="#DejaVuSans-48"/>
      </g>
     </g>
    </g>
    <g id="ytick_6">
     <g id="line2d_12">
      <g>
       <use style="stroke:#000000;stroke-width:0.8;" x="67.379375" xlink:href="#md31323ec05" y="50.995864"/>
      </g>
     </g>
     <g id="text_12">
      <!-- 2500 -->
      <g transform="translate(24.749375 56.31477)scale(0.14 -0.14)">
       <use xlink:href="#DejaVuSans-50"/>
       <use x="63.623047" xlink:href="#DejaVuSans-53"/>
       <use x="127.246094" xlink:href="#DejaVuSans-48"/>
       <use x="190.869141" xlink:href="#DejaVuSans-48"/>
      </g>
     </g>
    </g>
    <g id="ytick_7">
     <g id="line2d_13">
      <g>
       <use style="stroke:#000000;stroke-width:0.8;" x="67.379375" xlink:href="#md31323ec05" y="12.518906"/>
      </g>
     </g>
     <g id="text_13">
      <!-- 3000 -->
      <g transform="translate(24.749375 17.837812)scale(0.14 -0.14)">
       <defs>
        <path d="M 40.578125 39.3125 
Q 47.65625 37.796875 51.625 33 
Q 55.609375 28.21875 55.609375 21.1875 
Q 55.609375 10.40625 48.1875 4.484375 
Q 40.765625 -1.421875 27.09375 -1.421875 
Q 22.515625 -1.421875 17.65625 -0.515625 
Q 12.796875 0.390625 7.625 2.203125 
L 7.625 11.71875 
Q 11.71875 9.328125 16.59375 8.109375 
Q 21.484375 6.890625 26.8125 6.890625 
Q 36.078125 6.890625 40.9375 10.546875 
Q 45.796875 14.203125 45.796875 21.1875 
Q 45.796875 27.640625 41.28125 31.265625 
Q 36.765625 34.90625 28.71875 34.90625 
L 20.21875 34.90625 
L 20.21875 43.015625 
L 29.109375 43.015625 
Q 36.375 43.015625 40.234375 45.921875 
Q 44.09375 48.828125 44.09375 54.296875 
Q 44.09375 59.90625 40.109375 62.90625 
Q 36.140625 65.921875 28.71875 65.921875 
Q 24.65625 65.921875 20.015625 65.03125 
Q 15.375 64.15625 9.8125 62.3125 
L 9.8125 71.09375 
Q 15.4375 72.65625 20.34375 73.4375 
Q 25.25 74.21875 29.59375 74.21875 
Q 40.828125 74.21875 47.359375 69.109375 
Q 53.90625 64.015625 53.90625 55.328125 
Q 53.90625 49.265625 50.4375 45.09375 
Q 46.96875 40.921875 40.578125 39.3125 
z
" id="DejaVuSans-51"/>
       </defs>
       <use xlink:href="#DejaVuSans-51"/>
       <use x="63.623047" xlink:href="#DejaVuSans-48"/>
       <use x="127.246094" xlink:href="#DejaVuSans-48"/>
       <use x="190.869141" xlink:href="#DejaVuSans-48"/>
      </g>
     </g>
    </g>
    <g id="text_14">
     <!-- Total # of Available Beds -->
     <g transform="translate(17.837813 212.154519)rotate(-90)scale(0.14 -0.14)">
      <defs>
       <path d="M -0.296875 72.90625 
L 61.375 72.90625 
L 61.375 64.59375 
L 35.5 64.59375 
L 35.5 0 
L 25.59375 0 
L 25.59375 64.59375 
L -0.296875 64.59375 
z
" id="DejaVuSans-84"/>
       <path d="M 30.609375 48.390625 
Q 23.390625 48.390625 19.1875 42.75 
Q 14.984375 37.109375 14.984375 27.296875 
Q 14.984375 17.484375 19.15625 11.84375 
Q 23.34375 6.203125 30.609375 6.203125 
Q 37.796875 6.203125 41.984375 11.859375 
Q 46.1875 17.53125 46.1875 27.296875 
Q 46.1875 37.015625 41.984375 42.703125 
Q 37.796875 48.390625 30.609375 48.390625 
z
M 30.609375 56 
Q 42.328125 56 49.015625 48.375 
Q 55.71875 40.765625 55.71875 27.296875 
Q 55.71875 13.875 49.015625 6.21875 
Q 42.328125 -1.421875 30.609375 -1.421875 
Q 18.84375 -1.421875 12.171875 6.21875 
Q 5.515625 13.875 5.515625 27.296875 
Q 5.515625 40.765625 12.171875 48.375 
Q 18.84375 56 30.609375 56 
z
" id="DejaVuSans-111"/>
       <path d="M 18.3125 70.21875 
L 18.3125 54.6875 
L 36.8125 54.6875 
L 36.8125 47.703125 
L 18.3125 47.703125 
L 18.3125 18.015625 
Q 18.3125 11.328125 20.140625 9.421875 
Q 21.96875 7.515625 27.59375 7.515625 
L 36.8125 7.515625 
L 36.8125 0 
L 27.59375 0 
Q 17.1875 0 13.234375 3.875 
Q 9.28125 7.765625 9.28125 18.015625 
L 9.28125 47.703125 
L 2.6875 47.703125 
L 2.6875 54.6875 
L 9.28125 54.6875 
L 9.28125 70.21875 
z
" id="DejaVuSans-116"/>
       <path d="M 34.28125 27.484375 
Q 23.390625 27.484375 19.1875 25 
Q 14.984375 22.515625 14.984375 16.5 
Q 14.984375 11.71875 18.140625 8.90625 
Q 21.296875 6.109375 26.703125 6.109375 
Q 34.1875 6.109375 38.703125 11.40625 
Q 43.21875 16.703125 43.21875 25.484375 
L 43.21875 27.484375 
z
M 52.203125 31.203125 
L 52.203125 0 
L 43.21875 0 
L 43.21875 8.296875 
Q 40.140625 3.328125 35.546875 0.953125 
Q 30.953125 -1.421875 24.3125 -1.421875 
Q 15.921875 -1.421875 10.953125 3.296875 
Q 6 8.015625 6 15.921875 
Q 6 25.140625 12.171875 29.828125 
Q 18.359375 34.515625 30.609375 34.515625 
L 43.21875 34.515625 
L 43.21875 35.40625 
Q 43.21875 41.609375 39.140625 45 
Q 35.0625 48.390625 27.6875 48.390625 
Q 23 48.390625 18.546875 47.265625 
Q 14.109375 46.140625 10.015625 43.890625 
L 10.015625 52.203125 
Q 14.9375 54.109375 19.578125 55.046875 
Q 24.21875 56 28.609375 56 
Q 40.484375 56 46.34375 49.84375 
Q 52.203125 43.703125 52.203125 31.203125 
z
" id="DejaVuSans-97"/>
       <path d="M 9.421875 75.984375 
L 18.40625 75.984375 
L 18.40625 0 
L 9.421875 0 
z
" id="DejaVuSans-108"/>
       <path id="DejaVuSans-32"/>
       <path d="M 51.125 44 
L 36.921875 44 
L 32.8125 27.6875 
L 47.125 27.6875 
z
M 43.796875 71.78125 
L 38.71875 51.515625 
L 52.984375 51.515625 
L 58.109375 71.78125 
L 65.921875 71.78125 
L 60.890625 51.515625 
L 76.125 51.515625 
L 76.125 44 
L 58.984375 44 
L 54.984375 27.6875 
L 70.515625 27.6875 
L 70.515625 20.21875 
L 53.078125 20.21875 
L 48 0 
L 40.1875 0 
L 45.21875 20.21875 
L 30.90625 20.21875 
L 25.875 0 
L 18.015625 0 
L 23.09375 20.21875 
L 7.71875 20.21875 
L 7.71875 27.6875 
L 24.90625 27.6875 
L 29 44 
L 13.28125 44 
L 13.28125 51.515625 
L 30.90625 51.515625 
L 35.890625 71.78125 
z
" id="DejaVuSans-35"/>
       <path d="M 37.109375 75.984375 
L 37.109375 68.5 
L 28.515625 68.5 
Q 23.6875 68.5 21.796875 66.546875 
Q 19.921875 64.59375 19.921875 59.515625 
L 19.921875 54.6875 
L 34.71875 54.6875 
L 34.71875 47.703125 
L 19.921875 47.703125 
L 19.921875 0 
L 10.890625 0 
L 10.890625 47.703125 
L 2.296875 47.703125 
L 2.296875 54.6875 
L 10.890625 54.6875 
L 10.890625 58.5 
Q 10.890625 67.625 15.140625 71.796875 
Q 19.390625 75.984375 28.609375 75.984375 
z
" id="DejaVuSans-102"/>
       <path d="M 34.1875 63.1875 
L 20.796875 26.90625 
L 47.609375 26.90625 
z
M 28.609375 72.90625 
L 39.796875 72.90625 
L 67.578125 0 
L 57.328125 0 
L 50.6875 18.703125 
L 17.828125 18.703125 
L 11.1875 0 
L 0.78125 0 
z
" id="DejaVuSans-65"/>
       <path d="M 2.984375 54.6875 
L 12.5 54.6875 
L 29.59375 8.796875 
L 46.6875 54.6875 
L 56.203125 54.6875 
L 35.6875 0 
L 23.484375 0 
z
" id="DejaVuSans-118"/>
       <path d="M 9.421875 54.6875 
L 18.40625 54.6875 
L 18.40625 0 
L 9.421875 0 
z
M 9.421875 75.984375 
L 18.40625 75.984375 
L 18.40625 64.59375 
L 9.421875 64.59375 
z
" id="DejaVuSans-105"/>
       <path d="M 48.6875 27.296875 
Q 48.6875 37.203125 44.609375 42.84375 
Q 40.53125 48.484375 33.40625 48.484375 
Q 26.265625 48.484375 22.1875 42.84375 
Q 18.109375 37.203125 18.109375 27.296875 
Q 18.109375 17.390625 22.1875 11.75 
Q 26.265625 6.109375 33.40625 6.109375 
Q 40.53125 6.109375 44.609375 11.75 
Q 48.6875 17.390625 48.6875 27.296875 
z
M 18.109375 46.390625 
Q 20.953125 51.265625 25.265625 53.625 
Q 29.59375 56 35.59375 56 
Q 45.5625 56 51.78125 48.09375 
Q 58.015625 40.1875 58.015625 27.296875 
Q 58.015625 14.40625 51.78125 6.484375 
Q 45.5625 -1.421875 35.59375 -1.421875 
Q 29.59375 -1.421875 25.265625 0.953125 
Q 20.953125 3.328125 18.109375 8.203125 
L 18.109375 0 
L 9.078125 0 
L 9.078125 75.984375 
L 18.109375 75.984375 
z
" id="DejaVuSans-98"/>
       <path d="M 56.203125 29.59375 
L 56.203125 25.203125 
L 14.890625 25.203125 
Q 15.484375 15.921875 20.484375 11.0625 
Q 25.484375 6.203125 34.421875 6.203125 
Q 39.59375 6.203125 44.453125 7.46875 
Q 49.3125 8.734375 54.109375 11.28125 
L 54.109375 2.78125 
Q 49.265625 0.734375 44.1875 -0.34375 
Q 39.109375 -1.421875 33.890625 -1.421875 
Q 20.796875 -1.421875 13.15625 6.1875 
Q 5.515625 13.8125 5.515625 26.8125 
Q 5.515625 40.234375 12.765625 48.109375 
Q 20.015625 56 32.328125 56 
Q 43.359375 56 49.78125 48.890625 
Q 56.203125 41.796875 56.203125 29.59375 
z
M 47.21875 32.234375 
Q 47.125 39.59375 43.09375 43.984375 
Q 39.0625 48.390625 32.421875 48.390625 
Q 24.90625 48.390625 20.390625 44.140625 
Q 15.875 39.890625 15.1875 32.171875 
z
" id="DejaVuSans-101"/>
       <path d="M 19.671875 34.8125 
L 19.671875 8.109375 
L 35.5 8.109375 
Q 43.453125 8.109375 47.28125 11.40625 
Q 51.125 14.703125 51.125 21.484375 
Q 51.125 28.328125 47.28125 31.5625 
Q 43.453125 34.8125 35.5 34.8125 
z
M 19.671875 64.796875 
L 19.671875 42.828125 
L 34.28125 42.828125 
Q 41.5 42.828125 45.03125 45.53125 
Q 48.578125 48.25 48.578125 53.8125 
Q 48.578125 59.328125 45.03125 62.0625 
Q 41.5 64.796875 34.28125 64.796875 
z
M 9.8125 72.90625 
L 35.015625 72.90625 
Q 46.296875 72.90625 52.390625 68.21875 
Q 58.5 63.53125 58.5 54.890625 
Q 58.5 48.1875 55.375 44.234375 
Q 52.25 40.28125 46.1875 39.3125 
Q 53.46875 37.75 57.5 32.78125 
Q 61.53125 27.828125 61.53125 20.40625 
Q 61.53125 10.640625 54.890625 5.3125 
Q 48.25 0 35.984375 0 
L 9.8125 0 
z
" id="DejaVuSans-66"/>
       <path d="M 45.40625 46.390625 
L 45.40625 75.984375 
L 54.390625 75.984375 
L 54.390625 0 
L 45.40625 0 
L 45.40625 8.203125 
Q 42.578125 3.328125 38.25 0.953125 
Q 33.9375 -1.421875 27.875 -1.421875 
Q 17.96875 -1.421875 11.734375 6.484375 
Q 5.515625 14.40625 5.515625 27.296875 
Q 5.515625 40.1875 11.734375 48.09375 
Q 17.96875 56 27.875 56 
Q 33.9375 56 38.25 53.625 
Q 42.578125 51.265625 45.40625 46.390625 
z
M 14.796875 27.296875 
Q 14.796875 17.390625 18.875 11.75 
Q 22.953125 6.109375 30.078125 6.109375 
Q 37.203125 6.109375 41.296875 11.75 
Q 45.40625 17.390625 45.40625 27.296875 
Q 45.40625 37.203125 41.296875 42.84375 
Q 37.203125 48.484375 30.078125 48.484375 
Q 22.953125 48.484375 18.875 42.84375 
Q 14.796875 37.203125 14.796875 27.296875 
z
" id="DejaVuSans-100"/>
       <path d="M 44.28125 53.078125 
L 44.28125 44.578125 
Q 40.484375 46.53125 36.375 47.5 
Q 32.28125 48.484375 27.875 48.484375 
Q 21.1875 48.484375 17.84375 46.4375 
Q 14.5 44.390625 14.5 40.28125 
Q 14.5 37.15625 16.890625 35.375 
Q 19.28125 33.59375 26.515625 31.984375 
L 29.59375 31.296875 
Q 39.15625 29.25 43.1875 25.515625 
Q 47.21875 21.78125 47.21875 15.09375 
Q 47.21875 7.46875 41.1875 3.015625 
Q 35.15625 -1.421875 24.609375 -1.421875 
Q 20.21875 -1.421875 15.453125 -0.5625 
Q 10.6875 0.296875 5.421875 2 
L 5.421875 11.28125 
Q 10.40625 8.6875 15.234375 7.390625 
Q 20.0625 6.109375 24.8125 6.109375 
Q 31.15625 6.109375 34.5625 8.28125 
Q 37.984375 10.453125 37.984375 14.40625 
Q 37.984375 18.0625 35.515625 20.015625 
Q 33.0625 21.96875 24.703125 23.78125 
L 21.578125 24.515625 
Q 13.234375 26.265625 9.515625 29.90625 
Q 5.8125 33.546875 5.8125 39.890625 
Q 5.8125 47.609375 11.28125 51.796875 
Q 16.75 56 26.8125 56 
Q 31.78125 56 36.171875 55.265625 
Q 40.578125 54.546875 44.28125 53.078125 
z
" id="DejaVuSans-115"/>
      </defs>
      <use xlink:href="#DejaVuSans-84"/>
      <use x="44.083984" xlink:href="#DejaVuSans-111"/>
      <use x="105.265625" xlink:href="#DejaVuSans-116"/>
      <use x="144.474609" xlink:href="#DejaVuSans-97"/>
      <use x="205.753906" xlink:href="#DejaVuSans-108"/>
      <use x="233.537109" xlink:href="#DejaVuSans-32"/>
      <use x="265.324219" xlink:href="#DejaVuSans-35"/>
      <use x="349.113281" xlink:href="#DejaVuSans-32"/>
      <use x="380.900391" xlink:href="#DejaVuSans-111"/>
      <use x="442.082031" xlink:href="#DejaVuSans-102"/>
      <use x="477.287109" xlink:href="#DejaVuSans-32"/>
      <use x="509.074219" xlink:href="#DejaVuSans-65"/>
      <use x="571.607422" xlink:href="#DejaVuSans-118"/>
      <use x="630.787109" xlink:href="#DejaVuSans-97"/>
      <use x="692.066406" xlink:href="#DejaVuSans-105"/>
      <use x="719.849609" xlink:href="#DejaVuSans-108"/>
      <use x="747.632812" xlink:href="#DejaVuSans-97"/>
      <use x="808.912109" xlink:href="#DejaVuSans-98"/>
      <use x="872.388672" xlink:href="#DejaVuSans-108"/>
      <use x="900.171875" xlink:href="#DejaVuSans-101"/>
      <use x="961.695312" xlink:href="#DejaVuSans-32"/>
      <use x="993.482422" xlink:href="#DejaVuSans-66"/>
      <use x="1062.085938" xlink:href="#DejaVuSans-101"/>
      <use x="1123.609375" xlink:href="#DejaVuSans-100"/>
      <use x="1187.085938" xlink:href="#DejaVuSans-115"/>
     </g>
    </g>
   </g>
   <g id="patch_73">
    <path d="M 67.379375 243.380652 
L 67.379375 7.439948 
" style="fill:none;stroke:#000000;stroke-linecap:square;stroke-linejoin:miter;stroke-width:0.8;"/>
   </g>
   <g id="patch_74">
    <path d="M 408.639375 243.380652 
L 408.639375 7.439948 
" style="fill:none;stroke:#000000;stroke-linecap:square;stroke-linejoin:miter;stroke-width:0.8;"/>
   </g>
   <g id="patch_75">
    <path d="M 67.379375 243.380652 
L 408.639375 243.380652 
" style="fill:none;stroke:#000000;stroke-linecap:square;stroke-linejoin:miter;stroke-width:0.8;"/>
   </g>
   <g id="patch_76">
    <path d="M 67.379375 7.439948 
L 408.639375 7.439948 
" style="fill:none;stroke:#000000;stroke-linecap:square;stroke-linejoin:miter;stroke-width:0.8;"/>
   </g>
   <g id="legend_1">
    <g id="patch_77">
     <path d="M 79.979375 30.67776 
L 107.979375 30.67776 
L 107.979375 20.87776 
L 79.979375 20.87776 
z
" style="fill:#004684;"/>
    </g>
    <g id="text_15">
     <!-- Manchester -->
     <g transform="translate(119.179375 30.67776)scale(0.14 -0.14)">
      <defs>
       <path d="M 9.8125 72.90625 
L 24.515625 72.90625 
L 43.109375 23.296875 
L 61.8125 72.90625 
L 76.515625 72.90625 
L 76.515625 0 
L 66.890625 0 
L 66.890625 64.015625 
L 48.09375 14.015625 
L 38.1875 14.015625 
L 19.390625 64.015625 
L 19.390625 0 
L 9.8125 0 
z
" id="DejaVuSans-77"/>
       <path d="M 54.890625 33.015625 
L 54.890625 0 
L 45.90625 0 
L 45.90625 32.71875 
Q 45.90625 40.484375 42.875 44.328125 
Q 39.84375 48.1875 33.796875 48.1875 
Q 26.515625 48.1875 22.3125 43.546875 
Q 18.109375 38.921875 18.109375 30.90625 
L 18.109375 0 
L 9.078125 0 
L 9.078125 54.6875 
L 18.109375 54.6875 
L 18.109375 46.1875 
Q 21.34375 51.125 25.703125 53.5625 
Q 30.078125 56 35.796875 56 
Q 45.21875 56 50.046875 50.171875 
Q 54.890625 44.34375 54.890625 33.015625 
z
" id="DejaVuSans-110"/>
       <path d="M 48.78125 52.59375 
L 48.78125 44.1875 
Q 44.96875 46.296875 41.140625 47.34375 
Q 37.3125 48.390625 33.40625 48.390625 
Q 24.65625 48.390625 19.8125 42.84375 
Q 14.984375 37.3125 14.984375 27.296875 
Q 14.984375 17.28125 19.8125 11.734375 
Q 24.65625 6.203125 33.40625 6.203125 
Q 37.3125 6.203125 41.140625 7.25 
Q 44.96875 8.296875 48.78125 10.40625 
L 48.78125 2.09375 
Q 45.015625 0.34375 40.984375 -0.53125 
Q 36.96875 -1.421875 32.421875 -1.421875 
Q 20.0625 -1.421875 12.78125 6.34375 
Q 5.515625 14.109375 5.515625 27.296875 
Q 5.515625 40.671875 12.859375 48.328125 
Q 20.21875 56 33.015625 56 
Q 37.15625 56 41.109375 55.140625 
Q 45.0625 54.296875 48.78125 52.59375 
z
" id="DejaVuSans-99"/>
       <path d="M 54.890625 33.015625 
L 54.890625 0 
L 45.90625 0 
L 45.90625 32.71875 
Q 45.90625 40.484375 42.875 44.328125 
Q 39.84375 48.1875 33.796875 48.1875 
Q 26.515625 48.1875 22.3125 43.546875 
Q 18.109375 38.921875 18.109375 30.90625 
L 18.109375 0 
L 9.078125 0 
L 9.078125 75.984375 
L 18.109375 75.984375 
L 18.109375 46.1875 
Q 21.34375 51.125 25.703125 53.5625 
Q 30.078125 56 35.796875 56 
Q 45.21875 56 50.046875 50.171875 
Q 54.890625 44.34375 54.890625 33.015625 
z
" id="DejaVuSans-104"/>
       <path d="M 41.109375 46.296875 
Q 39.59375 47.171875 37.8125 47.578125 
Q 36.03125 48 33.890625 48 
Q 26.265625 48 22.1875 43.046875 
Q 18.109375 38.09375 18.109375 28.8125 
L 18.109375 0 
L 9.078125 0 
L 9.078125 54.6875 
L 18.109375 54.6875 
L 18.109375 46.1875 
Q 20.953125 51.171875 25.484375 53.578125 
Q 30.03125 56 36.53125 56 
Q 37.453125 56 38.578125 55.875 
Q 39.703125 55.765625 41.0625 55.515625 
z
" id="DejaVuSans-114"/>
      </defs>
      <use xlink:href="#DejaVuSans-77"/>
      <use x="86.279297" xlink:href="#DejaVuSans-97"/>
      <use x="147.558594" xlink:href="#DejaVuSans-110"/>
      <use x="210.9375" xlink:href="#DejaVuSans-99"/>
      <use x="265.917969" xlink:href="#DejaVuSans-104"/>
      <use x="329.296875" xlink:href="#DejaVuSans-101"/>
      <use x="390.820312" xlink:href="#DejaVuSans-115"/>
      <use x="442.919922" xlink:href="#DejaVuSans-116"/>
      <use x="482.128906" xlink:href="#DejaVuSans-101"/>
      <use x="543.652344" xlink:href="#DejaVuSans-114"/>
     </g>
    </g>
    <g id="patch_78">
     <path d="M 79.979375 51.227135 
L 107.979375 51.227135 
L 107.979375 41.427135 
L 79.979375 41.427135 
z
" style="fill:#006bc8;"/>
    </g>
    <g id="text_16">
     <!-- Central Manchester -->
     <g transform="translate(119.179375 51.227135)scale(0.14 -0.14)">
      <defs>
       <path d="M 64.40625 67.28125 
L 64.40625 56.890625 
Q 59.421875 61.53125 53.78125 63.8125 
Q 48.140625 66.109375 41.796875 66.109375 
Q 29.296875 66.109375 22.65625 58.46875 
Q 16.015625 50.828125 16.015625 36.375 
Q 16.015625 21.96875 22.65625 14.328125 
Q 29.296875 6.6875 41.796875 6.6875 
Q 48.140625 6.6875 53.78125 8.984375 
Q 59.421875 11.28125 64.40625 15.921875 
L 64.40625 5.609375 
Q 59.234375 2.09375 53.4375 0.328125 
Q 47.65625 -1.421875 41.21875 -1.421875 
Q 24.65625 -1.421875 15.125 8.703125 
Q 5.609375 18.84375 5.609375 36.375 
Q 5.609375 53.953125 15.125 64.078125 
Q 24.65625 74.21875 41.21875 74.21875 
Q 47.75 74.21875 53.53125 72.484375 
Q 59.328125 70.75 64.40625 67.28125 
z
" id="DejaVuSans-67"/>
      </defs>
      <use xlink:href="#DejaVuSans-67"/>
      <use x="69.824219" xlink:href="#DejaVuSans-101"/>
      <use x="131.347656" xlink:href="#DejaVuSans-110"/>
      <use x="194.726562" xlink:href="#DejaVuSans-116"/>
      <use x="233.935547" xlink:href="#DejaVuSans-114"/>
      <use x="275.048828" xlink:href="#DejaVuSans-97"/>
      <use x="336.328125" xlink:href="#DejaVuSans-108"/>
      <use x="364.111328" xlink:href="#DejaVuSans-32"/>
      <use x="395.898438" xlink:href="#DejaVuSans-77"/>
      <use x="482.177734" xlink:href="#DejaVuSans-97"/>
      <use x="543.457031" xlink:href="#DejaVuSans-110"/>
      <use x="606.835938" xlink:href="#DejaVuSans-99"/>
      <use x="661.816406" xlink:href="#DejaVuSans-104"/>
      <use x="725.195312" xlink:href="#DejaVuSans-101"/>
      <use x="786.71875" xlink:href="#DejaVuSans-115"/>
      <use x="838.818359" xlink:href="#DejaVuSans-116"/>
      <use x="878.027344" xlink:href="#DejaVuSans-101"/>
      <use x="939.550781" xlink:href="#DejaVuSans-114"/>
     </g>
    </g>
    <g id="patch_79">
     <path d="M 79.979375 71.77651 
L 107.979375 71.77651 
L 107.979375 61.97651 
L 79.979375 61.97651 
z
" style="fill:#39a1fc;"/>
    </g>
    <g id="text_17">
     <!-- South Manchester -->
     <g transform="translate(119.179375 71.77651)scale(0.14 -0.14)">
      <defs>
       <path d="M 53.515625 70.515625 
L 53.515625 60.890625 
Q 47.90625 63.578125 42.921875 64.890625 
Q 37.9375 66.21875 33.296875 66.21875 
Q 25.25 66.21875 20.875 63.09375 
Q 16.5 59.96875 16.5 54.203125 
Q 16.5 49.359375 19.40625 46.890625 
Q 22.3125 44.4375 30.421875 42.921875 
L 36.375 41.703125 
Q 47.40625 39.59375 52.65625 34.296875 
Q 57.90625 29 57.90625 20.125 
Q 57.90625 9.515625 50.796875 4.046875 
Q 43.703125 -1.421875 29.984375 -1.421875 
Q 24.8125 -1.421875 18.96875 -0.25 
Q 13.140625 0.921875 6.890625 3.21875 
L 6.890625 13.375 
Q 12.890625 10.015625 18.65625 8.296875 
Q 24.421875 6.59375 29.984375 6.59375 
Q 38.421875 6.59375 43.015625 9.90625 
Q 47.609375 13.234375 47.609375 19.390625 
Q 47.609375 24.75 44.3125 27.78125 
Q 41.015625 30.8125 33.5 32.328125 
L 27.484375 33.5 
Q 16.453125 35.6875 11.515625 40.375 
Q 6.59375 45.0625 6.59375 53.421875 
Q 6.59375 63.09375 13.40625 68.65625 
Q 20.21875 74.21875 32.171875 74.21875 
Q 37.3125 74.21875 42.625 73.28125 
Q 47.953125 72.359375 53.515625 70.515625 
z
" id="DejaVuSans-83"/>
       <path d="M 8.5 21.578125 
L 8.5 54.6875 
L 17.484375 54.6875 
L 17.484375 21.921875 
Q 17.484375 14.15625 20.5 10.265625 
Q 23.53125 6.390625 29.59375 6.390625 
Q 36.859375 6.390625 41.078125 11.03125 
Q 45.3125 15.671875 45.3125 23.6875 
L 45.3125 54.6875 
L 54.296875 54.6875 
L 54.296875 0 
L 45.3125 0 
L 45.3125 8.40625 
Q 42.046875 3.421875 37.71875 1 
Q 33.40625 -1.421875 27.6875 -1.421875 
Q 18.265625 -1.421875 13.375 4.4375 
Q 8.5 10.296875 8.5 21.578125 
z
M 31.109375 56 
z
" id="DejaVuSans-117"/>
      </defs>
      <use xlink:href="#DejaVuSans-83"/>
      <use x="63.476562" xlink:href="#DejaVuSans-111"/>
      <use x="124.658203" xlink:href="#DejaVuSans-117"/>
      <use x="188.037109" xlink:href="#DejaVuSans-116"/>
      <use x="227.246094" xlink:href="#DejaVuSans-104"/>
      <use x="290.625" xlink:href="#DejaVuSans-32"/>
      <use x="322.412109" xlink:href="#DejaVuSans-77"/>
      <use x="408.691406" xlink:href="#DejaVuSans-97"/>
      <use x="469.970703" xlink:href="#DejaVuSans-110"/>
      <use x="533.349609" xlink:href="#DejaVuSans-99"/>
      <use x="588.330078" xlink:href="#DejaVuSans-104"/>
      <use x="651.708984" xlink:href="#DejaVuSans-101"/>
      <use x="713.232422" xlink:href="#DejaVuSans-115"/>
      <use x="765.332031" xlink:href="#DejaVuSans-116"/>
      <use x="804.541016" xlink:href="#DejaVuSans-101"/>
      <use x="866.064453" xlink:href="#DejaVuSans-114"/>
     </g>
    </g>
   </g>
  </g>
 </g>
 <defs>
  <clipPath id="pc2ad6dff88">
   <rect height="235.940705" width="341.26" x="67.379375" y="7.439948"/>
  </clipPath>
 </defs>
</svg>
