<?xml version="1.0" encoding="utf-8" standalone="no"?>
<!DOCTYPE svg PUBLIC "-//W3C//DTD SVG 1.1//EN"
  "http://www.w3.org/Graphics/SVG/1.1/DTD/svg11.dtd">
<!-- Created with matplotlib (https://matplotlib.org/) -->
<svg height="288pt" version="1.1" viewBox="0 0 432 288" width="432pt" xmlns="http://www.w3.org/2000/svg" xmlns:xlink="http://www.w3.org/1999/xlink">
 <defs>
  <style type="text/css">
*{stroke-linecap:butt;stroke-linejoin:round;}
  </style>
 </defs>
 <g id="figure_1">
  <g id="patch_1">
   <path d="M 0 288 
L 432 288 
L 432 0 
L 0 0 
z
" style="fill:#ffffff;"/>
  </g>
  <g id="axes_1">
   <g id="patch_2">
    <path d="M 75.37 251.88 
L 416.88 251.88 
L 416.88 15.12 
L 75.37 15.12 
z
" style="fill:#ffffff;"/>
   </g>
   <g id="patch_3">
    <path clip-path="url(#p2d44cbdcea)" d="M 394.955506 251.88 
L 401.356818 251.88 
L 401.356818 96.60046 
L 394.955506 96.60046 
z
" style="fill:#004684;"/>
   </g>
   <g id="patch_4">
    <path clip-path="url(#p2d44cbdcea)" d="M 386.953866 251.88 
L 393.355178 251.88 
L 393.355178 191.750476 
L 386.953866 191.750476 
z
" style="fill:#006bc8;"/>
   </g>
   <g id="patch_5">
    <path clip-path="url(#p2d44cbdcea)" d="M 378.952226 251.88 
L 385.353538 251.88 
L 385.353538 194.310937 
L 378.952226 194.310937 
z
" style="fill:#006bc8;"/>
   </g>
   <g id="patch_6">
    <path clip-path="url(#p2d44cbdcea)" d="M 370.950586 251.88 
L 377.351898 251.88 
L 377.351898 194.971701 
L 370.950586 194.971701 
z
" style="fill:#006bc8;"/>
   </g>
   <g id="patch_7">
    <path clip-path="url(#p2d44cbdcea)" d="M 362.948946 251.88 
L 369.350258 251.88 
L 369.350258 194.228341 
L 362.948946 194.228341 
z
" style="fill:#006bc8;"/>
   </g>
   <g id="patch_8">
    <path clip-path="url(#p2d44cbdcea)" d="M 354.947306 251.88 
L 361.348618 251.88 
L 361.348618 194.228341 
L 354.947306 194.228341 
z
" style="fill:#006bc8;"/>
   </g>
   <g id="patch_9">
    <path clip-path="url(#p2d44cbdcea)" d="M 346.945665 251.88 
L 353.346978 251.88 
L 353.346978 195.71506 
L 346.945665 195.71506 
z
" style="fill:#006bc8;"/>
   </g>
   <g id="patch_10">
    <path clip-path="url(#p2d44cbdcea)" d="M 338.944025 251.88 
L 345.345337 251.88 
L 345.345337 194.723914 
L 338.944025 194.723914 
z
" style="fill:#006bc8;"/>
   </g>
   <g id="patch_11">
    <path clip-path="url(#p2d44cbdcea)" d="M 330.942385 251.88 
L 337.343697 251.88 
L 337.343697 193.1546 
L 330.942385 193.1546 
z
" style="fill:#006bc8;"/>
   </g>
   <g id="patch_12">
    <path clip-path="url(#p2d44cbdcea)" d="M 322.940745 251.88 
L 329.342057 251.88 
L 329.342057 192.576431 
L 322.940745 192.576431 
z
" style="fill:#006bc8;"/>
   </g>
   <g id="patch_13">
    <path clip-path="url(#p2d44cbdcea)" d="M 314.939105 251.88 
L 321.340417 251.88 
L 321.340417 194.641319 
L 314.939105 194.641319 
z
" style="fill:#006bc8;"/>
   </g>
   <g id="patch_14">
    <path clip-path="url(#p2d44cbdcea)" d="M 306.937465 251.88 
L 313.338777 251.88 
L 313.338777 193.732768 
L 306.937465 193.732768 
z
" style="fill:#006bc8;"/>
   </g>
   <g id="patch_15">
    <path clip-path="url(#p2d44cbdcea)" d="M 298.935825 251.88 
L 305.337137 251.88 
L 305.337137 194.80651 
L 298.935825 194.80651 
z
" style="fill:#006bc8;"/>
   </g>
   <g id="patch_16">
    <path clip-path="url(#p2d44cbdcea)" d="M 290.934185 251.88 
L 297.335497 251.88 
L 297.335497 194.80651 
L 290.934185 194.80651 
z
" style="fill:#006bc8;"/>
   </g>
   <g id="patch_17">
    <path clip-path="url(#p2d44cbdcea)" d="M 282.932545 251.88 
L 289.333857 251.88 
L 289.333857 194.80651 
L 282.932545 194.80651 
z
" style="fill:#006bc8;"/>
   </g>
   <g id="patch_18">
    <path clip-path="url(#p2d44cbdcea)" d="M 274.930904 251.88 
L 281.332216 251.88 
L 281.332216 197.697352 
L 274.930904 197.697352 
z
" style="fill:#006bc8;"/>
   </g>
   <g id="patch_19">
    <path clip-path="url(#p2d44cbdcea)" d="M 266.929264 251.88 
L 273.330576 251.88 
L 273.330576 195.384678 
L 266.929264 195.384678 
z
" style="fill:#006bc8;"/>
   </g>
   <g id="patch_20">
    <path clip-path="url(#p2d44cbdcea)" d="M 258.927624 251.88 
L 265.328936 251.88 
L 265.328936 191.007117 
L 258.927624 191.007117 
z
" style="fill:#006bc8;"/>
   </g>
   <g id="patch_21">
    <path clip-path="url(#p2d44cbdcea)" d="M 250.925984 251.88 
L 257.327296 251.88 
L 257.327296 195.549869 
L 250.925984 195.549869 
z
" style="fill:#006bc8;"/>
   </g>
   <g id="patch_22">
    <path clip-path="url(#p2d44cbdcea)" d="M 242.924344 251.88 
L 249.325656 251.88 
L 249.325656 195.549869 
L 242.924344 195.549869 
z
" style="fill:#006bc8;"/>
   </g>
   <g id="patch_23">
    <path clip-path="url(#p2d44cbdcea)" d="M 234.922704 251.88 
L 241.324016 251.88 
L 241.324016 195.384678 
L 234.922704 195.384678 
z
" style="fill:#006bc8;"/>
   </g>
   <g id="patch_24">
    <path clip-path="url(#p2d44cbdcea)" d="M 226.921064 251.88 
L 233.322376 251.88 
L 233.322376 191.750476 
L 226.921064 191.750476 
z
" style="fill:#006bc8;"/>
   </g>
   <g id="patch_25">
    <path clip-path="url(#p2d44cbdcea)" d="M 218.919424 251.88 
L 225.320736 251.88 
L 225.320736 195.467274 
L 218.919424 195.467274 
z
" style="fill:#006bc8;"/>
   </g>
   <g id="patch_26">
    <path clip-path="url(#p2d44cbdcea)" d="M 210.917784 251.88 
L 217.319096 251.88 
L 217.319096 195.467274 
L 210.917784 195.467274 
z
" style="fill:#006bc8;"/>
   </g>
   <g id="patch_27">
    <path clip-path="url(#p2d44cbdcea)" d="M 202.916143 251.88 
L 209.317455 251.88 
L 209.317455 195.467274 
L 202.916143 195.467274 
z
" style="fill:#006bc8;"/>
   </g>
   <g id="patch_28">
    <path clip-path="url(#p2d44cbdcea)" d="M 194.914503 251.88 
L 201.315815 251.88 
L 201.315815 193.237195 
L 194.914503 193.237195 
z
" style="fill:#006bc8;"/>
   </g>
   <g id="patch_29">
    <path clip-path="url(#p2d44cbdcea)" d="M 186.912863 251.88 
L 193.314175 251.88 
L 193.314175 193.1546 
L 186.912863 193.1546 
z
" style="fill:#006bc8;"/>
   </g>
   <g id="patch_30">
    <path clip-path="url(#p2d44cbdcea)" d="M 178.911223 251.88 
L 185.312535 251.88 
L 185.312535 195.632465 
L 178.911223 195.632465 
z
" style="fill:#006bc8;"/>
   </g>
   <g id="patch_31">
    <path clip-path="url(#p2d44cbdcea)" d="M 170.909583 251.88 
L 177.310895 251.88 
L 177.310895 195.549869 
L 170.909583 195.549869 
z
" style="fill:#006bc8;"/>
   </g>
   <g id="patch_32">
    <path clip-path="url(#p2d44cbdcea)" d="M 162.907943 251.88 
L 169.309255 251.88 
L 169.309255 196.788802 
L 162.907943 196.788802 
z
" style="fill:#006bc8;"/>
   </g>
   <g id="patch_33">
    <path clip-path="url(#p2d44cbdcea)" d="M 154.906303 251.88 
L 161.307615 251.88 
L 161.307615 196.871397 
L 154.906303 196.871397 
z
" style="fill:#006bc8;"/>
   </g>
   <g id="patch_34">
    <path clip-path="url(#p2d44cbdcea)" d="M 146.904663 251.88 
L 153.305975 251.88 
L 153.305975 198.605903 
L 146.904663 198.605903 
z
" style="fill:#006bc8;"/>
   </g>
   <g id="patch_35">
    <path clip-path="url(#p2d44cbdcea)" d="M 138.903022 251.88 
L 145.304335 251.88 
L 145.304335 200.175217 
L 138.903022 200.175217 
z
" style="fill:#006bc8;"/>
   </g>
   <g id="patch_36">
    <path clip-path="url(#p2d44cbdcea)" d="M 130.901382 251.88 
L 137.302694 251.88 
L 137.302694 197.532161 
L 130.901382 197.532161 
z
" style="fill:#006bc8;"/>
   </g>
   <g id="patch_37">
    <path clip-path="url(#p2d44cbdcea)" d="M 122.899742 251.88 
L 129.301054 251.88 
L 129.301054 197.532161 
L 122.899742 197.532161 
z
" style="fill:#006bc8;"/>
   </g>
   <g id="patch_38">
    <path clip-path="url(#p2d44cbdcea)" d="M 114.898102 251.88 
L 121.299414 251.88 
L 121.299414 200.423004 
L 114.898102 200.423004 
z
" style="fill:#006bc8;"/>
   </g>
   <g id="patch_39">
    <path clip-path="url(#p2d44cbdcea)" d="M 106.896462 251.88 
L 113.297774 251.88 
L 113.297774 202.405296 
L 106.896462 202.405296 
z
" style="fill:#006bc8;"/>
   </g>
   <g id="patch_40">
    <path clip-path="url(#p2d44cbdcea)" d="M 98.894822 251.88 
L 105.296134 251.88 
L 105.296134 199.184071 
L 98.894822 199.184071 
z
" style="fill:#006bc8;"/>
   </g>
   <g id="patch_41">
    <path clip-path="url(#p2d44cbdcea)" d="M 90.893182 251.88 
L 97.294494 251.88 
L 97.294494 197.697352 
L 90.893182 197.697352 
z
" style="fill:#006bc8;"/>
   </g>
   <g id="patch_42">
    <path clip-path="url(#p2d44cbdcea)" d="M 386.953866 191.750476 
L 393.355178 191.750476 
L 393.355178 143.349513 
L 386.953866 143.349513 
z
" style="fill:#39a1fc;"/>
   </g>
   <g id="patch_43">
    <path clip-path="url(#p2d44cbdcea)" d="M 378.952226 194.310937 
L 385.353538 194.310937 
L 385.353538 146.405547 
L 378.952226 146.405547 
z
" style="fill:#39a1fc;"/>
   </g>
   <g id="patch_44">
    <path clip-path="url(#p2d44cbdcea)" d="M 370.950586 194.971701 
L 377.351898 194.971701 
L 377.351898 147.066311 
L 370.950586 147.066311 
z
" style="fill:#39a1fc;"/>
   </g>
   <g id="patch_45">
    <path clip-path="url(#p2d44cbdcea)" d="M 362.948946 194.228341 
L 369.350258 194.228341 
L 369.350258 145.827378 
L 362.948946 145.827378 
z
" style="fill:#39a1fc;"/>
   </g>
   <g id="patch_46">
    <path clip-path="url(#p2d44cbdcea)" d="M 354.947306 194.228341 
L 361.348618 194.228341 
L 361.348618 145.24921 
L 354.947306 145.24921 
z
" style="fill:#39a1fc;"/>
   </g>
   <g id="patch_47">
    <path clip-path="url(#p2d44cbdcea)" d="M 346.945665 195.71506 
L 353.346978 195.71506 
L 353.346978 147.314097 
L 346.945665 147.314097 
z
" style="fill:#39a1fc;"/>
   </g>
   <g id="patch_48">
    <path clip-path="url(#p2d44cbdcea)" d="M 338.944025 194.723914 
L 345.345337 194.723914 
L 345.345337 146.735929 
L 338.944025 146.735929 
z
" style="fill:#39a1fc;"/>
   </g>
   <g id="patch_49">
    <path clip-path="url(#p2d44cbdcea)" d="M 330.942385 193.1546 
L 337.343697 193.1546 
L 337.343697 144.588446 
L 330.942385 144.588446 
z
" style="fill:#39a1fc;"/>
   </g>
   <g id="patch_50">
    <path clip-path="url(#p2d44cbdcea)" d="M 322.940745 192.576431 
L 329.342057 192.576431 
L 329.342057 144.092873 
L 322.940745 144.092873 
z
" style="fill:#39a1fc;"/>
   </g>
   <g id="patch_51">
    <path clip-path="url(#p2d44cbdcea)" d="M 314.939105 194.641319 
L 321.340417 194.641319 
L 321.340417 147.80967 
L 314.939105 147.80967 
z
" style="fill:#39a1fc;"/>
   </g>
   <g id="patch_52">
    <path clip-path="url(#p2d44cbdcea)" d="M 306.937465 193.732768 
L 313.338777 193.732768 
L 313.338777 147.479288 
L 306.937465 147.479288 
z
" style="fill:#39a1fc;"/>
   </g>
   <g id="patch_53">
    <path clip-path="url(#p2d44cbdcea)" d="M 298.935825 194.80651 
L 305.337137 194.80651 
L 305.337137 148.55303 
L 298.935825 148.55303 
z
" style="fill:#39a1fc;"/>
   </g>
   <g id="patch_54">
    <path clip-path="url(#p2d44cbdcea)" d="M 290.934185 194.80651 
L 297.335497 194.80651 
L 297.335497 147.974861 
L 290.934185 147.974861 
z
" style="fill:#39a1fc;"/>
   </g>
   <g id="patch_55">
    <path clip-path="url(#p2d44cbdcea)" d="M 282.932545 194.80651 
L 289.333857 194.80651 
L 289.333857 149.791962 
L 282.932545 149.791962 
z
" style="fill:#39a1fc;"/>
   </g>
   <g id="patch_56">
    <path clip-path="url(#p2d44cbdcea)" d="M 274.930904 197.697352 
L 281.332216 197.697352 
L 281.332216 153.343569 
L 274.930904 153.343569 
z
" style="fill:#39a1fc;"/>
   </g>
   <g id="patch_57">
    <path clip-path="url(#p2d44cbdcea)" d="M 266.929264 195.384678 
L 273.330576 195.384678 
L 273.330576 151.030895 
L 266.929264 151.030895 
z
" style="fill:#39a1fc;"/>
   </g>
   <g id="patch_58">
    <path clip-path="url(#p2d44cbdcea)" d="M 258.927624 191.007117 
L 265.328936 191.007117 
L 265.328936 142.936536 
L 258.927624 142.936536 
z
" style="fill:#39a1fc;"/>
   </g>
   <g id="patch_59">
    <path clip-path="url(#p2d44cbdcea)" d="M 250.925984 195.549869 
L 257.327296 195.549869 
L 257.327296 147.479288 
L 250.925984 147.479288 
z
" style="fill:#39a1fc;"/>
   </g>
   <g id="patch_60">
    <path clip-path="url(#p2d44cbdcea)" d="M 242.924344 195.549869 
L 249.325656 195.549869 
L 249.325656 147.314097 
L 242.924344 147.314097 
z
" style="fill:#39a1fc;"/>
   </g>
   <g id="patch_61">
    <path clip-path="url(#p2d44cbdcea)" d="M 234.922704 195.384678 
L 241.324016 195.384678 
L 241.324016 147.396693 
L 234.922704 147.396693 
z
" style="fill:#39a1fc;"/>
   </g>
   <g id="patch_62">
    <path clip-path="url(#p2d44cbdcea)" d="M 226.921064 191.750476 
L 233.322376 191.750476 
L 233.322376 143.101727 
L 226.921064 143.101727 
z
" style="fill:#39a1fc;"/>
   </g>
   <g id="patch_63">
    <path clip-path="url(#p2d44cbdcea)" d="M 218.919424 195.467274 
L 225.320736 195.467274 
L 225.320736 148.387839 
L 218.919424 148.387839 
z
" style="fill:#39a1fc;"/>
   </g>
   <g id="patch_64">
    <path clip-path="url(#p2d44cbdcea)" d="M 210.917784 195.467274 
L 217.319096 195.467274 
L 217.319096 149.874558 
L 210.917784 149.874558 
z
" style="fill:#39a1fc;"/>
   </g>
   <g id="patch_65">
    <path clip-path="url(#p2d44cbdcea)" d="M 202.916143 195.467274 
L 209.317455 195.467274 
L 209.317455 149.874558 
L 202.916143 149.874558 
z
" style="fill:#39a1fc;"/>
   </g>
   <g id="patch_66">
    <path clip-path="url(#p2d44cbdcea)" d="M 194.914503 193.237195 
L 201.315815 193.237195 
L 201.315815 147.644479 
L 194.914503 147.644479 
z
" style="fill:#39a1fc;"/>
   </g>
   <g id="patch_67">
    <path clip-path="url(#p2d44cbdcea)" d="M 186.912863 193.1546 
L 193.314175 193.1546 
L 193.314175 147.561884 
L 186.912863 147.561884 
z
" style="fill:#39a1fc;"/>
   </g>
   <g id="patch_68">
    <path clip-path="url(#p2d44cbdcea)" d="M 178.911223 195.632465 
L 185.312535 195.632465 
L 185.312535 150.617917 
L 178.911223 150.617917 
z
" style="fill:#39a1fc;"/>
   </g>
   <g id="patch_69">
    <path clip-path="url(#p2d44cbdcea)" d="M 170.909583 195.549869 
L 177.310895 195.549869 
L 177.310895 149.957153 
L 170.909583 149.957153 
z
" style="fill:#39a1fc;"/>
   </g>
   <g id="patch_70">
    <path clip-path="url(#p2d44cbdcea)" d="M 162.907943 196.788802 
L 169.309255 196.788802 
L 169.309255 151.196086 
L 162.907943 151.196086 
z
" style="fill:#39a1fc;"/>
   </g>
   <g id="patch_71">
    <path clip-path="url(#p2d44cbdcea)" d="M 154.906303 196.871397 
L 161.307615 196.871397 
L 161.307615 151.278681 
L 154.906303 151.278681 
z
" style="fill:#39a1fc;"/>
   </g>
   <g id="patch_72">
    <path clip-path="url(#p2d44cbdcea)" d="M 146.904663 198.605903 
L 153.305975 198.605903 
L 153.305975 152.022041 
L 146.904663 152.022041 
z
" style="fill:#39a1fc;"/>
   </g>
   <g id="patch_73">
    <path clip-path="url(#p2d44cbdcea)" d="M 138.903022 200.175217 
L 145.304335 200.175217 
L 145.304335 153.591355 
L 138.903022 153.591355 
z
" style="fill:#39a1fc;"/>
   </g>
   <g id="patch_74">
    <path clip-path="url(#p2d44cbdcea)" d="M 130.901382 197.532161 
L 137.302694 197.532161 
L 137.302694 150.948299 
L 130.901382 150.948299 
z
" style="fill:#39a1fc;"/>
   </g>
   <g id="patch_75">
    <path clip-path="url(#p2d44cbdcea)" d="M 122.899742 197.532161 
L 129.301054 197.532161 
L 129.301054 150.948299 
L 122.899742 150.948299 
z
" style="fill:#39a1fc;"/>
   </g>
   <g id="patch_76">
    <path clip-path="url(#p2d44cbdcea)" d="M 114.898102 200.423004 
L 121.299414 200.423004 
L 121.299414 153.839142 
L 114.898102 153.839142 
z
" style="fill:#39a1fc;"/>
   </g>
   <g id="patch_77">
    <path clip-path="url(#p2d44cbdcea)" d="M 106.896462 202.405296 
L 113.297774 202.405296 
L 113.297774 159.290445 
L 106.896462 159.290445 
z
" style="fill:#39a1fc;"/>
   </g>
   <g id="patch_78">
    <path clip-path="url(#p2d44cbdcea)" d="M 98.894822 199.184071 
L 105.296134 199.184071 
L 105.296134 154.086928 
L 98.894822 154.086928 
z
" style="fill:#39a1fc;"/>
   </g>
   <g id="patch_79">
    <path clip-path="url(#p2d44cbdcea)" d="M 90.893182 197.697352 
L 97.294494 197.697352 
L 97.294494 150.287535 
L 90.893182 150.287535 
z
" style="fill:#39a1fc;"/>
   </g>
   <g id="patch_80">
    <path clip-path="url(#p2d44cbdcea)" d="M 386.953866 143.349513 
L 393.355178 143.349513 
L 393.355178 94.452977 
L 386.953866 94.452977 
z
" style="fill:#71bcfe;"/>
   </g>
   <g id="patch_81">
    <path clip-path="url(#p2d44cbdcea)" d="M 378.952226 146.405547 
L 385.353538 146.405547 
L 385.353538 98.582752 
L 378.952226 98.582752 
z
" style="fill:#71bcfe;"/>
   </g>
   <g id="patch_82">
    <path clip-path="url(#p2d44cbdcea)" d="M 370.950586 147.066311 
L 377.351898 147.066311 
L 377.351898 99.573898 
L 370.950586 99.573898 
z
" style="fill:#71bcfe;"/>
   </g>
   <g id="patch_83">
    <path clip-path="url(#p2d44cbdcea)" d="M 362.948946 145.827378 
L 369.350258 145.827378 
L 369.350258 98.417561 
L 362.948946 98.417561 
z
" style="fill:#71bcfe;"/>
   </g>
   <g id="patch_84">
    <path clip-path="url(#p2d44cbdcea)" d="M 354.947306 145.24921 
L 361.348618 145.24921 
L 361.348618 96.765651 
L 354.947306 96.765651 
z
" style="fill:#71bcfe;"/>
   </g>
   <g id="patch_85">
    <path clip-path="url(#p2d44cbdcea)" d="M 346.945665 147.314097 
L 353.346978 147.314097 
L 353.346978 99.986876 
L 346.945665 99.986876 
z
" style="fill:#71bcfe;"/>
   </g>
   <g id="patch_86">
    <path clip-path="url(#p2d44cbdcea)" d="M 338.944025 146.735929 
L 345.345337 146.735929 
L 345.345337 99.491303 
L 338.944025 99.491303 
z
" style="fill:#71bcfe;"/>
   </g>
   <g id="patch_87">
    <path clip-path="url(#p2d44cbdcea)" d="M 330.942385 144.588446 
L 337.343697 144.588446 
L 337.343697 97.178629 
L 330.942385 97.178629 
z
" style="fill:#71bcfe;"/>
   </g>
   <g id="patch_88">
    <path clip-path="url(#p2d44cbdcea)" d="M 322.940745 144.092873 
L 329.342057 144.092873 
L 329.342057 95.609314 
L 322.940745 95.609314 
z
" style="fill:#71bcfe;"/>
   </g>
   <g id="patch_89">
    <path clip-path="url(#p2d44cbdcea)" d="M 314.939105 147.80967 
L 321.340417 147.80967 
L 321.340417 100.234662 
L 314.939105 100.234662 
z
" style="fill:#71bcfe;"/>
   </g>
   <g id="patch_90">
    <path clip-path="url(#p2d44cbdcea)" d="M 306.937465 147.479288 
L 313.338777 147.479288 
L 313.338777 101.721381 
L 306.937465 101.721381 
z
" style="fill:#71bcfe;"/>
   </g>
   <g id="patch_91">
    <path clip-path="url(#p2d44cbdcea)" d="M 298.935825 148.55303 
L 305.337137 148.55303 
L 305.337137 102.464741 
L 298.935825 102.464741 
z
" style="fill:#71bcfe;"/>
   </g>
   <g id="patch_92">
    <path clip-path="url(#p2d44cbdcea)" d="M 290.934185 147.974861 
L 297.335497 147.974861 
L 297.335497 100.565044 
L 290.934185 100.565044 
z
" style="fill:#71bcfe;"/>
   </g>
   <g id="patch_93">
    <path clip-path="url(#p2d44cbdcea)" d="M 282.932545 149.791962 
L 289.333857 149.791962 
L 289.333857 103.290696 
L 282.932545 103.290696 
z
" style="fill:#71bcfe;"/>
   </g>
   <g id="patch_94">
    <path clip-path="url(#p2d44cbdcea)" d="M 274.930904 153.343569 
L 281.332216 153.343569 
L 281.332216 108.90719 
L 274.930904 108.90719 
z
" style="fill:#71bcfe;"/>
   </g>
   <g id="patch_95">
    <path clip-path="url(#p2d44cbdcea)" d="M 266.929264 151.030895 
L 273.330576 151.030895 
L 273.330576 106.677111 
L 266.929264 106.677111 
z
" style="fill:#71bcfe;"/>
   </g>
   <g id="patch_96">
    <path clip-path="url(#p2d44cbdcea)" d="M 258.927624 142.936536 
L 265.328936 142.936536 
L 265.328936 97.839393 
L 258.927624 97.839393 
z
" style="fill:#71bcfe;"/>
   </g>
   <g id="patch_97">
    <path clip-path="url(#p2d44cbdcea)" d="M 250.925984 147.479288 
L 257.327296 147.479288 
L 257.327296 101.473595 
L 250.925984 101.473595 
z
" style="fill:#71bcfe;"/>
   </g>
   <g id="patch_98">
    <path clip-path="url(#p2d44cbdcea)" d="M 242.924344 147.314097 
L 249.325656 147.314097 
L 249.325656 101.143213 
L 242.924344 101.143213 
z
" style="fill:#71bcfe;"/>
   </g>
   <g id="patch_99">
    <path clip-path="url(#p2d44cbdcea)" d="M 234.922704 147.396693 
L 241.324016 147.396693 
L 241.324016 98.004584 
L 234.922704 98.004584 
z
" style="fill:#71bcfe;"/>
   </g>
   <g id="patch_100">
    <path clip-path="url(#p2d44cbdcea)" d="M 226.921064 143.101727 
L 233.322376 143.101727 
L 233.322376 94.04 
L 226.921064 94.04 
z
" style="fill:#71bcfe;"/>
   </g>
   <g id="patch_101">
    <path clip-path="url(#p2d44cbdcea)" d="M 218.919424 148.387839 
L 225.320736 148.387839 
L 225.320736 99.078325 
L 218.919424 99.078325 
z
" style="fill:#71bcfe;"/>
   </g>
   <g id="patch_102">
    <path clip-path="url(#p2d44cbdcea)" d="M 210.917784 149.874558 
L 217.319096 149.874558 
L 217.319096 98.500157 
L 210.917784 98.500157 
z
" style="fill:#71bcfe;"/>
   </g>
   <g id="patch_103">
    <path clip-path="url(#p2d44cbdcea)" d="M 202.916143 149.874558 
L 209.317455 149.874558 
L 209.317455 97.839393 
L 202.916143 97.839393 
z
" style="fill:#71bcfe;"/>
   </g>
   <g id="patch_104">
    <path clip-path="url(#p2d44cbdcea)" d="M 194.914503 147.644479 
L 201.315815 147.644479 
L 201.315815 96.270078 
L 194.914503 96.270078 
z
" style="fill:#71bcfe;"/>
   </g>
   <g id="patch_105">
    <path clip-path="url(#p2d44cbdcea)" d="M 186.912863 147.561884 
L 193.314175 147.561884 
L 193.314175 97.261224 
L 186.912863 97.261224 
z
" style="fill:#71bcfe;"/>
   </g>
   <g id="patch_106">
    <path clip-path="url(#p2d44cbdcea)" d="M 178.911223 150.617917 
L 185.312535 150.617917 
L 185.312535 99.573898 
L 178.911223 99.573898 
z
" style="fill:#71bcfe;"/>
   </g>
   <g id="patch_107">
    <path clip-path="url(#p2d44cbdcea)" d="M 170.909583 149.957153 
L 177.310895 149.957153 
L 177.310895 98.334966 
L 170.909583 98.334966 
z
" style="fill:#71bcfe;"/>
   </g>
   <g id="patch_108">
    <path clip-path="url(#p2d44cbdcea)" d="M 162.907943 151.196086 
L 169.309255 151.196086 
L 169.309255 98.417561 
L 162.907943 98.417561 
z
" style="fill:#71bcfe;"/>
   </g>
   <g id="patch_109">
    <path clip-path="url(#p2d44cbdcea)" d="M 154.906303 151.278681 
L 161.307615 151.278681 
L 161.307615 99.739089 
L 154.906303 99.739089 
z
" style="fill:#71bcfe;"/>
   </g>
   <g id="patch_110">
    <path clip-path="url(#p2d44cbdcea)" d="M 146.904663 152.022041 
L 153.305975 152.022041 
L 153.305975 100.812831 
L 146.904663 100.812831 
z
" style="fill:#71bcfe;"/>
   </g>
   <g id="patch_111">
    <path clip-path="url(#p2d44cbdcea)" d="M 138.903022 153.591355 
L 145.304335 153.591355 
L 145.304335 102.051763 
L 138.903022 102.051763 
z
" style="fill:#71bcfe;"/>
   </g>
   <g id="patch_112">
    <path clip-path="url(#p2d44cbdcea)" d="M 130.901382 150.948299 
L 137.302694 150.948299 
L 137.302694 98.665348 
L 130.901382 98.665348 
z
" style="fill:#71bcfe;"/>
   </g>
   <g id="patch_113">
    <path clip-path="url(#p2d44cbdcea)" d="M 122.899742 150.948299 
L 129.301054 150.948299 
L 129.301054 98.169775 
L 122.899742 98.169775 
z
" style="fill:#71bcfe;"/>
   </g>
   <g id="patch_114">
    <path clip-path="url(#p2d44cbdcea)" d="M 114.898102 153.839142 
L 121.299414 153.839142 
L 121.299414 100.730235 
L 114.898102 100.730235 
z
" style="fill:#71bcfe;"/>
   </g>
   <g id="patch_115">
    <path clip-path="url(#p2d44cbdcea)" d="M 106.896462 159.290445 
L 113.297774 159.290445 
L 113.297774 106.098943 
L 106.896462 106.098943 
z
" style="fill:#71bcfe;"/>
   </g>
   <g id="patch_116">
    <path clip-path="url(#p2d44cbdcea)" d="M 98.894822 154.086928 
L 105.296134 154.086928 
L 105.296134 98.665348 
L 98.894822 98.665348 
z
" style="fill:#71bcfe;"/>
   </g>
   <g id="patch_117">
    <path clip-path="url(#p2d44cbdcea)" d="M 90.893182 150.287535 
L 97.294494 150.287535 
L 97.294494 94.865955 
L 90.893182 94.865955 
z
" style="fill:#71bcfe;"/>
   </g>
   <g id="matplotlib.axis_1">
    <g id="xtick_1">
     <g id="line2d_1">
      <defs>
       <path d="M 0 0 
L 0 3.5 
" id="m34ff66324b" style="stroke:#000000;stroke-width:0.8;"/>
      </defs>
      <g>
       <use style="stroke:#000000;stroke-width:0.8;" x="134.102038" xlink:href="#m34ff66324b" y="251.88"/>
      </g>
     </g>
     <g id="text_1">
      <!-- 2012 -->
      <defs>
       <path d="M 19.1875 8.296875 
L 53.609375 8.296875 
L 53.609375 0 
L 7.328125 0 
L 7.328125 8.296875 
Q 12.9375 14.109375 22.625 23.890625 
Q 32.328125 33.6875 34.8125 36.53125 
Q 39.546875 41.84375 41.421875 45.53125 
Q 43.3125 49.21875 43.3125 52.78125 
Q 43.3125 58.59375 39.234375 62.25 
Q 35.15625 65.921875 28.609375 65.921875 
Q 23.96875 65.921875 18.8125 64.3125 
Q 13.671875 62.703125 7.8125 59.421875 
L 7.8125 69.390625 
Q 13.765625 71.78125 18.9375 73 
Q 24.125 74.21875 28.421875 74.21875 
Q 39.75 74.21875 46.484375 68.546875 
Q 53.21875 62.890625 53.21875 53.421875 
Q 53.21875 48.921875 51.53125 44.890625 
Q 49.859375 40.875 45.40625 35.40625 
Q 44.1875 33.984375 37.640625 27.21875 
Q 31.109375 20.453125 19.1875 8.296875 
z
" id="DejaVuSans-50"/>
       <path d="M 31.78125 66.40625 
Q 24.171875 66.40625 20.328125 58.90625 
Q 16.5 51.421875 16.5 36.375 
Q 16.5 21.390625 20.328125 13.890625 
Q 24.171875 6.390625 31.78125 6.390625 
Q 39.453125 6.390625 43.28125 13.890625 
Q 47.125 21.390625 47.125 36.375 
Q 47.125 51.421875 43.28125 58.90625 
Q 39.453125 66.40625 31.78125 66.40625 
z
M 31.78125 74.21875 
Q 44.046875 74.21875 50.515625 64.515625 
Q 56.984375 54.828125 56.984375 36.375 
Q 56.984375 17.96875 50.515625 8.265625 
Q 44.046875 -1.421875 31.78125 -1.421875 
Q 19.53125 -1.421875 13.0625 8.265625 
Q 6.59375 17.96875 6.59375 36.375 
Q 6.59375 54.828125 13.0625 64.515625 
Q 19.53125 74.21875 31.78125 74.21875 
z
" id="DejaVuSans-48"/>
       <path d="M 12.40625 8.296875 
L 28.515625 8.296875 
L 28.515625 63.921875 
L 10.984375 60.40625 
L 10.984375 69.390625 
L 28.421875 72.90625 
L 38.28125 72.90625 
L 38.28125 8.296875 
L 54.390625 8.296875 
L 54.390625 0 
L 12.40625 0 
z
" id="DejaVuSans-49"/>
      </defs>
      <g transform="translate(116.287038 269.517812)scale(0.14 -0.14)">
       <use xlink:href="#DejaVuSans-50"/>
       <use x="63.623047" xlink:href="#DejaVuSans-48"/>
       <use x="127.246094" xlink:href="#DejaVuSans-49"/>
       <use x="190.869141" xlink:href="#DejaVuSans-50"/>
      </g>
     </g>
    </g>
    <g id="xtick_2">
     <g id="line2d_2">
      <g>
       <use style="stroke:#000000;stroke-width:0.8;" x="198.115159" xlink:href="#m34ff66324b" y="251.88"/>
      </g>
     </g>
     <g id="text_2">
      <!-- 2014 -->
      <defs>
       <path d="M 37.796875 64.3125 
L 12.890625 25.390625 
L 37.796875 25.390625 
z
M 35.203125 72.90625 
L 47.609375 72.90625 
L 47.609375 25.390625 
L 58.015625 25.390625 
L 58.015625 17.1875 
L 47.609375 17.1875 
L 47.609375 0 
L 37.796875 0 
L 37.796875 17.1875 
L 4.890625 17.1875 
L 4.890625 26.703125 
z
" id="DejaVuSans-52"/>
      </defs>
      <g transform="translate(180.300159 269.517812)scale(0.14 -0.14)">
       <use xlink:href="#DejaVuSans-50"/>
       <use x="63.623047" xlink:href="#DejaVuSans-48"/>
       <use x="127.246094" xlink:href="#DejaVuSans-49"/>
       <use x="190.869141" xlink:href="#DejaVuSans-52"/>
      </g>
     </g>
    </g>
    <g id="xtick_3">
     <g id="line2d_3">
      <g>
       <use style="stroke:#000000;stroke-width:0.8;" x="262.12828" xlink:href="#m34ff66324b" y="251.88"/>
      </g>
     </g>
     <g id="text_3">
      <!-- 2016 -->
      <defs>
       <path d="M 33.015625 40.375 
Q 26.375 40.375 22.484375 35.828125 
Q 18.609375 31.296875 18.609375 23.390625 
Q 18.609375 15.53125 22.484375 10.953125 
Q 26.375 6.390625 33.015625 6.390625 
Q 39.65625 6.390625 43.53125 10.953125 
Q 47.40625 15.53125 47.40625 23.390625 
Q 47.40625 31.296875 43.53125 35.828125 
Q 39.65625 40.375 33.015625 40.375 
z
M 52.59375 71.296875 
L 52.59375 62.3125 
Q 48.875 64.0625 45.09375 64.984375 
Q 41.3125 65.921875 37.59375 65.921875 
Q 27.828125 65.921875 22.671875 59.328125 
Q 17.53125 52.734375 16.796875 39.40625 
Q 19.671875 43.65625 24.015625 45.921875 
Q 28.375 48.1875 33.59375 48.1875 
Q 44.578125 48.1875 50.953125 41.515625 
Q 57.328125 34.859375 57.328125 23.390625 
Q 57.328125 12.15625 50.6875 5.359375 
Q 44.046875 -1.421875 33.015625 -1.421875 
Q 20.359375 -1.421875 13.671875 8.265625 
Q 6.984375 17.96875 6.984375 36.375 
Q 6.984375 53.65625 15.1875 63.9375 
Q 23.390625 74.21875 37.203125 74.21875 
Q 40.921875 74.21875 44.703125 73.484375 
Q 48.484375 72.75 52.59375 71.296875 
z
" id="DejaVuSans-54"/>
      </defs>
      <g transform="translate(244.31328 269.517812)scale(0.14 -0.14)">
       <use xlink:href="#DejaVuSans-50"/>
       <use x="63.623047" xlink:href="#DejaVuSans-48"/>
       <use x="127.246094" xlink:href="#DejaVuSans-49"/>
       <use x="190.869141" xlink:href="#DejaVuSans-54"/>
      </g>
     </g>
    </g>
    <g id="xtick_4">
     <g id="line2d_4">
      <g>
       <use style="stroke:#000000;stroke-width:0.8;" x="326.141401" xlink:href="#m34ff66324b" y="251.88"/>
      </g>
     </g>
     <g id="text_4">
      <!-- 2018 -->
      <defs>
       <path d="M 31.78125 34.625 
Q 24.75 34.625 20.71875 30.859375 
Q 16.703125 27.09375 16.703125 20.515625 
Q 16.703125 13.921875 20.71875 10.15625 
Q 24.75 6.390625 31.78125 6.390625 
Q 38.8125 6.390625 42.859375 10.171875 
Q 46.921875 13.96875 46.921875 20.515625 
Q 46.921875 27.09375 42.890625 30.859375 
Q 38.875 34.625 31.78125 34.625 
z
M 21.921875 38.8125 
Q 15.578125 40.375 12.03125 44.71875 
Q 8.5 49.078125 8.5 55.328125 
Q 8.5 64.0625 14.71875 69.140625 
Q 20.953125 74.21875 31.78125 74.21875 
Q 42.671875 74.21875 48.875 69.140625 
Q 55.078125 64.0625 55.078125 55.328125 
Q 55.078125 49.078125 51.53125 44.71875 
Q 48 40.375 41.703125 38.8125 
Q 48.828125 37.15625 52.796875 32.3125 
Q 56.78125 27.484375 56.78125 20.515625 
Q 56.78125 9.90625 50.3125 4.234375 
Q 43.84375 -1.421875 31.78125 -1.421875 
Q 19.734375 -1.421875 13.25 4.234375 
Q 6.78125 9.90625 6.78125 20.515625 
Q 6.78125 27.484375 10.78125 32.3125 
Q 14.796875 37.15625 21.921875 38.8125 
z
M 18.3125 54.390625 
Q 18.3125 48.734375 21.84375 45.5625 
Q 25.390625 42.390625 31.78125 42.390625 
Q 38.140625 42.390625 41.71875 45.5625 
Q 45.3125 48.734375 45.3125 54.390625 
Q 45.3125 60.0625 41.71875 63.234375 
Q 38.140625 66.40625 31.78125 66.40625 
Q 25.390625 66.40625 21.84375 63.234375 
Q 18.3125 60.0625 18.3125 54.390625 
z
" id="DejaVuSans-56"/>
      </defs>
      <g transform="translate(308.326401 269.517812)scale(0.14 -0.14)">
       <use xlink:href="#DejaVuSans-50"/>
       <use x="63.623047" xlink:href="#DejaVuSans-48"/>
       <use x="127.246094" xlink:href="#DejaVuSans-49"/>
       <use x="190.869141" xlink:href="#DejaVuSans-56"/>
      </g>
     </g>
    </g>
    <g id="xtick_5">
     <g id="line2d_5">
      <g>
       <use style="stroke:#000000;stroke-width:0.8;" x="390.154522" xlink:href="#m34ff66324b" y="251.88"/>
      </g>
     </g>
     <g id="text_5">
      <!-- 2020 -->
      <g transform="translate(372.339522 269.517812)scale(0.14 -0.14)">
       <use xlink:href="#DejaVuSans-50"/>
       <use x="63.623047" xlink:href="#DejaVuSans-48"/>
       <use x="127.246094" xlink:href="#DejaVuSans-50"/>
       <use x="190.869141" xlink:href="#DejaVuSans-48"/>
      </g>
     </g>
    </g>
   </g>
   <g id="matplotlib.axis_2">
    <g id="ytick_1">
     <g id="line2d_6">
      <defs>
       <path d="M 0 0 
L -3.5 0 
" id="m3dd816427d" style="stroke:#000000;stroke-width:0.8;"/>
      </defs>
      <g>
       <use style="stroke:#000000;stroke-width:0.8;" x="75.37" xlink:href="#m3dd816427d" y="251.88"/>
      </g>
     </g>
     <g id="text_6">
      <!-- 0 -->
      <g transform="translate(59.4625 257.198906)scale(0.14 -0.14)">
       <use xlink:href="#DejaVuSans-48"/>
      </g>
     </g>
    </g>
    <g id="ytick_2">
     <g id="line2d_7">
      <g>
       <use style="stroke:#000000;stroke-width:0.8;" x="75.37" xlink:href="#m3dd816427d" y="210.58225"/>
      </g>
     </g>
     <g id="text_7">
      <!-- 500 -->
      <defs>
       <path d="M 10.796875 72.90625 
L 49.515625 72.90625 
L 49.515625 64.59375 
L 19.828125 64.59375 
L 19.828125 46.734375 
Q 21.96875 47.46875 24.109375 47.828125 
Q 26.265625 48.1875 28.421875 48.1875 
Q 40.625 48.1875 47.75 41.5 
Q 54.890625 34.8125 54.890625 23.390625 
Q 54.890625 11.625 47.5625 5.09375 
Q 40.234375 -1.421875 26.90625 -1.421875 
Q 22.3125 -1.421875 17.546875 -0.640625 
Q 12.796875 0.140625 7.71875 1.703125 
L 7.71875 11.625 
Q 12.109375 9.234375 16.796875 8.0625 
Q 21.484375 6.890625 26.703125 6.890625 
Q 35.15625 6.890625 40.078125 11.328125 
Q 45.015625 15.765625 45.015625 23.390625 
Q 45.015625 31 40.078125 35.4375 
Q 35.15625 39.890625 26.703125 39.890625 
Q 22.75 39.890625 18.8125 39.015625 
Q 14.890625 38.140625 10.796875 36.28125 
z
" id="DejaVuSans-53"/>
      </defs>
      <g transform="translate(41.6475 215.901156)scale(0.14 -0.14)">
       <use xlink:href="#DejaVuSans-53"/>
       <use x="63.623047" xlink:href="#DejaVuSans-48"/>
       <use x="127.246094" xlink:href="#DejaVuSans-48"/>
      </g>
     </g>
    </g>
    <g id="ytick_3">
     <g id="line2d_8">
      <g>
       <use style="stroke:#000000;stroke-width:0.8;" x="75.37" xlink:href="#m3dd816427d" y="169.2845"/>
      </g>
     </g>
     <g id="text_8">
      <!-- 1000 -->
      <g transform="translate(32.74 174.603407)scale(0.14 -0.14)">
       <use xlink:href="#DejaVuSans-49"/>
       <use x="63.623047" xlink:href="#DejaVuSans-48"/>
       <use x="127.246094" xlink:href="#DejaVuSans-48"/>
       <use x="190.869141" xlink:href="#DejaVuSans-48"/>
      </g>
     </g>
    </g>
    <g id="ytick_4">
     <g id="line2d_9">
      <g>
       <use style="stroke:#000000;stroke-width:0.8;" x="75.37" xlink:href="#m3dd816427d" y="127.98675"/>
      </g>
     </g>
     <g id="text_9">
      <!-- 1500 -->
      <g transform="translate(32.74 133.305657)scale(0.14 -0.14)">
       <use xlink:href="#DejaVuSans-49"/>
       <use x="63.623047" xlink:href="#DejaVuSans-53"/>
       <use x="127.246094" xlink:href="#DejaVuSans-48"/>
       <use x="190.869141" xlink:href="#DejaVuSans-48"/>
      </g>
     </g>
    </g>
    <g id="ytick_5">
     <g id="line2d_10">
      <g>
       <use style="stroke:#000000;stroke-width:0.8;" x="75.37" xlink:href="#m3dd816427d" y="86.689001"/>
      </g>
     </g>
     <g id="text_10">
      <!-- 2000 -->
      <g transform="translate(32.74 92.007907)scale(0.14 -0.14)">
       <use xlink:href="#DejaVuSans-50"/>
       <use x="63.623047" xlink:href="#DejaVuSans-48"/>
       <use x="127.246094" xlink:href="#DejaVuSans-48"/>
       <use x="190.869141" xlink:href="#DejaVuSans-48"/>
      </g>
     </g>
    </g>
    <g id="ytick_6">
     <g id="line2d_11">
      <g>
       <use style="stroke:#000000;stroke-width:0.8;" x="75.37" xlink:href="#m3dd816427d" y="45.391251"/>
      </g>
     </g>
     <g id="text_11">
      <!-- 2500 -->
      <g transform="translate(32.74 50.710157)scale(0.14 -0.14)">
       <use xlink:href="#DejaVuSans-50"/>
       <use x="63.623047" xlink:href="#DejaVuSans-53"/>
       <use x="127.246094" xlink:href="#DejaVuSans-48"/>
       <use x="190.869141" xlink:href="#DejaVuSans-48"/>
      </g>
     </g>
    </g>
    <g id="text_12">
     <!-- Total # of Available Beds -->
     <defs>
      <path d="M -0.296875 72.90625 
L 61.375 72.90625 
L 61.375 64.59375 
L 35.5 64.59375 
L 35.5 0 
L 25.59375 0 
L 25.59375 64.59375 
L -0.296875 64.59375 
z
" id="DejaVuSans-84"/>
      <path d="M 30.609375 48.390625 
Q 23.390625 48.390625 19.1875 42.75 
Q 14.984375 37.109375 14.984375 27.296875 
Q 14.984375 17.484375 19.15625 11.84375 
Q 23.34375 6.203125 30.609375 6.203125 
Q 37.796875 6.203125 41.984375 11.859375 
Q 46.1875 17.53125 46.1875 27.296875 
Q 46.1875 37.015625 41.984375 42.703125 
Q 37.796875 48.390625 30.609375 48.390625 
z
M 30.609375 56 
Q 42.328125 56 49.015625 48.375 
Q 55.71875 40.765625 55.71875 27.296875 
Q 55.71875 13.875 49.015625 6.21875 
Q 42.328125 -1.421875 30.609375 -1.421875 
Q 18.84375 -1.421875 12.171875 6.21875 
Q 5.515625 13.875 5.515625 27.296875 
Q 5.515625 40.765625 12.171875 48.375 
Q 18.84375 56 30.609375 56 
z
" id="DejaVuSans-111"/>
      <path d="M 18.3125 70.21875 
L 18.3125 54.6875 
L 36.8125 54.6875 
L 36.8125 47.703125 
L 18.3125 47.703125 
L 18.3125 18.015625 
Q 18.3125 11.328125 20.140625 9.421875 
Q 21.96875 7.515625 27.59375 7.515625 
L 36.8125 7.515625 
L 36.8125 0 
L 27.59375 0 
Q 17.1875 0 13.234375 3.875 
Q 9.28125 7.765625 9.28125 18.015625 
L 9.28125 47.703125 
L 2.6875 47.703125 
L 2.6875 54.6875 
L 9.28125 54.6875 
L 9.28125 70.21875 
z
" id="DejaVuSans-116"/>
      <path d="M 34.28125 27.484375 
Q 23.390625 27.484375 19.1875 25 
Q 14.984375 22.515625 14.984375 16.5 
Q 14.984375 11.71875 18.140625 8.90625 
Q 21.296875 6.109375 26.703125 6.109375 
Q 34.1875 6.109375 38.703125 11.40625 
Q 43.21875 16.703125 43.21875 25.484375 
L 43.21875 27.484375 
z
M 52.203125 31.203125 
L 52.203125 0 
L 43.21875 0 
L 43.21875 8.296875 
Q 40.140625 3.328125 35.546875 0.953125 
Q 30.953125 -1.421875 24.3125 -1.421875 
Q 15.921875 -1.421875 10.953125 3.296875 
Q 6 8.015625 6 15.921875 
Q 6 25.140625 12.171875 29.828125 
Q 18.359375 34.515625 30.609375 34.515625 
L 43.21875 34.515625 
L 43.21875 35.40625 
Q 43.21875 41.609375 39.140625 45 
Q 35.0625 48.390625 27.6875 48.390625 
Q 23 48.390625 18.546875 47.265625 
Q 14.109375 46.140625 10.015625 43.890625 
L 10.015625 52.203125 
Q 14.9375 54.109375 19.578125 55.046875 
Q 24.21875 56 28.609375 56 
Q 40.484375 56 46.34375 49.84375 
Q 52.203125 43.703125 52.203125 31.203125 
z
" id="DejaVuSans-97"/>
      <path d="M 9.421875 75.984375 
L 18.40625 75.984375 
L 18.40625 0 
L 9.421875 0 
z
" id="DejaVuSans-108"/>
      <path id="DejaVuSans-32"/>
      <path d="M 51.125 44 
L 36.921875 44 
L 32.8125 27.6875 
L 47.125 27.6875 
z
M 43.796875 71.78125 
L 38.71875 51.515625 
L 52.984375 51.515625 
L 58.109375 71.78125 
L 65.921875 71.78125 
L 60.890625 51.515625 
L 76.125 51.515625 
L 76.125 44 
L 58.984375 44 
L 54.984375 27.6875 
L 70.515625 27.6875 
L 70.515625 20.21875 
L 53.078125 20.21875 
L 48 0 
L 40.1875 0 
L 45.21875 20.21875 
L 30.90625 20.21875 
L 25.875 0 
L 18.015625 0 
L 23.09375 20.21875 
L 7.71875 20.21875 
L 7.71875 27.6875 
L 24.90625 27.6875 
L 29 44 
L 13.28125 44 
L 13.28125 51.515625 
L 30.90625 51.515625 
L 35.890625 71.78125 
z
" id="DejaVuSans-35"/>
      <path d="M 37.109375 75.984375 
L 37.109375 68.5 
L 28.515625 68.5 
Q 23.6875 68.5 21.796875 66.546875 
Q 19.921875 64.59375 19.921875 59.515625 
L 19.921875 54.6875 
L 34.71875 54.6875 
L 34.71875 47.703125 
L 19.921875 47.703125 
L 19.921875 0 
L 10.890625 0 
L 10.890625 47.703125 
L 2.296875 47.703125 
L 2.296875 54.6875 
L 10.890625 54.6875 
L 10.890625 58.5 
Q 10.890625 67.625 15.140625 71.796875 
Q 19.390625 75.984375 28.609375 75.984375 
z
" id="DejaVuSans-102"/>
      <path d="M 34.1875 63.1875 
L 20.796875 26.90625 
L 47.609375 26.90625 
z
M 28.609375 72.90625 
L 39.796875 72.90625 
L 67.578125 0 
L 57.328125 0 
L 50.6875 18.703125 
L 17.828125 18.703125 
L 11.1875 0 
L 0.78125 0 
z
" id="DejaVuSans-65"/>
      <path d="M 2.984375 54.6875 
L 12.5 54.6875 
L 29.59375 8.796875 
L 46.6875 54.6875 
L 56.203125 54.6875 
L 35.6875 0 
L 23.484375 0 
z
" id="DejaVuSans-118"/>
      <path d="M 9.421875 54.6875 
L 18.40625 54.6875 
L 18.40625 0 
L 9.421875 0 
z
M 9.421875 75.984375 
L 18.40625 75.984375 
L 18.40625 64.59375 
L 9.421875 64.59375 
z
" id="DejaVuSans-105"/>
      <path d="M 48.6875 27.296875 
Q 48.6875 37.203125 44.609375 42.84375 
Q 40.53125 48.484375 33.40625 48.484375 
Q 26.265625 48.484375 22.1875 42.84375 
Q 18.109375 37.203125 18.109375 27.296875 
Q 18.109375 17.390625 22.1875 11.75 
Q 26.265625 6.109375 33.40625 6.109375 
Q 40.53125 6.109375 44.609375 11.75 
Q 48.6875 17.390625 48.6875 27.296875 
z
M 18.109375 46.390625 
Q 20.953125 51.265625 25.265625 53.625 
Q 29.59375 56 35.59375 56 
Q 45.5625 56 51.78125 48.09375 
Q 58.015625 40.1875 58.015625 27.296875 
Q 58.015625 14.40625 51.78125 6.484375 
Q 45.5625 -1.421875 35.59375 -1.421875 
Q 29.59375 -1.421875 25.265625 0.953125 
Q 20.953125 3.328125 18.109375 8.203125 
L 18.109375 0 
L 9.078125 0 
L 9.078125 75.984375 
L 18.109375 75.984375 
z
" id="DejaVuSans-98"/>
      <path d="M 56.203125 29.59375 
L 56.203125 25.203125 
L 14.890625 25.203125 
Q 15.484375 15.921875 20.484375 11.0625 
Q 25.484375 6.203125 34.421875 6.203125 
Q 39.59375 6.203125 44.453125 7.46875 
Q 49.3125 8.734375 54.109375 11.28125 
L 54.109375 2.78125 
Q 49.265625 0.734375 44.1875 -0.34375 
Q 39.109375 -1.421875 33.890625 -1.421875 
Q 20.796875 -1.421875 13.15625 6.1875 
Q 5.515625 13.8125 5.515625 26.8125 
Q 5.515625 40.234375 12.765625 48.109375 
Q 20.015625 56 32.328125 56 
Q 43.359375 56 49.78125 48.890625 
Q 56.203125 41.796875 56.203125 29.59375 
z
M 47.21875 32.234375 
Q 47.125 39.59375 43.09375 43.984375 
Q 39.0625 48.390625 32.421875 48.390625 
Q 24.90625 48.390625 20.390625 44.140625 
Q 15.875 39.890625 15.1875 32.171875 
z
" id="DejaVuSans-101"/>
      <path d="M 19.671875 34.8125 
L 19.671875 8.109375 
L 35.5 8.109375 
Q 43.453125 8.109375 47.28125 11.40625 
Q 51.125 14.703125 51.125 21.484375 
Q 51.125 28.328125 47.28125 31.5625 
Q 43.453125 34.8125 35.5 34.8125 
z
M 19.671875 64.796875 
L 19.671875 42.828125 
L 34.28125 42.828125 
Q 41.5 42.828125 45.03125 45.53125 
Q 48.578125 48.25 48.578125 53.8125 
Q 48.578125 59.328125 45.03125 62.0625 
Q 41.5 64.796875 34.28125 64.796875 
z
M 9.8125 72.90625 
L 35.015625 72.90625 
Q 46.296875 72.90625 52.390625 68.21875 
Q 58.5 63.53125 58.5 54.890625 
Q 58.5 48.1875 55.375 44.234375 
Q 52.25 40.28125 46.1875 39.3125 
Q 53.46875 37.75 57.5 32.78125 
Q 61.53125 27.828125 61.53125 20.40625 
Q 61.53125 10.640625 54.890625 5.3125 
Q 48.25 0 35.984375 0 
L 9.8125 0 
z
" id="DejaVuSans-66"/>
      <path d="M 45.40625 46.390625 
L 45.40625 75.984375 
L 54.390625 75.984375 
L 54.390625 0 
L 45.40625 0 
L 45.40625 8.203125 
Q 42.578125 3.328125 38.25 0.953125 
Q 33.9375 -1.421875 27.875 -1.421875 
Q 17.96875 -1.421875 11.734375 6.484375 
Q 5.515625 14.40625 5.515625 27.296875 
Q 5.515625 40.1875 11.734375 48.09375 
Q 17.96875 56 27.875 56 
Q 33.9375 56 38.25 53.625 
Q 42.578125 51.265625 45.40625 46.390625 
z
M 14.796875 27.296875 
Q 14.796875 17.390625 18.875 11.75 
Q 22.953125 6.109375 30.078125 6.109375 
Q 37.203125 6.109375 41.296875 11.75 
Q 45.40625 17.390625 45.40625 27.296875 
Q 45.40625 37.203125 41.296875 42.84375 
Q 37.203125 48.484375 30.078125 48.484375 
Q 22.953125 48.484375 18.875 42.84375 
Q 14.796875 37.203125 14.796875 27.296875 
z
" id="DejaVuSans-100"/>
      <path d="M 44.28125 53.078125 
L 44.28125 44.578125 
Q 40.484375 46.53125 36.375 47.5 
Q 32.28125 48.484375 27.875 48.484375 
Q 21.1875 48.484375 17.84375 46.4375 
Q 14.5 44.390625 14.5 40.28125 
Q 14.5 37.15625 16.890625 35.375 
Q 19.28125 33.59375 26.515625 31.984375 
L 29.59375 31.296875 
Q 39.15625 29.25 43.1875 25.515625 
Q 47.21875 21.78125 47.21875 15.09375 
Q 47.21875 7.46875 41.1875 3.015625 
Q 35.15625 -1.421875 24.609375 -1.421875 
Q 20.21875 -1.421875 15.453125 -0.5625 
Q 10.6875 0.296875 5.421875 2 
L 5.421875 11.28125 
Q 10.40625 8.6875 15.234375 7.390625 
Q 20.0625 6.109375 24.8125 6.109375 
Q 31.15625 6.109375 34.5625 8.28125 
Q 37.984375 10.453125 37.984375 14.40625 
Q 37.984375 18.0625 35.515625 20.015625 
Q 33.0625 21.96875 24.703125 23.78125 
L 21.578125 24.515625 
Q 13.234375 26.265625 9.515625 29.90625 
Q 5.8125 33.546875 5.8125 39.890625 
Q 5.8125 47.609375 11.28125 51.796875 
Q 16.75 56 26.8125 56 
Q 31.78125 56 36.171875 55.265625 
Q 40.578125 54.546875 44.28125 53.078125 
z
" id="DejaVuSans-115"/>
     </defs>
     <g transform="translate(25.828437 221.821406)rotate(-90)scale(0.14 -0.14)">
      <use xlink:href="#DejaVuSans-84"/>
      <use x="60.818359" xlink:href="#DejaVuSans-111"/>
      <use x="122" xlink:href="#DejaVuSans-116"/>
      <use x="161.208984" xlink:href="#DejaVuSans-97"/>
      <use x="222.488281" xlink:href="#DejaVuSans-108"/>
      <use x="250.271484" xlink:href="#DejaVuSans-32"/>
      <use x="282.058594" xlink:href="#DejaVuSans-35"/>
      <use x="365.847656" xlink:href="#DejaVuSans-32"/>
      <use x="397.634766" xlink:href="#DejaVuSans-111"/>
      <use x="458.816406" xlink:href="#DejaVuSans-102"/>
      <use x="494.021484" xlink:href="#DejaVuSans-32"/>
      <use x="525.808594" xlink:href="#DejaVuSans-65"/>
      <use x="594.138672" xlink:href="#DejaVuSans-118"/>
      <use x="653.318359" xlink:href="#DejaVuSans-97"/>
      <use x="714.597656" xlink:href="#DejaVuSans-105"/>
      <use x="742.380859" xlink:href="#DejaVuSans-108"/>
      <use x="770.164062" xlink:href="#DejaVuSans-97"/>
      <use x="831.443359" xlink:href="#DejaVuSans-98"/>
      <use x="894.919922" xlink:href="#DejaVuSans-108"/>
      <use x="922.703125" xlink:href="#DejaVuSans-101"/>
      <use x="984.226562" xlink:href="#DejaVuSans-32"/>
      <use x="1016.013672" xlink:href="#DejaVuSans-66"/>
      <use x="1084.617188" xlink:href="#DejaVuSans-101"/>
      <use x="1146.140625" xlink:href="#DejaVuSans-100"/>
      <use x="1209.617188" xlink:href="#DejaVuSans-115"/>
     </g>
    </g>
   </g>
   <g id="patch_118">
    <path d="M 75.37 251.88 
L 75.37 15.12 
" style="fill:none;stroke:#000000;stroke-linecap:square;stroke-linejoin:miter;stroke-width:0.8;"/>
   </g>
   <g id="patch_119">
    <path d="M 416.88 251.88 
L 416.88 15.12 
" style="fill:none;stroke:#000000;stroke-linecap:square;stroke-linejoin:miter;stroke-width:0.8;"/>
   </g>
   <g id="patch_120">
    <path d="M 75.37 251.88 
L 416.88 251.88 
" style="fill:none;stroke:#000000;stroke-linecap:square;stroke-linejoin:miter;stroke-width:0.8;"/>
   </g>
   <g id="patch_121">
    <path d="M 75.37 15.12 
L 416.88 15.12 
" style="fill:none;stroke:#000000;stroke-linecap:square;stroke-linejoin:miter;stroke-width:0.8;"/>
   </g>
   <g id="legend_1">
    <g id="patch_122">
     <path d="M 87.97 38.357812 
L 115.97 38.357812 
L 115.97 28.557812 
L 87.97 28.557812 
z
" style="fill:#004684;"/>
    </g>
    <g id="text_13">
     <!-- Mid And South Essex -->
     <defs>
      <path d="M 9.8125 72.90625 
L 24.515625 72.90625 
L 43.109375 23.296875 
L 61.8125 72.90625 
L 76.515625 72.90625 
L 76.515625 0 
L 66.890625 0 
L 66.890625 64.015625 
L 48.09375 14.015625 
L 38.1875 14.015625 
L 19.390625 64.015625 
L 19.390625 0 
L 9.8125 0 
z
" id="DejaVuSans-77"/>
      <path d="M 54.890625 33.015625 
L 54.890625 0 
L 45.90625 0 
L 45.90625 32.71875 
Q 45.90625 40.484375 42.875 44.328125 
Q 39.84375 48.1875 33.796875 48.1875 
Q 26.515625 48.1875 22.3125 43.546875 
Q 18.109375 38.921875 18.109375 30.90625 
L 18.109375 0 
L 9.078125 0 
L 9.078125 54.6875 
L 18.109375 54.6875 
L 18.109375 46.1875 
Q 21.34375 51.125 25.703125 53.5625 
Q 30.078125 56 35.796875 56 
Q 45.21875 56 50.046875 50.171875 
Q 54.890625 44.34375 54.890625 33.015625 
z
" id="DejaVuSans-110"/>
      <path d="M 53.515625 70.515625 
L 53.515625 60.890625 
Q 47.90625 63.578125 42.921875 64.890625 
Q 37.9375 66.21875 33.296875 66.21875 
Q 25.25 66.21875 20.875 63.09375 
Q 16.5 59.96875 16.5 54.203125 
Q 16.5 49.359375 19.40625 46.890625 
Q 22.3125 44.4375 30.421875 42.921875 
L 36.375 41.703125 
Q 47.40625 39.59375 52.65625 34.296875 
Q 57.90625 29 57.90625 20.125 
Q 57.90625 9.515625 50.796875 4.046875 
Q 43.703125 -1.421875 29.984375 -1.421875 
Q 24.8125 -1.421875 18.96875 -0.25 
Q 13.140625 0.921875 6.890625 3.21875 
L 6.890625 13.375 
Q 12.890625 10.015625 18.65625 8.296875 
Q 24.421875 6.59375 29.984375 6.59375 
Q 38.421875 6.59375 43.015625 9.90625 
Q 47.609375 13.234375 47.609375 19.390625 
Q 47.609375 24.75 44.3125 27.78125 
Q 41.015625 30.8125 33.5 32.328125 
L 27.484375 33.5 
Q 16.453125 35.6875 11.515625 40.375 
Q 6.59375 45.0625 6.59375 53.421875 
Q 6.59375 63.09375 13.40625 68.65625 
Q 20.21875 74.21875 32.171875 74.21875 
Q 37.3125 74.21875 42.625 73.28125 
Q 47.953125 72.359375 53.515625 70.515625 
z
" id="DejaVuSans-83"/>
      <path d="M 8.5 21.578125 
L 8.5 54.6875 
L 17.484375 54.6875 
L 17.484375 21.921875 
Q 17.484375 14.15625 20.5 10.265625 
Q 23.53125 6.390625 29.59375 6.390625 
Q 36.859375 6.390625 41.078125 11.03125 
Q 45.3125 15.671875 45.3125 23.6875 
L 45.3125 54.6875 
L 54.296875 54.6875 
L 54.296875 0 
L 45.3125 0 
L 45.3125 8.40625 
Q 42.046875 3.421875 37.71875 1 
Q 33.40625 -1.421875 27.6875 -1.421875 
Q 18.265625 -1.421875 13.375 4.4375 
Q 8.5 10.296875 8.5 21.578125 
z
M 31.109375 56 
z
" id="DejaVuSans-117"/>
      <path d="M 54.890625 33.015625 
L 54.890625 0 
L 45.90625 0 
L 45.90625 32.71875 
Q 45.90625 40.484375 42.875 44.328125 
Q 39.84375 48.1875 33.796875 48.1875 
Q 26.515625 48.1875 22.3125 43.546875 
Q 18.109375 38.921875 18.109375 30.90625 
L 18.109375 0 
L 9.078125 0 
L 9.078125 75.984375 
L 18.109375 75.984375 
L 18.109375 46.1875 
Q 21.34375 51.125 25.703125 53.5625 
Q 30.078125 56 35.796875 56 
Q 45.21875 56 50.046875 50.171875 
Q 54.890625 44.34375 54.890625 33.015625 
z
" id="DejaVuSans-104"/>
      <path d="M 9.8125 72.90625 
L 55.90625 72.90625 
L 55.90625 64.59375 
L 19.671875 64.59375 
L 19.671875 43.015625 
L 54.390625 43.015625 
L 54.390625 34.71875 
L 19.671875 34.71875 
L 19.671875 8.296875 
L 56.78125 8.296875 
L 56.78125 0 
L 9.8125 0 
z
" id="DejaVuSans-69"/>
      <path d="M 54.890625 54.6875 
L 35.109375 28.078125 
L 55.90625 0 
L 45.3125 0 
L 29.390625 21.484375 
L 13.484375 0 
L 2.875 0 
L 24.125 28.609375 
L 4.6875 54.6875 
L 15.28125 54.6875 
L 29.78125 35.203125 
L 44.28125 54.6875 
z
" id="DejaVuSans-120"/>
     </defs>
     <g transform="translate(127.17 38.357812)scale(0.14 -0.14)">
      <use xlink:href="#DejaVuSans-77"/>
      <use x="86.279297" xlink:href="#DejaVuSans-105"/>
      <use x="114.0625" xlink:href="#DejaVuSans-100"/>
      <use x="177.539062" xlink:href="#DejaVuSans-32"/>
      <use x="209.326172" xlink:href="#DejaVuSans-65"/>
      <use x="277.734375" xlink:href="#DejaVuSans-110"/>
      <use x="341.113281" xlink:href="#DejaVuSans-100"/>
      <use x="404.589844" xlink:href="#DejaVuSans-32"/>
      <use x="436.376953" xlink:href="#DejaVuSans-83"/>
      <use x="499.853516" xlink:href="#DejaVuSans-111"/>
      <use x="561.035156" xlink:href="#DejaVuSans-117"/>
      <use x="624.414062" xlink:href="#DejaVuSans-116"/>
      <use x="663.623047" xlink:href="#DejaVuSans-104"/>
      <use x="727.001953" xlink:href="#DejaVuSans-32"/>
      <use x="758.789062" xlink:href="#DejaVuSans-69"/>
      <use x="821.972656" xlink:href="#DejaVuSans-115"/>
      <use x="874.072266" xlink:href="#DejaVuSans-115"/>
      <use x="926.171875" xlink:href="#DejaVuSans-101"/>
      <use x="987.679688" xlink:href="#DejaVuSans-120"/>
     </g>
    </g>
    <g id="patch_123">
     <path d="M 87.97 58.907187 
L 115.97 58.907187 
L 115.97 49.107187 
L 87.97 49.107187 
z
" style="fill:#006bc8;"/>
    </g>
    <g id="text_14">
     <!-- Basildon And Thurrock -->
     <defs>
      <path d="M 41.109375 46.296875 
Q 39.59375 47.171875 37.8125 47.578125 
Q 36.03125 48 33.890625 48 
Q 26.265625 48 22.1875 43.046875 
Q 18.109375 38.09375 18.109375 28.8125 
L 18.109375 0 
L 9.078125 0 
L 9.078125 54.6875 
L 18.109375 54.6875 
L 18.109375 46.1875 
Q 20.953125 51.171875 25.484375 53.578125 
Q 30.03125 56 36.53125 56 
Q 37.453125 56 38.578125 55.875 
Q 39.703125 55.765625 41.0625 55.515625 
z
" id="DejaVuSans-114"/>
      <path d="M 48.78125 52.59375 
L 48.78125 44.1875 
Q 44.96875 46.296875 41.140625 47.34375 
Q 37.3125 48.390625 33.40625 48.390625 
Q 24.65625 48.390625 19.8125 42.84375 
Q 14.984375 37.3125 14.984375 27.296875 
Q 14.984375 17.28125 19.8125 11.734375 
Q 24.65625 6.203125 33.40625 6.203125 
Q 37.3125 6.203125 41.140625 7.25 
Q 44.96875 8.296875 48.78125 10.40625 
L 48.78125 2.09375 
Q 45.015625 0.34375 40.984375 -0.53125 
Q 36.96875 -1.421875 32.421875 -1.421875 
Q 20.0625 -1.421875 12.78125 6.34375 
Q 5.515625 14.109375 5.515625 27.296875 
Q 5.515625 40.671875 12.859375 48.328125 
Q 20.21875 56 33.015625 56 
Q 37.15625 56 41.109375 55.140625 
Q 45.0625 54.296875 48.78125 52.59375 
z
" id="DejaVuSans-99"/>
      <path d="M 9.078125 75.984375 
L 18.109375 75.984375 
L 18.109375 31.109375 
L 44.921875 54.6875 
L 56.390625 54.6875 
L 27.390625 29.109375 
L 57.625 0 
L 45.90625 0 
L 18.109375 26.703125 
L 18.109375 0 
L 9.078125 0 
z
" id="DejaVuSans-107"/>
     </defs>
     <g transform="translate(127.17 58.907187)scale(0.14 -0.14)">
      <use xlink:href="#DejaVuSans-66"/>
      <use x="68.603516" xlink:href="#DejaVuSans-97"/>
      <use x="129.882812" xlink:href="#DejaVuSans-115"/>
      <use x="181.982422" xlink:href="#DejaVuSans-105"/>
      <use x="209.765625" xlink:href="#DejaVuSans-108"/>
      <use x="237.548828" xlink:href="#DejaVuSans-100"/>
      <use x="301.025391" xlink:href="#DejaVuSans-111"/>
      <use x="362.207031" xlink:href="#DejaVuSans-110"/>
      <use x="425.585938" xlink:href="#DejaVuSans-32"/>
      <use x="457.373047" xlink:href="#DejaVuSans-65"/>
      <use x="525.78125" xlink:href="#DejaVuSans-110"/>
      <use x="589.160156" xlink:href="#DejaVuSans-100"/>
      <use x="652.636719" xlink:href="#DejaVuSans-32"/>
      <use x="684.423828" xlink:href="#DejaVuSans-84"/>
      <use x="745.507812" xlink:href="#DejaVuSans-104"/>
      <use x="808.886719" xlink:href="#DejaVuSans-117"/>
      <use x="872.265625" xlink:href="#DejaVuSans-114"/>
      <use x="913.363281" xlink:href="#DejaVuSans-114"/>
      <use x="954.445312" xlink:href="#DejaVuSans-111"/>
      <use x="1015.626953" xlink:href="#DejaVuSans-99"/>
      <use x="1070.607422" xlink:href="#DejaVuSans-107"/>
     </g>
    </g>
    <g id="patch_124">
     <path d="M 87.97 79.456562 
L 115.97 79.456562 
L 115.97 69.656562 
L 87.97 69.656562 
z
" style="fill:#39a1fc;"/>
    </g>
    <g id="text_15">
     <!-- Mid Essex -->
     <g transform="translate(127.17 79.456562)scale(0.14 -0.14)">
      <use xlink:href="#DejaVuSans-77"/>
      <use x="86.279297" xlink:href="#DejaVuSans-105"/>
      <use x="114.0625" xlink:href="#DejaVuSans-100"/>
      <use x="177.539062" xlink:href="#DejaVuSans-32"/>
      <use x="209.326172" xlink:href="#DejaVuSans-69"/>
      <use x="272.509766" xlink:href="#DejaVuSans-115"/>
      <use x="324.609375" xlink:href="#DejaVuSans-115"/>
      <use x="376.708984" xlink:href="#DejaVuSans-101"/>
      <use x="438.216797" xlink:href="#DejaVuSans-120"/>
     </g>
    </g>
    <g id="patch_125">
     <path d="M 87.97 100.005937 
L 115.97 100.005937 
L 115.97 90.205937 
L 87.97 90.205937 
z
" style="fill:#71bcfe;"/>
    </g>
    <g id="text_16">
     <!-- Southend -->
     <g transform="translate(127.17 100.005937)scale(0.14 -0.14)">
      <use xlink:href="#DejaVuSans-83"/>
      <use x="63.476562" xlink:href="#DejaVuSans-111"/>
      <use x="124.658203" xlink:href="#DejaVuSans-117"/>
      <use x="188.037109" xlink:href="#DejaVuSans-116"/>
      <use x="227.246094" xlink:href="#DejaVuSans-104"/>
      <use x="290.625" xlink:href="#DejaVuSans-101"/>
      <use x="352.148438" xlink:href="#DejaVuSans-110"/>
      <use x="415.527344" xlink:href="#DejaVuSans-100"/>
     </g>
    </g>
   </g>
  </g>
 </g>
 <defs>
  <clipPath id="p2d44cbdcea">
   <rect height="236.76" width="341.51" x="75.37" y="15.12"/>
  </clipPath>
 </defs>
</svg>
