<?xml version="1.0" encoding="utf-8" standalone="no"?>
<!DOCTYPE svg PUBLIC "-//W3C//DTD SVG 1.1//EN"
  "http://www.w3.org/Graphics/SVG/1.1/DTD/svg11.dtd">
<svg height="271.709375pt" version="1.1" viewBox="0 0 416.300806 271.709375" width="416.300806pt" xmlns="http://www.w3.org/2000/svg" xmlns:xlink="http://www.w3.org/1999/xlink">
 <metadata>
  <rdf:RDF xmlns:cc="http://creativecommons.org/ns#" xmlns:dc="http://purl.org/dc/elements/1.1/" xmlns:rdf="http://www.w3.org/1999/02/22-rdf-syntax-ns#">
   <cc:Work>
    <dc:type rdf:resource="http://purl.org/dc/dcmitype/StillImage"/>
    <dc:date>2022-01-26T19:39:58.753188</dc:date>
    <dc:format>image/svg+xml</dc:format>
    <dc:creator>
     <cc:Agent>
      <dc:title>Matplotlib v3.4.3, https://matplotlib.org/</dc:title>
     </cc:Agent>
    </dc:creator>
   </cc:Work>
  </rdf:RDF>
 </metadata>
 <defs>
  <style type="text/css">*{stroke-linecap:butt;stroke-linejoin:round;}</style>
 </defs>
 <g id="figure_1">
  <g id="patch_1">
   <path d="M -0 271.709375 
L 416.300806 271.709375 
L 416.300806 0 
L -0 0 
z
" style="fill:none;"/>
  </g>
  <g id="axes_1">
   <g id="patch_2">
    <path d="M 67.379375 243.96 
L 395.267156 243.96 
L 395.267156 7.2 
L 67.379375 7.2 
z
" style="fill:#ffffff;"/>
   </g>
   <g id="patch_3">
    <path clip-path="url(#pfd6bfb5a7d)" d="M 375.090484 243.96 
L 380.488925 243.96 
L 380.488925 89.919393 
L 375.090484 89.919393 
z
" style="fill:#004684;"/>
   </g>
   <g id="patch_4">
    <path clip-path="url(#pfd6bfb5a7d)" d="M 368.342434 243.96 
L 373.740874 243.96 
L 373.740874 92.066876 
L 368.342434 92.066876 
z
" style="fill:#004684;"/>
   </g>
   <g id="patch_5">
    <path clip-path="url(#pfd6bfb5a7d)" d="M 361.594383 243.96 
L 366.992824 243.96 
L 366.992824 93.470999 
L 361.594383 93.470999 
z
" style="fill:#004684;"/>
   </g>
   <g id="patch_6">
    <path clip-path="url(#pfd6bfb5a7d)" d="M 354.846333 243.96 
L 360.244773 243.96 
L 360.244773 89.093438 
L 354.846333 89.093438 
z
" style="fill:#004684;"/>
   </g>
   <g id="patch_7">
    <path clip-path="url(#pfd6bfb5a7d)" d="M 348.098282 243.96 
L 353.496722 243.96 
L 353.496722 88.350078 
L 348.098282 88.350078 
z
" style="fill:#004684;"/>
   </g>
   <g id="patch_8">
    <path clip-path="url(#pfd6bfb5a7d)" d="M 341.350231 243.96 
L 346.748672 243.96 
L 346.748672 88.68046 
L 341.350231 88.68046 
z
" style="fill:#004684;"/>
   </g>
   <g id="patch_9">
    <path clip-path="url(#pfd6bfb5a7d)" d="M 334.602181 243.96 
L 340.000621 243.96 
L 340.000621 183.830476 
L 334.602181 183.830476 
z
" style="fill:#006bc8;"/>
   </g>
   <g id="patch_10">
    <path clip-path="url(#pfd6bfb5a7d)" d="M 327.85413 243.96 
L 333.25257 243.96 
L 333.25257 186.390937 
L 327.85413 186.390937 
z
" style="fill:#006bc8;"/>
   </g>
   <g id="patch_11">
    <path clip-path="url(#pfd6bfb5a7d)" d="M 321.106079 243.96 
L 326.50452 243.96 
L 326.50452 187.051701 
L 321.106079 187.051701 
z
" style="fill:#006bc8;"/>
   </g>
   <g id="patch_12">
    <path clip-path="url(#pfd6bfb5a7d)" d="M 314.358029 243.96 
L 319.756469 243.96 
L 319.756469 186.308341 
L 314.358029 186.308341 
z
" style="fill:#006bc8;"/>
   </g>
   <g id="patch_13">
    <path clip-path="url(#pfd6bfb5a7d)" d="M 307.609978 243.96 
L 313.008419 243.96 
L 313.008419 186.308341 
L 307.609978 186.308341 
z
" style="fill:#006bc8;"/>
   </g>
   <g id="patch_14">
    <path clip-path="url(#pfd6bfb5a7d)" d="M 300.861927 243.96 
L 306.260368 243.96 
L 306.260368 187.79506 
L 300.861927 187.79506 
z
" style="fill:#006bc8;"/>
   </g>
   <g id="patch_15">
    <path clip-path="url(#pfd6bfb5a7d)" d="M 294.113877 243.96 
L 299.512317 243.96 
L 299.512317 186.803914 
L 294.113877 186.803914 
z
" style="fill:#006bc8;"/>
   </g>
   <g id="patch_16">
    <path clip-path="url(#pfd6bfb5a7d)" d="M 287.365826 243.96 
L 292.764267 243.96 
L 292.764267 185.2346 
L 287.365826 185.2346 
z
" style="fill:#006bc8;"/>
   </g>
   <g id="patch_17">
    <path clip-path="url(#pfd6bfb5a7d)" d="M 280.617775 243.96 
L 286.016216 243.96 
L 286.016216 184.656431 
L 280.617775 184.656431 
z
" style="fill:#006bc8;"/>
   </g>
   <g id="patch_18">
    <path clip-path="url(#pfd6bfb5a7d)" d="M 273.869725 243.96 
L 279.268165 243.96 
L 279.268165 186.721319 
L 273.869725 186.721319 
z
" style="fill:#006bc8;"/>
   </g>
   <g id="patch_19">
    <path clip-path="url(#pfd6bfb5a7d)" d="M 267.121674 243.96 
L 272.520115 243.96 
L 272.520115 185.812768 
L 267.121674 185.812768 
z
" style="fill:#006bc8;"/>
   </g>
   <g id="patch_20">
    <path clip-path="url(#pfd6bfb5a7d)" d="M 260.373623 243.96 
L 265.772064 243.96 
L 265.772064 186.88651 
L 260.373623 186.88651 
z
" style="fill:#006bc8;"/>
   </g>
   <g id="patch_21">
    <path clip-path="url(#pfd6bfb5a7d)" d="M 253.625573 243.96 
L 259.024013 243.96 
L 259.024013 186.88651 
L 253.625573 186.88651 
z
" style="fill:#006bc8;"/>
   </g>
   <g id="patch_22">
    <path clip-path="url(#pfd6bfb5a7d)" d="M 246.877522 243.96 
L 252.275963 243.96 
L 252.275963 186.88651 
L 246.877522 186.88651 
z
" style="fill:#006bc8;"/>
   </g>
   <g id="patch_23">
    <path clip-path="url(#pfd6bfb5a7d)" d="M 240.129472 243.96 
L 245.527912 243.96 
L 245.527912 189.777352 
L 240.129472 189.777352 
z
" style="fill:#006bc8;"/>
   </g>
   <g id="patch_24">
    <path clip-path="url(#pfd6bfb5a7d)" d="M 233.381421 243.96 
L 238.779861 243.96 
L 238.779861 187.464678 
L 233.381421 187.464678 
z
" style="fill:#006bc8;"/>
   </g>
   <g id="patch_25">
    <path clip-path="url(#pfd6bfb5a7d)" d="M 226.63337 243.96 
L 232.031811 243.96 
L 232.031811 183.087117 
L 226.63337 183.087117 
z
" style="fill:#006bc8;"/>
   </g>
   <g id="patch_26">
    <path clip-path="url(#pfd6bfb5a7d)" d="M 219.88532 243.96 
L 225.28376 243.96 
L 225.28376 187.629869 
L 219.88532 187.629869 
z
" style="fill:#006bc8;"/>
   </g>
   <g id="patch_27">
    <path clip-path="url(#pfd6bfb5a7d)" d="M 213.137269 243.96 
L 218.535709 243.96 
L 218.535709 187.629869 
L 213.137269 187.629869 
z
" style="fill:#006bc8;"/>
   </g>
   <g id="patch_28">
    <path clip-path="url(#pfd6bfb5a7d)" d="M 206.389218 243.96 
L 211.787659 243.96 
L 211.787659 187.464678 
L 206.389218 187.464678 
z
" style="fill:#006bc8;"/>
   </g>
   <g id="patch_29">
    <path clip-path="url(#pfd6bfb5a7d)" d="M 199.641168 243.96 
L 205.039608 243.96 
L 205.039608 183.830476 
L 199.641168 183.830476 
z
" style="fill:#006bc8;"/>
   </g>
   <g id="patch_30">
    <path clip-path="url(#pfd6bfb5a7d)" d="M 192.893117 243.96 
L 198.291558 243.96 
L 198.291558 187.547274 
L 192.893117 187.547274 
z
" style="fill:#006bc8;"/>
   </g>
   <g id="patch_31">
    <path clip-path="url(#pfd6bfb5a7d)" d="M 186.145066 243.96 
L 191.543507 243.96 
L 191.543507 187.547274 
L 186.145066 187.547274 
z
" style="fill:#006bc8;"/>
   </g>
   <g id="patch_32">
    <path clip-path="url(#pfd6bfb5a7d)" d="M 179.397016 243.96 
L 184.795456 243.96 
L 184.795456 187.547274 
L 179.397016 187.547274 
z
" style="fill:#006bc8;"/>
   </g>
   <g id="patch_33">
    <path clip-path="url(#pfd6bfb5a7d)" d="M 172.648965 243.96 
L 178.047406 243.96 
L 178.047406 185.317195 
L 172.648965 185.317195 
z
" style="fill:#006bc8;"/>
   </g>
   <g id="patch_34">
    <path clip-path="url(#pfd6bfb5a7d)" d="M 165.900914 243.96 
L 171.299355 243.96 
L 171.299355 185.2346 
L 165.900914 185.2346 
z
" style="fill:#006bc8;"/>
   </g>
   <g id="patch_35">
    <path clip-path="url(#pfd6bfb5a7d)" d="M 159.152864 243.96 
L 164.551304 243.96 
L 164.551304 187.712465 
L 159.152864 187.712465 
z
" style="fill:#006bc8;"/>
   </g>
   <g id="patch_36">
    <path clip-path="url(#pfd6bfb5a7d)" d="M 152.404813 243.96 
L 157.803254 243.96 
L 157.803254 187.629869 
L 152.404813 187.629869 
z
" style="fill:#006bc8;"/>
   </g>
   <g id="patch_37">
    <path clip-path="url(#pfd6bfb5a7d)" d="M 145.656763 243.96 
L 151.055203 243.96 
L 151.055203 188.868802 
L 145.656763 188.868802 
z
" style="fill:#006bc8;"/>
   </g>
   <g id="patch_38">
    <path clip-path="url(#pfd6bfb5a7d)" d="M 138.908712 243.96 
L 144.307152 243.96 
L 144.307152 188.951397 
L 138.908712 188.951397 
z
" style="fill:#006bc8;"/>
   </g>
   <g id="patch_39">
    <path clip-path="url(#pfd6bfb5a7d)" d="M 132.160661 243.96 
L 137.559102 243.96 
L 137.559102 190.685903 
L 132.160661 190.685903 
z
" style="fill:#006bc8;"/>
   </g>
   <g id="patch_40">
    <path clip-path="url(#pfd6bfb5a7d)" d="M 125.412611 243.96 
L 130.811051 243.96 
L 130.811051 192.255217 
L 125.412611 192.255217 
z
" style="fill:#006bc8;"/>
   </g>
   <g id="patch_41">
    <path clip-path="url(#pfd6bfb5a7d)" d="M 118.66456 243.96 
L 124.063 243.96 
L 124.063 189.612161 
L 118.66456 189.612161 
z
" style="fill:#006bc8;"/>
   </g>
   <g id="patch_42">
    <path clip-path="url(#pfd6bfb5a7d)" d="M 111.916509 243.96 
L 117.31495 243.96 
L 117.31495 189.612161 
L 111.916509 189.612161 
z
" style="fill:#006bc8;"/>
   </g>
   <g id="patch_43">
    <path clip-path="url(#pfd6bfb5a7d)" d="M 105.168459 243.96 
L 110.566899 243.96 
L 110.566899 192.503004 
L 105.168459 192.503004 
z
" style="fill:#006bc8;"/>
   </g>
   <g id="patch_44">
    <path clip-path="url(#pfd6bfb5a7d)" d="M 98.420408 243.96 
L 103.818848 243.96 
L 103.818848 194.485296 
L 98.420408 194.485296 
z
" style="fill:#006bc8;"/>
   </g>
   <g id="patch_45">
    <path clip-path="url(#pfd6bfb5a7d)" d="M 91.672357 243.96 
L 97.070798 243.96 
L 97.070798 191.264071 
L 91.672357 191.264071 
z
" style="fill:#006bc8;"/>
   </g>
   <g id="patch_46">
    <path clip-path="url(#pfd6bfb5a7d)" d="M 84.924307 243.96 
L 90.322747 243.96 
L 90.322747 189.777352 
L 84.924307 189.777352 
z
" style="fill:#006bc8;"/>
   </g>
   <g id="patch_47">
    <path clip-path="url(#pfd6bfb5a7d)" d="M 334.602181 183.830476 
L 340.000621 183.830476 
L 340.000621 135.429513 
L 334.602181 135.429513 
z
" style="fill:#39a1fc;"/>
   </g>
   <g id="patch_48">
    <path clip-path="url(#pfd6bfb5a7d)" d="M 327.85413 186.390937 
L 333.25257 186.390937 
L 333.25257 138.485547 
L 327.85413 138.485547 
z
" style="fill:#39a1fc;"/>
   </g>
   <g id="patch_49">
    <path clip-path="url(#pfd6bfb5a7d)" d="M 321.106079 187.051701 
L 326.50452 187.051701 
L 326.50452 139.146311 
L 321.106079 139.146311 
z
" style="fill:#39a1fc;"/>
   </g>
   <g id="patch_50">
    <path clip-path="url(#pfd6bfb5a7d)" d="M 314.358029 186.308341 
L 319.756469 186.308341 
L 319.756469 137.907378 
L 314.358029 137.907378 
z
" style="fill:#39a1fc;"/>
   </g>
   <g id="patch_51">
    <path clip-path="url(#pfd6bfb5a7d)" d="M 307.609978 186.308341 
L 313.008419 186.308341 
L 313.008419 137.32921 
L 307.609978 137.32921 
z
" style="fill:#39a1fc;"/>
   </g>
   <g id="patch_52">
    <path clip-path="url(#pfd6bfb5a7d)" d="M 300.861927 187.79506 
L 306.260368 187.79506 
L 306.260368 139.394097 
L 300.861927 139.394097 
z
" style="fill:#39a1fc;"/>
   </g>
   <g id="patch_53">
    <path clip-path="url(#pfd6bfb5a7d)" d="M 294.113877 186.803914 
L 299.512317 186.803914 
L 299.512317 138.815929 
L 294.113877 138.815929 
z
" style="fill:#39a1fc;"/>
   </g>
   <g id="patch_54">
    <path clip-path="url(#pfd6bfb5a7d)" d="M 287.365826 185.2346 
L 292.764267 185.2346 
L 292.764267 136.668446 
L 287.365826 136.668446 
z
" style="fill:#39a1fc;"/>
   </g>
   <g id="patch_55">
    <path clip-path="url(#pfd6bfb5a7d)" d="M 280.617775 184.656431 
L 286.016216 184.656431 
L 286.016216 136.172873 
L 280.617775 136.172873 
z
" style="fill:#39a1fc;"/>
   </g>
   <g id="patch_56">
    <path clip-path="url(#pfd6bfb5a7d)" d="M 273.869725 186.721319 
L 279.268165 186.721319 
L 279.268165 139.88967 
L 273.869725 139.88967 
z
" style="fill:#39a1fc;"/>
   </g>
   <g id="patch_57">
    <path clip-path="url(#pfd6bfb5a7d)" d="M 267.121674 185.812768 
L 272.520115 185.812768 
L 272.520115 139.559288 
L 267.121674 139.559288 
z
" style="fill:#39a1fc;"/>
   </g>
   <g id="patch_58">
    <path clip-path="url(#pfd6bfb5a7d)" d="M 260.373623 186.88651 
L 265.772064 186.88651 
L 265.772064 140.63303 
L 260.373623 140.63303 
z
" style="fill:#39a1fc;"/>
   </g>
   <g id="patch_59">
    <path clip-path="url(#pfd6bfb5a7d)" d="M 253.625573 186.88651 
L 259.024013 186.88651 
L 259.024013 140.054861 
L 253.625573 140.054861 
z
" style="fill:#39a1fc;"/>
   </g>
   <g id="patch_60">
    <path clip-path="url(#pfd6bfb5a7d)" d="M 246.877522 186.88651 
L 252.275963 186.88651 
L 252.275963 141.871962 
L 246.877522 141.871962 
z
" style="fill:#39a1fc;"/>
   </g>
   <g id="patch_61">
    <path clip-path="url(#pfd6bfb5a7d)" d="M 240.129472 189.777352 
L 245.527912 189.777352 
L 245.527912 145.423569 
L 240.129472 145.423569 
z
" style="fill:#39a1fc;"/>
   </g>
   <g id="patch_62">
    <path clip-path="url(#pfd6bfb5a7d)" d="M 233.381421 187.464678 
L 238.779861 187.464678 
L 238.779861 143.110895 
L 233.381421 143.110895 
z
" style="fill:#39a1fc;"/>
   </g>
   <g id="patch_63">
    <path clip-path="url(#pfd6bfb5a7d)" d="M 226.63337 183.087117 
L 232.031811 183.087117 
L 232.031811 135.016536 
L 226.63337 135.016536 
z
" style="fill:#39a1fc;"/>
   </g>
   <g id="patch_64">
    <path clip-path="url(#pfd6bfb5a7d)" d="M 219.88532 187.629869 
L 225.28376 187.629869 
L 225.28376 139.559288 
L 219.88532 139.559288 
z
" style="fill:#39a1fc;"/>
   </g>
   <g id="patch_65">
    <path clip-path="url(#pfd6bfb5a7d)" d="M 213.137269 187.629869 
L 218.535709 187.629869 
L 218.535709 139.394097 
L 213.137269 139.394097 
z
" style="fill:#39a1fc;"/>
   </g>
   <g id="patch_66">
    <path clip-path="url(#pfd6bfb5a7d)" d="M 206.389218 187.464678 
L 211.787659 187.464678 
L 211.787659 139.476693 
L 206.389218 139.476693 
z
" style="fill:#39a1fc;"/>
   </g>
   <g id="patch_67">
    <path clip-path="url(#pfd6bfb5a7d)" d="M 199.641168 183.830476 
L 205.039608 183.830476 
L 205.039608 135.181727 
L 199.641168 135.181727 
z
" style="fill:#39a1fc;"/>
   </g>
   <g id="patch_68">
    <path clip-path="url(#pfd6bfb5a7d)" d="M 192.893117 187.547274 
L 198.291558 187.547274 
L 198.291558 140.467839 
L 192.893117 140.467839 
z
" style="fill:#39a1fc;"/>
   </g>
   <g id="patch_69">
    <path clip-path="url(#pfd6bfb5a7d)" d="M 186.145066 187.547274 
L 191.543507 187.547274 
L 191.543507 141.954558 
L 186.145066 141.954558 
z
" style="fill:#39a1fc;"/>
   </g>
   <g id="patch_70">
    <path clip-path="url(#pfd6bfb5a7d)" d="M 179.397016 187.547274 
L 184.795456 187.547274 
L 184.795456 141.954558 
L 179.397016 141.954558 
z
" style="fill:#39a1fc;"/>
   </g>
   <g id="patch_71">
    <path clip-path="url(#pfd6bfb5a7d)" d="M 172.648965 185.317195 
L 178.047406 185.317195 
L 178.047406 139.724479 
L 172.648965 139.724479 
z
" style="fill:#39a1fc;"/>
   </g>
   <g id="patch_72">
    <path clip-path="url(#pfd6bfb5a7d)" d="M 165.900914 185.2346 
L 171.299355 185.2346 
L 171.299355 139.641884 
L 165.900914 139.641884 
z
" style="fill:#39a1fc;"/>
   </g>
   <g id="patch_73">
    <path clip-path="url(#pfd6bfb5a7d)" d="M 159.152864 187.712465 
L 164.551304 187.712465 
L 164.551304 142.697917 
L 159.152864 142.697917 
z
" style="fill:#39a1fc;"/>
   </g>
   <g id="patch_74">
    <path clip-path="url(#pfd6bfb5a7d)" d="M 152.404813 187.629869 
L 157.803254 187.629869 
L 157.803254 142.037153 
L 152.404813 142.037153 
z
" style="fill:#39a1fc;"/>
   </g>
   <g id="patch_75">
    <path clip-path="url(#pfd6bfb5a7d)" d="M 145.656763 188.868802 
L 151.055203 188.868802 
L 151.055203 143.276086 
L 145.656763 143.276086 
z
" style="fill:#39a1fc;"/>
   </g>
   <g id="patch_76">
    <path clip-path="url(#pfd6bfb5a7d)" d="M 138.908712 188.951397 
L 144.307152 188.951397 
L 144.307152 143.358681 
L 138.908712 143.358681 
z
" style="fill:#39a1fc;"/>
   </g>
   <g id="patch_77">
    <path clip-path="url(#pfd6bfb5a7d)" d="M 132.160661 190.685903 
L 137.559102 190.685903 
L 137.559102 144.102041 
L 132.160661 144.102041 
z
" style="fill:#39a1fc;"/>
   </g>
   <g id="patch_78">
    <path clip-path="url(#pfd6bfb5a7d)" d="M 125.412611 192.255217 
L 130.811051 192.255217 
L 130.811051 145.671355 
L 125.412611 145.671355 
z
" style="fill:#39a1fc;"/>
   </g>
   <g id="patch_79">
    <path clip-path="url(#pfd6bfb5a7d)" d="M 118.66456 189.612161 
L 124.063 189.612161 
L 124.063 143.028299 
L 118.66456 143.028299 
z
" style="fill:#39a1fc;"/>
   </g>
   <g id="patch_80">
    <path clip-path="url(#pfd6bfb5a7d)" d="M 111.916509 189.612161 
L 117.31495 189.612161 
L 117.31495 143.028299 
L 111.916509 143.028299 
z
" style="fill:#39a1fc;"/>
   </g>
   <g id="patch_81">
    <path clip-path="url(#pfd6bfb5a7d)" d="M 105.168459 192.503004 
L 110.566899 192.503004 
L 110.566899 145.919142 
L 105.168459 145.919142 
z
" style="fill:#39a1fc;"/>
   </g>
   <g id="patch_82">
    <path clip-path="url(#pfd6bfb5a7d)" d="M 98.420408 194.485296 
L 103.818848 194.485296 
L 103.818848 151.370445 
L 98.420408 151.370445 
z
" style="fill:#39a1fc;"/>
   </g>
   <g id="patch_83">
    <path clip-path="url(#pfd6bfb5a7d)" d="M 91.672357 191.264071 
L 97.070798 191.264071 
L 97.070798 146.166928 
L 91.672357 146.166928 
z
" style="fill:#39a1fc;"/>
   </g>
   <g id="patch_84">
    <path clip-path="url(#pfd6bfb5a7d)" d="M 84.924307 189.777352 
L 90.322747 189.777352 
L 90.322747 142.367535 
L 84.924307 142.367535 
z
" style="fill:#39a1fc;"/>
   </g>
   <g id="patch_85">
    <path clip-path="url(#pfd6bfb5a7d)" d="M 334.602181 135.429513 
L 340.000621 135.429513 
L 340.000621 86.532977 
L 334.602181 86.532977 
z
" style="fill:#71bcfe;"/>
   </g>
   <g id="patch_86">
    <path clip-path="url(#pfd6bfb5a7d)" d="M 327.85413 138.485547 
L 333.25257 138.485547 
L 333.25257 90.662752 
L 327.85413 90.662752 
z
" style="fill:#71bcfe;"/>
   </g>
   <g id="patch_87">
    <path clip-path="url(#pfd6bfb5a7d)" d="M 321.106079 139.146311 
L 326.50452 139.146311 
L 326.50452 91.653898 
L 321.106079 91.653898 
z
" style="fill:#71bcfe;"/>
   </g>
   <g id="patch_88">
    <path clip-path="url(#pfd6bfb5a7d)" d="M 314.358029 137.907378 
L 319.756469 137.907378 
L 319.756469 90.497561 
L 314.358029 90.497561 
z
" style="fill:#71bcfe;"/>
   </g>
   <g id="patch_89">
    <path clip-path="url(#pfd6bfb5a7d)" d="M 307.609978 137.32921 
L 313.008419 137.32921 
L 313.008419 88.845651 
L 307.609978 88.845651 
z
" style="fill:#71bcfe;"/>
   </g>
   <g id="patch_90">
    <path clip-path="url(#pfd6bfb5a7d)" d="M 300.861927 139.394097 
L 306.260368 139.394097 
L 306.260368 92.066876 
L 300.861927 92.066876 
z
" style="fill:#71bcfe;"/>
   </g>
   <g id="patch_91">
    <path clip-path="url(#pfd6bfb5a7d)" d="M 294.113877 138.815929 
L 299.512317 138.815929 
L 299.512317 91.571303 
L 294.113877 91.571303 
z
" style="fill:#71bcfe;"/>
   </g>
   <g id="patch_92">
    <path clip-path="url(#pfd6bfb5a7d)" d="M 287.365826 136.668446 
L 292.764267 136.668446 
L 292.764267 89.258629 
L 287.365826 89.258629 
z
" style="fill:#71bcfe;"/>
   </g>
   <g id="patch_93">
    <path clip-path="url(#pfd6bfb5a7d)" d="M 280.617775 136.172873 
L 286.016216 136.172873 
L 286.016216 87.689314 
L 280.617775 87.689314 
z
" style="fill:#71bcfe;"/>
   </g>
   <g id="patch_94">
    <path clip-path="url(#pfd6bfb5a7d)" d="M 273.869725 139.88967 
L 279.268165 139.88967 
L 279.268165 92.314662 
L 273.869725 92.314662 
z
" style="fill:#71bcfe;"/>
   </g>
   <g id="patch_95">
    <path clip-path="url(#pfd6bfb5a7d)" d="M 267.121674 139.559288 
L 272.520115 139.559288 
L 272.520115 93.801381 
L 267.121674 93.801381 
z
" style="fill:#71bcfe;"/>
   </g>
   <g id="patch_96">
    <path clip-path="url(#pfd6bfb5a7d)" d="M 260.373623 140.63303 
L 265.772064 140.63303 
L 265.772064 94.544741 
L 260.373623 94.544741 
z
" style="fill:#71bcfe;"/>
   </g>
   <g id="patch_97">
    <path clip-path="url(#pfd6bfb5a7d)" d="M 253.625573 140.054861 
L 259.024013 140.054861 
L 259.024013 92.645044 
L 253.625573 92.645044 
z
" style="fill:#71bcfe;"/>
   </g>
   <g id="patch_98">
    <path clip-path="url(#pfd6bfb5a7d)" d="M 246.877522 141.871962 
L 252.275963 141.871962 
L 252.275963 95.370696 
L 246.877522 95.370696 
z
" style="fill:#71bcfe;"/>
   </g>
   <g id="patch_99">
    <path clip-path="url(#pfd6bfb5a7d)" d="M 240.129472 145.423569 
L 245.527912 145.423569 
L 245.527912 100.98719 
L 240.129472 100.98719 
z
" style="fill:#71bcfe;"/>
   </g>
   <g id="patch_100">
    <path clip-path="url(#pfd6bfb5a7d)" d="M 233.381421 143.110895 
L 238.779861 143.110895 
L 238.779861 98.757111 
L 233.381421 98.757111 
z
" style="fill:#71bcfe;"/>
   </g>
   <g id="patch_101">
    <path clip-path="url(#pfd6bfb5a7d)" d="M 226.63337 135.016536 
L 232.031811 135.016536 
L 232.031811 89.919393 
L 226.63337 89.919393 
z
" style="fill:#71bcfe;"/>
   </g>
   <g id="patch_102">
    <path clip-path="url(#pfd6bfb5a7d)" d="M 219.88532 139.559288 
L 225.28376 139.559288 
L 225.28376 93.553595 
L 219.88532 93.553595 
z
" style="fill:#71bcfe;"/>
   </g>
   <g id="patch_103">
    <path clip-path="url(#pfd6bfb5a7d)" d="M 213.137269 139.394097 
L 218.535709 139.394097 
L 218.535709 93.223213 
L 213.137269 93.223213 
z
" style="fill:#71bcfe;"/>
   </g>
   <g id="patch_104">
    <path clip-path="url(#pfd6bfb5a7d)" d="M 206.389218 139.476693 
L 211.787659 139.476693 
L 211.787659 90.084584 
L 206.389218 90.084584 
z
" style="fill:#71bcfe;"/>
   </g>
   <g id="patch_105">
    <path clip-path="url(#pfd6bfb5a7d)" d="M 199.641168 135.181727 
L 205.039608 135.181727 
L 205.039608 86.12 
L 199.641168 86.12 
z
" style="fill:#71bcfe;"/>
   </g>
   <g id="patch_106">
    <path clip-path="url(#pfd6bfb5a7d)" d="M 192.893117 140.467839 
L 198.291558 140.467839 
L 198.291558 91.158325 
L 192.893117 91.158325 
z
" style="fill:#71bcfe;"/>
   </g>
   <g id="patch_107">
    <path clip-path="url(#pfd6bfb5a7d)" d="M 186.145066 141.954558 
L 191.543507 141.954558 
L 191.543507 90.580157 
L 186.145066 90.580157 
z
" style="fill:#71bcfe;"/>
   </g>
   <g id="patch_108">
    <path clip-path="url(#pfd6bfb5a7d)" d="M 179.397016 141.954558 
L 184.795456 141.954558 
L 184.795456 89.919393 
L 179.397016 89.919393 
z
" style="fill:#71bcfe;"/>
   </g>
   <g id="patch_109">
    <path clip-path="url(#pfd6bfb5a7d)" d="M 172.648965 139.724479 
L 178.047406 139.724479 
L 178.047406 88.350078 
L 172.648965 88.350078 
z
" style="fill:#71bcfe;"/>
   </g>
   <g id="patch_110">
    <path clip-path="url(#pfd6bfb5a7d)" d="M 165.900914 139.641884 
L 171.299355 139.641884 
L 171.299355 89.341224 
L 165.900914 89.341224 
z
" style="fill:#71bcfe;"/>
   </g>
   <g id="patch_111">
    <path clip-path="url(#pfd6bfb5a7d)" d="M 159.152864 142.697917 
L 164.551304 142.697917 
L 164.551304 91.653898 
L 159.152864 91.653898 
z
" style="fill:#71bcfe;"/>
   </g>
   <g id="patch_112">
    <path clip-path="url(#pfd6bfb5a7d)" d="M 152.404813 142.037153 
L 157.803254 142.037153 
L 157.803254 90.414966 
L 152.404813 90.414966 
z
" style="fill:#71bcfe;"/>
   </g>
   <g id="patch_113">
    <path clip-path="url(#pfd6bfb5a7d)" d="M 145.656763 143.276086 
L 151.055203 143.276086 
L 151.055203 90.497561 
L 145.656763 90.497561 
z
" style="fill:#71bcfe;"/>
   </g>
   <g id="patch_114">
    <path clip-path="url(#pfd6bfb5a7d)" d="M 138.908712 143.358681 
L 144.307152 143.358681 
L 144.307152 91.819089 
L 138.908712 91.819089 
z
" style="fill:#71bcfe;"/>
   </g>
   <g id="patch_115">
    <path clip-path="url(#pfd6bfb5a7d)" d="M 132.160661 144.102041 
L 137.559102 144.102041 
L 137.559102 92.892831 
L 132.160661 92.892831 
z
" style="fill:#71bcfe;"/>
   </g>
   <g id="patch_116">
    <path clip-path="url(#pfd6bfb5a7d)" d="M 125.412611 145.671355 
L 130.811051 145.671355 
L 130.811051 94.131763 
L 125.412611 94.131763 
z
" style="fill:#71bcfe;"/>
   </g>
   <g id="patch_117">
    <path clip-path="url(#pfd6bfb5a7d)" d="M 118.66456 143.028299 
L 124.063 143.028299 
L 124.063 90.745348 
L 118.66456 90.745348 
z
" style="fill:#71bcfe;"/>
   </g>
   <g id="patch_118">
    <path clip-path="url(#pfd6bfb5a7d)" d="M 111.916509 143.028299 
L 117.31495 143.028299 
L 117.31495 90.249775 
L 111.916509 90.249775 
z
" style="fill:#71bcfe;"/>
   </g>
   <g id="patch_119">
    <path clip-path="url(#pfd6bfb5a7d)" d="M 105.168459 145.919142 
L 110.566899 145.919142 
L 110.566899 92.810235 
L 105.168459 92.810235 
z
" style="fill:#71bcfe;"/>
   </g>
   <g id="patch_120">
    <path clip-path="url(#pfd6bfb5a7d)" d="M 98.420408 151.370445 
L 103.818848 151.370445 
L 103.818848 98.178943 
L 98.420408 98.178943 
z
" style="fill:#71bcfe;"/>
   </g>
   <g id="patch_121">
    <path clip-path="url(#pfd6bfb5a7d)" d="M 91.672357 146.166928 
L 97.070798 146.166928 
L 97.070798 90.745348 
L 91.672357 90.745348 
z
" style="fill:#71bcfe;"/>
   </g>
   <g id="patch_122">
    <path clip-path="url(#pfd6bfb5a7d)" d="M 84.924307 142.367535 
L 90.322747 142.367535 
L 90.322747 86.945955 
L 84.924307 86.945955 
z
" style="fill:#71bcfe;"/>
   </g>
   <g id="matplotlib.axis_1">
    <g id="xtick_1">
     <g id="line2d_1">
      <defs>
       <path d="M 0 0 
L 0 3.5 
" id="m317e25a864" style="stroke:#000000;stroke-width:0.8;"/>
      </defs>
      <g>
       <use style="stroke:#000000;stroke-width:0.8;" x="67.379375" xlink:href="#m317e25a864" y="243.96"/>
      </g>
     </g>
     <g id="text_1">
      <!-- 2010 -->
      <g transform="translate(49.564375 261.597812)scale(0.14 -0.14)">
       <defs>
        <path d="M 1228 531 
L 3431 531 
L 3431 0 
L 469 0 
L 469 531 
Q 828 903 1448 1529 
Q 2069 2156 2228 2338 
Q 2531 2678 2651 2914 
Q 2772 3150 2772 3378 
Q 2772 3750 2511 3984 
Q 2250 4219 1831 4219 
Q 1534 4219 1204 4116 
Q 875 4013 500 3803 
L 500 4441 
Q 881 4594 1212 4672 
Q 1544 4750 1819 4750 
Q 2544 4750 2975 4387 
Q 3406 4025 3406 3419 
Q 3406 3131 3298 2873 
Q 3191 2616 2906 2266 
Q 2828 2175 2409 1742 
Q 1991 1309 1228 531 
z
" id="DejaVuSans-32" transform="scale(0.015625)"/>
        <path d="M 2034 4250 
Q 1547 4250 1301 3770 
Q 1056 3291 1056 2328 
Q 1056 1369 1301 889 
Q 1547 409 2034 409 
Q 2525 409 2770 889 
Q 3016 1369 3016 2328 
Q 3016 3291 2770 3770 
Q 2525 4250 2034 4250 
z
M 2034 4750 
Q 2819 4750 3233 4129 
Q 3647 3509 3647 2328 
Q 3647 1150 3233 529 
Q 2819 -91 2034 -91 
Q 1250 -91 836 529 
Q 422 1150 422 2328 
Q 422 3509 836 4129 
Q 1250 4750 2034 4750 
z
" id="DejaVuSans-30" transform="scale(0.015625)"/>
        <path d="M 794 531 
L 1825 531 
L 1825 4091 
L 703 3866 
L 703 4441 
L 1819 4666 
L 2450 4666 
L 2450 531 
L 3481 531 
L 3481 0 
L 794 0 
L 794 531 
z
" id="DejaVuSans-31" transform="scale(0.015625)"/>
       </defs>
       <use xlink:href="#DejaVuSans-32"/>
       <use x="63.623047" xlink:href="#DejaVuSans-30"/>
       <use x="127.246094" xlink:href="#DejaVuSans-31"/>
       <use x="190.869141" xlink:href="#DejaVuSans-30"/>
      </g>
     </g>
    </g>
    <g id="xtick_2">
     <g id="line2d_2">
      <g>
       <use style="stroke:#000000;stroke-width:0.8;" x="121.36378" xlink:href="#m317e25a864" y="243.96"/>
      </g>
     </g>
     <g id="text_2">
      <!-- 2012 -->
      <g transform="translate(103.54878 261.597812)scale(0.14 -0.14)">
       <use xlink:href="#DejaVuSans-32"/>
       <use x="63.623047" xlink:href="#DejaVuSans-30"/>
       <use x="127.246094" xlink:href="#DejaVuSans-31"/>
       <use x="190.869141" xlink:href="#DejaVuSans-32"/>
      </g>
     </g>
    </g>
    <g id="xtick_3">
     <g id="line2d_3">
      <g>
       <use style="stroke:#000000;stroke-width:0.8;" x="175.348185" xlink:href="#m317e25a864" y="243.96"/>
      </g>
     </g>
     <g id="text_3">
      <!-- 2014 -->
      <g transform="translate(157.533185 261.597812)scale(0.14 -0.14)">
       <defs>
        <path d="M 2419 4116 
L 825 1625 
L 2419 1625 
L 2419 4116 
z
M 2253 4666 
L 3047 4666 
L 3047 1625 
L 3713 1625 
L 3713 1100 
L 3047 1100 
L 3047 0 
L 2419 0 
L 2419 1100 
L 313 1100 
L 313 1709 
L 2253 4666 
z
" id="DejaVuSans-34" transform="scale(0.015625)"/>
       </defs>
       <use xlink:href="#DejaVuSans-32"/>
       <use x="63.623047" xlink:href="#DejaVuSans-30"/>
       <use x="127.246094" xlink:href="#DejaVuSans-31"/>
       <use x="190.869141" xlink:href="#DejaVuSans-34"/>
      </g>
     </g>
    </g>
    <g id="xtick_4">
     <g id="line2d_4">
      <g>
       <use style="stroke:#000000;stroke-width:0.8;" x="229.332591" xlink:href="#m317e25a864" y="243.96"/>
      </g>
     </g>
     <g id="text_4">
      <!-- 2016 -->
      <g transform="translate(211.517591 261.597812)scale(0.14 -0.14)">
       <defs>
        <path d="M 2113 2584 
Q 1688 2584 1439 2293 
Q 1191 2003 1191 1497 
Q 1191 994 1439 701 
Q 1688 409 2113 409 
Q 2538 409 2786 701 
Q 3034 994 3034 1497 
Q 3034 2003 2786 2293 
Q 2538 2584 2113 2584 
z
M 3366 4563 
L 3366 3988 
Q 3128 4100 2886 4159 
Q 2644 4219 2406 4219 
Q 1781 4219 1451 3797 
Q 1122 3375 1075 2522 
Q 1259 2794 1537 2939 
Q 1816 3084 2150 3084 
Q 2853 3084 3261 2657 
Q 3669 2231 3669 1497 
Q 3669 778 3244 343 
Q 2819 -91 2113 -91 
Q 1303 -91 875 529 
Q 447 1150 447 2328 
Q 447 3434 972 4092 
Q 1497 4750 2381 4750 
Q 2619 4750 2861 4703 
Q 3103 4656 3366 4563 
z
" id="DejaVuSans-36" transform="scale(0.015625)"/>
       </defs>
       <use xlink:href="#DejaVuSans-32"/>
       <use x="63.623047" xlink:href="#DejaVuSans-30"/>
       <use x="127.246094" xlink:href="#DejaVuSans-31"/>
       <use x="190.869141" xlink:href="#DejaVuSans-36"/>
      </g>
     </g>
    </g>
    <g id="xtick_5">
     <g id="line2d_5">
      <g>
       <use style="stroke:#000000;stroke-width:0.8;" x="283.316996" xlink:href="#m317e25a864" y="243.96"/>
      </g>
     </g>
     <g id="text_5">
      <!-- 2018 -->
      <g transform="translate(265.501996 261.597812)scale(0.14 -0.14)">
       <defs>
        <path d="M 2034 2216 
Q 1584 2216 1326 1975 
Q 1069 1734 1069 1313 
Q 1069 891 1326 650 
Q 1584 409 2034 409 
Q 2484 409 2743 651 
Q 3003 894 3003 1313 
Q 3003 1734 2745 1975 
Q 2488 2216 2034 2216 
z
M 1403 2484 
Q 997 2584 770 2862 
Q 544 3141 544 3541 
Q 544 4100 942 4425 
Q 1341 4750 2034 4750 
Q 2731 4750 3128 4425 
Q 3525 4100 3525 3541 
Q 3525 3141 3298 2862 
Q 3072 2584 2669 2484 
Q 3125 2378 3379 2068 
Q 3634 1759 3634 1313 
Q 3634 634 3220 271 
Q 2806 -91 2034 -91 
Q 1263 -91 848 271 
Q 434 634 434 1313 
Q 434 1759 690 2068 
Q 947 2378 1403 2484 
z
M 1172 3481 
Q 1172 3119 1398 2916 
Q 1625 2713 2034 2713 
Q 2441 2713 2670 2916 
Q 2900 3119 2900 3481 
Q 2900 3844 2670 4047 
Q 2441 4250 2034 4250 
Q 1625 4250 1398 4047 
Q 1172 3844 1172 3481 
z
" id="DejaVuSans-38" transform="scale(0.015625)"/>
       </defs>
       <use xlink:href="#DejaVuSans-32"/>
       <use x="63.623047" xlink:href="#DejaVuSans-30"/>
       <use x="127.246094" xlink:href="#DejaVuSans-31"/>
       <use x="190.869141" xlink:href="#DejaVuSans-38"/>
      </g>
     </g>
    </g>
    <g id="xtick_6">
     <g id="line2d_6">
      <g>
       <use style="stroke:#000000;stroke-width:0.8;" x="337.301401" xlink:href="#m317e25a864" y="243.96"/>
      </g>
     </g>
     <g id="text_6">
      <!-- 2020 -->
      <g transform="translate(319.486401 261.597812)scale(0.14 -0.14)">
       <use xlink:href="#DejaVuSans-32"/>
       <use x="63.623047" xlink:href="#DejaVuSans-30"/>
       <use x="127.246094" xlink:href="#DejaVuSans-32"/>
       <use x="190.869141" xlink:href="#DejaVuSans-30"/>
      </g>
     </g>
    </g>
    <g id="xtick_7">
     <g id="line2d_7">
      <g>
       <use style="stroke:#000000;stroke-width:0.8;" x="391.285806" xlink:href="#m317e25a864" y="243.96"/>
      </g>
     </g>
     <g id="text_7">
      <!-- 2022 -->
      <g transform="translate(373.470806 261.597812)scale(0.14 -0.14)">
       <use xlink:href="#DejaVuSans-32"/>
       <use x="63.623047" xlink:href="#DejaVuSans-30"/>
       <use x="127.246094" xlink:href="#DejaVuSans-32"/>
       <use x="190.869141" xlink:href="#DejaVuSans-32"/>
      </g>
     </g>
    </g>
   </g>
   <g id="matplotlib.axis_2">
    <g id="ytick_1">
     <g id="line2d_8">
      <defs>
       <path d="M 0 0 
L -3.5 0 
" id="m6b24986743" style="stroke:#000000;stroke-width:0.8;"/>
      </defs>
      <g>
       <use style="stroke:#000000;stroke-width:0.8;" x="67.379375" xlink:href="#m6b24986743" y="243.96"/>
      </g>
     </g>
     <g id="text_8">
      <!-- 0 -->
      <g transform="translate(51.471875 249.278906)scale(0.14 -0.14)">
       <use xlink:href="#DejaVuSans-30"/>
      </g>
     </g>
    </g>
    <g id="ytick_2">
     <g id="line2d_9">
      <g>
       <use style="stroke:#000000;stroke-width:0.8;" x="67.379375" xlink:href="#m6b24986743" y="202.66225"/>
      </g>
     </g>
     <g id="text_9">
      <!-- 500 -->
      <g transform="translate(33.656875 207.981156)scale(0.14 -0.14)">
       <defs>
        <path d="M 691 4666 
L 3169 4666 
L 3169 4134 
L 1269 4134 
L 1269 2991 
Q 1406 3038 1543 3061 
Q 1681 3084 1819 3084 
Q 2600 3084 3056 2656 
Q 3513 2228 3513 1497 
Q 3513 744 3044 326 
Q 2575 -91 1722 -91 
Q 1428 -91 1123 -41 
Q 819 9 494 109 
L 494 744 
Q 775 591 1075 516 
Q 1375 441 1709 441 
Q 2250 441 2565 725 
Q 2881 1009 2881 1497 
Q 2881 1984 2565 2268 
Q 2250 2553 1709 2553 
Q 1456 2553 1204 2497 
Q 953 2441 691 2322 
L 691 4666 
z
" id="DejaVuSans-35" transform="scale(0.015625)"/>
       </defs>
       <use xlink:href="#DejaVuSans-35"/>
       <use x="63.623047" xlink:href="#DejaVuSans-30"/>
       <use x="127.246094" xlink:href="#DejaVuSans-30"/>
      </g>
     </g>
    </g>
    <g id="ytick_3">
     <g id="line2d_10">
      <g>
       <use style="stroke:#000000;stroke-width:0.8;" x="67.379375" xlink:href="#m6b24986743" y="161.3645"/>
      </g>
     </g>
     <g id="text_10">
      <!-- 1000 -->
      <g transform="translate(24.749375 166.683407)scale(0.14 -0.14)">
       <use xlink:href="#DejaVuSans-31"/>
       <use x="63.623047" xlink:href="#DejaVuSans-30"/>
       <use x="127.246094" xlink:href="#DejaVuSans-30"/>
       <use x="190.869141" xlink:href="#DejaVuSans-30"/>
      </g>
     </g>
    </g>
    <g id="ytick_4">
     <g id="line2d_11">
      <g>
       <use style="stroke:#000000;stroke-width:0.8;" x="67.379375" xlink:href="#m6b24986743" y="120.06675"/>
      </g>
     </g>
     <g id="text_11">
      <!-- 1500 -->
      <g transform="translate(24.749375 125.385657)scale(0.14 -0.14)">
       <use xlink:href="#DejaVuSans-31"/>
       <use x="63.623047" xlink:href="#DejaVuSans-35"/>
       <use x="127.246094" xlink:href="#DejaVuSans-30"/>
       <use x="190.869141" xlink:href="#DejaVuSans-30"/>
      </g>
     </g>
    </g>
    <g id="ytick_5">
     <g id="line2d_12">
      <g>
       <use style="stroke:#000000;stroke-width:0.8;" x="67.379375" xlink:href="#m6b24986743" y="78.769001"/>
      </g>
     </g>
     <g id="text_12">
      <!-- 2000 -->
      <g transform="translate(24.749375 84.087907)scale(0.14 -0.14)">
       <use xlink:href="#DejaVuSans-32"/>
       <use x="63.623047" xlink:href="#DejaVuSans-30"/>
       <use x="127.246094" xlink:href="#DejaVuSans-30"/>
       <use x="190.869141" xlink:href="#DejaVuSans-30"/>
      </g>
     </g>
    </g>
    <g id="ytick_6">
     <g id="line2d_13">
      <g>
       <use style="stroke:#000000;stroke-width:0.8;" x="67.379375" xlink:href="#m6b24986743" y="37.471251"/>
      </g>
     </g>
     <g id="text_13">
      <!-- 2500 -->
      <g transform="translate(24.749375 42.790157)scale(0.14 -0.14)">
       <use xlink:href="#DejaVuSans-32"/>
       <use x="63.623047" xlink:href="#DejaVuSans-35"/>
       <use x="127.246094" xlink:href="#DejaVuSans-30"/>
       <use x="190.869141" xlink:href="#DejaVuSans-30"/>
      </g>
     </g>
    </g>
    <g id="text_14">
     <!-- Total # of Available Beds -->
     <g transform="translate(17.837813 212.324219)rotate(-90)scale(0.14 -0.14)">
      <defs>
       <path d="M -19 4666 
L 3928 4666 
L 3928 4134 
L 2272 4134 
L 2272 0 
L 1638 0 
L 1638 4134 
L -19 4134 
L -19 4666 
z
" id="DejaVuSans-54" transform="scale(0.015625)"/>
       <path d="M 1959 3097 
Q 1497 3097 1228 2736 
Q 959 2375 959 1747 
Q 959 1119 1226 758 
Q 1494 397 1959 397 
Q 2419 397 2687 759 
Q 2956 1122 2956 1747 
Q 2956 2369 2687 2733 
Q 2419 3097 1959 3097 
z
M 1959 3584 
Q 2709 3584 3137 3096 
Q 3566 2609 3566 1747 
Q 3566 888 3137 398 
Q 2709 -91 1959 -91 
Q 1206 -91 779 398 
Q 353 888 353 1747 
Q 353 2609 779 3096 
Q 1206 3584 1959 3584 
z
" id="DejaVuSans-6f" transform="scale(0.015625)"/>
       <path d="M 1172 4494 
L 1172 3500 
L 2356 3500 
L 2356 3053 
L 1172 3053 
L 1172 1153 
Q 1172 725 1289 603 
Q 1406 481 1766 481 
L 2356 481 
L 2356 0 
L 1766 0 
Q 1100 0 847 248 
Q 594 497 594 1153 
L 594 3053 
L 172 3053 
L 172 3500 
L 594 3500 
L 594 4494 
L 1172 4494 
z
" id="DejaVuSans-74" transform="scale(0.015625)"/>
       <path d="M 2194 1759 
Q 1497 1759 1228 1600 
Q 959 1441 959 1056 
Q 959 750 1161 570 
Q 1363 391 1709 391 
Q 2188 391 2477 730 
Q 2766 1069 2766 1631 
L 2766 1759 
L 2194 1759 
z
M 3341 1997 
L 3341 0 
L 2766 0 
L 2766 531 
Q 2569 213 2275 61 
Q 1981 -91 1556 -91 
Q 1019 -91 701 211 
Q 384 513 384 1019 
Q 384 1609 779 1909 
Q 1175 2209 1959 2209 
L 2766 2209 
L 2766 2266 
Q 2766 2663 2505 2880 
Q 2244 3097 1772 3097 
Q 1472 3097 1187 3025 
Q 903 2953 641 2809 
L 641 3341 
Q 956 3463 1253 3523 
Q 1550 3584 1831 3584 
Q 2591 3584 2966 3190 
Q 3341 2797 3341 1997 
z
" id="DejaVuSans-61" transform="scale(0.015625)"/>
       <path d="M 603 4863 
L 1178 4863 
L 1178 0 
L 603 0 
L 603 4863 
z
" id="DejaVuSans-6c" transform="scale(0.015625)"/>
       <path id="DejaVuSans-20" transform="scale(0.015625)"/>
       <path d="M 3272 2816 
L 2363 2816 
L 2100 1772 
L 3016 1772 
L 3272 2816 
z
M 2803 4594 
L 2478 3297 
L 3391 3297 
L 3719 4594 
L 4219 4594 
L 3897 3297 
L 4872 3297 
L 4872 2816 
L 3775 2816 
L 3519 1772 
L 4513 1772 
L 4513 1294 
L 3397 1294 
L 3072 0 
L 2572 0 
L 2894 1294 
L 1978 1294 
L 1656 0 
L 1153 0 
L 1478 1294 
L 494 1294 
L 494 1772 
L 1594 1772 
L 1856 2816 
L 850 2816 
L 850 3297 
L 1978 3297 
L 2297 4594 
L 2803 4594 
z
" id="DejaVuSans-23" transform="scale(0.015625)"/>
       <path d="M 2375 4863 
L 2375 4384 
L 1825 4384 
Q 1516 4384 1395 4259 
Q 1275 4134 1275 3809 
L 1275 3500 
L 2222 3500 
L 2222 3053 
L 1275 3053 
L 1275 0 
L 697 0 
L 697 3053 
L 147 3053 
L 147 3500 
L 697 3500 
L 697 3744 
Q 697 4328 969 4595 
Q 1241 4863 1831 4863 
L 2375 4863 
z
" id="DejaVuSans-66" transform="scale(0.015625)"/>
       <path d="M 2188 4044 
L 1331 1722 
L 3047 1722 
L 2188 4044 
z
M 1831 4666 
L 2547 4666 
L 4325 0 
L 3669 0 
L 3244 1197 
L 1141 1197 
L 716 0 
L 50 0 
L 1831 4666 
z
" id="DejaVuSans-41" transform="scale(0.015625)"/>
       <path d="M 191 3500 
L 800 3500 
L 1894 563 
L 2988 3500 
L 3597 3500 
L 2284 0 
L 1503 0 
L 191 3500 
z
" id="DejaVuSans-76" transform="scale(0.015625)"/>
       <path d="M 603 3500 
L 1178 3500 
L 1178 0 
L 603 0 
L 603 3500 
z
M 603 4863 
L 1178 4863 
L 1178 4134 
L 603 4134 
L 603 4863 
z
" id="DejaVuSans-69" transform="scale(0.015625)"/>
       <path d="M 3116 1747 
Q 3116 2381 2855 2742 
Q 2594 3103 2138 3103 
Q 1681 3103 1420 2742 
Q 1159 2381 1159 1747 
Q 1159 1113 1420 752 
Q 1681 391 2138 391 
Q 2594 391 2855 752 
Q 3116 1113 3116 1747 
z
M 1159 2969 
Q 1341 3281 1617 3432 
Q 1894 3584 2278 3584 
Q 2916 3584 3314 3078 
Q 3713 2572 3713 1747 
Q 3713 922 3314 415 
Q 2916 -91 2278 -91 
Q 1894 -91 1617 61 
Q 1341 213 1159 525 
L 1159 0 
L 581 0 
L 581 4863 
L 1159 4863 
L 1159 2969 
z
" id="DejaVuSans-62" transform="scale(0.015625)"/>
       <path d="M 3597 1894 
L 3597 1613 
L 953 1613 
Q 991 1019 1311 708 
Q 1631 397 2203 397 
Q 2534 397 2845 478 
Q 3156 559 3463 722 
L 3463 178 
Q 3153 47 2828 -22 
Q 2503 -91 2169 -91 
Q 1331 -91 842 396 
Q 353 884 353 1716 
Q 353 2575 817 3079 
Q 1281 3584 2069 3584 
Q 2775 3584 3186 3129 
Q 3597 2675 3597 1894 
z
M 3022 2063 
Q 3016 2534 2758 2815 
Q 2500 3097 2075 3097 
Q 1594 3097 1305 2825 
Q 1016 2553 972 2059 
L 3022 2063 
z
" id="DejaVuSans-65" transform="scale(0.015625)"/>
       <path d="M 1259 2228 
L 1259 519 
L 2272 519 
Q 2781 519 3026 730 
Q 3272 941 3272 1375 
Q 3272 1813 3026 2020 
Q 2781 2228 2272 2228 
L 1259 2228 
z
M 1259 4147 
L 1259 2741 
L 2194 2741 
Q 2656 2741 2882 2914 
Q 3109 3088 3109 3444 
Q 3109 3797 2882 3972 
Q 2656 4147 2194 4147 
L 1259 4147 
z
M 628 4666 
L 2241 4666 
Q 2963 4666 3353 4366 
Q 3744 4066 3744 3513 
Q 3744 3084 3544 2831 
Q 3344 2578 2956 2516 
Q 3422 2416 3680 2098 
Q 3938 1781 3938 1306 
Q 3938 681 3513 340 
Q 3088 0 2303 0 
L 628 0 
L 628 4666 
z
" id="DejaVuSans-42" transform="scale(0.015625)"/>
       <path d="M 2906 2969 
L 2906 4863 
L 3481 4863 
L 3481 0 
L 2906 0 
L 2906 525 
Q 2725 213 2448 61 
Q 2172 -91 1784 -91 
Q 1150 -91 751 415 
Q 353 922 353 1747 
Q 353 2572 751 3078 
Q 1150 3584 1784 3584 
Q 2172 3584 2448 3432 
Q 2725 3281 2906 2969 
z
M 947 1747 
Q 947 1113 1208 752 
Q 1469 391 1925 391 
Q 2381 391 2643 752 
Q 2906 1113 2906 1747 
Q 2906 2381 2643 2742 
Q 2381 3103 1925 3103 
Q 1469 3103 1208 2742 
Q 947 2381 947 1747 
z
" id="DejaVuSans-64" transform="scale(0.015625)"/>
       <path d="M 2834 3397 
L 2834 2853 
Q 2591 2978 2328 3040 
Q 2066 3103 1784 3103 
Q 1356 3103 1142 2972 
Q 928 2841 928 2578 
Q 928 2378 1081 2264 
Q 1234 2150 1697 2047 
L 1894 2003 
Q 2506 1872 2764 1633 
Q 3022 1394 3022 966 
Q 3022 478 2636 193 
Q 2250 -91 1575 -91 
Q 1294 -91 989 -36 
Q 684 19 347 128 
L 347 722 
Q 666 556 975 473 
Q 1284 391 1588 391 
Q 1994 391 2212 530 
Q 2431 669 2431 922 
Q 2431 1156 2273 1281 
Q 2116 1406 1581 1522 
L 1381 1569 
Q 847 1681 609 1914 
Q 372 2147 372 2553 
Q 372 3047 722 3315 
Q 1072 3584 1716 3584 
Q 2034 3584 2315 3537 
Q 2597 3491 2834 3397 
z
" id="DejaVuSans-73" transform="scale(0.015625)"/>
      </defs>
      <use xlink:href="#DejaVuSans-54"/>
      <use x="44.083984" xlink:href="#DejaVuSans-6f"/>
      <use x="105.265625" xlink:href="#DejaVuSans-74"/>
      <use x="144.474609" xlink:href="#DejaVuSans-61"/>
      <use x="205.753906" xlink:href="#DejaVuSans-6c"/>
      <use x="233.537109" xlink:href="#DejaVuSans-20"/>
      <use x="265.324219" xlink:href="#DejaVuSans-23"/>
      <use x="349.113281" xlink:href="#DejaVuSans-20"/>
      <use x="380.900391" xlink:href="#DejaVuSans-6f"/>
      <use x="442.082031" xlink:href="#DejaVuSans-66"/>
      <use x="477.287109" xlink:href="#DejaVuSans-20"/>
      <use x="509.074219" xlink:href="#DejaVuSans-41"/>
      <use x="571.607422" xlink:href="#DejaVuSans-76"/>
      <use x="630.787109" xlink:href="#DejaVuSans-61"/>
      <use x="692.066406" xlink:href="#DejaVuSans-69"/>
      <use x="719.849609" xlink:href="#DejaVuSans-6c"/>
      <use x="747.632812" xlink:href="#DejaVuSans-61"/>
      <use x="808.912109" xlink:href="#DejaVuSans-62"/>
      <use x="872.388672" xlink:href="#DejaVuSans-6c"/>
      <use x="900.171875" xlink:href="#DejaVuSans-65"/>
      <use x="961.695312" xlink:href="#DejaVuSans-20"/>
      <use x="993.482422" xlink:href="#DejaVuSans-42"/>
      <use x="1062.085938" xlink:href="#DejaVuSans-65"/>
      <use x="1123.609375" xlink:href="#DejaVuSans-64"/>
      <use x="1187.085938" xlink:href="#DejaVuSans-73"/>
     </g>
    </g>
   </g>
   <g id="patch_123">
    <path d="M 67.379375 243.96 
L 67.379375 7.2 
" style="fill:none;stroke:#000000;stroke-linecap:square;stroke-linejoin:miter;stroke-width:0.8;"/>
   </g>
   <g id="patch_124">
    <path d="M 395.267156 243.96 
L 395.267156 7.2 
" style="fill:none;stroke:#000000;stroke-linecap:square;stroke-linejoin:miter;stroke-width:0.8;"/>
   </g>
   <g id="patch_125">
    <path d="M 67.379375 243.96 
L 395.267156 243.96 
" style="fill:none;stroke:#000000;stroke-linecap:square;stroke-linejoin:miter;stroke-width:0.8;"/>
   </g>
   <g id="patch_126">
    <path d="M 67.379375 7.2 
L 395.267156 7.2 
" style="fill:none;stroke:#000000;stroke-linecap:square;stroke-linejoin:miter;stroke-width:0.8;"/>
   </g>
   <g id="legend_1">
    <g id="patch_127">
     <path d="M 79.979375 30.437812 
L 107.979375 30.437812 
L 107.979375 20.637812 
L 79.979375 20.637812 
z
" style="fill:#004684;"/>
    </g>
    <g id="text_15">
     <!-- Mid And South Essex -->
     <g transform="translate(119.179375 30.437812)scale(0.14 -0.14)">
      <defs>
       <path d="M 628 4666 
L 1569 4666 
L 2759 1491 
L 3956 4666 
L 4897 4666 
L 4897 0 
L 4281 0 
L 4281 4097 
L 3078 897 
L 2444 897 
L 1241 4097 
L 1241 0 
L 628 0 
L 628 4666 
z
" id="DejaVuSans-4d" transform="scale(0.015625)"/>
       <path d="M 3513 2113 
L 3513 0 
L 2938 0 
L 2938 2094 
Q 2938 2591 2744 2837 
Q 2550 3084 2163 3084 
Q 1697 3084 1428 2787 
Q 1159 2491 1159 1978 
L 1159 0 
L 581 0 
L 581 3500 
L 1159 3500 
L 1159 2956 
Q 1366 3272 1645 3428 
Q 1925 3584 2291 3584 
Q 2894 3584 3203 3211 
Q 3513 2838 3513 2113 
z
" id="DejaVuSans-6e" transform="scale(0.015625)"/>
       <path d="M 3425 4513 
L 3425 3897 
Q 3066 4069 2747 4153 
Q 2428 4238 2131 4238 
Q 1616 4238 1336 4038 
Q 1056 3838 1056 3469 
Q 1056 3159 1242 3001 
Q 1428 2844 1947 2747 
L 2328 2669 
Q 3034 2534 3370 2195 
Q 3706 1856 3706 1288 
Q 3706 609 3251 259 
Q 2797 -91 1919 -91 
Q 1588 -91 1214 -16 
Q 841 59 441 206 
L 441 856 
Q 825 641 1194 531 
Q 1563 422 1919 422 
Q 2459 422 2753 634 
Q 3047 847 3047 1241 
Q 3047 1584 2836 1778 
Q 2625 1972 2144 2069 
L 1759 2144 
Q 1053 2284 737 2584 
Q 422 2884 422 3419 
Q 422 4038 858 4394 
Q 1294 4750 2059 4750 
Q 2388 4750 2728 4690 
Q 3069 4631 3425 4513 
z
" id="DejaVuSans-53" transform="scale(0.015625)"/>
       <path d="M 544 1381 
L 544 3500 
L 1119 3500 
L 1119 1403 
Q 1119 906 1312 657 
Q 1506 409 1894 409 
Q 2359 409 2629 706 
Q 2900 1003 2900 1516 
L 2900 3500 
L 3475 3500 
L 3475 0 
L 2900 0 
L 2900 538 
Q 2691 219 2414 64 
Q 2138 -91 1772 -91 
Q 1169 -91 856 284 
Q 544 659 544 1381 
z
M 1991 3584 
L 1991 3584 
z
" id="DejaVuSans-75" transform="scale(0.015625)"/>
       <path d="M 3513 2113 
L 3513 0 
L 2938 0 
L 2938 2094 
Q 2938 2591 2744 2837 
Q 2550 3084 2163 3084 
Q 1697 3084 1428 2787 
Q 1159 2491 1159 1978 
L 1159 0 
L 581 0 
L 581 4863 
L 1159 4863 
L 1159 2956 
Q 1366 3272 1645 3428 
Q 1925 3584 2291 3584 
Q 2894 3584 3203 3211 
Q 3513 2838 3513 2113 
z
" id="DejaVuSans-68" transform="scale(0.015625)"/>
       <path d="M 628 4666 
L 3578 4666 
L 3578 4134 
L 1259 4134 
L 1259 2753 
L 3481 2753 
L 3481 2222 
L 1259 2222 
L 1259 531 
L 3634 531 
L 3634 0 
L 628 0 
L 628 4666 
z
" id="DejaVuSans-45" transform="scale(0.015625)"/>
       <path d="M 3513 3500 
L 2247 1797 
L 3578 0 
L 2900 0 
L 1881 1375 
L 863 0 
L 184 0 
L 1544 1831 
L 300 3500 
L 978 3500 
L 1906 2253 
L 2834 3500 
L 3513 3500 
z
" id="DejaVuSans-78" transform="scale(0.015625)"/>
      </defs>
      <use xlink:href="#DejaVuSans-4d"/>
      <use x="86.279297" xlink:href="#DejaVuSans-69"/>
      <use x="114.0625" xlink:href="#DejaVuSans-64"/>
      <use x="177.539062" xlink:href="#DejaVuSans-20"/>
      <use x="209.326172" xlink:href="#DejaVuSans-41"/>
      <use x="277.734375" xlink:href="#DejaVuSans-6e"/>
      <use x="341.113281" xlink:href="#DejaVuSans-64"/>
      <use x="404.589844" xlink:href="#DejaVuSans-20"/>
      <use x="436.376953" xlink:href="#DejaVuSans-53"/>
      <use x="499.853516" xlink:href="#DejaVuSans-6f"/>
      <use x="561.035156" xlink:href="#DejaVuSans-75"/>
      <use x="624.414062" xlink:href="#DejaVuSans-74"/>
      <use x="663.623047" xlink:href="#DejaVuSans-68"/>
      <use x="727.001953" xlink:href="#DejaVuSans-20"/>
      <use x="758.789062" xlink:href="#DejaVuSans-45"/>
      <use x="821.972656" xlink:href="#DejaVuSans-73"/>
      <use x="874.072266" xlink:href="#DejaVuSans-73"/>
      <use x="926.171875" xlink:href="#DejaVuSans-65"/>
      <use x="985.945312" xlink:href="#DejaVuSans-78"/>
     </g>
    </g>
    <g id="patch_128">
     <path d="M 79.979375 50.987187 
L 107.979375 50.987187 
L 107.979375 41.187187 
L 79.979375 41.187187 
z
" style="fill:#006bc8;"/>
    </g>
    <g id="text_16">
     <!-- Basildon And Thurrock -->
     <g transform="translate(119.179375 50.987187)scale(0.14 -0.14)">
      <defs>
       <path d="M 2631 2963 
Q 2534 3019 2420 3045 
Q 2306 3072 2169 3072 
Q 1681 3072 1420 2755 
Q 1159 2438 1159 1844 
L 1159 0 
L 581 0 
L 581 3500 
L 1159 3500 
L 1159 2956 
Q 1341 3275 1631 3429 
Q 1922 3584 2338 3584 
Q 2397 3584 2469 3576 
Q 2541 3569 2628 3553 
L 2631 2963 
z
" id="DejaVuSans-72" transform="scale(0.015625)"/>
       <path d="M 3122 3366 
L 3122 2828 
Q 2878 2963 2633 3030 
Q 2388 3097 2138 3097 
Q 1578 3097 1268 2742 
Q 959 2388 959 1747 
Q 959 1106 1268 751 
Q 1578 397 2138 397 
Q 2388 397 2633 464 
Q 2878 531 3122 666 
L 3122 134 
Q 2881 22 2623 -34 
Q 2366 -91 2075 -91 
Q 1284 -91 818 406 
Q 353 903 353 1747 
Q 353 2603 823 3093 
Q 1294 3584 2113 3584 
Q 2378 3584 2631 3529 
Q 2884 3475 3122 3366 
z
" id="DejaVuSans-63" transform="scale(0.015625)"/>
       <path d="M 581 4863 
L 1159 4863 
L 1159 1991 
L 2875 3500 
L 3609 3500 
L 1753 1863 
L 3688 0 
L 2938 0 
L 1159 1709 
L 1159 0 
L 581 0 
L 581 4863 
z
" id="DejaVuSans-6b" transform="scale(0.015625)"/>
      </defs>
      <use xlink:href="#DejaVuSans-42"/>
      <use x="68.603516" xlink:href="#DejaVuSans-61"/>
      <use x="129.882812" xlink:href="#DejaVuSans-73"/>
      <use x="181.982422" xlink:href="#DejaVuSans-69"/>
      <use x="209.765625" xlink:href="#DejaVuSans-6c"/>
      <use x="237.548828" xlink:href="#DejaVuSans-64"/>
      <use x="301.025391" xlink:href="#DejaVuSans-6f"/>
      <use x="362.207031" xlink:href="#DejaVuSans-6e"/>
      <use x="425.585938" xlink:href="#DejaVuSans-20"/>
      <use x="457.373047" xlink:href="#DejaVuSans-41"/>
      <use x="525.78125" xlink:href="#DejaVuSans-6e"/>
      <use x="589.160156" xlink:href="#DejaVuSans-64"/>
      <use x="652.636719" xlink:href="#DejaVuSans-20"/>
      <use x="684.423828" xlink:href="#DejaVuSans-54"/>
      <use x="745.507812" xlink:href="#DejaVuSans-68"/>
      <use x="808.886719" xlink:href="#DejaVuSans-75"/>
      <use x="872.265625" xlink:href="#DejaVuSans-72"/>
      <use x="911.628906" xlink:href="#DejaVuSans-72"/>
      <use x="950.492188" xlink:href="#DejaVuSans-6f"/>
      <use x="1011.673828" xlink:href="#DejaVuSans-63"/>
      <use x="1066.654297" xlink:href="#DejaVuSans-6b"/>
     </g>
    </g>
    <g id="patch_129">
     <path d="M 79.979375 71.536562 
L 107.979375 71.536562 
L 107.979375 61.736562 
L 79.979375 61.736562 
z
" style="fill:#39a1fc;"/>
    </g>
    <g id="text_17">
     <!-- Mid Essex Services -->
     <g transform="translate(119.179375 71.536562)scale(0.14 -0.14)">
      <use xlink:href="#DejaVuSans-4d"/>
      <use x="86.279297" xlink:href="#DejaVuSans-69"/>
      <use x="114.0625" xlink:href="#DejaVuSans-64"/>
      <use x="177.539062" xlink:href="#DejaVuSans-20"/>
      <use x="209.326172" xlink:href="#DejaVuSans-45"/>
      <use x="272.509766" xlink:href="#DejaVuSans-73"/>
      <use x="324.609375" xlink:href="#DejaVuSans-73"/>
      <use x="376.708984" xlink:href="#DejaVuSans-65"/>
      <use x="436.482422" xlink:href="#DejaVuSans-78"/>
      <use x="495.662109" xlink:href="#DejaVuSans-20"/>
      <use x="527.449219" xlink:href="#DejaVuSans-53"/>
      <use x="590.925781" xlink:href="#DejaVuSans-65"/>
      <use x="652.449219" xlink:href="#DejaVuSans-72"/>
      <use x="693.5625" xlink:href="#DejaVuSans-76"/>
      <use x="752.742188" xlink:href="#DejaVuSans-69"/>
      <use x="780.525391" xlink:href="#DejaVuSans-63"/>
      <use x="835.505859" xlink:href="#DejaVuSans-65"/>
      <use x="897.029297" xlink:href="#DejaVuSans-73"/>
     </g>
    </g>
    <g id="patch_130">
     <path d="M 79.979375 92.085937 
L 107.979375 92.085937 
L 107.979375 82.285937 
L 79.979375 82.285937 
z
" style="fill:#71bcfe;"/>
    </g>
    <g id="text_18">
     <!-- Southend -->
     <g transform="translate(119.179375 92.085937)scale(0.14 -0.14)">
      <use xlink:href="#DejaVuSans-53"/>
      <use x="63.476562" xlink:href="#DejaVuSans-6f"/>
      <use x="124.658203" xlink:href="#DejaVuSans-75"/>
      <use x="188.037109" xlink:href="#DejaVuSans-74"/>
      <use x="227.246094" xlink:href="#DejaVuSans-68"/>
      <use x="290.625" xlink:href="#DejaVuSans-65"/>
      <use x="352.148438" xlink:href="#DejaVuSans-6e"/>
      <use x="415.527344" xlink:href="#DejaVuSans-64"/>
     </g>
    </g>
   </g>
  </g>
 </g>
 <defs>
  <clipPath id="pfd6bfb5a7d">
   <rect height="236.76" width="327.887781" x="67.379375" y="7.2"/>
  </clipPath>
 </defs>
</svg>
