<?xml version="1.0" encoding="utf-8" standalone="no"?>
<!DOCTYPE svg PUBLIC "-//W3C//DTD SVG 1.1//EN"
  "http://www.w3.org/Graphics/SVG/1.1/DTD/svg11.dtd">
<!-- Created with matplotlib (https://matplotlib.org/) -->
<svg height="252.389375pt" version="1.1" viewBox="0 0 412.749375 252.389375" width="412.749375pt" xmlns="http://www.w3.org/2000/svg" xmlns:xlink="http://www.w3.org/1999/xlink">
 <defs>
  <style type="text/css">
*{stroke-linecap:butt;stroke-linejoin:round;}
  </style>
 </defs>
 <g id="figure_1">
  <g id="patch_1">
   <path d="M 0 252.389375 
L 412.749375 252.389375 
L 412.749375 0 
L 0 0 
z
" style="fill:#ffffff;"/>
  </g>
  <g id="axes_1">
   <g id="patch_2">
    <path d="M 70.749375 210.8994 
L 405.549375 210.8994 
L 405.549375 7.2 
L 70.749375 7.2 
z
" style="fill:#ffffff;"/>
   </g>
   <g id="patch_3">
    <path clip-path="url(#p49befe4382)" d="M 382.700907 1104.214714 
L 390.331193 1104.214714 
L 390.331193 158.00573 
L 382.700907 158.00573 
z
" style="fill:#0072ce;"/>
   </g>
   <g id="patch_4">
    <path clip-path="url(#p49befe4382)" d="M 372.103287 1104.214714 
L 379.733574 1104.214714 
L 379.733574 58.095465 
L 372.103287 58.095465 
z
" style="fill:#0072ce;"/>
   </g>
   <g id="patch_5">
    <path clip-path="url(#p49befe4382)" d="M 361.505668 1104.214714 
L 369.135954 1104.214714 
L 369.135954 122.743283 
L 361.505668 122.743283 
z
" style="fill:#0072ce;"/>
   </g>
   <g id="patch_6">
    <path clip-path="url(#p49befe4382)" d="M 350.908048 1104.214714 
L 358.538334 1104.214714 
L 358.538334 122.743283 
L 350.908048 122.743283 
z
" style="fill:#0072ce;"/>
   </g>
   <g id="patch_7">
    <path clip-path="url(#p49befe4382)" d="M 340.310428 1104.214714 
L 347.940715 1104.214714 
L 347.940715 58.095465 
L 340.310428 58.095465 
z
" style="fill:#0072ce;"/>
   </g>
   <g id="patch_8">
    <path clip-path="url(#p49befe4382)" d="M 329.712809 1104.214714 
L 337.343095 1104.214714 
L 337.343095 40.464241 
L 329.712809 40.464241 
z
" style="fill:#0072ce;"/>
   </g>
   <g id="patch_9">
    <path clip-path="url(#p49befe4382)" d="M 319.115189 1104.214714 
L 326.745475 1104.214714 
L 326.745475 28.710092 
L 319.115189 28.710092 
z
" style="fill:#0072ce;"/>
   </g>
   <g id="patch_10">
    <path clip-path="url(#p49befe4382)" d="M 308.517569 1104.214714 
L 316.147856 1104.214714 
L 316.147856 58.095465 
L 308.517569 58.095465 
z
" style="fill:#0072ce;"/>
   </g>
   <g id="patch_11">
    <path clip-path="url(#p49befe4382)" d="M 297.91995 1104.214714 
L 305.550236 1104.214714 
L 305.550236 58.095465 
L 297.91995 58.095465 
z
" style="fill:#0072ce;"/>
   </g>
   <g id="patch_12">
    <path clip-path="url(#p49befe4382)" d="M 287.32233 1104.214714 
L 294.952616 1104.214714 
L 294.952616 58.095465 
L 287.32233 58.095465 
z
" style="fill:#0072ce;"/>
   </g>
   <g id="patch_13">
    <path clip-path="url(#p49befe4382)" d="M 276.724711 1104.214714 
L 284.354997 1104.214714 
L 284.354997 58.095465 
L 276.724711 58.095465 
z
" style="fill:#0072ce;"/>
   </g>
   <g id="patch_14">
    <path clip-path="url(#p49befe4382)" d="M 266.127091 1104.214714 
L 273.757377 1104.214714 
L 273.757377 58.095465 
L 266.127091 58.095465 
z
" style="fill:#0072ce;"/>
   </g>
   <g id="patch_15">
    <path clip-path="url(#p49befe4382)" d="M 255.529471 1104.214714 
L 263.159757 1104.214714 
L 263.159757 58.095465 
L 255.529471 58.095465 
z
" style="fill:#0072ce;"/>
   </g>
   <g id="patch_16">
    <path clip-path="url(#p49befe4382)" d="M 244.931852 1104.214714 
L 252.562138 1104.214714 
L 252.562138 122.743283 
L 244.931852 122.743283 
z
" style="fill:#0072ce;"/>
   </g>
   <g id="patch_17">
    <path clip-path="url(#p49befe4382)" d="M 234.334232 1104.214714 
L 241.964518 1104.214714 
L 241.964518 122.743283 
L 234.334232 122.743283 
z
" style="fill:#0072ce;"/>
   </g>
   <g id="patch_18">
    <path clip-path="url(#p49befe4382)" d="M 223.736612 1104.214714 
L 231.366898 1104.214714 
L 231.366898 163.882804 
L 223.736612 163.882804 
z
" style="fill:#0072ce;"/>
   </g>
   <g id="patch_19">
    <path clip-path="url(#p49befe4382)" d="M 213.138993 1104.214714 
L 220.769279 1104.214714 
L 220.769279 163.882804 
L 213.138993 163.882804 
z
" style="fill:#0072ce;"/>
   </g>
   <g id="patch_20">
    <path clip-path="url(#p49befe4382)" d="M 202.541373 1104.214714 
L 210.171659 1104.214714 
L 210.171659 143.313044 
L 202.541373 143.313044 
z
" style="fill:#0072ce;"/>
   </g>
   <g id="patch_21">
    <path clip-path="url(#p49befe4382)" d="M 191.943753 1104.214714 
L 199.574039 1104.214714 
L 199.574039 128.620358 
L 191.943753 128.620358 
z
" style="fill:#0072ce;"/>
   </g>
   <g id="patch_22">
    <path clip-path="url(#p49befe4382)" d="M 181.346134 1104.214714 
L 188.97642 1104.214714 
L 188.97642 131.558895 
L 181.346134 131.558895 
z
" style="fill:#0072ce;"/>
   </g>
   <g id="patch_23">
    <path clip-path="url(#p49befe4382)" d="M 170.748514 1104.214714 
L 178.3788 1104.214714 
L 178.3788 116.866209 
L 170.748514 116.866209 
z
" style="fill:#0072ce;"/>
   </g>
   <g id="patch_24">
    <path clip-path="url(#p49befe4382)" d="M 160.150894 1104.214714 
L 167.781181 1104.214714 
L 167.781181 116.866209 
L 160.150894 116.866209 
z
" style="fill:#0072ce;"/>
   </g>
   <g id="patch_25">
    <path clip-path="url(#p49befe4382)" d="M 149.553275 1104.214714 
L 157.183561 1104.214714 
L 157.183561 113.927672 
L 149.553275 113.927672 
z
" style="fill:#0072ce;"/>
   </g>
   <g id="patch_26">
    <path clip-path="url(#p49befe4382)" d="M 138.955655 1104.214714 
L 146.585941 1104.214714 
L 146.585941 105.11206 
L 138.955655 105.11206 
z
" style="fill:#0072ce;"/>
   </g>
   <g id="patch_27">
    <path clip-path="url(#p49befe4382)" d="M 128.358035 1104.214714 
L 135.988322 1104.214714 
L 135.988322 75.726688 
L 128.358035 75.726688 
z
" style="fill:#0072ce;"/>
   </g>
   <g id="patch_28">
    <path clip-path="url(#p49befe4382)" d="M 117.760416 1104.214714 
L 125.390702 1104.214714 
L 125.390702 69.849613 
L 117.760416 69.849613 
z
" style="fill:#0072ce;"/>
   </g>
   <g id="patch_29">
    <path clip-path="url(#p49befe4382)" d="M 107.162796 1104.214714 
L 114.793082 1104.214714 
L 114.793082 46.341316 
L 107.162796 46.341316 
z
" style="fill:#0072ce;"/>
   </g>
   <g id="patch_30">
    <path clip-path="url(#p49befe4382)" d="M 96.565176 1104.214714 
L 104.195463 1104.214714 
L 104.195463 46.341316 
L 96.565176 46.341316 
z
" style="fill:#0072ce;"/>
   </g>
   <g id="patch_31">
    <path clip-path="url(#p49befe4382)" d="M 85.967557 1104.214714 
L 93.597843 1104.214714 
L 93.597843 52.21839 
L 85.967557 52.21839 
z
" style="fill:#0072ce;"/>
   </g>
   <g id="matplotlib.axis_1">
    <g id="xtick_1"/>
    <g id="xtick_2"/>
    <g id="xtick_3"/>
    <g id="xtick_4"/>
   </g>
   <g id="matplotlib.axis_2">
    <g id="ytick_1">
     <g id="line2d_1">
      <defs>
       <path d="M 0 0 
L -3.5 0 
" id="mb4e0eb7339" style="stroke:#000000;stroke-width:0.8;"/>
      </defs>
      <g>
       <use style="stroke:#000000;stroke-width:0.8;" x="70.749375" xlink:href="#mb4e0eb7339" y="193.268177"/>
      </g>
     </g>
     <g id="text_1">
      <!-- 310 -->
      <defs>
       <path d="M 40.578125 39.3125 
Q 47.65625 37.796875 51.625 33 
Q 55.609375 28.21875 55.609375 21.1875 
Q 55.609375 10.40625 48.1875 4.484375 
Q 40.765625 -1.421875 27.09375 -1.421875 
Q 22.515625 -1.421875 17.65625 -0.515625 
Q 12.796875 0.390625 7.625 2.203125 
L 7.625 11.71875 
Q 11.71875 9.328125 16.59375 8.109375 
Q 21.484375 6.890625 26.8125 6.890625 
Q 36.078125 6.890625 40.9375 10.546875 
Q 45.796875 14.203125 45.796875 21.1875 
Q 45.796875 27.640625 41.28125 31.265625 
Q 36.765625 34.90625 28.71875 34.90625 
L 20.21875 34.90625 
L 20.21875 43.015625 
L 29.109375 43.015625 
Q 36.375 43.015625 40.234375 45.921875 
Q 44.09375 48.828125 44.09375 54.296875 
Q 44.09375 59.90625 40.109375 62.90625 
Q 36.140625 65.921875 28.71875 65.921875 
Q 24.65625 65.921875 20.015625 65.03125 
Q 15.375 64.15625 9.8125 62.3125 
L 9.8125 71.09375 
Q 15.4375 72.65625 20.34375 73.4375 
Q 25.25 74.21875 29.59375 74.21875 
Q 40.828125 74.21875 47.359375 69.109375 
Q 53.90625 64.015625 53.90625 55.328125 
Q 53.90625 49.265625 50.4375 45.09375 
Q 46.96875 40.921875 40.578125 39.3125 
z
" id="DejaVuSans-51"/>
       <path d="M 12.40625 8.296875 
L 28.515625 8.296875 
L 28.515625 63.921875 
L 10.984375 60.40625 
L 10.984375 69.390625 
L 28.421875 72.90625 
L 38.28125 72.90625 
L 38.28125 8.296875 
L 54.390625 8.296875 
L 54.390625 0 
L 12.40625 0 
z
" id="DejaVuSans-49"/>
       <path d="M 31.78125 66.40625 
Q 24.171875 66.40625 20.328125 58.90625 
Q 16.5 51.421875 16.5 36.375 
Q 16.5 21.390625 20.328125 13.890625 
Q 24.171875 6.390625 31.78125 6.390625 
Q 39.453125 6.390625 43.28125 13.890625 
Q 47.125 21.390625 47.125 36.375 
Q 47.125 51.421875 43.28125 58.90625 
Q 39.453125 66.40625 31.78125 66.40625 
z
M 31.78125 74.21875 
Q 44.046875 74.21875 50.515625 64.515625 
Q 56.984375 54.828125 56.984375 36.375 
Q 56.984375 17.96875 50.515625 8.265625 
Q 44.046875 -1.421875 31.78125 -1.421875 
Q 19.53125 -1.421875 13.0625 8.265625 
Q 6.59375 17.96875 6.59375 36.375 
Q 6.59375 54.828125 13.0625 64.515625 
Q 19.53125 74.21875 31.78125 74.21875 
z
" id="DejaVuSans-48"/>
      </defs>
      <g transform="translate(37.026875 198.587083)scale(0.14 -0.14)">
       <use xlink:href="#DejaVuSans-51"/>
       <use x="63.623047" xlink:href="#DejaVuSans-49"/>
       <use x="127.246094" xlink:href="#DejaVuSans-48"/>
      </g>
     </g>
    </g>
    <g id="ytick_2">
     <g id="line2d_2">
      <g>
       <use style="stroke:#000000;stroke-width:0.8;" x="70.749375" xlink:href="#mb4e0eb7339" y="163.882804"/>
      </g>
     </g>
     <g id="text_2">
      <!-- 320 -->
      <defs>
       <path d="M 19.1875 8.296875 
L 53.609375 8.296875 
L 53.609375 0 
L 7.328125 0 
L 7.328125 8.296875 
Q 12.9375 14.109375 22.625 23.890625 
Q 32.328125 33.6875 34.8125 36.53125 
Q 39.546875 41.84375 41.421875 45.53125 
Q 43.3125 49.21875 43.3125 52.78125 
Q 43.3125 58.59375 39.234375 62.25 
Q 35.15625 65.921875 28.609375 65.921875 
Q 23.96875 65.921875 18.8125 64.3125 
Q 13.671875 62.703125 7.8125 59.421875 
L 7.8125 69.390625 
Q 13.765625 71.78125 18.9375 73 
Q 24.125 74.21875 28.421875 74.21875 
Q 39.75 74.21875 46.484375 68.546875 
Q 53.21875 62.890625 53.21875 53.421875 
Q 53.21875 48.921875 51.53125 44.890625 
Q 49.859375 40.875 45.40625 35.40625 
Q 44.1875 33.984375 37.640625 27.21875 
Q 31.109375 20.453125 19.1875 8.296875 
z
" id="DejaVuSans-50"/>
      </defs>
      <g transform="translate(37.026875 169.201711)scale(0.14 -0.14)">
       <use xlink:href="#DejaVuSans-51"/>
       <use x="63.623047" xlink:href="#DejaVuSans-50"/>
       <use x="127.246094" xlink:href="#DejaVuSans-48"/>
      </g>
     </g>
    </g>
    <g id="ytick_3">
     <g id="line2d_3">
      <g>
       <use style="stroke:#000000;stroke-width:0.8;" x="70.749375" xlink:href="#mb4e0eb7339" y="134.497432"/>
      </g>
     </g>
     <g id="text_3">
      <!-- 330 -->
      <g transform="translate(37.026875 139.816339)scale(0.14 -0.14)">
       <use xlink:href="#DejaVuSans-51"/>
       <use x="63.623047" xlink:href="#DejaVuSans-51"/>
       <use x="127.246094" xlink:href="#DejaVuSans-48"/>
      </g>
     </g>
    </g>
    <g id="ytick_4">
     <g id="line2d_4">
      <g>
       <use style="stroke:#000000;stroke-width:0.8;" x="70.749375" xlink:href="#mb4e0eb7339" y="105.11206"/>
      </g>
     </g>
     <g id="text_4">
      <!-- 340 -->
      <defs>
       <path d="M 37.796875 64.3125 
L 12.890625 25.390625 
L 37.796875 25.390625 
z
M 35.203125 72.90625 
L 47.609375 72.90625 
L 47.609375 25.390625 
L 58.015625 25.390625 
L 58.015625 17.1875 
L 47.609375 17.1875 
L 47.609375 0 
L 37.796875 0 
L 37.796875 17.1875 
L 4.890625 17.1875 
L 4.890625 26.703125 
z
" id="DejaVuSans-52"/>
      </defs>
      <g transform="translate(37.026875 110.430966)scale(0.14 -0.14)">
       <use xlink:href="#DejaVuSans-51"/>
       <use x="63.623047" xlink:href="#DejaVuSans-52"/>
       <use x="127.246094" xlink:href="#DejaVuSans-48"/>
      </g>
     </g>
    </g>
    <g id="ytick_5">
     <g id="line2d_5">
      <g>
       <use style="stroke:#000000;stroke-width:0.8;" x="70.749375" xlink:href="#mb4e0eb7339" y="75.726688"/>
      </g>
     </g>
     <g id="text_5">
      <!-- 350 -->
      <defs>
       <path d="M 10.796875 72.90625 
L 49.515625 72.90625 
L 49.515625 64.59375 
L 19.828125 64.59375 
L 19.828125 46.734375 
Q 21.96875 47.46875 24.109375 47.828125 
Q 26.265625 48.1875 28.421875 48.1875 
Q 40.625 48.1875 47.75 41.5 
Q 54.890625 34.8125 54.890625 23.390625 
Q 54.890625 11.625 47.5625 5.09375 
Q 40.234375 -1.421875 26.90625 -1.421875 
Q 22.3125 -1.421875 17.546875 -0.640625 
Q 12.796875 0.140625 7.71875 1.703125 
L 7.71875 11.625 
Q 12.109375 9.234375 16.796875 8.0625 
Q 21.484375 6.890625 26.703125 6.890625 
Q 35.15625 6.890625 40.078125 11.328125 
Q 45.015625 15.765625 45.015625 23.390625 
Q 45.015625 31 40.078125 35.4375 
Q 35.15625 39.890625 26.703125 39.890625 
Q 22.75 39.890625 18.8125 39.015625 
Q 14.890625 38.140625 10.796875 36.28125 
z
" id="DejaVuSans-53"/>
      </defs>
      <g transform="translate(37.026875 81.045594)scale(0.14 -0.14)">
       <use xlink:href="#DejaVuSans-51"/>
       <use x="63.623047" xlink:href="#DejaVuSans-53"/>
       <use x="127.246094" xlink:href="#DejaVuSans-48"/>
      </g>
     </g>
    </g>
    <g id="ytick_6">
     <g id="line2d_6">
      <g>
       <use style="stroke:#000000;stroke-width:0.8;" x="70.749375" xlink:href="#mb4e0eb7339" y="46.341316"/>
      </g>
     </g>
     <g id="text_6">
      <!-- 360 -->
      <defs>
       <path d="M 33.015625 40.375 
Q 26.375 40.375 22.484375 35.828125 
Q 18.609375 31.296875 18.609375 23.390625 
Q 18.609375 15.53125 22.484375 10.953125 
Q 26.375 6.390625 33.015625 6.390625 
Q 39.65625 6.390625 43.53125 10.953125 
Q 47.40625 15.53125 47.40625 23.390625 
Q 47.40625 31.296875 43.53125 35.828125 
Q 39.65625 40.375 33.015625 40.375 
z
M 52.59375 71.296875 
L 52.59375 62.3125 
Q 48.875 64.0625 45.09375 64.984375 
Q 41.3125 65.921875 37.59375 65.921875 
Q 27.828125 65.921875 22.671875 59.328125 
Q 17.53125 52.734375 16.796875 39.40625 
Q 19.671875 43.65625 24.015625 45.921875 
Q 28.375 48.1875 33.59375 48.1875 
Q 44.578125 48.1875 50.953125 41.515625 
Q 57.328125 34.859375 57.328125 23.390625 
Q 57.328125 12.15625 50.6875 5.359375 
Q 44.046875 -1.421875 33.015625 -1.421875 
Q 20.359375 -1.421875 13.671875 8.265625 
Q 6.984375 17.96875 6.984375 36.375 
Q 6.984375 53.65625 15.1875 63.9375 
Q 23.390625 74.21875 37.203125 74.21875 
Q 40.921875 74.21875 44.703125 73.484375 
Q 48.484375 72.75 52.59375 71.296875 
z
" id="DejaVuSans-54"/>
      </defs>
      <g transform="translate(37.026875 51.660222)scale(0.14 -0.14)">
       <use xlink:href="#DejaVuSans-51"/>
       <use x="63.623047" xlink:href="#DejaVuSans-54"/>
       <use x="127.246094" xlink:href="#DejaVuSans-48"/>
      </g>
     </g>
    </g>
    <g id="ytick_7">
     <g id="line2d_7">
      <g>
       <use style="stroke:#000000;stroke-width:0.8;" x="70.749375" xlink:href="#mb4e0eb7339" y="16.955944"/>
      </g>
     </g>
     <g id="text_7">
      <!-- 370 -->
      <defs>
       <path d="M 8.203125 72.90625 
L 55.078125 72.90625 
L 55.078125 68.703125 
L 28.609375 0 
L 18.3125 0 
L 43.21875 64.59375 
L 8.203125 64.59375 
z
" id="DejaVuSans-55"/>
      </defs>
      <g transform="translate(37.026875 22.27485)scale(0.14 -0.14)">
       <use xlink:href="#DejaVuSans-51"/>
       <use x="63.623047" xlink:href="#DejaVuSans-55"/>
       <use x="127.246094" xlink:href="#DejaVuSans-48"/>
      </g>
     </g>
    </g>
   </g>
   <g id="line2d_8">
    <path d="M 66.167323 215.481452 
L 75.331427 206.317348 
" style="fill:none;stroke:#000000;stroke-linecap:square;stroke-width:0.8;"/>
   </g>
   <g id="patch_32">
    <path d="M 70.749375 210.8994 
L 70.749375 7.2 
" style="fill:none;stroke:#000000;stroke-linecap:square;stroke-linejoin:miter;stroke-width:0.8;"/>
   </g>
  </g>
  <g id="axes_2">
   <g id="patch_33">
    <path d="M 70.749375 224.64 
L 405.549375 224.64 
L 405.549375 219.262477 
L 70.749375 219.262477 
z
" style="fill:#ffffff;"/>
   </g>
   <g id="patch_34">
    <path clip-path="url(#pa76e3e2f69)" d="M 382.700907 224.64 
L 390.331193 224.64 
L 390.331193 -721.568984 
L 382.700907 -721.568984 
z
" style="fill:#0072ce;"/>
   </g>
   <g id="patch_35">
    <path clip-path="url(#pa76e3e2f69)" d="M 372.103287 224.64 
L 379.733574 224.64 
L 379.733574 -821.47925 
L 372.103287 -821.47925 
z
" style="fill:#0072ce;"/>
   </g>
   <g id="patch_36">
    <path clip-path="url(#pa76e3e2f69)" d="M 361.505668 224.64 
L 369.135954 224.64 
L 369.135954 -756.831431 
L 361.505668 -756.831431 
z
" style="fill:#0072ce;"/>
   </g>
   <g id="patch_37">
    <path clip-path="url(#pa76e3e2f69)" d="M 350.908048 224.64 
L 358.538334 224.64 
L 358.538334 -756.831431 
L 350.908048 -756.831431 
z
" style="fill:#0072ce;"/>
   </g>
   <g id="patch_38">
    <path clip-path="url(#pa76e3e2f69)" d="M 340.310428 224.64 
L 347.940715 224.64 
L 347.940715 -821.47925 
L 340.310428 -821.47925 
z
" style="fill:#0072ce;"/>
   </g>
   <g id="patch_39">
    <path clip-path="url(#pa76e3e2f69)" d="M 329.712809 224.64 
L 337.343095 224.64 
L 337.343095 -839.110473 
L 329.712809 -839.110473 
z
" style="fill:#0072ce;"/>
   </g>
   <g id="patch_40">
    <path clip-path="url(#pa76e3e2f69)" d="M 319.115189 224.64 
L 326.745475 224.64 
L 326.745475 -850.864622 
L 319.115189 -850.864622 
z
" style="fill:#0072ce;"/>
   </g>
   <g id="patch_41">
    <path clip-path="url(#pa76e3e2f69)" d="M 308.517569 224.64 
L 316.147856 224.64 
L 316.147856 -821.47925 
L 308.517569 -821.47925 
z
" style="fill:#0072ce;"/>
   </g>
   <g id="patch_42">
    <path clip-path="url(#pa76e3e2f69)" d="M 297.91995 224.64 
L 305.550236 224.64 
L 305.550236 -821.47925 
L 297.91995 -821.47925 
z
" style="fill:#0072ce;"/>
   </g>
   <g id="patch_43">
    <path clip-path="url(#pa76e3e2f69)" d="M 287.32233 224.64 
L 294.952616 224.64 
L 294.952616 -821.47925 
L 287.32233 -821.47925 
z
" style="fill:#0072ce;"/>
   </g>
   <g id="patch_44">
    <path clip-path="url(#pa76e3e2f69)" d="M 276.724711 224.64 
L 284.354997 224.64 
L 284.354997 -821.47925 
L 276.724711 -821.47925 
z
" style="fill:#0072ce;"/>
   </g>
   <g id="patch_45">
    <path clip-path="url(#pa76e3e2f69)" d="M 266.127091 224.64 
L 273.757377 224.64 
L 273.757377 -821.47925 
L 266.127091 -821.47925 
z
" style="fill:#0072ce;"/>
   </g>
   <g id="patch_46">
    <path clip-path="url(#pa76e3e2f69)" d="M 255.529471 224.64 
L 263.159757 224.64 
L 263.159757 -821.47925 
L 255.529471 -821.47925 
z
" style="fill:#0072ce;"/>
   </g>
   <g id="patch_47">
    <path clip-path="url(#pa76e3e2f69)" d="M 244.931852 224.64 
L 252.562138 224.64 
L 252.562138 -756.831431 
L 244.931852 -756.831431 
z
" style="fill:#0072ce;"/>
   </g>
   <g id="patch_48">
    <path clip-path="url(#pa76e3e2f69)" d="M 234.334232 224.64 
L 241.964518 224.64 
L 241.964518 -756.831431 
L 234.334232 -756.831431 
z
" style="fill:#0072ce;"/>
   </g>
   <g id="patch_49">
    <path clip-path="url(#pa76e3e2f69)" d="M 223.736612 224.64 
L 231.366898 224.64 
L 231.366898 -715.69191 
L 223.736612 -715.69191 
z
" style="fill:#0072ce;"/>
   </g>
   <g id="patch_50">
    <path clip-path="url(#pa76e3e2f69)" d="M 213.138993 224.64 
L 220.769279 224.64 
L 220.769279 -715.69191 
L 213.138993 -715.69191 
z
" style="fill:#0072ce;"/>
   </g>
   <g id="patch_51">
    <path clip-path="url(#pa76e3e2f69)" d="M 202.541373 224.64 
L 210.171659 224.64 
L 210.171659 -736.26167 
L 202.541373 -736.26167 
z
" style="fill:#0072ce;"/>
   </g>
   <g id="patch_52">
    <path clip-path="url(#pa76e3e2f69)" d="M 191.943753 224.64 
L 199.574039 224.64 
L 199.574039 -750.954356 
L 191.943753 -750.954356 
z
" style="fill:#0072ce;"/>
   </g>
   <g id="patch_53">
    <path clip-path="url(#pa76e3e2f69)" d="M 181.346134 224.64 
L 188.97642 224.64 
L 188.97642 -748.015819 
L 181.346134 -748.015819 
z
" style="fill:#0072ce;"/>
   </g>
   <g id="patch_54">
    <path clip-path="url(#pa76e3e2f69)" d="M 170.748514 224.64 
L 178.3788 224.64 
L 178.3788 -762.708505 
L 170.748514 -762.708505 
z
" style="fill:#0072ce;"/>
   </g>
   <g id="patch_55">
    <path clip-path="url(#pa76e3e2f69)" d="M 160.150894 224.64 
L 167.781181 224.64 
L 167.781181 -762.708505 
L 160.150894 -762.708505 
z
" style="fill:#0072ce;"/>
   </g>
   <g id="patch_56">
    <path clip-path="url(#pa76e3e2f69)" d="M 149.553275 224.64 
L 157.183561 224.64 
L 157.183561 -765.647043 
L 149.553275 -765.647043 
z
" style="fill:#0072ce;"/>
   </g>
   <g id="patch_57">
    <path clip-path="url(#pa76e3e2f69)" d="M 138.955655 224.64 
L 146.585941 224.64 
L 146.585941 -774.462654 
L 138.955655 -774.462654 
z
" style="fill:#0072ce;"/>
   </g>
   <g id="patch_58">
    <path clip-path="url(#pa76e3e2f69)" d="M 128.358035 224.64 
L 135.988322 224.64 
L 135.988322 -803.848026 
L 128.358035 -803.848026 
z
" style="fill:#0072ce;"/>
   </g>
   <g id="patch_59">
    <path clip-path="url(#pa76e3e2f69)" d="M 117.760416 224.64 
L 125.390702 224.64 
L 125.390702 -809.725101 
L 117.760416 -809.725101 
z
" style="fill:#0072ce;"/>
   </g>
   <g id="patch_60">
    <path clip-path="url(#pa76e3e2f69)" d="M 107.162796 224.64 
L 114.793082 224.64 
L 114.793082 -833.233399 
L 107.162796 -833.233399 
z
" style="fill:#0072ce;"/>
   </g>
   <g id="patch_61">
    <path clip-path="url(#pa76e3e2f69)" d="M 96.565176 224.64 
L 104.195463 224.64 
L 104.195463 -833.233399 
L 96.565176 -833.233399 
z
" style="fill:#0072ce;"/>
   </g>
   <g id="patch_62">
    <path clip-path="url(#pa76e3e2f69)" d="M 85.967557 224.64 
L 93.597843 224.64 
L 93.597843 -827.356324 
L 85.967557 -827.356324 
z
" style="fill:#0072ce;"/>
   </g>
   <g id="matplotlib.axis_3">
    <g id="xtick_5">
     <g id="line2d_9">
      <defs>
       <path d="M 0 0 
L 0 3.5 
" id="m68d2e678c6" style="stroke:#000000;stroke-width:0.8;"/>
      </defs>
      <g>
       <use style="stroke:#000000;stroke-width:0.8;" x="121.575559" xlink:href="#m68d2e678c6" y="224.64"/>
      </g>
     </g>
     <g id="text_8">
      <!-- 2014 -->
      <g transform="translate(103.760559 242.277813)scale(0.14 -0.14)">
       <use xlink:href="#DejaVuSans-50"/>
       <use x="63.623047" xlink:href="#DejaVuSans-48"/>
       <use x="127.246094" xlink:href="#DejaVuSans-49"/>
       <use x="190.869141" xlink:href="#DejaVuSans-52"/>
      </g>
     </g>
    </g>
    <g id="xtick_6">
     <g id="line2d_10">
      <g>
       <use style="stroke:#000000;stroke-width:0.8;" x="206.356516" xlink:href="#m68d2e678c6" y="224.64"/>
      </g>
     </g>
     <g id="text_9">
      <!-- 2016 -->
      <g transform="translate(188.541516 242.277813)scale(0.14 -0.14)">
       <use xlink:href="#DejaVuSans-50"/>
       <use x="63.623047" xlink:href="#DejaVuSans-48"/>
       <use x="127.246094" xlink:href="#DejaVuSans-49"/>
       <use x="190.869141" xlink:href="#DejaVuSans-54"/>
      </g>
     </g>
    </g>
    <g id="xtick_7">
     <g id="line2d_11">
      <g>
       <use style="stroke:#000000;stroke-width:0.8;" x="291.137473" xlink:href="#m68d2e678c6" y="224.64"/>
      </g>
     </g>
     <g id="text_10">
      <!-- 2018 -->
      <defs>
       <path d="M 31.78125 34.625 
Q 24.75 34.625 20.71875 30.859375 
Q 16.703125 27.09375 16.703125 20.515625 
Q 16.703125 13.921875 20.71875 10.15625 
Q 24.75 6.390625 31.78125 6.390625 
Q 38.8125 6.390625 42.859375 10.171875 
Q 46.921875 13.96875 46.921875 20.515625 
Q 46.921875 27.09375 42.890625 30.859375 
Q 38.875 34.625 31.78125 34.625 
z
M 21.921875 38.8125 
Q 15.578125 40.375 12.03125 44.71875 
Q 8.5 49.078125 8.5 55.328125 
Q 8.5 64.0625 14.71875 69.140625 
Q 20.953125 74.21875 31.78125 74.21875 
Q 42.671875 74.21875 48.875 69.140625 
Q 55.078125 64.0625 55.078125 55.328125 
Q 55.078125 49.078125 51.53125 44.71875 
Q 48 40.375 41.703125 38.8125 
Q 48.828125 37.15625 52.796875 32.3125 
Q 56.78125 27.484375 56.78125 20.515625 
Q 56.78125 9.90625 50.3125 4.234375 
Q 43.84375 -1.421875 31.78125 -1.421875 
Q 19.734375 -1.421875 13.25 4.234375 
Q 6.78125 9.90625 6.78125 20.515625 
Q 6.78125 27.484375 10.78125 32.3125 
Q 14.796875 37.15625 21.921875 38.8125 
z
M 18.3125 54.390625 
Q 18.3125 48.734375 21.84375 45.5625 
Q 25.390625 42.390625 31.78125 42.390625 
Q 38.140625 42.390625 41.71875 45.5625 
Q 45.3125 48.734375 45.3125 54.390625 
Q 45.3125 60.0625 41.71875 63.234375 
Q 38.140625 66.40625 31.78125 66.40625 
Q 25.390625 66.40625 21.84375 63.234375 
Q 18.3125 60.0625 18.3125 54.390625 
z
" id="DejaVuSans-56"/>
      </defs>
      <g transform="translate(273.322473 242.277813)scale(0.14 -0.14)">
       <use xlink:href="#DejaVuSans-50"/>
       <use x="63.623047" xlink:href="#DejaVuSans-48"/>
       <use x="127.246094" xlink:href="#DejaVuSans-49"/>
       <use x="190.869141" xlink:href="#DejaVuSans-56"/>
      </g>
     </g>
    </g>
    <g id="xtick_8">
     <g id="line2d_12">
      <g>
       <use style="stroke:#000000;stroke-width:0.8;" x="375.91843" xlink:href="#m68d2e678c6" y="224.64"/>
      </g>
     </g>
     <g id="text_11">
      <!-- 2020 -->
      <g transform="translate(358.10343 242.277813)scale(0.14 -0.14)">
       <use xlink:href="#DejaVuSans-50"/>
       <use x="63.623047" xlink:href="#DejaVuSans-48"/>
       <use x="127.246094" xlink:href="#DejaVuSans-50"/>
       <use x="190.869141" xlink:href="#DejaVuSans-48"/>
      </g>
     </g>
    </g>
   </g>
   <g id="matplotlib.axis_4">
    <g id="ytick_8">
     <g id="line2d_13">
      <g>
       <use style="stroke:#000000;stroke-width:0.8;" x="70.749375" xlink:href="#mb4e0eb7339" y="224.64"/>
      </g>
     </g>
     <g id="text_12">
      <!-- 0 -->
      <g transform="translate(54.841875 229.958906)scale(0.14 -0.14)">
       <use xlink:href="#DejaVuSans-48"/>
      </g>
     </g>
    </g>
   </g>
   <g id="line2d_14">
    <path d="M 66.167323 223.844529 
L 75.331427 214.680425 
" style="fill:none;stroke:#000000;stroke-linecap:square;stroke-width:0.8;"/>
   </g>
   <g id="patch_63">
    <path d="M 70.749375 224.64 
L 70.749375 219.262477 
" style="fill:none;stroke:#000000;stroke-linecap:square;stroke-linejoin:miter;stroke-width:0.8;"/>
   </g>
   <g id="patch_64">
    <path d="M 70.749375 224.64 
L 405.549375 224.64 
" style="fill:none;stroke:#000000;stroke-linecap:square;stroke-linejoin:miter;stroke-width:0.8;"/>
   </g>
  </g>
  <g id="axes_3">
   <g id="patch_65">
    <path d="M 70.749375 224.64 
L 405.549375 224.64 
L 405.549375 7.2 
L 70.749375 7.2 
z
" style="fill:none;"/>
   </g>
   <g id="matplotlib.axis_5"/>
   <g id="matplotlib.axis_6">
    <g id="text_13">
     <!-- # of Overnight Beds -->
     <defs>
      <path d="M 51.125 44 
L 36.921875 44 
L 32.8125 27.6875 
L 47.125 27.6875 
z
M 43.796875 71.78125 
L 38.71875 51.515625 
L 52.984375 51.515625 
L 58.109375 71.78125 
L 65.921875 71.78125 
L 60.890625 51.515625 
L 76.125 51.515625 
L 76.125 44 
L 58.984375 44 
L 54.984375 27.6875 
L 70.515625 27.6875 
L 70.515625 20.21875 
L 53.078125 20.21875 
L 48 0 
L 40.1875 0 
L 45.21875 20.21875 
L 30.90625 20.21875 
L 25.875 0 
L 18.015625 0 
L 23.09375 20.21875 
L 7.71875 20.21875 
L 7.71875 27.6875 
L 24.90625 27.6875 
L 29 44 
L 13.28125 44 
L 13.28125 51.515625 
L 30.90625 51.515625 
L 35.890625 71.78125 
z
" id="DejaVuSans-35"/>
      <path id="DejaVuSans-32"/>
      <path d="M 30.609375 48.390625 
Q 23.390625 48.390625 19.1875 42.75 
Q 14.984375 37.109375 14.984375 27.296875 
Q 14.984375 17.484375 19.15625 11.84375 
Q 23.34375 6.203125 30.609375 6.203125 
Q 37.796875 6.203125 41.984375 11.859375 
Q 46.1875 17.53125 46.1875 27.296875 
Q 46.1875 37.015625 41.984375 42.703125 
Q 37.796875 48.390625 30.609375 48.390625 
z
M 30.609375 56 
Q 42.328125 56 49.015625 48.375 
Q 55.71875 40.765625 55.71875 27.296875 
Q 55.71875 13.875 49.015625 6.21875 
Q 42.328125 -1.421875 30.609375 -1.421875 
Q 18.84375 -1.421875 12.171875 6.21875 
Q 5.515625 13.875 5.515625 27.296875 
Q 5.515625 40.765625 12.171875 48.375 
Q 18.84375 56 30.609375 56 
z
" id="DejaVuSans-111"/>
      <path d="M 37.109375 75.984375 
L 37.109375 68.5 
L 28.515625 68.5 
Q 23.6875 68.5 21.796875 66.546875 
Q 19.921875 64.59375 19.921875 59.515625 
L 19.921875 54.6875 
L 34.71875 54.6875 
L 34.71875 47.703125 
L 19.921875 47.703125 
L 19.921875 0 
L 10.890625 0 
L 10.890625 47.703125 
L 2.296875 47.703125 
L 2.296875 54.6875 
L 10.890625 54.6875 
L 10.890625 58.5 
Q 10.890625 67.625 15.140625 71.796875 
Q 19.390625 75.984375 28.609375 75.984375 
z
" id="DejaVuSans-102"/>
      <path d="M 39.40625 66.21875 
Q 28.65625 66.21875 22.328125 58.203125 
Q 16.015625 50.203125 16.015625 36.375 
Q 16.015625 22.609375 22.328125 14.59375 
Q 28.65625 6.59375 39.40625 6.59375 
Q 50.140625 6.59375 56.421875 14.59375 
Q 62.703125 22.609375 62.703125 36.375 
Q 62.703125 50.203125 56.421875 58.203125 
Q 50.140625 66.21875 39.40625 66.21875 
z
M 39.40625 74.21875 
Q 54.734375 74.21875 63.90625 63.9375 
Q 73.09375 53.65625 73.09375 36.375 
Q 73.09375 19.140625 63.90625 8.859375 
Q 54.734375 -1.421875 39.40625 -1.421875 
Q 24.03125 -1.421875 14.8125 8.828125 
Q 5.609375 19.09375 5.609375 36.375 
Q 5.609375 53.65625 14.8125 63.9375 
Q 24.03125 74.21875 39.40625 74.21875 
z
" id="DejaVuSans-79"/>
      <path d="M 2.984375 54.6875 
L 12.5 54.6875 
L 29.59375 8.796875 
L 46.6875 54.6875 
L 56.203125 54.6875 
L 35.6875 0 
L 23.484375 0 
z
" id="DejaVuSans-118"/>
      <path d="M 56.203125 29.59375 
L 56.203125 25.203125 
L 14.890625 25.203125 
Q 15.484375 15.921875 20.484375 11.0625 
Q 25.484375 6.203125 34.421875 6.203125 
Q 39.59375 6.203125 44.453125 7.46875 
Q 49.3125 8.734375 54.109375 11.28125 
L 54.109375 2.78125 
Q 49.265625 0.734375 44.1875 -0.34375 
Q 39.109375 -1.421875 33.890625 -1.421875 
Q 20.796875 -1.421875 13.15625 6.1875 
Q 5.515625 13.8125 5.515625 26.8125 
Q 5.515625 40.234375 12.765625 48.109375 
Q 20.015625 56 32.328125 56 
Q 43.359375 56 49.78125 48.890625 
Q 56.203125 41.796875 56.203125 29.59375 
z
M 47.21875 32.234375 
Q 47.125 39.59375 43.09375 43.984375 
Q 39.0625 48.390625 32.421875 48.390625 
Q 24.90625 48.390625 20.390625 44.140625 
Q 15.875 39.890625 15.1875 32.171875 
z
" id="DejaVuSans-101"/>
      <path d="M 41.109375 46.296875 
Q 39.59375 47.171875 37.8125 47.578125 
Q 36.03125 48 33.890625 48 
Q 26.265625 48 22.1875 43.046875 
Q 18.109375 38.09375 18.109375 28.8125 
L 18.109375 0 
L 9.078125 0 
L 9.078125 54.6875 
L 18.109375 54.6875 
L 18.109375 46.1875 
Q 20.953125 51.171875 25.484375 53.578125 
Q 30.03125 56 36.53125 56 
Q 37.453125 56 38.578125 55.875 
Q 39.703125 55.765625 41.0625 55.515625 
z
" id="DejaVuSans-114"/>
      <path d="M 54.890625 33.015625 
L 54.890625 0 
L 45.90625 0 
L 45.90625 32.71875 
Q 45.90625 40.484375 42.875 44.328125 
Q 39.84375 48.1875 33.796875 48.1875 
Q 26.515625 48.1875 22.3125 43.546875 
Q 18.109375 38.921875 18.109375 30.90625 
L 18.109375 0 
L 9.078125 0 
L 9.078125 54.6875 
L 18.109375 54.6875 
L 18.109375 46.1875 
Q 21.34375 51.125 25.703125 53.5625 
Q 30.078125 56 35.796875 56 
Q 45.21875 56 50.046875 50.171875 
Q 54.890625 44.34375 54.890625 33.015625 
z
" id="DejaVuSans-110"/>
      <path d="M 9.421875 54.6875 
L 18.40625 54.6875 
L 18.40625 0 
L 9.421875 0 
z
M 9.421875 75.984375 
L 18.40625 75.984375 
L 18.40625 64.59375 
L 9.421875 64.59375 
z
" id="DejaVuSans-105"/>
      <path d="M 45.40625 27.984375 
Q 45.40625 37.75 41.375 43.109375 
Q 37.359375 48.484375 30.078125 48.484375 
Q 22.859375 48.484375 18.828125 43.109375 
Q 14.796875 37.75 14.796875 27.984375 
Q 14.796875 18.265625 18.828125 12.890625 
Q 22.859375 7.515625 30.078125 7.515625 
Q 37.359375 7.515625 41.375 12.890625 
Q 45.40625 18.265625 45.40625 27.984375 
z
M 54.390625 6.78125 
Q 54.390625 -7.171875 48.1875 -13.984375 
Q 42 -20.796875 29.203125 -20.796875 
Q 24.46875 -20.796875 20.265625 -20.09375 
Q 16.0625 -19.390625 12.109375 -17.921875 
L 12.109375 -9.1875 
Q 16.0625 -11.328125 19.921875 -12.34375 
Q 23.78125 -13.375 27.78125 -13.375 
Q 36.625 -13.375 41.015625 -8.765625 
Q 45.40625 -4.15625 45.40625 5.171875 
L 45.40625 9.625 
Q 42.625 4.78125 38.28125 2.390625 
Q 33.9375 0 27.875 0 
Q 17.828125 0 11.671875 7.65625 
Q 5.515625 15.328125 5.515625 27.984375 
Q 5.515625 40.671875 11.671875 48.328125 
Q 17.828125 56 27.875 56 
Q 33.9375 56 38.28125 53.609375 
Q 42.625 51.21875 45.40625 46.390625 
L 45.40625 54.6875 
L 54.390625 54.6875 
z
" id="DejaVuSans-103"/>
      <path d="M 54.890625 33.015625 
L 54.890625 0 
L 45.90625 0 
L 45.90625 32.71875 
Q 45.90625 40.484375 42.875 44.328125 
Q 39.84375 48.1875 33.796875 48.1875 
Q 26.515625 48.1875 22.3125 43.546875 
Q 18.109375 38.921875 18.109375 30.90625 
L 18.109375 0 
L 9.078125 0 
L 9.078125 75.984375 
L 18.109375 75.984375 
L 18.109375 46.1875 
Q 21.34375 51.125 25.703125 53.5625 
Q 30.078125 56 35.796875 56 
Q 45.21875 56 50.046875 50.171875 
Q 54.890625 44.34375 54.890625 33.015625 
z
" id="DejaVuSans-104"/>
      <path d="M 18.3125 70.21875 
L 18.3125 54.6875 
L 36.8125 54.6875 
L 36.8125 47.703125 
L 18.3125 47.703125 
L 18.3125 18.015625 
Q 18.3125 11.328125 20.140625 9.421875 
Q 21.96875 7.515625 27.59375 7.515625 
L 36.8125 7.515625 
L 36.8125 0 
L 27.59375 0 
Q 17.1875 0 13.234375 3.875 
Q 9.28125 7.765625 9.28125 18.015625 
L 9.28125 47.703125 
L 2.6875 47.703125 
L 2.6875 54.6875 
L 9.28125 54.6875 
L 9.28125 70.21875 
z
" id="DejaVuSans-116"/>
      <path d="M 19.671875 34.8125 
L 19.671875 8.109375 
L 35.5 8.109375 
Q 43.453125 8.109375 47.28125 11.40625 
Q 51.125 14.703125 51.125 21.484375 
Q 51.125 28.328125 47.28125 31.5625 
Q 43.453125 34.8125 35.5 34.8125 
z
M 19.671875 64.796875 
L 19.671875 42.828125 
L 34.28125 42.828125 
Q 41.5 42.828125 45.03125 45.53125 
Q 48.578125 48.25 48.578125 53.8125 
Q 48.578125 59.328125 45.03125 62.0625 
Q 41.5 64.796875 34.28125 64.796875 
z
M 9.8125 72.90625 
L 35.015625 72.90625 
Q 46.296875 72.90625 52.390625 68.21875 
Q 58.5 63.53125 58.5 54.890625 
Q 58.5 48.1875 55.375 44.234375 
Q 52.25 40.28125 46.1875 39.3125 
Q 53.46875 37.75 57.5 32.78125 
Q 61.53125 27.828125 61.53125 20.40625 
Q 61.53125 10.640625 54.890625 5.3125 
Q 48.25 0 35.984375 0 
L 9.8125 0 
z
" id="DejaVuSans-66"/>
      <path d="M 45.40625 46.390625 
L 45.40625 75.984375 
L 54.390625 75.984375 
L 54.390625 0 
L 45.40625 0 
L 45.40625 8.203125 
Q 42.578125 3.328125 38.25 0.953125 
Q 33.9375 -1.421875 27.875 -1.421875 
Q 17.96875 -1.421875 11.734375 6.484375 
Q 5.515625 14.40625 5.515625 27.296875 
Q 5.515625 40.1875 11.734375 48.09375 
Q 17.96875 56 27.875 56 
Q 33.9375 56 38.25 53.625 
Q 42.578125 51.265625 45.40625 46.390625 
z
M 14.796875 27.296875 
Q 14.796875 17.390625 18.875 11.75 
Q 22.953125 6.109375 30.078125 6.109375 
Q 37.203125 6.109375 41.296875 11.75 
Q 45.40625 17.390625 45.40625 27.296875 
Q 45.40625 37.203125 41.296875 42.84375 
Q 37.203125 48.484375 30.078125 48.484375 
Q 22.953125 48.484375 18.875 42.84375 
Q 14.796875 37.203125 14.796875 27.296875 
z
" id="DejaVuSans-100"/>
      <path d="M 44.28125 53.078125 
L 44.28125 44.578125 
Q 40.484375 46.53125 36.375 47.5 
Q 32.28125 48.484375 27.875 48.484375 
Q 21.1875 48.484375 17.84375 46.4375 
Q 14.5 44.390625 14.5 40.28125 
Q 14.5 37.15625 16.890625 35.375 
Q 19.28125 33.59375 26.515625 31.984375 
L 29.59375 31.296875 
Q 39.15625 29.25 43.1875 25.515625 
Q 47.21875 21.78125 47.21875 15.09375 
Q 47.21875 7.46875 41.1875 3.015625 
Q 35.15625 -1.421875 24.609375 -1.421875 
Q 20.21875 -1.421875 15.453125 -0.5625 
Q 10.6875 0.296875 5.421875 2 
L 5.421875 11.28125 
Q 10.40625 8.6875 15.234375 7.390625 
Q 20.0625 6.109375 24.8125 6.109375 
Q 31.15625 6.109375 34.5625 8.28125 
Q 37.984375 10.453125 37.984375 14.40625 
Q 37.984375 18.0625 35.515625 20.015625 
Q 33.0625 21.96875 24.703125 23.78125 
L 21.578125 24.515625 
Q 13.234375 26.265625 9.515625 29.90625 
Q 5.8125 33.546875 5.8125 39.890625 
Q 5.8125 47.609375 11.28125 51.796875 
Q 16.75 56 26.8125 56 
Q 31.78125 56 36.171875 55.265625 
Q 40.578125 54.546875 44.28125 53.078125 
z
" id="DejaVuSans-115"/>
     </defs>
     <g transform="translate(17.837812 187.25)rotate(-90)scale(0.14 -0.14)">
      <use xlink:href="#DejaVuSans-35"/>
      <use x="83.789062" xlink:href="#DejaVuSans-32"/>
      <use x="115.576172" xlink:href="#DejaVuSans-111"/>
      <use x="176.757812" xlink:href="#DejaVuSans-102"/>
      <use x="211.962891" xlink:href="#DejaVuSans-32"/>
      <use x="243.75" xlink:href="#DejaVuSans-79"/>
      <use x="322.460938" xlink:href="#DejaVuSans-118"/>
      <use x="381.640625" xlink:href="#DejaVuSans-101"/>
      <use x="443.164062" xlink:href="#DejaVuSans-114"/>
      <use x="484.261719" xlink:href="#DejaVuSans-110"/>
      <use x="547.640625" xlink:href="#DejaVuSans-105"/>
      <use x="575.423828" xlink:href="#DejaVuSans-103"/>
      <use x="638.900391" xlink:href="#DejaVuSans-104"/>
      <use x="702.279297" xlink:href="#DejaVuSans-116"/>
      <use x="741.488281" xlink:href="#DejaVuSans-32"/>
      <use x="773.275391" xlink:href="#DejaVuSans-66"/>
      <use x="841.878906" xlink:href="#DejaVuSans-101"/>
      <use x="903.402344" xlink:href="#DejaVuSans-100"/>
      <use x="966.878906" xlink:href="#DejaVuSans-115"/>
     </g>
    </g>
   </g>
  </g>
 </g>
 <defs>
  <clipPath id="p49befe4382">
   <rect height="203.6994" width="334.8" x="70.749375" y="7.2"/>
  </clipPath>
  <clipPath id="pa76e3e2f69">
   <rect height="5.377523" width="334.8" x="70.749375" y="219.262477"/>
  </clipPath>
 </defs>
</svg>
