<?xml version="1.0" encoding="utf-8" standalone="no"?>
<!DOCTYPE svg PUBLIC "-//W3C//DTD SVG 1.1//EN"
  "http://www.w3.org/Graphics/SVG/1.1/DTD/svg11.dtd">
<svg height="252.389375pt" version="1.1" viewBox="0 0 426.798858 252.389375" width="426.798858pt" xmlns="http://www.w3.org/2000/svg" xmlns:xlink="http://www.w3.org/1999/xlink">
 <metadata>
  <rdf:RDF xmlns:cc="http://creativecommons.org/ns#" xmlns:dc="http://purl.org/dc/elements/1.1/" xmlns:rdf="http://www.w3.org/1999/02/22-rdf-syntax-ns#">
   <cc:Work>
    <dc:type rdf:resource="http://purl.org/dc/dcmitype/StillImage"/>
    <dc:date>2022-01-26T19:40:01.247381</dc:date>
    <dc:format>image/svg+xml</dc:format>
    <dc:creator>
     <cc:Agent>
      <dc:title>Matplotlib v3.4.3, https://matplotlib.org/</dc:title>
     </cc:Agent>
    </dc:creator>
   </cc:Work>
  </rdf:RDF>
 </metadata>
 <defs>
  <style type="text/css">*{stroke-linecap:butt;stroke-linejoin:round;}</style>
 </defs>
 <g id="figure_1">
  <g id="patch_1">
   <path d="M 0 252.389375 
L 426.798858 252.389375 
L 426.798858 0 
L 0 0 
z
" style="fill:none;"/>
  </g>
  <g id="axes_1">
   <g id="patch_2">
    <path d="M 70.749375 212.779818 
L 405.549375 212.779818 
L 405.549375 7.2 
L 70.749375 7.2 
z
" style="fill:#ffffff;"/>
   </g>
   <g id="patch_3">
    <path clip-path="url(#pa6ecc100bd)" d="M 385.507996 720.609429 
L 390.473513 720.609429 
L 390.473513 164.81952 
L 385.507996 164.81952 
z
" style="fill:#0072ce;"/>
   </g>
   <g id="patch_4">
    <path clip-path="url(#pa6ecc100bd)" d="M 378.611444 720.609429 
L 383.576961 720.609429 
L 383.576961 137.342266 
L 378.611444 137.342266 
z
" style="fill:#0072ce;"/>
   </g>
   <g id="patch_5">
    <path clip-path="url(#pa6ecc100bd)" d="M 371.714892 720.609429 
L 376.680409 720.609429 
L 376.680409 137.342266 
L 371.714892 137.342266 
z
" style="fill:#0072ce;"/>
   </g>
   <g id="patch_6">
    <path clip-path="url(#pa6ecc100bd)" d="M 364.818341 720.609429 
L 369.783858 720.609429 
L 369.783858 137.342266 
L 364.818341 137.342266 
z
" style="fill:#0072ce;"/>
   </g>
   <g id="patch_7">
    <path clip-path="url(#pa6ecc100bd)" d="M 357.921789 720.609429 
L 362.887306 720.609429 
L 362.887306 137.342266 
L 357.921789 137.342266 
z
" style="fill:#0072ce;"/>
   </g>
   <g id="patch_8">
    <path clip-path="url(#pa6ecc100bd)" d="M 351.025237 720.609429 
L 355.990754 720.609429 
L 355.990754 173.562283 
L 351.025237 173.562283 
z
" style="fill:#0072ce;"/>
   </g>
   <g id="patch_9">
    <path clip-path="url(#pa6ecc100bd)" d="M 344.128685 720.609429 
L 349.094203 720.609429 
L 349.094203 118.607775 
L 344.128685 118.607775 
z
" style="fill:#0072ce;"/>
   </g>
   <g id="patch_10">
    <path clip-path="url(#pa6ecc100bd)" d="M 337.232134 720.609429 
L 342.197651 720.609429 
L 342.197651 118.607775 
L 337.232134 118.607775 
z
" style="fill:#0072ce;"/>
   </g>
   <g id="patch_11">
    <path clip-path="url(#pa6ecc100bd)" d="M 330.335582 720.609429 
L 335.301099 720.609429 
L 335.301099 118.607775 
L 330.335582 118.607775 
z
" style="fill:#0072ce;"/>
   </g>
   <g id="patch_12">
    <path clip-path="url(#pa6ecc100bd)" d="M 323.43903 720.609429 
L 328.404547 720.609429 
L 328.404547 118.607775 
L 323.43903 118.607775 
z
" style="fill:#0072ce;"/>
   </g>
   <g id="patch_13">
    <path clip-path="url(#pa6ecc100bd)" d="M 316.542478 720.609429 
L 321.507996 720.609429 
L 321.507996 116.109843 
L 316.542478 116.109843 
z
" style="fill:#0072ce;"/>
   </g>
   <g id="patch_14">
    <path clip-path="url(#pa6ecc100bd)" d="M 309.645927 720.609429 
L 314.611444 720.609429 
L 314.611444 154.827792 
L 309.645927 154.827792 
z
" style="fill:#0072ce;"/>
   </g>
   <g id="patch_15">
    <path clip-path="url(#pa6ecc100bd)" d="M 302.749375 720.609429 
L 307.714892 720.609429 
L 307.714892 143.587097 
L 302.749375 143.587097 
z
" style="fill:#0072ce;"/>
   </g>
   <g id="patch_16">
    <path clip-path="url(#pa6ecc100bd)" d="M 295.852823 720.609429 
L 300.818341 720.609429 
L 300.818341 102.371216 
L 295.852823 102.371216 
z
" style="fill:#0072ce;"/>
   </g>
   <g id="patch_17">
    <path clip-path="url(#pa6ecc100bd)" d="M 288.956272 720.609429 
L 293.921789 720.609429 
L 293.921789 23.686352 
L 288.956272 23.686352 
z
" style="fill:#0072ce;"/>
   </g>
   <g id="patch_18">
    <path clip-path="url(#pa6ecc100bd)" d="M 282.05972 720.609429 
L 287.025237 720.609429 
L 287.025237 21.18842 
L 282.05972 21.18842 
z
" style="fill:#0072ce;"/>
   </g>
   <g id="patch_19">
    <path clip-path="url(#pa6ecc100bd)" d="M 275.163168 720.609429 
L 280.128685 720.609429 
L 280.128685 42.420844 
L 275.163168 42.420844 
z
" style="fill:#0072ce;"/>
   </g>
   <g id="patch_20">
    <path clip-path="url(#pa6ecc100bd)" d="M 268.266616 720.609429 
L 273.232134 720.609429 
L 273.232134 44.918776 
L 268.266616 44.918776 
z
" style="fill:#0072ce;"/>
   </g>
   <g id="patch_21">
    <path clip-path="url(#pa6ecc100bd)" d="M 261.370065 720.609429 
L 266.335582 720.609429 
L 266.335582 94.877419 
L 261.370065 94.877419 
z
" style="fill:#0072ce;"/>
   </g>
   <g id="patch_22">
    <path clip-path="url(#pa6ecc100bd)" d="M 254.473513 720.609429 
L 259.43903 720.609429 
L 259.43903 74.893962 
L 254.473513 74.893962 
z
" style="fill:#0072ce;"/>
   </g>
   <g id="patch_23">
    <path clip-path="url(#pa6ecc100bd)" d="M 247.576961 720.609429 
L 252.542478 720.609429 
L 252.542478 86.134657 
L 247.576961 86.134657 
z
" style="fill:#0072ce;"/>
   </g>
   <g id="patch_24">
    <path clip-path="url(#pa6ecc100bd)" d="M 240.680409 720.609429 
L 245.645927 720.609429 
L 245.645927 121.105707 
L 240.680409 121.105707 
z
" style="fill:#0072ce;"/>
   </g>
   <g id="patch_25">
    <path clip-path="url(#pa6ecc100bd)" d="M 233.783858 720.609429 
L 238.749375 720.609429 
L 238.749375 141.089165 
L 233.783858 141.089165 
z
" style="fill:#0072ce;"/>
   </g>
   <g id="patch_26">
    <path clip-path="url(#pa6ecc100bd)" d="M 226.887306 720.609429 
L 231.852823 720.609429 
L 231.852823 148.582961 
L 226.887306 148.582961 
z
" style="fill:#0072ce;"/>
   </g>
   <g id="patch_27">
    <path clip-path="url(#pa6ecc100bd)" d="M 219.990754 720.609429 
L 224.956272 720.609429 
L 224.956272 134.844334 
L 219.990754 134.844334 
z
" style="fill:#0072ce;"/>
   </g>
   <g id="patch_28">
    <path clip-path="url(#pa6ecc100bd)" d="M 213.094203 720.609429 
L 218.05972 720.609429 
L 218.05972 128.599504 
L 213.094203 128.599504 
z
" style="fill:#0072ce;"/>
   </g>
   <g id="patch_29">
    <path clip-path="url(#pa6ecc100bd)" d="M 206.197651 720.609429 
L 211.163168 720.609429 
L 211.163168 113.611911 
L 206.197651 113.611911 
z
" style="fill:#0072ce;"/>
   </g>
   <g id="patch_30">
    <path clip-path="url(#pa6ecc100bd)" d="M 192.404547 720.609429 
L 197.370065 720.609429 
L 197.370065 106.118114 
L 192.404547 106.118114 
z
" style="fill:#0072ce;"/>
   </g>
   <g id="patch_31">
    <path clip-path="url(#pa6ecc100bd)" d="M 178.611444 720.609429 
L 183.576961 720.609429 
L 183.576961 94.877419 
L 178.611444 94.877419 
z
" style="fill:#0072ce;"/>
   </g>
   <g id="patch_32">
    <path clip-path="url(#pa6ecc100bd)" d="M 171.714892 720.609429 
L 176.680409 720.609429 
L 176.680409 163.570554 
L 171.714892 163.570554 
z
" style="fill:#0072ce;"/>
   </g>
   <g id="patch_33">
    <path clip-path="url(#pa6ecc100bd)" d="M 164.818341 720.609429 
L 169.783858 720.609429 
L 169.783858 156.076758 
L 164.818341 156.076758 
z
" style="fill:#0072ce;"/>
   </g>
   <g id="patch_34">
    <path clip-path="url(#pa6ecc100bd)" d="M 157.921789 720.609429 
L 162.887306 720.609429 
L 162.887306 156.076758 
L 157.921789 156.076758 
z
" style="fill:#0072ce;"/>
   </g>
   <g id="patch_35">
    <path clip-path="url(#pa6ecc100bd)" d="M 151.025237 720.609429 
L 155.990754 720.609429 
L 155.990754 151.080893 
L 151.025237 151.080893 
z
" style="fill:#0072ce;"/>
   </g>
   <g id="patch_36">
    <path clip-path="url(#pa6ecc100bd)" d="M 144.128685 720.609429 
L 149.094203 720.609429 
L 149.094203 176.060215 
L 144.128685 176.060215 
z
" style="fill:#0072ce;"/>
   </g>
   <g id="patch_37">
    <path clip-path="url(#pa6ecc100bd)" d="M 137.232134 720.609429 
L 142.197651 720.609429 
L 142.197651 186.051944 
L 137.232134 186.051944 
z
" style="fill:#0072ce;"/>
   </g>
   <g id="patch_38">
    <path clip-path="url(#pa6ecc100bd)" d="M 130.335582 720.609429 
L 135.301099 720.609429 
L 135.301099 177.309181 
L 130.335582 177.309181 
z
" style="fill:#0072ce;"/>
   </g>
   <g id="patch_39">
    <path clip-path="url(#pa6ecc100bd)" d="M 123.43903 720.609429 
L 128.404547 720.609429 
L 128.404547 134.844334 
L 123.43903 134.844334 
z
" style="fill:#0072ce;"/>
   </g>
   <g id="patch_40">
    <path clip-path="url(#pa6ecc100bd)" d="M 116.542478 720.609429 
L 121.507996 720.609429 
L 121.507996 138.591232 
L 116.542478 138.591232 
z
" style="fill:#0072ce;"/>
   </g>
   <g id="patch_41">
    <path clip-path="url(#pa6ecc100bd)" d="M 109.645927 720.609429 
L 114.611444 720.609429 
L 114.611444 131.097436 
L 109.645927 131.097436 
z
" style="fill:#0072ce;"/>
   </g>
   <g id="patch_42">
    <path clip-path="url(#pa6ecc100bd)" d="M 102.749375 720.609429 
L 107.714892 720.609429 
L 107.714892 131.097436 
L 102.749375 131.097436 
z
" style="fill:#0072ce;"/>
   </g>
   <g id="patch_43">
    <path clip-path="url(#pa6ecc100bd)" d="M 95.852823 720.609429 
L 100.818341 720.609429 
L 100.818341 138.591232 
L 95.852823 138.591232 
z
" style="fill:#0072ce;"/>
   </g>
   <g id="patch_44">
    <path clip-path="url(#pa6ecc100bd)" d="M 88.956272 720.609429 
L 93.921789 720.609429 
L 93.921789 139.840199 
L 88.956272 139.840199 
z
" style="fill:#0072ce;"/>
   </g>
   <g id="matplotlib.axis_1">
    <g id="xtick_1"/>
    <g id="xtick_2"/>
    <g id="xtick_3"/>
    <g id="xtick_4"/>
    <g id="xtick_5"/>
    <g id="xtick_6"/>
    <g id="xtick_7"/>
   </g>
   <g id="matplotlib.axis_2">
    <g id="ytick_1">
     <g id="line2d_1">
      <defs>
       <path d="M 0 0 
L -3.5 0 
" id="mee94c8c30f" style="stroke:#000000;stroke-width:0.8;"/>
      </defs>
      <g>
       <use style="stroke:#000000;stroke-width:0.8;" x="70.749375" xlink:href="#mee94c8c30f" y="189.798842"/>
      </g>
     </g>
     <g id="text_1">
      <!-- 425 -->
      <g transform="translate(37.026875 195.117748)scale(0.14 -0.14)">
       <defs>
        <path d="M 2419 4116 
L 825 1625 
L 2419 1625 
L 2419 4116 
z
M 2253 4666 
L 3047 4666 
L 3047 1625 
L 3713 1625 
L 3713 1100 
L 3047 1100 
L 3047 0 
L 2419 0 
L 2419 1100 
L 313 1100 
L 313 1709 
L 2253 4666 
z
" id="DejaVuSans-34" transform="scale(0.015625)"/>
        <path d="M 1228 531 
L 3431 531 
L 3431 0 
L 469 0 
L 469 531 
Q 828 903 1448 1529 
Q 2069 2156 2228 2338 
Q 2531 2678 2651 2914 
Q 2772 3150 2772 3378 
Q 2772 3750 2511 3984 
Q 2250 4219 1831 4219 
Q 1534 4219 1204 4116 
Q 875 4013 500 3803 
L 500 4441 
Q 881 4594 1212 4672 
Q 1544 4750 1819 4750 
Q 2544 4750 2975 4387 
Q 3406 4025 3406 3419 
Q 3406 3131 3298 2873 
Q 3191 2616 2906 2266 
Q 2828 2175 2409 1742 
Q 1991 1309 1228 531 
z
" id="DejaVuSans-32" transform="scale(0.015625)"/>
        <path d="M 691 4666 
L 3169 4666 
L 3169 4134 
L 1269 4134 
L 1269 2991 
Q 1406 3038 1543 3061 
Q 1681 3084 1819 3084 
Q 2600 3084 3056 2656 
Q 3513 2228 3513 1497 
Q 3513 744 3044 326 
Q 2575 -91 1722 -91 
Q 1428 -91 1123 -41 
Q 819 9 494 109 
L 494 744 
Q 775 591 1075 516 
Q 1375 441 1709 441 
Q 2250 441 2565 725 
Q 2881 1009 2881 1497 
Q 2881 1984 2565 2268 
Q 2250 2553 1709 2553 
Q 1456 2553 1204 2497 
Q 953 2441 691 2322 
L 691 4666 
z
" id="DejaVuSans-35" transform="scale(0.015625)"/>
       </defs>
       <use xlink:href="#DejaVuSans-34"/>
       <use x="63.623047" xlink:href="#DejaVuSans-32"/>
       <use x="127.246094" xlink:href="#DejaVuSans-35"/>
      </g>
     </g>
    </g>
    <g id="ytick_2">
     <g id="line2d_2">
      <g>
       <use style="stroke:#000000;stroke-width:0.8;" x="70.749375" xlink:href="#mee94c8c30f" y="158.57469"/>
      </g>
     </g>
     <g id="text_2">
      <!-- 450 -->
      <g transform="translate(37.026875 163.893596)scale(0.14 -0.14)">
       <defs>
        <path d="M 2034 4250 
Q 1547 4250 1301 3770 
Q 1056 3291 1056 2328 
Q 1056 1369 1301 889 
Q 1547 409 2034 409 
Q 2525 409 2770 889 
Q 3016 1369 3016 2328 
Q 3016 3291 2770 3770 
Q 2525 4250 2034 4250 
z
M 2034 4750 
Q 2819 4750 3233 4129 
Q 3647 3509 3647 2328 
Q 3647 1150 3233 529 
Q 2819 -91 2034 -91 
Q 1250 -91 836 529 
Q 422 1150 422 2328 
Q 422 3509 836 4129 
Q 1250 4750 2034 4750 
z
" id="DejaVuSans-30" transform="scale(0.015625)"/>
       </defs>
       <use xlink:href="#DejaVuSans-34"/>
       <use x="63.623047" xlink:href="#DejaVuSans-35"/>
       <use x="127.246094" xlink:href="#DejaVuSans-30"/>
      </g>
     </g>
    </g>
    <g id="ytick_3">
     <g id="line2d_3">
      <g>
       <use style="stroke:#000000;stroke-width:0.8;" x="70.749375" xlink:href="#mee94c8c30f" y="127.350538"/>
      </g>
     </g>
     <g id="text_3">
      <!-- 475 -->
      <g transform="translate(37.026875 132.669444)scale(0.14 -0.14)">
       <defs>
        <path d="M 525 4666 
L 3525 4666 
L 3525 4397 
L 1831 0 
L 1172 0 
L 2766 4134 
L 525 4134 
L 525 4666 
z
" id="DejaVuSans-37" transform="scale(0.015625)"/>
       </defs>
       <use xlink:href="#DejaVuSans-34"/>
       <use x="63.623047" xlink:href="#DejaVuSans-37"/>
       <use x="127.246094" xlink:href="#DejaVuSans-35"/>
      </g>
     </g>
    </g>
    <g id="ytick_4">
     <g id="line2d_4">
      <g>
       <use style="stroke:#000000;stroke-width:0.8;" x="70.749375" xlink:href="#mee94c8c30f" y="96.126385"/>
      </g>
     </g>
     <g id="text_4">
      <!-- 500 -->
      <g transform="translate(37.026875 101.445292)scale(0.14 -0.14)">
       <use xlink:href="#DejaVuSans-35"/>
       <use x="63.623047" xlink:href="#DejaVuSans-30"/>
       <use x="127.246094" xlink:href="#DejaVuSans-30"/>
      </g>
     </g>
    </g>
    <g id="ytick_5">
     <g id="line2d_5">
      <g>
       <use style="stroke:#000000;stroke-width:0.8;" x="70.749375" xlink:href="#mee94c8c30f" y="64.902233"/>
      </g>
     </g>
     <g id="text_5">
      <!-- 525 -->
      <g transform="translate(37.026875 70.22114)scale(0.14 -0.14)">
       <use xlink:href="#DejaVuSans-35"/>
       <use x="63.623047" xlink:href="#DejaVuSans-32"/>
       <use x="127.246094" xlink:href="#DejaVuSans-35"/>
      </g>
     </g>
    </g>
    <g id="ytick_6">
     <g id="line2d_6">
      <g>
       <use style="stroke:#000000;stroke-width:0.8;" x="70.749375" xlink:href="#mee94c8c30f" y="33.678081"/>
      </g>
     </g>
     <g id="text_6">
      <!-- 550 -->
      <g transform="translate(37.026875 38.996987)scale(0.14 -0.14)">
       <use xlink:href="#DejaVuSans-35"/>
       <use x="63.623047" xlink:href="#DejaVuSans-35"/>
       <use x="127.246094" xlink:href="#DejaVuSans-30"/>
      </g>
     </g>
    </g>
   </g>
   <g id="line2d_7">
    <path d="M 66.167323 217.36187 
L 75.331427 208.197766 
" style="fill:none;stroke:#000000;stroke-linecap:square;stroke-width:0.8;"/>
   </g>
   <g id="patch_45">
    <path d="M 70.749375 212.779818 
L 70.749375 7.2 
" style="fill:none;stroke:#000000;stroke-linecap:square;stroke-linejoin:miter;stroke-width:0.8;"/>
   </g>
  </g>
  <g id="axes_2">
   <g id="patch_46">
    <path d="M 70.749375 224.64 
L 405.549375 224.64 
L 405.549375 221.142895 
L 70.749375 221.142895 
z
" style="fill:#ffffff;"/>
   </g>
   <g id="patch_47">
    <path clip-path="url(#pb4cd5c747a)" d="M 385.507996 224.64 
L 390.473513 224.64 
L 390.473513 -331.149909 
L 385.507996 -331.149909 
z
" style="fill:#0072ce;"/>
   </g>
   <g id="patch_48">
    <path clip-path="url(#pb4cd5c747a)" d="M 378.611444 224.64 
L 383.576961 224.64 
L 383.576961 -358.627163 
L 378.611444 -358.627163 
z
" style="fill:#0072ce;"/>
   </g>
   <g id="patch_49">
    <path clip-path="url(#pb4cd5c747a)" d="M 371.714892 224.64 
L 376.680409 224.64 
L 376.680409 -358.627163 
L 371.714892 -358.627163 
z
" style="fill:#0072ce;"/>
   </g>
   <g id="patch_50">
    <path clip-path="url(#pb4cd5c747a)" d="M 364.818341 224.64 
L 369.783858 224.64 
L 369.783858 -358.627163 
L 364.818341 -358.627163 
z
" style="fill:#0072ce;"/>
   </g>
   <g id="patch_51">
    <path clip-path="url(#pb4cd5c747a)" d="M 357.921789 224.64 
L 362.887306 224.64 
L 362.887306 -358.627163 
L 357.921789 -358.627163 
z
" style="fill:#0072ce;"/>
   </g>
   <g id="patch_52">
    <path clip-path="url(#pb4cd5c747a)" d="M 351.025237 224.64 
L 355.990754 224.64 
L 355.990754 -322.407146 
L 351.025237 -322.407146 
z
" style="fill:#0072ce;"/>
   </g>
   <g id="patch_53">
    <path clip-path="url(#pb4cd5c747a)" d="M 344.128685 224.64 
L 349.094203 224.64 
L 349.094203 -377.361654 
L 344.128685 -377.361654 
z
" style="fill:#0072ce;"/>
   </g>
   <g id="patch_54">
    <path clip-path="url(#pb4cd5c747a)" d="M 337.232134 224.64 
L 342.197651 224.64 
L 342.197651 -377.361654 
L 337.232134 -377.361654 
z
" style="fill:#0072ce;"/>
   </g>
   <g id="patch_55">
    <path clip-path="url(#pb4cd5c747a)" d="M 330.335582 224.64 
L 335.301099 224.64 
L 335.301099 -377.361654 
L 330.335582 -377.361654 
z
" style="fill:#0072ce;"/>
   </g>
   <g id="patch_56">
    <path clip-path="url(#pb4cd5c747a)" d="M 323.43903 224.64 
L 328.404547 224.64 
L 328.404547 -377.361654 
L 323.43903 -377.361654 
z
" style="fill:#0072ce;"/>
   </g>
   <g id="patch_57">
    <path clip-path="url(#pb4cd5c747a)" d="M 316.542478 224.64 
L 321.507996 224.64 
L 321.507996 -379.859586 
L 316.542478 -379.859586 
z
" style="fill:#0072ce;"/>
   </g>
   <g id="patch_58">
    <path clip-path="url(#pb4cd5c747a)" d="M 309.645927 224.64 
L 314.611444 224.64 
L 314.611444 -341.141638 
L 309.645927 -341.141638 
z
" style="fill:#0072ce;"/>
   </g>
   <g id="patch_59">
    <path clip-path="url(#pb4cd5c747a)" d="M 302.749375 224.64 
L 307.714892 224.64 
L 307.714892 -352.382333 
L 302.749375 -352.382333 
z
" style="fill:#0072ce;"/>
   </g>
   <g id="patch_60">
    <path clip-path="url(#pb4cd5c747a)" d="M 295.852823 224.64 
L 300.818341 224.64 
L 300.818341 -393.598213 
L 295.852823 -393.598213 
z
" style="fill:#0072ce;"/>
   </g>
   <g id="patch_61">
    <path clip-path="url(#pb4cd5c747a)" d="M 288.956272 224.64 
L 293.921789 224.64 
L 293.921789 -472.283077 
L 288.956272 -472.283077 
z
" style="fill:#0072ce;"/>
   </g>
   <g id="patch_62">
    <path clip-path="url(#pb4cd5c747a)" d="M 282.05972 224.64 
L 287.025237 224.64 
L 287.025237 -474.781009 
L 282.05972 -474.781009 
z
" style="fill:#0072ce;"/>
   </g>
   <g id="patch_63">
    <path clip-path="url(#pb4cd5c747a)" d="M 275.163168 224.64 
L 280.128685 224.64 
L 280.128685 -453.548586 
L 275.163168 -453.548586 
z
" style="fill:#0072ce;"/>
   </g>
   <g id="patch_64">
    <path clip-path="url(#pb4cd5c747a)" d="M 268.266616 224.64 
L 273.232134 224.64 
L 273.232134 -451.050653 
L 268.266616 -451.050653 
z
" style="fill:#0072ce;"/>
   </g>
   <g id="patch_65">
    <path clip-path="url(#pb4cd5c747a)" d="M 261.370065 224.64 
L 266.335582 224.64 
L 266.335582 -401.09201 
L 261.370065 -401.09201 
z
" style="fill:#0072ce;"/>
   </g>
   <g id="patch_66">
    <path clip-path="url(#pb4cd5c747a)" d="M 254.473513 224.64 
L 259.43903 224.64 
L 259.43903 -421.075467 
L 254.473513 -421.075467 
z
" style="fill:#0072ce;"/>
   </g>
   <g id="patch_67">
    <path clip-path="url(#pb4cd5c747a)" d="M 247.576961 224.64 
L 252.542478 224.64 
L 252.542478 -409.834773 
L 247.576961 -409.834773 
z
" style="fill:#0072ce;"/>
   </g>
   <g id="patch_68">
    <path clip-path="url(#pb4cd5c747a)" d="M 240.680409 224.64 
L 245.645927 224.64 
L 245.645927 -374.863722 
L 240.680409 -374.863722 
z
" style="fill:#0072ce;"/>
   </g>
   <g id="patch_69">
    <path clip-path="url(#pb4cd5c747a)" d="M 233.783858 224.64 
L 238.749375 224.64 
L 238.749375 -354.880265 
L 233.783858 -354.880265 
z
" style="fill:#0072ce;"/>
   </g>
   <g id="patch_70">
    <path clip-path="url(#pb4cd5c747a)" d="M 226.887306 224.64 
L 231.852823 224.64 
L 231.852823 -347.386468 
L 226.887306 -347.386468 
z
" style="fill:#0072ce;"/>
   </g>
   <g id="patch_71">
    <path clip-path="url(#pb4cd5c747a)" d="M 219.990754 224.64 
L 224.956272 224.64 
L 224.956272 -361.125095 
L 219.990754 -361.125095 
z
" style="fill:#0072ce;"/>
   </g>
   <g id="patch_72">
    <path clip-path="url(#pb4cd5c747a)" d="M 213.094203 224.64 
L 218.05972 224.64 
L 218.05972 -367.369926 
L 213.094203 -367.369926 
z
" style="fill:#0072ce;"/>
   </g>
   <g id="patch_73">
    <path clip-path="url(#pb4cd5c747a)" d="M 206.197651 224.64 
L 211.163168 224.64 
L 211.163168 -382.357519 
L 206.197651 -382.357519 
z
" style="fill:#0072ce;"/>
   </g>
   <g id="patch_74">
    <path clip-path="url(#pb4cd5c747a)" d="M 192.404547 224.64 
L 197.370065 224.64 
L 197.370065 -389.851315 
L 192.404547 -389.851315 
z
" style="fill:#0072ce;"/>
   </g>
   <g id="patch_75">
    <path clip-path="url(#pb4cd5c747a)" d="M 178.611444 224.64 
L 183.576961 224.64 
L 183.576961 -401.09201 
L 178.611444 -401.09201 
z
" style="fill:#0072ce;"/>
   </g>
   <g id="patch_76">
    <path clip-path="url(#pb4cd5c747a)" d="M 171.714892 224.64 
L 176.680409 224.64 
L 176.680409 -332.398875 
L 171.714892 -332.398875 
z
" style="fill:#0072ce;"/>
   </g>
   <g id="patch_77">
    <path clip-path="url(#pb4cd5c747a)" d="M 164.818341 224.64 
L 169.783858 224.64 
L 169.783858 -339.892672 
L 164.818341 -339.892672 
z
" style="fill:#0072ce;"/>
   </g>
   <g id="patch_78">
    <path clip-path="url(#pb4cd5c747a)" d="M 157.921789 224.64 
L 162.887306 224.64 
L 162.887306 -339.892672 
L 157.921789 -339.892672 
z
" style="fill:#0072ce;"/>
   </g>
   <g id="patch_79">
    <path clip-path="url(#pb4cd5c747a)" d="M 151.025237 224.64 
L 155.990754 224.64 
L 155.990754 -344.888536 
L 151.025237 -344.888536 
z
" style="fill:#0072ce;"/>
   </g>
   <g id="patch_80">
    <path clip-path="url(#pb4cd5c747a)" d="M 144.128685 224.64 
L 149.094203 224.64 
L 149.094203 -319.909214 
L 144.128685 -319.909214 
z
" style="fill:#0072ce;"/>
   </g>
   <g id="patch_81">
    <path clip-path="url(#pb4cd5c747a)" d="M 137.232134 224.64 
L 142.197651 224.64 
L 142.197651 -309.917486 
L 137.232134 -309.917486 
z
" style="fill:#0072ce;"/>
   </g>
   <g id="patch_82">
    <path clip-path="url(#pb4cd5c747a)" d="M 130.335582 224.64 
L 135.301099 224.64 
L 135.301099 -318.660248 
L 130.335582 -318.660248 
z
" style="fill:#0072ce;"/>
   </g>
   <g id="patch_83">
    <path clip-path="url(#pb4cd5c747a)" d="M 123.43903 224.64 
L 128.404547 224.64 
L 128.404547 -361.125095 
L 123.43903 -361.125095 
z
" style="fill:#0072ce;"/>
   </g>
   <g id="patch_84">
    <path clip-path="url(#pb4cd5c747a)" d="M 116.542478 224.64 
L 121.507996 224.64 
L 121.507996 -357.378197 
L 116.542478 -357.378197 
z
" style="fill:#0072ce;"/>
   </g>
   <g id="patch_85">
    <path clip-path="url(#pb4cd5c747a)" d="M 109.645927 224.64 
L 114.611444 224.64 
L 114.611444 -364.871993 
L 109.645927 -364.871993 
z
" style="fill:#0072ce;"/>
   </g>
   <g id="patch_86">
    <path clip-path="url(#pb4cd5c747a)" d="M 102.749375 224.64 
L 107.714892 224.64 
L 107.714892 -364.871993 
L 102.749375 -364.871993 
z
" style="fill:#0072ce;"/>
   </g>
   <g id="patch_87">
    <path clip-path="url(#pb4cd5c747a)" d="M 95.852823 224.64 
L 100.818341 224.64 
L 100.818341 -357.378197 
L 95.852823 -357.378197 
z
" style="fill:#0072ce;"/>
   </g>
   <g id="patch_88">
    <path clip-path="url(#pb4cd5c747a)" d="M 88.956272 224.64 
L 93.921789 224.64 
L 93.921789 -356.129231 
L 88.956272 -356.129231 
z
" style="fill:#0072ce;"/>
   </g>
   <g id="matplotlib.axis_3">
    <g id="xtick_8">
     <g id="line2d_8">
      <defs>
       <path d="M 0 0 
L 0 3.5 
" id="m7401eecf4a" style="stroke:#000000;stroke-width:0.8;"/>
      </defs>
      <g>
       <use style="stroke:#000000;stroke-width:0.8;" x="70.749375" xlink:href="#m7401eecf4a" y="224.64"/>
      </g>
     </g>
     <g id="text_7">
      <!-- 2010 -->
      <g transform="translate(52.934375 242.277812)scale(0.14 -0.14)">
       <defs>
        <path d="M 794 531 
L 1825 531 
L 1825 4091 
L 703 3866 
L 703 4441 
L 1819 4666 
L 2450 4666 
L 2450 531 
L 3481 531 
L 3481 0 
L 794 0 
L 794 531 
z
" id="DejaVuSans-31" transform="scale(0.015625)"/>
       </defs>
       <use xlink:href="#DejaVuSans-32"/>
       <use x="63.623047" xlink:href="#DejaVuSans-30"/>
       <use x="127.246094" xlink:href="#DejaVuSans-31"/>
       <use x="190.869141" xlink:href="#DejaVuSans-30"/>
      </g>
     </g>
    </g>
    <g id="xtick_9">
     <g id="line2d_9">
      <g>
       <use style="stroke:#000000;stroke-width:0.8;" x="125.921789" xlink:href="#m7401eecf4a" y="224.64"/>
      </g>
     </g>
     <g id="text_8">
      <!-- 2012 -->
      <g transform="translate(108.106789 242.277812)scale(0.14 -0.14)">
       <use xlink:href="#DejaVuSans-32"/>
       <use x="63.623047" xlink:href="#DejaVuSans-30"/>
       <use x="127.246094" xlink:href="#DejaVuSans-31"/>
       <use x="190.869141" xlink:href="#DejaVuSans-32"/>
      </g>
     </g>
    </g>
    <g id="xtick_10">
     <g id="line2d_10">
      <g>
       <use style="stroke:#000000;stroke-width:0.8;" x="181.094203" xlink:href="#m7401eecf4a" y="224.64"/>
      </g>
     </g>
     <g id="text_9">
      <!-- 2014 -->
      <g transform="translate(163.279203 242.277812)scale(0.14 -0.14)">
       <use xlink:href="#DejaVuSans-32"/>
       <use x="63.623047" xlink:href="#DejaVuSans-30"/>
       <use x="127.246094" xlink:href="#DejaVuSans-31"/>
       <use x="190.869141" xlink:href="#DejaVuSans-34"/>
      </g>
     </g>
    </g>
    <g id="xtick_11">
     <g id="line2d_11">
      <g>
       <use style="stroke:#000000;stroke-width:0.8;" x="236.266616" xlink:href="#m7401eecf4a" y="224.64"/>
      </g>
     </g>
     <g id="text_10">
      <!-- 2016 -->
      <g transform="translate(218.451616 242.277812)scale(0.14 -0.14)">
       <defs>
        <path d="M 2113 2584 
Q 1688 2584 1439 2293 
Q 1191 2003 1191 1497 
Q 1191 994 1439 701 
Q 1688 409 2113 409 
Q 2538 409 2786 701 
Q 3034 994 3034 1497 
Q 3034 2003 2786 2293 
Q 2538 2584 2113 2584 
z
M 3366 4563 
L 3366 3988 
Q 3128 4100 2886 4159 
Q 2644 4219 2406 4219 
Q 1781 4219 1451 3797 
Q 1122 3375 1075 2522 
Q 1259 2794 1537 2939 
Q 1816 3084 2150 3084 
Q 2853 3084 3261 2657 
Q 3669 2231 3669 1497 
Q 3669 778 3244 343 
Q 2819 -91 2113 -91 
Q 1303 -91 875 529 
Q 447 1150 447 2328 
Q 447 3434 972 4092 
Q 1497 4750 2381 4750 
Q 2619 4750 2861 4703 
Q 3103 4656 3366 4563 
z
" id="DejaVuSans-36" transform="scale(0.015625)"/>
       </defs>
       <use xlink:href="#DejaVuSans-32"/>
       <use x="63.623047" xlink:href="#DejaVuSans-30"/>
       <use x="127.246094" xlink:href="#DejaVuSans-31"/>
       <use x="190.869141" xlink:href="#DejaVuSans-36"/>
      </g>
     </g>
    </g>
    <g id="xtick_12">
     <g id="line2d_12">
      <g>
       <use style="stroke:#000000;stroke-width:0.8;" x="291.43903" xlink:href="#m7401eecf4a" y="224.64"/>
      </g>
     </g>
     <g id="text_11">
      <!-- 2018 -->
      <g transform="translate(273.62403 242.277812)scale(0.14 -0.14)">
       <defs>
        <path d="M 2034 2216 
Q 1584 2216 1326 1975 
Q 1069 1734 1069 1313 
Q 1069 891 1326 650 
Q 1584 409 2034 409 
Q 2484 409 2743 651 
Q 3003 894 3003 1313 
Q 3003 1734 2745 1975 
Q 2488 2216 2034 2216 
z
M 1403 2484 
Q 997 2584 770 2862 
Q 544 3141 544 3541 
Q 544 4100 942 4425 
Q 1341 4750 2034 4750 
Q 2731 4750 3128 4425 
Q 3525 4100 3525 3541 
Q 3525 3141 3298 2862 
Q 3072 2584 2669 2484 
Q 3125 2378 3379 2068 
Q 3634 1759 3634 1313 
Q 3634 634 3220 271 
Q 2806 -91 2034 -91 
Q 1263 -91 848 271 
Q 434 634 434 1313 
Q 434 1759 690 2068 
Q 947 2378 1403 2484 
z
M 1172 3481 
Q 1172 3119 1398 2916 
Q 1625 2713 2034 2713 
Q 2441 2713 2670 2916 
Q 2900 3119 2900 3481 
Q 2900 3844 2670 4047 
Q 2441 4250 2034 4250 
Q 1625 4250 1398 4047 
Q 1172 3844 1172 3481 
z
" id="DejaVuSans-38" transform="scale(0.015625)"/>
       </defs>
       <use xlink:href="#DejaVuSans-32"/>
       <use x="63.623047" xlink:href="#DejaVuSans-30"/>
       <use x="127.246094" xlink:href="#DejaVuSans-31"/>
       <use x="190.869141" xlink:href="#DejaVuSans-38"/>
      </g>
     </g>
    </g>
    <g id="xtick_13">
     <g id="line2d_13">
      <g>
       <use style="stroke:#000000;stroke-width:0.8;" x="346.611444" xlink:href="#m7401eecf4a" y="224.64"/>
      </g>
     </g>
     <g id="text_12">
      <!-- 2020 -->
      <g transform="translate(328.796444 242.277812)scale(0.14 -0.14)">
       <use xlink:href="#DejaVuSans-32"/>
       <use x="63.623047" xlink:href="#DejaVuSans-30"/>
       <use x="127.246094" xlink:href="#DejaVuSans-32"/>
       <use x="190.869141" xlink:href="#DejaVuSans-30"/>
      </g>
     </g>
    </g>
    <g id="xtick_14">
     <g id="line2d_14">
      <g>
       <use style="stroke:#000000;stroke-width:0.8;" x="401.783858" xlink:href="#m7401eecf4a" y="224.64"/>
      </g>
     </g>
     <g id="text_13">
      <!-- 2022 -->
      <g transform="translate(383.968858 242.277812)scale(0.14 -0.14)">
       <use xlink:href="#DejaVuSans-32"/>
       <use x="63.623047" xlink:href="#DejaVuSans-30"/>
       <use x="127.246094" xlink:href="#DejaVuSans-32"/>
       <use x="190.869141" xlink:href="#DejaVuSans-32"/>
      </g>
     </g>
    </g>
   </g>
   <g id="matplotlib.axis_4">
    <g id="ytick_7">
     <g id="line2d_15">
      <g>
       <use style="stroke:#000000;stroke-width:0.8;" x="70.749375" xlink:href="#mee94c8c30f" y="224.64"/>
      </g>
     </g>
     <g id="text_14">
      <!-- 0 -->
      <g transform="translate(54.841875 229.958906)scale(0.14 -0.14)">
       <use xlink:href="#DejaVuSans-30"/>
      </g>
     </g>
    </g>
   </g>
   <g id="line2d_16">
    <path d="M 66.167323 225.724947 
L 75.331427 216.560843 
" style="fill:none;stroke:#000000;stroke-linecap:square;stroke-width:0.8;"/>
   </g>
   <g id="patch_89">
    <path d="M 70.749375 224.64 
L 70.749375 221.142895 
" style="fill:none;stroke:#000000;stroke-linecap:square;stroke-linejoin:miter;stroke-width:0.8;"/>
   </g>
   <g id="patch_90">
    <path d="M 70.749375 224.64 
L 405.549375 224.64 
" style="fill:none;stroke:#000000;stroke-linecap:square;stroke-linejoin:miter;stroke-width:0.8;"/>
   </g>
  </g>
  <g id="axes_3">
   <g id="patch_91">
    <path d="M 70.749375 224.64 
L 405.549375 224.64 
L 405.549375 7.2 
L 70.749375 7.2 
z
" style="fill:none;"/>
   </g>
   <g id="matplotlib.axis_5"/>
   <g id="matplotlib.axis_6">
    <g id="text_15">
     <!-- # of Overnight Beds -->
     <g transform="translate(17.837812 187.128594)rotate(-90)scale(0.14 -0.14)">
      <defs>
       <path d="M 3272 2816 
L 2363 2816 
L 2100 1772 
L 3016 1772 
L 3272 2816 
z
M 2803 4594 
L 2478 3297 
L 3391 3297 
L 3719 4594 
L 4219 4594 
L 3897 3297 
L 4872 3297 
L 4872 2816 
L 3775 2816 
L 3519 1772 
L 4513 1772 
L 4513 1294 
L 3397 1294 
L 3072 0 
L 2572 0 
L 2894 1294 
L 1978 1294 
L 1656 0 
L 1153 0 
L 1478 1294 
L 494 1294 
L 494 1772 
L 1594 1772 
L 1856 2816 
L 850 2816 
L 850 3297 
L 1978 3297 
L 2297 4594 
L 2803 4594 
z
" id="DejaVuSans-23" transform="scale(0.015625)"/>
       <path id="DejaVuSans-20" transform="scale(0.015625)"/>
       <path d="M 1959 3097 
Q 1497 3097 1228 2736 
Q 959 2375 959 1747 
Q 959 1119 1226 758 
Q 1494 397 1959 397 
Q 2419 397 2687 759 
Q 2956 1122 2956 1747 
Q 2956 2369 2687 2733 
Q 2419 3097 1959 3097 
z
M 1959 3584 
Q 2709 3584 3137 3096 
Q 3566 2609 3566 1747 
Q 3566 888 3137 398 
Q 2709 -91 1959 -91 
Q 1206 -91 779 398 
Q 353 888 353 1747 
Q 353 2609 779 3096 
Q 1206 3584 1959 3584 
z
" id="DejaVuSans-6f" transform="scale(0.015625)"/>
       <path d="M 2375 4863 
L 2375 4384 
L 1825 4384 
Q 1516 4384 1395 4259 
Q 1275 4134 1275 3809 
L 1275 3500 
L 2222 3500 
L 2222 3053 
L 1275 3053 
L 1275 0 
L 697 0 
L 697 3053 
L 147 3053 
L 147 3500 
L 697 3500 
L 697 3744 
Q 697 4328 969 4595 
Q 1241 4863 1831 4863 
L 2375 4863 
z
" id="DejaVuSans-66" transform="scale(0.015625)"/>
       <path d="M 2522 4238 
Q 1834 4238 1429 3725 
Q 1025 3213 1025 2328 
Q 1025 1447 1429 934 
Q 1834 422 2522 422 
Q 3209 422 3611 934 
Q 4013 1447 4013 2328 
Q 4013 3213 3611 3725 
Q 3209 4238 2522 4238 
z
M 2522 4750 
Q 3503 4750 4090 4092 
Q 4678 3434 4678 2328 
Q 4678 1225 4090 567 
Q 3503 -91 2522 -91 
Q 1538 -91 948 565 
Q 359 1222 359 2328 
Q 359 3434 948 4092 
Q 1538 4750 2522 4750 
z
" id="DejaVuSans-4f" transform="scale(0.015625)"/>
       <path d="M 191 3500 
L 800 3500 
L 1894 563 
L 2988 3500 
L 3597 3500 
L 2284 0 
L 1503 0 
L 191 3500 
z
" id="DejaVuSans-76" transform="scale(0.015625)"/>
       <path d="M 3597 1894 
L 3597 1613 
L 953 1613 
Q 991 1019 1311 708 
Q 1631 397 2203 397 
Q 2534 397 2845 478 
Q 3156 559 3463 722 
L 3463 178 
Q 3153 47 2828 -22 
Q 2503 -91 2169 -91 
Q 1331 -91 842 396 
Q 353 884 353 1716 
Q 353 2575 817 3079 
Q 1281 3584 2069 3584 
Q 2775 3584 3186 3129 
Q 3597 2675 3597 1894 
z
M 3022 2063 
Q 3016 2534 2758 2815 
Q 2500 3097 2075 3097 
Q 1594 3097 1305 2825 
Q 1016 2553 972 2059 
L 3022 2063 
z
" id="DejaVuSans-65" transform="scale(0.015625)"/>
       <path d="M 2631 2963 
Q 2534 3019 2420 3045 
Q 2306 3072 2169 3072 
Q 1681 3072 1420 2755 
Q 1159 2438 1159 1844 
L 1159 0 
L 581 0 
L 581 3500 
L 1159 3500 
L 1159 2956 
Q 1341 3275 1631 3429 
Q 1922 3584 2338 3584 
Q 2397 3584 2469 3576 
Q 2541 3569 2628 3553 
L 2631 2963 
z
" id="DejaVuSans-72" transform="scale(0.015625)"/>
       <path d="M 3513 2113 
L 3513 0 
L 2938 0 
L 2938 2094 
Q 2938 2591 2744 2837 
Q 2550 3084 2163 3084 
Q 1697 3084 1428 2787 
Q 1159 2491 1159 1978 
L 1159 0 
L 581 0 
L 581 3500 
L 1159 3500 
L 1159 2956 
Q 1366 3272 1645 3428 
Q 1925 3584 2291 3584 
Q 2894 3584 3203 3211 
Q 3513 2838 3513 2113 
z
" id="DejaVuSans-6e" transform="scale(0.015625)"/>
       <path d="M 603 3500 
L 1178 3500 
L 1178 0 
L 603 0 
L 603 3500 
z
M 603 4863 
L 1178 4863 
L 1178 4134 
L 603 4134 
L 603 4863 
z
" id="DejaVuSans-69" transform="scale(0.015625)"/>
       <path d="M 2906 1791 
Q 2906 2416 2648 2759 
Q 2391 3103 1925 3103 
Q 1463 3103 1205 2759 
Q 947 2416 947 1791 
Q 947 1169 1205 825 
Q 1463 481 1925 481 
Q 2391 481 2648 825 
Q 2906 1169 2906 1791 
z
M 3481 434 
Q 3481 -459 3084 -895 
Q 2688 -1331 1869 -1331 
Q 1566 -1331 1297 -1286 
Q 1028 -1241 775 -1147 
L 775 -588 
Q 1028 -725 1275 -790 
Q 1522 -856 1778 -856 
Q 2344 -856 2625 -561 
Q 2906 -266 2906 331 
L 2906 616 
Q 2728 306 2450 153 
Q 2172 0 1784 0 
Q 1141 0 747 490 
Q 353 981 353 1791 
Q 353 2603 747 3093 
Q 1141 3584 1784 3584 
Q 2172 3584 2450 3431 
Q 2728 3278 2906 2969 
L 2906 3500 
L 3481 3500 
L 3481 434 
z
" id="DejaVuSans-67" transform="scale(0.015625)"/>
       <path d="M 3513 2113 
L 3513 0 
L 2938 0 
L 2938 2094 
Q 2938 2591 2744 2837 
Q 2550 3084 2163 3084 
Q 1697 3084 1428 2787 
Q 1159 2491 1159 1978 
L 1159 0 
L 581 0 
L 581 4863 
L 1159 4863 
L 1159 2956 
Q 1366 3272 1645 3428 
Q 1925 3584 2291 3584 
Q 2894 3584 3203 3211 
Q 3513 2838 3513 2113 
z
" id="DejaVuSans-68" transform="scale(0.015625)"/>
       <path d="M 1172 4494 
L 1172 3500 
L 2356 3500 
L 2356 3053 
L 1172 3053 
L 1172 1153 
Q 1172 725 1289 603 
Q 1406 481 1766 481 
L 2356 481 
L 2356 0 
L 1766 0 
Q 1100 0 847 248 
Q 594 497 594 1153 
L 594 3053 
L 172 3053 
L 172 3500 
L 594 3500 
L 594 4494 
L 1172 4494 
z
" id="DejaVuSans-74" transform="scale(0.015625)"/>
       <path d="M 1259 2228 
L 1259 519 
L 2272 519 
Q 2781 519 3026 730 
Q 3272 941 3272 1375 
Q 3272 1813 3026 2020 
Q 2781 2228 2272 2228 
L 1259 2228 
z
M 1259 4147 
L 1259 2741 
L 2194 2741 
Q 2656 2741 2882 2914 
Q 3109 3088 3109 3444 
Q 3109 3797 2882 3972 
Q 2656 4147 2194 4147 
L 1259 4147 
z
M 628 4666 
L 2241 4666 
Q 2963 4666 3353 4366 
Q 3744 4066 3744 3513 
Q 3744 3084 3544 2831 
Q 3344 2578 2956 2516 
Q 3422 2416 3680 2098 
Q 3938 1781 3938 1306 
Q 3938 681 3513 340 
Q 3088 0 2303 0 
L 628 0 
L 628 4666 
z
" id="DejaVuSans-42" transform="scale(0.015625)"/>
       <path d="M 2906 2969 
L 2906 4863 
L 3481 4863 
L 3481 0 
L 2906 0 
L 2906 525 
Q 2725 213 2448 61 
Q 2172 -91 1784 -91 
Q 1150 -91 751 415 
Q 353 922 353 1747 
Q 353 2572 751 3078 
Q 1150 3584 1784 3584 
Q 2172 3584 2448 3432 
Q 2725 3281 2906 2969 
z
M 947 1747 
Q 947 1113 1208 752 
Q 1469 391 1925 391 
Q 2381 391 2643 752 
Q 2906 1113 2906 1747 
Q 2906 2381 2643 2742 
Q 2381 3103 1925 3103 
Q 1469 3103 1208 2742 
Q 947 2381 947 1747 
z
" id="DejaVuSans-64" transform="scale(0.015625)"/>
       <path d="M 2834 3397 
L 2834 2853 
Q 2591 2978 2328 3040 
Q 2066 3103 1784 3103 
Q 1356 3103 1142 2972 
Q 928 2841 928 2578 
Q 928 2378 1081 2264 
Q 1234 2150 1697 2047 
L 1894 2003 
Q 2506 1872 2764 1633 
Q 3022 1394 3022 966 
Q 3022 478 2636 193 
Q 2250 -91 1575 -91 
Q 1294 -91 989 -36 
Q 684 19 347 128 
L 347 722 
Q 666 556 975 473 
Q 1284 391 1588 391 
Q 1994 391 2212 530 
Q 2431 669 2431 922 
Q 2431 1156 2273 1281 
Q 2116 1406 1581 1522 
L 1381 1569 
Q 847 1681 609 1914 
Q 372 2147 372 2553 
Q 372 3047 722 3315 
Q 1072 3584 1716 3584 
Q 2034 3584 2315 3537 
Q 2597 3491 2834 3397 
z
" id="DejaVuSans-73" transform="scale(0.015625)"/>
      </defs>
      <use xlink:href="#DejaVuSans-23"/>
      <use x="83.789062" xlink:href="#DejaVuSans-20"/>
      <use x="115.576172" xlink:href="#DejaVuSans-6f"/>
      <use x="176.757812" xlink:href="#DejaVuSans-66"/>
      <use x="211.962891" xlink:href="#DejaVuSans-20"/>
      <use x="243.75" xlink:href="#DejaVuSans-4f"/>
      <use x="322.460938" xlink:href="#DejaVuSans-76"/>
      <use x="381.640625" xlink:href="#DejaVuSans-65"/>
      <use x="443.164062" xlink:href="#DejaVuSans-72"/>
      <use x="482.527344" xlink:href="#DejaVuSans-6e"/>
      <use x="545.90625" xlink:href="#DejaVuSans-69"/>
      <use x="573.689453" xlink:href="#DejaVuSans-67"/>
      <use x="637.166016" xlink:href="#DejaVuSans-68"/>
      <use x="700.544922" xlink:href="#DejaVuSans-74"/>
      <use x="739.753906" xlink:href="#DejaVuSans-20"/>
      <use x="771.541016" xlink:href="#DejaVuSans-42"/>
      <use x="840.144531" xlink:href="#DejaVuSans-65"/>
      <use x="901.667969" xlink:href="#DejaVuSans-64"/>
      <use x="965.144531" xlink:href="#DejaVuSans-73"/>
     </g>
    </g>
   </g>
  </g>
 </g>
 <defs>
  <clipPath id="pa6ecc100bd">
   <rect height="205.579818" width="334.8" x="70.749375" y="7.2"/>
  </clipPath>
  <clipPath id="pb4cd5c747a">
   <rect height="3.497105" width="334.8" x="70.749375" y="221.142895"/>
  </clipPath>
 </defs>
</svg>
