<?xml version="1.0" encoding="utf-8" standalone="no"?>
<!DOCTYPE svg PUBLIC "-//W3C//DTD SVG 1.1//EN"
  "http://www.w3.org/Graphics/SVG/1.1/DTD/svg11.dtd">
<svg height="252.389375pt" version="1.1" viewBox="0 0 442.475795 252.389375" width="442.475795pt" xmlns="http://www.w3.org/2000/svg" xmlns:xlink="http://www.w3.org/1999/xlink">
 <metadata>
  <rdf:RDF xmlns:cc="http://creativecommons.org/ns#" xmlns:dc="http://purl.org/dc/elements/1.1/" xmlns:rdf="http://www.w3.org/1999/02/22-rdf-syntax-ns#">
   <cc:Work>
    <dc:type rdf:resource="http://purl.org/dc/dcmitype/StillImage"/>
    <dc:date>2022-01-26T19:39:52.424904</dc:date>
    <dc:format>image/svg+xml</dc:format>
    <dc:creator>
     <cc:Agent>
      <dc:title>Matplotlib v3.4.3, https://matplotlib.org/</dc:title>
     </cc:Agent>
    </dc:creator>
   </cc:Work>
  </rdf:RDF>
 </metadata>
 <defs>
  <style type="text/css">*{stroke-linecap:butt;stroke-linejoin:round;}</style>
 </defs>
 <g id="figure_1">
  <g id="patch_1">
   <path d="M 0 252.389375 
L 442.475795 252.389375 
L 442.475795 0 
L 0 0 
z
" style="fill:none;"/>
  </g>
  <g id="axes_1">
   <g id="patch_2">
    <path d="M 86.426313 209.088674 
L 421.226313 209.088674 
L 421.226313 7.2 
L 86.426313 7.2 
z
" style="fill:#ffffff;"/>
   </g>
   <g id="patch_3">
    <path clip-path="url(#p63f9801190)" d="M 401.184933 1473.602861 
L 406.15045 1473.602861 
L 406.15045 131.634833 
L 401.184933 131.634833 
z
" style="fill:#0072ce;"/>
   </g>
   <g id="patch_4">
    <path clip-path="url(#p63f9801190)" d="M 394.288381 1473.602861 
L 399.253899 1473.602861 
L 399.253899 107.411584 
L 394.288381 107.411584 
z
" style="fill:#0072ce;"/>
   </g>
   <g id="patch_5">
    <path clip-path="url(#p63f9801190)" d="M 387.39183 1473.602861 
L 392.357347 1473.602861 
L 392.357347 142.535295 
L 387.39183 142.535295 
z
" style="fill:#0072ce;"/>
   </g>
   <g id="patch_6">
    <path clip-path="url(#p63f9801190)" d="M 380.495278 1473.602861 
L 385.460795 1473.602861 
L 385.460795 130.423671 
L 380.495278 130.423671 
z
" style="fill:#0072ce;"/>
   </g>
   <g id="patch_7">
    <path clip-path="url(#p63f9801190)" d="M 373.598726 1473.602861 
L 378.564244 1473.602861 
L 378.564244 96.511121 
L 373.598726 96.511121 
z
" style="fill:#0072ce;"/>
   </g>
   <g id="patch_8">
    <path clip-path="url(#p63f9801190)" d="M 366.702175 1473.602861 
L 371.667692 1473.602861 
L 371.667692 141.324133 
L 366.702175 141.324133 
z
" style="fill:#0072ce;"/>
   </g>
   <g id="patch_9">
    <path clip-path="url(#p63f9801190)" d="M 359.805623 1473.602861 
L 364.77114 1473.602861 
L 364.77114 69.865547 
L 359.805623 69.865547 
z
" style="fill:#0072ce;"/>
   </g>
   <g id="patch_10">
    <path clip-path="url(#p63f9801190)" d="M 352.909071 1473.602861 
L 357.874588 1473.602861 
L 357.874588 67.443222 
L 352.909071 67.443222 
z
" style="fill:#0072ce;"/>
   </g>
   <g id="patch_11">
    <path clip-path="url(#p63f9801190)" d="M 346.012519 1473.602861 
L 350.978037 1473.602861 
L 350.978037 74.710197 
L 346.012519 74.710197 
z
" style="fill:#0072ce;"/>
   </g>
   <g id="patch_12">
    <path clip-path="url(#p63f9801190)" d="M 339.115968 1473.602861 
L 344.081485 1473.602861 
L 344.081485 69.865547 
L 339.115968 69.865547 
z
" style="fill:#0072ce;"/>
   </g>
   <g id="patch_13">
    <path clip-path="url(#p63f9801190)" d="M 332.219416 1473.602861 
L 337.184933 1473.602861 
L 337.184933 48.064622 
L 332.219416 48.064622 
z
" style="fill:#0072ce;"/>
   </g>
   <g id="patch_14">
    <path clip-path="url(#p63f9801190)" d="M 325.322864 1473.602861 
L 330.288381 1473.602861 
L 330.288381 100.144609 
L 325.322864 100.144609 
z
" style="fill:#0072ce;"/>
   </g>
   <g id="patch_15">
    <path clip-path="url(#p63f9801190)" d="M 318.426312 1473.602861 
L 323.39183 1473.602861 
L 323.39183 102.566934 
L 318.426312 102.566934 
z
" style="fill:#0072ce;"/>
   </g>
   <g id="patch_16">
    <path clip-path="url(#p63f9801190)" d="M 311.529761 1473.602861 
L 316.495278 1473.602861 
L 316.495278 86.821821 
L 311.529761 86.821821 
z
" style="fill:#0072ce;"/>
   </g>
   <g id="patch_17">
    <path clip-path="url(#p63f9801190)" d="M 304.633209 1473.602861 
L 309.598726 1473.602861 
L 309.598726 94.088796 
L 304.633209 94.088796 
z
" style="fill:#0072ce;"/>
   </g>
   <g id="patch_18">
    <path clip-path="url(#p63f9801190)" d="M 297.736657 1473.602861 
L 302.702175 1473.602861 
L 302.702175 86.821821 
L 297.736657 86.821821 
z
" style="fill:#0072ce;"/>
   </g>
   <g id="patch_19">
    <path clip-path="url(#p63f9801190)" d="M 290.840106 1473.602861 
L 295.805623 1473.602861 
L 295.805623 85.610659 
L 290.840106 85.610659 
z
" style="fill:#0072ce;"/>
   </g>
   <g id="patch_20">
    <path clip-path="url(#p63f9801190)" d="M 283.943554 1473.602861 
L 288.909071 1473.602861 
L 288.909071 85.610659 
L 283.943554 85.610659 
z
" style="fill:#0072ce;"/>
   </g>
   <g id="patch_21">
    <path clip-path="url(#p63f9801190)" d="M 277.047002 1473.602861 
L 282.012519 1473.602861 
L 282.012519 35.952997 
L 277.047002 35.952997 
z
" style="fill:#0072ce;"/>
   </g>
   <g id="patch_22">
    <path clip-path="url(#p63f9801190)" d="M 270.15045 1473.602861 
L 275.115968 1473.602861 
L 275.115968 97.722284 
L 270.15045 97.722284 
z
" style="fill:#0072ce;"/>
   </g>
   <g id="patch_23">
    <path clip-path="url(#p63f9801190)" d="M 263.253899 1473.602861 
L 268.219416 1473.602861 
L 268.219416 102.566934 
L 263.253899 102.566934 
z
" style="fill:#0072ce;"/>
   </g>
   <g id="patch_24">
    <path clip-path="url(#p63f9801190)" d="M 256.357347 1473.602861 
L 261.322864 1473.602861 
L 261.322864 88.032984 
L 256.357347 88.032984 
z
" style="fill:#0072ce;"/>
   </g>
   <g id="patch_25">
    <path clip-path="url(#p63f9801190)" d="M 249.460795 1473.602861 
L 254.426312 1473.602861 
L 254.426312 71.076709 
L 249.460795 71.076709 
z
" style="fill:#0072ce;"/>
   </g>
   <g id="patch_26">
    <path clip-path="url(#p63f9801190)" d="M 242.564244 1473.602861 
L 247.529761 1473.602861 
L 247.529761 86.821821 
L 242.564244 86.821821 
z
" style="fill:#0072ce;"/>
   </g>
   <g id="patch_27">
    <path clip-path="url(#p63f9801190)" d="M 235.667692 1473.602861 
L 240.633209 1473.602861 
L 240.633209 90.455309 
L 235.667692 90.455309 
z
" style="fill:#0072ce;"/>
   </g>
   <g id="patch_28">
    <path clip-path="url(#p63f9801190)" d="M 228.77114 1473.602861 
L 233.736657 1473.602861 
L 233.736657 88.032984 
L 228.77114 88.032984 
z
" style="fill:#0072ce;"/>
   </g>
   <g id="patch_29">
    <path clip-path="url(#p63f9801190)" d="M 221.874588 1473.602861 
L 226.840106 1473.602861 
L 226.840106 81.977172 
L 221.874588 81.977172 
z
" style="fill:#0072ce;"/>
   </g>
   <g id="patch_30">
    <path clip-path="url(#p63f9801190)" d="M 214.978037 1473.602861 
L 219.943554 1473.602861 
L 219.943554 86.821821 
L 214.978037 86.821821 
z
" style="fill:#0072ce;"/>
   </g>
   <g id="patch_31">
    <path clip-path="url(#p63f9801190)" d="M 208.081485 1473.602861 
L 213.047002 1473.602861 
L 213.047002 90.455309 
L 208.081485 90.455309 
z
" style="fill:#0072ce;"/>
   </g>
   <g id="patch_32">
    <path clip-path="url(#p63f9801190)" d="M 201.184933 1473.602861 
L 206.15045 1473.602861 
L 206.15045 101.355771 
L 201.184933 101.355771 
z
" style="fill:#0072ce;"/>
   </g>
   <g id="patch_33">
    <path clip-path="url(#p63f9801190)" d="M 194.288381 1473.602861 
L 199.253899 1473.602861 
L 199.253899 123.156696 
L 194.288381 123.156696 
z
" style="fill:#0072ce;"/>
   </g>
   <g id="patch_34">
    <path clip-path="url(#p63f9801190)" d="M 187.39183 1473.602861 
L 192.357347 1473.602861 
L 192.357347 109.833909 
L 187.39183 109.833909 
z
" style="fill:#0072ce;"/>
   </g>
   <g id="patch_35">
    <path clip-path="url(#p63f9801190)" d="M 180.495278 1473.602861 
L 185.460795 1473.602861 
L 185.460795 109.833909 
L 180.495278 109.833909 
z
" style="fill:#0072ce;"/>
   </g>
   <g id="patch_36">
    <path clip-path="url(#p63f9801190)" d="M 173.598726 1473.602861 
L 178.564244 1473.602861 
L 178.564244 114.678558 
L 173.598726 114.678558 
z
" style="fill:#0072ce;"/>
   </g>
   <g id="patch_37">
    <path clip-path="url(#p63f9801190)" d="M 166.702175 1473.602861 
L 171.667692 1473.602861 
L 171.667692 112.256233 
L 166.702175 112.256233 
z
" style="fill:#0072ce;"/>
   </g>
   <g id="patch_38">
    <path clip-path="url(#p63f9801190)" d="M 159.805623 1473.602861 
L 164.77114 1473.602861 
L 164.77114 113.467396 
L 159.805623 113.467396 
z
" style="fill:#0072ce;"/>
   </g>
   <g id="patch_39">
    <path clip-path="url(#p63f9801190)" d="M 152.909071 1473.602861 
L 157.874588 1473.602861 
L 157.874588 97.722284 
L 152.909071 97.722284 
z
" style="fill:#0072ce;"/>
   </g>
   <g id="patch_40">
    <path clip-path="url(#p63f9801190)" d="M 146.012519 1473.602861 
L 150.978037 1473.602861 
L 150.978037 91.666471 
L 146.012519 91.666471 
z
" style="fill:#0072ce;"/>
   </g>
   <g id="patch_41">
    <path clip-path="url(#p63f9801190)" d="M 139.115968 1473.602861 
L 144.081485 1473.602861 
L 144.081485 121.945533 
L 139.115968 121.945533 
z
" style="fill:#0072ce;"/>
   </g>
   <g id="patch_42">
    <path clip-path="url(#p63f9801190)" d="M 132.219416 1473.602861 
L 137.184933 1473.602861 
L 137.184933 106.200421 
L 132.219416 106.200421 
z
" style="fill:#0072ce;"/>
   </g>
   <g id="patch_43">
    <path clip-path="url(#p63f9801190)" d="M 125.322864 1473.602861 
L 130.288381 1473.602861 
L 130.288381 111.045071 
L 125.322864 111.045071 
z
" style="fill:#0072ce;"/>
   </g>
   <g id="patch_44">
    <path clip-path="url(#p63f9801190)" d="M 118.426312 1473.602861 
L 123.39183 1473.602861 
L 123.39183 79.554847 
L 118.426312 79.554847 
z
" style="fill:#0072ce;"/>
   </g>
   <g id="patch_45">
    <path clip-path="url(#p63f9801190)" d="M 111.529761 1473.602861 
L 116.495278 1473.602861 
L 116.495278 68.654384 
L 111.529761 68.654384 
z
" style="fill:#0072ce;"/>
   </g>
   <g id="patch_46">
    <path clip-path="url(#p63f9801190)" d="M 104.633209 1473.602861 
L 109.598726 1473.602861 
L 109.598726 72.287872 
L 104.633209 72.287872 
z
" style="fill:#0072ce;"/>
   </g>
   <g id="matplotlib.axis_1">
    <g id="xtick_1"/>
    <g id="xtick_2"/>
    <g id="xtick_3"/>
    <g id="xtick_4"/>
    <g id="xtick_5"/>
    <g id="xtick_6"/>
    <g id="xtick_7"/>
   </g>
   <g id="matplotlib.axis_2">
    <g id="ytick_1">
     <g id="line2d_1">
      <defs>
       <path d="M 0 0 
L -3.5 0 
" id="mb899e77810" style="stroke:#000000;stroke-width:0.8;"/>
      </defs>
      <g>
       <use style="stroke:#000000;stroke-width:0.8;" x="86.426313" xlink:href="#mb899e77810" y="201.882257"/>
      </g>
     </g>
     <g id="text_1">
      <!-- 1.050 -->
      <g transform="translate(39.346938 207.201163)scale(0.14 -0.14)">
       <defs>
        <path d="M 794 531 
L 1825 531 
L 1825 4091 
L 703 3866 
L 703 4441 
L 1819 4666 
L 2450 4666 
L 2450 531 
L 3481 531 
L 3481 0 
L 794 0 
L 794 531 
z
" id="DejaVuSans-31" transform="scale(0.015625)"/>
        <path d="M 684 794 
L 1344 794 
L 1344 0 
L 684 0 
L 684 794 
z
" id="DejaVuSans-2e" transform="scale(0.015625)"/>
        <path d="M 2034 4250 
Q 1547 4250 1301 3770 
Q 1056 3291 1056 2328 
Q 1056 1369 1301 889 
Q 1547 409 2034 409 
Q 2525 409 2770 889 
Q 3016 1369 3016 2328 
Q 3016 3291 2770 3770 
Q 2525 4250 2034 4250 
z
M 2034 4750 
Q 2819 4750 3233 4129 
Q 3647 3509 3647 2328 
Q 3647 1150 3233 529 
Q 2819 -91 2034 -91 
Q 1250 -91 836 529 
Q 422 1150 422 2328 
Q 422 3509 836 4129 
Q 1250 4750 2034 4750 
z
" id="DejaVuSans-30" transform="scale(0.015625)"/>
        <path d="M 691 4666 
L 3169 4666 
L 3169 4134 
L 1269 4134 
L 1269 2991 
Q 1406 3038 1543 3061 
Q 1681 3084 1819 3084 
Q 2600 3084 3056 2656 
Q 3513 2228 3513 1497 
Q 3513 744 3044 326 
Q 2575 -91 1722 -91 
Q 1428 -91 1123 -41 
Q 819 9 494 109 
L 494 744 
Q 775 591 1075 516 
Q 1375 441 1709 441 
Q 2250 441 2565 725 
Q 2881 1009 2881 1497 
Q 2881 1984 2565 2268 
Q 2250 2553 1709 2553 
Q 1456 2553 1204 2497 
Q 953 2441 691 2322 
L 691 4666 
z
" id="DejaVuSans-35" transform="scale(0.015625)"/>
       </defs>
       <use xlink:href="#DejaVuSans-31"/>
       <use x="63.623047" xlink:href="#DejaVuSans-2e"/>
       <use x="95.410156" xlink:href="#DejaVuSans-30"/>
       <use x="159.033203" xlink:href="#DejaVuSans-35"/>
       <use x="222.65625" xlink:href="#DejaVuSans-30"/>
      </g>
     </g>
    </g>
    <g id="ytick_2">
     <g id="line2d_2">
      <g>
       <use style="stroke:#000000;stroke-width:0.8;" x="86.426313" xlink:href="#mb899e77810" y="171.603195"/>
      </g>
     </g>
     <g id="text_2">
      <!-- 1.075 -->
      <g transform="translate(39.346938 176.922101)scale(0.14 -0.14)">
       <defs>
        <path d="M 525 4666 
L 3525 4666 
L 3525 4397 
L 1831 0 
L 1172 0 
L 2766 4134 
L 525 4134 
L 525 4666 
z
" id="DejaVuSans-37" transform="scale(0.015625)"/>
       </defs>
       <use xlink:href="#DejaVuSans-31"/>
       <use x="63.623047" xlink:href="#DejaVuSans-2e"/>
       <use x="95.410156" xlink:href="#DejaVuSans-30"/>
       <use x="159.033203" xlink:href="#DejaVuSans-37"/>
       <use x="222.65625" xlink:href="#DejaVuSans-35"/>
      </g>
     </g>
    </g>
    <g id="ytick_3">
     <g id="line2d_3">
      <g>
       <use style="stroke:#000000;stroke-width:0.8;" x="86.426313" xlink:href="#mb899e77810" y="141.324133"/>
      </g>
     </g>
     <g id="text_3">
      <!-- 1.100 -->
      <g transform="translate(39.346938 146.643039)scale(0.14 -0.14)">
       <use xlink:href="#DejaVuSans-31"/>
       <use x="63.623047" xlink:href="#DejaVuSans-2e"/>
       <use x="95.410156" xlink:href="#DejaVuSans-31"/>
       <use x="159.033203" xlink:href="#DejaVuSans-30"/>
       <use x="222.65625" xlink:href="#DejaVuSans-30"/>
      </g>
     </g>
    </g>
    <g id="ytick_4">
     <g id="line2d_4">
      <g>
       <use style="stroke:#000000;stroke-width:0.8;" x="86.426313" xlink:href="#mb899e77810" y="111.045071"/>
      </g>
     </g>
     <g id="text_4">
      <!-- 1.125 -->
      <g transform="translate(39.346938 116.363977)scale(0.14 -0.14)">
       <defs>
        <path d="M 1228 531 
L 3431 531 
L 3431 0 
L 469 0 
L 469 531 
Q 828 903 1448 1529 
Q 2069 2156 2228 2338 
Q 2531 2678 2651 2914 
Q 2772 3150 2772 3378 
Q 2772 3750 2511 3984 
Q 2250 4219 1831 4219 
Q 1534 4219 1204 4116 
Q 875 4013 500 3803 
L 500 4441 
Q 881 4594 1212 4672 
Q 1544 4750 1819 4750 
Q 2544 4750 2975 4387 
Q 3406 4025 3406 3419 
Q 3406 3131 3298 2873 
Q 3191 2616 2906 2266 
Q 2828 2175 2409 1742 
Q 1991 1309 1228 531 
z
" id="DejaVuSans-32" transform="scale(0.015625)"/>
       </defs>
       <use xlink:href="#DejaVuSans-31"/>
       <use x="63.623047" xlink:href="#DejaVuSans-2e"/>
       <use x="95.410156" xlink:href="#DejaVuSans-31"/>
       <use x="159.033203" xlink:href="#DejaVuSans-32"/>
       <use x="222.65625" xlink:href="#DejaVuSans-35"/>
      </g>
     </g>
    </g>
    <g id="ytick_5">
     <g id="line2d_5">
      <g>
       <use style="stroke:#000000;stroke-width:0.8;" x="86.426313" xlink:href="#mb899e77810" y="80.766009"/>
      </g>
     </g>
     <g id="text_5">
      <!-- 1.150 -->
      <g transform="translate(39.346938 86.084915)scale(0.14 -0.14)">
       <use xlink:href="#DejaVuSans-31"/>
       <use x="63.623047" xlink:href="#DejaVuSans-2e"/>
       <use x="95.410156" xlink:href="#DejaVuSans-31"/>
       <use x="159.033203" xlink:href="#DejaVuSans-35"/>
       <use x="222.65625" xlink:href="#DejaVuSans-30"/>
      </g>
     </g>
    </g>
    <g id="ytick_6">
     <g id="line2d_6">
      <g>
       <use style="stroke:#000000;stroke-width:0.8;" x="86.426313" xlink:href="#mb899e77810" y="50.486947"/>
      </g>
     </g>
     <g id="text_6">
      <!-- 1.175 -->
      <g transform="translate(39.346938 55.805853)scale(0.14 -0.14)">
       <use xlink:href="#DejaVuSans-31"/>
       <use x="63.623047" xlink:href="#DejaVuSans-2e"/>
       <use x="95.410156" xlink:href="#DejaVuSans-31"/>
       <use x="159.033203" xlink:href="#DejaVuSans-37"/>
       <use x="222.65625" xlink:href="#DejaVuSans-35"/>
      </g>
     </g>
    </g>
    <g id="ytick_7">
     <g id="line2d_7">
      <g>
       <use style="stroke:#000000;stroke-width:0.8;" x="86.426313" xlink:href="#mb899e77810" y="20.207885"/>
      </g>
     </g>
     <g id="text_7">
      <!-- 1.200 -->
      <g transform="translate(39.346938 25.526791)scale(0.14 -0.14)">
       <use xlink:href="#DejaVuSans-31"/>
       <use x="63.623047" xlink:href="#DejaVuSans-2e"/>
       <use x="95.410156" xlink:href="#DejaVuSans-32"/>
       <use x="159.033203" xlink:href="#DejaVuSans-30"/>
       <use x="222.65625" xlink:href="#DejaVuSans-30"/>
      </g>
     </g>
    </g>
   </g>
   <g id="line2d_8">
    <path d="M 81.844261 213.670726 
L 91.008364 204.506622 
" style="fill:none;stroke:#000000;stroke-linecap:square;stroke-width:0.8;"/>
   </g>
   <g id="patch_47">
    <path d="M 86.426313 209.088674 
L 86.426313 7.2 
" style="fill:none;stroke:#000000;stroke-linecap:square;stroke-linejoin:miter;stroke-width:0.8;"/>
   </g>
  </g>
  <g id="axes_2">
   <g id="patch_48">
    <path d="M 86.426313 224.64 
L 421.226313 224.64 
L 421.226313 217.451751 
L 86.426313 217.451751 
z
" style="fill:#ffffff;"/>
   </g>
   <g id="patch_49">
    <path clip-path="url(#pdf84843861)" d="M 401.184933 224.64 
L 406.15045 224.64 
L 406.15045 -1117.328028 
L 401.184933 -1117.328028 
z
" style="fill:#0072ce;"/>
   </g>
   <g id="patch_50">
    <path clip-path="url(#pdf84843861)" d="M 394.288381 224.64 
L 399.253899 224.64 
L 399.253899 -1141.551277 
L 394.288381 -1141.551277 
z
" style="fill:#0072ce;"/>
   </g>
   <g id="patch_51">
    <path clip-path="url(#pdf84843861)" d="M 387.39183 224.64 
L 392.357347 224.64 
L 392.357347 -1106.427565 
L 387.39183 -1106.427565 
z
" style="fill:#0072ce;"/>
   </g>
   <g id="patch_52">
    <path clip-path="url(#pdf84843861)" d="M 380.495278 224.64 
L 385.460795 224.64 
L 385.460795 -1118.53919 
L 380.495278 -1118.53919 
z
" style="fill:#0072ce;"/>
   </g>
   <g id="patch_53">
    <path clip-path="url(#pdf84843861)" d="M 373.598726 224.64 
L 378.564244 224.64 
L 378.564244 -1152.45174 
L 373.598726 -1152.45174 
z
" style="fill:#0072ce;"/>
   </g>
   <g id="patch_54">
    <path clip-path="url(#pdf84843861)" d="M 366.702175 224.64 
L 371.667692 224.64 
L 371.667692 -1107.638728 
L 366.702175 -1107.638728 
z
" style="fill:#0072ce;"/>
   </g>
   <g id="patch_55">
    <path clip-path="url(#pdf84843861)" d="M 359.805623 224.64 
L 364.77114 224.64 
L 364.77114 -1179.097314 
L 359.805623 -1179.097314 
z
" style="fill:#0072ce;"/>
   </g>
   <g id="patch_56">
    <path clip-path="url(#pdf84843861)" d="M 352.909071 224.64 
L 357.874588 224.64 
L 357.874588 -1181.519639 
L 352.909071 -1181.519639 
z
" style="fill:#0072ce;"/>
   </g>
   <g id="patch_57">
    <path clip-path="url(#pdf84843861)" d="M 346.012519 224.64 
L 350.978037 224.64 
L 350.978037 -1174.252664 
L 346.012519 -1174.252664 
z
" style="fill:#0072ce;"/>
   </g>
   <g id="patch_58">
    <path clip-path="url(#pdf84843861)" d="M 339.115968 224.64 
L 344.081485 224.64 
L 344.081485 -1179.097314 
L 339.115968 -1179.097314 
z
" style="fill:#0072ce;"/>
   </g>
   <g id="patch_59">
    <path clip-path="url(#pdf84843861)" d="M 332.219416 224.64 
L 337.184933 224.64 
L 337.184933 -1200.898239 
L 332.219416 -1200.898239 
z
" style="fill:#0072ce;"/>
   </g>
   <g id="patch_60">
    <path clip-path="url(#pdf84843861)" d="M 325.322864 224.64 
L 330.288381 224.64 
L 330.288381 -1148.818252 
L 325.322864 -1148.818252 
z
" style="fill:#0072ce;"/>
   </g>
   <g id="patch_61">
    <path clip-path="url(#pdf84843861)" d="M 318.426312 224.64 
L 323.39183 224.64 
L 323.39183 -1146.395927 
L 318.426312 -1146.395927 
z
" style="fill:#0072ce;"/>
   </g>
   <g id="patch_62">
    <path clip-path="url(#pdf84843861)" d="M 311.529761 224.64 
L 316.495278 224.64 
L 316.495278 -1162.141039 
L 311.529761 -1162.141039 
z
" style="fill:#0072ce;"/>
   </g>
   <g id="patch_63">
    <path clip-path="url(#pdf84843861)" d="M 304.633209 224.64 
L 309.598726 224.64 
L 309.598726 -1154.874065 
L 304.633209 -1154.874065 
z
" style="fill:#0072ce;"/>
   </g>
   <g id="patch_64">
    <path clip-path="url(#pdf84843861)" d="M 297.736657 224.64 
L 302.702175 224.64 
L 302.702175 -1162.141039 
L 297.736657 -1162.141039 
z
" style="fill:#0072ce;"/>
   </g>
   <g id="patch_65">
    <path clip-path="url(#pdf84843861)" d="M 290.840106 224.64 
L 295.805623 224.64 
L 295.805623 -1163.352202 
L 290.840106 -1163.352202 
z
" style="fill:#0072ce;"/>
   </g>
   <g id="patch_66">
    <path clip-path="url(#pdf84843861)" d="M 283.943554 224.64 
L 288.909071 224.64 
L 288.909071 -1163.352202 
L 283.943554 -1163.352202 
z
" style="fill:#0072ce;"/>
   </g>
   <g id="patch_67">
    <path clip-path="url(#pdf84843861)" d="M 277.047002 224.64 
L 282.012519 224.64 
L 282.012519 -1213.009864 
L 277.047002 -1213.009864 
z
" style="fill:#0072ce;"/>
   </g>
   <g id="patch_68">
    <path clip-path="url(#pdf84843861)" d="M 270.15045 224.64 
L 275.115968 224.64 
L 275.115968 -1151.240577 
L 270.15045 -1151.240577 
z
" style="fill:#0072ce;"/>
   </g>
   <g id="patch_69">
    <path clip-path="url(#pdf84843861)" d="M 263.253899 224.64 
L 268.219416 224.64 
L 268.219416 -1146.395927 
L 263.253899 -1146.395927 
z
" style="fill:#0072ce;"/>
   </g>
   <g id="patch_70">
    <path clip-path="url(#pdf84843861)" d="M 256.357347 224.64 
L 261.322864 224.64 
L 261.322864 -1160.929877 
L 256.357347 -1160.929877 
z
" style="fill:#0072ce;"/>
   </g>
   <g id="patch_71">
    <path clip-path="url(#pdf84843861)" d="M 249.460795 224.64 
L 254.426312 224.64 
L 254.426312 -1177.886152 
L 249.460795 -1177.886152 
z
" style="fill:#0072ce;"/>
   </g>
   <g id="patch_72">
    <path clip-path="url(#pdf84843861)" d="M 242.564244 224.64 
L 247.529761 224.64 
L 247.529761 -1162.141039 
L 242.564244 -1162.141039 
z
" style="fill:#0072ce;"/>
   </g>
   <g id="patch_73">
    <path clip-path="url(#pdf84843861)" d="M 235.667692 224.64 
L 240.633209 224.64 
L 240.633209 -1158.507552 
L 235.667692 -1158.507552 
z
" style="fill:#0072ce;"/>
   </g>
   <g id="patch_74">
    <path clip-path="url(#pdf84843861)" d="M 228.77114 224.64 
L 233.736657 224.64 
L 233.736657 -1160.929877 
L 228.77114 -1160.929877 
z
" style="fill:#0072ce;"/>
   </g>
   <g id="patch_75">
    <path clip-path="url(#pdf84843861)" d="M 221.874588 224.64 
L 226.840106 224.64 
L 226.840106 -1166.985689 
L 221.874588 -1166.985689 
z
" style="fill:#0072ce;"/>
   </g>
   <g id="patch_76">
    <path clip-path="url(#pdf84843861)" d="M 214.978037 224.64 
L 219.943554 224.64 
L 219.943554 -1162.141039 
L 214.978037 -1162.141039 
z
" style="fill:#0072ce;"/>
   </g>
   <g id="patch_77">
    <path clip-path="url(#pdf84843861)" d="M 208.081485 224.64 
L 213.047002 224.64 
L 213.047002 -1158.507552 
L 208.081485 -1158.507552 
z
" style="fill:#0072ce;"/>
   </g>
   <g id="patch_78">
    <path clip-path="url(#pdf84843861)" d="M 201.184933 224.64 
L 206.15045 224.64 
L 206.15045 -1147.60709 
L 201.184933 -1147.60709 
z
" style="fill:#0072ce;"/>
   </g>
   <g id="patch_79">
    <path clip-path="url(#pdf84843861)" d="M 194.288381 224.64 
L 199.253899 224.64 
L 199.253899 -1125.806165 
L 194.288381 -1125.806165 
z
" style="fill:#0072ce;"/>
   </g>
   <g id="patch_80">
    <path clip-path="url(#pdf84843861)" d="M 187.39183 224.64 
L 192.357347 224.64 
L 192.357347 -1139.128952 
L 187.39183 -1139.128952 
z
" style="fill:#0072ce;"/>
   </g>
   <g id="patch_81">
    <path clip-path="url(#pdf84843861)" d="M 180.495278 224.64 
L 185.460795 224.64 
L 185.460795 -1139.128952 
L 180.495278 -1139.128952 
z
" style="fill:#0072ce;"/>
   </g>
   <g id="patch_82">
    <path clip-path="url(#pdf84843861)" d="M 173.598726 224.64 
L 178.564244 224.64 
L 178.564244 -1134.284302 
L 173.598726 -1134.284302 
z
" style="fill:#0072ce;"/>
   </g>
   <g id="patch_83">
    <path clip-path="url(#pdf84843861)" d="M 166.702175 224.64 
L 171.667692 224.64 
L 171.667692 -1136.706627 
L 166.702175 -1136.706627 
z
" style="fill:#0072ce;"/>
   </g>
   <g id="patch_84">
    <path clip-path="url(#pdf84843861)" d="M 159.805623 224.64 
L 164.77114 224.64 
L 164.77114 -1135.495465 
L 159.805623 -1135.495465 
z
" style="fill:#0072ce;"/>
   </g>
   <g id="patch_85">
    <path clip-path="url(#pdf84843861)" d="M 152.909071 224.64 
L 157.874588 224.64 
L 157.874588 -1151.240577 
L 152.909071 -1151.240577 
z
" style="fill:#0072ce;"/>
   </g>
   <g id="patch_86">
    <path clip-path="url(#pdf84843861)" d="M 146.012519 224.64 
L 150.978037 224.64 
L 150.978037 -1157.296389 
L 146.012519 -1157.296389 
z
" style="fill:#0072ce;"/>
   </g>
   <g id="patch_87">
    <path clip-path="url(#pdf84843861)" d="M 139.115968 224.64 
L 144.081485 224.64 
L 144.081485 -1127.017327 
L 139.115968 -1127.017327 
z
" style="fill:#0072ce;"/>
   </g>
   <g id="patch_88">
    <path clip-path="url(#pdf84843861)" d="M 132.219416 224.64 
L 137.184933 224.64 
L 137.184933 -1142.76244 
L 132.219416 -1142.76244 
z
" style="fill:#0072ce;"/>
   </g>
   <g id="patch_89">
    <path clip-path="url(#pdf84843861)" d="M 125.322864 224.64 
L 130.288381 224.64 
L 130.288381 -1137.91779 
L 125.322864 -1137.91779 
z
" style="fill:#0072ce;"/>
   </g>
   <g id="patch_90">
    <path clip-path="url(#pdf84843861)" d="M 118.426312 224.64 
L 123.39183 224.64 
L 123.39183 -1169.408014 
L 118.426312 -1169.408014 
z
" style="fill:#0072ce;"/>
   </g>
   <g id="patch_91">
    <path clip-path="url(#pdf84843861)" d="M 111.529761 224.64 
L 116.495278 224.64 
L 116.495278 -1180.308477 
L 111.529761 -1180.308477 
z
" style="fill:#0072ce;"/>
   </g>
   <g id="patch_92">
    <path clip-path="url(#pdf84843861)" d="M 104.633209 224.64 
L 109.598726 224.64 
L 109.598726 -1176.674989 
L 104.633209 -1176.674989 
z
" style="fill:#0072ce;"/>
   </g>
   <g id="matplotlib.axis_3">
    <g id="xtick_8">
     <g id="line2d_9">
      <defs>
       <path d="M 0 0 
L 0 3.5 
" id="mc25a82d222" style="stroke:#000000;stroke-width:0.8;"/>
      </defs>
      <g>
       <use style="stroke:#000000;stroke-width:0.8;" x="86.426312" xlink:href="#mc25a82d222" y="224.64"/>
      </g>
     </g>
     <g id="text_8">
      <!-- 2010 -->
      <g transform="translate(68.611312 242.277812)scale(0.14 -0.14)">
       <use xlink:href="#DejaVuSans-32"/>
       <use x="63.623047" xlink:href="#DejaVuSans-30"/>
       <use x="127.246094" xlink:href="#DejaVuSans-31"/>
       <use x="190.869141" xlink:href="#DejaVuSans-30"/>
      </g>
     </g>
    </g>
    <g id="xtick_9">
     <g id="line2d_10">
      <g>
       <use style="stroke:#000000;stroke-width:0.8;" x="141.598726" xlink:href="#mc25a82d222" y="224.64"/>
      </g>
     </g>
     <g id="text_9">
      <!-- 2012 -->
      <g transform="translate(123.783726 242.277812)scale(0.14 -0.14)">
       <use xlink:href="#DejaVuSans-32"/>
       <use x="63.623047" xlink:href="#DejaVuSans-30"/>
       <use x="127.246094" xlink:href="#DejaVuSans-31"/>
       <use x="190.869141" xlink:href="#DejaVuSans-32"/>
      </g>
     </g>
    </g>
    <g id="xtick_10">
     <g id="line2d_11">
      <g>
       <use style="stroke:#000000;stroke-width:0.8;" x="196.77114" xlink:href="#mc25a82d222" y="224.64"/>
      </g>
     </g>
     <g id="text_10">
      <!-- 2014 -->
      <g transform="translate(178.95614 242.277812)scale(0.14 -0.14)">
       <defs>
        <path d="M 2419 4116 
L 825 1625 
L 2419 1625 
L 2419 4116 
z
M 2253 4666 
L 3047 4666 
L 3047 1625 
L 3713 1625 
L 3713 1100 
L 3047 1100 
L 3047 0 
L 2419 0 
L 2419 1100 
L 313 1100 
L 313 1709 
L 2253 4666 
z
" id="DejaVuSans-34" transform="scale(0.015625)"/>
       </defs>
       <use xlink:href="#DejaVuSans-32"/>
       <use x="63.623047" xlink:href="#DejaVuSans-30"/>
       <use x="127.246094" xlink:href="#DejaVuSans-31"/>
       <use x="190.869141" xlink:href="#DejaVuSans-34"/>
      </g>
     </g>
    </g>
    <g id="xtick_11">
     <g id="line2d_12">
      <g>
       <use style="stroke:#000000;stroke-width:0.8;" x="251.943554" xlink:href="#mc25a82d222" y="224.64"/>
      </g>
     </g>
     <g id="text_11">
      <!-- 2016 -->
      <g transform="translate(234.128554 242.277812)scale(0.14 -0.14)">
       <defs>
        <path d="M 2113 2584 
Q 1688 2584 1439 2293 
Q 1191 2003 1191 1497 
Q 1191 994 1439 701 
Q 1688 409 2113 409 
Q 2538 409 2786 701 
Q 3034 994 3034 1497 
Q 3034 2003 2786 2293 
Q 2538 2584 2113 2584 
z
M 3366 4563 
L 3366 3988 
Q 3128 4100 2886 4159 
Q 2644 4219 2406 4219 
Q 1781 4219 1451 3797 
Q 1122 3375 1075 2522 
Q 1259 2794 1537 2939 
Q 1816 3084 2150 3084 
Q 2853 3084 3261 2657 
Q 3669 2231 3669 1497 
Q 3669 778 3244 343 
Q 2819 -91 2113 -91 
Q 1303 -91 875 529 
Q 447 1150 447 2328 
Q 447 3434 972 4092 
Q 1497 4750 2381 4750 
Q 2619 4750 2861 4703 
Q 3103 4656 3366 4563 
z
" id="DejaVuSans-36" transform="scale(0.015625)"/>
       </defs>
       <use xlink:href="#DejaVuSans-32"/>
       <use x="63.623047" xlink:href="#DejaVuSans-30"/>
       <use x="127.246094" xlink:href="#DejaVuSans-31"/>
       <use x="190.869141" xlink:href="#DejaVuSans-36"/>
      </g>
     </g>
    </g>
    <g id="xtick_12">
     <g id="line2d_13">
      <g>
       <use style="stroke:#000000;stroke-width:0.8;" x="307.115968" xlink:href="#mc25a82d222" y="224.64"/>
      </g>
     </g>
     <g id="text_12">
      <!-- 2018 -->
      <g transform="translate(289.300968 242.277812)scale(0.14 -0.14)">
       <defs>
        <path d="M 2034 2216 
Q 1584 2216 1326 1975 
Q 1069 1734 1069 1313 
Q 1069 891 1326 650 
Q 1584 409 2034 409 
Q 2484 409 2743 651 
Q 3003 894 3003 1313 
Q 3003 1734 2745 1975 
Q 2488 2216 2034 2216 
z
M 1403 2484 
Q 997 2584 770 2862 
Q 544 3141 544 3541 
Q 544 4100 942 4425 
Q 1341 4750 2034 4750 
Q 2731 4750 3128 4425 
Q 3525 4100 3525 3541 
Q 3525 3141 3298 2862 
Q 3072 2584 2669 2484 
Q 3125 2378 3379 2068 
Q 3634 1759 3634 1313 
Q 3634 634 3220 271 
Q 2806 -91 2034 -91 
Q 1263 -91 848 271 
Q 434 634 434 1313 
Q 434 1759 690 2068 
Q 947 2378 1403 2484 
z
M 1172 3481 
Q 1172 3119 1398 2916 
Q 1625 2713 2034 2713 
Q 2441 2713 2670 2916 
Q 2900 3119 2900 3481 
Q 2900 3844 2670 4047 
Q 2441 4250 2034 4250 
Q 1625 4250 1398 4047 
Q 1172 3844 1172 3481 
z
" id="DejaVuSans-38" transform="scale(0.015625)"/>
       </defs>
       <use xlink:href="#DejaVuSans-32"/>
       <use x="63.623047" xlink:href="#DejaVuSans-30"/>
       <use x="127.246094" xlink:href="#DejaVuSans-31"/>
       <use x="190.869141" xlink:href="#DejaVuSans-38"/>
      </g>
     </g>
    </g>
    <g id="xtick_13">
     <g id="line2d_14">
      <g>
       <use style="stroke:#000000;stroke-width:0.8;" x="362.288381" xlink:href="#mc25a82d222" y="224.64"/>
      </g>
     </g>
     <g id="text_13">
      <!-- 2020 -->
      <g transform="translate(344.473381 242.277812)scale(0.14 -0.14)">
       <use xlink:href="#DejaVuSans-32"/>
       <use x="63.623047" xlink:href="#DejaVuSans-30"/>
       <use x="127.246094" xlink:href="#DejaVuSans-32"/>
       <use x="190.869141" xlink:href="#DejaVuSans-30"/>
      </g>
     </g>
    </g>
    <g id="xtick_14">
     <g id="line2d_15">
      <g>
       <use style="stroke:#000000;stroke-width:0.8;" x="417.460795" xlink:href="#mc25a82d222" y="224.64"/>
      </g>
     </g>
     <g id="text_14">
      <!-- 2022 -->
      <g transform="translate(399.645795 242.277812)scale(0.14 -0.14)">
       <use xlink:href="#DejaVuSans-32"/>
       <use x="63.623047" xlink:href="#DejaVuSans-30"/>
       <use x="127.246094" xlink:href="#DejaVuSans-32"/>
       <use x="190.869141" xlink:href="#DejaVuSans-32"/>
      </g>
     </g>
    </g>
   </g>
   <g id="matplotlib.axis_4">
    <g id="ytick_8">
     <g id="line2d_16">
      <g>
       <use style="stroke:#000000;stroke-width:0.8;" x="86.426313" xlink:href="#mb899e77810" y="224.64"/>
      </g>
     </g>
     <g id="text_15">
      <!-- 0.000 -->
      <g transform="translate(39.346938 229.958906)scale(0.14 -0.14)">
       <use xlink:href="#DejaVuSans-30"/>
       <use x="63.623047" xlink:href="#DejaVuSans-2e"/>
       <use x="95.410156" xlink:href="#DejaVuSans-30"/>
       <use x="159.033203" xlink:href="#DejaVuSans-30"/>
       <use x="222.65625" xlink:href="#DejaVuSans-30"/>
      </g>
     </g>
    </g>
   </g>
   <g id="line2d_17">
    <path d="M 81.844261 222.033803 
L 91.008364 212.869699 
" style="fill:none;stroke:#000000;stroke-linecap:square;stroke-width:0.8;"/>
   </g>
   <g id="patch_93">
    <path d="M 86.426313 224.64 
L 86.426313 217.451751 
" style="fill:none;stroke:#000000;stroke-linecap:square;stroke-linejoin:miter;stroke-width:0.8;"/>
   </g>
   <g id="patch_94">
    <path d="M 86.426312 224.64 
L 421.226312 224.64 
" style="fill:none;stroke:#000000;stroke-linecap:square;stroke-linejoin:miter;stroke-width:0.8;"/>
   </g>
  </g>
  <g id="axes_3">
   <g id="patch_95">
    <path d="M 86.426313 224.64 
L 421.226313 224.64 
L 421.226313 7.2 
L 86.426313 7.2 
z
" style="fill:none;"/>
   </g>
   <g id="matplotlib.axis_5"/>
   <g id="matplotlib.axis_6">
    <g id="text_16">
     <!-- # of Overnight Beds -->
     <g transform="translate(17.837812 187.128594)rotate(-90)scale(0.14 -0.14)">
      <defs>
       <path d="M 3272 2816 
L 2363 2816 
L 2100 1772 
L 3016 1772 
L 3272 2816 
z
M 2803 4594 
L 2478 3297 
L 3391 3297 
L 3719 4594 
L 4219 4594 
L 3897 3297 
L 4872 3297 
L 4872 2816 
L 3775 2816 
L 3519 1772 
L 4513 1772 
L 4513 1294 
L 3397 1294 
L 3072 0 
L 2572 0 
L 2894 1294 
L 1978 1294 
L 1656 0 
L 1153 0 
L 1478 1294 
L 494 1294 
L 494 1772 
L 1594 1772 
L 1856 2816 
L 850 2816 
L 850 3297 
L 1978 3297 
L 2297 4594 
L 2803 4594 
z
" id="DejaVuSans-23" transform="scale(0.015625)"/>
       <path id="DejaVuSans-20" transform="scale(0.015625)"/>
       <path d="M 1959 3097 
Q 1497 3097 1228 2736 
Q 959 2375 959 1747 
Q 959 1119 1226 758 
Q 1494 397 1959 397 
Q 2419 397 2687 759 
Q 2956 1122 2956 1747 
Q 2956 2369 2687 2733 
Q 2419 3097 1959 3097 
z
M 1959 3584 
Q 2709 3584 3137 3096 
Q 3566 2609 3566 1747 
Q 3566 888 3137 398 
Q 2709 -91 1959 -91 
Q 1206 -91 779 398 
Q 353 888 353 1747 
Q 353 2609 779 3096 
Q 1206 3584 1959 3584 
z
" id="DejaVuSans-6f" transform="scale(0.015625)"/>
       <path d="M 2375 4863 
L 2375 4384 
L 1825 4384 
Q 1516 4384 1395 4259 
Q 1275 4134 1275 3809 
L 1275 3500 
L 2222 3500 
L 2222 3053 
L 1275 3053 
L 1275 0 
L 697 0 
L 697 3053 
L 147 3053 
L 147 3500 
L 697 3500 
L 697 3744 
Q 697 4328 969 4595 
Q 1241 4863 1831 4863 
L 2375 4863 
z
" id="DejaVuSans-66" transform="scale(0.015625)"/>
       <path d="M 2522 4238 
Q 1834 4238 1429 3725 
Q 1025 3213 1025 2328 
Q 1025 1447 1429 934 
Q 1834 422 2522 422 
Q 3209 422 3611 934 
Q 4013 1447 4013 2328 
Q 4013 3213 3611 3725 
Q 3209 4238 2522 4238 
z
M 2522 4750 
Q 3503 4750 4090 4092 
Q 4678 3434 4678 2328 
Q 4678 1225 4090 567 
Q 3503 -91 2522 -91 
Q 1538 -91 948 565 
Q 359 1222 359 2328 
Q 359 3434 948 4092 
Q 1538 4750 2522 4750 
z
" id="DejaVuSans-4f" transform="scale(0.015625)"/>
       <path d="M 191 3500 
L 800 3500 
L 1894 563 
L 2988 3500 
L 3597 3500 
L 2284 0 
L 1503 0 
L 191 3500 
z
" id="DejaVuSans-76" transform="scale(0.015625)"/>
       <path d="M 3597 1894 
L 3597 1613 
L 953 1613 
Q 991 1019 1311 708 
Q 1631 397 2203 397 
Q 2534 397 2845 478 
Q 3156 559 3463 722 
L 3463 178 
Q 3153 47 2828 -22 
Q 2503 -91 2169 -91 
Q 1331 -91 842 396 
Q 353 884 353 1716 
Q 353 2575 817 3079 
Q 1281 3584 2069 3584 
Q 2775 3584 3186 3129 
Q 3597 2675 3597 1894 
z
M 3022 2063 
Q 3016 2534 2758 2815 
Q 2500 3097 2075 3097 
Q 1594 3097 1305 2825 
Q 1016 2553 972 2059 
L 3022 2063 
z
" id="DejaVuSans-65" transform="scale(0.015625)"/>
       <path d="M 2631 2963 
Q 2534 3019 2420 3045 
Q 2306 3072 2169 3072 
Q 1681 3072 1420 2755 
Q 1159 2438 1159 1844 
L 1159 0 
L 581 0 
L 581 3500 
L 1159 3500 
L 1159 2956 
Q 1341 3275 1631 3429 
Q 1922 3584 2338 3584 
Q 2397 3584 2469 3576 
Q 2541 3569 2628 3553 
L 2631 2963 
z
" id="DejaVuSans-72" transform="scale(0.015625)"/>
       <path d="M 3513 2113 
L 3513 0 
L 2938 0 
L 2938 2094 
Q 2938 2591 2744 2837 
Q 2550 3084 2163 3084 
Q 1697 3084 1428 2787 
Q 1159 2491 1159 1978 
L 1159 0 
L 581 0 
L 581 3500 
L 1159 3500 
L 1159 2956 
Q 1366 3272 1645 3428 
Q 1925 3584 2291 3584 
Q 2894 3584 3203 3211 
Q 3513 2838 3513 2113 
z
" id="DejaVuSans-6e" transform="scale(0.015625)"/>
       <path d="M 603 3500 
L 1178 3500 
L 1178 0 
L 603 0 
L 603 3500 
z
M 603 4863 
L 1178 4863 
L 1178 4134 
L 603 4134 
L 603 4863 
z
" id="DejaVuSans-69" transform="scale(0.015625)"/>
       <path d="M 2906 1791 
Q 2906 2416 2648 2759 
Q 2391 3103 1925 3103 
Q 1463 3103 1205 2759 
Q 947 2416 947 1791 
Q 947 1169 1205 825 
Q 1463 481 1925 481 
Q 2391 481 2648 825 
Q 2906 1169 2906 1791 
z
M 3481 434 
Q 3481 -459 3084 -895 
Q 2688 -1331 1869 -1331 
Q 1566 -1331 1297 -1286 
Q 1028 -1241 775 -1147 
L 775 -588 
Q 1028 -725 1275 -790 
Q 1522 -856 1778 -856 
Q 2344 -856 2625 -561 
Q 2906 -266 2906 331 
L 2906 616 
Q 2728 306 2450 153 
Q 2172 0 1784 0 
Q 1141 0 747 490 
Q 353 981 353 1791 
Q 353 2603 747 3093 
Q 1141 3584 1784 3584 
Q 2172 3584 2450 3431 
Q 2728 3278 2906 2969 
L 2906 3500 
L 3481 3500 
L 3481 434 
z
" id="DejaVuSans-67" transform="scale(0.015625)"/>
       <path d="M 3513 2113 
L 3513 0 
L 2938 0 
L 2938 2094 
Q 2938 2591 2744 2837 
Q 2550 3084 2163 3084 
Q 1697 3084 1428 2787 
Q 1159 2491 1159 1978 
L 1159 0 
L 581 0 
L 581 4863 
L 1159 4863 
L 1159 2956 
Q 1366 3272 1645 3428 
Q 1925 3584 2291 3584 
Q 2894 3584 3203 3211 
Q 3513 2838 3513 2113 
z
" id="DejaVuSans-68" transform="scale(0.015625)"/>
       <path d="M 1172 4494 
L 1172 3500 
L 2356 3500 
L 2356 3053 
L 1172 3053 
L 1172 1153 
Q 1172 725 1289 603 
Q 1406 481 1766 481 
L 2356 481 
L 2356 0 
L 1766 0 
Q 1100 0 847 248 
Q 594 497 594 1153 
L 594 3053 
L 172 3053 
L 172 3500 
L 594 3500 
L 594 4494 
L 1172 4494 
z
" id="DejaVuSans-74" transform="scale(0.015625)"/>
       <path d="M 1259 2228 
L 1259 519 
L 2272 519 
Q 2781 519 3026 730 
Q 3272 941 3272 1375 
Q 3272 1813 3026 2020 
Q 2781 2228 2272 2228 
L 1259 2228 
z
M 1259 4147 
L 1259 2741 
L 2194 2741 
Q 2656 2741 2882 2914 
Q 3109 3088 3109 3444 
Q 3109 3797 2882 3972 
Q 2656 4147 2194 4147 
L 1259 4147 
z
M 628 4666 
L 2241 4666 
Q 2963 4666 3353 4366 
Q 3744 4066 3744 3513 
Q 3744 3084 3544 2831 
Q 3344 2578 2956 2516 
Q 3422 2416 3680 2098 
Q 3938 1781 3938 1306 
Q 3938 681 3513 340 
Q 3088 0 2303 0 
L 628 0 
L 628 4666 
z
" id="DejaVuSans-42" transform="scale(0.015625)"/>
       <path d="M 2906 2969 
L 2906 4863 
L 3481 4863 
L 3481 0 
L 2906 0 
L 2906 525 
Q 2725 213 2448 61 
Q 2172 -91 1784 -91 
Q 1150 -91 751 415 
Q 353 922 353 1747 
Q 353 2572 751 3078 
Q 1150 3584 1784 3584 
Q 2172 3584 2448 3432 
Q 2725 3281 2906 2969 
z
M 947 1747 
Q 947 1113 1208 752 
Q 1469 391 1925 391 
Q 2381 391 2643 752 
Q 2906 1113 2906 1747 
Q 2906 2381 2643 2742 
Q 2381 3103 1925 3103 
Q 1469 3103 1208 2742 
Q 947 2381 947 1747 
z
" id="DejaVuSans-64" transform="scale(0.015625)"/>
       <path d="M 2834 3397 
L 2834 2853 
Q 2591 2978 2328 3040 
Q 2066 3103 1784 3103 
Q 1356 3103 1142 2972 
Q 928 2841 928 2578 
Q 928 2378 1081 2264 
Q 1234 2150 1697 2047 
L 1894 2003 
Q 2506 1872 2764 1633 
Q 3022 1394 3022 966 
Q 3022 478 2636 193 
Q 2250 -91 1575 -91 
Q 1294 -91 989 -36 
Q 684 19 347 128 
L 347 722 
Q 666 556 975 473 
Q 1284 391 1588 391 
Q 1994 391 2212 530 
Q 2431 669 2431 922 
Q 2431 1156 2273 1281 
Q 2116 1406 1581 1522 
L 1381 1569 
Q 847 1681 609 1914 
Q 372 2147 372 2553 
Q 372 3047 722 3315 
Q 1072 3584 1716 3584 
Q 2034 3584 2315 3537 
Q 2597 3491 2834 3397 
z
" id="DejaVuSans-73" transform="scale(0.015625)"/>
      </defs>
      <use xlink:href="#DejaVuSans-23"/>
      <use x="83.789062" xlink:href="#DejaVuSans-20"/>
      <use x="115.576172" xlink:href="#DejaVuSans-6f"/>
      <use x="176.757812" xlink:href="#DejaVuSans-66"/>
      <use x="211.962891" xlink:href="#DejaVuSans-20"/>
      <use x="243.75" xlink:href="#DejaVuSans-4f"/>
      <use x="322.460938" xlink:href="#DejaVuSans-76"/>
      <use x="381.640625" xlink:href="#DejaVuSans-65"/>
      <use x="443.164062" xlink:href="#DejaVuSans-72"/>
      <use x="482.527344" xlink:href="#DejaVuSans-6e"/>
      <use x="545.90625" xlink:href="#DejaVuSans-69"/>
      <use x="573.689453" xlink:href="#DejaVuSans-67"/>
      <use x="637.166016" xlink:href="#DejaVuSans-68"/>
      <use x="700.544922" xlink:href="#DejaVuSans-74"/>
      <use x="739.753906" xlink:href="#DejaVuSans-20"/>
      <use x="771.541016" xlink:href="#DejaVuSans-42"/>
      <use x="840.144531" xlink:href="#DejaVuSans-65"/>
      <use x="901.667969" xlink:href="#DejaVuSans-64"/>
      <use x="965.144531" xlink:href="#DejaVuSans-73"/>
     </g>
     <!-- (Thousands) -->
     <g transform="translate(33.51475 159.27625)rotate(-90)scale(0.14 -0.14)">
      <defs>
       <path d="M 1984 4856 
Q 1566 4138 1362 3434 
Q 1159 2731 1159 2009 
Q 1159 1288 1364 580 
Q 1569 -128 1984 -844 
L 1484 -844 
Q 1016 -109 783 600 
Q 550 1309 550 2009 
Q 550 2706 781 3412 
Q 1013 4119 1484 4856 
L 1984 4856 
z
" id="DejaVuSans-28" transform="scale(0.015625)"/>
       <path d="M -19 4666 
L 3928 4666 
L 3928 4134 
L 2272 4134 
L 2272 0 
L 1638 0 
L 1638 4134 
L -19 4134 
L -19 4666 
z
" id="DejaVuSans-54" transform="scale(0.015625)"/>
       <path d="M 544 1381 
L 544 3500 
L 1119 3500 
L 1119 1403 
Q 1119 906 1312 657 
Q 1506 409 1894 409 
Q 2359 409 2629 706 
Q 2900 1003 2900 1516 
L 2900 3500 
L 3475 3500 
L 3475 0 
L 2900 0 
L 2900 538 
Q 2691 219 2414 64 
Q 2138 -91 1772 -91 
Q 1169 -91 856 284 
Q 544 659 544 1381 
z
M 1991 3584 
L 1991 3584 
z
" id="DejaVuSans-75" transform="scale(0.015625)"/>
       <path d="M 2194 1759 
Q 1497 1759 1228 1600 
Q 959 1441 959 1056 
Q 959 750 1161 570 
Q 1363 391 1709 391 
Q 2188 391 2477 730 
Q 2766 1069 2766 1631 
L 2766 1759 
L 2194 1759 
z
M 3341 1997 
L 3341 0 
L 2766 0 
L 2766 531 
Q 2569 213 2275 61 
Q 1981 -91 1556 -91 
Q 1019 -91 701 211 
Q 384 513 384 1019 
Q 384 1609 779 1909 
Q 1175 2209 1959 2209 
L 2766 2209 
L 2766 2266 
Q 2766 2663 2505 2880 
Q 2244 3097 1772 3097 
Q 1472 3097 1187 3025 
Q 903 2953 641 2809 
L 641 3341 
Q 956 3463 1253 3523 
Q 1550 3584 1831 3584 
Q 2591 3584 2966 3190 
Q 3341 2797 3341 1997 
z
" id="DejaVuSans-61" transform="scale(0.015625)"/>
       <path d="M 513 4856 
L 1013 4856 
Q 1481 4119 1714 3412 
Q 1947 2706 1947 2009 
Q 1947 1309 1714 600 
Q 1481 -109 1013 -844 
L 513 -844 
Q 928 -128 1133 580 
Q 1338 1288 1338 2009 
Q 1338 2731 1133 3434 
Q 928 4138 513 4856 
z
" id="DejaVuSans-29" transform="scale(0.015625)"/>
      </defs>
      <use xlink:href="#DejaVuSans-28"/>
      <use x="39.013672" xlink:href="#DejaVuSans-54"/>
      <use x="100.097656" xlink:href="#DejaVuSans-68"/>
      <use x="163.476562" xlink:href="#DejaVuSans-6f"/>
      <use x="224.658203" xlink:href="#DejaVuSans-75"/>
      <use x="288.037109" xlink:href="#DejaVuSans-73"/>
      <use x="340.136719" xlink:href="#DejaVuSans-61"/>
      <use x="401.416016" xlink:href="#DejaVuSans-6e"/>
      <use x="464.794922" xlink:href="#DejaVuSans-64"/>
      <use x="528.271484" xlink:href="#DejaVuSans-73"/>
      <use x="580.371094" xlink:href="#DejaVuSans-29"/>
     </g>
    </g>
   </g>
  </g>
 </g>
 <defs>
  <clipPath id="p63f9801190">
   <rect height="201.888674" width="334.8" x="86.426313" y="7.2"/>
  </clipPath>
  <clipPath id="pdf84843861">
   <rect height="7.188249" width="334.8" x="86.426313" y="217.451751"/>
  </clipPath>
 </defs>
</svg>
