<?xml version="1.0" encoding="utf-8" standalone="no"?>
<!DOCTYPE svg PUBLIC "-//W3C//DTD SVG 1.1//EN"
  "http://www.w3.org/Graphics/SVG/1.1/DTD/svg11.dtd">
<!-- Created with matplotlib (https://matplotlib.org/) -->
<svg height="288pt" version="1.1" viewBox="0 0 1008 288" width="1008pt" xmlns="http://www.w3.org/2000/svg" xmlns:xlink="http://www.w3.org/1999/xlink">
 <defs>
  <style type="text/css">
*{stroke-linecap:butt;stroke-linejoin:round;}
  </style>
 </defs>
 <g id="figure_1">
  <g id="patch_1">
   <path d="M 0 288 
L 1008 288 
L 1008 0 
L 0 0 
z
" style="fill:#ffffff;"/>
  </g>
  <g id="axes_1">
   <g id="patch_2">
    <path d="M 71.61 252.01 
L 995.04 252.01 
L 995.04 35.99 
L 71.61 35.99 
z
" style="fill:#ffffff;"/>
   </g>
   <g id="matplotlib.axis_1">
    <g id="xtick_1">
     <g id="line2d_1">
      <path clip-path="url(#p429b64e4c5)" d="M 71.61 252.01 
L 71.61 35.99 
" style="fill:none;stroke:#b0b0b0;stroke-linecap:square;stroke-width:0.8;"/>
     </g>
     <g id="line2d_2">
      <defs>
       <path d="M 0 0 
L 0 3.5 
" id="m7ad1231155" style="stroke:#000000;stroke-width:0.8;"/>
      </defs>
      <g>
       <use style="stroke:#000000;stroke-width:0.8;" x="71.61" xlink:href="#m7ad1231155" y="252.01"/>
      </g>
     </g>
     <g id="text_1">
      <!-- Jan -->
      <defs>
       <path d="M 9.8125 72.90625 
L 19.671875 72.90625 
L 19.671875 5.078125 
Q 19.671875 -8.109375 14.671875 -14.0625 
Q 9.671875 -20.015625 -1.421875 -20.015625 
L -5.171875 -20.015625 
L -5.171875 -11.71875 
L -2.09375 -11.71875 
Q 4.4375 -11.71875 7.125 -8.046875 
Q 9.8125 -4.390625 9.8125 5.078125 
z
" id="DejaVuSans-74"/>
       <path d="M 34.28125 27.484375 
Q 23.390625 27.484375 19.1875 25 
Q 14.984375 22.515625 14.984375 16.5 
Q 14.984375 11.71875 18.140625 8.90625 
Q 21.296875 6.109375 26.703125 6.109375 
Q 34.1875 6.109375 38.703125 11.40625 
Q 43.21875 16.703125 43.21875 25.484375 
L 43.21875 27.484375 
z
M 52.203125 31.203125 
L 52.203125 0 
L 43.21875 0 
L 43.21875 8.296875 
Q 40.140625 3.328125 35.546875 0.953125 
Q 30.953125 -1.421875 24.3125 -1.421875 
Q 15.921875 -1.421875 10.953125 3.296875 
Q 6 8.015625 6 15.921875 
Q 6 25.140625 12.171875 29.828125 
Q 18.359375 34.515625 30.609375 34.515625 
L 43.21875 34.515625 
L 43.21875 35.40625 
Q 43.21875 41.609375 39.140625 45 
Q 35.0625 48.390625 27.6875 48.390625 
Q 23 48.390625 18.546875 47.265625 
Q 14.109375 46.140625 10.015625 43.890625 
L 10.015625 52.203125 
Q 14.9375 54.109375 19.578125 55.046875 
Q 24.21875 56 28.609375 56 
Q 40.484375 56 46.34375 49.84375 
Q 52.203125 43.703125 52.203125 31.203125 
z
" id="DejaVuSans-97"/>
       <path d="M 54.890625 33.015625 
L 54.890625 0 
L 45.90625 0 
L 45.90625 32.71875 
Q 45.90625 40.484375 42.875 44.328125 
Q 39.84375 48.1875 33.796875 48.1875 
Q 26.515625 48.1875 22.3125 43.546875 
Q 18.109375 38.921875 18.109375 30.90625 
L 18.109375 0 
L 9.078125 0 
L 9.078125 54.6875 
L 18.109375 54.6875 
L 18.109375 46.1875 
Q 21.34375 51.125 25.703125 53.5625 
Q 30.078125 56 35.796875 56 
Q 45.21875 56 50.046875 50.171875 
Q 54.890625 44.34375 54.890625 33.015625 
z
" id="DejaVuSans-110"/>
      </defs>
      <g transform="translate(62.360625 268.128125)scale(0.12 -0.12)">
       <use xlink:href="#DejaVuSans-74"/>
       <use x="29.492188" xlink:href="#DejaVuSans-97"/>
       <use x="90.771484" xlink:href="#DejaVuSans-110"/>
      </g>
     </g>
    </g>
    <g id="xtick_2">
     <g id="line2d_3">
      <path clip-path="url(#p429b64e4c5)" d="M 150.038301 252.01 
L 150.038301 35.99 
" style="fill:none;stroke:#b0b0b0;stroke-linecap:square;stroke-width:0.8;"/>
     </g>
     <g id="line2d_4">
      <g>
       <use style="stroke:#000000;stroke-width:0.8;" x="150.038301" xlink:href="#m7ad1231155" y="252.01"/>
      </g>
     </g>
     <g id="text_2">
      <!-- Feb -->
      <defs>
       <path d="M 9.8125 72.90625 
L 51.703125 72.90625 
L 51.703125 64.59375 
L 19.671875 64.59375 
L 19.671875 43.109375 
L 48.578125 43.109375 
L 48.578125 34.8125 
L 19.671875 34.8125 
L 19.671875 0 
L 9.8125 0 
z
" id="DejaVuSans-70"/>
       <path d="M 56.203125 29.59375 
L 56.203125 25.203125 
L 14.890625 25.203125 
Q 15.484375 15.921875 20.484375 11.0625 
Q 25.484375 6.203125 34.421875 6.203125 
Q 39.59375 6.203125 44.453125 7.46875 
Q 49.3125 8.734375 54.109375 11.28125 
L 54.109375 2.78125 
Q 49.265625 0.734375 44.1875 -0.34375 
Q 39.109375 -1.421875 33.890625 -1.421875 
Q 20.796875 -1.421875 13.15625 6.1875 
Q 5.515625 13.8125 5.515625 26.8125 
Q 5.515625 40.234375 12.765625 48.109375 
Q 20.015625 56 32.328125 56 
Q 43.359375 56 49.78125 48.890625 
Q 56.203125 41.796875 56.203125 29.59375 
z
M 47.21875 32.234375 
Q 47.125 39.59375 43.09375 43.984375 
Q 39.0625 48.390625 32.421875 48.390625 
Q 24.90625 48.390625 20.390625 44.140625 
Q 15.875 39.890625 15.1875 32.171875 
z
" id="DejaVuSans-101"/>
       <path d="M 48.6875 27.296875 
Q 48.6875 37.203125 44.609375 42.84375 
Q 40.53125 48.484375 33.40625 48.484375 
Q 26.265625 48.484375 22.1875 42.84375 
Q 18.109375 37.203125 18.109375 27.296875 
Q 18.109375 17.390625 22.1875 11.75 
Q 26.265625 6.109375 33.40625 6.109375 
Q 40.53125 6.109375 44.609375 11.75 
Q 48.6875 17.390625 48.6875 27.296875 
z
M 18.109375 46.390625 
Q 20.953125 51.265625 25.265625 53.625 
Q 29.59375 56 35.59375 56 
Q 45.5625 56 51.78125 48.09375 
Q 58.015625 40.1875 58.015625 27.296875 
Q 58.015625 14.40625 51.78125 6.484375 
Q 45.5625 -1.421875 35.59375 -1.421875 
Q 29.59375 -1.421875 25.265625 0.953125 
Q 20.953125 3.328125 18.109375 8.203125 
L 18.109375 0 
L 9.078125 0 
L 9.078125 75.984375 
L 18.109375 75.984375 
z
" id="DejaVuSans-98"/>
      </defs>
      <g transform="translate(139.091114 268.128125)scale(0.12 -0.12)">
       <use xlink:href="#DejaVuSans-70"/>
       <use x="57.441406" xlink:href="#DejaVuSans-101"/>
       <use x="118.964844" xlink:href="#DejaVuSans-98"/>
      </g>
     </g>
    </g>
    <g id="xtick_3">
     <g id="line2d_5">
      <path clip-path="url(#p429b64e4c5)" d="M 223.406712 252.01 
L 223.406712 35.99 
" style="fill:none;stroke:#b0b0b0;stroke-linecap:square;stroke-width:0.8;"/>
     </g>
     <g id="line2d_6">
      <g>
       <use style="stroke:#000000;stroke-width:0.8;" x="223.406712" xlink:href="#m7ad1231155" y="252.01"/>
      </g>
     </g>
     <g id="text_3">
      <!-- Mar -->
      <defs>
       <path d="M 9.8125 72.90625 
L 24.515625 72.90625 
L 43.109375 23.296875 
L 61.8125 72.90625 
L 76.515625 72.90625 
L 76.515625 0 
L 66.890625 0 
L 66.890625 64.015625 
L 48.09375 14.015625 
L 38.1875 14.015625 
L 19.390625 64.015625 
L 19.390625 0 
L 9.8125 0 
z
" id="DejaVuSans-77"/>
       <path d="M 41.109375 46.296875 
Q 39.59375 47.171875 37.8125 47.578125 
Q 36.03125 48 33.890625 48 
Q 26.265625 48 22.1875 43.046875 
Q 18.109375 38.09375 18.109375 28.8125 
L 18.109375 0 
L 9.078125 0 
L 9.078125 54.6875 
L 18.109375 54.6875 
L 18.109375 46.1875 
Q 20.953125 51.171875 25.484375 53.578125 
Q 30.03125 56 36.53125 56 
Q 37.453125 56 38.578125 55.875 
Q 39.703125 55.765625 41.0625 55.515625 
z
" id="DejaVuSans-114"/>
      </defs>
      <g transform="translate(212.0864 268.128125)scale(0.12 -0.12)">
       <use xlink:href="#DejaVuSans-77"/>
       <use x="86.279297" xlink:href="#DejaVuSans-97"/>
       <use x="147.558594" xlink:href="#DejaVuSans-114"/>
      </g>
     </g>
    </g>
    <g id="xtick_4">
     <g id="line2d_7">
      <path clip-path="url(#p429b64e4c5)" d="M 301.835014 252.01 
L 301.835014 35.99 
" style="fill:none;stroke:#b0b0b0;stroke-linecap:square;stroke-width:0.8;"/>
     </g>
     <g id="line2d_8">
      <g>
       <use style="stroke:#000000;stroke-width:0.8;" x="301.835014" xlink:href="#m7ad1231155" y="252.01"/>
      </g>
     </g>
     <g id="text_4">
      <!-- Apr -->
      <defs>
       <path d="M 34.1875 63.1875 
L 20.796875 26.90625 
L 47.609375 26.90625 
z
M 28.609375 72.90625 
L 39.796875 72.90625 
L 67.578125 0 
L 57.328125 0 
L 50.6875 18.703125 
L 17.828125 18.703125 
L 11.1875 0 
L 0.78125 0 
z
" id="DejaVuSans-65"/>
       <path d="M 18.109375 8.203125 
L 18.109375 -20.796875 
L 9.078125 -20.796875 
L 9.078125 54.6875 
L 18.109375 54.6875 
L 18.109375 46.390625 
Q 20.953125 51.265625 25.265625 53.625 
Q 29.59375 56 35.59375 56 
Q 45.5625 56 51.78125 48.09375 
Q 58.015625 40.1875 58.015625 27.296875 
Q 58.015625 14.40625 51.78125 6.484375 
Q 45.5625 -1.421875 35.59375 -1.421875 
Q 29.59375 -1.421875 25.265625 0.953125 
Q 20.953125 3.328125 18.109375 8.203125 
z
M 48.6875 27.296875 
Q 48.6875 37.203125 44.609375 42.84375 
Q 40.53125 48.484375 33.40625 48.484375 
Q 26.265625 48.484375 22.1875 42.84375 
Q 18.109375 37.203125 18.109375 27.296875 
Q 18.109375 17.390625 22.1875 11.75 
Q 26.265625 6.109375 33.40625 6.109375 
Q 40.53125 6.109375 44.609375 11.75 
Q 48.6875 17.390625 48.6875 27.296875 
z
" id="DejaVuSans-112"/>
      </defs>
      <g transform="translate(291.455014 268.128125)scale(0.12 -0.12)">
       <use xlink:href="#DejaVuSans-65"/>
       <use x="68.408203" xlink:href="#DejaVuSans-112"/>
       <use x="131.884766" xlink:href="#DejaVuSans-114"/>
      </g>
     </g>
    </g>
    <g id="xtick_5">
     <g id="line2d_9">
      <path clip-path="url(#p429b64e4c5)" d="M 377.73337 252.01 
L 377.73337 35.99 
" style="fill:none;stroke:#b0b0b0;stroke-linecap:square;stroke-width:0.8;"/>
     </g>
     <g id="line2d_10">
      <g>
       <use style="stroke:#000000;stroke-width:0.8;" x="377.73337" xlink:href="#m7ad1231155" y="252.01"/>
      </g>
     </g>
     <g id="text_5">
      <!-- May -->
      <defs>
       <path d="M 32.171875 -5.078125 
Q 28.375 -14.84375 24.75 -17.8125 
Q 21.140625 -20.796875 15.09375 -20.796875 
L 7.90625 -20.796875 
L 7.90625 -13.28125 
L 13.1875 -13.28125 
Q 16.890625 -13.28125 18.9375 -11.515625 
Q 21 -9.765625 23.484375 -3.21875 
L 25.09375 0.875 
L 2.984375 54.6875 
L 12.5 54.6875 
L 29.59375 11.921875 
L 46.6875 54.6875 
L 56.203125 54.6875 
z
" id="DejaVuSans-121"/>
      </defs>
      <g transform="translate(365.32837 268.128125)scale(0.12 -0.12)">
       <use xlink:href="#DejaVuSans-77"/>
       <use x="86.279297" xlink:href="#DejaVuSans-97"/>
       <use x="147.558594" xlink:href="#DejaVuSans-121"/>
      </g>
     </g>
    </g>
    <g id="xtick_6">
     <g id="line2d_11">
      <path clip-path="url(#p429b64e4c5)" d="M 456.161671 252.01 
L 456.161671 35.99 
" style="fill:none;stroke:#b0b0b0;stroke-linecap:square;stroke-width:0.8;"/>
     </g>
     <g id="line2d_12">
      <g>
       <use style="stroke:#000000;stroke-width:0.8;" x="456.161671" xlink:href="#m7ad1231155" y="252.01"/>
      </g>
     </g>
     <g id="text_6">
      <!-- Jun -->
      <defs>
       <path d="M 8.5 21.578125 
L 8.5 54.6875 
L 17.484375 54.6875 
L 17.484375 21.921875 
Q 17.484375 14.15625 20.5 10.265625 
Q 23.53125 6.390625 29.59375 6.390625 
Q 36.859375 6.390625 41.078125 11.03125 
Q 45.3125 15.671875 45.3125 23.6875 
L 45.3125 54.6875 
L 54.296875 54.6875 
L 54.296875 0 
L 45.3125 0 
L 45.3125 8.40625 
Q 42.046875 3.421875 37.71875 1 
Q 33.40625 -1.421875 27.6875 -1.421875 
Q 18.265625 -1.421875 13.375 4.4375 
Q 8.5 10.296875 8.5 21.578125 
z
M 31.109375 56 
z
" id="DejaVuSans-117"/>
      </defs>
      <g transform="translate(446.786671 268.128125)scale(0.12 -0.12)">
       <use xlink:href="#DejaVuSans-74"/>
       <use x="29.492188" xlink:href="#DejaVuSans-117"/>
       <use x="92.871094" xlink:href="#DejaVuSans-110"/>
      </g>
     </g>
    </g>
    <g id="xtick_7">
     <g id="line2d_13">
      <path clip-path="url(#p429b64e4c5)" d="M 532.060027 252.01 
L 532.060027 35.99 
" style="fill:none;stroke:#b0b0b0;stroke-linecap:square;stroke-width:0.8;"/>
     </g>
     <g id="line2d_14">
      <g>
       <use style="stroke:#000000;stroke-width:0.8;" x="532.060027" xlink:href="#m7ad1231155" y="252.01"/>
      </g>
     </g>
     <g id="text_7">
      <!-- Jul -->
      <defs>
       <path d="M 9.421875 75.984375 
L 18.40625 75.984375 
L 18.40625 0 
L 9.421875 0 
z
" id="DejaVuSans-108"/>
      </defs>
      <g transform="translate(524.820652 268.128125)scale(0.12 -0.12)">
       <use xlink:href="#DejaVuSans-74"/>
       <use x="29.492188" xlink:href="#DejaVuSans-117"/>
       <use x="92.871094" xlink:href="#DejaVuSans-108"/>
      </g>
     </g>
    </g>
    <g id="xtick_8">
     <g id="line2d_15">
      <path clip-path="url(#p429b64e4c5)" d="M 610.488329 252.01 
L 610.488329 35.99 
" style="fill:none;stroke:#b0b0b0;stroke-linecap:square;stroke-width:0.8;"/>
     </g>
     <g id="line2d_16">
      <g>
       <use style="stroke:#000000;stroke-width:0.8;" x="610.488329" xlink:href="#m7ad1231155" y="252.01"/>
      </g>
     </g>
     <g id="text_8">
      <!-- Aug -->
      <defs>
       <path d="M 45.40625 27.984375 
Q 45.40625 37.75 41.375 43.109375 
Q 37.359375 48.484375 30.078125 48.484375 
Q 22.859375 48.484375 18.828125 43.109375 
Q 14.796875 37.75 14.796875 27.984375 
Q 14.796875 18.265625 18.828125 12.890625 
Q 22.859375 7.515625 30.078125 7.515625 
Q 37.359375 7.515625 41.375 12.890625 
Q 45.40625 18.265625 45.40625 27.984375 
z
M 54.390625 6.78125 
Q 54.390625 -7.171875 48.1875 -13.984375 
Q 42 -20.796875 29.203125 -20.796875 
Q 24.46875 -20.796875 20.265625 -20.09375 
Q 16.0625 -19.390625 12.109375 -17.921875 
L 12.109375 -9.1875 
Q 16.0625 -11.328125 19.921875 -12.34375 
Q 23.78125 -13.375 27.78125 -13.375 
Q 36.625 -13.375 41.015625 -8.765625 
Q 45.40625 -4.15625 45.40625 5.171875 
L 45.40625 9.625 
Q 42.625 4.78125 38.28125 2.390625 
Q 33.9375 0 27.875 0 
Q 17.828125 0 11.671875 7.65625 
Q 5.515625 15.328125 5.515625 27.984375 
Q 5.515625 40.671875 11.671875 48.328125 
Q 17.828125 56 27.875 56 
Q 33.9375 56 38.28125 53.609375 
Q 42.625 51.21875 45.40625 46.390625 
L 45.40625 54.6875 
L 54.390625 54.6875 
z
" id="DejaVuSans-103"/>
      </defs>
      <g transform="translate(598.772391 268.128125)scale(0.12 -0.12)">
       <use xlink:href="#DejaVuSans-65"/>
       <use x="68.408203" xlink:href="#DejaVuSans-117"/>
       <use x="131.787109" xlink:href="#DejaVuSans-103"/>
      </g>
     </g>
    </g>
    <g id="xtick_9">
     <g id="line2d_17">
      <path clip-path="url(#p429b64e4c5)" d="M 688.91663 252.01 
L 688.91663 35.99 
" style="fill:none;stroke:#b0b0b0;stroke-linecap:square;stroke-width:0.8;"/>
     </g>
     <g id="line2d_18">
      <g>
       <use style="stroke:#000000;stroke-width:0.8;" x="688.91663" xlink:href="#m7ad1231155" y="252.01"/>
      </g>
     </g>
     <g id="text_9">
      <!-- Sep -->
      <defs>
       <path d="M 53.515625 70.515625 
L 53.515625 60.890625 
Q 47.90625 63.578125 42.921875 64.890625 
Q 37.9375 66.21875 33.296875 66.21875 
Q 25.25 66.21875 20.875 63.09375 
Q 16.5 59.96875 16.5 54.203125 
Q 16.5 49.359375 19.40625 46.890625 
Q 22.3125 44.4375 30.421875 42.921875 
L 36.375 41.703125 
Q 47.40625 39.59375 52.65625 34.296875 
Q 57.90625 29 57.90625 20.125 
Q 57.90625 9.515625 50.796875 4.046875 
Q 43.703125 -1.421875 29.984375 -1.421875 
Q 24.8125 -1.421875 18.96875 -0.25 
Q 13.140625 0.921875 6.890625 3.21875 
L 6.890625 13.375 
Q 12.890625 10.015625 18.65625 8.296875 
Q 24.421875 6.59375 29.984375 6.59375 
Q 38.421875 6.59375 43.015625 9.90625 
Q 47.609375 13.234375 47.609375 19.390625 
Q 47.609375 24.75 44.3125 27.78125 
Q 41.015625 30.8125 33.5 32.328125 
L 27.484375 33.5 
Q 16.453125 35.6875 11.515625 40.375 
Q 6.59375 45.0625 6.59375 53.421875 
Q 6.59375 63.09375 13.40625 68.65625 
Q 20.21875 74.21875 32.171875 74.21875 
Q 37.3125 74.21875 42.625 73.28125 
Q 47.953125 72.359375 53.515625 70.515625 
z
" id="DejaVuSans-83"/>
      </defs>
      <g transform="translate(677.60663 268.128125)scale(0.12 -0.12)">
       <use xlink:href="#DejaVuSans-83"/>
       <use x="63.476562" xlink:href="#DejaVuSans-101"/>
       <use x="125" xlink:href="#DejaVuSans-112"/>
      </g>
     </g>
    </g>
    <g id="xtick_10">
     <g id="line2d_19">
      <path clip-path="url(#p429b64e4c5)" d="M 764.814986 252.01 
L 764.814986 35.99 
" style="fill:none;stroke:#b0b0b0;stroke-linecap:square;stroke-width:0.8;"/>
     </g>
     <g id="line2d_20">
      <g>
       <use style="stroke:#000000;stroke-width:0.8;" x="764.814986" xlink:href="#m7ad1231155" y="252.01"/>
      </g>
     </g>
     <g id="text_10">
      <!-- Oct -->
      <defs>
       <path d="M 39.40625 66.21875 
Q 28.65625 66.21875 22.328125 58.203125 
Q 16.015625 50.203125 16.015625 36.375 
Q 16.015625 22.609375 22.328125 14.59375 
Q 28.65625 6.59375 39.40625 6.59375 
Q 50.140625 6.59375 56.421875 14.59375 
Q 62.703125 22.609375 62.703125 36.375 
Q 62.703125 50.203125 56.421875 58.203125 
Q 50.140625 66.21875 39.40625 66.21875 
z
M 39.40625 74.21875 
Q 54.734375 74.21875 63.90625 63.9375 
Q 73.09375 53.65625 73.09375 36.375 
Q 73.09375 19.140625 63.90625 8.859375 
Q 54.734375 -1.421875 39.40625 -1.421875 
Q 24.03125 -1.421875 14.8125 8.828125 
Q 5.609375 19.09375 5.609375 36.375 
Q 5.609375 53.65625 14.8125 63.9375 
Q 24.03125 74.21875 39.40625 74.21875 
z
" id="DejaVuSans-79"/>
       <path d="M 48.78125 52.59375 
L 48.78125 44.1875 
Q 44.96875 46.296875 41.140625 47.34375 
Q 37.3125 48.390625 33.40625 48.390625 
Q 24.65625 48.390625 19.8125 42.84375 
Q 14.984375 37.3125 14.984375 27.296875 
Q 14.984375 17.28125 19.8125 11.734375 
Q 24.65625 6.203125 33.40625 6.203125 
Q 37.3125 6.203125 41.140625 7.25 
Q 44.96875 8.296875 48.78125 10.40625 
L 48.78125 2.09375 
Q 45.015625 0.34375 40.984375 -0.53125 
Q 36.96875 -1.421875 32.421875 -1.421875 
Q 20.0625 -1.421875 12.78125 6.34375 
Q 5.515625 14.109375 5.515625 27.296875 
Q 5.515625 40.671875 12.859375 48.328125 
Q 20.21875 56 33.015625 56 
Q 37.15625 56 41.109375 55.140625 
Q 45.0625 54.296875 48.78125 52.59375 
z
" id="DejaVuSans-99"/>
       <path d="M 18.3125 70.21875 
L 18.3125 54.6875 
L 36.8125 54.6875 
L 36.8125 47.703125 
L 18.3125 47.703125 
L 18.3125 18.015625 
Q 18.3125 11.328125 20.140625 9.421875 
Q 21.96875 7.515625 27.59375 7.515625 
L 36.8125 7.515625 
L 36.8125 0 
L 27.59375 0 
Q 17.1875 0 13.234375 3.875 
Q 9.28125 7.765625 9.28125 18.015625 
L 9.28125 47.703125 
L 2.6875 47.703125 
L 2.6875 54.6875 
L 9.28125 54.6875 
L 9.28125 70.21875 
z
" id="DejaVuSans-116"/>
      </defs>
      <g transform="translate(754.440611 268.128125)scale(0.12 -0.12)">
       <use xlink:href="#DejaVuSans-79"/>
       <use x="78.710938" xlink:href="#DejaVuSans-99"/>
       <use x="133.691406" xlink:href="#DejaVuSans-116"/>
      </g>
     </g>
    </g>
    <g id="xtick_11">
     <g id="line2d_21">
      <path clip-path="url(#p429b64e4c5)" d="M 843.243288 252.01 
L 843.243288 35.99 
" style="fill:none;stroke:#b0b0b0;stroke-linecap:square;stroke-width:0.8;"/>
     </g>
     <g id="line2d_22">
      <g>
       <use style="stroke:#000000;stroke-width:0.8;" x="843.243288" xlink:href="#m7ad1231155" y="252.01"/>
      </g>
     </g>
     <g id="text_11">
      <!-- Nov -->
      <defs>
       <path d="M 9.8125 72.90625 
L 23.09375 72.90625 
L 55.421875 11.921875 
L 55.421875 72.90625 
L 64.984375 72.90625 
L 64.984375 0 
L 51.703125 0 
L 19.390625 60.984375 
L 19.390625 0 
L 9.8125 0 
z
" id="DejaVuSans-78"/>
       <path d="M 30.609375 48.390625 
Q 23.390625 48.390625 19.1875 42.75 
Q 14.984375 37.109375 14.984375 27.296875 
Q 14.984375 17.484375 19.15625 11.84375 
Q 23.34375 6.203125 30.609375 6.203125 
Q 37.796875 6.203125 41.984375 11.859375 
Q 46.1875 17.53125 46.1875 27.296875 
Q 46.1875 37.015625 41.984375 42.703125 
Q 37.796875 48.390625 30.609375 48.390625 
z
M 30.609375 56 
Q 42.328125 56 49.015625 48.375 
Q 55.71875 40.765625 55.71875 27.296875 
Q 55.71875 13.875 49.015625 6.21875 
Q 42.328125 -1.421875 30.609375 -1.421875 
Q 18.84375 -1.421875 12.171875 6.21875 
Q 5.515625 13.875 5.515625 27.296875 
Q 5.515625 40.765625 12.171875 48.375 
Q 18.84375 56 30.609375 56 
z
" id="DejaVuSans-111"/>
       <path d="M 2.984375 54.6875 
L 12.5 54.6875 
L 29.59375 8.796875 
L 46.6875 54.6875 
L 56.203125 54.6875 
L 35.6875 0 
L 23.484375 0 
z
" id="DejaVuSans-118"/>
      </defs>
      <g transform="translate(831.532038 268.128125)scale(0.12 -0.12)">
       <use xlink:href="#DejaVuSans-78"/>
       <use x="74.804688" xlink:href="#DejaVuSans-111"/>
       <use x="135.986328" xlink:href="#DejaVuSans-118"/>
      </g>
     </g>
    </g>
    <g id="xtick_12">
     <g id="line2d_23">
      <path clip-path="url(#p429b64e4c5)" d="M 919.141644 252.01 
L 919.141644 35.99 
" style="fill:none;stroke:#b0b0b0;stroke-linecap:square;stroke-width:0.8;"/>
     </g>
     <g id="line2d_24">
      <g>
       <use style="stroke:#000000;stroke-width:0.8;" x="919.141644" xlink:href="#m7ad1231155" y="252.01"/>
      </g>
     </g>
     <g id="text_12">
      <!-- Dec -->
      <defs>
       <path d="M 19.671875 64.796875 
L 19.671875 8.109375 
L 31.59375 8.109375 
Q 46.6875 8.109375 53.6875 14.9375 
Q 60.6875 21.78125 60.6875 36.53125 
Q 60.6875 51.171875 53.6875 57.984375 
Q 46.6875 64.796875 31.59375 64.796875 
z
M 9.8125 72.90625 
L 30.078125 72.90625 
Q 51.265625 72.90625 61.171875 64.09375 
Q 71.09375 55.28125 71.09375 36.53125 
Q 71.09375 17.671875 61.125 8.828125 
Q 51.171875 0 30.078125 0 
L 9.8125 0 
z
" id="DejaVuSans-68"/>
      </defs>
      <g transform="translate(907.530706 268.128125)scale(0.12 -0.12)">
       <use xlink:href="#DejaVuSans-68"/>
       <use x="77.001953" xlink:href="#DejaVuSans-101"/>
       <use x="138.525391" xlink:href="#DejaVuSans-99"/>
      </g>
     </g>
    </g>
   </g>
   <g id="matplotlib.axis_2">
    <g id="ytick_1">
     <g id="line2d_25">
      <path clip-path="url(#p429b64e4c5)" d="M 71.61 252.01 
L 995.04 252.01 
" style="fill:none;stroke:#b0b0b0;stroke-linecap:square;stroke-width:0.8;"/>
     </g>
     <g id="line2d_26">
      <defs>
       <path d="M 0 0 
L -3.5 0 
" id="m2167aad93d" style="stroke:#000000;stroke-width:0.8;"/>
      </defs>
      <g>
       <use style="stroke:#000000;stroke-width:0.8;" x="71.61" xlink:href="#m2167aad93d" y="252.01"/>
      </g>
     </g>
     <g id="text_13">
      <!-- 0 -->
      <defs>
       <path d="M 31.78125 66.40625 
Q 24.171875 66.40625 20.328125 58.90625 
Q 16.5 51.421875 16.5 36.375 
Q 16.5 21.390625 20.328125 13.890625 
Q 24.171875 6.390625 31.78125 6.390625 
Q 39.453125 6.390625 43.28125 13.890625 
Q 47.125 21.390625 47.125 36.375 
Q 47.125 51.421875 43.28125 58.90625 
Q 39.453125 66.40625 31.78125 66.40625 
z
M 31.78125 74.21875 
Q 44.046875 74.21875 50.515625 64.515625 
Q 56.984375 54.828125 56.984375 36.375 
Q 56.984375 17.96875 50.515625 8.265625 
Q 44.046875 -1.421875 31.78125 -1.421875 
Q 19.53125 -1.421875 13.0625 8.265625 
Q 6.59375 17.96875 6.59375 36.375 
Q 6.59375 54.828125 13.0625 64.515625 
Q 19.53125 74.21875 31.78125 74.21875 
z
" id="DejaVuSans-48"/>
      </defs>
      <g transform="translate(56.975 256.569063)scale(0.12 -0.12)">
       <use xlink:href="#DejaVuSans-48"/>
      </g>
     </g>
    </g>
    <g id="ytick_2">
     <g id="line2d_27">
      <path clip-path="url(#p429b64e4c5)" d="M 71.61 223.207333 
L 995.04 223.207333 
" style="fill:none;stroke:#b0b0b0;stroke-linecap:square;stroke-width:0.8;"/>
     </g>
     <g id="line2d_28">
      <g>
       <use style="stroke:#000000;stroke-width:0.8;" x="71.61" xlink:href="#m2167aad93d" y="223.207333"/>
      </g>
     </g>
     <g id="text_14">
      <!-- 2 -->
      <defs>
       <path d="M 19.1875 8.296875 
L 53.609375 8.296875 
L 53.609375 0 
L 7.328125 0 
L 7.328125 8.296875 
Q 12.9375 14.109375 22.625 23.890625 
Q 32.328125 33.6875 34.8125 36.53125 
Q 39.546875 41.84375 41.421875 45.53125 
Q 43.3125 49.21875 43.3125 52.78125 
Q 43.3125 58.59375 39.234375 62.25 
Q 35.15625 65.921875 28.609375 65.921875 
Q 23.96875 65.921875 18.8125 64.3125 
Q 13.671875 62.703125 7.8125 59.421875 
L 7.8125 69.390625 
Q 13.765625 71.78125 18.9375 73 
Q 24.125 74.21875 28.421875 74.21875 
Q 39.75 74.21875 46.484375 68.546875 
Q 53.21875 62.890625 53.21875 53.421875 
Q 53.21875 48.921875 51.53125 44.890625 
Q 49.859375 40.875 45.40625 35.40625 
Q 44.1875 33.984375 37.640625 27.21875 
Q 31.109375 20.453125 19.1875 8.296875 
z
" id="DejaVuSans-50"/>
      </defs>
      <g transform="translate(56.975 227.766396)scale(0.12 -0.12)">
       <use xlink:href="#DejaVuSans-50"/>
      </g>
     </g>
    </g>
    <g id="ytick_3">
     <g id="line2d_29">
      <path clip-path="url(#p429b64e4c5)" d="M 71.61 194.404667 
L 995.04 194.404667 
" style="fill:none;stroke:#b0b0b0;stroke-linecap:square;stroke-width:0.8;"/>
     </g>
     <g id="line2d_30">
      <g>
       <use style="stroke:#000000;stroke-width:0.8;" x="71.61" xlink:href="#m2167aad93d" y="194.404667"/>
      </g>
     </g>
     <g id="text_15">
      <!-- 4 -->
      <defs>
       <path d="M 37.796875 64.3125 
L 12.890625 25.390625 
L 37.796875 25.390625 
z
M 35.203125 72.90625 
L 47.609375 72.90625 
L 47.609375 25.390625 
L 58.015625 25.390625 
L 58.015625 17.1875 
L 47.609375 17.1875 
L 47.609375 0 
L 37.796875 0 
L 37.796875 17.1875 
L 4.890625 17.1875 
L 4.890625 26.703125 
z
" id="DejaVuSans-52"/>
      </defs>
      <g transform="translate(56.975 198.963729)scale(0.12 -0.12)">
       <use xlink:href="#DejaVuSans-52"/>
      </g>
     </g>
    </g>
    <g id="ytick_4">
     <g id="line2d_31">
      <path clip-path="url(#p429b64e4c5)" d="M 71.61 165.602 
L 995.04 165.602 
" style="fill:none;stroke:#b0b0b0;stroke-linecap:square;stroke-width:0.8;"/>
     </g>
     <g id="line2d_32">
      <g>
       <use style="stroke:#000000;stroke-width:0.8;" x="71.61" xlink:href="#m2167aad93d" y="165.602"/>
      </g>
     </g>
     <g id="text_16">
      <!-- 6 -->
      <defs>
       <path d="M 33.015625 40.375 
Q 26.375 40.375 22.484375 35.828125 
Q 18.609375 31.296875 18.609375 23.390625 
Q 18.609375 15.53125 22.484375 10.953125 
Q 26.375 6.390625 33.015625 6.390625 
Q 39.65625 6.390625 43.53125 10.953125 
Q 47.40625 15.53125 47.40625 23.390625 
Q 47.40625 31.296875 43.53125 35.828125 
Q 39.65625 40.375 33.015625 40.375 
z
M 52.59375 71.296875 
L 52.59375 62.3125 
Q 48.875 64.0625 45.09375 64.984375 
Q 41.3125 65.921875 37.59375 65.921875 
Q 27.828125 65.921875 22.671875 59.328125 
Q 17.53125 52.734375 16.796875 39.40625 
Q 19.671875 43.65625 24.015625 45.921875 
Q 28.375 48.1875 33.59375 48.1875 
Q 44.578125 48.1875 50.953125 41.515625 
Q 57.328125 34.859375 57.328125 23.390625 
Q 57.328125 12.15625 50.6875 5.359375 
Q 44.046875 -1.421875 33.015625 -1.421875 
Q 20.359375 -1.421875 13.671875 8.265625 
Q 6.984375 17.96875 6.984375 36.375 
Q 6.984375 53.65625 15.1875 63.9375 
Q 23.390625 74.21875 37.203125 74.21875 
Q 40.921875 74.21875 44.703125 73.484375 
Q 48.484375 72.75 52.59375 71.296875 
z
" id="DejaVuSans-54"/>
      </defs>
      <g transform="translate(56.975 170.161063)scale(0.12 -0.12)">
       <use xlink:href="#DejaVuSans-54"/>
      </g>
     </g>
    </g>
    <g id="ytick_5">
     <g id="line2d_33">
      <path clip-path="url(#p429b64e4c5)" d="M 71.61 136.799333 
L 995.04 136.799333 
" style="fill:none;stroke:#b0b0b0;stroke-linecap:square;stroke-width:0.8;"/>
     </g>
     <g id="line2d_34">
      <g>
       <use style="stroke:#000000;stroke-width:0.8;" x="71.61" xlink:href="#m2167aad93d" y="136.799333"/>
      </g>
     </g>
     <g id="text_17">
      <!-- 8 -->
      <defs>
       <path d="M 31.78125 34.625 
Q 24.75 34.625 20.71875 30.859375 
Q 16.703125 27.09375 16.703125 20.515625 
Q 16.703125 13.921875 20.71875 10.15625 
Q 24.75 6.390625 31.78125 6.390625 
Q 38.8125 6.390625 42.859375 10.171875 
Q 46.921875 13.96875 46.921875 20.515625 
Q 46.921875 27.09375 42.890625 30.859375 
Q 38.875 34.625 31.78125 34.625 
z
M 21.921875 38.8125 
Q 15.578125 40.375 12.03125 44.71875 
Q 8.5 49.078125 8.5 55.328125 
Q 8.5 64.0625 14.71875 69.140625 
Q 20.953125 74.21875 31.78125 74.21875 
Q 42.671875 74.21875 48.875 69.140625 
Q 55.078125 64.0625 55.078125 55.328125 
Q 55.078125 49.078125 51.53125 44.71875 
Q 48 40.375 41.703125 38.8125 
Q 48.828125 37.15625 52.796875 32.3125 
Q 56.78125 27.484375 56.78125 20.515625 
Q 56.78125 9.90625 50.3125 4.234375 
Q 43.84375 -1.421875 31.78125 -1.421875 
Q 19.734375 -1.421875 13.25 4.234375 
Q 6.78125 9.90625 6.78125 20.515625 
Q 6.78125 27.484375 10.78125 32.3125 
Q 14.796875 37.15625 21.921875 38.8125 
z
M 18.3125 54.390625 
Q 18.3125 48.734375 21.84375 45.5625 
Q 25.390625 42.390625 31.78125 42.390625 
Q 38.140625 42.390625 41.71875 45.5625 
Q 45.3125 48.734375 45.3125 54.390625 
Q 45.3125 60.0625 41.71875 63.234375 
Q 38.140625 66.40625 31.78125 66.40625 
Q 25.390625 66.40625 21.84375 63.234375 
Q 18.3125 60.0625 18.3125 54.390625 
z
" id="DejaVuSans-56"/>
      </defs>
      <g transform="translate(56.975 141.358396)scale(0.12 -0.12)">
       <use xlink:href="#DejaVuSans-56"/>
      </g>
     </g>
    </g>
    <g id="ytick_6">
     <g id="line2d_35">
      <path clip-path="url(#p429b64e4c5)" d="M 71.61 107.996667 
L 995.04 107.996667 
" style="fill:none;stroke:#b0b0b0;stroke-linecap:square;stroke-width:0.8;"/>
     </g>
     <g id="line2d_36">
      <g>
       <use style="stroke:#000000;stroke-width:0.8;" x="71.61" xlink:href="#m2167aad93d" y="107.996667"/>
      </g>
     </g>
     <g id="text_18">
      <!-- 10 -->
      <defs>
       <path d="M 12.40625 8.296875 
L 28.515625 8.296875 
L 28.515625 63.921875 
L 10.984375 60.40625 
L 10.984375 69.390625 
L 28.421875 72.90625 
L 38.28125 72.90625 
L 38.28125 8.296875 
L 54.390625 8.296875 
L 54.390625 0 
L 12.40625 0 
z
" id="DejaVuSans-49"/>
      </defs>
      <g transform="translate(49.34 112.555729)scale(0.12 -0.12)">
       <use xlink:href="#DejaVuSans-49"/>
       <use x="63.623047" xlink:href="#DejaVuSans-48"/>
      </g>
     </g>
    </g>
    <g id="ytick_7">
     <g id="line2d_37">
      <path clip-path="url(#p429b64e4c5)" d="M 71.61 79.194 
L 995.04 79.194 
" style="fill:none;stroke:#b0b0b0;stroke-linecap:square;stroke-width:0.8;"/>
     </g>
     <g id="line2d_38">
      <g>
       <use style="stroke:#000000;stroke-width:0.8;" x="71.61" xlink:href="#m2167aad93d" y="79.194"/>
      </g>
     </g>
     <g id="text_19">
      <!-- 12 -->
      <g transform="translate(49.34 83.753063)scale(0.12 -0.12)">
       <use xlink:href="#DejaVuSans-49"/>
       <use x="63.623047" xlink:href="#DejaVuSans-50"/>
      </g>
     </g>
    </g>
    <g id="ytick_8">
     <g id="line2d_39">
      <path clip-path="url(#p429b64e4c5)" d="M 71.61 50.391333 
L 995.04 50.391333 
" style="fill:none;stroke:#b0b0b0;stroke-linecap:square;stroke-width:0.8;"/>
     </g>
     <g id="line2d_40">
      <g>
       <use style="stroke:#000000;stroke-width:0.8;" x="71.61" xlink:href="#m2167aad93d" y="50.391333"/>
      </g>
     </g>
     <g id="text_20">
      <!-- 14 -->
      <g transform="translate(49.34 54.950396)scale(0.12 -0.12)">
       <use xlink:href="#DejaVuSans-49"/>
       <use x="63.623047" xlink:href="#DejaVuSans-52"/>
      </g>
     </g>
    </g>
    <g id="text_21">
     <!-- Daily confirmed Covid-19 deaths -->
     <defs>
      <path d="M 9.421875 54.6875 
L 18.40625 54.6875 
L 18.40625 0 
L 9.421875 0 
z
M 9.421875 75.984375 
L 18.40625 75.984375 
L 18.40625 64.59375 
L 9.421875 64.59375 
z
" id="DejaVuSans-105"/>
      <path id="DejaVuSans-32"/>
      <path d="M 37.109375 75.984375 
L 37.109375 68.5 
L 28.515625 68.5 
Q 23.6875 68.5 21.796875 66.546875 
Q 19.921875 64.59375 19.921875 59.515625 
L 19.921875 54.6875 
L 34.71875 54.6875 
L 34.71875 47.703125 
L 19.921875 47.703125 
L 19.921875 0 
L 10.890625 0 
L 10.890625 47.703125 
L 2.296875 47.703125 
L 2.296875 54.6875 
L 10.890625 54.6875 
L 10.890625 58.5 
Q 10.890625 67.625 15.140625 71.796875 
Q 19.390625 75.984375 28.609375 75.984375 
z
" id="DejaVuSans-102"/>
      <path d="M 52 44.1875 
Q 55.375 50.25 60.0625 53.125 
Q 64.75 56 71.09375 56 
Q 79.640625 56 84.28125 50.015625 
Q 88.921875 44.046875 88.921875 33.015625 
L 88.921875 0 
L 79.890625 0 
L 79.890625 32.71875 
Q 79.890625 40.578125 77.09375 44.375 
Q 74.3125 48.1875 68.609375 48.1875 
Q 61.625 48.1875 57.5625 43.546875 
Q 53.515625 38.921875 53.515625 30.90625 
L 53.515625 0 
L 44.484375 0 
L 44.484375 32.71875 
Q 44.484375 40.625 41.703125 44.40625 
Q 38.921875 48.1875 33.109375 48.1875 
Q 26.21875 48.1875 22.15625 43.53125 
Q 18.109375 38.875 18.109375 30.90625 
L 18.109375 0 
L 9.078125 0 
L 9.078125 54.6875 
L 18.109375 54.6875 
L 18.109375 46.1875 
Q 21.1875 51.21875 25.484375 53.609375 
Q 29.78125 56 35.6875 56 
Q 41.65625 56 45.828125 52.96875 
Q 50 49.953125 52 44.1875 
z
" id="DejaVuSans-109"/>
      <path d="M 45.40625 46.390625 
L 45.40625 75.984375 
L 54.390625 75.984375 
L 54.390625 0 
L 45.40625 0 
L 45.40625 8.203125 
Q 42.578125 3.328125 38.25 0.953125 
Q 33.9375 -1.421875 27.875 -1.421875 
Q 17.96875 -1.421875 11.734375 6.484375 
Q 5.515625 14.40625 5.515625 27.296875 
Q 5.515625 40.1875 11.734375 48.09375 
Q 17.96875 56 27.875 56 
Q 33.9375 56 38.25 53.625 
Q 42.578125 51.265625 45.40625 46.390625 
z
M 14.796875 27.296875 
Q 14.796875 17.390625 18.875 11.75 
Q 22.953125 6.109375 30.078125 6.109375 
Q 37.203125 6.109375 41.296875 11.75 
Q 45.40625 17.390625 45.40625 27.296875 
Q 45.40625 37.203125 41.296875 42.84375 
Q 37.203125 48.484375 30.078125 48.484375 
Q 22.953125 48.484375 18.875 42.84375 
Q 14.796875 37.203125 14.796875 27.296875 
z
" id="DejaVuSans-100"/>
      <path d="M 64.40625 67.28125 
L 64.40625 56.890625 
Q 59.421875 61.53125 53.78125 63.8125 
Q 48.140625 66.109375 41.796875 66.109375 
Q 29.296875 66.109375 22.65625 58.46875 
Q 16.015625 50.828125 16.015625 36.375 
Q 16.015625 21.96875 22.65625 14.328125 
Q 29.296875 6.6875 41.796875 6.6875 
Q 48.140625 6.6875 53.78125 8.984375 
Q 59.421875 11.28125 64.40625 15.921875 
L 64.40625 5.609375 
Q 59.234375 2.09375 53.4375 0.328125 
Q 47.65625 -1.421875 41.21875 -1.421875 
Q 24.65625 -1.421875 15.125 8.703125 
Q 5.609375 18.84375 5.609375 36.375 
Q 5.609375 53.953125 15.125 64.078125 
Q 24.65625 74.21875 41.21875 74.21875 
Q 47.75 74.21875 53.53125 72.484375 
Q 59.328125 70.75 64.40625 67.28125 
z
" id="DejaVuSans-67"/>
      <path d="M 4.890625 31.390625 
L 31.203125 31.390625 
L 31.203125 23.390625 
L 4.890625 23.390625 
z
" id="DejaVuSans-45"/>
      <path d="M 10.984375 1.515625 
L 10.984375 10.5 
Q 14.703125 8.734375 18.5 7.8125 
Q 22.3125 6.890625 25.984375 6.890625 
Q 35.75 6.890625 40.890625 13.453125 
Q 46.046875 20.015625 46.78125 33.40625 
Q 43.953125 29.203125 39.59375 26.953125 
Q 35.25 24.703125 29.984375 24.703125 
Q 19.046875 24.703125 12.671875 31.3125 
Q 6.296875 37.9375 6.296875 49.421875 
Q 6.296875 60.640625 12.9375 67.421875 
Q 19.578125 74.21875 30.609375 74.21875 
Q 43.265625 74.21875 49.921875 64.515625 
Q 56.59375 54.828125 56.59375 36.375 
Q 56.59375 19.140625 48.40625 8.859375 
Q 40.234375 -1.421875 26.421875 -1.421875 
Q 22.703125 -1.421875 18.890625 -0.6875 
Q 15.09375 0.046875 10.984375 1.515625 
z
M 30.609375 32.421875 
Q 37.25 32.421875 41.125 36.953125 
Q 45.015625 41.5 45.015625 49.421875 
Q 45.015625 57.28125 41.125 61.84375 
Q 37.25 66.40625 30.609375 66.40625 
Q 23.96875 66.40625 20.09375 61.84375 
Q 16.21875 57.28125 16.21875 49.421875 
Q 16.21875 41.5 20.09375 36.953125 
Q 23.96875 32.421875 30.609375 32.421875 
z
" id="DejaVuSans-57"/>
      <path d="M 54.890625 33.015625 
L 54.890625 0 
L 45.90625 0 
L 45.90625 32.71875 
Q 45.90625 40.484375 42.875 44.328125 
Q 39.84375 48.1875 33.796875 48.1875 
Q 26.515625 48.1875 22.3125 43.546875 
Q 18.109375 38.921875 18.109375 30.90625 
L 18.109375 0 
L 9.078125 0 
L 9.078125 75.984375 
L 18.109375 75.984375 
L 18.109375 46.1875 
Q 21.34375 51.125 25.703125 53.5625 
Q 30.078125 56 35.796875 56 
Q 45.21875 56 50.046875 50.171875 
Q 54.890625 44.34375 54.890625 33.015625 
z
" id="DejaVuSans-104"/>
      <path d="M 44.28125 53.078125 
L 44.28125 44.578125 
Q 40.484375 46.53125 36.375 47.5 
Q 32.28125 48.484375 27.875 48.484375 
Q 21.1875 48.484375 17.84375 46.4375 
Q 14.5 44.390625 14.5 40.28125 
Q 14.5 37.15625 16.890625 35.375 
Q 19.28125 33.59375 26.515625 31.984375 
L 29.59375 31.296875 
Q 39.15625 29.25 43.1875 25.515625 
Q 47.21875 21.78125 47.21875 15.09375 
Q 47.21875 7.46875 41.1875 3.015625 
Q 35.15625 -1.421875 24.609375 -1.421875 
Q 20.21875 -1.421875 15.453125 -0.5625 
Q 10.6875 0.296875 5.421875 2 
L 5.421875 11.28125 
Q 10.40625 8.6875 15.234375 7.390625 
Q 20.0625 6.109375 24.8125 6.109375 
Q 31.15625 6.109375 34.5625 8.28125 
Q 37.984375 10.453125 37.984375 14.40625 
Q 37.984375 18.0625 35.515625 20.015625 
Q 33.0625 21.96875 24.703125 23.78125 
L 21.578125 24.515625 
Q 13.234375 26.265625 9.515625 29.90625 
Q 5.8125 33.546875 5.8125 39.890625 
Q 5.8125 47.609375 11.28125 51.796875 
Q 16.75 56 26.8125 56 
Q 31.78125 56 36.171875 55.265625 
Q 40.578125 54.546875 44.28125 53.078125 
z
" id="DejaVuSans-115"/>
     </defs>
     <g transform="translate(24.096 275.215)rotate(-90)scale(0.16 -0.16)">
      <use xlink:href="#DejaVuSans-68"/>
      <use x="77.001953" xlink:href="#DejaVuSans-97"/>
      <use x="138.28125" xlink:href="#DejaVuSans-105"/>
      <use x="166.064453" xlink:href="#DejaVuSans-108"/>
      <use x="193.847656" xlink:href="#DejaVuSans-121"/>
      <use x="253.027344" xlink:href="#DejaVuSans-32"/>
      <use x="284.814453" xlink:href="#DejaVuSans-99"/>
      <use x="339.794922" xlink:href="#DejaVuSans-111"/>
      <use x="400.976562" xlink:href="#DejaVuSans-110"/>
      <use x="464.355469" xlink:href="#DejaVuSans-102"/>
      <use x="499.560547" xlink:href="#DejaVuSans-105"/>
      <use x="527.34375" xlink:href="#DejaVuSans-114"/>
      <use x="568.441406" xlink:href="#DejaVuSans-109"/>
      <use x="665.853516" xlink:href="#DejaVuSans-101"/>
      <use x="727.376953" xlink:href="#DejaVuSans-100"/>
      <use x="790.853516" xlink:href="#DejaVuSans-32"/>
      <use x="822.640625" xlink:href="#DejaVuSans-67"/>
      <use x="892.464844" xlink:href="#DejaVuSans-111"/>
      <use x="953.646484" xlink:href="#DejaVuSans-118"/>
      <use x="1012.826172" xlink:href="#DejaVuSans-105"/>
      <use x="1040.609375" xlink:href="#DejaVuSans-100"/>
      <use x="1104.085938" xlink:href="#DejaVuSans-45"/>
      <use x="1140.169922" xlink:href="#DejaVuSans-49"/>
      <use x="1203.792969" xlink:href="#DejaVuSans-57"/>
      <use x="1267.416016" xlink:href="#DejaVuSans-32"/>
      <use x="1299.203125" xlink:href="#DejaVuSans-100"/>
      <use x="1362.679688" xlink:href="#DejaVuSans-101"/>
      <use x="1424.203125" xlink:href="#DejaVuSans-97"/>
      <use x="1485.482422" xlink:href="#DejaVuSans-116"/>
      <use x="1524.691406" xlink:href="#DejaVuSans-104"/>
      <use x="1588.070312" xlink:href="#DejaVuSans-115"/>
     </g>
     <!-- per million people -->
     <g transform="translate(42.0125 216.1425)rotate(-90)scale(0.16 -0.16)">
      <use xlink:href="#DejaVuSans-112"/>
      <use x="63.476562" xlink:href="#DejaVuSans-101"/>
      <use x="125" xlink:href="#DejaVuSans-114"/>
      <use x="166.113281" xlink:href="#DejaVuSans-32"/>
      <use x="197.900391" xlink:href="#DejaVuSans-109"/>
      <use x="295.3125" xlink:href="#DejaVuSans-105"/>
      <use x="323.095703" xlink:href="#DejaVuSans-108"/>
      <use x="350.878906" xlink:href="#DejaVuSans-108"/>
      <use x="378.662109" xlink:href="#DejaVuSans-105"/>
      <use x="406.445312" xlink:href="#DejaVuSans-111"/>
      <use x="467.626953" xlink:href="#DejaVuSans-110"/>
      <use x="531.005859" xlink:href="#DejaVuSans-32"/>
      <use x="562.792969" xlink:href="#DejaVuSans-112"/>
      <use x="626.269531" xlink:href="#DejaVuSans-101"/>
      <use x="687.792969" xlink:href="#DejaVuSans-111"/>
      <use x="748.974609" xlink:href="#DejaVuSans-112"/>
      <use x="812.451172" xlink:href="#DejaVuSans-108"/>
      <use x="840.234375" xlink:href="#DejaVuSans-101"/>
     </g>
    </g>
   </g>
   <g id="line2d_41">
    <path clip-path="url(#p429b64e4c5)" d="M 155.098192 252.01 
L 236.056438 251.919083 
L 238.586384 251.79786 
L 246.176219 251.737249 
L 248.706164 251.191746 
L 251.23611 250.767466 
L 253.766055 250.10074 
L 256.296 249.706766 
L 258.825945 248.676372 
L 261.35589 247.342921 
L 263.885836 246.403444 
L 266.415781 245.221522 
L 268.945726 244.554796 
L 271.475671 242.948594 
L 274.005616 238.978546 
L 276.535562 234.22055 
L 279.065507 230.098974 
L 281.595452 222.340713 
L 284.125397 215.249178 
L 286.655342 209.885068 
L 289.185288 200.853967 
L 291.715233 193.095706 
L 296.775123 164.093145 
L 301.835014 136.393729 
L 304.364959 124.635114 
L 306.894904 118.695196 
L 309.424849 97.450895 
L 311.954795 86.571147 
L 314.48474 72.630521 
L 317.014685 60.932519 
L 319.54463 58.295922 
L 322.074575 56.598803 
L 324.604521 51.901418 
L 327.134466 52.659061 
L 329.664411 57.144305 
L 332.194356 59.477845 
L 334.724301 65.811737 
L 337.254247 57.811031 
L 339.784192 64.599509 
L 342.314137 69.115059 
L 344.844082 64.751038 
L 347.374027 65.569292 
L 349.903973 76.358123 
L 352.433918 73.20633 
L 354.963863 82.055596 
L 357.493808 84.14669 
L 362.553699 99.481378 
L 365.083644 102.087668 
L 367.613589 103.542342 
L 370.143534 113.179557 
L 372.673479 120.180175 
L 375.203425 123.544109 
L 377.73337 125.059394 
L 380.263315 132.514598 
L 382.79326 136.272506 
L 385.323205 141.666922 
L 387.853151 145.303606 
L 390.383096 154.698375 
L 392.913041 155.789381 
L 395.442986 158.365366 
L 397.972932 161.698994 
L 400.502877 167.729829 
L 403.032822 170.911929 
L 405.562767 177.851935 
L 408.092712 173.730359 
L 410.622658 178.276215 
L 413.152603 179.549055 
L 418.212493 186.610285 
L 420.742438 189.034741 
L 423.272384 190.853084 
L 425.802329 196.641474 
L 428.332274 187.186093 
L 430.862219 188.458933 
L 433.392164 199.672044 
L 435.92211 196.853614 
L 438.452055 194.732214 
L 440.982 195.247411 
L 443.511945 197.247588 
L 446.04189 206.915108 
L 448.571836 207.460611 
L 451.101781 203.854232 
L 453.631726 208.945591 
L 456.161671 215.400706 
L 458.691616 215.885597 
L 461.221562 216.21896 
L 463.751507 216.400795 
L 466.281452 217.582717 
L 468.811397 219.18892 
L 471.341342 221.916433 
L 473.871288 223.552941 
L 476.401233 227.401766 
L 478.931178 228.492772 
L 481.461123 229.311026 
L 483.991068 229.856528 
L 486.521014 232.190068 
L 489.050959 233.826576 
L 491.580904 234.099327 
L 494.110849 235.523695 
L 496.640795 236.614701 
L 499.17074 236.493478 
L 501.700685 236.978369 
L 506.760575 238.463349 
L 509.290521 237.493566 
L 511.820466 237.705706 
L 514.350411 238.645183 
L 516.880356 238.645183 
L 519.410301 238.402738 
L 521.940247 239.614966 
L 524.470192 239.311909 
L 527.000137 241.06964 
L 529.530082 241.9182 
L 532.060027 242.160645 
L 537.119918 242.827371 
L 539.649863 242.827371 
L 542.179808 244.039599 
L 544.709753 244.342656 
L 549.769644 245.251827 
L 552.299589 245.554884 
L 554.829534 245.58519 
L 557.359479 245.888247 
L 559.889425 246.827724 
L 567.47926 247.524755 
L 572.539151 247.464144 
L 575.069096 248.039952 
L 577.599041 248.312704 
L 580.128986 248.767289 
L 585.188877 248.403621 
L 587.718822 248.494538 
L 592.778712 248.827901 
L 595.308658 248.312704 
L 600.368548 248.949124 
L 610.488329 249.252181 
L 613.018274 249.858295 
L 615.548219 249.312792 
L 620.60811 249.858295 
L 623.138055 249.858295 
L 625.668 249.343098 
L 628.197945 249.494626 
L 630.72789 249.312792 
L 640.847671 249.343098 
L 643.377616 249.797683 
L 648.437507 249.918906 
L 653.497397 250.555326 
L 656.027342 250.10074 
L 666.147123 249.918906 
L 671.207014 249.524932 
L 676.266904 249.858295 
L 678.796849 249.888601 
L 681.326795 250.282575 
L 683.85674 250.494715 
L 691.446575 250.403798 
L 696.506466 250.373492 
L 699.036411 249.494626 
L 709.156192 249.767378 
L 714.216082 249.494626 
L 716.746027 249.646155 
L 719.275973 249.282486 
L 721.805918 249.070346 
L 726.865808 247.888424 
L 729.395753 247.49445 
L 731.925699 247.433838 
L 734.455644 247.130781 
L 739.515534 246.039776 
L 744.575425 245.58519 
L 749.635315 245.554884 
L 754.695205 243.463791 
L 757.225151 242.887982 
L 759.755096 241.9182 
L 764.814986 241.009028 
L 769.874877 240.705971 
L 772.404822 240.736277 
L 777.464712 239.554355 
L 785.054548 236.675312 
L 790.114438 232.614348 
L 792.644384 230.7657 
L 795.174329 229.28072 
L 797.704274 227.189626 
L 800.234219 227.129015 
L 802.764164 226.219844 
L 805.29411 223.249884 
L 810.354 220.067785 
L 812.883945 217.400883 
L 815.41389 216.673546 
L 817.943836 214.127866 
L 820.473781 213.461141 
L 823.003726 209.642622 
L 825.533671 206.036243 
L 828.063616 203.278423 
L 830.593562 201.763138 
L 833.123507 197.156671 
L 835.653452 196.823308 
L 838.183397 195.792914 
L 840.713342 194.883743 
L 843.243288 189.368104 
L 845.773233 186.398145 
L 848.303178 183.943383 
L 850.833123 181.306786 
L 853.363068 181.48862 
L 855.893014 179.700584 
L 858.422959 175.609313 
L 860.952904 172.45752 
L 863.482849 166.850964 
L 866.012795 166.214544 
L 868.54274 164.729564 
L 871.072685 164.365896 
L 873.60263 163.790087 
L 876.132575 161.759605 
L 878.662521 163.790087 
L 881.192466 165.638736 
L 883.722411 161.547465 
L 886.252356 165.244761 
L 888.782301 158.244143 
L 891.312247 158.456283 
L 893.842192 158.183532 
L 896.372137 153.152784 
L 898.902082 153.274007 
L 901.432027 153.001256 
L 903.961973 148.788763 
L 906.491918 154.365013 
L 911.551808 154.637764 
L 914.081753 156.062132 
L 916.611699 158.607812 
L 919.141644 159.092703 
L 921.671589 161.577771 
L 924.201534 161.09288 
L 926.731479 161.517159 
L 929.261425 161.638382 
L 931.79137 165.123539 
L 934.321315 162.032356 
L 936.85126 164.456813 
L 939.381205 160.729211 
L 941.911151 163.365808 
L 944.441096 162.032356 
L 946.971041 164.850787 
L 949.500986 162.456636 
L 952.030932 161.971745 
L 954.560877 159.971568 
L 957.090822 159.456371 
L 959.620767 153.940733 
L 962.150712 154.486236 
L 964.680658 148.87968 
L 967.210603 144.758104 
L 967.210603 144.758104 
" style="fill:none;stroke:#ff3333;stroke-linecap:square;stroke-width:4;"/>
   </g>
   <g id="line2d_42">
    <path clip-path="url(#p429b64e4c5)" d="M 79.199836 252.01 
L 215.816877 251.922006 
L 223.406712 251.735018 
L 230.996548 251.369292 
L 233.526493 250.981568 
L 236.056438 250.712086 
L 238.586384 250.269365 
L 241.116329 249.689153 
L 243.646274 249.27668 
L 246.176219 248.380239 
L 248.706164 247.723032 
L 253.766055 245.715665 
L 258.825945 243.463563 
L 261.35589 241.659682 
L 263.885836 239.457077 
L 266.415781 236.294785 
L 268.945726 234.023435 
L 271.475671 231.094878 
L 274.005616 227.72635 
L 276.535562 223.340389 
L 284.125397 211.557415 
L 286.655342 208.087144 
L 291.715233 200.087921 
L 294.245178 194.544286 
L 299.305068 186.118841 
L 301.835014 182.621071 
L 306.894904 179.843754 
L 309.424849 174.833584 
L 311.954795 175.666779 
L 314.48474 173.013204 
L 317.014685 172.435742 
L 319.54463 174.212125 
L 322.074575 173.664911 
L 324.604521 174.379864 
L 327.134466 178.444096 
L 329.664411 175.669529 
L 332.194356 177.415664 
L 334.724301 178.3891 
L 337.254247 179.046307 
L 339.784192 181.257161 
L 342.314137 182.48083 
L 344.844082 182.370838 
L 347.374027 186.88879 
L 349.903973 189.62486 
L 352.433918 191.874212 
L 354.963863 192.847648 
L 357.493808 194.709275 
L 360.023753 196.845884 
L 362.553699 199.150232 
L 365.083644 200.445397 
L 367.613589 203.032977 
L 370.143534 206.943219 
L 372.673479 208.232884 
L 377.73337 211.414424 
L 380.263315 213.680275 
L 382.79326 214.582216 
L 385.323205 215.929627 
L 387.853151 215.684893 
L 390.383096 218.789439 
L 392.913041 219.402648 
L 395.442986 220.260592 
L 397.972932 220.73356 
L 400.502877 223.62087 
L 403.032822 224.025094 
L 405.562767 225.922469 
L 408.092712 226.026962 
L 410.622658 225.881221 
L 413.152603 226.857407 
L 415.682548 229.301996 
L 418.212493 230.195687 
L 420.742438 231.812581 
L 423.272384 230.817146 
L 425.802329 231.757584 
L 428.332274 232.491786 
L 430.862219 238.533138 
L 433.392164 238.164662 
L 435.92211 238.720126 
L 438.452055 238.920862 
L 440.982 240.941979 
L 443.511945 241.285706 
L 446.04189 242.193147 
L 448.571836 237.111481 
L 451.101781 237.994173 
L 453.631726 238.464392 
L 456.161671 239.270089 
L 461.221562 240.026289 
L 466.281452 240.408514 
L 468.811397 240.397515 
L 473.871288 241.164714 
L 476.401233 241.68993 
L 478.931178 242.069405 
L 483.991068 242.429631 
L 486.521014 242.784358 
L 489.050959 242.998844 
L 491.580904 242.828355 
L 494.110849 239.776056 
L 496.640795 239.844801 
L 501.700685 240.268274 
L 504.23063 240.647749 
L 509.290521 241.615685 
L 511.820466 244.838472 
L 514.350411 245.058458 
L 519.410301 244.920967 
L 521.940247 245.077707 
L 524.470192 244.794475 
L 527.000137 244.766977 
L 532.060027 244.885219 
L 537.119918 244.860471 
L 539.649863 244.769727 
L 542.179808 244.923717 
L 544.709753 244.896219 
L 547.239699 245.058458 
L 549.769644 245.03096 
L 554.829534 245.245446 
L 557.359479 245.49018 
L 564.949315 245.652419 
L 567.47926 245.905402 
L 582.658932 246.502113 
L 623.138055 246.128137 
L 625.668 245.921901 
L 630.72789 246.067641 
L 635.787781 245.9439 
L 638.317726 245.525927 
L 640.847671 245.536926 
L 643.377616 245.751412 
L 645.907562 245.690916 
L 648.437507 245.407685 
L 653.497397 245.48743 
L 656.027342 245.877904 
L 661.087233 245.820158 
L 663.617178 245.682667 
L 666.147123 246.218882 
L 671.207014 246.073141 
L 676.266904 246.136387 
L 681.326795 245.831157 
L 683.85674 245.426934 
L 686.386685 245.396686 
L 688.91663 244.995212 
L 691.446575 244.857721 
L 711.686137 244.786226 
L 714.216082 244.673483 
L 716.746027 244.211514 
L 719.275973 243.427815 
L 721.805918 242.886101 
L 724.335863 242.212395 
L 731.925699 241.656932 
L 734.455644 241.260958 
L 739.515534 241.362701 
L 742.045479 241.288456 
L 744.575425 240.826487 
L 749.635315 240.449762 
L 752.16526 240.851235 
L 754.695205 239.957544 
L 759.755096 239.140848 
L 762.285041 239.116099 
L 767.344932 238.629381 
L 769.874877 237.44146 
L 772.404822 237.680694 
L 774.934767 237.303969 
L 779.994658 236.160044 
L 782.524603 235.651328 
L 785.054548 234.969373 
L 787.584493 234.664143 
L 792.644384 232.409291 
L 795.174329 231.353361 
L 797.704274 230.443171 
L 800.234219 229.750216 
L 802.764164 228.801529 
L 805.29411 227.047145 
L 807.824055 226.189201 
L 812.883945 223.310141 
L 815.41389 221.737244 
L 817.943836 220.879301 
L 820.473781 218.959927 
L 823.003726 216.262355 
L 825.533671 213.864513 
L 828.063616 211.686656 
L 830.593562 208.774598 
L 833.123507 206.440002 
L 838.183397 202.510511 
L 840.713342 198.27029 
L 843.243288 191.827465 
L 845.773233 188.810913 
L 848.303178 185.192152 
L 850.833123 183.184784 
L 853.363068 181.919867 
L 855.893014 179.821756 
L 858.422959 177.302922 
L 860.952904 176.799705 
L 863.482849 174.803336 
L 866.012795 173.637413 
L 868.54274 172.268003 
L 871.072685 170.769352 
L 876.132575 167.502567 
L 878.662521 166.985601 
L 881.192466 165.775681 
L 883.722411 163.039611 
L 886.252356 162.59689 
L 891.312247 160.990996 
L 893.842192 159.629836 
L 896.372137 159.066123 
L 898.902082 157.526224 
L 901.432027 157.209995 
L 903.961973 156.286056 
L 909.021863 156.492293 
L 911.551808 157.058755 
L 914.081753 156.99276 
L 916.611699 156.690279 
L 919.141644 157.366735 
L 921.671589 157.564722 
L 924.201534 157.504226 
L 926.731479 158.50791 
L 929.261425 159.937816 
L 931.79137 160.837006 
L 934.321315 160.922251 
L 936.85126 160.738013 
L 939.381205 160.77926 
L 944.441096 160.108304 
L 946.971041 157.75171 
L 949.500986 155.895582 
L 952.030932 156.013824 
L 954.560877 155.997325 
L 957.090822 155.557354 
L 959.620767 156.387799 
L 962.150712 156.195312 
L 964.680658 156.563788 
L 967.210603 157.297989 
L 969.740548 159.756328 
L 969.740548 159.756328 
" style="fill:none;stroke:#3399ff;stroke-linecap:square;stroke-width:4;"/>
   </g>
   <g id="line2d_43">
    <path clip-path="url(#p429b64e4c5)" d="M 79.199836 252.01 
L 150.038301 251.914468 
L 182.927589 251.783741 
L 200.637205 251.808748 
L 225.936658 251.868687 
L 238.586384 251.717054 
L 251.23611 251.304363 
L 258.825945 250.883997 
L 263.885836 250.410044 
L 274.005616 249.06797 
L 289.185288 245.965574 
L 291.715233 245.31326 
L 296.775123 243.728784 
L 301.835014 242.383667 
L 306.894904 241.436025 
L 309.424849 240.513788 
L 311.954795 240.303539 
L 314.48474 239.802329 
L 317.014685 239.467042 
L 319.54463 239.449047 
L 322.074575 239.278625 
L 324.604521 239.279684 
L 327.134466 239.614309 
L 329.664411 239.1909 
L 332.194356 239.314747 
L 334.724301 239.057923 
L 344.844082 239.221068 
L 347.374027 239.652416 
L 349.903973 239.772558 
L 352.433918 240.22018 
L 354.963863 240.322592 
L 360.023753 240.988138 
L 362.553699 241.160677 
L 365.083644 241.15856 
L 367.613589 241.379791 
L 370.143534 241.780177 
L 375.203425 241.936574 
L 385.323205 242.491504 
L 387.853151 242.407352 
L 390.383096 242.733377 
L 392.913041 242.701621 
L 397.972932 242.963605 
L 400.502877 243.354729 
L 408.092712 243.477253 
L 410.622658 243.584958 
L 413.152603 243.521976 
L 415.682548 243.742677 
L 425.802329 243.990901 
L 428.332274 244.040651 
L 430.862219 244.702757 
L 433.392164 244.837983 
L 438.452055 244.785057 
L 440.982 244.963154 
L 446.04189 244.945159 
L 448.571836 244.446065 
L 456.161671 244.071878 
L 466.281452 244.039858 
L 468.811397 244.009954 
L 476.401233 244.318249 
L 483.991068 244.124804 
L 486.521014 243.623064 
L 491.580904 243.537589 
L 494.110849 243.025529 
L 496.640795 243.021824 
L 499.17074 242.864898 
L 501.700685 242.82785 
L 504.23063 243.225325 
L 509.290521 243.275075 
L 511.820466 243.655614 
L 514.350411 243.582047 
L 516.880356 243.809894 
L 519.410301 243.764642 
L 524.470192 243.905955 
L 529.530082 243.74797 
L 532.060027 243.77311 
L 537.119918 243.656408 
L 539.649863 243.372195 
L 554.829534 242.836583 
L 557.359479 242.949844 
L 562.41937 242.816735 
L 564.949315 242.457632 
L 567.47926 242.243546 
L 572.539151 242.141134 
L 575.069096 241.985001 
L 577.599041 241.585409 
L 580.128986 240.49275 
L 582.658932 240.648882 
L 587.718822 240.773258 
L 590.248767 240.512862 
L 592.778712 240.481635 
L 595.308658 240.569493 
L 597.838603 241.592819 
L 605.428438 241.405461 
L 607.958384 241.542275 
L 625.668 240.993166 
L 633.257836 241.271558 
L 635.787781 240.257229 
L 640.847671 240.363346 
L 643.377616 240.658409 
L 645.907562 240.479254 
L 650.967452 240.494602 
L 653.497397 241.736249 
L 656.027342 241.687292 
L 658.557288 241.780442 
L 661.087233 241.690732 
L 666.147123 241.96489 
L 673.736959 242.069948 
L 676.266904 242.02549 
L 678.796849 242.095617 
L 683.85674 242.106202 
L 686.386685 242.153307 
L 688.91663 242.055922 
L 693.976521 242.205174 
L 696.506466 240.844973 
L 699.036411 241.248799 
L 711.686137 241.260178 
L 714.216082 242.567983 
L 716.746027 242.141663 
L 724.335863 242.357337 
L 729.395753 242.247515 
L 736.985589 242.527759 
L 739.515534 242.210202 
L 747.10537 242.156747 
L 752.16526 242.195647 
L 754.695205 241.985531 
L 757.225151 241.448595 
L 759.755096 241.682529 
L 764.814986 241.632778 
L 767.344932 240.844709 
L 769.874877 240.88996 
L 772.404822 241.04768 
L 774.934767 241.694173 
L 777.464712 241.388789 
L 779.994658 241.524015 
L 782.524603 241.480086 
L 785.054548 242.268421 
L 787.584493 242.405235 
L 792.644384 242.387769 
L 795.174329 242.391739 
L 797.704274 242.199352 
L 800.234219 242.325316 
L 807.824055 241.599435 
L 810.354 241.654743 
L 812.883945 241.440656 
L 817.943836 241.207517 
L 825.533671 240.68937 
L 828.063616 240.380282 
L 838.183397 239.654665 
L 840.713342 239.132814 
L 843.243288 238.325426 
L 845.773233 238.072439 
L 848.303178 237.528623 
L 855.893014 236.773897 
L 858.422959 236.603475 
L 860.952904 236.546315 
L 863.482849 236.083741 
L 866.012795 236.099618 
L 868.54274 235.710876 
L 873.60263 235.379823 
L 881.192466 234.530624 
L 883.722411 233.930177 
L 886.252356 233.984162 
L 891.312247 233.654432 
L 893.842192 233.212499 
L 896.372137 233.014026 
L 898.902082 233.071451 
L 901.432027 233.38398 
L 903.961973 233.129935 
L 906.491918 233.161955 
L 914.081753 232.956072 
L 919.141644 232.031982 
L 924.201534 231.847535 
L 934.321315 231.983555 
L 936.85126 231.852034 
L 941.911151 231.795667 
L 944.441096 231.670497 
L 946.971041 231.223536 
L 949.500986 230.938529 
L 952.030932 230.777369 
L 954.560877 230.843791 
L 964.680658 230.405563 
L 967.210603 230.391538 
L 969.740548 230.817328 
L 969.740548 230.817328 
" style="fill:none;stroke:#009900;stroke-linecap:square;stroke-width:4;"/>
   </g>
   <g id="patch_3">
    <path d="M 71.61 252.01 
L 71.61 35.99 
" style="fill:none;stroke:#000000;stroke-linecap:square;stroke-linejoin:miter;stroke-width:0.8;"/>
   </g>
   <g id="patch_4">
    <path d="M 995.04 252.01 
L 995.04 35.99 
" style="fill:none;stroke:#000000;stroke-linecap:square;stroke-linejoin:miter;stroke-width:0.8;"/>
   </g>
   <g id="patch_5">
    <path d="M 71.61 252.01 
L 995.04 252.01 
" style="fill:none;stroke:#000000;stroke-linecap:square;stroke-linejoin:miter;stroke-width:0.8;"/>
   </g>
   <g id="patch_6">
    <path d="M 71.61 35.99 
L 995.04 35.99 
" style="fill:none;stroke:#000000;stroke-linecap:square;stroke-linejoin:miter;stroke-width:0.8;"/>
   </g>
   <g id="legend_1">
    <g id="patch_7">
     <path d="M 890.901875 108.838125 
L 985.24 108.838125 
Q 988.04 108.838125 988.04 106.038125 
L 988.04 45.79 
Q 988.04 42.99 985.24 42.99 
L 890.901875 42.99 
Q 888.101875 42.99 888.101875 45.79 
L 888.101875 106.038125 
Q 888.101875 108.838125 890.901875 108.838125 
z
" style="fill:#ffffff;opacity:0.8;stroke:#cccccc;stroke-linejoin:miter;"/>
    </g>
    <g id="line2d_44">
     <path d="M 893.701875 54.327813 
L 921.701875 54.327813 
" style="fill:none;stroke:#ff3333;stroke-linecap:square;stroke-width:4;"/>
    </g>
    <g id="line2d_45"/>
    <g id="text_22">
     <!-- UK -->
     <defs>
      <path d="M 8.6875 72.90625 
L 18.609375 72.90625 
L 18.609375 28.609375 
Q 18.609375 16.890625 22.84375 11.734375 
Q 27.09375 6.59375 36.625 6.59375 
Q 46.09375 6.59375 50.34375 11.734375 
Q 54.59375 16.890625 54.59375 28.609375 
L 54.59375 72.90625 
L 64.5 72.90625 
L 64.5 27.390625 
Q 64.5 13.140625 57.4375 5.859375 
Q 50.390625 -1.421875 36.625 -1.421875 
Q 22.796875 -1.421875 15.734375 5.859375 
Q 8.6875 13.140625 8.6875 27.390625 
z
" id="DejaVuSans-85"/>
      <path d="M 9.8125 72.90625 
L 19.671875 72.90625 
L 19.671875 42.09375 
L 52.390625 72.90625 
L 65.09375 72.90625 
L 28.90625 38.921875 
L 67.671875 0 
L 54.6875 0 
L 19.671875 35.109375 
L 19.671875 0 
L 9.8125 0 
z
" id="DejaVuSans-75"/>
     </defs>
     <g transform="translate(932.901875 59.227813)scale(0.14 -0.14)">
      <use xlink:href="#DejaVuSans-85"/>
      <use x="73.193359" xlink:href="#DejaVuSans-75"/>
     </g>
    </g>
    <g id="line2d_46">
     <path d="M 893.701875 74.877188 
L 921.701875 74.877188 
" style="fill:none;stroke:#3399ff;stroke-linecap:square;stroke-width:4;"/>
    </g>
    <g id="line2d_47"/>
    <g id="text_23">
     <!-- Europe -->
     <defs>
      <path d="M 9.8125 72.90625 
L 55.90625 72.90625 
L 55.90625 64.59375 
L 19.671875 64.59375 
L 19.671875 43.015625 
L 54.390625 43.015625 
L 54.390625 34.71875 
L 19.671875 34.71875 
L 19.671875 8.296875 
L 56.78125 8.296875 
L 56.78125 0 
L 9.8125 0 
z
" id="DejaVuSans-69"/>
     </defs>
     <g transform="translate(932.901875 79.777188)scale(0.14 -0.14)">
      <use xlink:href="#DejaVuSans-69"/>
      <use x="63.183594" xlink:href="#DejaVuSans-117"/>
      <use x="126.5625" xlink:href="#DejaVuSans-114"/>
      <use x="167.644531" xlink:href="#DejaVuSans-111"/>
      <use x="228.826172" xlink:href="#DejaVuSans-112"/>
      <use x="292.302734" xlink:href="#DejaVuSans-101"/>
     </g>
    </g>
    <g id="line2d_48">
     <path d="M 893.701875 95.426563 
L 921.701875 95.426563 
" style="fill:none;stroke:#009900;stroke-linecap:square;stroke-width:4;"/>
    </g>
    <g id="line2d_49"/>
    <g id="text_24">
     <!-- Global -->
     <defs>
      <path d="M 59.515625 10.40625 
L 59.515625 29.984375 
L 43.40625 29.984375 
L 43.40625 38.09375 
L 69.28125 38.09375 
L 69.28125 6.78125 
Q 63.578125 2.734375 56.6875 0.65625 
Q 49.8125 -1.421875 42 -1.421875 
Q 24.90625 -1.421875 15.25 8.5625 
Q 5.609375 18.5625 5.609375 36.375 
Q 5.609375 54.25 15.25 64.234375 
Q 24.90625 74.21875 42 74.21875 
Q 49.125 74.21875 55.546875 72.453125 
Q 61.96875 70.703125 67.390625 67.28125 
L 67.390625 56.78125 
Q 61.921875 61.421875 55.765625 63.765625 
Q 49.609375 66.109375 42.828125 66.109375 
Q 29.4375 66.109375 22.71875 58.640625 
Q 16.015625 51.171875 16.015625 36.375 
Q 16.015625 21.625 22.71875 14.15625 
Q 29.4375 6.6875 42.828125 6.6875 
Q 48.046875 6.6875 52.140625 7.59375 
Q 56.25 8.5 59.515625 10.40625 
z
" id="DejaVuSans-71"/>
     </defs>
     <g transform="translate(932.901875 100.326563)scale(0.14 -0.14)">
      <use xlink:href="#DejaVuSans-71"/>
      <use x="77.490234" xlink:href="#DejaVuSans-108"/>
      <use x="105.273438" xlink:href="#DejaVuSans-111"/>
      <use x="166.455078" xlink:href="#DejaVuSans-98"/>
      <use x="229.931641" xlink:href="#DejaVuSans-97"/>
      <use x="291.210938" xlink:href="#DejaVuSans-108"/>
     </g>
    </g>
   </g>
  </g>
 </g>
 <defs>
  <clipPath id="p429b64e4c5">
   <rect height="216.02" width="923.43" x="71.61" y="35.99"/>
  </clipPath>
 </defs>
</svg>
